<?xml version="1.0" encoding="UTF-8" standalone="no"?><svg xmlns="http://www.w3.org/2000/svg" xmlns:xlink="http://www.w3.org/1999/xlink" contentScriptType="application/ecmascript" contentStyleType="text/css" height="714px" preserveAspectRatio="none" style="width:982px;height:714px;" version="1.1" viewBox="0 0 982 714" width="982.8px" zoomAndPan="magnify"><defs><filter height="300%" id="f1kl2pnaq8if7t" width="300%" x="-1" y="-1"><feGaussianBlur result="blurOut" stdDeviation="1.2"/><feColorMatrix in="blurOut" result="blurOut2" type="matrix" values="0 0 0 0 0 0 0 0 0 0 0 0 0 0 0 0 0 0 .4 0"/><feOffset dx="2.4" dy="2.4" in="blurOut2" result="blurOut3"/><feBlend in="SourceGraphic" in2="blurOut3" mode="normal"/></filter></defs><g><!--MD5=[67de922c3cb216337ce05d80892b06aa]
class CreateEmployeeUI--><rect codeLine="3" fill="#FEFECE" filter="url(#f1kl2pnaq8if7t)" height="28.8" id="CreateEmployeeUI" style="stroke:#A80036;stroke-width:0.8999999999999999;" width="81.6" x="706.8" y="4.2"/><ellipse cx="715.8" cy="13.8" fill="#ADD1B2" rx="6.6" ry="6.6" style="stroke:#A80036;stroke-width:0.6;"/><path d="M717,11.7 Q717.1219,11.4 717.2625,11.25 Q717.4031,11.1 717.5625,11.1 Q717.8438,11.1 718.0219,11.2687 Q718.2,11.4375 718.2,11.8312 L718.2,12.7687 Q718.2,13.1625 718.0313,13.3312 Q717.8625,13.5 717.6,13.5 Q717.3656,13.5 717.2156,13.3969 Q717.0656,13.2938 717,13.0219 Q716.9719,12.8344 716.8688,12.7313 Q716.6813,12.5344 716.3438,12.4219 Q716.0063,12.3 715.6687,12.3 Q715.2469,12.3 714.8906,12.4688 Q714.5437,12.6375 714.2719,13.0125 Q714,13.3875 714,13.9031 L714,14.4562 Q714,15.075 714.5063,15.4875 Q715.0125,15.9 715.9125,15.9 Q716.4469,15.9 716.8219,15.7781 Q717.0375,15.7125 717.2813,15.4969 Q717.4406,15.375 717.525,15.3375 Q717.6094,15.3 717.7125,15.3 Q717.9094,15.3 718.05,15.4594 Q718.2,15.6094 718.2,15.825 Q718.2,16.0313 717.9938,16.275 Q717.6938,16.6312 717.2156,16.8281 Q716.5875,17.1 715.8188,17.1 Q714.9187,17.1 714.1969,16.7438 Q713.6156,16.4625 713.2031,15.8531 Q712.8,15.2437 712.8,14.5219 L712.8,13.8656 Q712.8,13.1156 713.1563,12.4594 Q713.5219,11.8031 714.15,11.4562 Q714.7875,11.1 715.5,11.1 Q715.9313,11.1 716.3063,11.25 Q716.6813,11.4 717,11.7 Z " fill="#000000"/><text fill="#000000" font-family="sans-serif" font-size="7.2" lengthAdjust="spacing" textLength="62.4" x="724.2" y="16.7461">CreateEmployeeUI</text><line style="stroke:#A80036;stroke-width:0.8999999999999999;" x1="707.4" x2="787.8" y1="23.4" y2="23.4"/><line style="stroke:#A80036;stroke-width:0.8999999999999999;" x1="707.4" x2="787.8" y1="28.2" y2="28.2"/><!--MD5=[6a4e699b59c2ecf8286aba2faa72e4bd]
class RegisterEmployeeController--><rect codeLine="6" fill="#FEFECE" filter="url(#f1kl2pnaq8if7t)" height="103.5141" id="RegisterEmployeeController" style="stroke:#A80036;stroke-width:0.8999999999999999;" width="137.4" x="449.1" y="69.6"/><ellipse cx="469.17" cy="79.2" fill="#ADD1B2" rx="6.6" ry="6.6" style="stroke:#A80036;stroke-width:0.6;"/><path d="M470.37,77.1 Q470.4919,76.8 470.6325,76.65 Q470.7731,76.5 470.9325,76.5 Q471.2138,76.5 471.3919,76.6688 Q471.57,76.8375 471.57,77.2313 L471.57,78.1688 Q471.57,78.5625 471.4013,78.7313 Q471.2325,78.9 470.97,78.9 Q470.7356,78.9 470.5856,78.7969 Q470.4356,78.6938 470.37,78.4219 Q470.3419,78.2344 470.2388,78.1313 Q470.0513,77.9344 469.7138,77.8219 Q469.3763,77.7 469.0388,77.7 Q468.6169,77.7 468.2606,77.8687 Q467.9138,78.0375 467.6419,78.4125 Q467.37,78.7875 467.37,79.3031 L467.37,79.8563 Q467.37,80.475 467.8763,80.8875 Q468.3825,81.3 469.2825,81.3 Q469.8169,81.3 470.1919,81.1781 Q470.4075,81.1125 470.6513,80.8969 Q470.8106,80.775 470.895,80.7375 Q470.9794,80.7 471.0825,80.7 Q471.2794,80.7 471.42,80.8594 Q471.57,81.0094 471.57,81.225 Q471.57,81.4312 471.3638,81.675 Q471.0638,82.0313 470.5856,82.2281 Q469.9575,82.5 469.1888,82.5 Q468.2888,82.5 467.5669,82.1438 Q466.9856,81.8625 466.5731,81.2531 Q466.17,80.6438 466.17,79.9219 L466.17,79.2656 Q466.17,78.5156 466.5263,77.8594 Q466.8919,77.2031 467.52,76.8563 Q468.1575,76.5 468.87,76.5 Q469.3013,76.5 469.6763,76.65 Q470.0513,76.8 470.37,77.1 Z " fill="#000000"/><text fill="#000000" font-family="sans-serif" font-size="7.2" lengthAdjust="spacing" textLength="93.6" x="480.03" y="82.1461">RegisterEmployeeController</text><line style="stroke:#A80036;stroke-width:0.8999999999999999;" x1="449.7" x2="585.9" y1="88.8" y2="88.8"/><text fill="#000000" font-family="sans-serif" font-size="6.6" lengthAdjust="spacing" textLength="57.6" x="452.7" y="98.0514">-Company company</text><text fill="#000000" font-family="sans-serif" font-size="6.6" lengthAdjust="spacing" textLength="43.8" x="452.7" y="106.3529">-Employee emp</text><text fill="#000000" font-family="sans-serif" font-size="6.6" lengthAdjust="spacing" textLength="58.2" x="452.7" y="114.6545">-SpecialistDoctor sd</text><text fill="#000000" font-family="sans-serif" font-size="6.6" lengthAdjust="spacing" textLength="80.4" x="452.7" y="122.9561">-String generatedPassword</text><line style="stroke:#A80036;stroke-width:0.8999999999999999;" x1="449.7" x2="585.9" y1="126.8062" y2="126.8062"/><text fill="#000000" font-family="sans-serif" font-size="6.6" lengthAdjust="spacing" textLength="79.2" x="452.7" y="136.0576">+createEmployee(empDTO)</text><text fill="#000000" font-family="sans-serif" font-size="6.6" lengthAdjust="spacing" textLength="50.4" x="452.7" y="144.3592">+saveEmployee()</text><text fill="#000000" font-family="sans-serif" font-size="6.6" lengthAdjust="spacing" textLength="33.6" x="452.7" y="152.6607">+getRoles()</text><text fill="#000000" font-family="sans-serif" font-size="6.6" lengthAdjust="spacing" textLength="69.6" x="452.7" y="160.9623">+makeEmployeeAUser()</text><text fill="#000000" font-family="sans-serif" font-size="6.6" lengthAdjust="spacing" textLength="130.2" x="452.7" y="169.2639">+makeEmployeeAnUserAndSendPassword()</text><!--MD5=[7421f545a0d8420c5bec41e74b387d9c]
class Employee--><rect codeLine="18" fill="#FEFECE" filter="url(#f1kl2pnaq8if7t)" height="194.8312" id="Employee" style="stroke:#A80036;stroke-width:0.8999999999999999;" width="183" x="224.7" y="385.2"/><ellipse cx="297.15" cy="394.8" fill="#ADD1B2" rx="6.6" ry="6.6" style="stroke:#A80036;stroke-width:0.6;"/><path d="M298.35,392.7 Q298.4719,392.4 298.6125,392.25 Q298.7531,392.1 298.9125,392.1 Q299.1937,392.1 299.3719,392.2688 Q299.55,392.4375 299.55,392.8313 L299.55,393.7688 Q299.55,394.1625 299.3812,394.3313 Q299.2125,394.5 298.95,394.5 Q298.7156,394.5 298.5656,394.3969 Q298.4156,394.2938 298.35,394.0219 Q298.3219,393.8344 298.2188,393.7313 Q298.0313,393.5344 297.6937,393.4219 Q297.3563,393.3 297.0188,393.3 Q296.5969,393.3 296.2406,393.4688 Q295.8938,393.6375 295.6219,394.0125 Q295.35,394.3875 295.35,394.9031 L295.35,395.4563 Q295.35,396.075 295.8563,396.4875 Q296.3625,396.9 297.2625,396.9 Q297.7969,396.9 298.1719,396.7781 Q298.3875,396.7125 298.6312,396.4969 Q298.7906,396.375 298.875,396.3375 Q298.9594,396.3 299.0625,396.3 Q299.2594,396.3 299.4,396.4594 Q299.55,396.6094 299.55,396.825 Q299.55,397.0313 299.3438,397.275 Q299.0438,397.6312 298.5656,397.8281 Q297.9375,398.1 297.1688,398.1 Q296.2688,398.1 295.5469,397.7438 Q294.9656,397.4625 294.5531,396.8531 Q294.15,396.2438 294.15,395.5219 L294.15,394.8656 Q294.15,394.1156 294.5062,393.4594 Q294.8719,392.8031 295.5,392.4563 Q296.1375,392.1 296.85,392.1 Q297.2813,392.1 297.6563,392.25 Q298.0313,392.4 298.35,392.7 Z " fill="#000000"/><text fill="#000000" font-family="sans-serif" font-size="7.2" lengthAdjust="spacing" textLength="33" x="309.45" y="397.7461">Employee</text><line style="stroke:#A80036;stroke-width:0.8999999999999999;" x1="225.3" x2="407.1" y1="404.4" y2="404.4"/><text fill="#000000" font-family="sans-serif" font-size="6.6" lengthAdjust="spacing" textLength="38.4" x="228.3" y="413.6514">-OrgRole role</text><text fill="#000000" font-family="sans-serif" font-size="6.6" lengthAdjust="spacing" textLength="54" x="228.3" y="421.9529">-String employeeID</text><text fill="#000000" font-family="sans-serif" font-size="6.6" lengthAdjust="spacing" textLength="36.6" x="228.3" y="430.2545">-String name</text><text fill="#000000" font-family="sans-serif" font-size="6.6" lengthAdjust="spacing" textLength="45" x="228.3" y="438.5561">-String address</text><text fill="#000000" font-family="sans-serif" font-size="6.6" lengthAdjust="spacing" textLength="61.2" x="228.3" y="446.8576">-String phoneNumber</text><text fill="#000000" font-family="sans-serif" font-size="6.6" lengthAdjust="spacing" textLength="35.4" x="228.3" y="455.1592">-String email</text><text fill="#000000" font-family="sans-serif" font-size="6.6" lengthAdjust="spacing" textLength="46.8" x="228.3" y="463.4607">-String socCode</text><line style="stroke:#A80036;stroke-width:0.8999999999999999;" x1="225.3" x2="407.1" y1="467.3109" y2="467.3109"/><text fill="#000000" font-family="sans-serif" font-size="6.6" lengthAdjust="spacing" textLength="175.8" x="228.3" y="476.5623">+Employee(role,name,address,phoneNumber,email,socCode)</text><text fill="#000000" font-family="sans-serif" font-size="6.6" lengthAdjust="spacing" textLength="82.8" x="228.3" y="484.8639">+generateEmployeeID(name)</text><text fill="#000000" font-family="sans-serif" font-size="6.6" lengthAdjust="spacing" textLength="54.6" x="228.3" y="493.1654">+checkRoleRules()</text><text fill="#000000" font-family="sans-serif" font-size="6.6" lengthAdjust="spacing" textLength="58.2" x="228.3" y="501.467">+checkNameRules()</text><text fill="#000000" font-family="sans-serif" font-size="6.6" lengthAdjust="spacing" textLength="67.2" x="228.3" y="509.7686">+checkAddressRules()</text><text fill="#000000" font-family="sans-serif" font-size="6.6" lengthAdjust="spacing" textLength="82.2" x="228.3" y="518.0701">+checkPhoneNumberRules()</text><text fill="#000000" font-family="sans-serif" font-size="6.6" lengthAdjust="spacing" textLength="56.4" x="228.3" y="526.3717">+checkEmailRules()</text><text fill="#000000" font-family="sans-serif" font-size="6.6" lengthAdjust="spacing" textLength="68.4" x="228.3" y="534.6732">+checkSocCodeRules()</text><text fill="#000000" font-family="sans-serif" font-size="6.6" lengthAdjust="spacing" textLength="33.6" x="228.3" y="542.9748">+getName()</text><text fill="#000000" font-family="sans-serif" font-size="6.6" lengthAdjust="spacing" textLength="31.8" x="228.3" y="551.2764">+getEmail()</text><text fill="#000000" font-family="sans-serif" font-size="6.6" lengthAdjust="spacing" textLength="30" x="228.3" y="559.5779">+getRole()</text><text fill="#000000" font-family="sans-serif" font-size="6.6" lengthAdjust="spacing" textLength="30.6" x="228.3" y="567.8795">+toString()</text><text fill="#000000" font-family="sans-serif" font-size="6.6" lengthAdjust="spacing" textLength="61.2" x="228.3" y="576.1811">+equals(otherObject)</text><!--MD5=[7d96fd15f3014691d2fcaf89c5791e2a]
class SpecialistDoctor--><rect codeLine="41" fill="#FEFECE" filter="url(#f1kl2pnaq8if7t)" height="70.3078" id="SpecialistDoctor" style="stroke:#A80036;stroke-width:0.8999999999999999;" width="260.4" x="4.2" y="631.2"/><ellipse cx="104.85" cy="640.8" fill="#ADD1B2" rx="6.6" ry="6.6" style="stroke:#A80036;stroke-width:0.6;"/><path d="M106.05,638.7 Q106.1719,638.4 106.3125,638.25 Q106.4531,638.1 106.6125,638.1 Q106.8938,638.1 107.0719,638.2688 Q107.25,638.4375 107.25,638.8313 L107.25,639.7688 Q107.25,640.1625 107.0813,640.3313 Q106.9125,640.5 106.65,640.5 Q106.4156,640.5 106.2656,640.3969 Q106.1156,640.2937 106.05,640.0219 Q106.0219,639.8344 105.9188,639.7312 Q105.7313,639.5344 105.3938,639.4219 Q105.0562,639.3 104.7188,639.3 Q104.2969,639.3 103.9406,639.4688 Q103.5938,639.6375 103.3219,640.0125 Q103.05,640.3875 103.05,640.9031 L103.05,641.4563 Q103.05,642.075 103.5562,642.4875 Q104.0625,642.9 104.9625,642.9 Q105.4969,642.9 105.8719,642.7781 Q106.0875,642.7125 106.3313,642.4969 Q106.4906,642.375 106.575,642.3375 Q106.6594,642.3 106.7625,642.3 Q106.9594,642.3 107.1,642.4594 Q107.25,642.6094 107.25,642.825 Q107.25,643.0313 107.0438,643.275 Q106.7437,643.6313 106.2656,643.8281 Q105.6375,644.1 104.8687,644.1 Q103.9688,644.1 103.2469,643.7438 Q102.6656,643.4625 102.2531,642.8531 Q101.85,642.2438 101.85,641.5219 L101.85,640.8656 Q101.85,640.1156 102.2063,639.4594 Q102.5719,638.8031 103.2,638.4563 Q103.8375,638.1 104.55,638.1 Q104.9813,638.1 105.3563,638.25 Q105.7313,638.4 106.05,638.7 Z " fill="#000000"/><text fill="#000000" font-family="sans-serif" font-size="7.2" lengthAdjust="spacing" textLength="54" x="117.15" y="643.7461">SpecialistDoctor</text><line style="stroke:#A80036;stroke-width:0.8999999999999999;" x1="4.8" x2="264" y1="650.4" y2="650.4"/><text fill="#000000" font-family="sans-serif" font-size="6.6" lengthAdjust="spacing" textLength="77.4" x="7.8" y="659.6514">-String doctorIndexNumber</text><line style="stroke:#A80036;stroke-width:0.8999999999999999;" x1="4.8" x2="264" y1="663.5016" y2="663.5016"/><text fill="#000000" font-family="sans-serif" font-size="6.6" lengthAdjust="spacing" textLength="253.2" x="7.8" y="672.7529">+SpecialistDoctor(role,name,address,phoneNumber,email,socCode,doctorIndexNumber)</text><text fill="#000000" font-family="sans-serif" font-size="6.6" lengthAdjust="spacing" textLength="155.4" x="7.8" y="681.0545">+checkDoctorIndexNumberRules(doctorIndexNumber)</text><text fill="#000000" font-family="sans-serif" font-size="6.6" lengthAdjust="spacing" textLength="30.6" x="7.8" y="689.3561">+toString()</text><text fill="#000000" font-family="sans-serif" font-size="6.6" lengthAdjust="spacing" textLength="61.2" x="7.8" y="697.6576">+equals(otherObject)</text><!--MD5=[b65e6cec79d32d494d76fa2df2ac0ae9]
class OrgRole--><rect codeLine="49" fill="#FEFECE" filter="url(#f1kl2pnaq8if7t)" height="78.6094" id="OrgRole" style="stroke:#A80036;stroke-width:0.8999999999999999;" width="97.2" x="401.4" y="627"/><ellipse cx="433.65" cy="636.6" fill="#ADD1B2" rx="6.6" ry="6.6" style="stroke:#A80036;stroke-width:0.6;"/><path d="M434.85,634.5 Q434.9719,634.2 435.1125,634.05 Q435.2531,633.9 435.4125,633.9 Q435.6937,633.9 435.8719,634.0688 Q436.05,634.2375 436.05,634.6313 L436.05,635.5688 Q436.05,635.9625 435.8812,636.1313 Q435.7125,636.3 435.45,636.3 Q435.2156,636.3 435.0656,636.1969 Q434.9156,636.0938 434.85,635.8219 Q434.8219,635.6344 434.7188,635.5313 Q434.5313,635.3344 434.1937,635.2219 Q433.8563,635.1 433.5188,635.1 Q433.0969,635.1 432.7406,635.2688 Q432.3938,635.4375 432.1219,635.8125 Q431.85,636.1875 431.85,636.7031 L431.85,637.2563 Q431.85,637.875 432.3563,638.2875 Q432.8625,638.7 433.7625,638.7 Q434.2969,638.7 434.6719,638.5781 Q434.8875,638.5125 435.1312,638.2969 Q435.2906,638.175 435.375,638.1375 Q435.4594,638.1 435.5625,638.1 Q435.7594,638.1 435.9,638.2594 Q436.05,638.4094 436.05,638.625 Q436.05,638.8313 435.8438,639.075 Q435.5438,639.4313 435.0656,639.6281 Q434.4375,639.9 433.6688,639.9 Q432.7688,639.9 432.0469,639.5437 Q431.4656,639.2625 431.0531,638.6531 Q430.65,638.0437 430.65,637.3219 L430.65,636.6656 Q430.65,635.9156 431.0062,635.2594 Q431.3719,634.6031 432,634.2563 Q432.6375,633.9 433.35,633.9 Q433.7813,633.9 434.1563,634.05 Q434.5313,634.2 434.85,634.5 Z " fill="#000000"/><text fill="#000000" font-family="sans-serif" font-size="7.2" lengthAdjust="spacing" textLength="27.6" x="445.95" y="639.5461">OrgRole</text><line style="stroke:#A80036;stroke-width:0.8999999999999999;" x1="402" x2="498" y1="646.2" y2="646.2"/><text fill="#000000" font-family="sans-serif" font-size="6.6" lengthAdjust="spacing" textLength="52.8" x="405" y="655.4514">-String description</text><line style="stroke:#A80036;stroke-width:0.8999999999999999;" x1="402" x2="498" y1="659.3016" y2="659.3016"/><text fill="#000000" font-family="sans-serif" font-size="6.6" lengthAdjust="spacing" textLength="63.6" x="405" y="668.5529">+OrgRole(description)</text><text fill="#000000" font-family="sans-serif" font-size="6.6" lengthAdjust="spacing" textLength="90" x="405" y="676.8545">+checkDescription(description)</text><text fill="#000000" font-family="sans-serif" font-size="6.6" lengthAdjust="spacing" textLength="49.8" x="405" y="685.1561">+getDescription()</text><text fill="#000000" font-family="sans-serif" font-size="6.6" lengthAdjust="spacing" textLength="30.6" x="405" y="693.4576">+toString()</text><text fill="#000000" font-family="sans-serif" font-size="6.6" lengthAdjust="spacing" textLength="61.2" x="405" y="701.7592">+equals(otherObject)</text><!--MD5=[b41a7a68d0ed58b2283c1f0b0f50bfb9]
class OrgRoleDTO--><rect codeLine="58" fill="#FEFECE" filter="url(#f1kl2pnaq8if7t)" height="62.0062" id="OrgRoleDTO" style="stroke:#A80036;stroke-width:0.8999999999999999;" width="83.4" x="592.5" y="243.3"/><ellipse cx="611.22" cy="252.9" fill="#ADD1B2" rx="6.6" ry="6.6" style="stroke:#A80036;stroke-width:0.6;"/><path d="M612.42,250.8 Q612.5419,250.5 612.6825,250.35 Q612.8231,250.2 612.9825,250.2 Q613.2638,250.2 613.4419,250.3687 Q613.62,250.5375 613.62,250.9312 L613.62,251.8687 Q613.62,252.2625 613.4513,252.4312 Q613.2825,252.6 613.02,252.6 Q612.7856,252.6 612.6356,252.4969 Q612.4856,252.3937 612.42,252.1219 Q612.3919,251.9344 612.2888,251.8312 Q612.1013,251.6344 611.7638,251.5219 Q611.4263,251.4 611.0888,251.4 Q610.6669,251.4 610.3106,251.5688 Q609.9638,251.7375 609.6919,252.1125 Q609.42,252.4875 609.42,253.0031 L609.42,253.5562 Q609.42,254.175 609.9263,254.5875 Q610.4325,255 611.3325,255 Q611.8669,255 612.2419,254.8781 Q612.4575,254.8125 612.7013,254.5969 Q612.8606,254.475 612.945,254.4375 Q613.0294,254.4 613.1325,254.4 Q613.3294,254.4 613.47,254.5594 Q613.62,254.7094 613.62,254.925 Q613.62,255.1313 613.4138,255.375 Q613.1138,255.7313 612.6356,255.9281 Q612.0075,256.2 611.2388,256.2 Q610.3388,256.2 609.6169,255.8438 Q609.0356,255.5625 608.6231,254.9531 Q608.22,254.3438 608.22,253.6219 L608.22,252.9656 Q608.22,252.2156 608.5763,251.5594 Q608.9419,250.9031 609.57,250.5562 Q610.2075,250.2 610.92,250.2 Q611.3513,250.2 611.7263,250.35 Q612.1013,250.5 612.42,250.8 Z " fill="#000000"/><text fill="#000000" font-family="sans-serif" font-size="7.2" lengthAdjust="spacing" textLength="42.6" x="621.78" y="255.8461">OrgRoleDTO</text><line style="stroke:#A80036;stroke-width:0.8999999999999999;" x1="593.1" x2="675.3" y1="262.5" y2="262.5"/><text fill="#000000" font-family="sans-serif" font-size="6.6" lengthAdjust="spacing" textLength="52.8" x="596.1" y="271.7514">-String description</text><line style="stroke:#A80036;stroke-width:0.8999999999999999;" x1="593.1" x2="675.3" y1="275.6016" y2="275.6016"/><text fill="#000000" font-family="sans-serif" font-size="6.6" lengthAdjust="spacing" textLength="76.2" x="596.1" y="284.8529">+OrgRoleDTO(description)</text><text fill="#000000" font-family="sans-serif" font-size="6.6" lengthAdjust="spacing" textLength="49.8" x="596.1" y="293.1545">+getDescription()</text><text fill="#000000" font-family="sans-serif" font-size="6.6" lengthAdjust="spacing" textLength="30.6" x="596.1" y="301.4561">+toString()</text><!--MD5=[00f5a8d890e3e1ee187254d4d2c6b7cb]
class EmployeeDTO--><rect codeLine="65" fill="#FEFECE" filter="url(#f1kl2pnaq8if7t)" height="128.4188" id="EmployeeDTO" style="stroke:#A80036;stroke-width:0.8999999999999999;" width="238.2" x="696.9" y="210"/><ellipse cx="789.45" cy="219.6" fill="#ADD1B2" rx="6.6" ry="6.6" style="stroke:#A80036;stroke-width:0.6;"/><path d="M790.65,217.5 Q790.7719,217.2 790.9125,217.05 Q791.0531,216.9 791.2125,216.9 Q791.4938,216.9 791.6719,217.0688 Q791.85,217.2375 791.85,217.6313 L791.85,218.5688 Q791.85,218.9625 791.6813,219.1313 Q791.5125,219.3 791.25,219.3 Q791.0156,219.3 790.8656,219.1969 Q790.7156,219.0938 790.65,218.8219 Q790.6219,218.6344 790.5188,218.5313 Q790.3313,218.3344 789.9938,218.2219 Q789.6563,218.1 789.3188,218.1 Q788.8969,218.1 788.5406,218.2687 Q788.1938,218.4375 787.9219,218.8125 Q787.65,219.1875 787.65,219.7031 L787.65,220.2563 Q787.65,220.875 788.1563,221.2875 Q788.6625,221.7 789.5625,221.7 Q790.0969,221.7 790.4719,221.5781 Q790.6875,221.5125 790.9313,221.2969 Q791.0906,221.175 791.175,221.1375 Q791.2594,221.1 791.3625,221.1 Q791.5594,221.1 791.7,221.2594 Q791.85,221.4094 791.85,221.625 Q791.85,221.8312 791.6438,222.075 Q791.3438,222.4313 790.8656,222.6281 Q790.2375,222.9 789.4688,222.9 Q788.5688,222.9 787.8469,222.5438 Q787.2656,222.2625 786.8531,221.6531 Q786.45,221.0438 786.45,220.3219 L786.45,219.6656 Q786.45,218.9156 786.8063,218.2594 Q787.1719,217.6031 787.8,217.2563 Q788.4375,216.9 789.15,216.9 Q789.5813,216.9 789.9563,217.05 Q790.3313,217.2 790.65,217.5 Z " fill="#000000"/><text fill="#000000" font-family="sans-serif" font-size="7.2" lengthAdjust="spacing" textLength="48" x="801.75" y="222.5461">EmployeeDTO</text><line style="stroke:#A80036;stroke-width:0.8999999999999999;" x1="697.5" x2="934.5" y1="229.2" y2="229.2"/><text fill="#000000" font-family="sans-serif" font-size="6.6" lengthAdjust="spacing" textLength="65.4" x="700.5" y="238.4514">-String roleDesignation</text><text fill="#000000" font-family="sans-serif" font-size="6.6" lengthAdjust="spacing" textLength="36.6" x="700.5" y="246.7529">-String name</text><text fill="#000000" font-family="sans-serif" font-size="6.6" lengthAdjust="spacing" textLength="45" x="700.5" y="255.0545">-String address</text><text fill="#000000" font-family="sans-serif" font-size="6.6" lengthAdjust="spacing" textLength="61.2" x="700.5" y="263.3561">-String phoneNumber</text><text fill="#000000" font-family="sans-serif" font-size="6.6" lengthAdjust="spacing" textLength="35.4" x="700.5" y="271.6576">-String email</text><text fill="#000000" font-family="sans-serif" font-size="6.6" lengthAdjust="spacing" textLength="46.8" x="700.5" y="279.9592">-String socCode</text><line style="stroke:#A80036;stroke-width:0.8999999999999999;" x1="697.5" x2="934.5" y1="283.8094" y2="283.8094"/><text fill="#000000" font-family="sans-serif" font-size="6.6" lengthAdjust="spacing" textLength="231" x="700.5" y="293.0607">+EmployeeDTO(roleDesignation, name, address, phoneNumber, email, socCode)</text><text fill="#000000" font-family="sans-serif" font-size="6.6" lengthAdjust="spacing" textLength="63.6" x="700.5" y="301.3623">+getRoleDesignation()</text><text fill="#000000" font-family="sans-serif" font-size="6.6" lengthAdjust="spacing" textLength="33.6" x="700.5" y="309.6639">+getName()</text><text fill="#000000" font-family="sans-serif" font-size="6.6" lengthAdjust="spacing" textLength="42.6" x="700.5" y="317.9654">+getAddress()</text><text fill="#000000" font-family="sans-serif" font-size="6.6" lengthAdjust="spacing" textLength="57.6" x="700.5" y="326.267">+getPhoneNumber()</text><text fill="#000000" font-family="sans-serif" font-size="6.6" lengthAdjust="spacing" textLength="31.8" x="700.5" y="334.5686">+getEmail()</text><!--MD5=[efd4d2a09dd34a22f7d70ab89d3f6385]
class SpecialistDoctorDTO--><rect codeLine="80" fill="#FEFECE" filter="url(#f1kl2pnaq8if7t)" height="53.7047" id="SpecialistDoctorDTO" style="stroke:#A80036;stroke-width:0.8999999999999999;" width="317.4" x="657.3" y="455.7"/><ellipse cx="778.95" cy="465.3" fill="#ADD1B2" rx="6.6" ry="6.6" style="stroke:#A80036;stroke-width:0.6;"/><path d="M780.15,463.2 Q780.2719,462.9 780.4125,462.75 Q780.5531,462.6 780.7125,462.6 Q780.9938,462.6 781.1719,462.7687 Q781.35,462.9375 781.35,463.3312 L781.35,464.2687 Q781.35,464.6625 781.1813,464.8312 Q781.0125,465 780.75,465 Q780.5156,465 780.3656,464.8969 Q780.2156,464.7938 780.15,464.5219 Q780.1219,464.3344 780.0188,464.2313 Q779.8313,464.0344 779.4938,463.9219 Q779.1563,463.8 778.8188,463.8 Q778.3969,463.8 778.0406,463.9688 Q777.6938,464.1375 777.4219,464.5125 Q777.15,464.8875 777.15,465.4031 L777.15,465.9562 Q777.15,466.575 777.6563,466.9875 Q778.1625,467.4 779.0625,467.4 Q779.5969,467.4 779.9719,467.2781 Q780.1875,467.2125 780.4313,466.9969 Q780.5906,466.875 780.675,466.8375 Q780.7594,466.8 780.8625,466.8 Q781.0594,466.8 781.2,466.9594 Q781.35,467.1094 781.35,467.325 Q781.35,467.5313 781.1438,467.775 Q780.8438,468.1312 780.3656,468.3281 Q779.7375,468.6 778.9688,468.6 Q778.0688,468.6 777.3469,468.2438 Q776.7656,467.9625 776.3531,467.3531 Q775.95,466.7438 775.95,466.0219 L775.95,465.3656 Q775.95,464.6156 776.3063,463.9594 Q776.6719,463.3031 777.3,462.9562 Q777.9375,462.6 778.65,462.6 Q779.0813,462.6 779.4563,462.75 Q779.8313,462.9 780.15,463.2 Z " fill="#000000"/><text fill="#000000" font-family="sans-serif" font-size="7.2" lengthAdjust="spacing" textLength="69" x="791.25" y="468.2461">SpecialistDoctorDTO</text><line style="stroke:#A80036;stroke-width:0.8999999999999999;" x1="657.9" x2="974.1" y1="474.9" y2="474.9"/><text fill="#000000" font-family="sans-serif" font-size="6.6" lengthAdjust="spacing" textLength="77.4" x="660.9" y="484.1514">-String doctorIndexNumber</text><line style="stroke:#A80036;stroke-width:0.8999999999999999;" x1="657.9" x2="974.1" y1="488.0016" y2="488.0016"/><text fill="#000000" font-family="sans-serif" font-size="6.6" lengthAdjust="spacing" textLength="310.2" x="660.9" y="497.2529">+SpecialistDoctorDTO(roleDesignation, name, address, phoneNumber, email, socCode, doctorIndexNumber)</text><text fill="#000000" font-family="sans-serif" font-size="6.6" lengthAdjust="spacing" textLength="74.4" x="660.9" y="505.5545">+getDoctorIndexNumber()</text><!--MD5=[3fd616f346a44cd59a91eb10b19e157c]
class User--><rect codeLine="86" fill="#FEFECE" filter="url(#f1kl2pnaq8if7t)" height="62.0062" id="User" style="stroke:#A80036;stroke-width:0.8999999999999999;" width="71.4" x="285.9" y="635.4"/><ellipse cx="311.1" cy="645" fill="#ADD1B2" rx="6.6" ry="6.6" style="stroke:#A80036;stroke-width:0.6;"/><path d="M312.3,642.9 Q312.4219,642.6 312.5625,642.45 Q312.7031,642.3 312.8625,642.3 Q313.1438,642.3 313.3219,642.4688 Q313.5,642.6375 313.5,643.0313 L313.5,643.9688 Q313.5,644.3625 313.3313,644.5313 Q313.1625,644.7 312.9,644.7 Q312.6656,644.7 312.5156,644.5969 Q312.3656,644.4938 312.3,644.2219 Q312.2719,644.0344 312.1688,643.9313 Q311.9813,643.7344 311.6438,643.6219 Q311.3063,643.5 310.9688,643.5 Q310.5469,643.5 310.1906,643.6687 Q309.8438,643.8375 309.5719,644.2125 Q309.3,644.5875 309.3,645.1031 L309.3,645.6563 Q309.3,646.275 309.8063,646.6875 Q310.3125,647.1 311.2125,647.1 Q311.7469,647.1 312.1219,646.9781 Q312.3375,646.9125 312.5813,646.6969 Q312.7406,646.575 312.825,646.5375 Q312.9094,646.5 313.0125,646.5 Q313.2094,646.5 313.35,646.6594 Q313.5,646.8094 313.5,647.025 Q313.5,647.2312 313.2938,647.475 Q312.9938,647.8313 312.5156,648.0281 Q311.8875,648.3 311.1188,648.3 Q310.2188,648.3 309.4969,647.9438 Q308.9156,647.6625 308.5031,647.0531 Q308.1,646.4438 308.1,645.7219 L308.1,645.0656 Q308.1,644.3156 308.4563,643.6594 Q308.8219,643.0031 309.45,642.6563 Q310.0875,642.3 310.8,642.3 Q311.2313,642.3 311.6063,642.45 Q311.9813,642.6 312.3,642.9 Z " fill="#000000"/><text fill="#000000" font-family="sans-serif" font-size="7.2" lengthAdjust="spacing" textLength="16.2" x="323.1" y="647.9461">User</text><line style="stroke:#A80036;stroke-width:0.8999999999999999;" x1="286.5" x2="356.7" y1="654.6" y2="654.6"/><text fill="#000000" font-family="sans-serif" font-size="6.6" lengthAdjust="spacing" textLength="23.4" x="289.5" y="663.8514">-Email id</text><text fill="#000000" font-family="sans-serif" font-size="6.6" lengthAdjust="spacing" textLength="64.2" x="289.5" y="672.1529">-Password password</text><text fill="#000000" font-family="sans-serif" font-size="6.6" lengthAdjust="spacing" textLength="36.6" x="289.5" y="680.4545">-String name</text><text fill="#000000" font-family="sans-serif" font-size="6.6" lengthAdjust="spacing" textLength="61.8" x="289.5" y="688.7561">-Set&lt;UserRole&gt; roles</text><line style="stroke:#A80036;stroke-width:0.8999999999999999;" x1="286.5" x2="356.7" y1="692.6062" y2="692.6062"/><!--MD5=[02e4b9b7573f1156f41e60aa5b4e25a4]
class Company--><rect fill="#FEFECE" filter="url(#f1kl2pnaq8if7t)" height="28.8" id="Company" style="stroke:#A80036;stroke-width:0.8999999999999999;" width="51" x="424.5" y="259.8"/><ellipse cx="433.5" cy="269.4" fill="#ADD1B2" rx="6.6" ry="6.6" style="stroke:#A80036;stroke-width:0.6;"/><path d="M434.7,267.3 Q434.8219,267 434.9625,266.85 Q435.1031,266.7 435.2625,266.7 Q435.5438,266.7 435.7219,266.8688 Q435.9,267.0375 435.9,267.4313 L435.9,268.3688 Q435.9,268.7625 435.7313,268.9313 Q435.5625,269.1 435.3,269.1 Q435.0656,269.1 434.9156,268.9969 Q434.7656,268.8938 434.7,268.6219 Q434.6719,268.4344 434.5687,268.3313 Q434.3812,268.1344 434.0438,268.0219 Q433.7063,267.9 433.3688,267.9 Q432.9469,267.9 432.5906,268.0687 Q432.2438,268.2375 431.9719,268.6125 Q431.7,268.9875 431.7,269.5031 L431.7,270.0563 Q431.7,270.675 432.2063,271.0875 Q432.7125,271.5 433.6125,271.5 Q434.1469,271.5 434.5219,271.3781 Q434.7375,271.3125 434.9813,271.0969 Q435.1406,270.975 435.225,270.9375 Q435.3094,270.9 435.4125,270.9 Q435.6094,270.9 435.75,271.0594 Q435.9,271.2094 435.9,271.425 Q435.9,271.6312 435.6937,271.875 Q435.3938,272.2313 434.9156,272.4281 Q434.2875,272.7 433.5188,272.7 Q432.6188,272.7 431.8969,272.3438 Q431.3156,272.0625 430.9031,271.4531 Q430.5,270.8438 430.5,270.1219 L430.5,269.4656 Q430.5,268.7156 430.8563,268.0594 Q431.2219,267.4031 431.85,267.0563 Q432.4875,266.7 433.2,266.7 Q433.6312,266.7 434.0062,266.85 Q434.3812,267 434.7,267.3 Z " fill="#000000"/><text fill="#000000" font-family="sans-serif" font-size="7.2" lengthAdjust="spacing" textLength="31.8" x="441.9" y="272.3461">Company</text><line style="stroke:#A80036;stroke-width:0.8999999999999999;" x1="425.1" x2="474.9" y1="279" y2="279"/><line style="stroke:#A80036;stroke-width:0.8999999999999999;" x1="425.1" x2="474.9" y1="283.8" y2="283.8"/><!--MD5=[324093a90dc3dc9deb2a8d5df83fc6a7]
link CreateEmployeeUI to RegisterEmployeeController--><path codeLine="94" d="M706.758,29.13 C686.694,34.584 662.382,42.06 641.4,51 C624.018,58.41 605.964,67.644 589.2,76.956 " fill="none" id="CreateEmployeeUI-to-RegisterEmployeeController" style="stroke:#A80036;stroke-width:0.6;stroke-dasharray:7.0,7.0;"/><polygon fill="#A80036" points="586.518,78.45,592.4027,77.9108,589.1368,76.9865,590.0611,73.7207,586.518,78.45" style="stroke:#A80036;stroke-width:0.6;"/><!--MD5=[372bd27a178b4208a6d241b4516ac7e6]
reverse link Employee to SpecialistDoctor--><path codeLine="95" d="M215.904,583.926 C199.002,600.888 182.532,617.406 168.876,631.11 " fill="none" id="Employee-backto-SpecialistDoctor" style="stroke:#A80036;stroke-width:0.6;"/><polygon fill="none" points="213.054,580.836,224.502,575.304,219.006,586.764,213.054,580.836" style="stroke:#A80036;stroke-width:0.6;"/><!--MD5=[7c63a46d16d075ca7ac66937a2a499f7]
link RegisterEmployeeController to Employee--><path codeLine="96" d="M449.034,171.402 C436.146,182.964 423.69,196.032 414,210 C378.12,261.708 353.928,328.038 338.58,382.26 " fill="none" id="RegisterEmployeeController-to-Employee" style="stroke:#A80036;stroke-width:0.6;stroke-dasharray:7.0,7.0;"/><polygon fill="#A80036" points="337.764,385.158,341.5266,380.6014,338.57,382.2683,336.9031,379.3117,337.764,385.158" style="stroke:#A80036;stroke-width:0.6;"/><!--MD5=[3ff810e9c389706adcf7000c48f3e59d]
link RegisterEmployeeController to SpecialistDoctor--><path codeLine="97" d="M449.004,124.398 C383.28,130.368 285.966,149.682 228.6,210 C116.628,327.726 122.448,541.728 130.092,628.08 " fill="none" id="RegisterEmployeeController-to-SpecialistDoctor" style="stroke:#A80036;stroke-width:0.6;stroke-dasharray:7.0,7.0;"/><polygon fill="#A80036" points="130.362,631.092,132.2748,625.5008,130.0966,628.1038,127.4936,625.9255,130.362,631.092" style="stroke:#A80036;stroke-width:0.6;"/><!--MD5=[f8b6a16d191e2c1bf5323256eb801084]
link CreateEmployeeUI to EmployeeDTO--><path codeLine="98" d="M751.326,33.06 C760.014,65.382 782.1,147.516 798.048,206.82 " fill="none" id="CreateEmployeeUI-to-EmployeeDTO" style="stroke:#A80036;stroke-width:0.6;stroke-dasharray:7.0,7.0;"/><polygon fill="#A80036" points="798.846,209.808,799.7596,203.9697,798.0661,206.9112,795.1247,205.2176,798.846,209.808" style="stroke:#A80036;stroke-width:0.6;"/><!--MD5=[97d62e7ee9342f7bfc189bbe53f12415]
link CreateEmployeeUI to SpecialistDoctorDTO--><path codeLine="99" d="M771.642,33.09 C816.054,60.33 909.696,125.538 945.6,210 C967.926,262.518 966.072,285.132 945.6,338.4 C927.336,385.926 885.276,427.542 853.998,453.588 " fill="none" id="CreateEmployeeUI-to-SpecialistDoctorDTO" style="stroke:#A80036;stroke-width:0.6;stroke-dasharray:7.0,7.0;"/><polygon fill="#A80036" points="851.574,455.592,857.2659,454.0037,853.8871,453.6816,854.2092,450.3028,851.574,455.592" style="stroke:#A80036;stroke-width:0.6;"/><!--MD5=[2a0400330eae91a613df1a5851f9981c]
link RegisterEmployeeController to EmployeeDTO--><path codeLine="100" d="M586.59,157.05 C618.438,173.232 657.258,192.954 693.84,211.536 " fill="none" id="RegisterEmployeeController-to-EmployeeDTO" style="stroke:#A80036;stroke-width:0.6;stroke-dasharray:7.0,7.0;"/><polygon fill="#A80036" points="696.696,212.988,692.9628,208.4073,694.0196,211.6327,690.7942,212.6895,696.696,212.988" style="stroke:#A80036;stroke-width:0.6;"/><!--MD5=[fb0ac20c75d86dfc12df51f453c65ce6]
link RegisterEmployeeController to SpecialistDoctorDTO--><path codeLine="101" d="M530.964,173.406 C546.588,233.07 571.806,325.11 582,338.4 C623.472,392.472 691.59,430.962 743.664,454.41 " fill="none" id="RegisterEmployeeController-to-SpecialistDoctorDTO" style="stroke:#A80036;stroke-width:0.6;stroke-dasharray:7.0,7.0;"/><polygon fill="#A80036" points="746.442,455.658,742.4962,451.2591,743.7045,454.4308,740.5327,455.6391,746.442,455.658" style="stroke:#A80036;stroke-width:0.6;"/><!--MD5=[bdea5954715c5547a6a8320229729a2c]
link RegisterEmployeeController to OrgRoleDTO--><path codeLine="102" d="M561.816,173.562 C566.67,179.52 571.488,185.556 576,191.4 C588.27,207.3 601.248,225.48 611.826,240.69 " fill="none" id="RegisterEmployeeController-to-OrgRoleDTO" style="stroke:#A80036;stroke-width:0.6;stroke-dasharray:7.0,7.0;"/><polygon fill="#A80036" points="613.632,243.3,612.5137,237.4975,611.9168,240.8387,608.5756,240.2418,613.632,243.3" style="stroke:#A80036;stroke-width:0.6;"/><!--MD5=[52809a082542502064e652562fa56ae3]
link CreateEmployeeUI to OrgRoleDTO--><path codeLine="103" d="M741.42,33.06 C723.99,72.162 674.064,184.17 648.972,240.462 " fill="none" id="CreateEmployeeUI-to-OrgRoleDTO" style="stroke:#A80036;stroke-width:0.6;stroke-dasharray:7.0,7.0;"/><polygon fill="#A80036" points="647.724,243.264,652.1183,239.3131,648.948,240.525,647.736,237.3547,647.724,243.264" style="stroke:#A80036;stroke-width:0.6;"/><!--MD5=[969ee03aa52aee79b0e607297418cbd4]
link RegisterEmployeeController to Company--><path codeLine="104" d="M494.754,173.604 C481.764,202.626 466.398,236.964 457.47,256.914 " fill="none" id="RegisterEmployeeController-to-Company" style="stroke:#A80036;stroke-width:0.6;stroke-dasharray:7.0,7.0;"/><polygon fill="#A80036" points="456.198,259.746,460.5969,255.8002,457.4252,257.0085,456.2169,253.8367,456.198,259.746" style="stroke:#A80036;stroke-width:0.6;"/><!--MD5=[d1f6e6bd7ba36601d1cbf200e146bace]
link RegisterEmployeeController to OrgRole--><path codeLine="105" d="M520.794,173.586 C526.182,276.942 534.834,506.112 510.6,580.2 C505.464,595.908 496.338,611.238 486.708,624.474 " fill="none" id="RegisterEmployeeController-to-OrgRole" style="stroke:#A80036;stroke-width:0.6;stroke-dasharray:7.0,7.0;"/><polygon fill="#A80036" points="484.902,626.922,490.0321,623.9891,486.6772,624.5036,486.1627,621.1487,484.902,626.922" style="stroke:#A80036;stroke-width:0.6;"/><!--MD5=[ef3f36296c72675a9de139702ed4bb6a]
reverse link EmployeeDTO to SpecialistDoctorDTO--><path codeLine="107" d="M816,350.424 C816,387.276 816,429.24 816,455.694 " fill="none" id="EmployeeDTO-backto-SpecialistDoctorDTO" style="stroke:#A80036;stroke-width:0.6;"/><polygon fill="none" points="811.8,350.406,816,338.406,820.2,350.406,811.8,350.406" style="stroke:#A80036;stroke-width:0.6;"/><!--MD5=[ab5952cf32e355c88498d25962e6d888]
link Employee to OrgRole--><path codeLine="109" d="M370.998,580.242 C377.658,590.202 384.642,599.97 391.8,609 C396.618,615.084 402.054,621.168 407.616,626.976 " fill="none" id="Employee-OrgRole" style="stroke:#A80036;stroke-width:0.6;"/><polygon fill="#000000" points="396.6503,606.0669,394.6911,600.7074,391.9151,602.8826,396.6503,606.0669" style="stroke:#000000;stroke-width:0.6;"/><text fill="#000000" font-family="sans-serif" font-size="7.8" lengthAdjust="spacing" textLength="33.6" x="400.2" y="606.8971">has/plays</text><text fill="#000000" font-family="sans-serif" font-size="7.8" lengthAdjust="spacing" textLength="3" x="370.4131" y="592.985">*</text><text fill="#000000" font-family="sans-serif" font-size="7.8" lengthAdjust="spacing" textLength="4.2" x="398.2725" y="620.3829">1</text><!--MD5=[e2bb0114ddaa017fadb3cfd71b75cde4]
link Company to OrgRole--><path codeLine="110" d="M450,288.714 C450,343.044 450,542.112 450,626.964 " fill="none" id="Company-OrgRole" style="stroke:#A80036;stroke-width:0.6;"/><polygon fill="#000000" points="453,485.8055,454.7634,480.3784,451.2366,480.3784,453,485.8055" style="stroke:#000000;stroke-width:0.6;"/><text fill="#000000" font-family="sans-serif" font-size="7.8" lengthAdjust="spacing" textLength="46.8" x="458.4" y="485.9971">comprehends</text><text fill="#000000" font-family="sans-serif" font-size="7.8" lengthAdjust="spacing" textLength="4.2" x="445.2881" y="301.5446">1</text><text fill="#000000" font-family="sans-serif" font-size="7.8" lengthAdjust="spacing" textLength="3" x="446.8266" y="620.3695">*</text><!--MD5=[09366576ee87d48d594df10cacc83f45]
link Company to Employee--><path codeLine="111" d="M441.012,288.726 C428.064,308.784 403.038,347.556 378.774,385.146 " fill="none" id="Company-Employee" style="stroke:#A80036;stroke-width:0.6;"/><polygon fill="#000000" points="396.773,364.426,401.1978,360.8226,398.2347,358.91,396.773,364.426" style="stroke:#000000;stroke-width:0.6;"/><text fill="#000000" font-family="sans-serif" font-size="7.8" lengthAdjust="spacing" textLength="25.2" x="403.8" y="365.0971">employ</text><text fill="#000000" font-family="sans-serif" font-size="7.8" lengthAdjust="spacing" textLength="3" x="435.4555" y="301.5595">*</text><text fill="#000000" font-family="sans-serif" font-size="7.8" lengthAdjust="spacing" textLength="4.2" x="377.5032" y="378.6945">1</text><!--MD5=[22fb9506fac029fc1d2ae00f0eb8d606]
link Employee to User--><path codeLine="112" d="M319.074,580.374 C319.668,600.366 320.244,619.986 320.7,635.358 " fill="none" id="Employee-User" style="stroke:#A80036;stroke-width:0.6;"/><polygon fill="#000000" points="323.4887,606.7042,325.0908,601.2274,321.5657,601.3316,323.4887,606.7042" style="stroke:#000000;stroke-width:0.6;"/><text fill="#000000" font-family="sans-serif" font-size="7.8" lengthAdjust="spacing" textLength="32.4" x="328.8" y="606.8971">relates to</text><text fill="#000000" font-family="sans-serif" font-size="7.8" lengthAdjust="spacing" textLength="13.2" x="305.7168" y="592.8022">0..1</text><text fill="#000000" font-family="sans-serif" font-size="7.8" lengthAdjust="spacing" textLength="4.2" x="316.0781" y="628.8292">1</text><!--MD5=[3f04a73f0180ecdece0adaaabd049a5e]
link RegisterEmployeeController to User--><path codeLine="114" d="M448.92,149.334 C416.262,164.268 377.94,184.878 348,210 C272.946,272.976 245.586,292.386 214.2,385.2 C186.438,467.298 175.992,502.41 214.2,580.2 C229.206,610.746 248.22,605.754 274.8,627 C277.566,629.214 280.416,631.506 283.272,633.834 " fill="none" id="RegisterEmployeeController-to-User" style="stroke:#A80036;stroke-width:0.6;stroke-dasharray:7.0,7.0;"/><polygon fill="#A80036" points="285.672,635.79,283.0039,630.5173,283.3471,633.894,279.9704,634.2372,285.672,635.79" style="stroke:#A80036;stroke-width:0.6;"/><!--MD5=[a3eb99b4d879f326d81917332a78169c]
@startuml
skinparam classAttributeIconSize 0

class CreateEmployeeUI {
}

class RegisterEmployeeController {
-Company company
-Employee emp
-SpecialistDoctor sd
-String generatedPassword
+createEmployee(empDTO)
+saveEmployee()
+getRoles()
+makeEmployeeAUser()
+makeEmployeeAnUserAndSendPassword()
}

class Employee {
-OrgRole role
-String employeeID
-String name
-String address
-String phoneNumber
-String email
-String socCode
+Employee(role,name,address,phoneNumber,email,socCode)
+generateEmployeeID(name)
+checkRoleRules()
+checkNameRules()
+checkAddressRules()
+checkPhoneNumberRules()
+checkEmailRules()
+checkSocCodeRules()
+getName()
+getEmail()
+getRole()
+toString()
+equals(otherObject)
}

class SpecialistDoctor {
-String doctorIndexNumber
+SpecialistDoctor(role,name,address,phoneNumber,email,socCode,doctorIndexNumber)
+checkDoctorIndexNumberRules(doctorIndexNumber)
+toString()
+equals(otherObject)
}

class OrgRole {
-String description
+OrgRole(description)
+checkDescription(description)
+getDescription()
+toString()
+equals(otherObject)
}

class OrgRoleDTO {
-String description
+OrgRoleDTO(description)
+getDescription()
+toString()
}

class EmployeeDTO {
-String roleDesignation
-String name
-String address
-String phoneNumber
-String email
-String socCode
+EmployeeDTO(roleDesignation, name, address, phoneNumber, email, socCode)
+getRoleDesignation()
+getName()
+getAddress()
+getPhoneNumber()
+getEmail()
}

class SpecialistDoctorDTO {
-String doctorIndexNumber
+SpecialistDoctorDTO(roleDesignation, name, address, phoneNumber, email, socCode, doctorIndexNumber)
+getDoctorIndexNumber()
}

class User {
-Email id
-Password password
-String name
-Set<UserRole> roles

}

CreateEmployeeUI ..> RegisterEmployeeController
Employee <|- - SpecialistDoctor
RegisterEmployeeController ..> Employee
RegisterEmployeeController ..> SpecialistDoctor
CreateEmployeeUI ..> EmployeeDTO
CreateEmployeeUI ..> SpecialistDoctorDTO
RegisterEmployeeController ..> EmployeeDTO
RegisterEmployeeController ..> SpecialistDoctorDTO
RegisterEmployeeController ..> OrgRoleDTO
CreateEmployeeUI ..> OrgRoleDTO
RegisterEmployeeController ..> Company
RegisterEmployeeController ..> OrgRole

EmployeeDTO <|- - SpecialistDoctorDTO

Employee "*" - - "1" OrgRole : has/plays >
Company "1" - - "*" OrgRole : comprehends >
Company "*" - - "1" Employee : employ >
Employee "0..1" - - "1" User : relates to >

RegisterEmployeeController ..> User


@enduml

PlantUML version 1.2021.4(Sun Apr 04 09:49:39 BST 2021)
(GPL source distribution)
Java Runtime: OpenJDK Runtime Environment
JVM: OpenJDK 64-Bit Server VM
Default Encoding: Cp1252
Language: pt
Country: PT
--></g></svg>