<?xml version="1.0" encoding="UTF-8" standalone="no"?><svg xmlns="http://www.w3.org/2000/svg" xmlns:xlink="http://www.w3.org/1999/xlink" contentScriptType="application/ecmascript" contentStyleType="text/css" height="288.75px" preserveAspectRatio="none" style="width:1171px;height:288px;" version="1.1" viewBox="0 0 1171 288" width="1171.25px" zoomAndPan="magnify"><defs><filter height="300%" id="fd1ze98jhieil" width="300%" x="-1" y="-1"><feGaussianBlur result="blurOut" stdDeviation="2.5"/><feColorMatrix in="blurOut" result="blurOut2" type="matrix" values="0 0 0 0 0 0 0 0 0 0 0 0 0 0 0 0 0 0 .4 0"/><feOffset dx="5.0" dy="5.0" in="blurOut2" result="blurOut3"/><feBlend in="SourceGraphic" in2="blurOut3" mode="normal"/></filter></defs><g><!--MD5=[02e4b9b7573f1156f41e60aa5b4e25a4]
class Company--><rect codeLine="7" fill="#FEFECE" filter="url(#fd1ze98jhieil)" height="67.2949" id="Company" style="stroke:#A80036;stroke-width:1.875;" width="106.25" x="8.75" y="143.75"/><ellipse cx="27.5" cy="163.75" fill="#ADD1B2" rx="13.75" ry="13.75" style="stroke:#A80036;stroke-width:1.25;"/><path d="M30,159.375 Q30.2539,158.75 30.5469,158.4375 Q30.8398,158.125 31.1719,158.125 Q31.7578,158.125 32.1289,158.4766 Q32.5,158.8281 32.5,159.6484 L32.5,161.6016 Q32.5,162.4219 32.1484,162.7734 Q31.7969,163.125 31.25,163.125 Q30.7617,163.125 30.4492,162.9102 Q30.1367,162.6953 30,162.1289 Q29.9414,161.7383 29.7266,161.5234 Q29.3359,161.1133 28.6328,160.8789 Q27.9297,160.625 27.2266,160.625 Q26.3477,160.625 25.6055,160.9766 Q24.8828,161.3281 24.3164,162.1094 Q23.75,162.8906 23.75,163.9648 L23.75,165.1172 Q23.75,166.4063 24.8047,167.2656 Q25.8594,168.125 27.7344,168.125 Q28.8477,168.125 29.6289,167.8711 Q30.0781,167.7344 30.5859,167.2852 Q30.918,167.0313 31.0938,166.9531 Q31.2695,166.875 31.4844,166.875 Q31.8945,166.875 32.1875,167.207 Q32.5,167.5195 32.5,167.9688 Q32.5,168.3984 32.0703,168.9063 Q31.4453,169.6484 30.4492,170.0586 Q29.1406,170.625 27.5391,170.625 Q25.6641,170.625 24.1602,169.8828 Q22.9492,169.2969 22.0898,168.0273 Q21.25,166.7578 21.25,165.2539 L21.25,163.8867 Q21.25,162.3242 21.9922,160.957 Q22.7539,159.5898 24.0625,158.8672 Q25.3906,158.125 26.875,158.125 Q27.7734,158.125 28.5547,158.4375 Q29.3359,158.75 30,159.375 Z " fill="#000000"/><text fill="#000000" font-family="sans-serif" font-size="15" lengthAdjust="spacing" textLength="66.25" x="45" y="169.8877">Company</text><line style="stroke:#A80036;stroke-width:1.875;" x1="10" x2="113.75" y1="183.75" y2="183.75"/><text fill="#000000" font-family="sans-serif" font-size="13.75" lengthAdjust="spacing" textLength="73.75" x="16.25" y="203.0237">-designation</text><!--MD5=[1f6362a5c8f21d8d6a0fce68f3a92a4e]
class Parameter--><rect codeLine="11" fill="#FEFECE" filter="url(#fd1ze98jhieil)" height="101.8848" id="Parameter" style="stroke:#A80036;stroke-width:1.875;" width="112.5" x="356.25" y="8.75"/><ellipse cx="375" cy="28.75" fill="#ADD1B2" rx="13.75" ry="13.75" style="stroke:#A80036;stroke-width:1.25;"/><path d="M377.5,24.375 Q377.7539,23.75 378.0469,23.4375 Q378.3398,23.125 378.6719,23.125 Q379.2578,23.125 379.6289,23.4766 Q380,23.8281 380,24.6484 L380,26.6016 Q380,27.4219 379.6484,27.7734 Q379.2969,28.125 378.75,28.125 Q378.2617,28.125 377.9492,27.9102 Q377.6367,27.6953 377.5,27.1289 Q377.4414,26.7383 377.2266,26.5234 Q376.8359,26.1133 376.1328,25.8789 Q375.4297,25.625 374.7266,25.625 Q373.8477,25.625 373.1055,25.9766 Q372.3828,26.3281 371.8164,27.1094 Q371.25,27.8906 371.25,28.9648 L371.25,30.1172 Q371.25,31.4063 372.3047,32.2656 Q373.3594,33.125 375.2344,33.125 Q376.3477,33.125 377.1289,32.8711 Q377.5781,32.7344 378.0859,32.2852 Q378.418,32.0313 378.5938,31.9531 Q378.7695,31.875 378.9844,31.875 Q379.3945,31.875 379.6875,32.207 Q380,32.5195 380,32.9688 Q380,33.3984 379.5703,33.9063 Q378.9453,34.6484 377.9492,35.0586 Q376.6406,35.625 375.0391,35.625 Q373.1641,35.625 371.6602,34.8828 Q370.4492,34.2969 369.5898,33.0273 Q368.75,31.7578 368.75,30.2539 L368.75,28.8867 Q368.75,27.3242 369.4922,25.957 Q370.2539,24.5898 371.5625,23.8672 Q372.8906,23.125 374.375,23.125 Q375.2734,23.125 376.0547,23.4375 Q376.8359,23.75 377.5,24.375 Z " fill="#000000"/><text fill="#000000" font-family="sans-serif" font-size="15" lengthAdjust="spacing" textLength="72.5" x="392.5" y="34.8877">Parameter</text><line style="stroke:#A80036;stroke-width:1.875;" x1="357.5" x2="467.5" y1="48.75" y2="48.75"/><text fill="#000000" font-family="sans-serif" font-size="13.75" lengthAdjust="spacing" textLength="35" x="363.75" y="68.0237">-code</text><text fill="#000000" font-family="sans-serif" font-size="13.75" lengthAdjust="spacing" textLength="70" x="363.75" y="85.3186">-shortName</text><text fill="#000000" font-family="sans-serif" font-size="13.75" lengthAdjust="spacing" textLength="71.25" x="363.75" y="102.6135">-description</text><!--MD5=[36afb6bbd95a8ac778c4537c55a683d5]
class ParameterCategory--><rect codeLine="17" fill="#FEFECE" filter="url(#fd1ze98jhieil)" height="84.5898" id="ParameterCategory" style="stroke:#A80036;stroke-width:1.875;" width="173.75" x="678.75" y="135"/><ellipse cx="697.5" cy="155" fill="#ADD1B2" rx="13.75" ry="13.75" style="stroke:#A80036;stroke-width:1.25;"/><path d="M700,150.625 Q700.2539,150 700.5469,149.6875 Q700.8398,149.375 701.1719,149.375 Q701.7578,149.375 702.1289,149.7266 Q702.5,150.0781 702.5,150.8984 L702.5,152.8516 Q702.5,153.6719 702.1484,154.0234 Q701.7969,154.375 701.25,154.375 Q700.7617,154.375 700.4492,154.1602 Q700.1367,153.9453 700,153.3789 Q699.9414,152.9883 699.7266,152.7734 Q699.3359,152.3633 698.6328,152.1289 Q697.9297,151.875 697.2266,151.875 Q696.3477,151.875 695.6055,152.2266 Q694.8828,152.5781 694.3164,153.3594 Q693.75,154.1406 693.75,155.2148 L693.75,156.3672 Q693.75,157.6563 694.8047,158.5156 Q695.8594,159.375 697.7344,159.375 Q698.8477,159.375 699.6289,159.1211 Q700.0781,158.9844 700.5859,158.5352 Q700.918,158.2813 701.0938,158.2031 Q701.2695,158.125 701.4844,158.125 Q701.8945,158.125 702.1875,158.457 Q702.5,158.7695 702.5,159.2188 Q702.5,159.6484 702.0703,160.1563 Q701.4453,160.8984 700.4492,161.3086 Q699.1406,161.875 697.5391,161.875 Q695.6641,161.875 694.1602,161.1328 Q692.9492,160.5469 692.0898,159.2773 Q691.25,158.0078 691.25,156.5039 L691.25,155.1367 Q691.25,153.5742 691.9922,152.207 Q692.7539,150.8398 694.0625,150.1172 Q695.3906,149.375 696.875,149.375 Q697.7734,149.375 698.5547,149.6875 Q699.3359,150 700,150.625 Z " fill="#000000"/><text fill="#000000" font-family="sans-serif" font-size="15" lengthAdjust="spacing" textLength="133.75" x="715" y="161.1377">ParameterCategory</text><line style="stroke:#A80036;stroke-width:1.875;" x1="680" x2="851.25" y1="175" y2="175"/><text fill="#000000" font-family="sans-serif" font-size="13.75" lengthAdjust="spacing" textLength="35" x="686.25" y="194.2737">-code</text><text fill="#000000" font-family="sans-serif" font-size="13.75" lengthAdjust="spacing" textLength="37.5" x="686.25" y="211.5686">-name</text><!--MD5=[da547346deef918ea16944ba046651ef]
class Administrator--><rect codeLine="22" fill="#FEFECE" filter="url(#fd1ze98jhieil)" height="40" id="Administrator" style="stroke:#A80036;stroke-width:1.875;" width="131.25" x="1022.5" y="231.25"/><ellipse cx="1041.25" cy="251.25" fill="#ADD1B2" rx="13.75" ry="13.75" style="stroke:#A80036;stroke-width:1.25;"/><path d="M1043.75,246.875 Q1044.0039,246.25 1044.2969,245.9375 Q1044.5898,245.625 1044.9219,245.625 Q1045.5078,245.625 1045.8789,245.9766 Q1046.25,246.3281 1046.25,247.1484 L1046.25,249.1016 Q1046.25,249.9219 1045.8984,250.2734 Q1045.5469,250.625 1045,250.625 Q1044.5117,250.625 1044.1992,250.4102 Q1043.8867,250.1953 1043.75,249.6289 Q1043.6914,249.2383 1043.4766,249.0234 Q1043.0859,248.6133 1042.3828,248.3789 Q1041.6797,248.125 1040.9766,248.125 Q1040.0977,248.125 1039.3555,248.4766 Q1038.6328,248.8281 1038.0664,249.6094 Q1037.5,250.3906 1037.5,251.4648 L1037.5,252.6172 Q1037.5,253.9063 1038.5547,254.7656 Q1039.6094,255.625 1041.4844,255.625 Q1042.5977,255.625 1043.3789,255.3711 Q1043.8281,255.2344 1044.3359,254.7852 Q1044.668,254.5313 1044.8438,254.4531 Q1045.0195,254.375 1045.2344,254.375 Q1045.6445,254.375 1045.9375,254.707 Q1046.25,255.0195 1046.25,255.4688 Q1046.25,255.8984 1045.8203,256.4063 Q1045.1953,257.1484 1044.1992,257.5586 Q1042.8906,258.125 1041.2891,258.125 Q1039.4141,258.125 1037.9102,257.3828 Q1036.6992,256.7969 1035.8398,255.5273 Q1035,254.2578 1035,252.7539 L1035,251.3867 Q1035,249.8242 1035.7422,248.457 Q1036.5039,247.0898 1037.8125,246.3672 Q1039.1406,245.625 1040.625,245.625 Q1041.5234,245.625 1042.3047,245.9375 Q1043.0859,246.25 1043.75,246.875 Z " fill="#000000"/><text fill="#000000" font-family="sans-serif" font-size="15" lengthAdjust="spacing" textLength="91.25" x="1058.75" y="257.3877">Administrator</text><!--MD5=[12d76240d3c3c66074d4ec2ea8bf469c]
link Company to Parameter--><path codeLine="26" d="M115.0125,158.325 C127.275,153.875 140.325,149.2125 152.5,145 C222.4375,120.8 303.5625,94.425 356.0625,77.575 " fill="none" id="Company-Parameter" style="stroke:#A80036;stroke-width:1.25;"/><polygon fill="#000000" points="164.6763,76.9845,152.7886,77.0924,155.1224,84.0592,164.6763,76.9845" style="stroke:#000000;stroke-width:1.25;"/><text fill="#000000" font-family="sans-serif" font-size="16.25" lengthAdjust="spacing" textLength="147.5" x="170" y="85.6189">capable of analysing</text><text fill="#000000" font-family="sans-serif" font-size="16.25" lengthAdjust="spacing" textLength="8.75" x="124.8975" y="150.2348">1</text><text fill="#000000" font-family="sans-serif" font-size="16.25" lengthAdjust="spacing" textLength="6.25" x="339.9475" y="99.0983">*</text><!--MD5=[93b4f25fb503a8e0e9a46b1d30ff3f44]
link Company to ParameterCategory--><path codeLine="27" d="M115.2625,177.5 C235.0875,177.5 531.0875,177.5 678.3375,177.5 " fill="none" id="Company-ParameterCategory" style="stroke:#A80036;stroke-width:1.25;"/><polygon fill="#000000" points="391.25,166.4697,379.9436,162.7961,379.9436,170.1434,391.25,166.4697" style="stroke:#000000;stroke-width:1.25;"/><text fill="#000000" font-family="sans-serif" font-size="16.25" lengthAdjust="spacing" textLength="48.75" x="396.25" y="173.1189">adopts</text><text fill="#000000" font-family="sans-serif" font-size="16.25" lengthAdjust="spacing" textLength="8.75" x="124.8294" y="196.0785">1</text><text fill="#000000" font-family="sans-serif" font-size="16.25" lengthAdjust="spacing" textLength="6.25" x="662.7637" y="195.444">*</text><!--MD5=[eaea43e34e45c5b9d20b595fc78f1f20]
link Company to Administrator--><path codeLine="28" d="M115.1,183.375 C127.3625,184.75 140.3875,186.1875 152.5,187.5 C386.3,212.8 444.05,227.75 678.75,242.5 C800.05,250.125 942,251.4625 1022.475,251.5125 " fill="none" id="Company-Administrator" style="stroke:#A80036;stroke-width:1.25;"/><polygon fill="#000000" points="558.1075,218.1877,547.1079,213.6778,546.5577,221.0044,558.1075,218.1877" style="stroke:#000000;stroke-width:1.25;"/><text fill="#000000" font-family="sans-serif" font-size="16.25" lengthAdjust="spacing" textLength="37.5" x="563.125" y="224.3689">know</text><text fill="#000000" font-family="sans-serif" font-size="16.25" lengthAdjust="spacing" textLength="8.75" x="125" y="179.5903">1</text><text fill="#000000" font-family="sans-serif" font-size="16.25" lengthAdjust="spacing" textLength="6.25" x="1006.1237" y="269.921">*</text><!--MD5=[6df8849671cb880f6936e94aa30db6f9]
link Parameter to ParameterCategory--><path codeLine="29" d="M468.925,78.4875 C525.1375,97.325 613.1125,126.8125 678.4625,148.7125 " fill="none" id="Parameter-ParameterCategory" style="stroke:#A80036;stroke-width:1.25;"/><polygon fill="#000000" points="518.426,83.4558,508.8731,76.3797,506.5383,83.3462,518.426,83.4558" style="stroke:#000000;stroke-width:1.25;"/><text fill="#000000" font-family="sans-serif" font-size="16.25" lengthAdjust="spacing" textLength="116.25" x="523.75" y="88.1189">presented under</text><text fill="#000000" font-family="sans-serif" font-size="16.25" lengthAdjust="spacing" textLength="6.25" x="478.788" y="100.162">*</text><text fill="#000000" font-family="sans-serif" font-size="16.25" lengthAdjust="spacing" textLength="8.75" x="660.2727" y="163.6877">1</text><!--MD5=[8fed49cf12a674e36a1de475622ee091]
link ParameterCategory to Administrator--><path codeLine="30" d="M852.625,197.2625 C905.95,209.55 973.4,225.1 1022.2125,236.35 " fill="none" id="ParameterCategory-Administrator" style="stroke:#A80036;stroke-width:1.25;"/><polygon fill="#000000" points="902.3403,199.1235,892.1479,193.0043,890.4977,200.1639,902.3403,199.1235" style="stroke:#000000;stroke-width:1.25;"/><text fill="#000000" font-family="sans-serif" font-size="16.25" lengthAdjust="spacing" textLength="76.25" x="907.5" y="204.3689">created by</text><text fill="#000000" font-family="sans-serif" font-size="16.25" lengthAdjust="spacing" textLength="6.25" x="862.4824" y="217.4331">*</text><text fill="#000000" font-family="sans-serif" font-size="16.25" lengthAdjust="spacing" textLength="8.75" x="1003.5783" y="229.7482">1</text><!--MD5=[a5353337c311fa36305ace5ee945f376]
@startuml
hide empty methods
hide empty attributes
left to right direction
skinparam classAttributeIconSize 0


class Company {
  -designation
}

class Parameter {
  -code
  -shortName
  -description
}

class ParameterCategory {
  -code
  -name
}

class Administrator {

}

Company "1" - - "*" Parameter : capable of analysing >
Company "1" - - "*" ParameterCategory : adopts >
Company "1" - - "*" Administrator : know >
Parameter "*" - - "1" ParameterCategory: presented under >
ParameterCategory "*" - - "1" Administrator: created by >



@enduml

PlantUML version 1.2021.4(Sun Apr 04 09:49:39 BST 2021)
(GPL source distribution)
Java Runtime: OpenJDK Runtime Environment
JVM: Dynamic Code Evolution 64-Bit Server VM
Default Encoding: Cp1252
Language: pt
Country: PT
--></g></svg>