<?xml version="1.0" encoding="UTF-8" standalone="no"?><svg xmlns="http://www.w3.org/2000/svg" xmlns:xlink="http://www.w3.org/1999/xlink" contentScriptType="application/ecmascript" contentStyleType="text/css" height="1251px" preserveAspectRatio="none" style="width:1119px;height:1251px;" version="1.1" viewBox="0 0 1119 1251" width="1119px" zoomAndPan="magnify"><defs><filter height="300%" id="fgpvkgj4whdoz" width="300%" x="-1" y="-1"><feGaussianBlur result="blurOut" stdDeviation="2.0"/><feColorMatrix in="blurOut" result="blurOut2" type="matrix" values="0 0 0 0 0 0 0 0 0 0 0 0 0 0 0 0 0 0 .4 0"/><feOffset dx="4.0" dy="4.0" in="blurOut2" result="blurOut3"/><feBlend in="SourceGraphic" in2="blurOut3" mode="normal"/></filter></defs><g><!--MD5=[99b31deea5d7419a569cd5090bf83263]
cluster System--><rect fill="#FFFFFF" filter="url(#fgpvkgj4whdoz)" height="1146" style="stroke:#000000;stroke-width:1.5;" width="857" x="250" y="54"/><text fill="#000000" font-family="sans-serif" font-size="14" font-weight="bold" lengthAdjust="spacing" textLength="50" x="653.5" y="70.5332">System</text><ellipse cx="481.3456" cy="114.1691" fill="#FEFECE" filter="url(#fgpvkgj4whdoz)" rx="106.3456" ry="23.6691" style="stroke:#A80036;stroke-width:1.5;"/><text fill="#000000" font-family="sans-serif" font-size="14" lengthAdjust="spacing" textLength="175" x="393.8456" y="117.8976">UC 1 - Register a new client</text><ellipse cx="481.4572" cy="215.0914" fill="#FEFECE" filter="url(#fgpvkgj4whdoz)" rx="200.9572" ry="42.5914" style="stroke:#A80036;stroke-width:1.5;"/><text fill="#000000" font-family="sans-serif" font-size="14" lengthAdjust="spacing" textLength="374" x="294.4572" y="218.82">UC 2 - Register a test to be performed to a registered client</text><ellipse cx="481.3268" cy="326.7654" fill="#FEFECE" filter="url(#fgpvkgj4whdoz)" rx="159.3268" ry="34.2654" style="stroke:#A80036;stroke-width:1.5;"/><text fill="#000000" font-family="sans-serif" font-size="14" lengthAdjust="spacing" textLength="288" x="337.3268" y="330.4939">UC 3 - Register all the clinical tests performed</text><ellipse cx="481.6078" cy="442.0216" fill="#FEFECE" filter="url(#fgpvkgj4whdoz)" rx="215.6078" ry="45.5216" style="stroke:#A80036;stroke-width:1.5;"/><text fill="#000000" font-family="sans-serif" font-size="14" lengthAdjust="spacing" textLength="404" x="279.6078" y="445.7501">UC 4 - Record the samples collected in the scope of a given test</text><ellipse cx="481.6231" cy="887.9246" fill="#FEFECE" filter="url(#fgpvkgj4whdoz)" rx="152.6231" ry="32.9246" style="stroke:#A80036;stroke-width:1.5;"/><text fill="#000000" font-family="sans-serif" font-size="14" lengthAdjust="spacing" textLength="274" x="344.6231" y="891.6531">UC 8 - Record the chemical analysis results</text><ellipse cx="481.4824" cy="564.8965" fill="#FEFECE" filter="url(#fgpvkgj4whdoz)" rx="199.9824" ry="42.3965" style="stroke:#A80036;stroke-width:1.5;"/><text fill="#000000" font-family="sans-serif" font-size="14" lengthAdjust="spacing" textLength="372" x="295.4824" y="568.625">UC 5 - Specify a new type of test and its collecting methods</text><ellipse cx="481.4981" cy="681.7996" fill="#FEFECE" filter="url(#fgpvkgj4whdoz)" rx="181.9981" ry="38.7996" style="stroke:#A80036;stroke-width:1.5;"/><text fill="#000000" font-family="sans-serif" font-size="14" lengthAdjust="spacing" textLength="335" x="313.9981" y="685.5281">UC 6 - Specify a new test parameter and categorize it</text><ellipse cx="481.4721" cy="787.9944" fill="#FEFECE" filter="url(#fgpvkgj4whdoz)" rx="145.4721" ry="31.4944" style="stroke:#A80036;stroke-width:1.5;"/><text fill="#000000" font-family="sans-serif" font-size="14" lengthAdjust="spacing" textLength="259" x="351.9721" y="791.7229">UC 7 - Specify a new parameter category</text><ellipse cx="481.6681" cy="1071.2336" fill="#FEFECE" filter="url(#fgpvkgj4whdoz)" rx="99.1681" ry="22.2336" style="stroke:#A80036;stroke-width:1.5;"/><text fill="#000000" font-family="sans-serif" font-size="14" lengthAdjust="spacing" textLength="159" x="402.1681" y="1074.9621">UC 12 - Register a report</text><ellipse cx="481.29" cy="985.158" fill="#FEFECE" filter="url(#fgpvkgj4whdoz)" rx="131.29" ry="28.658" style="stroke:#A80036;stroke-width:1.5;"/><text fill="#000000" font-family="sans-serif" font-size="14" lengthAdjust="spacing" textLength="229" x="366.79" y="988.8865">UC 10 - Post the chemical test/result</text><ellipse cx="952.359" cy="984.0718" fill="#FEFECE" filter="url(#fgpvkgj4whdoz)" rx="138.359" ry="30.0718" style="stroke:#A80036;stroke-width:1.5;"/><text fill="#000000" font-family="sans-serif" font-size="14" lengthAdjust="spacing" textLength="244" x="830.359" y="987.8003">UC 9 - Validate the chemical test/result</text><ellipse cx="481.5083" cy="1156.0017" fill="#FEFECE" filter="url(#fgpvkgj4whdoz)" rx="128.0083" ry="28.0017" style="stroke:#A80036;stroke-width:1.5;"/><text fill="#000000" font-family="sans-serif" font-size="14" lengthAdjust="spacing" textLength="222" x="370.5083" y="1159.7302">UC 13 - Generate Covid-19 reports</text><ellipse cx="952.5042" cy="1072.0008" fill="#FEFECE" filter="url(#fgpvkgj4whdoz)" rx="100.5042" ry="22.5008" style="stroke:#A80036;stroke-width:1.5;"/><text fill="#000000" font-family="sans-serif" font-size="14" lengthAdjust="spacing" textLength="162" x="871.5042" y="1075.7293">UC 11 - Make a diagnosis</text><!--MD5=[87a04b683345c3cce94ac9a6e159ab2f]
entity Receptionist--><ellipse cx="104.5" cy="132" fill="#FEFECE" filter="url(#fgpvkgj4whdoz)" rx="8" ry="8" style="stroke:#A80036;stroke-width:1.5;"/><path d="M104.5,140 L104.5,167 M91.5,148 L117.5,148 M104.5,167 L91.5,182 M104.5,167 L117.5,182 " fill="none" filter="url(#fgpvkgj4whdoz)" style="stroke:#A80036;stroke-width:1.5;"/><text fill="#000000" font-family="sans-serif" font-size="14" lengthAdjust="spacing" textLength="78" x="65.5" y="202.0332">Receptionist</text><!--MD5=[e7d38603a700bedb049d1f5e1789c8aa]
entity MLT--><ellipse cx="104.5" cy="371" fill="#FEFECE" filter="url(#fgpvkgj4whdoz)" rx="8" ry="8" style="stroke:#A80036;stroke-width:1.5;"/><path d="M104.5,379 L104.5,406 M91.5,387 L117.5,387 M104.5,406 L91.5,421 M104.5,406 L117.5,421 " fill="none" filter="url(#fgpvkgj4whdoz)" style="stroke:#A80036;stroke-width:1.5;"/><text fill="#000000" font-family="sans-serif" font-size="14" lengthAdjust="spacing" textLength="149" x="30" y="441.0332">Medical Lab Technician</text><!--MD5=[62529e7d5259bf274c3bf3e446350d88]
entity Administrator--><ellipse cx="104.5" cy="650" fill="#FEFECE" filter="url(#fgpvkgj4whdoz)" rx="8" ry="8" style="stroke:#A80036;stroke-width:1.5;"/><path d="M104.5,658 L104.5,685 M91.5,666 L117.5,666 M104.5,685 L91.5,700 M104.5,685 L117.5,700 " fill="none" filter="url(#fgpvkgj4whdoz)" style="stroke:#A80036;stroke-width:1.5;"/><text fill="#000000" font-family="sans-serif" font-size="14" lengthAdjust="spacing" textLength="83" x="63" y="720.0332">Administrator</text><!--MD5=[234b11d210a3d78b3bcac40f493e1b07]
entity CCT--><ellipse cx="104.5" cy="819" fill="#FEFECE" filter="url(#fgpvkgj4whdoz)" rx="8" ry="8" style="stroke:#A80036;stroke-width:1.5;"/><path d="M104.5,827 L104.5,854 M91.5,835 L117.5,835 M104.5,854 L91.5,869 M104.5,854 L117.5,869 " fill="none" filter="url(#fgpvkgj4whdoz)" style="stroke:#A80036;stroke-width:1.5;"/><text fill="#000000" font-family="sans-serif" font-size="14" lengthAdjust="spacing" textLength="197" x="6" y="889.0332">Clinical Chemistry Technologist</text><!--MD5=[b0100dfa164aec77c855c16afe11d7ec]
entity LC--><ellipse cx="104.5" cy="937" fill="#FEFECE" filter="url(#fgpvkgj4whdoz)" rx="8" ry="8" style="stroke:#A80036;stroke-width:1.5;"/><path d="M104.5,945 L104.5,972 M91.5,953 L117.5,953 M104.5,972 L91.5,987 M104.5,972 L117.5,987 " fill="none" filter="url(#fgpvkgj4whdoz)" style="stroke:#A80036;stroke-width:1.5;"/><text fill="#000000" font-family="sans-serif" font-size="14" lengthAdjust="spacing" textLength="148" x="30.5" y="1007.0332">Laboratory Coordinator</text><!--MD5=[f0e91d5aa74c2411969e7ef072c6f268]
entity SD--><ellipse cx="104.5" cy="1055" fill="#FEFECE" filter="url(#fgpvkgj4whdoz)" rx="8" ry="8" style="stroke:#A80036;stroke-width:1.5;"/><path d="M104.5,1063 L104.5,1090 M91.5,1071 L117.5,1071 M104.5,1090 L91.5,1105 M104.5,1090 L117.5,1105 " fill="none" filter="url(#fgpvkgj4whdoz)" style="stroke:#A80036;stroke-width:1.5;"/><text fill="#000000" font-family="sans-serif" font-size="14" lengthAdjust="spacing" textLength="106" x="51.5" y="1125.0332">Specialist Doctor</text><!--MD5=[0ba5ee7700168656dc1b457c6fe9fdac]
entity Client--><ellipse cx="104.5" cy="14" fill="#FEFECE" filter="url(#fgpvkgj4whdoz)" rx="8" ry="8" style="stroke:#A80036;stroke-width:1.5;"/><path d="M104.5,22 L104.5,49 M91.5,30 L117.5,30 M104.5,49 L91.5,64 M104.5,49 L117.5,64 " fill="none" filter="url(#fgpvkgj4whdoz)" style="stroke:#A80036;stroke-width:1.5;"/><text fill="#000000" font-family="sans-serif" font-size="14" lengthAdjust="spacing" textLength="36" x="86.5" y="84.0332">Client</text><!--MD5=[e5b7da8fa23ec8cac7d321a34f6e9ee1]
entity Application--><ellipse cx="104.5" cy="1173" fill="#FEFECE" filter="url(#fgpvkgj4whdoz)" rx="8" ry="8" style="stroke:#A80036;stroke-width:1.5;"/><path d="M104.5,1181 L104.5,1208 M91.5,1189 L117.5,1189 M104.5,1208 L91.5,1223 M104.5,1208 L117.5,1223 " fill="none" filter="url(#fgpvkgj4whdoz)" style="stroke:#A80036;stroke-width:1.5;"/><text fill="#000000" font-family="sans-serif" font-size="14" lengthAdjust="spacing" textLength="69" x="70" y="1243.0332">Application</text><!--MD5=[06c9755375f88685cb72944c1df4033e]
link Receptionist to UC 1 - Register a new client--><path d="M143.52,158.93 C199.64,151.45 306.45,137.21 384.83,126.76 " fill="none" id="Receptionist-to-UC 1 - Register a new client" style="stroke:#A80036;stroke-width:1.0;"/><polygon fill="#A80036" points="389.95,126.07,380.5024,123.2874,384.9934,126.7271,381.5537,131.218,389.95,126.07" style="stroke:#A80036;stroke-width:1.0;"/><!--MD5=[68b76ea1b5bac843837526c672cfa365]
link Receptionist to UC 2 - Register a test to be performed to a registered client--><path d="M143.52,169.17 C182.37,174.45 245.51,183.04 306.7,191.36 " fill="none" id="Receptionist-to-UC 2 - Register a test to be performed to a registered client" style="stroke:#A80036;stroke-width:1.0;"/><polygon fill="#A80036" points="311.85,192.06,303.4703,186.885,306.8955,191.387,302.3935,194.8122,311.85,192.06" style="stroke:#A80036;stroke-width:1.0;"/><!--MD5=[bc912dd82cfa033ba2452255e48bacd6]
link MLT to UC 3 - Register all the clinical tests performed--><path d="M179.14,388.08 C230.49,377.67 300.17,363.55 359.6,351.5 " fill="none" id="MLT-to-UC 3 - Register all the clinical tests performed" style="stroke:#A80036;stroke-width:1.0;"/><polygon fill="#A80036" points="364.59,350.49,354.9779,348.3435,359.6882,351.4761,356.5556,356.1864,364.59,350.49" style="stroke:#A80036;stroke-width:1.0;"/><!--MD5=[772fdab0e53331f4f606a00409a73c1c]
link MLT to UC 4 - Record the samples collected in the scope of a given test--><path d="M179.14,410.66 C209.25,413.79 245.67,417.58 282.62,421.42 " fill="none" id="MLT-to-UC 4 - Record the samples collected in the scope of a given test" style="stroke:#A80036;stroke-width:1.0;"/><polygon fill="#A80036" points="287.6,421.94,279.0733,417.0109,282.628,421.4114,278.2275,424.966,287.6,421.94" style="stroke:#A80036;stroke-width:1.0;"/><!--MD5=[485b5411a75c96ae1667d84c796214fb]
link CCT to UC 8 - Record the chemical analysis results--><path d="M203.05,860.62 C244,864.67 292.46,869.45 337.33,873.87 " fill="none" id="CCT-to-UC 8 - Record the chemical analysis results" style="stroke:#A80036;stroke-width:1.0;"/><polygon fill="#A80036" points="342.5,874.38,333.9316,869.5238,337.5237,873.8938,333.1537,877.4859,342.5,874.38" style="stroke:#A80036;stroke-width:1.0;"/><!--MD5=[86ef0af2a26c4d54cc64d2171db3d752]
link Administrator to UC 5 - Specify a new type of test and its collecting methods--><path d="M146.11,663.17 C172.94,651.19 209.1,635.94 242,625 C272.77,614.77 306.27,605.33 338.17,597.11 " fill="none" id="Administrator-to-UC 5 - Specify a new type of test and its collecting methods" style="stroke:#A80036;stroke-width:1.0;"/><polygon fill="#A80036" points="343.28,595.8,333.5682,594.1628,338.4369,597.0429,335.5568,601.9117,343.28,595.8" style="stroke:#A80036;stroke-width:1.0;"/><!--MD5=[84f5d9d1f7adcc838d9e47ebab96d045]
link Administrator to UC 6 - Specify a new test parameter and categorize it--><path d="M146.35,682 C182.65,682 238.44,682 294.11,682 " fill="none" id="Administrator-to-UC 6 - Specify a new test parameter and categorize it" style="stroke:#A80036;stroke-width:1.0;"/><polygon fill="#A80036" points="299.15,682,290.15,678,294.15,682,290.15,686,299.15,682" style="stroke:#A80036;stroke-width:1.0;"/><!--MD5=[ac2932cd94506948bd6606c03b6e7564]
link Administrator to UC 7 - Specify a new parameter category--><path d="M146,700.9 C172.79,712.83 208.94,727.85 242,738 C280.41,749.8 323.16,759.72 361.73,767.54 " fill="none" id="Administrator-to-UC 7 - Specify a new parameter category" style="stroke:#A80036;stroke-width:1.0;"/><polygon fill="#A80036" points="366.89,768.58,358.8556,762.8836,361.9882,767.5939,357.2779,770.7265,366.89,768.58" style="stroke:#A80036;stroke-width:1.0;"/><!--MD5=[1357f4eea2d5ba27c0ec392c2c8b87d7]
link SD to UC 12 - Register a report--><path d="M157.64,1084.78 C214.64,1082.34 307.36,1078.39 378.85,1075.34 " fill="none" id="SD-to-UC 12 - Register a report" style="stroke:#A80036;stroke-width:1.0;"/><polygon fill="#A80036" points="383.96,1075.12,374.797,1071.509,378.9646,1075.3341,375.1395,1079.5017,383.96,1075.12" style="stroke:#A80036;stroke-width:1.0;"/><!--MD5=[28520240ca38752cf59e237666ad7570]
link LC to UC 10 - Post the chemical test/result--><path d="M178.69,972.12 C226.59,974.17 290.58,976.9 347.31,979.32 " fill="none" id="LC-to-UC 10 - Post the chemical test/result" style="stroke:#A80036;stroke-width:1.0;"/><polygon fill="#A80036" points="352.43,979.54,343.6095,975.1583,347.4346,979.3259,343.267,983.151,352.43,979.54" style="stroke:#A80036;stroke-width:1.0;"/><!--MD5=[8fefd1deb0d1efbb50d518fb6955b54c]
link UC 10 - Post the chemical test/result to UC 9 - Validate the chemical test/result--><path d="M613.14,984.72 C673.91,984.59 746.34,984.44 808.56,984.3 " fill="none" id="UC 10 - Post the chemical test/result-to-UC 9 - Validate the chemical test/result" style="stroke:#A52A2A;stroke-width:1.0;stroke-dasharray:7.0,7.0;"/><polygon fill="#A52A2A" points="813.78,984.29,804.7686,980.3157,808.78,984.3043,804.7915,988.3157,813.78,984.29" style="stroke:#A52A2A;stroke-width:1.0;"/><text fill="#000000" font-family="sans-serif" font-size="13" lengthAdjust="spacing" textLength="55" x="728" y="981.4951">«Include»</text><!--MD5=[d52b2059ef252aa9cbacc32e996fb03b]
link Application to UC 13 - Generate Covid-19 reports--><path d="M139.11,1200.61 C189.68,1194 287.75,1181.19 365.85,1170.98 " fill="none" id="Application-to-UC 13 - Generate Covid-19 reports" style="stroke:#A80036;stroke-width:1.0;"/><polygon fill="#A80036" points="370.96,1170.31,361.5203,1167.5007,366.0015,1170.953,362.5492,1175.4342,370.96,1170.31" style="stroke:#A80036;stroke-width:1.0;"/><!--MD5=[2a88ecc3cf329581c51d630b2cf298c3]
link UC 12 - Register a report to UC 11 - Make a diagnosis--><path d="M580.53,1071.21 C658.44,1071.38 767.17,1071.61 846.78,1071.78 " fill="none" id="UC 12 - Register a report-to-UC 11 - Make a diagnosis" style="stroke:#A52A2A;stroke-width:1.0;stroke-dasharray:7.0,7.0;"/><polygon fill="#A52A2A" points="851.98,1071.79,842.98,1067.79,846.98,1071.79,842.98,1075.79,851.98,1071.79" style="stroke:#A52A2A;stroke-width:1.0;"/><text fill="#000000" font-family="sans-serif" font-size="13" lengthAdjust="spacing" textLength="55" x="728" y="1068.4951">«Include»</text><!--MD5=[7d245d348aaff7bec656d7994c3b613c]
@startuml

left to right direction
skinparam packageStyle rectangle
actor Receptionist
actor "Medical Lab Technician" as MLT
actor Administrator
actor "Clinical Chemistry Technologist" as CCT
actor "Laboratory Coordinator" as LC
actor "Specialist Doctor" as SD
actor Client
actor Application



rectangle System {
Receptionist - -> (UC 1 - Register a new client)
Receptionist - -> (UC 2 - Register a test to be performed to a registered client)
MLT - -> (UC 3 - Register all the clinical tests performed)
MLT - -> (UC 4 - Record the samples collected in the scope of a given test)
CCT - -> (UC 8 - Record the chemical analysis results)
Administrator - -> (UC 5 - Specify a new type of test and its collecting methods)
Administrator - -> (UC 6 - Specify a new test parameter and categorize it)
Administrator - -> (UC 7 - Specify a new parameter category)
SD - -> (UC 12 - Register a report)
LC - -> (UC 10 - Post the chemical test/result)
(UC 10 - Post the chemical test/result) - -> (UC 9 - Validate the chemical test/result) #brown;line.dashed;text:black : <<Include>>
Application - -> (UC 13 - Generate Covid-19 reports)
(UC 12 - Register a report) - -> (UC 11 - Make a diagnosis) #brown;line.dashed;text:black : <<Include>>
}


@enduml

PlantUML version 1.2021.00(Sun Jan 10 10:25:05 GMT 2021)
(GPL source distribution)
Java Runtime: OpenJDK Runtime Environment
JVM: OpenJDK 64-Bit Server VM
Default Encoding: Cp1252
Language: pt
Country: PT
--></g></svg>