<?xml version="1.0" encoding="UTF-8" standalone="no"?><svg xmlns="http://www.w3.org/2000/svg" xmlns:xlink="http://www.w3.org/1999/xlink" contentScriptType="application/ecmascript" contentStyleType="text/css" height="536.8px" preserveAspectRatio="none" style="width:927px;height:536px;" version="1.1" viewBox="0 0 927 536" width="927.2px" zoomAndPan="magnify"><defs><filter height="300%" id="f1fvbacftr5tq4" width="300%" x="-1" y="-1"><feGaussianBlur result="blurOut" stdDeviation="1.6"/><feColorMatrix in="blurOut" result="blurOut2" type="matrix" values="0 0 0 0 0 0 0 0 0 0 0 0 0 0 0 0 0 0 .4 0"/><feOffset dx="3.2" dy="3.2" in="blurOut2" result="blurOut3"/><feBlend in="SourceGraphic" in2="blurOut3" mode="normal"/></filter></defs><g><!--MD5=[e45a4727c47b726c25e081782e8bc183]
class ApplicationPOT--><rect codeLine="3" fill="#FEFECE" filter="url(#f1fvbacftr5tq4)" height="59.1281" id="ApplicationPOT" style="stroke: #A80036; stroke-width: 1.2000000000000002;" width="103.2" x="452" y="252.8"/><ellipse cx="467.24" cy="265.6" fill="#ADD1B2" rx="8.8" ry="8.8" style="stroke: #A80036; stroke-width: 0.8;"/><path d="M469.2185,270.5145 Q468.7537,270.7535 468.2423,270.873 Q467.731,270.9926 467.1666,270.9926 Q465.1611,270.9926 464.1052,269.6711 Q463.0494,268.3496 463.0494,265.8527 Q463.0494,263.3492 464.1052,262.0277 Q465.1611,260.7063 467.1666,260.7063 Q467.731,260.7063 468.249,260.8258 Q468.767,260.9453 469.2185,261.1844 L469.2185,263.3625 Q468.7138,262.8977 468.239,262.6818 Q467.7642,262.466 467.2595,262.466 Q466.1838,262.466 465.6359,263.3193 Q465.088,264.1727 465.088,265.8527 Q465.088,267.5262 465.6359,268.3795 Q466.1838,269.2328 467.2595,269.2328 Q467.7642,269.2328 468.239,269.017 Q468.7138,268.8012 469.2185,268.3363 Z " fill="#000000"/><text fill="#000000" font-family="sans-serif" font-size="9.6" lengthAdjust="spacingAndGlyphs" textLength="70.4" x="479.16" y="269.2281">ApplicationPOT</text><line style="stroke: #A80036; stroke-width: 1.2000000000000002;" x1="452.8" x2="554.4" y1="278.4" y2="278.4"/><line style="stroke: #A80036; stroke-width: 1.2000000000000002;" x1="452.8" x2="554.4" y1="284.8" y2="284.8"/><text fill="#000000" font-family="sans-serif" font-size="8.8" lengthAdjust="spacingAndGlyphs" textLength="88.8" x="456.8" y="296.5078">+static getInstance()</text><text fill="#000000" font-family="sans-serif" font-size="8.8" lengthAdjust="spacingAndGlyphs" textLength="93.6" x="456.8" y="306.8719">+getCurrentSession()</text><!--MD5=[c5b08e60048ef1bcd788d24cf324082e]
class UserSession--><rect codeLine="9" fill="#FEFECE" filter="url(#f1fvbacftr5tq4)" height="48.7641" id="UserSession" style="stroke: #A80036; stroke-width: 1.2000000000000002;" width="80" x="583.6" y="258"/><ellipse cx="595.6" cy="270.8" fill="#ADD1B2" rx="8.8" ry="8.8" style="stroke: #A80036; stroke-width: 0.8;"/><path d="M597.5785,275.7145 Q597.1137,275.9535 596.6023,276.073 Q596.091,276.1926 595.5266,276.1926 Q593.5211,276.1926 592.4652,274.8711 Q591.4094,273.5496 591.4094,271.0527 Q591.4094,268.5492 592.4652,267.2277 Q593.5211,265.9063 595.5266,265.9063 Q596.091,265.9063 596.609,266.0258 Q597.127,266.1453 597.5785,266.3844 L597.5785,268.5625 Q597.0738,268.0977 596.599,267.8818 Q596.1242,267.666 595.6195,267.666 Q594.5438,267.666 593.9959,268.5193 Q593.448,269.3727 593.448,271.0527 Q593.448,272.7262 593.9959,273.5795 Q594.5438,274.4328 595.6195,274.4328 Q596.1242,274.4328 596.599,274.217 Q597.0738,274.0012 597.5785,273.5363 Z " fill="#000000"/><text fill="#000000" font-family="sans-serif" font-size="9.6" lengthAdjust="spacingAndGlyphs" textLength="54.4" x="606.8" y="274.4281">UserSession</text><line style="stroke: #A80036; stroke-width: 1.2000000000000002;" x1="584.4" x2="662.8" y1="283.6" y2="283.6"/><line style="stroke: #A80036; stroke-width: 1.2000000000000002;" x1="584.4" x2="662.8" y1="290" y2="290"/><text fill="#000000" font-family="sans-serif" font-size="8.8" lengthAdjust="spacingAndGlyphs" textLength="69.6" x="588.4" y="301.7078">+getUserEmail()</text><!--MD5=[b34797a66dc35cbf1d65f7e3ca75530e]
class Task--><rect codeLine="14" fill="#FEFECE" filter="url(#f1fvbacftr5tq4)" height="110.9484" id="Task" style="stroke: #A80036; stroke-width: 1.2000000000000002;" width="304" x="257.2" y="415.2"/><ellipse cx="394.6" cy="428" fill="#ADD1B2" rx="8.8" ry="8.8" style="stroke: #A80036; stroke-width: 0.8;"/><path d="M396.5785,432.9145 Q396.1137,433.1535 395.6023,433.273 Q395.091,433.3926 394.5266,433.3926 Q392.5211,433.3926 391.4652,432.0711 Q390.4094,430.7496 390.4094,428.2527 Q390.4094,425.7492 391.4652,424.4277 Q392.5211,423.1063 394.5266,423.1063 Q395.091,423.1063 395.609,423.2258 Q396.127,423.3453 396.5785,423.5844 L396.5785,425.7625 Q396.0738,425.2977 395.599,425.0818 Q395.1242,424.866 394.6195,424.866 Q393.5438,424.866 392.9959,425.7193 Q392.448,426.5727 392.448,428.2527 Q392.448,429.9262 392.9959,430.7795 Q393.5438,431.6328 394.6195,431.6328 Q395.1242,431.6328 395.599,431.417 Q396.0738,431.2012 396.5785,430.7363 Z " fill="#000000"/><text fill="#000000" font-family="sans-serif" font-size="9.6" lengthAdjust="spacingAndGlyphs" textLength="22.4" x="411" y="431.6281">Task</text><line style="stroke: #A80036; stroke-width: 1.2000000000000002;" x1="258" x2="560.4" y1="440.8" y2="440.8"/><text fill="#000000" font-family="sans-serif" font-size="8.8" lengthAdjust="spacingAndGlyphs" textLength="73.6" x="262" y="452.5078">-String reference</text><text fill="#000000" font-family="sans-serif" font-size="8.8" lengthAdjust="spacingAndGlyphs" textLength="83.2" x="262" y="462.8719">-String designation</text><text fill="#000000" font-family="sans-serif" font-size="8.8" lengthAdjust="spacingAndGlyphs" textLength="118.4" x="262" y="473.2359">-String informalDescription</text><text fill="#000000" font-family="sans-serif" font-size="8.8" lengthAdjust="spacingAndGlyphs" textLength="120.8" x="262" y="483.6">-String technicalDescription</text><text fill="#000000" font-family="sans-serif" font-size="8.8" lengthAdjust="spacingAndGlyphs" textLength="74.4" x="262" y="493.9641">-Integer duration</text><text fill="#000000" font-family="sans-serif" font-size="8.8" lengthAdjust="spacingAndGlyphs" textLength="56" x="262" y="504.3281">-Double cost</text><line style="stroke: #A80036; stroke-width: 1.2000000000000002;" x1="258" x2="560.4" y1="509.3844" y2="509.3844"/><text fill="#000000" font-family="sans-serif" font-size="8.8" lengthAdjust="spacingAndGlyphs" textLength="294.4" x="262" y="521.0922">+Task(ref,designation,informalDesc,technicalDesc,duration,cost,cat)</text><!--MD5=[a96594a83e2ecdc78cbf17c2ddf01934]
class Category--><rect codeLine="24" fill="#FEFECE" filter="url(#f1fvbacftr5tq4)" height="59.1281" id="Category" style="stroke: #A80036; stroke-width: 1.2000000000000002;" width="91.2" x="660.4" y="441.2"/><ellipse cx="683.56" cy="454" fill="#ADD1B2" rx="8.8" ry="8.8" style="stroke: #A80036; stroke-width: 0.8;"/><path d="M685.5385,458.9145 Q685.0737,459.1535 684.5623,459.273 Q684.051,459.3926 683.4866,459.3926 Q681.4811,459.3926 680.4252,458.0711 Q679.3694,456.7496 679.3694,454.2527 Q679.3694,451.7492 680.4252,450.4277 Q681.4811,449.1063 683.4866,449.1063 Q684.051,449.1063 684.569,449.2258 Q685.087,449.3453 685.5385,449.5844 L685.5385,451.7625 Q685.0338,451.2977 684.559,451.0818 Q684.0842,450.866 683.5795,450.866 Q682.5038,450.866 681.9559,451.7193 Q681.408,452.5727 681.408,454.2527 Q681.408,455.9262 681.9559,456.7795 Q682.5038,457.6328 683.5795,457.6328 Q684.0842,457.6328 684.559,457.417 Q685.0338,457.2012 685.5385,456.7363 Z " fill="#000000"/><text fill="#000000" font-family="sans-serif" font-size="9.6" lengthAdjust="spacingAndGlyphs" textLength="40.8" x="697.24" y="457.6281">Category</text><line style="stroke: #A80036; stroke-width: 1.2000000000000002;" x1="661.2" x2="750.8" y1="466.8" y2="466.8"/><text fill="#000000" font-family="sans-serif" font-size="8.8" lengthAdjust="spacingAndGlyphs" textLength="40.8" x="665.2" y="478.5078">-String id</text><text fill="#000000" font-family="sans-serif" font-size="8.8" lengthAdjust="spacingAndGlyphs" textLength="81.6" x="665.2" y="488.8719">-String description</text><line style="stroke: #A80036; stroke-width: 1.2000000000000002;" x1="661.2" x2="750.8" y1="493.9281" y2="493.9281"/><!--MD5=[86c7c362de55a38b660185a1328fe18d]
class Organization--><rect codeLine="29" fill="#FEFECE" filter="url(#f1fvbacftr5tq4)" height="142.0406" id="Organization" style="stroke: #A80036; stroke-width: 1.2000000000000002;" width="360.8" x="5.6" y="211.2"/><ellipse cx="153.4" cy="224" fill="#ADD1B2" rx="8.8" ry="8.8" style="stroke: #A80036; stroke-width: 0.8;"/><path d="M155.3785,228.9145 Q154.9137,229.1535 154.4023,229.273 Q153.891,229.3926 153.3266,229.3926 Q151.3211,229.3926 150.2652,228.0711 Q149.2094,226.7496 149.2094,224.2527 Q149.2094,221.7492 150.2652,220.4277 Q151.3211,219.1063 153.3266,219.1063 Q153.891,219.1063 154.409,219.2258 Q154.927,219.3453 155.3785,219.5844 L155.3785,221.7625 Q154.8738,221.2977 154.399,221.0818 Q153.9242,220.866 153.4195,220.866 Q152.3438,220.866 151.7959,221.7193 Q151.248,222.5727 151.248,224.2527 Q151.248,225.9262 151.7959,226.7795 Q152.3438,227.6328 153.4195,227.6328 Q153.9242,227.6328 154.399,227.417 Q154.8738,227.2012 155.3785,226.7363 Z " fill="#000000"/><text fill="#000000" font-family="sans-serif" font-size="9.6" lengthAdjust="spacingAndGlyphs" textLength="58.4" x="169.8" y="227.6281">Organization</text><line style="stroke: #A80036; stroke-width: 1.2000000000000002;" x1="6.4" x2="365.6" y1="236.8" y2="236.8"/><text fill="#000000" font-family="sans-serif" font-size="8.8" lengthAdjust="spacingAndGlyphs" textLength="56" x="10.4" y="248.5078">-String name</text><text fill="#000000" font-family="sans-serif" font-size="8.8" lengthAdjust="spacingAndGlyphs" textLength="80.8" x="10.4" y="258.8719">-String VatNumber</text><text fill="#000000" font-family="sans-serif" font-size="8.8" lengthAdjust="spacingAndGlyphs" textLength="64.8" x="10.4" y="269.2359">-String website</text><text fill="#000000" font-family="sans-serif" font-size="8.8" lengthAdjust="spacingAndGlyphs" textLength="60" x="10.4" y="279.6">-String phone</text><text fill="#000000" font-family="sans-serif" font-size="8.8" lengthAdjust="spacingAndGlyphs" textLength="55.2" x="10.4" y="289.9641">-String email</text><line style="stroke: #A80036; stroke-width: 1.2000000000000002;" x1="6.4" x2="365.6" y1="295.0203" y2="295.0203"/><text fill="#000000" font-family="sans-serif" font-size="8.8" lengthAdjust="spacingAndGlyphs" textLength="351.2" x="10.4" y="306.7281">+Organization(name, VatNumber, webSite, phone, email, postalAddress, manager)</text><text fill="#000000" font-family="sans-serif" font-size="8.8" lengthAdjust="spacingAndGlyphs" textLength="320.8" x="10.4" y="317.0922">+createTask(ref,designation,informalDesc,technicalDesc,duration,cost,cat)</text><text fill="#000000" font-family="sans-serif" font-size="8.8" lengthAdjust="spacingAndGlyphs" textLength="70.4" x="10.4" y="327.4563">+saveTask(task)</text><text fill="#000000" font-family="sans-serif" font-size="8.8" lengthAdjust="spacingAndGlyphs" textLength="64.8" x="10.4" y="337.8203">-addTask(task)</text><text fill="#000000" font-family="sans-serif" font-size="8.8" lengthAdjust="spacingAndGlyphs" textLength="81.6" x="10.4" y="348.1844">-validateTask(task)</text><!--MD5=[99b8db98afdc2c8404e39242ef4c1e65]
class Platform--><rect codeLine="42" fill="#FEFECE" filter="url(#f1fvbacftr5tq4)" height="79.8563" id="Platform" style="stroke: #A80036; stroke-width: 1.2000000000000002;" width="167.2" x="748.8" y="242.4"/><ellipse cx="809.8" cy="255.2" fill="#ADD1B2" rx="8.8" ry="8.8" style="stroke: #A80036; stroke-width: 0.8;"/><path d="M811.7785,260.1145 Q811.3137,260.3535 810.8023,260.473 Q810.291,260.5926 809.7266,260.5926 Q807.7211,260.5926 806.6652,259.2711 Q805.6094,257.9496 805.6094,255.4527 Q805.6094,252.9492 806.6652,251.6277 Q807.7211,250.3063 809.7266,250.3063 Q810.291,250.3063 810.809,250.4258 Q811.327,250.5453 811.7785,250.7844 L811.7785,252.9625 Q811.2738,252.4977 810.799,252.2818 Q810.3242,252.066 809.8195,252.066 Q808.7438,252.066 808.1959,252.9193 Q807.648,253.7727 807.648,255.4527 Q807.648,257.1262 808.1959,257.9795 Q808.7438,258.8328 809.8195,258.8328 Q810.3242,258.8328 810.799,258.617 Q811.2738,258.4012 811.7785,257.9363 Z " fill="#000000"/><text fill="#000000" font-family="sans-serif" font-size="9.6" lengthAdjust="spacingAndGlyphs" textLength="38.4" x="826.2" y="258.8281">Platform</text><line style="stroke: #A80036; stroke-width: 1.2000000000000002;" x1="749.6" x2="915.2" y1="268" y2="268"/><text fill="#000000" font-family="sans-serif" font-size="8.8" lengthAdjust="spacingAndGlyphs" textLength="83.2" x="753.6" y="279.7078">-String designation</text><line style="stroke: #A80036; stroke-width: 1.2000000000000002;" x1="749.6" x2="915.2" y1="284.7641" y2="284.7641"/><text fill="#000000" font-family="sans-serif" font-size="8.8" lengthAdjust="spacingAndGlyphs" textLength="73.6" x="753.6" y="296.4719">+getCategories()</text><text fill="#000000" font-family="sans-serif" font-size="8.8" lengthAdjust="spacingAndGlyphs" textLength="104.8" x="753.6" y="306.8359">+getCategoryById(catId)</text><text fill="#000000" font-family="sans-serif" font-size="8.8" lengthAdjust="spacingAndGlyphs" textLength="157.6" x="753.6" y="317.2">+getOrganizationByUserEmail(email)</text><!--MD5=[51de5e7b448e98e1f71289edad994864]
class CreateTaskController--><rect codeLine="49" fill="#FEFECE" filter="url(#f1fvbacftr5tq4)" height="69.4922" id="CreateTaskController" style="stroke: #A80036; stroke-width: 1.2000000000000002;" width="363.2" x="382" y="92.8"/><ellipse cx="511.4" cy="105.6" fill="#ADD1B2" rx="8.8" ry="8.8" style="stroke: #A80036; stroke-width: 0.8;"/><path d="M513.3785,110.5145 Q512.9137,110.7535 512.4023,110.873 Q511.891,110.9926 511.3266,110.9926 Q509.3211,110.9926 508.2652,109.6711 Q507.2094,108.3496 507.2094,105.8527 Q507.2094,103.3492 508.2652,102.0277 Q509.3211,100.7063 511.3266,100.7063 Q511.891,100.7063 512.409,100.8258 Q512.927,100.9453 513.3785,101.1844 L513.3785,103.3625 Q512.8738,102.8977 512.399,102.6818 Q511.9242,102.466 511.4195,102.466 Q510.3438,102.466 509.7959,103.3193 Q509.248,104.1727 509.248,105.8527 Q509.248,107.5262 509.7959,108.3795 Q510.3438,109.2328 511.4195,109.2328 Q511.9242,109.2328 512.399,109.017 Q512.8738,108.8012 513.3785,108.3363 Z " fill="#000000"/><text fill="#000000" font-family="sans-serif" font-size="9.6" lengthAdjust="spacingAndGlyphs" textLength="97.6" x="527.8" y="109.2281">CreateTaskController</text><line style="stroke: #A80036; stroke-width: 1.2000000000000002;" x1="382.8" x2="744.4" y1="118.4" y2="118.4"/><line style="stroke: #A80036; stroke-width: 1.2000000000000002;" x1="382.8" x2="744.4" y1="124.8" y2="124.8"/><text fill="#000000" font-family="sans-serif" font-size="8.8" lengthAdjust="spacingAndGlyphs" textLength="73.6" x="386.8" y="136.5078">+getCategories()</text><text fill="#000000" font-family="sans-serif" font-size="8.8" lengthAdjust="spacingAndGlyphs" textLength="353.6" x="386.8" y="146.8719">+createTask(ref,designation,informalDesc,technicalDesc,duration,cost,categoryId)</text><text fill="#000000" font-family="sans-serif" font-size="8.8" lengthAdjust="spacingAndGlyphs" textLength="52.8" x="386.8" y="157.2359">+saveTask()</text><!--MD5=[788566af22260aef45bcb38e0a2dd266]
class CreateTaskUI--><rect codeLine="55" fill="#FEFECE" filter="url(#f1fvbacftr5tq4)" height="38.4" id="CreateTaskUI" style="stroke: #A80036; stroke-width: 1.2000000000000002;" width="87.2" x="520" y="5.6"/><ellipse cx="532" cy="18.4" fill="#ADD1B2" rx="8.8" ry="8.8" style="stroke: #A80036; stroke-width: 0.8;"/><path d="M533.9785,23.3145 Q533.5137,23.5535 533.0023,23.673 Q532.491,23.7926 531.9266,23.7926 Q529.9211,23.7926 528.8652,22.4711 Q527.8094,21.1496 527.8094,18.6527 Q527.8094,16.1492 528.8652,14.8277 Q529.9211,13.5063 531.9266,13.5063 Q532.491,13.5063 533.009,13.6258 Q533.527,13.7453 533.9785,13.9844 L533.9785,16.1625 Q533.4738,15.6977 532.999,15.4818 Q532.5242,15.266 532.0195,15.266 Q530.9438,15.266 530.3959,16.1193 Q529.848,16.9727 529.848,18.6527 Q529.848,20.3262 530.3959,21.1795 Q530.9438,22.0328 532.0195,22.0328 Q532.5242,22.0328 532.999,21.817 Q533.4738,21.6012 533.9785,21.1363 Z " fill="#000000"/><text fill="#000000" font-family="sans-serif" font-size="9.6" lengthAdjust="spacingAndGlyphs" textLength="61.6" x="543.2" y="22.0281">CreateTaskUI</text><line style="stroke: #A80036; stroke-width: 1.2000000000000002;" x1="520.8" x2="606.4" y1="31.2" y2="31.2"/><line style="stroke: #A80036; stroke-width: 1.2000000000000002;" x1="520.8" x2="606.4" y1="37.6" y2="37.6"/><!--MD5=[3c2021faa4730756a46abeb810188647]
link CreateTaskUI to CreateTaskController--><path codeLine="59" d="M563.6,44.16 C563.6,56.576 563.6,73.36 563.6,88.56 " fill="none" id="CreateTaskUI-to-CreateTaskController" style="stroke: #A80036; stroke-width: 0.8; stroke-dasharray: 7.0,7.0;"/><polygon fill="#A80036" points="563.6,92.8,566.8,85.6,563.6,88.8,560.4,85.6,563.6,92.8" style="stroke: #A80036; stroke-width: 0.8;"/><!--MD5=[a4ec584e3b37d2304c777b6ab65750ce]
link CreateTaskController to Platform--><path codeLine="60" d="M677.72,162.44 C694.68,169.336 711.56,177.312 726.8,186.4 C750.952,200.8 774.52,221.232 793.24,239.48 " fill="none" id="CreateTaskController-to-Platform" style="stroke: #A80036; stroke-width: 0.8; stroke-dasharray: 7.0,7.0;"/><polygon fill="#A80036" points="796.2,242.384,793.3124,235.0531,793.3489,239.5785,788.8235,239.615,796.2,242.384" style="stroke: #A80036; stroke-width: 0.8;"/><!--MD5=[31449856cc093f06f4035ee47ec0212f]
link CreateTaskController to Category--><path codeLine="61" d="M630.048,162.584 C648.52,175.336 666.616,191.584 678,211.2 C719.656,282.952 715.968,384.888 710.544,436.816 " fill="none" id="CreateTaskController-to-Category" style="stroke: #A80036; stroke-width: 0.8; stroke-dasharray: 7.0,7.0;"/><polygon fill="#A80036" points="710.088,441.08,714.0313,434.2587,710.5109,437.1024,707.6672,433.582,710.088,441.08" style="stroke: #A80036; stroke-width: 0.8;"/><!--MD5=[20b3b25e5af19bf6c808e25d197bf54a]
link CreateTaskController to Task--><path codeLine="62" d="M489.136,162.408 C469.44,174.968 450.272,191.152 438,211.2 C400.96,271.696 398.504,355.264 402.152,410.888 " fill="none" id="CreateTaskController-to-Task" style="stroke: #A80036; stroke-width: 0.8; stroke-dasharray: 7.0,7.0;"/><polygon fill="#A80036" points="402.456,415.176,405.1545,407.7734,402.1816,411.1854,398.7696,408.2125,402.456,415.176" style="stroke: #A80036; stroke-width: 0.8;"/><!--MD5=[7aee0bd92f6f97dbf4948ad9a4aaba5c]
link CreateTaskController to Organization--><path codeLine="63" d="M453.992,162.44 C432.088,169.872 409.376,178.032 388.4,186.4 C370.72,193.456 352.392,201.296 334.312,209.368 " fill="none" id="CreateTaskController-to-Organization" style="stroke: #A80036; stroke-width: 0.8; stroke-dasharray: 7.0,7.0;"/><polygon fill="#A80036" points="330.456,211.096,338.335,211.0708,334.106,209.4598,335.7171,205.2308,330.456,211.096" style="stroke: #A80036; stroke-width: 0.8;"/><!--MD5=[9b9d7a7f0bb222cdf729bdcb120f1330]
link CreateTaskController to ApplicationPOT--><path codeLine="64" d="M550.288,162.4 C540.224,188.088 526.488,223.152 516.528,248.592 " fill="none" id="CreateTaskController-to-ApplicationPOT" style="stroke: #A80036; stroke-width: 0.8; stroke-dasharray: 7.0,7.0;"/><polygon fill="#A80036" points="514.96,252.592,520.5758,247.0655,516.4258,248.8702,514.621,244.7202,514.96,252.592" style="stroke: #A80036; stroke-width: 0.8;"/><!--MD5=[d36bb5b89fee6244034c385565d7ff7b]
link CreateTaskController to UserSession--><path codeLine="65" d="M576.912,162.4 C587.696,189.928 602.696,228.224 612.752,253.904 " fill="none" id="CreateTaskController-to-UserSession" style="stroke: #A80036; stroke-width: 0.8; stroke-dasharray: 7.0,7.0;"/><polygon fill="#A80036" points="614.328,257.92,614.6752,250.0486,612.8661,254.1967,608.7179,252.3876,614.328,257.92" style="stroke: #A80036; stroke-width: 0.8;"/><!--MD5=[85b93ec21fe3232efb6e895d06aa0361]
link Task to Category--><path codeLine="66" d="M561.296,470.8 C595.648,470.8 629.736,470.8 656.192,470.8 " fill="none" id="Task-to-Category" style="stroke: #A80036; stroke-width: 0.8;"/><polygon fill="#A80036" points="660.368,470.8,653.168,467.6,656.368,470.8,653.168,474,660.368,470.8" style="stroke: #A80036; stroke-width: 0.8;"/><text fill="#000000" font-family="sans-serif" font-size="10.4" lengthAdjust="spacingAndGlyphs" textLength="60.8" x="580.4" y="465.6547">classified in</text><text fill="#000000" font-family="sans-serif" font-size="10.4" lengthAdjust="spacingAndGlyphs" textLength="4.8" x="567.8138" y="468.6121">*</text><text fill="#000000" font-family="sans-serif" font-size="10.4" lengthAdjust="spacingAndGlyphs" textLength="6.4" x="647.7114" y="468.1065">1</text><!--MD5=[703fa85125a481a8c2c7961b0558245b]
link Platform to Category--><path codeLine="67" d="M805.752,322.584 C782.616,356.776 749.536,405.664 727.912,437.616 " fill="none" id="Platform-to-Category" style="stroke: #A80036; stroke-width: 0.8;"/><polygon fill="#A80036" points="725.592,441.04,732.275,436.8666,727.8319,437.7259,726.9725,433.2828,725.592,441.04" style="stroke: #A80036; stroke-width: 0.8;"/><text fill="#000000" font-family="sans-serif" font-size="10.4" lengthAdjust="spacingAndGlyphs" textLength="36.8" x="766" y="388.4547">defines</text><text fill="#000000" font-family="sans-serif" font-size="10.4" lengthAdjust="spacingAndGlyphs" textLength="6.4" x="795.5277" y="338.5811">1</text><text fill="#000000" font-family="sans-serif" font-size="10.4" lengthAdjust="spacingAndGlyphs" textLength="4.8" x="723.9618" y="432.531">*</text><!--MD5=[4078351e3988aa35b1504a42837f2ab1]
link Organization to Task--><path codeLine="68" d="M270.384,353.824 C293.448,373.12 318.16,393.808 340.248,412.296 " fill="none" id="Organization-to-Task" style="stroke: #A80036; stroke-width: 0.8;"/><polygon fill="#A80036" points="343.488,415,340.0183,407.926,340.4198,412.4337,335.9122,412.8351,343.488,415" style="stroke: #A80036; stroke-width: 0.8;"/><text fill="#000000" font-family="sans-serif" font-size="10.4" lengthAdjust="spacingAndGlyphs" textLength="26.4" x="312.4" y="388.4547">owns</text><text fill="#000000" font-family="sans-serif" font-size="10.4" lengthAdjust="spacingAndGlyphs" textLength="6.4" x="269.946" y="369.5868">1</text><text fill="#000000" font-family="sans-serif" font-size="10.4" lengthAdjust="spacingAndGlyphs" textLength="4.8" x="331.664" y="406.7073">*</text><!--MD5=[21ad5becbe000cc6b37e8642c9ff091d]
@startuml
skinparam classAttributeIconSize 0

class ApplicationPOT
{
  +static getInstance()
  +getCurrentSession()
}

class UserSession
{
  +getUserEmail()
}

class Task {
  -String reference
  -String designation
  -String informalDescription
  -String technicalDescription
  -Integer duration
  -Double cost
  +Task(ref,designation,informalDesc,technicalDesc,duration,cost,cat)
}

class Category {
  -String id
  -String description
}

class Organization {
  -String name
  -String VatNumber
  -String website
  -String phone
  -String email
  +Organization(name, VatNumber, webSite, phone, email, postalAddress, manager)
  +createTask(ref,designation,informalDesc,technicalDesc,duration,cost,cat)
  +saveTask(task)
  -addTask(task)
  -validateTask(task)
}

class Platform {
  -String designation
  +getCategories()
  +getCategoryById(catId)
  +getOrganizationByUserEmail(email)
}

class CreateTaskController {
  +getCategories()
  +createTask(ref,designation,informalDesc,technicalDesc,duration,cost,categoryId)
  +saveTask()
}

class CreateTaskUI {

}

CreateTaskUI ..> CreateTaskController
CreateTaskController ..> Platform
CreateTaskController ..> Category
CreateTaskController ..> Task
CreateTaskController ..> Organization
CreateTaskController ..> ApplicationPOT
CreateTaskController ..> UserSession
Task "*" -> "1" Category : classified in
Platform "1" - -> "*" Category : defines
Organization "1" - -> "*" Task : owns


@enduml

PlantUML version 1.2020.20(Sat Nov 21 10:02:45 WET 2020)
(GPL source distribution)
Java Runtime: OpenJDK Runtime Environment
JVM: OpenJDK 64-Bit Server VM
Default Encoding: UTF-8
Language: en
Country: PT
--></g></svg>