<?xml version="1.0" encoding="UTF-8" standalone="no"?><svg xmlns="http://www.w3.org/2000/svg" xmlns:xlink="http://www.w3.org/1999/xlink" contentScriptType="application/ecmascript" contentStyleType="text/css" height="442px" preserveAspectRatio="none" style="width:495px;height:442px;" version="1.1" viewBox="0 0 495 442" width="495px" zoomAndPan="magnify"><defs><filter height="300%" id="fl8juqbd5hqfq" width="300%" x="-1" y="-1"><feGaussianBlur result="blurOut" stdDeviation="2.0"/><feColorMatrix in="blurOut" result="blurOut2" type="matrix" values="0 0 0 0 0 0 0 0 0 0 0 0 0 0 0 0 0 0 .4 0"/><feOffset dx="4.0" dy="4.0" in="blurOut2" result="blurOut3"/><feBlend in="SourceGraphic" in2="blurOut3" mode="normal"/></filter></defs><g><rect fill="#FFFFFF" filter="url(#fl8juqbd5hqfq)" height="241.7949" style="stroke: #A80036; stroke-width: 1.0;" width="10" x="83" y="98.4883"/><rect fill="#FFFFFF" filter="url(#fl8juqbd5hqfq)" height="29.3105" style="stroke: #A80036; stroke-width: 1.0;" width="10" x="445" y="119.7988"/><rect fill="#FFFFFF" filter="url(#fl8juqbd5hqfq)" height="44.6211" style="stroke: #A80036; stroke-width: 1.0;" width="10" x="445" y="178.4199"/><rect fill="#FFFFFF" filter="url(#fl8juqbd5hqfq)" height="29.3105" style="stroke: #A80036; stroke-width: 1.0;" width="10" x="445" y="252.3516"/><rect fill="#FFFFFF" filter="url(#fl8juqbd5hqfq)" height="29.3105" style="stroke: #A80036; stroke-width: 1.0;" width="10" x="445" y="310.9727"/><line style="stroke: #A80036; stroke-width: 1.0; stroke-dasharray: 5.0,5.0;" x1="88" x2="88" y1="88.4883" y2="358.2832"/><line style="stroke: #A80036; stroke-width: 1.0; stroke-dasharray: 5.0,5.0;" x1="450" x2="450" y1="88.4883" y2="358.2832"/><text fill="#000000" font-family="sans-serif" font-size="14" lengthAdjust="spacingAndGlyphs" textLength="160" x="5" y="85.5352">Organization Employee</text><ellipse cx="88" cy="15" fill="#FEFECE" filter="url(#fl8juqbd5hqfq)" rx="8" ry="8" style="stroke: #A80036; stroke-width: 2.0;"/><path d="M88,23 L88,50 M75,31 L101,31 M88,50 L75,65 M88,50 L101,65 " fill="none" filter="url(#fl8juqbd5hqfq)" style="stroke: #A80036; stroke-width: 2.0;"/><text fill="#000000" font-family="sans-serif" font-size="14" lengthAdjust="spacingAndGlyphs" textLength="160" x="5" y="370.8184">Organization Employee</text><ellipse cx="88" cy="383.7715" fill="#FEFECE" filter="url(#fl8juqbd5hqfq)" rx="8" ry="8" style="stroke: #A80036; stroke-width: 2.0;"/><path d="M88,391.7715 L88,418.7715 M75,399.7715 L101,399.7715 M88,418.7715 L75,433.7715 M88,418.7715 L101,433.7715 " fill="none" filter="url(#fl8juqbd5hqfq)" style="stroke: #A80036; stroke-width: 2.0;"/><rect fill="#FEFECE" filter="url(#fl8juqbd5hqfq)" height="30.4883" style="stroke: #A80036; stroke-width: 1.5;" width="66" x="415" y="53"/><text fill="#000000" font-family="sans-serif" font-size="14" lengthAdjust="spacingAndGlyphs" textLength="52" x="422" y="73.5352">:System</text><rect fill="#FEFECE" filter="url(#fl8juqbd5hqfq)" height="30.4883" style="stroke: #A80036; stroke-width: 1.5;" width="66" x="415" y="357.2832"/><text fill="#000000" font-family="sans-serif" font-size="14" lengthAdjust="spacingAndGlyphs" textLength="52" x="422" y="377.8184">:System</text><rect fill="#FFFFFF" filter="url(#fl8juqbd5hqfq)" height="241.7949" style="stroke: #A80036; stroke-width: 1.0;" width="10" x="83" y="98.4883"/><rect fill="#FFFFFF" filter="url(#fl8juqbd5hqfq)" height="29.3105" style="stroke: #A80036; stroke-width: 1.0;" width="10" x="445" y="119.7988"/><rect fill="#FFFFFF" filter="url(#fl8juqbd5hqfq)" height="44.6211" style="stroke: #A80036; stroke-width: 1.0;" width="10" x="445" y="178.4199"/><rect fill="#FFFFFF" filter="url(#fl8juqbd5hqfq)" height="29.3105" style="stroke: #A80036; stroke-width: 1.0;" width="10" x="445" y="252.3516"/><rect fill="#FFFFFF" filter="url(#fl8juqbd5hqfq)" height="29.3105" style="stroke: #A80036; stroke-width: 1.0;" width="10" x="445" y="310.9727"/><polygon fill="#A80036" points="433,115.7988,443,119.7988,433,123.7988,437,119.7988" style="stroke: #A80036; stroke-width: 1.0;"/><line style="stroke: #A80036; stroke-width: 1.0;" x1="93" x2="439" y1="119.7988" y2="119.7988"/><text fill="#000000" font-family="sans-serif" font-size="13" font-weight="bold" lengthAdjust="spacingAndGlyphs" textLength="9" x="100" y="115.0566">1</text><text fill="#000000" font-family="sans-serif" font-size="13" lengthAdjust="spacingAndGlyphs" textLength="159" x="113" y="115.0566">asks to create a new task</text><polygon fill="#A80036" points="104,145.1094,94,149.1094,104,153.1094,100,149.1094" style="stroke: #A80036; stroke-width: 1.0;"/><line style="stroke: #A80036; stroke-width: 1.0; stroke-dasharray: 2.0,2.0;" x1="98" x2="449" y1="149.1094" y2="149.1094"/><text fill="#000000" font-family="sans-serif" font-size="13" font-weight="bold" lengthAdjust="spacingAndGlyphs" textLength="9" x="110" y="144.3672">2</text><text fill="#000000" font-family="sans-serif" font-size="13" lengthAdjust="spacingAndGlyphs" textLength="302" x="123" y="144.3672">shows task categories list and ask to select one</text><polygon fill="#A80036" points="433,174.4199,443,178.4199,433,182.4199,437,178.4199" style="stroke: #A80036; stroke-width: 1.0;"/><line style="stroke: #A80036; stroke-width: 1.0;" x1="93" x2="439" y1="178.4199" y2="178.4199"/><text fill="#000000" font-family="sans-serif" font-size="13" font-weight="bold" lengthAdjust="spacingAndGlyphs" textLength="9" x="100" y="173.6777">3</text><text fill="#000000" font-family="sans-serif" font-size="13" lengthAdjust="spacingAndGlyphs" textLength="144" x="113" y="173.6777">selects a task category</text><polygon fill="#A80036" points="104,219.041,94,223.041,104,227.041,100,223.041" style="stroke: #A80036; stroke-width: 1.0;"/><line style="stroke: #A80036; stroke-width: 1.0; stroke-dasharray: 2.0,2.0;" x1="98" x2="449" y1="223.041" y2="223.041"/><text fill="#000000" font-family="sans-serif" font-size="13" font-weight="bold" lengthAdjust="spacingAndGlyphs" textLength="9" x="110" y="210.6436">4</text><text fill="#000000" font-family="sans-serif" font-size="13" lengthAdjust="spacingAndGlyphs" textLength="298" x="123" y="202.9883">requests data (reference, designation,  informal</text><text fill="#000000" font-family="sans-serif" font-size="13" lengthAdjust="spacingAndGlyphs" textLength="311" x="127" y="218.2988">description, technical description, duration, cost)</text><polygon fill="#A80036" points="433,248.3516,443,252.3516,433,256.3516,437,252.3516" style="stroke: #A80036; stroke-width: 1.0;"/><line style="stroke: #A80036; stroke-width: 1.0;" x1="93" x2="439" y1="252.3516" y2="252.3516"/><text fill="#000000" font-family="sans-serif" font-size="13" font-weight="bold" lengthAdjust="spacingAndGlyphs" textLength="9" x="100" y="247.6094">5</text><text fill="#000000" font-family="sans-serif" font-size="13" lengthAdjust="spacingAndGlyphs" textLength="131" x="113" y="247.6094">types requested data</text><polygon fill="#A80036" points="104,277.6621,94,281.6621,104,285.6621,100,281.6621" style="stroke: #A80036; stroke-width: 1.0;"/><line style="stroke: #A80036; stroke-width: 1.0; stroke-dasharray: 2.0,2.0;" x1="98" x2="449" y1="281.6621" y2="281.6621"/><text fill="#000000" font-family="sans-serif" font-size="13" font-weight="bold" lengthAdjust="spacingAndGlyphs" textLength="9" x="110" y="276.9199">6</text><text fill="#000000" font-family="sans-serif" font-size="13" lengthAdjust="spacingAndGlyphs" textLength="260" x="123" y="276.9199">shows all data and requests confirmation</text><polygon fill="#A80036" points="433,306.9727,443,310.9727,433,314.9727,437,310.9727" style="stroke: #A80036; stroke-width: 1.0;"/><line style="stroke: #A80036; stroke-width: 1.0;" x1="93" x2="439" y1="310.9727" y2="310.9727"/><text fill="#000000" font-family="sans-serif" font-size="13" font-weight="bold" lengthAdjust="spacingAndGlyphs" textLength="9" x="100" y="306.2305">7</text><text fill="#000000" font-family="sans-serif" font-size="13" lengthAdjust="spacingAndGlyphs" textLength="111" x="113" y="306.2305">confirms the data</text><polygon fill="#A80036" points="99,336.2832,89,340.2832,99,344.2832,95,340.2832" style="stroke: #A80036; stroke-width: 1.0;"/><line style="stroke: #A80036; stroke-width: 1.0; stroke-dasharray: 2.0,2.0;" x1="93" x2="449" y1="340.2832" y2="340.2832"/><text fill="#000000" font-family="sans-serif" font-size="13" font-weight="bold" lengthAdjust="spacingAndGlyphs" textLength="9" x="105" y="335.541">8</text><text fill="#000000" font-family="sans-serif" font-size="13" lengthAdjust="spacingAndGlyphs" textLength="167" x="118" y="335.541">informs operation success</text><!--MD5=[77e0123e2fc35b8051d65054458c390b]
@startuml
autonumber
actor "Organization Employee" as OE

activate OE
OE -> ":System" : asks to create a new task
activate ":System"
":System" - -> OE : shows task categories list and ask to select one
deactivate ":System"

OE -> ":System" : selects a task category
activate ":System"
":System" - -> OE : requests data (reference, designation,  informal \n description, technical description, duration, cost)
deactivate ":System"

OE -> ":System" : types requested data
activate ":System"
":System" - -> OE : shows all data and requests confirmation
deactivate ":System"

OE -> ":System" : confirms the data
activate ":System"
":System" - -> OE : informs operation success
deactivate ":System"

deactivate OE

@enduml

PlantUML version 1.2020.20(Sat Nov 21 10:02:45 WET 2020)
(GPL source distribution)
Java Runtime: OpenJDK Runtime Environment
JVM: OpenJDK 64-Bit Server VM
Default Encoding: UTF-8
Language: en
Country: PT
--></g></svg>