<?xml version="1.0" encoding="UTF-8" standalone="no"?><svg xmlns="http://www.w3.org/2000/svg" xmlns:xlink="http://www.w3.org/1999/xlink" contentScriptType="application/ecmascript" contentStyleType="text/css" height="248px" preserveAspectRatio="none" style="width:1014px;height:248px;" version="1.1" viewBox="0 0 1014 248" width="1014px" zoomAndPan="magnify"><defs><filter height="300%" id="f1tg0x1wi6u39k" width="300%" x="-1" y="-1"><feGaussianBlur result="blurOut" stdDeviation="2.0"/><feColorMatrix in="blurOut" result="blurOut2" type="matrix" values="0 0 0 0 0 0 0 0 0 0 0 0 0 0 0 0 0 0 .4 0"/><feOffset dx="4.0" dy="4.0" in="blurOut2" result="blurOut3"/><feBlend in="SourceGraphic" in2="blurOut3" mode="normal"/></filter></defs><g><!--MD5=[99b8db98afdc2c8404e39242ef4c1e65]
class Platform--><rect codeLine="6" fill="#FEFECE" filter="url(#f1tg0x1wi6u39k)" height="52.9551" id="Platform" style="stroke: #A80036; stroke-width: 1.5;" width="81" x="7" y="181.5"/><ellipse cx="22.45" cy="197.5" fill="#ADD1B2" rx="11" ry="11" style="stroke: #A80036; stroke-width: 1.0;"/><path d="M24.9231,203.6431 Q24.3421,203.9419 23.7029,204.0913 Q23.0638,204.2407 22.3582,204.2407 Q19.8514,204.2407 18.5315,202.5889 Q17.2117,200.937 17.2117,197.8159 Q17.2117,194.6865 18.5315,193.0347 Q19.8514,191.3828 22.3582,191.3828 Q23.0638,191.3828 23.7112,191.5322 Q24.3587,191.6816 24.9231,191.9805 L24.9231,194.7031 Q24.2923,194.1221 23.6988,193.8523 Q23.1053,193.5825 22.4744,193.5825 Q21.1297,193.5825 20.4449,194.6492 Q19.7601,195.7158 19.7601,197.8159 Q19.7601,199.9077 20.4449,200.9744 Q21.1297,202.041 22.4744,202.041 Q23.1053,202.041 23.6988,201.7712 Q24.2923,201.5015 24.9231,200.9204 Z " fill="#000000"/><text fill="#000000" font-family="sans-serif" font-size="12" lengthAdjust="spacingAndGlyphs" textLength="48" x="36.55" y="202.0352">Platform</text><line style="stroke: #A80036; stroke-width: 1.5;" x1="8" x2="87" y1="213.5" y2="213.5"/><text fill="#000000" font-family="sans-serif" font-size="11" lengthAdjust="spacingAndGlyphs" textLength="69" x="13" y="228.1348">-designation</text><!--MD5=[86c7c362de55a38b660185a1328fe18d]
class Organization--><rect codeLine="10" fill="#FEFECE" filter="url(#f1tg0x1wi6u39k)" height="104.7754" id="Organization" style="stroke: #A80036; stroke-width: 1.5;" width="105" x="252" y="72.5"/><ellipse cx="267" cy="88.5" fill="#ADD1B2" rx="11" ry="11" style="stroke: #A80036; stroke-width: 1.0;"/><path d="M269.4731,94.6431 Q268.8921,94.9419 268.2529,95.0913 Q267.6138,95.2407 266.9082,95.2407 Q264.4014,95.2407 263.0815,93.5889 Q261.7617,91.937 261.7617,88.8159 Q261.7617,85.6865 263.0815,84.0347 Q264.4014,82.3828 266.9082,82.3828 Q267.6138,82.3828 268.2612,82.5322 Q268.9087,82.6816 269.4731,82.9805 L269.4731,85.7031 Q268.8423,85.1221 268.2488,84.8523 Q267.6553,84.5825 267.0244,84.5825 Q265.6797,84.5825 264.9949,85.6492 Q264.3101,86.7158 264.3101,88.8159 Q264.3101,90.9077 264.9949,91.9744 Q265.6797,93.041 267.0244,93.041 Q267.6553,93.041 268.2488,92.7712 Q268.8423,92.5015 269.4731,91.9204 Z " fill="#000000"/><text fill="#000000" font-family="sans-serif" font-size="12" lengthAdjust="spacingAndGlyphs" textLength="73" x="281" y="93.0352">Organization</text><line style="stroke: #A80036; stroke-width: 1.5;" x1="253" x2="356" y1="104.5" y2="104.5"/><text fill="#000000" font-family="sans-serif" font-size="11" lengthAdjust="spacingAndGlyphs" textLength="35" x="258" y="119.1348">-name</text><text fill="#000000" font-family="sans-serif" font-size="11" lengthAdjust="spacingAndGlyphs" textLength="66" x="258" y="132.0898">-VatNumber</text><text fill="#000000" font-family="sans-serif" font-size="11" lengthAdjust="spacingAndGlyphs" textLength="46" x="258" y="145.0449">-website</text><text fill="#000000" font-family="sans-serif" font-size="11" lengthAdjust="spacingAndGlyphs" textLength="83" x="258" y="158">-phoneNumber</text><text fill="#000000" font-family="sans-serif" font-size="11" lengthAdjust="spacingAndGlyphs" textLength="34" x="258" y="170.9551">-email</text><!--MD5=[b34797a66dc35cbf1d65f7e3ca75530e]
class Task--><rect codeLine="18" fill="#FEFECE" filter="url(#f1tg0x1wi6u39k)" height="117.7305" id="Task" style="stroke: #A80036; stroke-width: 1.5;" width="92" x="478" y="66"/><ellipse cx="507.4" cy="82" fill="#ADD1B2" rx="11" ry="11" style="stroke: #A80036; stroke-width: 1.0;"/><path d="M509.8731,88.1431 Q509.2921,88.4419 508.6529,88.5913 Q508.0138,88.7407 507.3082,88.7407 Q504.8014,88.7407 503.4815,87.0889 Q502.1617,85.437 502.1617,82.3159 Q502.1617,79.1865 503.4815,77.5347 Q504.8014,75.8828 507.3082,75.8828 Q508.0138,75.8828 508.6612,76.0322 Q509.3087,76.1816 509.8731,76.4805 L509.8731,79.2031 Q509.2423,78.6221 508.6488,78.3523 Q508.0553,78.0825 507.4244,78.0825 Q506.0797,78.0825 505.3949,79.1492 Q504.7101,80.2158 504.7101,82.3159 Q504.7101,84.4077 505.3949,85.4744 Q506.0797,86.541 507.4244,86.541 Q508.0553,86.541 508.6488,86.2712 Q509.2423,86.0015 509.8731,85.4204 Z " fill="#000000"/><text fill="#000000" font-family="sans-serif" font-size="12" lengthAdjust="spacingAndGlyphs" textLength="28" x="524.6" y="86.5352">Task</text><line style="stroke: #A80036; stroke-width: 1.5;" x1="479" x2="569" y1="98" y2="98"/><text fill="#000000" font-family="sans-serif" font-size="11" lengthAdjust="spacingAndGlyphs" textLength="57" x="484" y="112.6348">-reference</text><text fill="#000000" font-family="sans-serif" font-size="11" lengthAdjust="spacingAndGlyphs" textLength="69" x="484" y="125.5898">-designation</text><text fill="#000000" font-family="sans-serif" font-size="11" lengthAdjust="spacingAndGlyphs" textLength="77" x="484" y="138.5449">-informalDesc</text><text fill="#000000" font-family="sans-serif" font-size="11" lengthAdjust="spacingAndGlyphs" textLength="80" x="484" y="151.5">-technicalDesc</text><text fill="#000000" font-family="sans-serif" font-size="11" lengthAdjust="spacingAndGlyphs" textLength="52" x="484" y="164.4551">-duration</text><text fill="#000000" font-family="sans-serif" font-size="11" lengthAdjust="spacingAndGlyphs" textLength="29" x="484" y="177.4102">-cost</text><!--MD5=[a96594a83e2ecdc78cbf17c2ddf01934]
class Category--><rect codeLine="27" fill="#FEFECE" filter="url(#f1tg0x1wi6u39k)" height="65.9102" id="Category" style="stroke: #A80036; stroke-width: 1.5;" width="83" x="725.5" y="134"/><ellipse cx="740.5" cy="150" fill="#ADD1B2" rx="11" ry="11" style="stroke: #A80036; stroke-width: 1.0;"/><path d="M742.9731,156.1431 Q742.3921,156.4419 741.7529,156.5913 Q741.1138,156.7407 740.4082,156.7407 Q737.9014,156.7407 736.5815,155.0889 Q735.2617,153.437 735.2617,150.3159 Q735.2617,147.1865 736.5815,145.5347 Q737.9014,143.8828 740.4082,143.8828 Q741.1138,143.8828 741.7612,144.0322 Q742.4087,144.1816 742.9731,144.4805 L742.9731,147.2031 Q742.3423,146.6221 741.7488,146.3523 Q741.1553,146.0825 740.5244,146.0825 Q739.1797,146.0825 738.4949,147.1492 Q737.8101,148.2158 737.8101,150.3159 Q737.8101,152.4077 738.4949,153.4744 Q739.1797,154.541 740.5244,154.541 Q741.1553,154.541 741.7488,154.2712 Q742.3423,154.0015 742.9731,153.4204 Z " fill="#000000"/><text fill="#000000" font-family="sans-serif" font-size="12" lengthAdjust="spacingAndGlyphs" textLength="51" x="754.5" y="154.5352">Category</text><line style="stroke: #A80036; stroke-width: 1.5;" x1="726.5" x2="807.5" y1="166" y2="166"/><text fill="#000000" font-family="sans-serif" font-size="11" lengthAdjust="spacingAndGlyphs" textLength="16" x="731.5" y="180.6348">-id</text><text fill="#000000" font-family="sans-serif" font-size="11" lengthAdjust="spacingAndGlyphs" textLength="67" x="731.5" y="193.5898">-description</text><!--MD5=[7421f545a0d8420c5bec41e74b387d9c]
class Employee--><rect codeLine="32" fill="#FEFECE" filter="url(#f1tg0x1wi6u39k)" height="91.8203" id="Employee" style="stroke: #A80036; stroke-width: 1.5;" width="88" x="723" y="7"/><ellipse cx="738" cy="23" fill="#ADD1B2" rx="11" ry="11" style="stroke: #A80036; stroke-width: 1.0;"/><path d="M740.4731,29.1431 Q739.8921,29.4419 739.2529,29.5913 Q738.6138,29.7407 737.9082,29.7407 Q735.4014,29.7407 734.0815,28.0889 Q732.7617,26.437 732.7617,23.3159 Q732.7617,20.1865 734.0815,18.5347 Q735.4014,16.8828 737.9082,16.8828 Q738.6138,16.8828 739.2612,17.0322 Q739.9087,17.1816 740.4731,17.4805 L740.4731,20.2031 Q739.8423,19.6221 739.2488,19.3523 Q738.6553,19.0825 738.0244,19.0825 Q736.6797,19.0825 735.9949,20.1492 Q735.3101,21.2158 735.3101,23.3159 Q735.3101,25.4077 735.9949,26.4744 Q736.6797,27.541 738.0244,27.541 Q738.6553,27.541 739.2488,27.2712 Q739.8423,27.0015 740.4731,26.4204 Z " fill="#000000"/><text fill="#000000" font-family="sans-serif" font-size="12" lengthAdjust="spacingAndGlyphs" textLength="56" x="752" y="27.5352">Employee</text><line style="stroke: #A80036; stroke-width: 1.5;" x1="724" x2="810" y1="39" y2="39"/><text fill="#000000" font-family="sans-serif" font-size="11" lengthAdjust="spacingAndGlyphs" textLength="35" x="729" y="53.6348">-name</text><text fill="#000000" font-family="sans-serif" font-size="11" lengthAdjust="spacingAndGlyphs" textLength="51" x="729" y="66.5898">-function</text><text fill="#000000" font-family="sans-serif" font-size="11" lengthAdjust="spacingAndGlyphs" textLength="40" x="729" y="79.5449">-phone</text><text fill="#000000" font-family="sans-serif" font-size="11" lengthAdjust="spacingAndGlyphs" textLength="34" x="729" y="92.5">-email</text><!--MD5=[3fd616f346a44cd59a91eb10b19e157c]
class User--><rect codeLine="39" fill="#FEFECE" filter="url(#f1tg0x1wi6u39k)" height="78.8652" id="User" style="stroke: #A80036; stroke-width: 1.5;" width="70" x="930" y="13.5"/><ellipse cx="950.4" cy="29.5" fill="#ADD1B2" rx="11" ry="11" style="stroke: #A80036; stroke-width: 1.0;"/><path d="M952.8731,35.6431 Q952.2921,35.9419 951.6529,36.0913 Q951.0138,36.2407 950.3082,36.2407 Q947.8014,36.2407 946.4815,34.5889 Q945.1617,32.937 945.1617,29.8159 Q945.1617,26.6865 946.4815,25.0347 Q947.8014,23.3828 950.3082,23.3828 Q951.0138,23.3828 951.6612,23.5322 Q952.3087,23.6816 952.8731,23.9805 L952.8731,26.7031 Q952.2423,26.1221 951.6488,25.8523 Q951.0553,25.5825 950.4244,25.5825 Q949.0797,25.5825 948.3949,26.6492 Q947.7101,27.7158 947.7101,29.8159 Q947.7101,31.9077 948.3949,32.9744 Q949.0797,34.041 950.4244,34.041 Q951.0553,34.041 951.6488,33.7712 Q952.2423,33.5015 952.8731,32.9204 Z " fill="#000000"/><text fill="#000000" font-family="sans-serif" font-size="12" lengthAdjust="spacingAndGlyphs" textLength="26" x="965.6" y="34.0352">User</text><line style="stroke: #A80036; stroke-width: 1.5;" x1="931" x2="999" y1="45.5" y2="45.5"/><text fill="#000000" font-family="sans-serif" font-size="11" lengthAdjust="spacingAndGlyphs" textLength="35" x="936" y="60.1348">-name</text><text fill="#000000" font-family="sans-serif" font-size="11" lengthAdjust="spacingAndGlyphs" textLength="34" x="936" y="73.0898">-email</text><text fill="#000000" font-family="sans-serif" font-size="11" lengthAdjust="spacingAndGlyphs" textLength="58" x="936" y="86.0449">-password</text><!--MD5=[7640e466c042ba2d6f9c19c816f7f0fc]
link Platform to Organization--><path codeLine="45" d="M88.06,195.12 C132.13,180.78 203.52,157.54 251.93,141.78 " fill="none" id="Platform-Organization" style="stroke: #A80036; stroke-width: 1.0;"/><polygon fill="#000000" points="127.7545,141.1077,118.2439,141.1127,120.0632,146.7019,127.7545,141.1077" style="stroke: #000000; stroke-width: 1.0;"/><text fill="#000000" font-family="sans-serif" font-size="13" lengthAdjust="spacingAndGlyphs" textLength="89" x="132" y="147.5684">has registered</text><text fill="#000000" font-family="sans-serif" font-size="13" lengthAdjust="spacingAndGlyphs" textLength="8" x="95.9973" y="189.0898">1</text><text fill="#000000" font-family="sans-serif" font-size="13" lengthAdjust="spacingAndGlyphs" textLength="6" x="238.1155" y="157.8004">*</text><!--MD5=[703fa85125a481a8c2c7961b0558245b]
link Platform to Category--><path codeLine="46" d="M88.2,209.77 C175.54,213.18 390.84,218.91 570,202 C624.2,196.88 685.9,184.82 725.35,176.29 " fill="none" id="Platform-Category" style="stroke: #A80036; stroke-width: 1.0;"/><polygon fill="#000000" points="396.9931,201.3929,387.8063,198.9327,388.1147,204.8024,396.9931,201.3929" style="stroke: #000000; stroke-width: 1.0;"/><text fill="#000000" font-family="sans-serif" font-size="13" lengthAdjust="spacingAndGlyphs" textLength="46" x="401" y="206.5684">defines</text><text fill="#000000" font-family="sans-serif" font-size="13" lengthAdjust="spacingAndGlyphs" textLength="8" x="95.8828" y="223.9622">1</text><text fill="#000000" font-family="sans-serif" font-size="13" lengthAdjust="spacingAndGlyphs" textLength="6" x="711.3967" y="191.8847">*</text><!--MD5=[5bf6ad6f265206f365d5de493131e3f1]
link Organization to Employee--><path codeLine="47" d="M357.2,95.44 C390.51,78.13 435.41,57.97 478,49 C563.39,31.02 666.18,39.41 722.98,46.58 " fill="none" id="Organization-Employee" style="stroke: #A80036; stroke-width: 1.0;"/><polygon fill="#000000" points="515.456,28.9933,506.1014,27.2778,506.8796,33.1039,515.456,28.9933" style="stroke: #000000; stroke-width: 1.0;"/><text fill="#000000" font-family="sans-serif" font-size="13" lengthAdjust="spacingAndGlyphs" textLength="22" x="519.5" y="34.5684">has</text><text fill="#000000" font-family="sans-serif" font-size="13" lengthAdjust="spacingAndGlyphs" textLength="8" x="365.1734" y="104.9438">1</text><text fill="#000000" font-family="sans-serif" font-size="13" lengthAdjust="spacingAndGlyphs" textLength="22" x="692.8989" y="59.343">1..*</text><!--MD5=[4078351e3988aa35b1504a42837f2ab1]
link Organization to Task--><path codeLine="48" d="M357.04,125 C393.73,125 442.55,125 477.73,125 " fill="none" id="Organization-Task" style="stroke: #A80036; stroke-width: 1.0;"/><polygon fill="#000000" points="403.5,116.6553,394.4549,113.7163,394.4549,119.5942,403.5,116.6553" style="stroke: #000000; stroke-width: 1.0;"/><text fill="#000000" font-family="sans-serif" font-size="13" lengthAdjust="spacingAndGlyphs" textLength="33" x="407.5" y="121.5684">owns</text><text fill="#000000" font-family="sans-serif" font-size="13" lengthAdjust="spacingAndGlyphs" textLength="8" x="364.9909" y="138.6607">1</text><text fill="#000000" font-family="sans-serif" font-size="13" lengthAdjust="spacingAndGlyphs" textLength="6" x="463.8776" y="138.8099">*</text><!--MD5=[72b927552ac827a15e7a5b9d45c09cc3]
link Task to Employee--><path codeLine="49" d="M570.05,111.54 C613.78,98.48 679.7,78.78 722.8,65.91 " fill="none" id="Task-Employee" style="stroke: #A80036; stroke-width: 1.0;"/><polygon fill="#000000" points="616.2908,66.2241,606.783,65.9971,608.4653,71.629,616.2908,66.2241" style="stroke: #000000; stroke-width: 1.0;"/><text fill="#000000" font-family="sans-serif" font-size="13" lengthAdjust="spacingAndGlyphs" textLength="65" x="620.5" y="72.5684">created by</text><text fill="#000000" font-family="sans-serif" font-size="13" lengthAdjust="spacingAndGlyphs" textLength="6" x="577.8673" y="123.2047">*</text><text fill="#000000" font-family="sans-serif" font-size="13" lengthAdjust="spacingAndGlyphs" textLength="8" x="707.1181" y="81.7703">1</text><!--MD5=[22fb9506fac029fc1d2ae00f0eb8d606]
link Employee to User--><path codeLine="50" d="M811.01,53 C846.73,53 896.87,53 929.87,53 " fill="none" id="Employee-User" style="stroke: #A80036; stroke-width: 1.0;"/><polygon fill="#000000" points="851,44.6553,841.9549,41.7163,841.9549,47.5942,851,44.6553" style="stroke: #000000; stroke-width: 1.0;"/><text fill="#000000" font-family="sans-serif" font-size="13" lengthAdjust="spacingAndGlyphs" textLength="44" x="855" y="49.5684">acts as</text><text fill="#000000" font-family="sans-serif" font-size="13" lengthAdjust="spacingAndGlyphs" textLength="24" x="818.8864" y="66.6575">0..1</text><text fill="#000000" font-family="sans-serif" font-size="13" lengthAdjust="spacingAndGlyphs" textLength="8" x="913.7994" y="67.1612">1</text><!--MD5=[85b93ec21fe3232efb6e895d06aa0361]
link Task to Category--><path codeLine="51" d="M570.05,132.85 C614.6,140.61 682.17,152.39 725.19,159.89 " fill="none" id="Task-Category" style="stroke: #A80036; stroke-width: 1.0;"/><polygon fill="#000000" points="609.9257,130.5138,601.5196,126.0654,600.5104,131.856,609.9257,130.5138" style="stroke: #000000; stroke-width: 1.0;"/><text fill="#000000" font-family="sans-serif" font-size="13" lengthAdjust="spacingAndGlyphs" textLength="78" x="614" y="134.5684">classified as</text><text fill="#000000" font-family="sans-serif" font-size="13" lengthAdjust="spacingAndGlyphs" textLength="6" x="577.8673" y="147.911">*</text><text fill="#000000" font-family="sans-serif" font-size="13" lengthAdjust="spacingAndGlyphs" textLength="8" x="709.6027" y="172.5561">1</text><!--MD5=[6bb21a0b520766e2587d9b1b56bf7121]
@startuml
hide methods
left to right direction
skinparam classAttributeIconSize 0


class Platform {
  -designation
}

class Organization {
  -name
  -VatNumber
  -website
  -phoneNumber
  -email
}

class Task {
  -reference
  -designation
  -informalDesc
  -technicalDesc
  -duration
  -cost
}

class Category {
  -id
  -description
}

class Employee {
  -name
  -function
  -phone
  -email
}

class User {
  -name
  -email
  -password
}

Platform "1" - - "*" Organization : has registered >
Platform "1" - - "*" Category : defines >
Organization "1" - - "1..*" Employee : has >
Organization "1" - - "*" Task: owns >
Task "*" - - "1" Employee: created by >
Employee "0..1" - - "1" User: acts as >
Task "*" - - "1" Category: classified as >



@enduml

PlantUML version 1.2020.20(Sat Nov 21 10:02:45 WET 2020)
(GPL source distribution)
Java Runtime: OpenJDK Runtime Environment
JVM: OpenJDK 64-Bit Server VM
Default Encoding: UTF-8
Language: en
Country: PT
--></g></svg>