<?xml version="1.0" encoding="UTF-8" standalone="no"?><svg xmlns="http://www.w3.org/2000/svg" xmlns:xlink="http://www.w3.org/1999/xlink" contentScriptType="application/ecmascript" contentStyleType="text/css" height="437.22px" preserveAspectRatio="none" style="width:2264px;height:437px;" version="1.1" viewBox="0 0 2264 437" width="2264.85px" zoomAndPan="magnify"><defs><filter height="300%" id="f13czzdo7v10ek" width="300%" x="-1" y="-1"><feGaussianBlur result="blurOut" stdDeviation="1.26"/><feColorMatrix in="blurOut" result="blurOut2" type="matrix" values="0 0 0 0 0 0 0 0 0 0 0 0 0 0 0 0 0 0 .4 0"/><feOffset dx="2.52" dy="2.52" in="blurOut2" result="blurOut3"/><feBlend in="SourceGraphic" in2="blurOut3" mode="normal"/></filter></defs><g><!--MD5=[2c2e2644034c00788261e03c85b06837]
cluster Core--><polygon fill="#FFFFFF" filter="url(#f13czzdo7v10ek)" points="10.08,3.78,35.28,3.78,39.69,18.6539,2121.84,18.6539,2121.84,433.125,10.08,433.125,10.08,3.78" style="stroke:#000000;stroke-width:0.9450000000000001;"/><line style="stroke:#000000;stroke-width:0.9450000000000001;" x1="10.08" x2="39.69" y1="18.6539" y2="18.6539"/><text fill="#000000" font-family="sans-serif" font-size="8.82" font-weight="bold" lengthAdjust="spacing" textLength="21.42" x="12.6" y="14.1959">Core</text><!--MD5=[121a8bf1197281ab89ed693fab589f94]
cluster Domain--><polygon fill="#FFFFFF" filter="url(#f13czzdo7v10ek)" points="1151.01,31.5,1187.55,31.5,1191.96,46.3739,2106.72,46.3739,2106.72,418.005,1151.01,418.005,1151.01,31.5" style="stroke:#000000;stroke-width:0.9450000000000001;"/><line style="stroke:#000000;stroke-width:0.9450000000000001;" x1="1151.01" x2="1191.96" y1="46.3739" y2="46.3739"/><text fill="#000000" font-family="sans-serif" font-size="8.82" font-weight="bold" lengthAdjust="spacing" textLength="32.76" x="1153.53" y="41.9159">Domain</text><!--MD5=[15636c1ca4a123c16a2a1a8e90aca7a9]
cluster Model--><polygon fill="#FFFFFF" filter="url(#f13czzdo7v10ek)" points="1629.18,59.22,1660.68,59.22,1665.09,74.0939,2091.6,74.0939,2091.6,402.885,1629.18,402.885,1629.18,59.22" style="stroke:#000000;stroke-width:0.9450000000000001;"/><line style="stroke:#000000;stroke-width:0.9450000000000001;" x1="1629.18" x2="1665.09" y1="74.0939" y2="74.0939"/><text fill="#000000" font-family="sans-serif" font-size="8.82" font-weight="bold" lengthAdjust="spacing" textLength="27.72" x="1631.7" y="69.6359">Model</text><!--MD5=[8dd535d56cd4cf7faf64fdd082ba836e]
cluster Stores--><polygon fill="#FFFFFF" filter="url(#f13czzdo7v10ek)" points="1166.13,59.22,1198.89,59.22,1203.3,74.0939,1614.06,74.0939,1614.06,261.135,1166.13,261.135,1166.13,59.22" style="stroke:#000000;stroke-width:0.9450000000000001;"/><line style="stroke:#000000;stroke-width:0.9450000000000001;" x1="1166.13" x2="1203.3" y1="74.0939" y2="74.0939"/><text fill="#000000" font-family="sans-serif" font-size="8.82" font-weight="bold" lengthAdjust="spacing" textLength="28.98" x="1168.65" y="69.6359">Stores</text><!--MD5=[701152d03fbf85133a1de050cfdbc7fd]
cluster Mappers--><polygon fill="#FFFFFF" filter="url(#f13czzdo7v10ek)" points="712.53,63.63,755.37,63.63,759.78,78.5039,1135.89,78.5039,1135.89,252.63,712.53,252.63,712.53,63.63" style="stroke:#000000;stroke-width:0.9450000000000001;"/><line style="stroke:#000000;stroke-width:0.9450000000000001;" x1="712.53" x2="759.78" y1="78.5039" y2="78.5039"/><text fill="#000000" font-family="sans-serif" font-size="8.82" font-weight="bold" lengthAdjust="spacing" textLength="39.06" x="715.05" y="74.0459">Mappers</text><!--MD5=[7b8bc9ee8bb84b99fb3a3f9477c19238]
cluster DTO--><polygon fill="#FFFFFF" filter="url(#f13czzdo7v10ek)" points="338.94,48.195,360.99,48.195,365.4,63.0689,697.41,63.0689,697.41,268.065,338.94,268.065,338.94,48.195" style="stroke:#000000;stroke-width:0.9450000000000001;"/><line style="stroke:#000000;stroke-width:0.9450000000000001;" x1="338.94" x2="365.4" y1="63.0689" y2="63.0689"/><text fill="#000000" font-family="sans-serif" font-size="8.82" font-weight="bold" lengthAdjust="spacing" textLength="18.27" x="341.46" y="58.6109">DTO</text><!--MD5=[ed1d20ea533a2a0e7df5ba3c35e56ced]
cluster Controllers--><polygon fill="#FFFFFF" filter="url(#f13czzdo7v10ek)" points="25.2,50.715,78.75,50.715,83.16,65.5889,323.82,65.5889,323.82,152.145,25.2,152.145,25.2,50.715" style="stroke:#000000;stroke-width:0.9450000000000001;"/><line style="stroke:#000000;stroke-width:0.9450000000000001;" x1="25.2" x2="83.16" y1="65.5889" y2="65.5889"/><text fill="#000000" font-family="sans-serif" font-size="8.82" font-weight="bold" lengthAdjust="spacing" textLength="49.77" x="27.72" y="61.1309">Controllers</text><!--MD5=[9681dc6e01e10c6b4fe06895ae94f592]
cluster UI--><polygon fill="#FFFFFF" filter="url(#f13czzdo7v10ek)" points="2136.96,47.25,2149.56,47.25,2153.97,62.1239,2254.14,62.1239,2254.14,143.01,2136.96,143.01,2136.96,47.25" style="stroke:#000000;stroke-width:0.9450000000000001;"/><line style="stroke:#000000;stroke-width:0.9450000000000001;" x1="2136.96" x2="2153.97" y1="62.1239" y2="62.1239"/><text fill="#000000" font-family="sans-serif" font-size="8.82" font-weight="bold" lengthAdjust="spacing" textLength="8.82" x="2139.48" y="57.6659">UI</text><!--MD5=[4851e5193cf5e7abdec7b18b3bca50f8]
cluster Console--><polygon fill="#FFFFFF" filter="url(#f13czzdo7v10ek)" points="2152.08,74.97,2192.4,74.97,2196.81,89.8439,2239.02,89.8439,2239.02,127.89,2152.08,127.89,2152.08,74.97" style="stroke:#000000;stroke-width:0.9450000000000001;"/><line style="stroke:#000000;stroke-width:0.9450000000000001;" x1="2152.08" x2="2196.81" y1="89.8439" y2="89.8439"/><text fill="#000000" font-family="sans-serif" font-size="8.82" font-weight="bold" lengthAdjust="spacing" textLength="36.54" x="2154.6" y="85.3859">Console</text><!--MD5=[f00dbe8c0302c6aec2cb26b3c659c8fc]
class Report--><rect codeLine="12" fill="#FEFECE" filter="url(#f13czzdo7v10ek)" height="20.16" id="Report" style="stroke:#A80036;stroke-width:0.9450000000000001;" width="43.47" x="1639.575" y="97.65"/><ellipse cx="1649.025" cy="107.73" fill="#ADD1B2" rx="6.93" ry="6.93" style="stroke:#A80036;stroke-width:0.63;"/><path d="M1650.285,105.525 Q1650.413,105.21 1650.5606,105.0525 Q1650.7083,104.895 1650.8756,104.895 Q1651.1709,104.895 1651.358,105.0722 Q1651.545,105.2494 1651.545,105.6628 L1651.545,106.6472 Q1651.545,107.0606 1651.3678,107.2378 Q1651.1906,107.415 1650.915,107.415 Q1650.6689,107.415 1650.5114,107.3067 Q1650.3539,107.1984 1650.285,106.913 Q1650.2555,106.7161 1650.1472,106.6078 Q1649.9503,106.4011 1649.5959,106.283 Q1649.2416,106.155 1648.8872,106.155 Q1648.4442,106.155 1648.0702,106.3322 Q1647.7059,106.5094 1647.4205,106.9031 Q1647.135,107.2969 1647.135,107.8383 L1647.135,108.4191 Q1647.135,109.0688 1647.6666,109.5019 Q1648.1981,109.935 1649.1431,109.935 Q1649.7042,109.935 1650.098,109.807 Q1650.3244,109.7381 1650.5803,109.5117 Q1650.7477,109.3838 1650.8363,109.3444 Q1650.9248,109.305 1651.0331,109.305 Q1651.2398,109.305 1651.3875,109.4723 Q1651.545,109.6298 1651.545,109.8563 Q1651.545,110.0728 1651.3284,110.3288 Q1651.0134,110.7028 1650.5114,110.9095 Q1649.8519,111.195 1649.0447,111.195 Q1648.0997,111.195 1647.3417,110.8209 Q1646.7314,110.5256 1646.2983,109.8858 Q1645.875,109.2459 1645.875,108.488 L1645.875,107.7989 Q1645.875,107.0114 1646.2491,106.3223 Q1646.633,105.6333 1647.2925,105.2691 Q1647.9619,104.895 1648.71,104.895 Q1649.1628,104.895 1649.5566,105.0525 Q1649.9503,105.21 1650.285,105.525 Z " fill="#000000"/><text fill="#000000" font-family="sans-serif" font-size="7.56" lengthAdjust="spacing" textLength="23.31" x="1657.845" y="110.8234">Report</text><!--MD5=[1934a092c0e7d4da7dc7075b6f4b6b03]
class ClinicalAnalysisLaboratory--><rect codeLine="14" fill="#FEFECE" filter="url(#f13czzdo7v10ek)" height="33.9166" id="ClinicalAnalysisLaboratory" style="stroke:#A80036;stroke-width:0.9450000000000001;" width="111.51" x="1705.095" y="90.72"/><ellipse cx="1714.545" cy="100.8" fill="#ADD1B2" rx="6.93" ry="6.93" style="stroke:#A80036;stroke-width:0.63;"/><path d="M1715.805,98.595 Q1715.933,98.28 1716.0806,98.1225 Q1716.2283,97.965 1716.3956,97.965 Q1716.6909,97.965 1716.878,98.1422 Q1717.065,98.3194 1717.065,98.7328 L1717.065,99.7172 Q1717.065,100.1306 1716.8878,100.3078 Q1716.7106,100.485 1716.435,100.485 Q1716.1889,100.485 1716.0314,100.3767 Q1715.8739,100.2684 1715.805,99.983 Q1715.7755,99.7861 1715.6672,99.6778 Q1715.4703,99.4711 1715.1159,99.353 Q1714.7616,99.225 1714.4072,99.225 Q1713.9642,99.225 1713.5902,99.4022 Q1713.2259,99.5794 1712.9405,99.9731 Q1712.655,100.3669 1712.655,100.9083 L1712.655,101.4891 Q1712.655,102.1388 1713.1866,102.5719 Q1713.7181,103.005 1714.6631,103.005 Q1715.2242,103.005 1715.618,102.877 Q1715.8444,102.8081 1716.1003,102.5817 Q1716.2677,102.4538 1716.3563,102.4144 Q1716.4448,102.375 1716.5531,102.375 Q1716.7598,102.375 1716.9075,102.5423 Q1717.065,102.6998 1717.065,102.9263 Q1717.065,103.1428 1716.8484,103.3988 Q1716.5334,103.7728 1716.0314,103.9795 Q1715.3719,104.265 1714.5647,104.265 Q1713.6197,104.265 1712.8617,103.8909 Q1712.2514,103.5956 1711.8183,102.9558 Q1711.395,102.3159 1711.395,101.558 L1711.395,100.8689 Q1711.395,100.0814 1711.7691,99.3923 Q1712.153,98.7033 1712.8125,98.3391 Q1713.4819,97.965 1714.23,97.965 Q1714.6828,97.965 1715.0766,98.1225 Q1715.4703,98.28 1715.805,98.595 Z " fill="#000000"/><text fill="#000000" font-family="sans-serif" font-size="7.56" lengthAdjust="spacing" textLength="91.35" x="1723.365" y="103.8934">ClinicalAnalysisLaboratory</text><line style="stroke:#A80036;stroke-width:0.9450000000000001;" x1="1705.725" x2="1815.975" y1="110.88" y2="110.88"/><text fill="#000000" font-family="sans-serif" font-size="6.93" lengthAdjust="spacing" textLength="39.06" x="1708.875" y="120.5939">-laboratoryID</text><!--MD5=[0f07739f46effee96e095e9c408da841]
class TestParameter--><rect codeLine="18" fill="#FEFECE" filter="url(#f13czzdo7v10ek)" height="33.9166" id="TestParameter" style="stroke:#A80036;stroke-width:0.9450000000000001;" width="126" x="1838.97" y="90.72"/><ellipse cx="1873.4625" cy="100.8" fill="#ADD1B2" rx="6.93" ry="6.93" style="stroke:#A80036;stroke-width:0.63;"/><path d="M1874.7225,98.595 Q1874.8505,98.28 1874.9981,98.1225 Q1875.1458,97.965 1875.3131,97.965 Q1875.6084,97.965 1875.7955,98.1422 Q1875.9825,98.3194 1875.9825,98.7328 L1875.9825,99.7172 Q1875.9825,100.1306 1875.8053,100.3078 Q1875.6281,100.485 1875.3525,100.485 Q1875.1064,100.485 1874.9489,100.3767 Q1874.7914,100.2684 1874.7225,99.983 Q1874.693,99.7861 1874.5847,99.6778 Q1874.3878,99.4711 1874.0334,99.353 Q1873.6791,99.225 1873.3247,99.225 Q1872.8817,99.225 1872.5077,99.4022 Q1872.1434,99.5794 1871.858,99.9731 Q1871.5725,100.3669 1871.5725,100.9083 L1871.5725,101.4891 Q1871.5725,102.1388 1872.1041,102.5719 Q1872.6356,103.005 1873.5806,103.005 Q1874.1417,103.005 1874.5355,102.877 Q1874.7619,102.8081 1875.0178,102.5817 Q1875.1852,102.4538 1875.2738,102.4144 Q1875.3623,102.375 1875.4706,102.375 Q1875.6773,102.375 1875.825,102.5423 Q1875.9825,102.6998 1875.9825,102.9263 Q1875.9825,103.1428 1875.7659,103.3988 Q1875.4509,103.7728 1874.9489,103.9795 Q1874.2894,104.265 1873.4822,104.265 Q1872.5372,104.265 1871.7792,103.8909 Q1871.1689,103.5956 1870.7358,102.9558 Q1870.3125,102.3159 1870.3125,101.558 L1870.3125,100.8689 Q1870.3125,100.0814 1870.6866,99.3923 Q1871.0705,98.7033 1871.73,98.3391 Q1872.3994,97.965 1873.1475,97.965 Q1873.6003,97.965 1873.9941,98.1225 Q1874.3878,98.28 1874.7225,98.595 Z " fill="#000000"/><text fill="#000000" font-family="sans-serif" font-size="7.56" lengthAdjust="spacing" textLength="51.66" x="1886.3775" y="103.8934">TestParameter</text><line style="stroke:#A80036;stroke-width:0.9450000000000001;" x1="1839.6" x2="1964.34" y1="110.88" y2="110.88"/><text fill="#000000" font-family="sans-serif" font-size="6.93" lengthAdjust="spacing" textLength="118.44" x="1842.75" y="120.5939">+TestParameter(parameter: Parameter)</text><!--MD5=[4e608140b854dae633589343bce77383]
class TestParameterResult--><rect codeLine="21" fill="#FEFECE" filter="url(#f13czzdo7v10ek)" height="51.3499" id="TestParameterResult" style="stroke:#A80036;stroke-width:0.9450000000000001;" width="94.5" x="1987.02" y="81.9"/><ellipse cx="1996.47" cy="91.98" fill="#ADD1B2" rx="6.93" ry="6.93" style="stroke:#A80036;stroke-width:0.63;"/><path d="M1997.73,89.775 Q1997.858,89.46 1998.0056,89.3025 Q1998.1533,89.145 1998.3206,89.145 Q1998.6159,89.145 1998.803,89.3222 Q1998.99,89.4994 1998.99,89.9128 L1998.99,90.8972 Q1998.99,91.3106 1998.8128,91.4878 Q1998.6356,91.665 1998.36,91.665 Q1998.1139,91.665 1997.9564,91.5567 Q1997.7989,91.4484 1997.73,91.163 Q1997.7005,90.9661 1997.5922,90.8578 Q1997.3953,90.6511 1997.0409,90.533 Q1996.6866,90.405 1996.3322,90.405 Q1995.8892,90.405 1995.5152,90.5822 Q1995.1509,90.7594 1994.8655,91.1531 Q1994.58,91.5469 1994.58,92.0883 L1994.58,92.6691 Q1994.58,93.3188 1995.1116,93.7519 Q1995.6431,94.185 1996.5881,94.185 Q1997.1492,94.185 1997.543,94.057 Q1997.7694,93.9881 1998.0253,93.7617 Q1998.1927,93.6338 1998.2813,93.5944 Q1998.3698,93.555 1998.4781,93.555 Q1998.6848,93.555 1998.8325,93.7223 Q1998.99,93.8798 1998.99,94.1063 Q1998.99,94.3228 1998.7734,94.5788 Q1998.4584,94.9528 1997.9564,95.1595 Q1997.2969,95.445 1996.4897,95.445 Q1995.5447,95.445 1994.7867,95.0709 Q1994.1764,94.7756 1993.7433,94.1358 Q1993.32,93.4959 1993.32,92.738 L1993.32,92.0489 Q1993.32,91.2614 1993.6941,90.5723 Q1994.078,89.8833 1994.7375,89.5191 Q1995.4069,89.145 1996.155,89.145 Q1996.6078,89.145 1997.0016,89.3025 Q1997.3953,89.46 1997.73,89.775 Z " fill="#000000"/><text fill="#000000" font-family="sans-serif" font-size="7.56" lengthAdjust="spacing" textLength="74.34" x="2005.29" y="95.0734">TestParameterResult</text><line style="stroke:#A80036;stroke-width:0.9450000000000001;" x1="1987.65" x2="2080.89" y1="102.06" y2="102.06"/><text fill="#000000" font-family="sans-serif" font-size="6.93" lengthAdjust="spacing" textLength="32.76" x="1990.8" y="111.7739">-createdAt</text><text fill="#000000" font-family="sans-serif" font-size="6.93" lengthAdjust="spacing" textLength="18.9" x="1990.8" y="120.4906">-value</text><text fill="#000000" font-family="sans-serif" font-size="6.93" lengthAdjust="spacing" textLength="20.79" x="1990.8" y="129.2072">-metric</text><!--MD5=[aeb3272166074d8737a70b61b1e71682]
class TestType--><rect codeLine="26" fill="#FEFECE" filter="url(#f13czzdo7v10ek)" height="51.3499" id="TestType" style="stroke:#A80036;stroke-width:0.9450000000000001;" width="83.79" x="1639.575" y="195.3"/><ellipse cx="1663.4835" cy="205.38" fill="#ADD1B2" rx="6.93" ry="6.93" style="stroke:#A80036;stroke-width:0.63;"/><path d="M1664.7435,203.175 Q1664.8715,202.86 1665.0191,202.7025 Q1665.1668,202.545 1665.3341,202.545 Q1665.6294,202.545 1665.8165,202.7222 Q1666.0035,202.8994 1666.0035,203.3128 L1666.0035,204.2972 Q1666.0035,204.7106 1665.8263,204.8878 Q1665.6491,205.065 1665.3735,205.065 Q1665.1274,205.065 1664.9699,204.9567 Q1664.8124,204.8484 1664.7435,204.563 Q1664.714,204.3661 1664.6057,204.2578 Q1664.4088,204.0511 1664.0544,203.933 Q1663.7001,203.805 1663.3457,203.805 Q1662.9027,203.805 1662.5287,203.9822 Q1662.1644,204.1594 1661.879,204.5531 Q1661.5935,204.9469 1661.5935,205.4883 L1661.5935,206.0691 Q1661.5935,206.7188 1662.1251,207.1519 Q1662.6566,207.585 1663.6016,207.585 Q1664.1627,207.585 1664.5565,207.457 Q1664.7829,207.3881 1665.0388,207.1617 Q1665.2062,207.0338 1665.2947,206.9944 Q1665.3833,206.955 1665.4916,206.955 Q1665.6983,206.955 1665.846,207.1223 Q1666.0035,207.2798 1666.0035,207.5063 Q1666.0035,207.7228 1665.7869,207.9788 Q1665.4719,208.3528 1664.9699,208.5595 Q1664.3104,208.845 1663.5032,208.845 Q1662.5582,208.845 1661.8002,208.4709 Q1661.1899,208.1756 1660.7568,207.5358 Q1660.3335,206.8959 1660.3335,206.138 L1660.3335,205.4489 Q1660.3335,204.6614 1660.7076,203.9723 Q1661.0915,203.2833 1661.751,202.9191 Q1662.4204,202.545 1663.1685,202.545 Q1663.6213,202.545 1664.0151,202.7025 Q1664.4088,202.86 1664.7435,203.175 Z " fill="#000000"/><text fill="#000000" font-family="sans-serif" font-size="7.56" lengthAdjust="spacing" textLength="31.5" x="1675.5165" y="208.4734">TestType</text><line style="stroke:#A80036;stroke-width:0.9450000000000001;" x1="1640.205" x2="1722.735" y1="215.46" y2="215.46"/><text fill="#000000" font-family="sans-serif" font-size="6.93" lengthAdjust="spacing" textLength="40.95" x="1643.355" y="225.1739">-code : String</text><text fill="#000000" font-family="sans-serif" font-size="6.93" lengthAdjust="spacing" textLength="59.22" x="1643.355" y="233.8906">-description : String</text><text fill="#000000" font-family="sans-serif" font-size="6.93" lengthAdjust="spacing" textLength="76.23" x="1643.355" y="242.6072">-collectingMethod : String</text><!--MD5=[df38be88ccee13e832d6fafd6288a4ca]
class Test--><rect codeLine="32" fill="#FEFECE" filter="url(#f13czzdo7v10ek)" height="77.4998" id="Test" style="stroke:#A80036;stroke-width:0.9450000000000001;" width="85.68" x="1745.73" y="182.385"/><ellipse cx="1778.3325" cy="192.465" fill="#ADD1B2" rx="6.93" ry="6.93" style="stroke:#A80036;stroke-width:0.63;"/><path d="M1779.5925,190.26 Q1779.7205,189.945 1779.8681,189.7875 Q1780.0158,189.63 1780.1831,189.63 Q1780.4784,189.63 1780.6655,189.8072 Q1780.8525,189.9844 1780.8525,190.3978 L1780.8525,191.3822 Q1780.8525,191.7956 1780.6753,191.9728 Q1780.4981,192.15 1780.2225,192.15 Q1779.9764,192.15 1779.8189,192.0417 Q1779.6614,191.9334 1779.5925,191.648 Q1779.563,191.4511 1779.4547,191.3428 Q1779.2578,191.1361 1778.9034,191.018 Q1778.5491,190.89 1778.1947,190.89 Q1777.7517,190.89 1777.3777,191.0672 Q1777.0134,191.2444 1776.728,191.6381 Q1776.4425,192.0319 1776.4425,192.5733 L1776.4425,193.1541 Q1776.4425,193.8038 1776.9741,194.2369 Q1777.5056,194.67 1778.4506,194.67 Q1779.0117,194.67 1779.4055,194.542 Q1779.6319,194.4731 1779.8878,194.2467 Q1780.0552,194.1188 1780.1438,194.0794 Q1780.2323,194.04 1780.3406,194.04 Q1780.5473,194.04 1780.695,194.2073 Q1780.8525,194.3648 1780.8525,194.5913 Q1780.8525,194.8078 1780.6359,195.0638 Q1780.3209,195.4378 1779.8189,195.6445 Q1779.1594,195.93 1778.3522,195.93 Q1777.4072,195.93 1776.6492,195.5559 Q1776.0389,195.2606 1775.6058,194.6208 Q1775.1825,193.9809 1775.1825,193.223 L1775.1825,192.5339 Q1775.1825,191.7464 1775.5566,191.0573 Q1775.9405,190.3683 1776.6,190.0041 Q1777.2694,189.63 1778.0175,189.63 Q1778.4703,189.63 1778.8641,189.7875 Q1779.2578,189.945 1779.5925,190.26 Z " fill="#000000"/><text fill="#000000" font-family="sans-serif" font-size="7.56" lengthAdjust="spacing" textLength="15.12" x="1791.2475" y="195.5584">Test</text><line style="stroke:#A80036;stroke-width:0.9450000000000001;" x1="1746.36" x2="1830.78" y1="202.545" y2="202.545"/><text fill="#000000" font-family="sans-serif" font-size="6.93" lengthAdjust="spacing" textLength="17.64" x="1749.51" y="212.2589">-code</text><text fill="#000000" font-family="sans-serif" font-size="6.93" lengthAdjust="spacing" textLength="30.24" x="1749.51" y="220.9756">-NhsCode</text><text fill="#000000" font-family="sans-serif" font-size="6.93" lengthAdjust="spacing" textLength="72.45" x="1749.51" y="229.6922">-dateOfTestRegistration</text><text fill="#000000" font-family="sans-serif" font-size="6.93" lengthAdjust="spacing" textLength="78.12" x="1749.51" y="238.4089">-dateOfSamplesCollection</text><text fill="#000000" font-family="sans-serif" font-size="6.93" lengthAdjust="spacing" textLength="76.86" x="1749.51" y="247.1255">-dateOfChemicalAnalysis</text><text fill="#000000" font-family="sans-serif" font-size="6.93" lengthAdjust="spacing" textLength="52.92" x="1749.51" y="255.8421">-dateOfDiagnosis</text><!--MD5=[9681492165142af2a4a3a169d90ee8d4]
class Sample--><rect codeLine="41" fill="#FEFECE" filter="url(#f13czzdo7v10ek)" height="33.9166" id="Sample" style="stroke:#A80036;stroke-width:0.9450000000000001;" width="47.25" x="1853.775" y="204.12"/><ellipse cx="1863.225" cy="214.2" fill="#ADD1B2" rx="6.93" ry="6.93" style="stroke:#A80036;stroke-width:0.63;"/><path d="M1864.485,211.995 Q1864.613,211.68 1864.7606,211.5225 Q1864.9083,211.365 1865.0756,211.365 Q1865.3709,211.365 1865.558,211.5422 Q1865.745,211.7194 1865.745,212.1328 L1865.745,213.1172 Q1865.745,213.5306 1865.5678,213.7078 Q1865.3906,213.885 1865.115,213.885 Q1864.8689,213.885 1864.7114,213.7767 Q1864.5539,213.6684 1864.485,213.383 Q1864.4555,213.1861 1864.3472,213.0778 Q1864.1503,212.8711 1863.7959,212.753 Q1863.4416,212.625 1863.0872,212.625 Q1862.6442,212.625 1862.2702,212.8022 Q1861.9059,212.9794 1861.6205,213.3731 Q1861.335,213.7669 1861.335,214.3083 L1861.335,214.8891 Q1861.335,215.5388 1861.8666,215.9719 Q1862.3981,216.405 1863.3431,216.405 Q1863.9042,216.405 1864.298,216.277 Q1864.5244,216.2081 1864.7803,215.9817 Q1864.9477,215.8538 1865.0363,215.8144 Q1865.1248,215.775 1865.2331,215.775 Q1865.4398,215.775 1865.5875,215.9423 Q1865.745,216.0998 1865.745,216.3263 Q1865.745,216.5428 1865.5284,216.7988 Q1865.2134,217.1728 1864.7114,217.3795 Q1864.0519,217.665 1863.2447,217.665 Q1862.2997,217.665 1861.5417,217.2909 Q1860.9314,216.9956 1860.4983,216.3558 Q1860.075,215.7159 1860.075,214.958 L1860.075,214.2689 Q1860.075,213.4814 1860.4491,212.7923 Q1860.833,212.1033 1861.4925,211.7391 Q1862.1619,211.365 1862.91,211.365 Q1863.3628,211.365 1863.7566,211.5225 Q1864.1503,211.68 1864.485,211.995 Z " fill="#000000"/><text fill="#000000" font-family="sans-serif" font-size="7.56" lengthAdjust="spacing" textLength="27.09" x="1872.045" y="217.2934">Sample</text><line style="stroke:#A80036;stroke-width:0.9450000000000001;" x1="1854.405" x2="1900.395" y1="224.28" y2="224.28"/><text fill="#000000" font-family="sans-serif" font-size="6.93" lengthAdjust="spacing" textLength="28.35" x="1857.555" y="233.9939">-barCode</text><!--MD5=[1f6362a5c8f21d8d6a0fce68f3a92a4e]
class Parameter--><rect codeLine="45" fill="#FEFECE" filter="url(#f13czzdo7v10ek)" height="51.3499" id="Parameter" style="stroke:#A80036;stroke-width:0.9450000000000001;" width="56.7" x="1923.39" y="195.3"/><ellipse cx="1932.84" cy="205.38" fill="#ADD1B2" rx="6.93" ry="6.93" style="stroke:#A80036;stroke-width:0.63;"/><path d="M1934.1,203.175 Q1934.228,202.86 1934.3756,202.7025 Q1934.5233,202.545 1934.6906,202.545 Q1934.9859,202.545 1935.173,202.7222 Q1935.36,202.8994 1935.36,203.3128 L1935.36,204.2972 Q1935.36,204.7106 1935.1828,204.8878 Q1935.0056,205.065 1934.73,205.065 Q1934.4839,205.065 1934.3264,204.9567 Q1934.1689,204.8484 1934.1,204.563 Q1934.0705,204.3661 1933.9622,204.2578 Q1933.7653,204.0511 1933.4109,203.933 Q1933.0566,203.805 1932.7022,203.805 Q1932.2592,203.805 1931.8852,203.9822 Q1931.5209,204.1594 1931.2355,204.5531 Q1930.95,204.9469 1930.95,205.4883 L1930.95,206.0691 Q1930.95,206.7188 1931.4816,207.1519 Q1932.0131,207.585 1932.9581,207.585 Q1933.5192,207.585 1933.913,207.457 Q1934.1394,207.3881 1934.3953,207.1617 Q1934.5627,207.0338 1934.6513,206.9944 Q1934.7398,206.955 1934.8481,206.955 Q1935.0548,206.955 1935.2025,207.1223 Q1935.36,207.2798 1935.36,207.5063 Q1935.36,207.7228 1935.1434,207.9788 Q1934.8284,208.3528 1934.3264,208.5595 Q1933.6669,208.845 1932.8597,208.845 Q1931.9147,208.845 1931.1567,208.4709 Q1930.5464,208.1756 1930.1133,207.5358 Q1929.69,206.8959 1929.69,206.138 L1929.69,205.4489 Q1929.69,204.6614 1930.0641,203.9723 Q1930.448,203.2833 1931.1075,202.9191 Q1931.7769,202.545 1932.525,202.545 Q1932.9778,202.545 1933.3716,202.7025 Q1933.7653,202.86 1934.1,203.175 Z " fill="#000000"/><text fill="#000000" font-family="sans-serif" font-size="7.56" lengthAdjust="spacing" textLength="36.54" x="1941.66" y="208.4734">Parameter</text><line style="stroke:#A80036;stroke-width:0.9450000000000001;" x1="1924.02" x2="1979.46" y1="215.46" y2="215.46"/><text fill="#000000" font-family="sans-serif" font-size="6.93" lengthAdjust="spacing" textLength="17.64" x="1927.17" y="225.1739">-code</text><text fill="#000000" font-family="sans-serif" font-size="6.93" lengthAdjust="spacing" textLength="35.28" x="1927.17" y="233.8906">-shortName</text><text fill="#000000" font-family="sans-serif" font-size="6.93" lengthAdjust="spacing" textLength="35.91" x="1927.17" y="242.6072">-description</text><!--MD5=[02e4b9b7573f1156f41e60aa5b4e25a4]
class Company--><rect codeLine="51" fill="#FEFECE" filter="url(#f13czzdo7v10ek)" height="65.1066" id="Company" style="stroke:#A80036;stroke-width:0.9450000000000001;" width="73.08" x="1644.93" y="312.795"/><ellipse cx="1663.1685" cy="322.875" fill="#ADD1B2" rx="6.93" ry="6.93" style="stroke:#A80036;stroke-width:0.63;"/><path d="M1664.4285,320.67 Q1664.5565,320.355 1664.7041,320.1975 Q1664.8518,320.04 1665.0191,320.04 Q1665.3144,320.04 1665.5015,320.2172 Q1665.6885,320.3944 1665.6885,320.8078 L1665.6885,321.7922 Q1665.6885,322.2056 1665.5113,322.3828 Q1665.3341,322.56 1665.0585,322.56 Q1664.8124,322.56 1664.6549,322.4517 Q1664.4974,322.3434 1664.4285,322.058 Q1664.399,321.8611 1664.2907,321.7528 Q1664.0938,321.5461 1663.7394,321.428 Q1663.3851,321.3 1663.0307,321.3 Q1662.5877,321.3 1662.2137,321.4772 Q1661.8494,321.6544 1661.564,322.0481 Q1661.2785,322.4419 1661.2785,322.9833 L1661.2785,323.5641 Q1661.2785,324.2138 1661.8101,324.6469 Q1662.3416,325.08 1663.2866,325.08 Q1663.8477,325.08 1664.2415,324.952 Q1664.4679,324.8831 1664.7238,324.6567 Q1664.8912,324.5288 1664.9798,324.4894 Q1665.0683,324.45 1665.1766,324.45 Q1665.3833,324.45 1665.531,324.6173 Q1665.6885,324.7748 1665.6885,325.0013 Q1665.6885,325.2178 1665.4719,325.4738 Q1665.1569,325.8478 1664.6549,326.0545 Q1663.9954,326.34 1663.1882,326.34 Q1662.2432,326.34 1661.4852,325.9659 Q1660.8749,325.6706 1660.4418,325.0308 Q1660.0185,324.3909 1660.0185,323.633 L1660.0185,322.9439 Q1660.0185,322.1564 1660.3926,321.4673 Q1660.7765,320.7783 1661.436,320.4141 Q1662.1054,320.04 1662.8535,320.04 Q1663.3063,320.04 1663.7001,320.1975 Q1664.0938,320.355 1664.4285,320.67 Z " fill="#000000"/><text fill="#000000" font-family="sans-serif" font-size="7.56" lengthAdjust="spacing" textLength="33.39" x="1673.9415" y="325.9684">Company</text><line style="stroke:#A80036;stroke-width:0.9450000000000001;" x1="1645.56" x2="1717.38" y1="332.955" y2="332.955"/><text fill="#000000" font-family="sans-serif" font-size="6.93" lengthAdjust="spacing" textLength="60.48" x="1648.71" y="342.6689">-designation : String</text><line style="stroke:#A80036;stroke-width:0.9450000000000001;" x1="1645.56" x2="1717.38" y1="346.7116" y2="346.7116"/><text fill="#000000" font-family="sans-serif" font-size="6.93" lengthAdjust="spacing" textLength="63" x="1648.71" y="356.4256">+getTestTypeStore()</text><text fill="#000000" font-family="sans-serif" font-size="6.93" lengthAdjust="spacing" textLength="65.52" x="1648.71" y="365.1422">+getParameterStore()</text><text fill="#000000" font-family="sans-serif" font-size="6.93" lengthAdjust="spacing" textLength="47.88" x="1648.71" y="373.8589">+getTestStore()</text><!--MD5=[36afb6bbd95a8ac778c4537c55a683d5]
class ParameterCategory--><rect codeLine="58" fill="#FEFECE" filter="url(#f13czzdo7v10ek)" height="42.6333" id="ParameterCategory" style="stroke:#A80036;stroke-width:0.9450000000000001;" width="87.57" x="1740.375" y="323.82"/><ellipse cx="1749.825" cy="333.9" fill="#ADD1B2" rx="6.93" ry="6.93" style="stroke:#A80036;stroke-width:0.63;"/><path d="M1751.085,331.695 Q1751.213,331.38 1751.3606,331.2225 Q1751.5083,331.065 1751.6756,331.065 Q1751.9709,331.065 1752.158,331.2422 Q1752.345,331.4194 1752.345,331.8328 L1752.345,332.8172 Q1752.345,333.2306 1752.1678,333.4078 Q1751.9906,333.585 1751.715,333.585 Q1751.4689,333.585 1751.3114,333.4767 Q1751.1539,333.3684 1751.085,333.083 Q1751.0555,332.8861 1750.9472,332.7778 Q1750.7503,332.5711 1750.3959,332.453 Q1750.0416,332.325 1749.6872,332.325 Q1749.2442,332.325 1748.8702,332.5022 Q1748.5059,332.6794 1748.2205,333.0731 Q1747.935,333.4669 1747.935,334.0083 L1747.935,334.5891 Q1747.935,335.2388 1748.4666,335.6719 Q1748.9981,336.105 1749.9431,336.105 Q1750.5042,336.105 1750.898,335.977 Q1751.1244,335.9081 1751.3803,335.6817 Q1751.5477,335.5538 1751.6363,335.5144 Q1751.7248,335.475 1751.8331,335.475 Q1752.0398,335.475 1752.1875,335.6423 Q1752.345,335.7998 1752.345,336.0263 Q1752.345,336.2428 1752.1284,336.4988 Q1751.8134,336.8728 1751.3114,337.0795 Q1750.6519,337.365 1749.8447,337.365 Q1748.8997,337.365 1748.1417,336.9909 Q1747.5314,336.6956 1747.0983,336.0558 Q1746.675,335.4159 1746.675,334.658 L1746.675,333.9689 Q1746.675,333.1814 1747.0491,332.4923 Q1747.433,331.8033 1748.0925,331.4391 Q1748.7619,331.065 1749.51,331.065 Q1749.9628,331.065 1750.3566,331.2225 Q1750.7503,331.38 1751.085,331.695 Z " fill="#000000"/><text fill="#000000" font-family="sans-serif" font-size="7.56" lengthAdjust="spacing" textLength="67.41" x="1758.645" y="336.9934">ParameterCategory</text><line style="stroke:#A80036;stroke-width:0.9450000000000001;" x1="1741.005" x2="1827.315" y1="343.98" y2="343.98"/><text fill="#000000" font-family="sans-serif" font-size="6.93" lengthAdjust="spacing" textLength="17.64" x="1744.155" y="353.6939">-code</text><text fill="#000000" font-family="sans-serif" font-size="6.93" lengthAdjust="spacing" textLength="18.9" x="1744.155" y="362.4106">-name</text><!--MD5=[ed6624c6556d5e7b1bd23032162d20b7]
class Client--><rect codeLine="62" fill="#FEFECE" filter="url(#f13czzdo7v10ek)" height="94.9331" id="Client" style="stroke:#A80036;stroke-width:0.9450000000000001;" width="57.33" x="1849.995" y="297.675"/><ellipse cx="1867.0995" cy="307.755" fill="#ADD1B2" rx="6.93" ry="6.93" style="stroke:#A80036;stroke-width:0.63;"/><path d="M1868.3595,305.55 Q1868.4875,305.235 1868.6351,305.0775 Q1868.7828,304.92 1868.9501,304.92 Q1869.2454,304.92 1869.4325,305.0972 Q1869.6195,305.2744 1869.6195,305.6878 L1869.6195,306.6722 Q1869.6195,307.0856 1869.4423,307.2628 Q1869.2651,307.44 1868.9895,307.44 Q1868.7434,307.44 1868.5859,307.3317 Q1868.4284,307.2234 1868.3595,306.938 Q1868.33,306.7411 1868.2217,306.6328 Q1868.0248,306.4261 1867.6704,306.308 Q1867.3161,306.18 1866.9617,306.18 Q1866.5187,306.18 1866.1447,306.3572 Q1865.7804,306.5344 1865.495,306.9281 Q1865.2095,307.3219 1865.2095,307.8633 L1865.2095,308.4441 Q1865.2095,309.0938 1865.7411,309.5269 Q1866.2726,309.96 1867.2176,309.96 Q1867.7787,309.96 1868.1725,309.832 Q1868.3989,309.7631 1868.6548,309.5367 Q1868.8222,309.4088 1868.9108,309.3694 Q1868.9993,309.33 1869.1076,309.33 Q1869.3143,309.33 1869.462,309.4973 Q1869.6195,309.6548 1869.6195,309.8813 Q1869.6195,310.0978 1869.4029,310.3538 Q1869.0879,310.7278 1868.5859,310.9345 Q1867.9264,311.22 1867.1192,311.22 Q1866.1742,311.22 1865.4162,310.8459 Q1864.8059,310.5506 1864.3728,309.9108 Q1863.9495,309.2709 1863.9495,308.513 L1863.9495,307.8239 Q1863.9495,307.0364 1864.3236,306.3473 Q1864.7075,305.6583 1865.367,305.2941 Q1866.0364,304.92 1866.7845,304.92 Q1867.2373,304.92 1867.6311,305.0775 Q1868.0248,305.235 1868.3595,305.55 Z " fill="#000000"/><text fill="#000000" font-family="sans-serif" font-size="7.56" lengthAdjust="spacing" textLength="20.16" x="1877.6205" y="310.8484">Client</text><line style="stroke:#A80036;stroke-width:0.9450000000000001;" x1="1850.625" x2="1906.695" y1="317.835" y2="317.835"/><text fill="#000000" font-family="sans-serif" font-size="6.93" lengthAdjust="spacing" textLength="18.9" x="1853.775" y="327.5489">-name</text><text fill="#000000" font-family="sans-serif" font-size="6.93" lengthAdjust="spacing" textLength="49.77" x="1853.775" y="336.2656">-citizenCardNum</text><text fill="#000000" font-family="sans-serif" font-size="6.93" lengthAdjust="spacing" textLength="27.09" x="1853.775" y="344.9822">-nhsNum</text><text fill="#000000" font-family="sans-serif" font-size="6.93" lengthAdjust="spacing" textLength="29.61" x="1853.775" y="353.6989">-birthDate</text><text fill="#000000" font-family="sans-serif" font-size="6.93" lengthAdjust="spacing" textLength="13.86" x="1853.775" y="362.4155">-sex</text><text fill="#000000" font-family="sans-serif" font-size="6.93" lengthAdjust="spacing" textLength="30.24" x="1853.775" y="371.1321">-taxIdNum</text><text fill="#000000" font-family="sans-serif" font-size="6.93" lengthAdjust="spacing" textLength="34.65" x="1853.775" y="379.8488">-phoneNum</text><text fill="#000000" font-family="sans-serif" font-size="6.93" lengthAdjust="spacing" textLength="17.64" x="1853.775" y="388.5654">-email</text><!--MD5=[be7802b157a16874d39c59ca0e2b25be]
class ParameterStore--><rect codeLine="77" fill="#FEFECE" filter="url(#f13czzdo7v10ek)" height="42.6333" id="ParameterStore" style="stroke:#A80036;stroke-width:0.9450000000000001;" width="205.38" x="1176.21" y="86.31"/><ellipse cx="1248.8175" cy="96.39" fill="#ADD1B2" rx="6.93" ry="6.93" style="stroke:#A80036;stroke-width:0.63;"/><path d="M1250.0775,94.185 Q1250.2055,93.87 1250.3531,93.7125 Q1250.5008,93.555 1250.6681,93.555 Q1250.9634,93.555 1251.1505,93.7322 Q1251.3375,93.9094 1251.3375,94.3228 L1251.3375,95.3072 Q1251.3375,95.7206 1251.1603,95.8978 Q1250.9831,96.075 1250.7075,96.075 Q1250.4614,96.075 1250.3039,95.9667 Q1250.1464,95.8584 1250.0775,95.573 Q1250.048,95.3761 1249.9397,95.2678 Q1249.7428,95.0611 1249.3884,94.943 Q1249.0341,94.815 1248.6797,94.815 Q1248.2367,94.815 1247.8627,94.9922 Q1247.4984,95.1694 1247.213,95.5631 Q1246.9275,95.9569 1246.9275,96.4983 L1246.9275,97.0791 Q1246.9275,97.7288 1247.4591,98.1619 Q1247.9906,98.595 1248.9356,98.595 Q1249.4967,98.595 1249.8905,98.467 Q1250.1169,98.3981 1250.3728,98.1717 Q1250.5402,98.0438 1250.6288,98.0044 Q1250.7173,97.965 1250.8256,97.965 Q1251.0323,97.965 1251.18,98.1323 Q1251.3375,98.2898 1251.3375,98.5163 Q1251.3375,98.7328 1251.1209,98.9888 Q1250.8059,99.3628 1250.3039,99.5695 Q1249.6444,99.855 1248.8372,99.855 Q1247.8922,99.855 1247.1342,99.4809 Q1246.5239,99.1856 1246.0908,98.5458 Q1245.6675,97.9059 1245.6675,97.148 L1245.6675,96.4589 Q1245.6675,95.6714 1246.0416,94.9823 Q1246.4255,94.2933 1247.085,93.9291 Q1247.7544,93.555 1248.5025,93.555 Q1248.9553,93.555 1249.3491,93.7125 Q1249.7428,93.87 1250.0775,94.185 Z " fill="#000000"/><text fill="#000000" font-family="sans-serif" font-size="7.56" lengthAdjust="spacing" textLength="54.81" x="1261.7325" y="99.4834">ParameterStore</text><line style="stroke:#A80036;stroke-width:0.9450000000000001;" x1="1176.84" x2="1380.96" y1="106.47" y2="106.47"/><text fill="#000000" font-family="sans-serif" font-size="6.93" lengthAdjust="spacing" textLength="197.82" x="1179.99" y="116.1839">+getParamsByCategories(List&lt;String&gt; selectedCategoriesCodes)</text><text fill="#000000" font-family="sans-serif" font-size="6.93" lengthAdjust="spacing" textLength="123.48" x="1179.99" y="124.9006">+getParamsByCategory(String category)</text><!--MD5=[6ba72ddf03822b91e8d41ca71de58ed3]
class TestTypeStore--><rect codeLine="82" fill="#FEFECE" filter="url(#f13czzdo7v10ek)" height="51.3499" id="TestTypeStore" style="stroke:#A80036;stroke-width:0.9450000000000001;" width="200.34" x="1403.64" y="81.9"/><ellipse cx="1476.2475" cy="91.98" fill="#ADD1B2" rx="6.93" ry="6.93" style="stroke:#A80036;stroke-width:0.63;"/><path d="M1477.5075,89.775 Q1477.6355,89.46 1477.7831,89.3025 Q1477.9308,89.145 1478.0981,89.145 Q1478.3934,89.145 1478.5805,89.3222 Q1478.7675,89.4994 1478.7675,89.9128 L1478.7675,90.8972 Q1478.7675,91.3106 1478.5903,91.4878 Q1478.4131,91.665 1478.1375,91.665 Q1477.8914,91.665 1477.7339,91.5567 Q1477.5764,91.4484 1477.5075,91.163 Q1477.478,90.9661 1477.3697,90.8578 Q1477.1728,90.6511 1476.8184,90.533 Q1476.4641,90.405 1476.1097,90.405 Q1475.6667,90.405 1475.2927,90.5822 Q1474.9284,90.7594 1474.643,91.1531 Q1474.3575,91.5469 1474.3575,92.0883 L1474.3575,92.6691 Q1474.3575,93.3188 1474.8891,93.7519 Q1475.4206,94.185 1476.3656,94.185 Q1476.9267,94.185 1477.3205,94.057 Q1477.5469,93.9881 1477.8028,93.7617 Q1477.9702,93.6338 1478.0588,93.5944 Q1478.1473,93.555 1478.2556,93.555 Q1478.4623,93.555 1478.61,93.7223 Q1478.7675,93.8798 1478.7675,94.1063 Q1478.7675,94.3228 1478.5509,94.5788 Q1478.2359,94.9528 1477.7339,95.1595 Q1477.0744,95.445 1476.2672,95.445 Q1475.3222,95.445 1474.5642,95.0709 Q1473.9539,94.7756 1473.5208,94.1358 Q1473.0975,93.4959 1473.0975,92.738 L1473.0975,92.0489 Q1473.0975,91.2614 1473.4716,90.5723 Q1473.8555,89.8833 1474.515,89.5191 Q1475.1844,89.145 1475.9325,89.145 Q1476.3853,89.145 1476.7791,89.3025 Q1477.1728,89.46 1477.5075,89.775 Z " fill="#000000"/><text fill="#000000" font-family="sans-serif" font-size="7.56" lengthAdjust="spacing" textLength="49.77" x="1489.1625" y="95.0734">TestTypeStore</text><line style="stroke:#A80036;stroke-width:0.9450000000000001;" x1="1404.27" x2="1603.35" y1="102.06" y2="102.06"/><text fill="#000000" font-family="sans-serif" font-size="6.93" lengthAdjust="spacing" textLength="50.4" x="1407.42" y="111.7739">+getTestTypes()</text><text fill="#000000" font-family="sans-serif" font-size="6.93" lengthAdjust="spacing" textLength="105.21" x="1407.42" y="120.4906">+getTestTypeByCode(String code)</text><text fill="#000000" font-family="sans-serif" font-size="6.93" lengthAdjust="spacing" textLength="192.78" x="1407.42" y="129.2072">+getCategoriesByTestTypeCode(String selectedTestTypeCode)</text><!--MD5=[55cb992be19579b505cea3c5691093cb]
class ClientStore--><rect codeLine="88" fill="#FEFECE" filter="url(#f13czzdo7v10ek)" height="33.9166" id="ClientStore" style="stroke:#A80036;stroke-width:0.9450000000000001;" width="112.77" x="1222.515" y="204.12"/><ellipse cx="1257.0075" cy="214.2" fill="#ADD1B2" rx="6.93" ry="6.93" style="stroke:#A80036;stroke-width:0.63;"/><path d="M1258.2675,211.995 Q1258.3955,211.68 1258.5431,211.5225 Q1258.6908,211.365 1258.8581,211.365 Q1259.1534,211.365 1259.3405,211.5422 Q1259.5275,211.7194 1259.5275,212.1328 L1259.5275,213.1172 Q1259.5275,213.5306 1259.3503,213.7078 Q1259.1731,213.885 1258.8975,213.885 Q1258.6514,213.885 1258.4939,213.7767 Q1258.3364,213.6684 1258.2675,213.383 Q1258.238,213.1861 1258.1297,213.0778 Q1257.9328,212.8711 1257.5784,212.753 Q1257.2241,212.625 1256.8697,212.625 Q1256.4267,212.625 1256.0527,212.8022 Q1255.6884,212.9794 1255.403,213.3731 Q1255.1175,213.7669 1255.1175,214.3083 L1255.1175,214.8891 Q1255.1175,215.5388 1255.6491,215.9719 Q1256.1806,216.405 1257.1256,216.405 Q1257.6867,216.405 1258.0805,216.277 Q1258.3069,216.2081 1258.5628,215.9817 Q1258.7302,215.8538 1258.8188,215.8144 Q1258.9073,215.775 1259.0156,215.775 Q1259.2223,215.775 1259.37,215.9423 Q1259.5275,216.0998 1259.5275,216.3263 Q1259.5275,216.5428 1259.3109,216.7988 Q1258.9959,217.1728 1258.4939,217.3795 Q1257.8344,217.665 1257.0272,217.665 Q1256.0822,217.665 1255.3242,217.2909 Q1254.7139,216.9956 1254.2808,216.3558 Q1253.8575,215.7159 1253.8575,214.958 L1253.8575,214.2689 Q1253.8575,213.4814 1254.2316,212.7923 Q1254.6155,212.1033 1255.275,211.7391 Q1255.9444,211.365 1256.6925,211.365 Q1257.1453,211.365 1257.5391,211.5225 Q1257.9328,211.68 1258.2675,211.995 Z " fill="#000000"/><text fill="#000000" font-family="sans-serif" font-size="7.56" lengthAdjust="spacing" textLength="38.43" x="1269.9225" y="217.2934">ClientStore</text><line style="stroke:#A80036;stroke-width:0.9450000000000001;" x1="1223.145" x2="1334.655" y1="224.28" y2="224.28"/><text fill="#000000" font-family="sans-serif" font-size="6.93" lengthAdjust="spacing" textLength="105.21" x="1226.295" y="233.9939">+getClientByTinNumber(tinNumber)</text><!--MD5=[0f6f7964b844a64b0496af0dda7914bd]
class TestStore--><rect codeLine="93" fill="#FEFECE" filter="url(#f13czzdo7v10ek)" height="60.0666" id="TestStore" style="stroke:#A80036;stroke-width:0.9450000000000001;" width="208.53" x="1357.335" y="191.205"/><ellipse cx="1442.2275" cy="201.285" fill="#ADD1B2" rx="6.93" ry="6.93" style="stroke:#A80036;stroke-width:0.63;"/><path d="M1443.4875,199.08 Q1443.6155,198.765 1443.7631,198.6075 Q1443.9108,198.45 1444.0781,198.45 Q1444.3734,198.45 1444.5605,198.6272 Q1444.7475,198.8044 1444.7475,199.2178 L1444.7475,200.2022 Q1444.7475,200.6156 1444.5703,200.7928 Q1444.3931,200.97 1444.1175,200.97 Q1443.8714,200.97 1443.7139,200.8617 Q1443.5564,200.7534 1443.4875,200.468 Q1443.458,200.2711 1443.3497,200.1628 Q1443.1528,199.9561 1442.7984,199.838 Q1442.4441,199.71 1442.0897,199.71 Q1441.6467,199.71 1441.2727,199.8872 Q1440.9084,200.0644 1440.623,200.4581 Q1440.3375,200.8519 1440.3375,201.3933 L1440.3375,201.9741 Q1440.3375,202.6238 1440.8691,203.0569 Q1441.4006,203.49 1442.3456,203.49 Q1442.9067,203.49 1443.3005,203.362 Q1443.5269,203.2931 1443.7828,203.0667 Q1443.9502,202.9388 1444.0388,202.8994 Q1444.1273,202.86 1444.2356,202.86 Q1444.4423,202.86 1444.59,203.0273 Q1444.7475,203.1848 1444.7475,203.4113 Q1444.7475,203.6278 1444.5309,203.8838 Q1444.2159,204.2578 1443.7139,204.4645 Q1443.0544,204.75 1442.2472,204.75 Q1441.3022,204.75 1440.5442,204.3759 Q1439.9339,204.0806 1439.5008,203.4408 Q1439.0775,202.8009 1439.0775,202.043 L1439.0775,201.3539 Q1439.0775,200.5664 1439.4516,199.8773 Q1439.8355,199.1883 1440.495,198.8241 Q1441.1644,198.45 1441.9125,198.45 Q1442.3653,198.45 1442.7591,198.6075 Q1443.1528,198.765 1443.4875,199.08 Z " fill="#000000"/><text fill="#000000" font-family="sans-serif" font-size="7.56" lengthAdjust="spacing" textLength="33.39" x="1455.1425" y="204.3784">TestStore</text><line style="stroke:#A80036;stroke-width:0.9450000000000001;" x1="1357.965" x2="1565.235" y1="211.365" y2="211.365"/><text fill="#000000" font-family="sans-serif" font-size="6.93" lengthAdjust="spacing" textLength="160.65" x="1361.115" y="221.0789">+createTest(String NHScode, Client associatedClient,</text><text fill="#000000" font-family="sans-serif" font-size="6.93" lengthAdjust="spacing" textLength="199.08" x="1363.005" y="229.7956">TestType selectedTestType, List&lt;Parameter&gt;selectedParamsList)</text><text fill="#000000" font-family="sans-serif" font-size="6.93" lengthAdjust="spacing" textLength="56.7" x="1361.115" y="238.5122">+validateTest(test)</text><text fill="#000000" font-family="sans-serif" font-size="6.93" lengthAdjust="spacing" textLength="48.51" x="1361.115" y="247.2289">+saveTest(test)</text><!--MD5=[724ead17d3ca940995455a91cefd1e12]
class TestTypeMapper--><rect codeLine="106" fill="#FEFECE" filter="url(#f13czzdo7v10ek)" height="42.6333" id="TestTypeMapper" style="stroke:#A80036;stroke-width:0.9450000000000001;" width="175.77" x="722.925" y="86.31"/><ellipse cx="779.4675" cy="96.39" fill="#ADD1B2" rx="6.93" ry="6.93" style="stroke:#A80036;stroke-width:0.63;"/><path d="M780.7275,94.185 Q780.8555,93.87 781.0031,93.7125 Q781.1508,93.555 781.3181,93.555 Q781.6134,93.555 781.8005,93.7322 Q781.9875,93.9094 781.9875,94.3228 L781.9875,95.3072 Q781.9875,95.7206 781.8103,95.8978 Q781.6331,96.075 781.3575,96.075 Q781.1114,96.075 780.9539,95.9667 Q780.7964,95.8584 780.7275,95.573 Q780.698,95.3761 780.5897,95.2678 Q780.3928,95.0611 780.0384,94.943 Q779.6841,94.815 779.3297,94.815 Q778.8867,94.815 778.5127,94.9922 Q778.1484,95.1694 777.863,95.5631 Q777.5775,95.9569 777.5775,96.4983 L777.5775,97.0791 Q777.5775,97.7288 778.1091,98.1619 Q778.6406,98.595 779.5856,98.595 Q780.1467,98.595 780.5405,98.467 Q780.7669,98.3981 781.0228,98.1717 Q781.1902,98.0438 781.2788,98.0044 Q781.3673,97.965 781.4756,97.965 Q781.6823,97.965 781.83,98.1323 Q781.9875,98.2898 781.9875,98.5163 Q781.9875,98.7328 781.7709,98.9888 Q781.4559,99.3628 780.9539,99.5695 Q780.2944,99.855 779.4872,99.855 Q778.5422,99.855 777.7842,99.4809 Q777.1739,99.1856 776.7408,98.5458 Q776.3175,97.9059 776.3175,97.148 L776.3175,96.4589 Q776.3175,95.6714 776.6916,94.9823 Q777.0755,94.2933 777.735,93.9291 Q778.4044,93.555 779.1525,93.555 Q779.6053,93.555 779.9991,93.7125 Q780.3928,93.87 780.7275,94.185 Z " fill="#000000"/><text fill="#000000" font-family="sans-serif" font-size="7.56" lengthAdjust="spacing" textLength="57.33" x="792.3825" y="99.4834">TestTypeMapper</text><line style="stroke:#A80036;stroke-width:0.9450000000000001;" x1="723.555" x2="898.065" y1="106.47" y2="106.47"/><text fill="#000000" font-family="sans-serif" font-size="6.93" lengthAdjust="spacing" textLength="168.21" x="726.705" y="116.1839">+List&lt;TestTypeDTO&gt; toDTO(List&lt;TestType&gt; testTypes)</text><text fill="#000000" font-family="sans-serif" font-size="6.93" lengthAdjust="spacing" textLength="105.21" x="726.705" y="124.9006">+TestTypeDTO toDTO(TestType tt)</text><!--MD5=[867476cd2a5db62f3ac412e45787ce2b]
class CategoryMapper--><rect codeLine="110" fill="#FEFECE" filter="url(#f13czzdo7v10ek)" height="42.6333" id="CategoryMapper" style="stroke:#A80036;stroke-width:0.9450000000000001;" width="204.75" x="920.745" y="86.31"/><ellipse cx="992.0925" cy="96.39" fill="#ADD1B2" rx="6.93" ry="6.93" style="stroke:#A80036;stroke-width:0.63;"/><path d="M993.3525,94.185 Q993.4805,93.87 993.6281,93.7125 Q993.7758,93.555 993.9431,93.555 Q994.2384,93.555 994.4255,93.7322 Q994.6125,93.9094 994.6125,94.3228 L994.6125,95.3072 Q994.6125,95.7206 994.4353,95.8978 Q994.2581,96.075 993.9825,96.075 Q993.7364,96.075 993.5789,95.9667 Q993.4214,95.8584 993.3525,95.573 Q993.323,95.3761 993.2147,95.2678 Q993.0178,95.0611 992.6634,94.943 Q992.3091,94.815 991.9547,94.815 Q991.5117,94.815 991.1377,94.9922 Q990.7734,95.1694 990.488,95.5631 Q990.2025,95.9569 990.2025,96.4983 L990.2025,97.0791 Q990.2025,97.7288 990.7341,98.1619 Q991.2656,98.595 992.2106,98.595 Q992.7717,98.595 993.1655,98.467 Q993.3919,98.3981 993.6478,98.1717 Q993.8152,98.0438 993.9038,98.0044 Q993.9923,97.965 994.1006,97.965 Q994.3073,97.965 994.455,98.1323 Q994.6125,98.2898 994.6125,98.5163 Q994.6125,98.7328 994.3959,98.9888 Q994.0809,99.3628 993.5789,99.5695 Q992.9194,99.855 992.1122,99.855 Q991.1672,99.855 990.4092,99.4809 Q989.7989,99.1856 989.3658,98.5458 Q988.9425,97.9059 988.9425,97.148 L988.9425,96.4589 Q988.9425,95.6714 989.3166,94.9823 Q989.7005,94.2933 990.36,93.9291 Q991.0294,93.555 991.7775,93.555 Q992.2303,93.555 992.6241,93.7125 Q993.0178,93.87 993.3525,94.185 Z " fill="#000000"/><text fill="#000000" font-family="sans-serif" font-size="7.56" lengthAdjust="spacing" textLength="56.7" x="1005.0075" y="99.4834">CategoryMapper</text><line style="stroke:#A80036;stroke-width:0.9450000000000001;" x1="921.375" x2="1124.865" y1="106.47" y2="106.47"/><text fill="#000000" font-family="sans-serif" font-size="6.93" lengthAdjust="spacing" textLength="197.19" x="924.525" y="116.1839">+List&lt;CategoryDto&gt; toDTO(List&lt;Category&gt; parameterCategories)</text><text fill="#000000" font-family="sans-serif" font-size="6.93" lengthAdjust="spacing" textLength="124.11" x="924.525" y="124.9006">+CategoryDto toDTO(Category category)</text><!--MD5=[e0569d1bc34b9d21face98cd33d75fba]
class ParameterMapper--><rect codeLine="114" fill="#FEFECE" filter="url(#f13czzdo7v10ek)" height="42.6333" id="ParameterMapper" style="stroke:#A80036;stroke-width:0.9450000000000001;" width="185.22" x="722.61" y="199.71"/><ellipse cx="781.3575" cy="209.79" fill="#ADD1B2" rx="6.93" ry="6.93" style="stroke:#A80036;stroke-width:0.63;"/><path d="M782.6175,207.585 Q782.7455,207.27 782.8931,207.1125 Q783.0408,206.955 783.2081,206.955 Q783.5034,206.955 783.6905,207.1322 Q783.8775,207.3094 783.8775,207.7228 L783.8775,208.7072 Q783.8775,209.1206 783.7003,209.2978 Q783.5231,209.475 783.2475,209.475 Q783.0014,209.475 782.8439,209.3667 Q782.6864,209.2584 782.6175,208.973 Q782.588,208.7761 782.4797,208.6678 Q782.2828,208.4611 781.9284,208.343 Q781.5741,208.215 781.2197,208.215 Q780.7767,208.215 780.4027,208.3922 Q780.0384,208.5694 779.753,208.9631 Q779.4675,209.3569 779.4675,209.8983 L779.4675,210.4791 Q779.4675,211.1288 779.9991,211.5619 Q780.5306,211.995 781.4756,211.995 Q782.0367,211.995 782.4305,211.867 Q782.6569,211.7981 782.9128,211.5717 Q783.0802,211.4438 783.1688,211.4044 Q783.2573,211.365 783.3656,211.365 Q783.5723,211.365 783.72,211.5323 Q783.8775,211.6898 783.8775,211.9163 Q783.8775,212.1328 783.6609,212.3888 Q783.3459,212.7628 782.8439,212.9695 Q782.1844,213.255 781.3772,213.255 Q780.4322,213.255 779.6742,212.8809 Q779.0639,212.5856 778.6308,211.9458 Q778.2075,211.3059 778.2075,210.548 L778.2075,209.8589 Q778.2075,209.0714 778.5816,208.3823 Q778.9655,207.6933 779.625,207.3291 Q780.2944,206.955 781.0425,206.955 Q781.4953,206.955 781.8891,207.1125 Q782.2828,207.27 782.6175,207.585 Z " fill="#000000"/><text fill="#000000" font-family="sans-serif" font-size="7.56" lengthAdjust="spacing" textLength="62.37" x="794.2725" y="212.8834">ParameterMapper</text><line style="stroke:#A80036;stroke-width:0.9450000000000001;" x1="723.24" x2="907.2" y1="219.87" y2="219.87"/><text fill="#000000" font-family="sans-serif" font-size="6.93" lengthAdjust="spacing" textLength="177.66" x="726.39" y="229.5839">+List&lt;ParameterDTO&gt; toDTO(List&lt;Parameter&gt; parameters)</text><text fill="#000000" font-family="sans-serif" font-size="6.93" lengthAdjust="spacing" textLength="137.34" x="726.39" y="238.3006">+ParameterDTO toDTO(Parameter parameter)</text><!--MD5=[d0024740988d3925690046e9afae9c9c]
class TestTypeDTO--><rect codeLine="122" fill="#FEFECE" filter="url(#f13czzdo7v10ek)" height="73.8232" id="TestTypeDTO" style="stroke:#A80036;stroke-width:0.9450000000000001;" width="226.8" x="349.02" y="70.875"/><ellipse cx="436.1175" cy="80.955" fill="#ADD1B2" rx="6.93" ry="6.93" style="stroke:#A80036;stroke-width:0.63;"/><path d="M437.3775,78.75 Q437.5055,78.435 437.6531,78.2775 Q437.8008,78.12 437.9681,78.12 Q438.2634,78.12 438.4505,78.2972 Q438.6375,78.4744 438.6375,78.8878 L438.6375,79.8722 Q438.6375,80.2856 438.4603,80.4628 Q438.2831,80.64 438.0075,80.64 Q437.7614,80.64 437.6039,80.5317 Q437.4464,80.4234 437.3775,80.138 Q437.348,79.9411 437.2397,79.8328 Q437.0428,79.6261 436.6884,79.508 Q436.3341,79.38 435.9797,79.38 Q435.5367,79.38 435.1627,79.5572 Q434.7984,79.7344 434.513,80.1281 Q434.2275,80.5219 434.2275,81.0633 L434.2275,81.6441 Q434.2275,82.2938 434.7591,82.7269 Q435.2906,83.16 436.2356,83.16 Q436.7967,83.16 437.1905,83.032 Q437.4169,82.9631 437.6728,82.7367 Q437.8402,82.6088 437.9288,82.5694 Q438.0173,82.53 438.1256,82.53 Q438.3323,82.53 438.48,82.6973 Q438.6375,82.8548 438.6375,83.0813 Q438.6375,83.2978 438.4209,83.5538 Q438.1059,83.9278 437.6039,84.1345 Q436.9444,84.42 436.1372,84.42 Q435.1922,84.42 434.4342,84.0459 Q433.8239,83.7506 433.3908,83.1108 Q432.9675,82.4709 432.9675,81.713 L432.9675,81.0239 Q432.9675,80.2364 433.3416,79.5473 Q433.7255,78.8583 434.385,78.4941 Q435.0544,78.12 435.8025,78.12 Q436.2553,78.12 436.6491,78.2775 Q437.0428,78.435 437.3775,78.75 Z " fill="#000000"/><text fill="#000000" font-family="sans-serif" font-size="7.56" lengthAdjust="spacing" textLength="47.25" x="449.0325" y="84.0484">TestTypeDTO</text><line style="stroke:#A80036;stroke-width:0.9450000000000001;" x1="349.65" x2="575.19" y1="91.035" y2="91.035"/><text fill="#000000" font-family="sans-serif" font-size="6.93" lengthAdjust="spacing" textLength="17.64" x="352.8" y="100.7489">-code</text><text fill="#000000" font-family="sans-serif" font-size="6.93" lengthAdjust="spacing" textLength="35.91" x="352.8" y="109.4656">-description</text><text fill="#000000" font-family="sans-serif" font-size="6.93" lengthAdjust="spacing" textLength="52.92" x="352.8" y="118.1822">-collectingMethod</text><text fill="#000000" font-family="sans-serif" font-size="6.93" lengthAdjust="spacing" textLength="108.99" x="352.8" y="126.8989">-List&lt;Category&gt; selectedCategories</text><line style="stroke:#A80036;stroke-width:0.9450000000000001;" x1="349.65" x2="575.19" y1="130.9416" y2="130.9416"/><text fill="#000000" font-family="sans-serif" font-size="6.93" lengthAdjust="spacing" textLength="219.24" x="352.8" y="140.6555">+TestTypeDTO(code, description, collectingMethod, selectedCategories)</text><!--MD5=[6ca282d596ffdf8981b3c7f53e037f13]
class CategoryDto--><rect codeLine="130" fill="#FEFECE" filter="url(#f13czzdo7v10ek)" height="56.3899" id="CategoryDto" style="stroke:#A80036;stroke-width:0.9450000000000001;" width="89.46" x="597.87" y="79.38"/><ellipse cx="619.227" cy="89.46" fill="#ADD1B2" rx="6.93" ry="6.93" style="stroke:#A80036;stroke-width:0.63;"/><path d="M620.487,87.255 Q620.615,86.94 620.7626,86.7825 Q620.9103,86.625 621.0776,86.625 Q621.3729,86.625 621.56,86.8022 Q621.747,86.9794 621.747,87.3928 L621.747,88.3772 Q621.747,88.7906 621.5698,88.9678 Q621.3926,89.145 621.117,89.145 Q620.8709,89.145 620.7134,89.0367 Q620.5559,88.9284 620.487,88.643 Q620.4575,88.4461 620.3492,88.3378 Q620.1523,88.1311 619.7979,88.013 Q619.4436,87.885 619.0892,87.885 Q618.6462,87.885 618.2722,88.0622 Q617.9079,88.2394 617.6225,88.6331 Q617.337,89.0269 617.337,89.5683 L617.337,90.1491 Q617.337,90.7988 617.8686,91.2319 Q618.4001,91.665 619.3451,91.665 Q619.9062,91.665 620.3,91.537 Q620.5264,91.4681 620.7823,91.2417 Q620.9497,91.1138 621.0383,91.0744 Q621.1268,91.035 621.2351,91.035 Q621.4418,91.035 621.5895,91.2023 Q621.747,91.3598 621.747,91.5863 Q621.747,91.8028 621.5304,92.0588 Q621.2154,92.4328 620.7134,92.6395 Q620.0539,92.925 619.2467,92.925 Q618.3017,92.925 617.5437,92.5509 Q616.9334,92.2556 616.5003,91.6158 Q616.077,90.9759 616.077,90.218 L616.077,89.5289 Q616.077,88.7414 616.4511,88.0523 Q616.835,87.3633 617.4945,86.9991 Q618.1639,86.625 618.912,86.625 Q619.3648,86.625 619.7586,86.7825 Q620.1523,86.94 620.487,87.255 Z " fill="#000000"/><text fill="#000000" font-family="sans-serif" font-size="7.56" lengthAdjust="spacing" textLength="42.84" x="630.693" y="92.5534">CategoryDto</text><line style="stroke:#A80036;stroke-width:0.9450000000000001;" x1="598.5" x2="686.7" y1="99.54" y2="99.54"/><text fill="#000000" font-family="sans-serif" font-size="6.93" lengthAdjust="spacing" textLength="17.64" x="601.65" y="109.2539">-code</text><text fill="#000000" font-family="sans-serif" font-size="6.93" lengthAdjust="spacing" textLength="18.9" x="601.65" y="117.9706">-name</text><line style="stroke:#A80036;stroke-width:0.9450000000000001;" x1="598.5" x2="686.7" y1="122.0133" y2="122.0133"/><text fill="#000000" font-family="sans-serif" font-size="6.93" lengthAdjust="spacing" textLength="81.9" x="601.65" y="131.7272">+CategoryDto(code, name)</text><!--MD5=[e82331375a7233007428e4f15d504621]
class ParameterDTO--><rect codeLine="136" fill="#FEFECE" filter="url(#f13czzdo7v10ek)" height="73.8232" id="ParameterDTO" style="stroke:#A80036;stroke-width:0.9450000000000001;" width="211.68" x="356.58" y="184.275"/><ellipse cx="433.5975" cy="194.355" fill="#ADD1B2" rx="6.93" ry="6.93" style="stroke:#A80036;stroke-width:0.63;"/><path d="M434.8575,192.15 Q434.9855,191.835 435.1331,191.6775 Q435.2808,191.52 435.4481,191.52 Q435.7434,191.52 435.9305,191.6972 Q436.1175,191.8744 436.1175,192.2878 L436.1175,193.2722 Q436.1175,193.6856 435.9403,193.8628 Q435.7631,194.04 435.4875,194.04 Q435.2414,194.04 435.0839,193.9317 Q434.9264,193.8234 434.8575,193.538 Q434.828,193.3411 434.7197,193.2328 Q434.5228,193.0261 434.1684,192.908 Q433.8141,192.78 433.4597,192.78 Q433.0167,192.78 432.6427,192.9572 Q432.2784,193.1344 431.993,193.5281 Q431.7075,193.9219 431.7075,194.4633 L431.7075,195.0441 Q431.7075,195.6938 432.2391,196.1269 Q432.7706,196.56 433.7156,196.56 Q434.2767,196.56 434.6705,196.432 Q434.8969,196.3631 435.1528,196.1367 Q435.3202,196.0088 435.4088,195.9694 Q435.4973,195.93 435.6056,195.93 Q435.8123,195.93 435.96,196.0973 Q436.1175,196.2548 436.1175,196.4813 Q436.1175,196.6978 435.9009,196.9538 Q435.5859,197.3278 435.0839,197.5345 Q434.4244,197.82 433.6172,197.82 Q432.6722,197.82 431.9142,197.4459 Q431.3039,197.1506 430.8708,196.5108 Q430.4475,195.8709 430.4475,195.113 L430.4475,194.4239 Q430.4475,193.6364 430.8216,192.9473 Q431.2055,192.2583 431.865,191.8941 Q432.5344,191.52 433.2825,191.52 Q433.7353,191.52 434.1291,191.6775 Q434.5228,191.835 434.8575,192.15 Z " fill="#000000"/><text fill="#000000" font-family="sans-serif" font-size="7.56" lengthAdjust="spacing" textLength="52.29" x="446.5125" y="197.4484">ParameterDTO</text><line style="stroke:#A80036;stroke-width:0.9450000000000001;" x1="357.21" x2="567.63" y1="204.435" y2="204.435"/><text fill="#000000" font-family="sans-serif" font-size="6.93" lengthAdjust="spacing" textLength="17.64" x="360.36" y="214.1489">-code</text><text fill="#000000" font-family="sans-serif" font-size="6.93" lengthAdjust="spacing" textLength="35.28" x="360.36" y="222.8656">-shortName</text><text fill="#000000" font-family="sans-serif" font-size="6.93" lengthAdjust="spacing" textLength="35.91" x="360.36" y="231.5822">-description</text><text fill="#000000" font-family="sans-serif" font-size="6.93" lengthAdjust="spacing" textLength="61.11" x="360.36" y="240.2989">-ParameterCategory</text><line style="stroke:#A80036;stroke-width:0.9450000000000001;" x1="357.21" x2="567.63" y1="244.3416" y2="244.3416"/><text fill="#000000" font-family="sans-serif" font-size="6.93" lengthAdjust="spacing" textLength="204.12" x="360.36" y="254.0555">+ParameterDTO(code, shortName, description, ParameterCategory)</text><!--MD5=[9d781343e96e75b44552b4e167cedac1]
class CreateTestControler--><rect codeLine="147" fill="#FEFECE" filter="url(#f13czzdo7v10ek)" height="68.7832" id="CreateTestControler" style="stroke:#A80036;stroke-width:0.9450000000000001;" width="278.46" x="35.28" y="73.395"/><ellipse cx="136.5525" cy="83.475" fill="#ADD1B2" rx="6.93" ry="6.93" style="stroke:#A80036;stroke-width:0.63;"/><path d="M137.8125,81.27 Q137.9405,80.955 138.0881,80.7975 Q138.2358,80.64 138.4031,80.64 Q138.6984,80.64 138.8855,80.8172 Q139.0725,80.9944 139.0725,81.4078 L139.0725,82.3922 Q139.0725,82.8056 138.8953,82.9828 Q138.7181,83.16 138.4425,83.16 Q138.1964,83.16 138.0389,83.0517 Q137.8814,82.9434 137.8125,82.658 Q137.783,82.4611 137.6747,82.3528 Q137.4778,82.1461 137.1234,82.028 Q136.7691,81.9 136.4147,81.9 Q135.9717,81.9 135.5977,82.0772 Q135.2334,82.2544 134.948,82.6481 Q134.6625,83.0419 134.6625,83.5833 L134.6625,84.1641 Q134.6625,84.8138 135.1941,85.2469 Q135.7256,85.68 136.6706,85.68 Q137.2317,85.68 137.6255,85.552 Q137.8519,85.4831 138.1078,85.2567 Q138.2752,85.1288 138.3638,85.0894 Q138.4523,85.05 138.5606,85.05 Q138.7673,85.05 138.915,85.2173 Q139.0725,85.3748 139.0725,85.6013 Q139.0725,85.8178 138.8559,86.0738 Q138.5409,86.4478 138.0389,86.6545 Q137.3794,86.94 136.5722,86.94 Q135.6272,86.94 134.8692,86.5659 Q134.2589,86.2706 133.8258,85.6308 Q133.4025,84.9909 133.4025,84.233 L133.4025,83.5439 Q133.4025,82.7564 133.7766,82.0673 Q134.1605,81.3783 134.82,81.0141 Q135.4894,80.64 136.2375,80.64 Q136.6903,80.64 137.0841,80.7975 Q137.4778,80.955 137.8125,81.27 Z " fill="#000000"/><text fill="#000000" font-family="sans-serif" font-size="7.56" lengthAdjust="spacing" textLength="70.56" x="149.4675" y="86.5684">CreateTestControler</text><line style="stroke:#A80036;stroke-width:0.9450000000000001;" x1="35.91" x2="313.11" y1="93.555" y2="93.555"/><text fill="#000000" font-family="sans-serif" font-size="6.93" lengthAdjust="spacing" textLength="270.9" x="39.06" y="103.2689">+createTest(NHScode, citizenCardNumber,selectedTestTypeCode, selectedParamCodes)</text><text fill="#000000" font-family="sans-serif" font-size="6.93" lengthAdjust="spacing" textLength="48.51" x="39.06" y="111.9856">+saveTest(test)</text><text fill="#000000" font-family="sans-serif" font-size="6.93" lengthAdjust="spacing" textLength="97.65" x="39.06" y="120.7022">+getTestTypes() : TestTypeDTO</text><text fill="#000000" font-family="sans-serif" font-size="6.93" lengthAdjust="spacing" textLength="217.35" x="39.06" y="129.4189">+getCategoriesListOfTestType(selectedTestTypeCode): CategoriesDTO</text><text fill="#000000" font-family="sans-serif" font-size="6.93" lengthAdjust="spacing" textLength="223.02" x="39.06" y="138.1355">+getParametersOfCategories(selectedCategoriesCodes): ParametersDTO</text><!--MD5=[92f70f89e9f3cc4b172fe964212d1829]
class CreateTestUI--><rect codeLine="163" fill="#FEFECE" filter="url(#f13czzdo7v10ek)" height="20.16" id="CreateTestUI" style="stroke:#A80036;stroke-width:0.9450000000000001;" width="66.15" x="2162.475" y="97.65"/><ellipse cx="2171.925" cy="107.73" fill="#ADD1B2" rx="6.93" ry="6.93" style="stroke:#A80036;stroke-width:0.63;"/><path d="M2173.185,105.525 Q2173.313,105.21 2173.4606,105.0525 Q2173.6083,104.895 2173.7756,104.895 Q2174.0709,104.895 2174.258,105.0722 Q2174.445,105.2494 2174.445,105.6628 L2174.445,106.6472 Q2174.445,107.0606 2174.2678,107.2378 Q2174.0906,107.415 2173.815,107.415 Q2173.5689,107.415 2173.4114,107.3067 Q2173.2539,107.1984 2173.185,106.913 Q2173.1555,106.7161 2173.0472,106.6078 Q2172.8503,106.4011 2172.4959,106.283 Q2172.1416,106.155 2171.7872,106.155 Q2171.3442,106.155 2170.9702,106.3322 Q2170.6059,106.5094 2170.3205,106.9031 Q2170.035,107.2969 2170.035,107.8383 L2170.035,108.4191 Q2170.035,109.0688 2170.5666,109.5019 Q2171.0981,109.935 2172.0431,109.935 Q2172.6042,109.935 2172.998,109.807 Q2173.2244,109.7381 2173.4803,109.5117 Q2173.6477,109.3838 2173.7363,109.3444 Q2173.8248,109.305 2173.9331,109.305 Q2174.1398,109.305 2174.2875,109.4723 Q2174.445,109.6298 2174.445,109.8563 Q2174.445,110.0728 2174.2284,110.3288 Q2173.9134,110.7028 2173.4114,110.9095 Q2172.7519,111.195 2171.9447,111.195 Q2170.9997,111.195 2170.2417,110.8209 Q2169.6314,110.5256 2169.1983,109.8858 Q2168.775,109.2459 2168.775,108.488 L2168.775,107.7989 Q2168.775,107.0114 2169.1491,106.3223 Q2169.533,105.6333 2170.1925,105.2691 Q2170.8619,104.895 2171.61,104.895 Q2172.0628,104.895 2172.4566,105.0525 Q2172.8503,105.21 2173.185,105.525 Z " fill="#000000"/><text fill="#000000" font-family="sans-serif" font-size="7.56" lengthAdjust="spacing" textLength="45.99" x="2180.745" y="110.8234">CreateTestUI</text><!--MD5=[4007425ef697f83e377cf6a8ce1855d1]
link Report to ClinicalAnalysisLaboratory--><!--MD5=[4cbb290620ca25e176ad130628dd2cab]
link ClinicalAnalysisLaboratory to TestParameter--><!--MD5=[0e00e25ac6b8c14659aaff2cf7e5df08]
link TestParameter to TestParameterResult--><!--MD5=[6c402b9f678d8113fc38ff12e871644e]
link Report to TestType--><!--MD5=[c2c6b28b052a3fe86d789b83a09b2815]
link TestType to Test--><!--MD5=[b72ac8ab7fb5921fceb5036a3902baea]
link Test to Sample--><!--MD5=[e976888a8c5f90ac36521172948fc210]
link Sample to Parameter--><!--MD5=[6d9eb9a083ac0654c8b63743033752d3]
link TestType to Company--><!--MD5=[93b4f25fb503a8e0e9a46b1d30ff3f44]
link Company to ParameterCategory--><!--MD5=[534f613a0da7f48154983e5c1b842a4e]
link ParameterCategory to Client--><!--MD5=[e7d314800c46c34ac015cfd8dc8b3f3c]
link ParameterStore to TestTypeStore--><!--MD5=[6ab06b7902811581c46f43fa0455c340]
link ParameterStore to ClientStore--><!--MD5=[88843d74b8637ddbd4f94fc1f534b2f4]
link ClientStore to TestStore--><!--MD5=[b66d8905bdb932af825fd12aa35bcd71]
link TestTypeMapper to CategoryMapper--><!--MD5=[18120b27184d0d0d24f709cc9c2b0b3b]
link TestTypeMapper to ParameterMapper--><!--MD5=[d7c8735c8e3d21e32dc6aee19bd7aa0e]
link TestTypeDTO to CategoryDto--><!--MD5=[8e013a5ad8167ec6e9222e5dc781d661]
link TestTypeDTO to ParameterDTO--><!--MD5=[09b6de145b90392ec4a5cccb823aaf73]
@startuml
hide empty methods
hide empty attributes
'left to right direction
skinparam classAttributeIconSize 0

package Core {

package Domain {

package Model {

class Report{}

        class ClinicalAnalysisLaboratory{
        - laboratoryID
        }

        class TestParameter{
            +TestParameter(parameter: Parameter)
        }
        class TestParameterResult{
        - createdAt
        - value
        - metric
        }
        class TestType {
        - code : String
        - description : String
        - collectingMethod : String
        }

        class Test{
            - code
            - NhsCode
            - dateOfTestRegistration
            - dateOfSamplesCollection
            - dateOfChemicalAnalysis
            - dateOfDiagnosis
        }

        class Sample{
            - barCode
        }

        class Parameter {
          -code
          -shortName
          -description
        }

        class Company {
            -designation : String
            +getTestTypeStore()
            +getParameterStore()
            +getTestStore()
        }

        class ParameterCategory{
            -code
            -name
        }
        class Client{
        - name
        - citizenCardNum
        - nhsNum
        - birthDate
        - sex
        - taxIdNum
        - phoneNum
        - email
        }

}

package Stores {

    class ParameterStore {
    +getParamsByCategories(List<String> selectedCategoriesCodes)
    +getParamsByCategory(String category)
    }

    class TestTypeStore {
       +getTestTypes()
       +getTestTypeByCode(String code)
       +getCategoriesByTestTypeCode(String selectedTestTypeCode)
    }

    class ClientStore {
    +getClientByTinNumber(tinNumber)
    }


    class TestStore {
    +createTest(String NHScode, Client associatedClient,\n TestType selectedTestType, List<Parameter>selectedParamsList)
    +validateTest(test)
    +saveTest(test)
    }


}

}

package Mappers {

class TestTypeMapper {
    +List<TestTypeDTO> toDTO(List<TestType> testTypes)
    +TestTypeDTO toDTO(TestType tt)
}
class CategoryMapper{
    +List<CategoryDto> toDTO(List<Category> parameterCategories)
    +CategoryDto toDTO(Category category)
}
class ParameterMapper {
    +List<ParameterDTO> toDTO(List<Parameter> parameters)
    +ParameterDTO toDTO(Parameter parameter)
}
}

package DTO {

    class TestTypeDTO {
        -code
        -description
        -collectingMethod
        -List<Category> selectedCategories
        +TestTypeDTO(code, description, collectingMethod, selectedCategories)
    }

    class CategoryDto {
        -code
        -name
        +CategoryDto(code, name)
    }

    class ParameterDTO {
        -code
        -shortName
        -description
        -ParameterCategory
        +ParameterDTO(code, shortName, description, ParameterCategory)
    }
}

package Controllers {

class CreateTestControler{
    +createTest(NHScode, citizenCardNumber,selectedTestTypeCode, selectedParamCodes)
    +saveTest(test)
    +getTestTypes() : TestTypeDTO
    +getCategoriesListOfTestType(selectedTestTypeCode): CategoriesDTO
    +getParametersOfCategories(selectedCategoriesCodes): ParametersDTO
    }

}

}

package UI {

package Console {

 class CreateTestUI{
  }

}

}

@enduml

@startuml
hide empty methods
hide empty attributes
skinparam classAttributeIconSize 0

package Core {

package Domain {

package Model {

class Report{}

        class ClinicalAnalysisLaboratory{
        - laboratoryID
        }

        class TestParameter{
            +TestParameter(parameter: Parameter)
        }
        class TestParameterResult{
        - createdAt
        - value
        - metric
        }
        class TestType {
        - code : String
        - description : String
        - collectingMethod : String
        }

        class Test{
            - code
            - NhsCode
            - dateOfTestRegistration
            - dateOfSamplesCollection
            - dateOfChemicalAnalysis
            - dateOfDiagnosis
        }

        class Sample{
            - barCode
        }

        class Parameter {
          -code
          -shortName
          -description
        }

        class Company {
            -designation : String
            +getTestTypeStore()
            +getParameterStore()
            +getTestStore()
        }

        class ParameterCategory{
            -code
            -name
        }
        class Client{
        - name
        - citizenCardNum
        - nhsNum
        - birthDate
        - sex
        - taxIdNum
        - phoneNum
        - email
        }

}

package Stores {

    class ParameterStore {
    +getParamsByCategories(List<String> selectedCategoriesCodes)
    +getParamsByCategory(String category)
    }

    class TestTypeStore {
       +getTestTypes()
       +getTestTypeByCode(String code)
       +getCategoriesByTestTypeCode(String selectedTestTypeCode)
    }

    class ClientStore {
    +getClientByTinNumber(tinNumber)
    }


    class TestStore {
    +createTest(String NHScode, Client associatedClient,\n TestType selectedTestType, List<Parameter>selectedParamsList)
    +validateTest(test)
    +saveTest(test)
    }


}

}

package Mappers {

class TestTypeMapper {
    +List<TestTypeDTO> toDTO(List<TestType> testTypes)
    +TestTypeDTO toDTO(TestType tt)
}
class CategoryMapper{
    +List<CategoryDto> toDTO(List<Category> parameterCategories)
    +CategoryDto toDTO(Category category)
}
class ParameterMapper {
    +List<ParameterDTO> toDTO(List<Parameter> parameters)
    +ParameterDTO toDTO(Parameter parameter)
}
}

package DTO {

    class TestTypeDTO {
        -code
        -description
        -collectingMethod
        -List<Category> selectedCategories
        +TestTypeDTO(code, description, collectingMethod, selectedCategories)
    }

    class CategoryDto {
        -code
        -name
        +CategoryDto(code, name)
    }

    class ParameterDTO {
        -code
        -shortName
        -description
        -ParameterCategory
        +ParameterDTO(code, shortName, description, ParameterCategory)
    }
}

package Controllers {

class CreateTestControler{
    +createTest(NHScode, citizenCardNumber,selectedTestTypeCode, selectedParamCodes)
    +saveTest(test)
    +getTestTypes() : TestTypeDTO
    +getCategoriesListOfTestType(selectedTestTypeCode): CategoriesDTO
    +getParametersOfCategories(selectedCategoriesCodes): ParametersDTO
    }

}

}

package UI {

package Console {

 class CreateTestUI{
  }

}

}

@enduml

PlantUML version 1.2021.00(Sun Jan 10 10:25:05 GMT 2021)
(GPL source distribution)
Java Runtime: OpenJDK Runtime Environment
JVM: OpenJDK 64-Bit Server VM
Default Encoding: Cp1252
Language: pt
Country: BR
--></g></svg>