<?xml version="1.0" encoding="UTF-8" standalone="no"?><svg xmlns="http://www.w3.org/2000/svg" xmlns:xlink="http://www.w3.org/1999/xlink" contentScriptType="application/ecmascript" contentStyleType="text/css" height="386.88px" preserveAspectRatio="none" style="width:335px;height:386px;" version="1.1" viewBox="0 0 335 386" width="335.42px" zoomAndPan="magnify"><defs><filter height="300%" id="f6wqwbzwipmmp" width="300%" x="-1" y="-1"><feGaussianBlur result="blurOut" stdDeviation="1.24"/><feColorMatrix in="blurOut" result="blurOut2" type="matrix" values="0 0 0 0 0 0 0 0 0 0 0 0 0 0 0 0 0 0 .4 0"/><feOffset dx="2.48" dy="2.48" in="blurOut2" result="blurOut3"/><feBlend in="SourceGraphic" in2="blurOut3" mode="normal"/></filter></defs><g><rect fill="#FFFFFF" filter="url(#f6wqwbzwipmmp)" height="260.9716" style="stroke:#A80036;stroke-width:0.62;" width="6.2" x="35.34" y="61.7578"/><rect fill="#FFFFFF" filter="url(#f6wqwbzwipmmp)" height="18.818" style="stroke:#A80036;stroke-width:0.62;" width="6.2" x="296.36" y="75.6158"/><rect fill="#FFFFFF" filter="url(#f6wqwbzwipmmp)" height="18.818" style="stroke:#A80036;stroke-width:0.62;" width="6.2" x="296.36" y="113.2517"/><rect fill="#FFFFFF" filter="url(#f6wqwbzwipmmp)" height="34.5359" style="stroke:#A80036;stroke-width:0.62;" width="6.2" x="296.36" y="150.8877"/><rect fill="#FFFFFF" filter="url(#f6wqwbzwipmmp)" height="38.8759" style="stroke:#A80036;stroke-width:0.62;" width="6.2" x="296.36" y="204.2416"/><rect fill="#FFFFFF" filter="url(#f6wqwbzwipmmp)" height="23.158" style="stroke:#A80036;stroke-width:0.62;" width="6.2" x="296.36" y="261.9355"/><rect fill="#FFFFFF" filter="url(#f6wqwbzwipmmp)" height="18.818" style="stroke:#A80036;stroke-width:0.62;" width="6.2" x="296.36" y="303.9114"/><rect fill="#FFFFFF" filter="url(#f6wqwbzwipmmp)" height="49.0139" style="stroke:#000000;stroke-width:1.24;" width="320.54" x="6.2" y="160.1877"/><rect fill="#FFFFFF" filter="url(#f6wqwbzwipmmp)" height="49.0139" style="stroke:#000000;stroke-width:1.24;" width="320.54" x="6.2" y="217.8816"/><line style="stroke:#A80036;stroke-width:0.62;stroke-dasharray:5.0,5.0;" x1="38.44" x2="38.44" y1="55.5578" y2="333.8894"/><line style="stroke:#A80036;stroke-width:0.62;stroke-dasharray:5.0,5.0;" x1="299.46" x2="299.46" y1="55.5578" y2="333.8894"/><text fill="#000000" font-family="sans-serif" font-size="8.68" lengthAdjust="spacing" textLength="48.36" x="12.4" y="53.6506">Receptionist</text><ellipse cx="38.44" cy="9.3" fill="#FEFECE" filter="url(#f6wqwbzwipmmp)" rx="4.96" ry="4.96" style="stroke:#A80036;stroke-width:1.24;"/><path d="M38.44,14.26 L38.44,31 M30.38,19.22 L46.5,19.22 M38.44,31 L30.38,40.3 M38.44,31 L46.5,40.3 " fill="none" filter="url(#f6wqwbzwipmmp)" style="stroke:#A80036;stroke-width:1.24;"/><text fill="#000000" font-family="sans-serif" font-size="8.68" lengthAdjust="spacing" textLength="48.36" x="12.4" y="342.28">Receptionist</text><ellipse cx="38.44" cy="350.3872" fill="#FEFECE" filter="url(#f6wqwbzwipmmp)" rx="4.96" ry="4.96" style="stroke:#A80036;stroke-width:1.24;"/><path d="M38.44,355.3472 L38.44,372.0872 M30.38,360.3072 L46.5,360.3072 M38.44,372.0872 L30.38,381.3872 M38.44,372.0872 L46.5,381.3872 " fill="none" filter="url(#f6wqwbzwipmmp)" style="stroke:#A80036;stroke-width:1.24;"/><rect fill="#FEFECE" filter="url(#f6wqwbzwipmmp)" height="19.5978" style="stroke:#A80036;stroke-width:0.9299999999999999;" width="39.68" x="278.38" y="32.86"/><text fill="#000000" font-family="sans-serif" font-size="8.68" lengthAdjust="spacing" textLength="31" x="282.72" y="46.2106">:System</text><rect fill="#FEFECE" filter="url(#f6wqwbzwipmmp)" height="19.5978" style="stroke:#A80036;stroke-width:0.9299999999999999;" width="39.68" x="278.38" y="333.2694"/><text fill="#000000" font-family="sans-serif" font-size="8.68" lengthAdjust="spacing" textLength="31" x="282.72" y="346.62">:System</text><rect fill="#FFFFFF" filter="url(#f6wqwbzwipmmp)" height="260.9716" style="stroke:#A80036;stroke-width:0.62;" width="6.2" x="35.34" y="61.7578"/><rect fill="#FFFFFF" filter="url(#f6wqwbzwipmmp)" height="18.818" style="stroke:#A80036;stroke-width:0.62;" width="6.2" x="296.36" y="75.6158"/><rect fill="#FFFFFF" filter="url(#f6wqwbzwipmmp)" height="18.818" style="stroke:#A80036;stroke-width:0.62;" width="6.2" x="296.36" y="113.2517"/><rect fill="#FFFFFF" filter="url(#f6wqwbzwipmmp)" height="34.5359" style="stroke:#A80036;stroke-width:0.62;" width="6.2" x="296.36" y="150.8877"/><rect fill="#FFFFFF" filter="url(#f6wqwbzwipmmp)" height="38.8759" style="stroke:#A80036;stroke-width:0.62;" width="6.2" x="296.36" y="204.2416"/><rect fill="#FFFFFF" filter="url(#f6wqwbzwipmmp)" height="23.158" style="stroke:#A80036;stroke-width:0.62;" width="6.2" x="296.36" y="261.9355"/><rect fill="#FFFFFF" filter="url(#f6wqwbzwipmmp)" height="18.818" style="stroke:#A80036;stroke-width:0.62;" width="6.2" x="296.36" y="303.9114"/><polygon fill="#A80036" points="288.92,73.1358,295.12,75.6158,288.92,78.0958,291.4,75.6158" style="stroke:#A80036;stroke-width:0.62;"/><line style="stroke:#A80036;stroke-width:0.62;" x1="41.54" x2="292.64" y1="75.6158" y2="75.6158"/><text fill="#000000" font-family="sans-serif" font-size="8.06" font-weight="bold" lengthAdjust="spacing" textLength="4.34" x="45.88" y="72.6048">1</text><text fill="#000000" font-family="sans-serif" font-size="8.06" lengthAdjust="spacing" textLength="212.66" x="52.7" y="72.6048">asks to register a test to be performed to a registered client</text><polygon fill="#A80036" points="48.36,91.9538,42.16,94.4338,48.36,96.9138,45.88,94.4338" style="stroke:#A80036;stroke-width:0.62;"/><line style="stroke:#A80036;stroke-width:0.62;stroke-dasharray:2.0,2.0;" x1="44.64" x2="298.84" y1="94.4338" y2="94.4338"/><text fill="#000000" font-family="sans-serif" font-size="8.06" font-weight="bold" lengthAdjust="spacing" textLength="4.34" x="52.08" y="91.4228">2</text><text fill="#000000" font-family="sans-serif" font-size="8.06" lengthAdjust="spacing" textLength="133.92" x="58.9" y="91.4228">requests data (TINnumber, NHScode)</text><polygon fill="#A80036" points="288.92,110.7717,295.12,113.2517,288.92,115.7317,291.4,113.2517" style="stroke:#A80036;stroke-width:0.62;"/><line style="stroke:#A80036;stroke-width:0.62;" x1="41.54" x2="292.64" y1="113.2517" y2="113.2517"/><text fill="#000000" font-family="sans-serif" font-size="8.06" font-weight="bold" lengthAdjust="spacing" textLength="4.34" x="45.88" y="110.2407">3</text><text fill="#000000" font-family="sans-serif" font-size="8.06" lengthAdjust="spacing" textLength="75.64" x="52.7" y="110.2407">types requested data</text><polygon fill="#A80036" points="48.36,129.5897,42.16,132.0697,48.36,134.5497,45.88,132.0697" style="stroke:#A80036;stroke-width:0.62;"/><line style="stroke:#A80036;stroke-width:0.62;stroke-dasharray:2.0,2.0;" x1="44.64" x2="298.84" y1="132.0697" y2="132.0697"/><text fill="#000000" font-family="sans-serif" font-size="8.06" font-weight="bold" lengthAdjust="spacing" textLength="4.34" x="52.08" y="129.0587">4</text><text fill="#000000" font-family="sans-serif" font-size="8.06" lengthAdjust="spacing" textLength="159.34" x="58.9" y="129.0587">shows test types and requests to select one</text><polygon fill="#A80036" points="288.92,148.4077,295.12,150.8877,288.92,153.3677,291.4,150.8877" style="stroke:#A80036;stroke-width:0.62;"/><line style="stroke:#A80036;stroke-width:0.62;" x1="41.54" x2="292.64" y1="150.8877" y2="150.8877"/><text fill="#000000" font-family="sans-serif" font-size="8.06" font-weight="bold" lengthAdjust="spacing" textLength="4.34" x="45.88" y="147.8767">5</text><text fill="#000000" font-family="sans-serif" font-size="8.06" lengthAdjust="spacing" textLength="60.14" x="52.7" y="147.8767">selects test type</text><path d="M6.2,160.1877 L51.46,160.1877 L51.46,165.1477 L45.26,171.3477 L6.2,171.3477 L6.2,160.1877 " fill="#EEEEEE" style="stroke:#000000;stroke-width:0.62;"/><rect fill="none" height="49.0139" style="stroke:#000000;stroke-width:1.24;" width="320.54" x="6.2" y="160.1877"/><text fill="#000000" font-family="sans-serif" font-size="8.06" font-weight="bold" lengthAdjust="spacing" textLength="17.36" x="15.5" y="169.1746">loop</text><text fill="#000000" font-family="sans-serif" font-size="6.82" font-weight="bold" lengthAdjust="spacing" textLength="98.58" x="60.76" y="168.5074">[while user adds categories]</text><polygon fill="#A80036" points="48.36,182.9436,42.16,185.4236,48.36,187.9036,45.88,185.4236" style="stroke:#A80036;stroke-width:0.62;"/><line style="stroke:#A80036;stroke-width:0.62;stroke-dasharray:2.0,2.0;" x1="44.64" x2="298.84" y1="185.4236" y2="185.4236"/><text fill="#000000" font-family="sans-serif" font-size="8.06" font-weight="bold" lengthAdjust="spacing" textLength="4.34" x="52.08" y="182.4126">6</text><text fill="#000000" font-family="sans-serif" font-size="8.06" lengthAdjust="spacing" textLength="233.12" x="58.9" y="182.4126">shows categories associated with test type request to select one</text><polygon fill="#A80036" points="288.92,201.7616,295.12,204.2416,288.92,206.7216,291.4,204.2416" style="stroke:#A80036;stroke-width:0.62;"/><line style="stroke:#A80036;stroke-width:0.62;" x1="41.54" x2="292.64" y1="204.2416" y2="204.2416"/><text fill="#000000" font-family="sans-serif" font-size="8.06" font-weight="bold" lengthAdjust="spacing" textLength="4.34" x="45.88" y="201.2306">7</text><text fill="#000000" font-family="sans-serif" font-size="8.06" lengthAdjust="spacing" textLength="59.52" x="52.7" y="201.2306">selects category</text><path d="M6.2,217.8816 L51.46,217.8816 L51.46,222.8416 L45.26,229.0416 L6.2,229.0416 L6.2,217.8816 " fill="#EEEEEE" style="stroke:#000000;stroke-width:0.62;"/><rect fill="none" height="49.0139" style="stroke:#000000;stroke-width:1.24;" width="320.54" x="6.2" y="217.8816"/><text fill="#000000" font-family="sans-serif" font-size="8.06" font-weight="bold" lengthAdjust="spacing" textLength="17.36" x="15.5" y="226.8685">loop</text><text fill="#000000" font-family="sans-serif" font-size="6.82" font-weight="bold" lengthAdjust="spacing" textLength="102.3" x="60.76" y="226.2013">[while user adds parameters]</text><polygon fill="#A80036" points="48.36,240.6375,42.16,243.1175,48.36,245.5975,45.88,243.1175" style="stroke:#A80036;stroke-width:0.62;"/><line style="stroke:#A80036;stroke-width:0.62;stroke-dasharray:2.0,2.0;" x1="44.64" x2="298.84" y1="243.1175" y2="243.1175"/><text fill="#000000" font-family="sans-serif" font-size="8.06" font-weight="bold" lengthAdjust="spacing" textLength="4.34" x="52.08" y="240.1065">8</text><text fill="#000000" font-family="sans-serif" font-size="8.06" lengthAdjust="spacing" textLength="190.34" x="58.9" y="240.1065">shows all parameters associated selected categories</text><polygon fill="#A80036" points="288.92,259.4555,295.12,261.9355,288.92,264.4155,291.4,261.9355" style="stroke:#A80036;stroke-width:0.62;"/><line style="stroke:#A80036;stroke-width:0.62;" x1="41.54" x2="292.64" y1="261.9355" y2="261.9355"/><text fill="#000000" font-family="sans-serif" font-size="8.06" font-weight="bold" lengthAdjust="spacing" textLength="4.34" x="45.88" y="258.9245">9</text><text fill="#000000" font-family="sans-serif" font-size="8.06" lengthAdjust="spacing" textLength="64.48" x="52.7" y="258.9245">selects parameter</text><polygon fill="#A80036" points="48.36,282.6134,42.16,285.0934,48.36,287.5734,45.88,285.0934" style="stroke:#A80036;stroke-width:0.62;"/><line style="stroke:#A80036;stroke-width:0.62;stroke-dasharray:2.0,2.0;" x1="44.64" x2="298.84" y1="285.0934" y2="285.0934"/><text fill="#000000" font-family="sans-serif" font-size="8.06" font-weight="bold" lengthAdjust="spacing" textLength="8.68" x="52.08" y="282.0824">10</text><text fill="#000000" font-family="sans-serif" font-size="8.06" lengthAdjust="spacing" textLength="153.76" x="63.24" y="282.0824">shows Test data and requests confirmation</text><polygon fill="#A80036" points="288.92,301.4314,295.12,303.9114,288.92,306.3914,291.4,303.9114" style="stroke:#A80036;stroke-width:0.62;"/><line style="stroke:#A80036;stroke-width:0.62;" x1="41.54" x2="292.64" y1="303.9114" y2="303.9114"/><text fill="#000000" font-family="sans-serif" font-size="8.06" font-weight="bold" lengthAdjust="spacing" textLength="8.68" x="45.88" y="300.9004">11</text><text fill="#000000" font-family="sans-serif" font-size="8.06" lengthAdjust="spacing" textLength="62" x="57.04" y="300.9004">confirms the data</text><polygon fill="#A80036" points="45.26,320.2494,39.06,322.7294,45.26,325.2094,42.78,322.7294" style="stroke:#A80036;stroke-width:0.62;"/><line style="stroke:#A80036;stroke-width:0.62;stroke-dasharray:2.0,2.0;" x1="41.54" x2="298.84" y1="322.7294" y2="322.7294"/><text fill="#000000" font-family="sans-serif" font-size="8.06" font-weight="bold" lengthAdjust="spacing" textLength="8.68" x="48.98" y="319.7184">12</text><text fill="#000000" font-family="sans-serif" font-size="8.06" lengthAdjust="spacing" textLength="94.24" x="60.14" y="319.7184">informs operation success</text><!--MD5=[d70394cb8bfa8d8014499068294972ce]
@startuml

autonumber
actor "Receptionist" as MLT

activate MLT
MLT -> ":System" : asks to register a test to be performed to a registered client
activate ":System"
":System" - -> MLT :requests data (TINnumber, NHScode)
deactivate ":System"

MLT -> ":System" : types requested data
activate ":System"
":System" - -> MLT : shows test types and requests to select one
deactivate ":System"
MLT -> ":System" : selects test type

activate ":System"
loop while user adds categories
":System" - -> MLT : shows categories associated with test type request to select one
deactivate ":System"
MLT -> ":System" : selects category
activate ":System"
end

loop while user adds parameters
":System" - -> MLT : shows all parameters associated selected categories
deactivate ":System"
MLT -> ":System" : selects parameter
activate ":System"
end
":System" - -> MLT : shows Test data and requests confirmation
deactivate ":System"
MLT -> ":System" : confirms the data
activate ":System"
":System" - -> MLT : informs operation success
deactivate ":System"
deactivate MLT

@enduml

PlantUML version 1.2021.00(Sun Jan 10 10:25:05 GMT 2021)
(GPL source distribution)
Java Runtime: OpenJDK Runtime Environment
JVM: OpenJDK 64-Bit Server VM
Default Encoding: Cp1252
Language: pt
Country: BR
--></g></svg>