<?xml version="1.0" encoding="UTF-8" standalone="no"?><svg xmlns="http://www.w3.org/2000/svg" xmlns:xlink="http://www.w3.org/1999/xlink" contentScriptType="application/ecmascript" contentStyleType="text/css" height="408.9px" preserveAspectRatio="none" style="width:1297px;height:408px;" version="1.1" viewBox="0 0 1297 408" width="1297.17px" zoomAndPan="magnify"><defs><filter height="300%" id="fxim35k4qcds5" width="300%" x="-1" y="-1"><feGaussianBlur result="blurOut" stdDeviation="1.74"/><feColorMatrix in="blurOut" result="blurOut2" type="matrix" values="0 0 0 0 0 0 0 0 0 0 0 0 0 0 0 0 0 0 .4 0"/><feOffset dx="3.48" dy="3.48" in="blurOut2" result="blurOut3"/><feBlend in="SourceGraphic" in2="blurOut3" mode="normal"/></filter></defs><g><!--MD5=[df38be88ccee13e832d6fafd6288a4ca]
class Test--><rect codeLine="7" fill="#FEFECE" filter="url(#fxim35k4qcds5)" height="107.0236" id="Test" style="stroke:#A80036;stroke-width:1.305;" width="118.32" x="395.85" y="158.775"/><ellipse cx="440.8725" cy="172.695" fill="#ADD1B2" rx="9.57" ry="9.57" style="stroke:#A80036;stroke-width:0.87;"/><path d="M442.6125,169.65 Q442.7892,169.215 442.9931,168.9975 Q443.197,168.78 443.4281,168.78 Q443.8359,168.78 444.0942,169.0247 Q444.3525,169.2694 444.3525,169.8403 L444.3525,171.1997 Q444.3525,171.7706 444.1078,172.0153 Q443.8631,172.26 443.4825,172.26 Q443.1427,172.26 442.9252,172.1105 Q442.7077,171.9609 442.6125,171.5667 Q442.5717,171.2948 442.4222,171.1453 Q442.1503,170.8598 441.6609,170.6967 Q441.1716,170.52 440.6822,170.52 Q440.0705,170.52 439.5539,170.7647 Q439.0509,171.0094 438.6567,171.5531 Q438.2625,172.0969 438.2625,172.8445 L438.2625,173.6466 Q438.2625,174.5438 438.9966,175.1419 Q439.7306,175.74 441.0356,175.74 Q441.8105,175.74 442.3542,175.5633 Q442.6669,175.4681 443.0203,175.1555 Q443.2514,174.9788 443.3738,174.9244 Q443.4961,174.87 443.6456,174.87 Q443.9311,174.87 444.135,175.1011 Q444.3525,175.3186 444.3525,175.6313 Q444.3525,175.9303 444.0534,176.2838 Q443.6184,176.8003 442.9252,177.0858 Q442.0144,177.48 440.8997,177.48 Q439.5947,177.48 438.548,176.9634 Q437.7052,176.5556 437.107,175.672 Q436.5225,174.7884 436.5225,173.7417 L436.5225,172.7902 Q436.5225,171.7027 437.0391,170.7511 Q437.5692,169.7995 438.48,169.2966 Q439.4044,168.78 440.4375,168.78 Q441.0628,168.78 441.6066,168.9975 Q442.1503,169.215 442.6125,169.65 Z " fill="#000000"/><text fill="#000000" font-family="sans-serif" font-size="10.44" lengthAdjust="spacing" textLength="20.88" x="458.7075" y="176.9668">Test</text><line style="stroke:#A80036;stroke-width:1.305;" x1="396.72" x2="513.3" y1="186.615" y2="186.615"/><text fill="#000000" font-family="sans-serif" font-size="9.57" lengthAdjust="spacing" textLength="24.36" x="401.07" y="200.0295">-code</text><text fill="#000000" font-family="sans-serif" font-size="9.57" lengthAdjust="spacing" textLength="41.76" x="401.07" y="212.0667">-NhsCode</text><text fill="#000000" font-family="sans-serif" font-size="9.57" lengthAdjust="spacing" textLength="100.05" x="401.07" y="224.104">-dateOfTestRegistration</text><text fill="#000000" font-family="sans-serif" font-size="9.57" lengthAdjust="spacing" textLength="107.88" x="401.07" y="236.1413">-dateOfSamplesCollection</text><text fill="#000000" font-family="sans-serif" font-size="9.57" lengthAdjust="spacing" textLength="106.14" x="401.07" y="248.1785">-dateOfChemicalAnalysis</text><text fill="#000000" font-family="sans-serif" font-size="9.57" lengthAdjust="spacing" textLength="73.08" x="401.07" y="260.2158">-dateOfDiagnosis</text><!--MD5=[02e4b9b7573f1156f41e60aa5b4e25a4]
class Company--><rect codeLine="16" fill="#FEFECE" filter="url(#fxim35k4qcds5)" height="46.8373" id="Company" style="stroke:#A80036;stroke-width:1.305;" width="73.95" x="6.09" y="171.39"/><ellipse cx="19.14" cy="185.31" fill="#ADD1B2" rx="9.57" ry="9.57" style="stroke:#A80036;stroke-width:0.87;"/><path d="M20.88,182.265 Q21.0567,181.83 21.2606,181.6125 Q21.4645,181.395 21.6956,181.395 Q22.1034,181.395 22.3617,181.6397 Q22.62,181.8844 22.62,182.4553 L22.62,183.8147 Q22.62,184.3856 22.3753,184.6303 Q22.1306,184.875 21.75,184.875 Q21.4102,184.875 21.1927,184.7255 Q20.9752,184.5759 20.88,184.1817 Q20.8392,183.9098 20.6897,183.7603 Q20.4178,183.4748 19.9284,183.3117 Q19.4391,183.135 18.9497,183.135 Q18.338,183.135 17.8214,183.3797 Q17.3184,183.6244 16.9242,184.1681 Q16.53,184.7119 16.53,185.4595 L16.53,186.2616 Q16.53,187.1588 17.2641,187.7569 Q17.9981,188.355 19.3031,188.355 Q20.078,188.355 20.6217,188.1783 Q20.9344,188.0831 21.2878,187.7705 Q21.5189,187.5938 21.6413,187.5394 Q21.7636,187.485 21.9131,187.485 Q22.1986,187.485 22.4025,187.7161 Q22.62,187.9336 22.62,188.2463 Q22.62,188.5453 22.3209,188.8988 Q21.8859,189.4153 21.1927,189.7008 Q20.2819,190.095 19.1672,190.095 Q17.8622,190.095 16.8155,189.5784 Q15.9727,189.1706 15.3745,188.287 Q14.79,187.4034 14.79,186.3567 L14.79,185.4052 Q14.79,184.3177 15.3066,183.3661 Q15.8367,182.4145 16.7475,181.9116 Q17.6719,181.395 18.705,181.395 Q19.3303,181.395 19.8741,181.6125 Q20.4178,181.83 20.88,182.265 Z " fill="#000000"/><text fill="#000000" font-family="sans-serif" font-size="10.44" lengthAdjust="spacing" textLength="46.11" x="31.32" y="189.5818">Company</text><line style="stroke:#A80036;stroke-width:1.305;" x1="6.96" x2="79.17" y1="199.23" y2="199.23"/><text fill="#000000" font-family="sans-serif" font-size="9.57" lengthAdjust="spacing" textLength="51.33" x="11.31" y="212.6445">-designation</text><!--MD5=[36afb6bbd95a8ac778c4537c55a683d5]
class ParameterCategory--><rect codeLine="20" fill="#FEFECE" filter="url(#fxim35k4qcds5)" height="58.8745" id="ParameterCategory" style="stroke:#A80036;stroke-width:1.305;" width="120.93" x="1164.06" y="238.38"/><ellipse cx="1177.11" cy="252.3" fill="#ADD1B2" rx="9.57" ry="9.57" style="stroke:#A80036;stroke-width:0.87;"/><path d="M1178.85,249.255 Q1179.0267,248.82 1179.2306,248.6025 Q1179.4345,248.385 1179.6656,248.385 Q1180.0734,248.385 1180.3317,248.6297 Q1180.59,248.8744 1180.59,249.4453 L1180.59,250.8047 Q1180.59,251.3756 1180.3453,251.6203 Q1180.1006,251.865 1179.72,251.865 Q1179.3802,251.865 1179.1627,251.7155 Q1178.9452,251.5659 1178.85,251.1717 Q1178.8092,250.8998 1178.6597,250.7503 Q1178.3878,250.4648 1177.8984,250.3017 Q1177.4091,250.125 1176.9197,250.125 Q1176.308,250.125 1175.7914,250.3697 Q1175.2884,250.6144 1174.8942,251.1581 Q1174.5,251.7019 1174.5,252.4495 L1174.5,253.2516 Q1174.5,254.1488 1175.2341,254.7469 Q1175.9681,255.345 1177.2731,255.345 Q1178.048,255.345 1178.5917,255.1683 Q1178.9044,255.0731 1179.2578,254.7605 Q1179.4889,254.5838 1179.6113,254.5294 Q1179.7336,254.475 1179.8831,254.475 Q1180.1686,254.475 1180.3725,254.7061 Q1180.59,254.9236 1180.59,255.2363 Q1180.59,255.5353 1180.2909,255.8888 Q1179.8559,256.4053 1179.1627,256.6908 Q1178.2519,257.085 1177.1372,257.085 Q1175.8322,257.085 1174.7855,256.5684 Q1173.9427,256.1606 1173.3445,255.277 Q1172.76,254.3934 1172.76,253.3467 L1172.76,252.3952 Q1172.76,251.3077 1173.2766,250.3561 Q1173.8067,249.4045 1174.7175,248.9016 Q1175.6419,248.385 1176.675,248.385 Q1177.3003,248.385 1177.8441,248.6025 Q1178.3878,248.82 1178.85,249.255 Z " fill="#000000"/><text fill="#000000" font-family="sans-serif" font-size="10.44" lengthAdjust="spacing" textLength="93.09" x="1189.29" y="256.5718">ParameterCategory</text><line style="stroke:#A80036;stroke-width:1.305;" x1="1164.93" x2="1284.12" y1="266.22" y2="266.22"/><text fill="#000000" font-family="sans-serif" font-size="9.57" lengthAdjust="spacing" textLength="24.36" x="1169.28" y="279.6345">-code</text><text fill="#000000" font-family="sans-serif" font-size="9.57" lengthAdjust="spacing" textLength="26.1" x="1169.28" y="291.6717">-name</text><!--MD5=[03960189e81aa2c066c762ffabbee709]
class Receptionist--><rect codeLine="25" fill="#FEFECE" filter="url(#fxim35k4qcds5)" height="27.84" id="Receptionist" style="stroke:#A80036;stroke-width:1.305;" width="87.87" x="166.17" y="255.78"/><ellipse cx="179.22" cy="269.7" fill="#ADD1B2" rx="9.57" ry="9.57" style="stroke:#A80036;stroke-width:0.87;"/><path d="M180.96,266.655 Q181.1367,266.22 181.3406,266.0025 Q181.5445,265.785 181.7756,265.785 Q182.1834,265.785 182.4417,266.0297 Q182.7,266.2744 182.7,266.8453 L182.7,268.2047 Q182.7,268.7756 182.4553,269.0203 Q182.2106,269.265 181.83,269.265 Q181.4902,269.265 181.2727,269.1155 Q181.0552,268.9659 180.96,268.5717 Q180.9192,268.2998 180.7697,268.1503 Q180.4978,267.8648 180.0084,267.7017 Q179.5191,267.525 179.0297,267.525 Q178.418,267.525 177.9014,267.7697 Q177.3984,268.0144 177.0042,268.5581 Q176.61,269.1019 176.61,269.8495 L176.61,270.6516 Q176.61,271.5488 177.3441,272.1469 Q178.0781,272.745 179.3831,272.745 Q180.158,272.745 180.7017,272.5683 Q181.0144,272.4731 181.3678,272.1605 Q181.5989,271.9838 181.7213,271.9294 Q181.8436,271.875 181.9931,271.875 Q182.2786,271.875 182.4825,272.1061 Q182.7,272.3236 182.7,272.6363 Q182.7,272.9353 182.4009,273.2888 Q181.9659,273.8053 181.2727,274.0908 Q180.3619,274.485 179.2472,274.485 Q177.9422,274.485 176.8955,273.9684 Q176.0527,273.5606 175.4545,272.677 Q174.87,271.7934 174.87,270.7467 L174.87,269.7952 Q174.87,268.7077 175.3866,267.7561 Q175.9167,266.8045 176.8275,266.3016 Q177.7519,265.785 178.785,265.785 Q179.4103,265.785 179.9541,266.0025 Q180.4978,266.22 180.96,266.655 Z " fill="#000000"/><text fill="#000000" font-family="sans-serif" font-size="10.44" lengthAdjust="spacing" textLength="60.03" x="191.4" y="273.9718">Receptionist</text><!--MD5=[9681492165142af2a4a3a169d90ee8d4]
class Sample--><rect codeLine="27" fill="#FEFECE" filter="url(#fxim35k4qcds5)" height="46.8373" id="Sample" style="stroke:#A80036;stroke-width:1.305;" width="65.25" x="697.305" y="86.13"/><ellipse cx="710.355" cy="100.05" fill="#ADD1B2" rx="9.57" ry="9.57" style="stroke:#A80036;stroke-width:0.87;"/><path d="M712.095,97.005 Q712.2717,96.57 712.4756,96.3525 Q712.6795,96.135 712.9106,96.135 Q713.3184,96.135 713.5767,96.3797 Q713.835,96.6244 713.835,97.1953 L713.835,98.5547 Q713.835,99.1256 713.5903,99.3703 Q713.3456,99.615 712.965,99.615 Q712.6252,99.615 712.4077,99.4655 Q712.1902,99.3159 712.095,98.9217 Q712.0542,98.6498 711.9047,98.5003 Q711.6328,98.2148 711.1434,98.0517 Q710.6541,97.875 710.1647,97.875 Q709.553,97.875 709.0364,98.1197 Q708.5334,98.3644 708.1392,98.9081 Q707.745,99.4519 707.745,100.1995 L707.745,101.0016 Q707.745,101.8987 708.4791,102.4969 Q709.2131,103.095 710.5181,103.095 Q711.293,103.095 711.8367,102.9183 Q712.1494,102.8231 712.5028,102.5105 Q712.7339,102.3338 712.8563,102.2794 Q712.9786,102.225 713.1281,102.225 Q713.4136,102.225 713.6175,102.4561 Q713.835,102.6736 713.835,102.9863 Q713.835,103.2853 713.5359,103.6388 Q713.1009,104.1553 712.4077,104.4408 Q711.4969,104.835 710.3822,104.835 Q709.0772,104.835 708.0305,104.3184 Q707.1877,103.9106 706.5895,103.027 Q706.005,102.1434 706.005,101.0967 L706.005,100.1452 Q706.005,99.0577 706.5216,98.1061 Q707.0517,97.1545 707.9625,96.6516 Q708.8869,96.135 709.92,96.135 Q710.5453,96.135 711.0891,96.3525 Q711.6328,96.57 712.095,97.005 Z " fill="#000000"/><text fill="#000000" font-family="sans-serif" font-size="10.44" lengthAdjust="spacing" textLength="37.41" x="722.535" y="104.3218">Sample</text><line style="stroke:#A80036;stroke-width:1.305;" x1="698.175" x2="761.685" y1="113.97" y2="113.97"/><text fill="#000000" font-family="sans-serif" font-size="9.57" lengthAdjust="spacing" textLength="39.15" x="702.525" y="127.3845">-barCode</text><!--MD5=[ed6624c6556d5e7b1bd23032162d20b7]
class Client--><rect codeLine="31" fill="#FEFECE" filter="url(#fxim35k4qcds5)" height="131.0981" id="Client" style="stroke:#A80036;stroke-width:1.305;" width="79.17" x="690.345" y="163.995"/><ellipse cx="713.9655" cy="177.915" fill="#ADD1B2" rx="9.57" ry="9.57" style="stroke:#A80036;stroke-width:0.87;"/><path d="M715.7055,174.87 Q715.8822,174.435 716.0861,174.2175 Q716.29,174 716.5211,174 Q716.9289,174 717.1872,174.2447 Q717.4455,174.4894 717.4455,175.0603 L717.4455,176.4197 Q717.4455,176.9906 717.2008,177.2353 Q716.9561,177.48 716.5755,177.48 Q716.2357,177.48 716.0182,177.3305 Q715.8007,177.1809 715.7055,176.7867 Q715.6647,176.5148 715.5152,176.3653 Q715.2433,176.0798 714.7539,175.9167 Q714.2646,175.74 713.7752,175.74 Q713.1635,175.74 712.6469,175.9847 Q712.1439,176.2294 711.7497,176.7731 Q711.3555,177.3169 711.3555,178.0645 L711.3555,178.8666 Q711.3555,179.7638 712.0896,180.3619 Q712.8236,180.96 714.1286,180.96 Q714.9035,180.96 715.4472,180.7833 Q715.7599,180.6881 716.1133,180.3755 Q716.3444,180.1988 716.4667,180.1444 Q716.5891,180.09 716.7386,180.09 Q717.0241,180.09 717.228,180.3211 Q717.4455,180.5386 717.4455,180.8513 Q717.4455,181.1503 717.1464,181.5038 Q716.7114,182.0203 716.0182,182.3058 Q715.1074,182.7 713.9927,182.7 Q712.6877,182.7 711.641,182.1834 Q710.7982,181.7756 710.2,180.892 Q709.6155,180.0084 709.6155,178.9617 L709.6155,178.0102 Q709.6155,176.9227 710.1321,175.9711 Q710.6622,175.0195 711.573,174.5166 Q712.4974,174 713.5305,174 Q714.1558,174 714.6996,174.2175 Q715.2433,174.435 715.7055,174.87 Z " fill="#000000"/><text fill="#000000" font-family="sans-serif" font-size="10.44" lengthAdjust="spacing" textLength="27.84" x="728.4945" y="182.1868">Client</text><line style="stroke:#A80036;stroke-width:1.305;" x1="691.215" x2="768.645" y1="191.835" y2="191.835"/><text fill="#000000" font-family="sans-serif" font-size="9.57" lengthAdjust="spacing" textLength="26.1" x="695.565" y="205.2495">-name</text><text fill="#000000" font-family="sans-serif" font-size="9.57" lengthAdjust="spacing" textLength="68.73" x="695.565" y="217.2867">-citizenCardNum</text><text fill="#000000" font-family="sans-serif" font-size="9.57" lengthAdjust="spacing" textLength="37.41" x="695.565" y="229.324">-nhsNum</text><text fill="#000000" font-family="sans-serif" font-size="9.57" lengthAdjust="spacing" textLength="40.89" x="695.565" y="241.3613">-birthDate</text><text fill="#000000" font-family="sans-serif" font-size="9.57" lengthAdjust="spacing" textLength="19.14" x="695.565" y="253.3985">-sex</text><text fill="#000000" font-family="sans-serif" font-size="9.57" lengthAdjust="spacing" textLength="41.76" x="695.565" y="265.4358">-taxIdNum</text><text fill="#000000" font-family="sans-serif" font-size="9.57" lengthAdjust="spacing" textLength="47.85" x="695.565" y="277.4731">-phoneNum</text><text fill="#000000" font-family="sans-serif" font-size="9.57" lengthAdjust="spacing" textLength="24.36" x="695.565" y="289.5103">-email</text><!--MD5=[0f07739f46effee96e095e9c408da841]
class TestParameter--><rect codeLine="41" fill="#FEFECE" filter="url(#fxim35k4qcds5)" height="27.84" id="TestParameter" style="stroke:#A80036;stroke-width:1.305;" width="99.18" x="680.34" y="27.84"/><ellipse cx="693.39" cy="41.76" fill="#ADD1B2" rx="9.57" ry="9.57" style="stroke:#A80036;stroke-width:0.87;"/><path d="M695.13,38.715 Q695.3067,38.28 695.5106,38.0625 Q695.7145,37.845 695.9456,37.845 Q696.3534,37.845 696.6117,38.0897 Q696.87,38.3344 696.87,38.9053 L696.87,40.2647 Q696.87,40.8356 696.6253,41.0803 Q696.3806,41.325 696,41.325 Q695.6602,41.325 695.4427,41.1755 Q695.2252,41.0259 695.13,40.6317 Q695.0892,40.3598 694.9397,40.2103 Q694.6678,39.9248 694.1784,39.7617 Q693.6891,39.585 693.1997,39.585 Q692.588,39.585 692.0714,39.8297 Q691.5684,40.0744 691.1742,40.6181 Q690.78,41.1619 690.78,41.9095 L690.78,42.7116 Q690.78,43.6088 691.5141,44.2069 Q692.2481,44.805 693.5531,44.805 Q694.328,44.805 694.8717,44.6283 Q695.1844,44.5331 695.5378,44.2205 Q695.7689,44.0438 695.8913,43.9894 Q696.0136,43.935 696.1631,43.935 Q696.4486,43.935 696.6525,44.1661 Q696.87,44.3836 696.87,44.6963 Q696.87,44.9953 696.5709,45.3488 Q696.1359,45.8653 695.4427,46.1508 Q694.5319,46.545 693.4172,46.545 Q692.1122,46.545 691.0655,46.0284 Q690.2227,45.6206 689.6245,44.737 Q689.04,43.8534 689.04,42.8067 L689.04,41.8552 Q689.04,40.7677 689.5566,39.8161 Q690.0867,38.8645 690.9975,38.3616 Q691.9219,37.845 692.955,37.845 Q693.5803,37.845 694.1241,38.0625 Q694.6678,38.28 695.13,38.715 Z " fill="#000000"/><text fill="#000000" font-family="sans-serif" font-size="10.44" lengthAdjust="spacing" textLength="71.34" x="705.57" y="46.0318">TestParameter</text><!--MD5=[4e608140b854dae633589343bce77383]
class TestParameterResult--><rect codeLine="42" fill="#FEFECE" filter="url(#fxim35k4qcds5)" height="70.9118" id="TestParameterResult" style="stroke:#A80036;stroke-width:1.305;" width="130.5" x="887.4" y="107.88"/><ellipse cx="900.45" cy="121.8" fill="#ADD1B2" rx="9.57" ry="9.57" style="stroke:#A80036;stroke-width:0.87;"/><path d="M902.19,118.755 Q902.3667,118.32 902.5706,118.1025 Q902.7745,117.885 903.0056,117.885 Q903.4134,117.885 903.6717,118.1297 Q903.93,118.3744 903.93,118.9453 L903.93,120.3047 Q903.93,120.8756 903.6853,121.1203 Q903.4406,121.365 903.06,121.365 Q902.7202,121.365 902.5027,121.2155 Q902.2852,121.0659 902.19,120.6717 Q902.1492,120.3998 901.9997,120.2503 Q901.7278,119.9648 901.2384,119.8017 Q900.7491,119.625 900.2597,119.625 Q899.648,119.625 899.1314,119.8697 Q898.6284,120.1144 898.2342,120.6581 Q897.84,121.2019 897.84,121.9495 L897.84,122.7516 Q897.84,123.6487 898.5741,124.2469 Q899.3081,124.845 900.6131,124.845 Q901.388,124.845 901.9317,124.6683 Q902.2444,124.5731 902.5978,124.2605 Q902.8289,124.0838 902.9513,124.0294 Q903.0736,123.975 903.2231,123.975 Q903.5086,123.975 903.7125,124.2061 Q903.93,124.4236 903.93,124.7363 Q903.93,125.0353 903.6309,125.3888 Q903.1959,125.9053 902.5027,126.1908 Q901.5919,126.585 900.4772,126.585 Q899.1722,126.585 898.1255,126.0684 Q897.2827,125.6606 896.6845,124.777 Q896.1,123.8934 896.1,122.8467 L896.1,121.8952 Q896.1,120.8077 896.6166,119.8561 Q897.1467,118.9045 898.0575,118.4016 Q898.9819,117.885 900.015,117.885 Q900.6403,117.885 901.1841,118.1025 Q901.7278,118.32 902.19,118.755 Z " fill="#000000"/><text fill="#000000" font-family="sans-serif" font-size="10.44" lengthAdjust="spacing" textLength="102.66" x="912.63" y="126.0718">TestParameterResult</text><line style="stroke:#A80036;stroke-width:1.305;" x1="888.27" x2="1017.03" y1="135.72" y2="135.72"/><text fill="#000000" font-family="sans-serif" font-size="9.57" lengthAdjust="spacing" textLength="45.24" x="892.62" y="149.1345">-createdAt</text><text fill="#000000" font-family="sans-serif" font-size="9.57" lengthAdjust="spacing" textLength="26.1" x="892.62" y="161.1717">-value</text><text fill="#000000" font-family="sans-serif" font-size="9.57" lengthAdjust="spacing" textLength="28.71" x="892.62" y="173.209">-metric</text><!--MD5=[aeb3272166074d8737a70b61b1e71682]
class TestType--><rect codeLine="47" fill="#FEFECE" filter="url(#fxim35k4qcds5)" height="70.9118" id="TestType" style="stroke:#A80036;stroke-width:1.305;" width="92.22" x="683.82" y="326.25"/><ellipse cx="706.266" cy="340.17" fill="#ADD1B2" rx="9.57" ry="9.57" style="stroke:#A80036;stroke-width:0.87;"/><path d="M708.006,337.125 Q708.1827,336.69 708.3866,336.4725 Q708.5905,336.255 708.8216,336.255 Q709.2294,336.255 709.4877,336.4997 Q709.746,336.7444 709.746,337.3153 L709.746,338.6747 Q709.746,339.2456 709.5013,339.4903 Q709.2566,339.735 708.876,339.735 Q708.5362,339.735 708.3187,339.5855 Q708.1012,339.4359 708.006,339.0417 Q707.9652,338.7698 707.8157,338.6203 Q707.5438,338.3348 707.0544,338.1717 Q706.5651,337.995 706.0757,337.995 Q705.464,337.995 704.9474,338.2397 Q704.4444,338.4844 704.0502,339.0281 Q703.656,339.5719 703.656,340.3195 L703.656,341.1216 Q703.656,342.0188 704.3901,342.6169 Q705.1241,343.215 706.4291,343.215 Q707.204,343.215 707.7477,343.0383 Q708.0604,342.9431 708.4138,342.6305 Q708.6449,342.4538 708.7673,342.3994 Q708.8896,342.345 709.0391,342.345 Q709.3246,342.345 709.5285,342.5761 Q709.746,342.7936 709.746,343.1063 Q709.746,343.4053 709.4469,343.7588 Q709.0119,344.2753 708.3187,344.5608 Q707.4079,344.955 706.2932,344.955 Q704.9882,344.955 703.9415,344.4384 Q703.0987,344.0306 702.5005,343.147 Q701.916,342.2634 701.916,341.2167 L701.916,340.2652 Q701.916,339.1777 702.4326,338.2261 Q702.9627,337.2745 703.8735,336.7716 Q704.7979,336.255 705.831,336.255 Q706.4563,336.255 707.0001,336.4725 Q707.5438,336.69 708.006,337.125 Z " fill="#000000"/><text fill="#000000" font-family="sans-serif" font-size="10.44" lengthAdjust="spacing" textLength="43.5" x="720.534" y="344.4418">TestType</text><line style="stroke:#A80036;stroke-width:1.305;" x1="684.69" x2="775.17" y1="354.09" y2="354.09"/><text fill="#000000" font-family="sans-serif" font-size="9.57" lengthAdjust="spacing" textLength="25.23" x="689.04" y="367.5045">-Code</text><text fill="#000000" font-family="sans-serif" font-size="9.57" lengthAdjust="spacing" textLength="50.46" x="689.04" y="379.5417">-Description</text><text fill="#000000" font-family="sans-serif" font-size="9.57" lengthAdjust="spacing" textLength="81.78" x="689.04" y="391.579">-Collecting methods</text><!--MD5=[1f6362a5c8f21d8d6a0fce68f3a92a4e]
class Parameter--><rect codeLine="53" fill="#FEFECE" filter="url(#fxim35k4qcds5)" height="70.9118" id="Parameter" style="stroke:#A80036;stroke-width:1.305;" width="78.3" x="913.5" y="6.09"/><ellipse cx="926.55" cy="20.01" fill="#ADD1B2" rx="9.57" ry="9.57" style="stroke:#A80036;stroke-width:0.87;"/><path d="M928.29,16.965 Q928.4667,16.53 928.6706,16.3125 Q928.8745,16.095 929.1056,16.095 Q929.5134,16.095 929.7717,16.3397 Q930.03,16.5844 930.03,17.1553 L930.03,18.5147 Q930.03,19.0856 929.7853,19.3303 Q929.5406,19.575 929.16,19.575 Q928.8202,19.575 928.6027,19.4255 Q928.3852,19.2759 928.29,18.8817 Q928.2492,18.6098 928.0997,18.4603 Q927.8278,18.1748 927.3384,18.0117 Q926.8491,17.835 926.3597,17.835 Q925.748,17.835 925.2314,18.0797 Q924.7284,18.3244 924.3342,18.8681 Q923.94,19.4119 923.94,20.1595 L923.94,20.9616 Q923.94,21.8588 924.6741,22.4569 Q925.4081,23.055 926.7131,23.055 Q927.488,23.055 928.0317,22.8783 Q928.3444,22.7831 928.6978,22.4705 Q928.9289,22.2938 929.0513,22.2394 Q929.1736,22.185 929.3231,22.185 Q929.6086,22.185 929.8125,22.4161 Q930.03,22.6336 930.03,22.9463 Q930.03,23.2453 929.7309,23.5988 Q929.2959,24.1153 928.6027,24.4008 Q927.6919,24.795 926.5772,24.795 Q925.2722,24.795 924.2255,24.2784 Q923.3827,23.8706 922.7845,22.987 Q922.2,22.1034 922.2,21.0567 L922.2,20.1052 Q922.2,19.0177 922.7166,18.0661 Q923.2467,17.1145 924.1575,16.6116 Q925.0819,16.095 926.115,16.095 Q926.7403,16.095 927.2841,16.3125 Q927.8278,16.53 928.29,16.965 Z " fill="#000000"/><text fill="#000000" font-family="sans-serif" font-size="10.44" lengthAdjust="spacing" textLength="50.46" x="938.73" y="24.2818">Parameter</text><line style="stroke:#A80036;stroke-width:1.305;" x1="914.37" x2="990.93" y1="33.93" y2="33.93"/><text fill="#000000" font-family="sans-serif" font-size="9.57" lengthAdjust="spacing" textLength="24.36" x="918.72" y="47.3445">-code</text><text fill="#000000" font-family="sans-serif" font-size="9.57" lengthAdjust="spacing" textLength="48.72" x="918.72" y="59.3817">-shortName</text><text fill="#000000" font-family="sans-serif" font-size="9.57" lengthAdjust="spacing" textLength="49.59" x="918.72" y="71.419">-description</text><!--MD5=[1934a092c0e7d4da7dc7075b6f4b6b03]
class ClinicalAnalysisLaboratory--><rect codeLine="59" fill="#FEFECE" filter="url(#fxim35k4qcds5)" height="46.8373" id="ClinicalAnalysisLaboratory" style="stroke:#A80036;stroke-width:1.305;" width="153.99" x="133.11" y="321.9"/><ellipse cx="146.16" cy="335.82" fill="#ADD1B2" rx="9.57" ry="9.57" style="stroke:#A80036;stroke-width:0.87;"/><path d="M147.9,332.775 Q148.0767,332.34 148.2806,332.1225 Q148.4845,331.905 148.7156,331.905 Q149.1234,331.905 149.3817,332.1497 Q149.64,332.3944 149.64,332.9653 L149.64,334.3247 Q149.64,334.8956 149.3953,335.1403 Q149.1506,335.385 148.77,335.385 Q148.4302,335.385 148.2127,335.2355 Q147.9952,335.0859 147.9,334.6917 Q147.8592,334.4198 147.7097,334.2703 Q147.4378,333.9848 146.9484,333.8217 Q146.4591,333.645 145.9697,333.645 Q145.358,333.645 144.8414,333.8897 Q144.3384,334.1344 143.9442,334.6781 Q143.55,335.2219 143.55,335.9695 L143.55,336.7716 Q143.55,337.6688 144.2841,338.2669 Q145.0181,338.865 146.3231,338.865 Q147.098,338.865 147.6417,338.6883 Q147.9544,338.5931 148.3078,338.2805 Q148.5389,338.1038 148.6613,338.0494 Q148.7836,337.995 148.9331,337.995 Q149.2186,337.995 149.4225,338.2261 Q149.64,338.4436 149.64,338.7563 Q149.64,339.0553 149.3409,339.4088 Q148.9059,339.9253 148.2127,340.2108 Q147.3019,340.605 146.1872,340.605 Q144.8822,340.605 143.8355,340.0884 Q142.9927,339.6806 142.3945,338.797 Q141.81,337.9134 141.81,336.8667 L141.81,335.9152 Q141.81,334.8277 142.3266,333.8761 Q142.8567,332.9245 143.7675,332.4216 Q144.6919,331.905 145.725,331.905 Q146.3503,331.905 146.8941,332.1225 Q147.4378,332.34 147.9,332.775 Z " fill="#000000"/><text fill="#000000" font-family="sans-serif" font-size="10.44" lengthAdjust="spacing" textLength="126.15" x="158.34" y="340.0918">ClinicalAnalysisLaboratory</text><line style="stroke:#A80036;stroke-width:1.305;" x1="133.98" x2="286.23" y1="349.74" y2="349.74"/><text fill="#000000" font-family="sans-serif" font-size="9.57" lengthAdjust="spacing" textLength="53.94" x="138.33" y="363.1545">-laboratoryID</text><!--MD5=[f00dbe8c0302c6aec2cb26b3c659c8fc]
class Report--><rect fill="#FEFECE" filter="url(#fxim35k4qcds5)" height="27.84" id="Report" style="stroke:#A80036;stroke-width:1.305;" width="60.03" x="180.09" y="120.93"/><ellipse cx="193.14" cy="134.85" fill="#ADD1B2" rx="9.57" ry="9.57" style="stroke:#A80036;stroke-width:0.87;"/><path d="M194.88,131.805 Q195.0567,131.37 195.2606,131.1525 Q195.4645,130.935 195.6956,130.935 Q196.1034,130.935 196.3617,131.1797 Q196.62,131.4244 196.62,131.9953 L196.62,133.3547 Q196.62,133.9256 196.3753,134.1703 Q196.1306,134.415 195.75,134.415 Q195.4102,134.415 195.1927,134.2655 Q194.9752,134.1159 194.88,133.7217 Q194.8392,133.4498 194.6897,133.3003 Q194.4178,133.0148 193.9284,132.8517 Q193.4391,132.675 192.9497,132.675 Q192.338,132.675 191.8214,132.9197 Q191.3184,133.1644 190.9242,133.7081 Q190.53,134.2519 190.53,134.9995 L190.53,135.8016 Q190.53,136.6988 191.2641,137.2969 Q191.9981,137.895 193.3031,137.895 Q194.078,137.895 194.6217,137.7183 Q194.9344,137.6231 195.2878,137.3105 Q195.5189,137.1338 195.6412,137.0794 Q195.7636,137.025 195.9131,137.025 Q196.1986,137.025 196.4025,137.2561 Q196.62,137.4736 196.62,137.7863 Q196.62,138.0853 196.3209,138.4388 Q195.8859,138.9553 195.1927,139.2408 Q194.2819,139.635 193.1672,139.635 Q191.8622,139.635 190.8155,139.1184 Q189.9727,138.7106 189.3745,137.827 Q188.79,136.9434 188.79,135.8967 L188.79,134.9452 Q188.79,133.8577 189.3066,132.9061 Q189.8367,131.9545 190.7475,131.4516 Q191.6719,130.935 192.705,130.935 Q193.3303,130.935 193.8741,131.1525 Q194.4178,131.37 194.88,131.805 Z " fill="#000000"/><text fill="#000000" font-family="sans-serif" font-size="10.44" lengthAdjust="spacing" textLength="32.19" x="205.32" y="139.1218">Report</text><!--MD5=[e981d4f96c4342412d1e68160b30cf70]
link Test to TestType--><path codeLine="63" d="M514.4832,244.383 C565.1259,272.1186 637.2663,311.6427 683.6286,337.038 " fill="none" id="Test-TestType" style="stroke:#A80036;stroke-width:0.87;"/><polygon fill="#000000" points="567.5751,254.5428,561.9019,248.5197,559.4451,253.0047,567.5751,254.5428" style="stroke:#000000;stroke-width:0.87;"/><text fill="#000000" font-family="sans-serif" font-size="11.31" lengthAdjust="spacing" textLength="62.64" x="571.59" y="257.0808">classified as</text><text fill="#000000" font-family="sans-serif" font-size="11.31" lengthAdjust="spacing" textLength="4.35" x="521.226" y="260.4123">*</text><text fill="#000000" font-family="sans-serif" font-size="11.31" lengthAdjust="spacing" textLength="6.09" x="670.9077" y="346.4198">1</text><!--MD5=[63d25d625ab355317a074a623d33bba8]
link Report to Test--><path codeLine="64" d="M240.1809,139.809 C272.4405,145.7337 325.6497,156.8001 369.75,172.26 C378.3195,175.2615 387.1761,178.872 395.7891,182.6652 " fill="none" id="Report-Test" style="stroke:#A80036;stroke-width:0.87;"/><polygon fill="#000000" points="333.0539,150.078,326.146,145.5234,324.7882,150.4536,333.0539,150.078" style="stroke:#000000;stroke-width:0.87;"/><text fill="#000000" font-family="sans-serif" font-size="11.31" lengthAdjust="spacing" textLength="20.88" x="336.69" y="153.5508">is of</text><text fill="#000000" font-family="sans-serif" font-size="11.31" lengthAdjust="spacing" textLength="6.09" x="247.0121" y="154.0396">1</text><text fill="#000000" font-family="sans-serif" font-size="11.31" lengthAdjust="spacing" textLength="6.09" x="382.8888" y="191.9441">1</text><!--MD5=[3994f36c72829dbcddd1cf7021dddf61]
link Test to Client--><path codeLine="65" d="M514.4832,216.0123 C567.6315,219.3966 644.4699,224.2947 690.3276,227.2092 " fill="none" id="Test-Client" style="stroke:#A80036;stroke-width:0.87;"/><polygon fill="#000000" points="566.7962,210.9694,559.1054,207.9176,558.7804,213.021,566.7962,210.9694" style="stroke:#000000;stroke-width:0.87;"/><text fill="#000000" font-family="sans-serif" font-size="11.31" lengthAdjust="spacing" textLength="65.25" x="570.285" y="215.3208">requested by</text><text fill="#000000" font-family="sans-serif" font-size="11.31" lengthAdjust="spacing" textLength="4.35" x="521.226" y="228.9385">*</text><text fill="#000000" font-family="sans-serif" font-size="11.31" lengthAdjust="spacing" textLength="6.09" x="677.1741" y="239.7413">1</text><!--MD5=[e8b34c2e6517a986175307f5599f058a]
link Receptionist to Test--><path codeLine="66" d="M254.1444,259.9647 C286.1082,252.7089 330.6783,242.4864 369.75,233.16 C378.189,231.1416 387.0978,228.984 395.8326,226.8351 " fill="none" id="Receptionist-Test" style="stroke:#A80036;stroke-width:0.87;"/><polygon fill="#000000" points="321.7858,224.4925,313.5411,223.7945,314.7054,228.7739,321.7858,224.4925" style="stroke:#000000;stroke-width:0.87;"/><text fill="#000000" font-family="sans-serif" font-size="11.31" lengthAdjust="spacing" textLength="43.5" x="325.38" y="230.1108">registers</text><text fill="#000000" font-family="sans-serif" font-size="11.31" lengthAdjust="spacing" textLength="6.09" x="261.0599" y="271.3203">1</text><text fill="#000000" font-family="sans-serif" font-size="11.31" lengthAdjust="spacing" textLength="4.35" x="384.3887" y="241.0804">*</text><!--MD5=[6df8849671cb880f6936e94aa30db6f9]
link Parameter to ParameterCategory--><path codeLine="67" d="M991.8609,71.3835 C1000.4826,78.1608 1009.548,85.3818 1017.9,92.22 C1079.3394,142.4973 1149.3309,202.9797 1189.8033,238.2843 " fill="none" id="Parameter-ParameterCategory" style="stroke:#A80036;stroke-width:0.87;"/><polygon fill="#000000" points="1051.6756,110.837,1047.3077,103.8096,1044.0113,107.7191,1051.6756,110.837" style="stroke:#000000;stroke-width:0.87;"/><text fill="#000000" font-family="sans-serif" font-size="11.31" lengthAdjust="spacing" textLength="80.91" x="1056.18" y="112.6608">presented under</text><text fill="#000000" font-family="sans-serif" font-size="11.31" lengthAdjust="spacing" textLength="4.35" x="998.7154" y="89.2442">*</text><text fill="#000000" font-family="sans-serif" font-size="11.31" lengthAdjust="spacing" textLength="6.09" x="1176.278" y="228.9506">1</text><!--MD5=[8aaf0efd5e2f3824be7ea3e488dcc283]
link TestType to ParameterCategory--><path codeLine="68" d="M776.0661,353.2896 C865.302,336.2811 1063.923,298.41 1163.8338,279.3657 " fill="none" id="TestType-ParameterCategory" style="stroke:#A80036;stroke-width:0.87;"/><polygon fill="#000000" points="912.988,299.4883,904.7792,298.4503,905.7369,303.4736,912.988,299.4883" style="stroke:#000000;stroke-width:0.87;"/><text fill="#000000" font-family="sans-serif" font-size="11.31" lengthAdjust="spacing" textLength="83.52" x="916.545" y="304.9308">characterized by</text><text fill="#000000" font-family="sans-serif" font-size="11.31" lengthAdjust="spacing" textLength="6.09" x="782.9822" y="364.8471">1</text><text fill="#000000" font-family="sans-serif" font-size="11.31" lengthAdjust="spacing" textLength="17.4" x="1139.6031" y="292.9434">1..*</text><!--MD5=[b72ac8ab7fb5921fceb5036a3902baea]
link Test to Sample--><path codeLine="69" d="M514.4832,190.2603 C570.2937,169.2846 652.2303,138.4953 696.9831,121.6782 " fill="none" id="Test-Sample" style="stroke:#A80036;stroke-width:0.87;"/><polygon fill="#000000" points="579.577,130.8627,571.3113,131.2375,573.1101,136.0243,579.577,130.8627" style="stroke:#000000;stroke-width:0.87;"/><text fill="#000000" font-family="sans-serif" font-size="11.31" lengthAdjust="spacing" textLength="39.15" x="583.335" y="137.0208">collects</text><text fill="#000000" font-family="sans-serif" font-size="11.31" lengthAdjust="spacing" textLength="6.09" x="521.3211" y="200.3699">1</text><text fill="#000000" font-family="sans-serif" font-size="11.31" lengthAdjust="spacing" textLength="17.4" x="672.9456" y="136.4857">1..*</text><!--MD5=[f24c888dadeb846430474fe80a58922b]
link Test to TestParameter--><path codeLine="70" d="M495.8391,158.7576 C508.7934,143.9589 524.0445,128.8557 540.27,117.45 C583.3263,87.2001 640.2156,66.5289 680.253,54.5229 " fill="none" id="Test-TestParameter" style="stroke:#A80036;stroke-width:0.87;"/><polygon fill="#000000" points="548.4069,53.6925,540.2982,55.3387,542.8144,59.7905,548.4069,53.6925" style="stroke:#000000;stroke-width:0.87;"/><text fill="#000000" font-family="sans-serif" font-size="11.31" lengthAdjust="spacing" textLength="100.92" x="552.45" y="60.4608">requests analysis of</text><text fill="#000000" font-family="sans-serif" font-size="11.31" lengthAdjust="spacing" textLength="6.09" x="494.354" y="149.2249">1</text><text fill="#000000" font-family="sans-serif" font-size="11.31" lengthAdjust="spacing" textLength="17.4" x="656.1032" y="68.5618">1..*</text><!--MD5=[92e8e476cc9e9004a7125f53a120ec97]
link TestParameter to Parameter--><path codeLine="71" d="M779.5722,41.76 C819.8619,41.76 876.2727,41.76 913.4043,41.76 " fill="none" id="TestParameter-Parameter" style="stroke:#A80036;stroke-width:0.87;"/><polygon fill="#000000" points="815.19,34.0829,807.3208,31.5261,807.3208,36.6398,815.19,34.0829" style="stroke:#000000;stroke-width:0.87;"/><text fill="#000000" font-family="sans-serif" font-size="11.31" lengthAdjust="spacing" textLength="40.89" x="818.67" y="38.7108">refers to</text><text fill="#000000" font-family="sans-serif" font-size="11.31" lengthAdjust="spacing" textLength="4.35" x="786.5351" y="54.4566">*</text><text fill="#000000" font-family="sans-serif" font-size="11.31" lengthAdjust="spacing" textLength="6.09" x="900.5742" y="54.6685">1</text><!--MD5=[0e00e25ac6b8c14659aaff2cf7e5df08]
link TestParameter to TestParameterResult--><path codeLine="72" d="M761.0673,55.6974 C793.3878,70.5918 845.6052,94.6386 887.226,113.8134 " fill="none" id="TestParameter-TestParameterResult" style="stroke:#A80036;stroke-width:0.87;"/><polygon fill="#000000" points="813.9209,72.443,807.8434,66.8282,805.7038,71.4728,813.9209,72.443" style="stroke:#000000;stroke-width:0.87;"/><text fill="#000000" font-family="sans-serif" font-size="11.31" lengthAdjust="spacing" textLength="42.63" x="817.8" y="75.2508">contains</text><text fill="#000000" font-family="sans-serif" font-size="11.31" lengthAdjust="spacing" textLength="6.09" x="764.2829" y="74.4111">1</text><text fill="#000000" font-family="sans-serif" font-size="11.31" lengthAdjust="spacing" textLength="19.14" x="861.4068" y="123.5583">0..1</text><!--MD5=[2eb961b30663a01bbfd8b4b9b8950031]
link ClinicalAnalysisLaboratory to TestType--><path codeLine="73" d="M287.1435,347.8173 C396.5547,351.3147 594.8016,357.6396 683.7417,360.4758 " fill="none" id="ClinicalAnalysisLaboratory-TestType" style="stroke:#A80036;stroke-width:0.87;"/><polygon fill="#000000" points="435.4328,343.0717,427.6491,340.2651,427.486,345.3762,435.4328,343.0717" style="stroke:#000000;stroke-width:0.87;"/><text fill="#000000" font-family="sans-serif" font-size="11.31" lengthAdjust="spacing" textLength="43.5" x="438.915" y="347.5608">operates</text><text fill="#000000" font-family="sans-serif" font-size="11.31" lengthAdjust="spacing" textLength="6.09" x="294.0257" y="360.384">1</text><text fill="#000000" font-family="sans-serif" font-size="11.31" lengthAdjust="spacing" textLength="17.4" x="659.3091" y="372.9703">1..*</text><!--MD5=[d480452e7d21fe720ba0207568bc7434]
link ClinicalAnalysisLaboratory to Test--><path codeLine="74" d="M263.697,321.7695 C295.0257,307.2231 335.2545,287.6394 369.75,267.96 C378.2847,263.088 387.1326,257.6853 395.7282,252.213 " fill="none" id="ClinicalAnalysisLaboratory-Test" style="stroke:#A80036;stroke-width:0.87;"/><polygon fill="#000000" points="321.3986,258.2554,313.2447,259.6611,315.6282,264.1854,321.3986,258.2554" style="stroke:#000000;stroke-width:0.87;"/><text fill="#000000" font-family="sans-serif" font-size="11.31" lengthAdjust="spacing" textLength="43.5" x="325.38" y="264.9108">performs</text><text fill="#000000" font-family="sans-serif" font-size="11.31" lengthAdjust="spacing" textLength="6.09" x="269.296" y="312.5704">1</text><text fill="#000000" font-family="sans-serif" font-size="11.31" lengthAdjust="spacing" textLength="17.4" x="371.3176" y="268.8047">1..*</text><!--MD5=[7e4bc624457760b649895ff2ead938fa]
link Company to Test--><path codeLine="75" d="M80.3358,196.4199 C151.5105,199.4475 309.6591,206.1552 395.676,209.8005 " fill="none" id="Company-Test" style="stroke:#A80036;stroke-width:0.87;"/><polygon fill="#000000" points="189.2211,191.7373,181.4673,188.8492,181.2505,193.9583,189.2211,191.7373" style="stroke:#000000;stroke-width:0.87;"/><text fill="#000000" font-family="sans-serif" font-size="11.31" lengthAdjust="spacing" textLength="46.11" x="192.705" y="196.1808">conducts</text><text fill="#000000" font-family="sans-serif" font-size="11.31" lengthAdjust="spacing" textLength="6.09" x="87.0131" y="209.6056">1</text><text fill="#000000" font-family="sans-serif" font-size="11.31" lengthAdjust="spacing" textLength="4.35" x="384.5985" y="222.0473">*</text><!--MD5=[b00cf86475c6a09d663fb9b3bb7ebaa7]
@startuml

left to right direction
skinparam classAttributeIconSize 0
hide empty methods
hide empty attributes

class Test{
- code
- NhsCode
- dateOfTestRegistration
- dateOfSamplesCollection
- dateOfChemicalAnalysis
- dateOfDiagnosis
}

class Company {
-designation
}

class ParameterCategory{
  -code
  -name
}

class Receptionist{}

class Sample{
- barCode
}

class Client{
- name
- citizenCardNum
- nhsNum
- birthDate
- sex
- taxIdNum
- phoneNum
- email
}
class TestParameter{}
class TestParameterResult{
- createdAt
- value
- metric
}
class TestType{
- Code
- Description
- Collecting methods
}

class Parameter{
- code
- shortName
- description
}

class ClinicalAnalysisLaboratory{
- laboratoryID
}

Test "*" - - "1" TestType : classified as >
Report "1" - - "1" Test : is of >
Test "*" - - "1" Client : requested by >
Receptionist "1" - - "*" Test : registers >
Parameter "*" - - "1" ParameterCategory: presented under >
TestType "1" - - "1..*" ParameterCategory : characterized by >
Test "1" - - "1..*" Sample : collects >
Test "1" - - "1..*" TestParameter : requests analysis of >
TestParameter "*" - - "1" Parameter : refers to >
TestParameter "1" - - "0..1" TestParameterResult : contains >
ClinicalAnalysisLaboratory "1" - - "1..*" TestType : operates >
ClinicalAnalysisLaboratory "1" - - "1..*" Test : performs >
Company "1" - - - "*" Test : conducts >
@enduml

PlantUML version 1.2021.00(Sun Jan 10 10:25:05 GMT 2021)
(GPL source distribution)
Java Runtime: OpenJDK Runtime Environment
JVM: OpenJDK 64-Bit Server VM
Default Encoding: Cp1252
Language: pt
Country: BR
--></g></svg>