<?xml version="1.0" encoding="UTF-8" standalone="no"?><svg xmlns="http://www.w3.org/2000/svg" xmlns:xlink="http://www.w3.org/1999/xlink" contentScriptType="application/ecmascript" contentStyleType="text/css" height="2041.25px" preserveAspectRatio="none" style="width:4197px;height:2041px;" version="1.1" viewBox="0 0 4197 2041" width="4197.5px" zoomAndPan="magnify"><defs><filter height="300%" id="fyvynb4b5giyd" width="300%" x="-1" y="-1"><feGaussianBlur result="blurOut" stdDeviation="2.5"/><feColorMatrix in="blurOut" result="blurOut2" type="matrix" values="0 0 0 0 0 0 0 0 0 0 0 0 0 0 0 0 0 0 .4 0"/><feOffset dx="5.0" dy="5.0" in="blurOut2" result="blurOut3"/><feBlend in="SourceGraphic" in2="blurOut3" mode="normal"/></filter></defs><g><!--MD5=[2c2e2644034c00788261e03c85b06837]
cluster Core--><polygon fill="#FFFFFF" filter="url(#fyvynb4b5giyd)" points="20,296.25,70,296.25,78.75,325.7617,4176.25,325.7617,4176.25,2032.5,20,2032.5,20,296.25" style="stroke:#000000;stroke-width:1.875;"/><line style="stroke:#000000;stroke-width:1.875;" x1="20" x2="78.75" y1="325.7617" y2="325.7617"/><text fill="#000000" font-family="sans-serif" font-size="17.5" font-weight="bold" lengthAdjust="spacing" textLength="42.5" x="25" y="316.9165">Core</text><!--MD5=[121a8bf1197281ab89ed693fab589f94]
cluster Domain--><polygon fill="#FFFFFF" filter="url(#fyvynb4b5giyd)" points="663.75,577.5,736.25,577.5,745,607.0117,3578.75,607.0117,3578.75,2002.5,663.75,2002.5,663.75,577.5" style="stroke:#000000;stroke-width:1.875;"/><line style="stroke:#000000;stroke-width:1.875;" x1="663.75" x2="745" y1="607.0117" y2="607.0117"/><text fill="#000000" font-family="sans-serif" font-size="17.5" font-weight="bold" lengthAdjust="spacing" textLength="65" x="668.75" y="598.1665">Domain</text><!--MD5=[aedc30b8666742a3000193d7e0a0b93e]
cluster Adapters--><polygon fill="#FFFFFF" filter="url(#fyvynb4b5giyd)" points="3182.5,1003.125,3268.75,1003.125,3277.5,1032.6367,3538.75,1032.6367,3538.75,1173.125,3182.5,1173.125,3182.5,1003.125" style="stroke:#000000;stroke-width:1.875;"/><line style="stroke:#000000;stroke-width:1.875;" x1="3182.5" x2="3277.5" y1="1032.6367" y2="1032.6367"/><text fill="#000000" font-family="sans-serif" font-size="17.5" font-weight="bold" lengthAdjust="spacing" textLength="78.75" x="3187.5" y="1023.7915">Adapters</text><!--MD5=[0b89f7d34c26fffbb81ea7301eb9df33]
cluster Interfaces--><polygon fill="#FFFFFF" filter="url(#fyvynb4b5giyd)" points="3182.5,689.375,3278.75,689.375,3287.5,718.8867,3538.75,718.8867,3538.75,869.375,3182.5,869.375,3182.5,689.375" style="stroke:#000000;stroke-width:1.875;"/><line style="stroke:#000000;stroke-width:1.875;" x1="3182.5" x2="3287.5" y1="718.8867" y2="718.8867"/><text fill="#000000" font-family="sans-serif" font-size="17.5" font-weight="bold" lengthAdjust="spacing" textLength="88.75" x="3187.5" y="710.0415">Interfaces</text><!--MD5=[15636c1ca4a123c16a2a1a8e90aca7a9]
cluster Model--><polygon fill="#FFFFFF" filter="url(#fyvynb4b5giyd)" points="1801.25,663.75,1863.75,663.75,1872.5,693.2617,2828.75,693.2617,2828.75,1962.5,1801.25,1962.5,1801.25,663.75" style="stroke:#000000;stroke-width:1.875;"/><line style="stroke:#000000;stroke-width:1.875;" x1="1801.25" x2="1872.5" y1="693.2617" y2="693.2617"/><text fill="#000000" font-family="sans-serif" font-size="17.5" font-weight="bold" lengthAdjust="spacing" textLength="55" x="1806.25" y="684.4165">Model</text><!--MD5=[8dd535d56cd4cf7faf64fdd082ba836e]
cluster Stores--><polygon fill="#FFFFFF" filter="url(#fyvynb4b5giyd)" points="703.75,1003.125,768.75,1003.125,777.5,1032.6367,1751.25,1032.6367,1751.25,1526.875,703.75,1526.875,703.75,1003.125" style="stroke:#000000;stroke-width:1.875;"/><line style="stroke:#000000;stroke-width:1.875;" x1="703.75" x2="777.5" y1="1032.6367" y2="1032.6367"/><text fill="#000000" font-family="sans-serif" font-size="17.5" font-weight="bold" lengthAdjust="spacing" textLength="57.5" x="708.75" y="1023.7915">Stores</text><!--MD5=[7b8bc9ee8bb84b99fb3a3f9477c19238]
cluster DTO--><polygon fill="#FFFFFF" filter="url(#fyvynb4b5giyd)" points="2878.75,642.5,2922.5,642.5,2931.25,672.0117,3132.5,672.0117,3132.5,916.25,2878.75,916.25,2878.75,642.5" style="stroke:#000000;stroke-width:1.875;"/><line style="stroke:#000000;stroke-width:1.875;" x1="2878.75" x2="2931.25" y1="672.0117" y2="672.0117"/><text fill="#000000" font-family="sans-serif" font-size="17.5" font-weight="bold" lengthAdjust="spacing" textLength="36.25" x="2883.75" y="663.1665">DTO</text><!--MD5=[ed1d20ea533a2a0e7df5ba3c35e56ced]
cluster Controllers--><polygon fill="#FFFFFF" filter="url(#fyvynb4b5giyd)" points="60,361.25,166.25,361.25,175,390.7617,623.75,390.7617,623.75,864.375,60,864.375,60,361.25" style="stroke:#000000;stroke-width:1.875;"/><line style="stroke:#000000;stroke-width:1.875;" x1="60" x2="175" y1="390.7617" y2="390.7617"/><text fill="#000000" font-family="sans-serif" font-size="17.5" font-weight="bold" lengthAdjust="spacing" textLength="98.75" x="65" y="381.9165">Controllers</text><!--MD5=[c29634d7cdbe8f1c1e88f2fe66ae73ec]
cluster ThirdParty--><polygon fill="#FFFFFF" filter="url(#fyvynb4b5giyd)" points="3608.75,1275,3705,1275,3713.75,1304.5117,4146.25,1304.5117,4146.25,1550,3608.75,1550,3608.75,1275" style="stroke:#000000;stroke-width:1.875;"/><line style="stroke:#000000;stroke-width:1.875;" x1="3608.75" x2="3713.75" y1="1304.5117" y2="1304.5117"/><text fill="#000000" font-family="sans-serif" font-size="17.5" font-weight="bold" lengthAdjust="spacing" textLength="88.75" x="3613.75" y="1295.6665">ThirdParty</text><!--MD5=[0d079ae59d318396171bf167e6cb96b6]
cluster APIs--><polygon fill="#FFFFFF" filter="url(#fyvynb4b5giyd)" points="3760,1340,3805,1340,3813.75,1369.5117,4106.25,1369.5117,4106.25,1510,3760,1510,3760,1340" style="stroke:#000000;stroke-width:1.875;"/><line style="stroke:#000000;stroke-width:1.875;" x1="3760" x2="3813.75" y1="1369.5117" y2="1369.5117"/><text fill="#000000" font-family="sans-serif" font-size="17.5" font-weight="bold" lengthAdjust="spacing" textLength="37.5" x="3765" y="1360.6665">APIs</text><!--MD5=[9681dc6e01e10c6b4fe06895ae94f592]
cluster UI--><polygon fill="#FFFFFF" filter="url(#fyvynb4b5giyd)" points="1463.75,7.5,1488.75,7.5,1497.5,37.0117,1978.75,37.0117,1978.75,245,1463.75,245,1463.75,7.5" style="stroke:#000000;stroke-width:1.875;"/><line style="stroke:#000000;stroke-width:1.875;" x1="1463.75" x2="1497.5" y1="37.0117" y2="37.0117"/><text fill="#000000" font-family="sans-serif" font-size="17.5" font-weight="bold" lengthAdjust="spacing" textLength="17.5" x="1468.75" y="28.1665">UI</text><!--MD5=[7e40339c58605559321960399585b560]
cluster Utils--><polygon fill="#FFFFFF" filter="url(#fyvynb4b5giyd)" points="1713.75,72.5,1760,72.5,1768.75,102.0117,1938.75,102.0117,1938.75,205,1713.75,205,1713.75,72.5" style="stroke:#000000;stroke-width:1.875;"/><line style="stroke:#000000;stroke-width:1.875;" x1="1713.75" x2="1768.75" y1="102.0117" y2="102.0117"/><text fill="#000000" font-family="sans-serif" font-size="17.5" font-weight="bold" lengthAdjust="spacing" textLength="38.75" x="1718.75" y="93.1665">Utils</text><!--MD5=[b27c5c9af3cea12247b1c4c8d3c78770]
cluster GUI--><polygon fill="#FFFFFF" filter="url(#fyvynb4b5giyd)" points="1513.75,86.25,1552.5,86.25,1561.25,115.7617,1683.75,115.7617,1683.75,191.25,1513.75,191.25,1513.75,86.25" style="stroke:#000000;stroke-width:1.875;"/><line style="stroke:#000000;stroke-width:1.875;" x1="1513.75" x2="1561.25" y1="115.7617" y2="115.7617"/><text fill="#000000" font-family="sans-serif" font-size="17.5" font-weight="bold" lengthAdjust="spacing" textLength="31.25" x="1518.75" y="106.9165">GUI</text><!--MD5=[c70c4704571ee56cdf67e6a294ab2c60]
class BarbecueAdapter--><rect codeLine="11" fill="#FEFECE" filter="url(#fyvynb4b5giyd)" height="84.5898" id="BarbecueAdapter" style="stroke:#A80036;stroke-width:1.875;" width="271.25" x="3236.875" y="1058.125"/><ellipse cx="3307.8125" cy="1078.125" fill="#ADD1B2" rx="13.75" ry="13.75" style="stroke:#A80036;stroke-width:1.25;"/><path d="M3310.3125,1073.75 Q3310.5664,1073.125 3310.8594,1072.8125 Q3311.1523,1072.5 3311.4844,1072.5 Q3312.0703,1072.5 3312.4414,1072.8516 Q3312.8125,1073.2031 3312.8125,1074.0234 L3312.8125,1075.9766 Q3312.8125,1076.7969 3312.4609,1077.1484 Q3312.1094,1077.5 3311.5625,1077.5 Q3311.0742,1077.5 3310.7617,1077.2852 Q3310.4492,1077.0703 3310.3125,1076.5039 Q3310.2539,1076.1133 3310.0391,1075.8984 Q3309.6484,1075.4883 3308.9453,1075.2539 Q3308.2422,1075 3307.5391,1075 Q3306.6602,1075 3305.918,1075.3516 Q3305.1953,1075.7031 3304.6289,1076.4844 Q3304.0625,1077.2656 3304.0625,1078.3398 L3304.0625,1079.4922 Q3304.0625,1080.7813 3305.1172,1081.6406 Q3306.1719,1082.5 3308.0469,1082.5 Q3309.1602,1082.5 3309.9414,1082.2461 Q3310.3906,1082.1094 3310.8984,1081.6602 Q3311.2305,1081.4063 3311.4063,1081.3281 Q3311.582,1081.25 3311.7969,1081.25 Q3312.207,1081.25 3312.5,1081.582 Q3312.8125,1081.8945 3312.8125,1082.3438 Q3312.8125,1082.7734 3312.3828,1083.2813 Q3311.7578,1084.0234 3310.7617,1084.4336 Q3309.4531,1085 3307.8516,1085 Q3305.9766,1085 3304.4727,1084.2578 Q3303.2617,1083.6719 3302.4023,1082.4023 Q3301.5625,1081.1328 3301.5625,1079.6289 L3301.5625,1078.2617 Q3301.5625,1076.6992 3302.3047,1075.332 Q3303.0664,1073.9648 3304.375,1073.2422 Q3305.7031,1072.5 3307.1875,1072.5 Q3308.0859,1072.5 3308.8672,1072.8125 Q3309.6484,1073.125 3310.3125,1073.75 Z " fill="#000000"/><text fill="#000000" font-family="sans-serif" font-size="15" lengthAdjust="spacing" textLength="118.75" x="3333.4375" y="1084.2627">BarbecueAdapter</text><line style="stroke:#A80036;stroke-width:1.875;" x1="3238.125" x2="3506.875" y1="1098.125" y2="1098.125"/><text fill="#000000" font-family="sans-serif" font-size="13.75" lengthAdjust="spacing" textLength="256.25" x="3244.375" y="1117.3987">+MyBarcode getBarcode(barcodeNumber)</text><text fill="#000000" font-family="sans-serif" font-size="13.75" lengthAdjust="spacing" textLength="240" x="3244.375" y="1134.6936">+saveImageBarcode(myBarcode, code)</text><!--MD5=[2c3d06ea16abba5fb0e6626b718769d1]
class ExternalAPI--><rect codeLine="18" fill="#FEFECE" filter="url(#fyvynb4b5giyd)" height="94.8242" id="ExternalAPI" style="stroke:#A80036;stroke-width:1.875;" width="271.25" x="3236.875" y="744.375"/><ellipse cx="3326.5625" cy="769.4922" fill="#B4A7E5" rx="13.75" ry="13.75" style="stroke:#A80036;stroke-width:1.25;"/><path d="M3327.8125,765.7422 L3327.8125,773.2422 L3330.3125,773.2422 L3330.918,773.2422 L3331.5625,774.0234 L3331.5625,774.4922 L3331.5625,774.9609 L3330.918,775.7422 L3330.3125,775.7422 L3322.8125,775.7422 L3322.207,775.7422 L3321.5625,774.9609 L3321.5625,774.4922 L3321.5625,774.0234 L3322.207,773.2422 L3322.8125,773.2422 L3325.3125,773.2422 L3325.3125,765.7422 L3322.8125,765.7422 L3322.207,765.7422 L3321.5625,764.9609 L3321.5625,764.4922 L3321.5625,764.0234 L3322.207,763.2422 L3322.8125,763.2422 L3330.3125,763.2422 L3330.918,763.2422 L3331.5625,764.0234 L3331.5625,764.4922 L3331.5625,764.9609 L3330.918,765.7422 L3330.3125,765.7422 L3327.8125,765.7422 Z " fill="#000000"/><text fill="#000000" font-family="sans-serif" font-size="15" font-style="italic" lengthAdjust="spacing" textLength="76.25" x="3354.6875" y="766.1963">«interface»</text><text fill="#000000" font-family="sans-serif" font-size="15" font-style="italic" lengthAdjust="spacing" textLength="81.25" x="3352.1875" y="785.0635">ExternalAPI</text><line style="stroke:#A80036;stroke-width:1.875;" x1="3238.125" x2="3506.875" y1="794.6094" y2="794.6094"/><text fill="#000000" font-family="sans-serif" font-size="13.75" lengthAdjust="spacing" textLength="256.25" x="3244.375" y="813.8831">+MyBarcode getBarcode(barcodeNumber)</text><text fill="#000000" font-family="sans-serif" font-size="13.75" lengthAdjust="spacing" textLength="240" x="3244.375" y="831.178">+saveImageBarcode(myBarcode, code)</text><!--MD5=[1934a092c0e7d4da7dc7075b6f4b6b03]
class ClinicalAnalysisLaboratory--><rect codeLine="25" fill="#FEFECE" filter="url(#fyvynb4b5giyd)" height="67.2949" id="ClinicalAnalysisLaboratory" style="stroke:#A80036;stroke-width:1.875;" width="221.25" x="1950.625" y="1403.75"/><ellipse cx="1969.375" cy="1423.75" fill="#ADD1B2" rx="13.75" ry="13.75" style="stroke:#A80036;stroke-width:1.25;"/><path d="M1971.875,1419.375 Q1972.1289,1418.75 1972.4219,1418.4375 Q1972.7148,1418.125 1973.0469,1418.125 Q1973.6328,1418.125 1974.0039,1418.4766 Q1974.375,1418.8281 1974.375,1419.6484 L1974.375,1421.6016 Q1974.375,1422.4219 1974.0234,1422.7734 Q1973.6719,1423.125 1973.125,1423.125 Q1972.6367,1423.125 1972.3242,1422.9102 Q1972.0117,1422.6953 1971.875,1422.1289 Q1971.8164,1421.7383 1971.6016,1421.5234 Q1971.2109,1421.1133 1970.5078,1420.8789 Q1969.8047,1420.625 1969.1016,1420.625 Q1968.2227,1420.625 1967.4805,1420.9766 Q1966.7578,1421.3281 1966.1914,1422.1094 Q1965.625,1422.8906 1965.625,1423.9648 L1965.625,1425.1172 Q1965.625,1426.4063 1966.6797,1427.2656 Q1967.7344,1428.125 1969.6094,1428.125 Q1970.7227,1428.125 1971.5039,1427.8711 Q1971.9531,1427.7344 1972.4609,1427.2852 Q1972.793,1427.0313 1972.9688,1426.9531 Q1973.1445,1426.875 1973.3594,1426.875 Q1973.7695,1426.875 1974.0625,1427.207 Q1974.375,1427.5195 1974.375,1427.9688 Q1974.375,1428.3984 1973.9453,1428.9063 Q1973.3203,1429.6484 1972.3242,1430.0586 Q1971.0156,1430.625 1969.4141,1430.625 Q1967.5391,1430.625 1966.0352,1429.8828 Q1964.8242,1429.2969 1963.9648,1428.0273 Q1963.125,1426.7578 1963.125,1425.2539 L1963.125,1423.8867 Q1963.125,1422.3242 1963.8672,1420.957 Q1964.6289,1419.5898 1965.9375,1418.8672 Q1967.2656,1418.125 1968.75,1418.125 Q1969.6484,1418.125 1970.4297,1418.4375 Q1971.2109,1418.75 1971.875,1419.375 Z " fill="#000000"/><text fill="#000000" font-family="sans-serif" font-size="15" lengthAdjust="spacing" textLength="181.25" x="1986.875" y="1429.8877">ClinicalAnalysisLaboratory</text><line style="stroke:#A80036;stroke-width:1.875;" x1="1951.875" x2="2170.625" y1="1443.75" y2="1443.75"/><text fill="#000000" font-family="sans-serif" font-size="13.75" lengthAdjust="spacing" textLength="77.5" x="1958.125" y="1463.0237">-laboratoryID</text><!--MD5=[df38be88ccee13e832d6fafd6288a4ca]
class Test--><rect codeLine="29" fill="#FEFECE" filter="url(#fyvynb4b5giyd)" height="153.7695" id="Test" style="stroke:#A80036;stroke-width:1.875;" width="170" x="2296.25" y="1360.625"/><ellipse cx="2360.9375" cy="1380.625" fill="#ADD1B2" rx="13.75" ry="13.75" style="stroke:#A80036;stroke-width:1.25;"/><path d="M2363.4375,1376.25 Q2363.6914,1375.625 2363.9844,1375.3125 Q2364.2773,1375 2364.6094,1375 Q2365.1953,1375 2365.5664,1375.3516 Q2365.9375,1375.7031 2365.9375,1376.5234 L2365.9375,1378.4766 Q2365.9375,1379.2969 2365.5859,1379.6484 Q2365.2344,1380 2364.6875,1380 Q2364.1992,1380 2363.8867,1379.7852 Q2363.5742,1379.5703 2363.4375,1379.0039 Q2363.3789,1378.6133 2363.1641,1378.3984 Q2362.7734,1377.9883 2362.0703,1377.7539 Q2361.3672,1377.5 2360.6641,1377.5 Q2359.7852,1377.5 2359.043,1377.8516 Q2358.3203,1378.2031 2357.7539,1378.9844 Q2357.1875,1379.7656 2357.1875,1380.8398 L2357.1875,1381.9922 Q2357.1875,1383.2813 2358.2422,1384.1406 Q2359.2969,1385 2361.1719,1385 Q2362.2852,1385 2363.0664,1384.7461 Q2363.5156,1384.6094 2364.0234,1384.1602 Q2364.3555,1383.9063 2364.5313,1383.8281 Q2364.707,1383.75 2364.9219,1383.75 Q2365.332,1383.75 2365.625,1384.082 Q2365.9375,1384.3945 2365.9375,1384.8438 Q2365.9375,1385.2734 2365.5078,1385.7813 Q2364.8828,1386.5234 2363.8867,1386.9336 Q2362.5781,1387.5 2360.9766,1387.5 Q2359.1016,1387.5 2357.5977,1386.7578 Q2356.3867,1386.1719 2355.5273,1384.9023 Q2354.6875,1383.6328 2354.6875,1382.1289 L2354.6875,1380.7617 Q2354.6875,1379.1992 2355.4297,1377.832 Q2356.1914,1376.4648 2357.5,1375.7422 Q2358.8281,1375 2360.3125,1375 Q2361.2109,1375 2361.9922,1375.3125 Q2362.7734,1375.625 2363.4375,1376.25 Z " fill="#000000"/><text fill="#000000" font-family="sans-serif" font-size="15" lengthAdjust="spacing" textLength="30" x="2386.5625" y="1386.7627">Test</text><line style="stroke:#A80036;stroke-width:1.875;" x1="2297.5" x2="2465" y1="1400.625" y2="1400.625"/><text fill="#000000" font-family="sans-serif" font-size="13.75" lengthAdjust="spacing" textLength="35" x="2303.75" y="1419.8987">-code</text><text fill="#000000" font-family="sans-serif" font-size="13.75" lengthAdjust="spacing" textLength="60" x="2303.75" y="1437.1936">-NhsCode</text><text fill="#000000" font-family="sans-serif" font-size="13.75" lengthAdjust="spacing" textLength="143.75" x="2303.75" y="1454.4885">-dateOfTestRegistration</text><text fill="#000000" font-family="sans-serif" font-size="13.75" lengthAdjust="spacing" textLength="155" x="2303.75" y="1471.7834">-dateOfSamplesCollection</text><text fill="#000000" font-family="sans-serif" font-size="13.75" lengthAdjust="spacing" textLength="152.5" x="2303.75" y="1489.0784">-dateOfChemicalAnalysis</text><text fill="#000000" font-family="sans-serif" font-size="13.75" lengthAdjust="spacing" textLength="105" x="2303.75" y="1506.3733">-dateOfDiagnosis</text><!--MD5=[02e4b9b7573f1156f41e60aa5b4e25a4]
class Company--><rect codeLine="38" fill="#FEFECE" filter="url(#fyvynb4b5giyd)" height="146.4746" id="Company" style="stroke:#A80036;stroke-width:1.875;" width="145" x="2265" y="718.75"/><ellipse cx="2301.1875" cy="738.75" fill="#ADD1B2" rx="13.75" ry="13.75" style="stroke:#A80036;stroke-width:1.25;"/><path d="M2303.6875,734.375 Q2303.9414,733.75 2304.2344,733.4375 Q2304.5273,733.125 2304.8594,733.125 Q2305.4453,733.125 2305.8164,733.4766 Q2306.1875,733.8281 2306.1875,734.6484 L2306.1875,736.6016 Q2306.1875,737.4219 2305.8359,737.7734 Q2305.4844,738.125 2304.9375,738.125 Q2304.4492,738.125 2304.1367,737.9102 Q2303.8242,737.6953 2303.6875,737.1289 Q2303.6289,736.7383 2303.4141,736.5234 Q2303.0234,736.1133 2302.3203,735.8789 Q2301.6172,735.625 2300.9141,735.625 Q2300.0352,735.625 2299.293,735.9766 Q2298.5703,736.3281 2298.0039,737.1094 Q2297.4375,737.8906 2297.4375,738.9648 L2297.4375,740.1172 Q2297.4375,741.4063 2298.4922,742.2656 Q2299.5469,743.125 2301.4219,743.125 Q2302.5352,743.125 2303.3164,742.8711 Q2303.7656,742.7344 2304.2734,742.2852 Q2304.6055,742.0313 2304.7813,741.9531 Q2304.957,741.875 2305.1719,741.875 Q2305.582,741.875 2305.875,742.207 Q2306.1875,742.5195 2306.1875,742.9688 Q2306.1875,743.3984 2305.7578,743.9063 Q2305.1328,744.6484 2304.1367,745.0586 Q2302.8281,745.625 2301.2266,745.625 Q2299.3516,745.625 2297.8477,744.8828 Q2296.6367,744.2969 2295.7773,743.0273 Q2294.9375,741.7578 2294.9375,740.2539 L2294.9375,738.8867 Q2294.9375,737.3242 2295.6797,735.957 Q2296.4414,734.5898 2297.75,733.8672 Q2299.0781,733.125 2300.5625,733.125 Q2301.4609,733.125 2302.2422,733.4375 Q2303.0234,733.75 2303.6875,734.375 Z " fill="#000000"/><text fill="#000000" font-family="sans-serif" font-size="15" lengthAdjust="spacing" textLength="66.25" x="2322.5625" y="744.8877">Company</text><line style="stroke:#A80036;stroke-width:1.875;" x1="2266.25" x2="2408.75" y1="758.75" y2="758.75"/><text fill="#000000" font-family="sans-serif" font-size="13.75" lengthAdjust="spacing" textLength="120" x="2272.5" y="778.0237">-designation : String</text><line style="stroke:#A80036;stroke-width:1.875;" x1="2266.25" x2="2408.75" y1="786.0449" y2="786.0449"/><text fill="#000000" font-family="sans-serif" font-size="13.75" lengthAdjust="spacing" textLength="125" x="2272.5" y="805.3186">+getTestTypeStore()</text><text fill="#000000" font-family="sans-serif" font-size="13.75" lengthAdjust="spacing" textLength="130" x="2272.5" y="822.6135">+getParameterStore()</text><text fill="#000000" font-family="sans-serif" font-size="13.75" lengthAdjust="spacing" textLength="95" x="2272.5" y="839.9084">+getTestStore()</text><text fill="#000000" font-family="sans-serif" font-size="13.75" lengthAdjust="spacing" textLength="87.5" x="2272.5" y="857.2034">+getCalStore()</text><!--MD5=[aeb3272166074d8737a70b61b1e71682]
class TestType--><rect codeLine="45" fill="#FEFECE" filter="url(#fyvynb4b5giyd)" height="101.8848" id="TestType" style="stroke:#A80036;stroke-width:1.875;" width="166.25" x="1841.875" y="1630"/><ellipse cx="1889.3125" cy="1650" fill="#ADD1B2" rx="13.75" ry="13.75" style="stroke:#A80036;stroke-width:1.25;"/><path d="M1891.8125,1645.625 Q1892.0664,1645 1892.3594,1644.6875 Q1892.6523,1644.375 1892.9844,1644.375 Q1893.5703,1644.375 1893.9414,1644.7266 Q1894.3125,1645.0781 1894.3125,1645.8984 L1894.3125,1647.8516 Q1894.3125,1648.6719 1893.9609,1649.0234 Q1893.6094,1649.375 1893.0625,1649.375 Q1892.5742,1649.375 1892.2617,1649.1602 Q1891.9492,1648.9453 1891.8125,1648.3789 Q1891.7539,1647.9883 1891.5391,1647.7734 Q1891.1484,1647.3633 1890.4453,1647.1289 Q1889.7422,1646.875 1889.0391,1646.875 Q1888.1602,1646.875 1887.418,1647.2266 Q1886.6953,1647.5781 1886.1289,1648.3594 Q1885.5625,1649.1406 1885.5625,1650.2148 L1885.5625,1651.3672 Q1885.5625,1652.6563 1886.6172,1653.5156 Q1887.6719,1654.375 1889.5469,1654.375 Q1890.6602,1654.375 1891.4414,1654.1211 Q1891.8906,1653.9844 1892.3984,1653.5352 Q1892.7305,1653.2813 1892.9063,1653.2031 Q1893.082,1653.125 1893.2969,1653.125 Q1893.707,1653.125 1894,1653.457 Q1894.3125,1653.7695 1894.3125,1654.2188 Q1894.3125,1654.6484 1893.8828,1655.1563 Q1893.2578,1655.8984 1892.2617,1656.3086 Q1890.9531,1656.875 1889.3516,1656.875 Q1887.4766,1656.875 1885.9727,1656.1328 Q1884.7617,1655.5469 1883.9023,1654.2773 Q1883.0625,1653.0078 1883.0625,1651.5039 L1883.0625,1650.1367 Q1883.0625,1648.5742 1883.8047,1647.207 Q1884.5664,1645.8398 1885.875,1645.1172 Q1887.2031,1644.375 1888.6875,1644.375 Q1889.5859,1644.375 1890.3672,1644.6875 Q1891.1484,1645 1891.8125,1645.625 Z " fill="#000000"/><text fill="#000000" font-family="sans-serif" font-size="15" lengthAdjust="spacing" textLength="62.5" x="1913.1875" y="1656.1377">TestType</text><line style="stroke:#A80036;stroke-width:1.875;" x1="1843.125" x2="2006.875" y1="1670" y2="1670"/><text fill="#000000" font-family="sans-serif" font-size="13.75" lengthAdjust="spacing" textLength="81.25" x="1849.375" y="1689.2737">-code : String</text><text fill="#000000" font-family="sans-serif" font-size="13.75" lengthAdjust="spacing" textLength="117.5" x="1849.375" y="1706.5686">-description : String</text><text fill="#000000" font-family="sans-serif" font-size="13.75" lengthAdjust="spacing" textLength="151.25" x="1849.375" y="1723.8635">-collectingMethod : String</text><!--MD5=[9681492165142af2a4a3a169d90ee8d4]
class Sample--><rect codeLine="51" fill="#FEFECE" filter="url(#fyvynb4b5giyd)" height="67.2949" id="Sample" style="stroke:#A80036;stroke-width:1.875;" width="93.75" x="2658.125" y="1647.5"/><ellipse cx="2676.875" cy="1667.5" fill="#ADD1B2" rx="13.75" ry="13.75" style="stroke:#A80036;stroke-width:1.25;"/><path d="M2679.375,1663.125 Q2679.6289,1662.5 2679.9219,1662.1875 Q2680.2148,1661.875 2680.5469,1661.875 Q2681.1328,1661.875 2681.5039,1662.2266 Q2681.875,1662.5781 2681.875,1663.3984 L2681.875,1665.3516 Q2681.875,1666.1719 2681.5234,1666.5234 Q2681.1719,1666.875 2680.625,1666.875 Q2680.1367,1666.875 2679.8242,1666.6602 Q2679.5117,1666.4453 2679.375,1665.8789 Q2679.3164,1665.4883 2679.1016,1665.2734 Q2678.7109,1664.8633 2678.0078,1664.6289 Q2677.3047,1664.375 2676.6016,1664.375 Q2675.7227,1664.375 2674.9805,1664.7266 Q2674.2578,1665.0781 2673.6914,1665.8594 Q2673.125,1666.6406 2673.125,1667.7148 L2673.125,1668.8672 Q2673.125,1670.1563 2674.1797,1671.0156 Q2675.2344,1671.875 2677.1094,1671.875 Q2678.2227,1671.875 2679.0039,1671.6211 Q2679.4531,1671.4844 2679.9609,1671.0352 Q2680.293,1670.7813 2680.4688,1670.7031 Q2680.6445,1670.625 2680.8594,1670.625 Q2681.2695,1670.625 2681.5625,1670.957 Q2681.875,1671.2695 2681.875,1671.7188 Q2681.875,1672.1484 2681.4453,1672.6563 Q2680.8203,1673.3984 2679.8242,1673.8086 Q2678.5156,1674.375 2676.9141,1674.375 Q2675.0391,1674.375 2673.5352,1673.6328 Q2672.3242,1673.0469 2671.4648,1671.7773 Q2670.625,1670.5078 2670.625,1669.0039 L2670.625,1667.6367 Q2670.625,1666.0742 2671.3672,1664.707 Q2672.1289,1663.3398 2673.4375,1662.6172 Q2674.7656,1661.875 2676.25,1661.875 Q2677.1484,1661.875 2677.9297,1662.1875 Q2678.7109,1662.5 2679.375,1663.125 Z " fill="#000000"/><text fill="#000000" font-family="sans-serif" font-size="15" lengthAdjust="spacing" textLength="53.75" x="2694.375" y="1673.6377">Sample</text><line style="stroke:#A80036;stroke-width:1.875;" x1="2659.375" x2="2750.625" y1="1687.5" y2="1687.5"/><text fill="#000000" font-family="sans-serif" font-size="13.75" lengthAdjust="spacing" textLength="73.75" x="2665.625" y="1706.7737">-myBarcode</text><!--MD5=[1f6362a5c8f21d8d6a0fce68f3a92a4e]
class Parameter--><rect codeLine="55" fill="#FEFECE" filter="url(#fyvynb4b5giyd)" height="101.8848" id="Parameter" style="stroke:#A80036;stroke-width:1.875;" width="112.5" x="2121.25" y="1830"/><ellipse cx="2140" cy="1850" fill="#ADD1B2" rx="13.75" ry="13.75" style="stroke:#A80036;stroke-width:1.25;"/><path d="M2142.5,1845.625 Q2142.7539,1845 2143.0469,1844.6875 Q2143.3398,1844.375 2143.6719,1844.375 Q2144.2578,1844.375 2144.6289,1844.7266 Q2145,1845.0781 2145,1845.8984 L2145,1847.8516 Q2145,1848.6719 2144.6484,1849.0234 Q2144.2969,1849.375 2143.75,1849.375 Q2143.2617,1849.375 2142.9492,1849.1602 Q2142.6367,1848.9453 2142.5,1848.3789 Q2142.4414,1847.9883 2142.2266,1847.7734 Q2141.8359,1847.3633 2141.1328,1847.1289 Q2140.4297,1846.875 2139.7266,1846.875 Q2138.8477,1846.875 2138.1055,1847.2266 Q2137.3828,1847.5781 2136.8164,1848.3594 Q2136.25,1849.1406 2136.25,1850.2148 L2136.25,1851.3672 Q2136.25,1852.6563 2137.3047,1853.5156 Q2138.3594,1854.375 2140.2344,1854.375 Q2141.3477,1854.375 2142.1289,1854.1211 Q2142.5781,1853.9844 2143.0859,1853.5352 Q2143.418,1853.2813 2143.5938,1853.2031 Q2143.7695,1853.125 2143.9844,1853.125 Q2144.3945,1853.125 2144.6875,1853.457 Q2145,1853.7695 2145,1854.2188 Q2145,1854.6484 2144.5703,1855.1563 Q2143.9453,1855.8984 2142.9492,1856.3086 Q2141.6406,1856.875 2140.0391,1856.875 Q2138.1641,1856.875 2136.6602,1856.1328 Q2135.4492,1855.5469 2134.5898,1854.2773 Q2133.75,1853.0078 2133.75,1851.5039 L2133.75,1850.1367 Q2133.75,1848.5742 2134.4922,1847.207 Q2135.2539,1845.8398 2136.5625,1845.1172 Q2137.8906,1844.375 2139.375,1844.375 Q2140.2734,1844.375 2141.0547,1844.6875 Q2141.8359,1845 2142.5,1845.625 Z " fill="#000000"/><text fill="#000000" font-family="sans-serif" font-size="15" lengthAdjust="spacing" textLength="72.5" x="2157.5" y="1856.1377">Parameter</text><line style="stroke:#A80036;stroke-width:1.875;" x1="2122.5" x2="2232.5" y1="1870" y2="1870"/><text fill="#000000" font-family="sans-serif" font-size="13.75" lengthAdjust="spacing" textLength="35" x="2128.75" y="1889.2737">-code</text><text fill="#000000" font-family="sans-serif" font-size="13.75" lengthAdjust="spacing" textLength="70" x="2128.75" y="1906.5686">-shortName</text><text fill="#000000" font-family="sans-serif" font-size="13.75" lengthAdjust="spacing" textLength="71.25" x="2128.75" y="1923.8635">-description</text><!--MD5=[0f07739f46effee96e095e9c408da841]
class TestParameter--><rect codeLine="60" fill="#FEFECE" filter="url(#fyvynb4b5giyd)" height="67.2949" id="TestParameter" style="stroke:#A80036;stroke-width:1.875;" width="250" x="2052.5" y="1647.5"/><ellipse cx="2120.9375" cy="1667.5" fill="#ADD1B2" rx="13.75" ry="13.75" style="stroke:#A80036;stroke-width:1.25;"/><path d="M2123.4375,1663.125 Q2123.6914,1662.5 2123.9844,1662.1875 Q2124.2773,1661.875 2124.6094,1661.875 Q2125.1953,1661.875 2125.5664,1662.2266 Q2125.9375,1662.5781 2125.9375,1663.3984 L2125.9375,1665.3516 Q2125.9375,1666.1719 2125.5859,1666.5234 Q2125.2344,1666.875 2124.6875,1666.875 Q2124.1992,1666.875 2123.8867,1666.6602 Q2123.5742,1666.4453 2123.4375,1665.8789 Q2123.3789,1665.4883 2123.1641,1665.2734 Q2122.7734,1664.8633 2122.0703,1664.6289 Q2121.3672,1664.375 2120.6641,1664.375 Q2119.7852,1664.375 2119.043,1664.7266 Q2118.3203,1665.0781 2117.7539,1665.8594 Q2117.1875,1666.6406 2117.1875,1667.7148 L2117.1875,1668.8672 Q2117.1875,1670.1563 2118.2422,1671.0156 Q2119.2969,1671.875 2121.1719,1671.875 Q2122.2852,1671.875 2123.0664,1671.6211 Q2123.5156,1671.4844 2124.0234,1671.0352 Q2124.3555,1670.7813 2124.5313,1670.7031 Q2124.707,1670.625 2124.9219,1670.625 Q2125.332,1670.625 2125.625,1670.957 Q2125.9375,1671.2695 2125.9375,1671.7188 Q2125.9375,1672.1484 2125.5078,1672.6563 Q2124.8828,1673.3984 2123.8867,1673.8086 Q2122.5781,1674.375 2120.9766,1674.375 Q2119.1016,1674.375 2117.5977,1673.6328 Q2116.3867,1673.0469 2115.5273,1671.7773 Q2114.6875,1670.5078 2114.6875,1669.0039 L2114.6875,1667.6367 Q2114.6875,1666.0742 2115.4297,1664.707 Q2116.1914,1663.3398 2117.5,1662.6172 Q2118.8281,1661.875 2120.3125,1661.875 Q2121.2109,1661.875 2121.9922,1662.1875 Q2122.7734,1662.5 2123.4375,1663.125 Z " fill="#000000"/><text fill="#000000" font-family="sans-serif" font-size="15" lengthAdjust="spacing" textLength="102.5" x="2146.5625" y="1673.6377">TestParameter</text><line style="stroke:#A80036;stroke-width:1.875;" x1="2053.75" x2="2301.25" y1="1687.5" y2="1687.5"/><text fill="#000000" font-family="sans-serif" font-size="13.75" lengthAdjust="spacing" textLength="235" x="2060" y="1706.7737">+TestParameter(parameter: Parameter)</text><!--MD5=[4e608140b854dae633589343bce77383]
class TestParameterResult--><rect codeLine="63" fill="#FEFECE" filter="url(#fyvynb4b5giyd)" height="101.8848" id="TestParameterResult" style="stroke:#A80036;stroke-width:1.875;" width="187.5" x="2426.25" y="1630"/><ellipse cx="2445" cy="1650" fill="#ADD1B2" rx="13.75" ry="13.75" style="stroke:#A80036;stroke-width:1.25;"/><path d="M2447.5,1645.625 Q2447.7539,1645 2448.0469,1644.6875 Q2448.3398,1644.375 2448.6719,1644.375 Q2449.2578,1644.375 2449.6289,1644.7266 Q2450,1645.0781 2450,1645.8984 L2450,1647.8516 Q2450,1648.6719 2449.6484,1649.0234 Q2449.2969,1649.375 2448.75,1649.375 Q2448.2617,1649.375 2447.9492,1649.1602 Q2447.6367,1648.9453 2447.5,1648.3789 Q2447.4414,1647.9883 2447.2266,1647.7734 Q2446.8359,1647.3633 2446.1328,1647.1289 Q2445.4297,1646.875 2444.7266,1646.875 Q2443.8477,1646.875 2443.1055,1647.2266 Q2442.3828,1647.5781 2441.8164,1648.3594 Q2441.25,1649.1406 2441.25,1650.2148 L2441.25,1651.3672 Q2441.25,1652.6563 2442.3047,1653.5156 Q2443.3594,1654.375 2445.2344,1654.375 Q2446.3477,1654.375 2447.1289,1654.1211 Q2447.5781,1653.9844 2448.0859,1653.5352 Q2448.418,1653.2813 2448.5938,1653.2031 Q2448.7695,1653.125 2448.9844,1653.125 Q2449.3945,1653.125 2449.6875,1653.457 Q2450,1653.7695 2450,1654.2188 Q2450,1654.6484 2449.5703,1655.1563 Q2448.9453,1655.8984 2447.9492,1656.3086 Q2446.6406,1656.875 2445.0391,1656.875 Q2443.1641,1656.875 2441.6602,1656.1328 Q2440.4492,1655.5469 2439.5898,1654.2773 Q2438.75,1653.0078 2438.75,1651.5039 L2438.75,1650.1367 Q2438.75,1648.5742 2439.4922,1647.207 Q2440.2539,1645.8398 2441.5625,1645.1172 Q2442.8906,1644.375 2444.375,1644.375 Q2445.2734,1644.375 2446.0547,1644.6875 Q2446.8359,1645 2447.5,1645.625 Z " fill="#000000"/><text fill="#000000" font-family="sans-serif" font-size="15" lengthAdjust="spacing" textLength="147.5" x="2462.5" y="1656.1377">TestParameterResult</text><line style="stroke:#A80036;stroke-width:1.875;" x1="2427.5" x2="2612.5" y1="1670" y2="1670"/><text fill="#000000" font-family="sans-serif" font-size="13.75" lengthAdjust="spacing" textLength="65" x="2433.75" y="1689.2737">-createdAt</text><text fill="#000000" font-family="sans-serif" font-size="13.75" lengthAdjust="spacing" textLength="37.5" x="2433.75" y="1706.5686">-value</text><text fill="#000000" font-family="sans-serif" font-size="13.75" lengthAdjust="spacing" textLength="41.25" x="2433.75" y="1723.8635">-metric</text><!--MD5=[ed6624c6556d5e7b1bd23032162d20b7]
class Client--><rect codeLine="69" fill="#FEFECE" filter="url(#fyvynb4b5giyd)" height="188.3594" id="Client" style="stroke:#A80036;stroke-width:1.875;" width="113.75" x="2300.625" y="1006.25"/><ellipse cx="2334.5625" cy="1026.25" fill="#ADD1B2" rx="13.75" ry="13.75" style="stroke:#A80036;stroke-width:1.25;"/><path d="M2337.0625,1021.875 Q2337.3164,1021.25 2337.6094,1020.9375 Q2337.9023,1020.625 2338.2344,1020.625 Q2338.8203,1020.625 2339.1914,1020.9766 Q2339.5625,1021.3281 2339.5625,1022.1484 L2339.5625,1024.1016 Q2339.5625,1024.9219 2339.2109,1025.2734 Q2338.8594,1025.625 2338.3125,1025.625 Q2337.8242,1025.625 2337.5117,1025.4102 Q2337.1992,1025.1953 2337.0625,1024.6289 Q2337.0039,1024.2383 2336.7891,1024.0234 Q2336.3984,1023.6133 2335.6953,1023.3789 Q2334.9922,1023.125 2334.2891,1023.125 Q2333.4102,1023.125 2332.668,1023.4766 Q2331.9453,1023.8281 2331.3789,1024.6094 Q2330.8125,1025.3906 2330.8125,1026.4648 L2330.8125,1027.6172 Q2330.8125,1028.9063 2331.8672,1029.7656 Q2332.9219,1030.625 2334.7969,1030.625 Q2335.9102,1030.625 2336.6914,1030.3711 Q2337.1406,1030.2344 2337.6484,1029.7852 Q2337.9805,1029.5313 2338.1563,1029.4531 Q2338.332,1029.375 2338.5469,1029.375 Q2338.957,1029.375 2339.25,1029.707 Q2339.5625,1030.0195 2339.5625,1030.4688 Q2339.5625,1030.8984 2339.1328,1031.4063 Q2338.5078,1032.1484 2337.5117,1032.5586 Q2336.2031,1033.125 2334.6016,1033.125 Q2332.7266,1033.125 2331.2227,1032.3828 Q2330.0117,1031.7969 2329.1523,1030.5273 Q2328.3125,1029.2578 2328.3125,1027.7539 L2328.3125,1026.3867 Q2328.3125,1024.8242 2329.0547,1023.457 Q2329.8164,1022.0898 2331.125,1021.3672 Q2332.4531,1020.625 2333.9375,1020.625 Q2334.8359,1020.625 2335.6172,1020.9375 Q2336.3984,1021.25 2337.0625,1021.875 Z " fill="#000000"/><text fill="#000000" font-family="sans-serif" font-size="15" lengthAdjust="spacing" textLength="40" x="2355.4375" y="1032.3877">Client</text><line style="stroke:#A80036;stroke-width:1.875;" x1="2301.875" x2="2413.125" y1="1046.25" y2="1046.25"/><text fill="#000000" font-family="sans-serif" font-size="13.75" lengthAdjust="spacing" textLength="37.5" x="2308.125" y="1065.5237">-name</text><text fill="#000000" font-family="sans-serif" font-size="13.75" lengthAdjust="spacing" textLength="98.75" x="2308.125" y="1082.8186">-citizenCardNum</text><text fill="#000000" font-family="sans-serif" font-size="13.75" lengthAdjust="spacing" textLength="53.75" x="2308.125" y="1100.1135">-nhsNum</text><text fill="#000000" font-family="sans-serif" font-size="13.75" lengthAdjust="spacing" textLength="58.75" x="2308.125" y="1117.4084">-birthDate</text><text fill="#000000" font-family="sans-serif" font-size="13.75" lengthAdjust="spacing" textLength="27.5" x="2308.125" y="1134.7034">-sex</text><text fill="#000000" font-family="sans-serif" font-size="13.75" lengthAdjust="spacing" textLength="60" x="2308.125" y="1151.9983">-taxIdNum</text><text fill="#000000" font-family="sans-serif" font-size="13.75" lengthAdjust="spacing" textLength="68.75" x="2308.125" y="1169.2932">-phoneNum</text><text fill="#000000" font-family="sans-serif" font-size="13.75" lengthAdjust="spacing" textLength="35" x="2308.125" y="1186.5881">-email</text><!--MD5=[b42cc4842635d5e6eb486abf1ddf7193]
class MyBarcode--><rect codeLine="80" fill="#FEFECE" filter="url(#fyvynb4b5giyd)" height="67.2949" id="MyBarcode" style="stroke:#A80036;stroke-width:1.875;" width="116.25" x="2615.625" y="1847.5"/><ellipse cx="2634.9375" cy="1867.5" fill="#ADD1B2" rx="13.75" ry="13.75" style="stroke:#A80036;stroke-width:1.25;"/><path d="M2637.4375,1863.125 Q2637.6914,1862.5 2637.9844,1862.1875 Q2638.2773,1861.875 2638.6094,1861.875 Q2639.1953,1861.875 2639.5664,1862.2266 Q2639.9375,1862.5781 2639.9375,1863.3984 L2639.9375,1865.3516 Q2639.9375,1866.1719 2639.5859,1866.5234 Q2639.2344,1866.875 2638.6875,1866.875 Q2638.1992,1866.875 2637.8867,1866.6602 Q2637.5742,1866.4453 2637.4375,1865.8789 Q2637.3789,1865.4883 2637.1641,1865.2734 Q2636.7734,1864.8633 2636.0703,1864.6289 Q2635.3672,1864.375 2634.6641,1864.375 Q2633.7852,1864.375 2633.043,1864.7266 Q2632.3203,1865.0781 2631.7539,1865.8594 Q2631.1875,1866.6406 2631.1875,1867.7148 L2631.1875,1868.8672 Q2631.1875,1870.1563 2632.2422,1871.0156 Q2633.2969,1871.875 2635.1719,1871.875 Q2636.2852,1871.875 2637.0664,1871.6211 Q2637.5156,1871.4844 2638.0234,1871.0352 Q2638.3555,1870.7813 2638.5313,1870.7031 Q2638.707,1870.625 2638.9219,1870.625 Q2639.332,1870.625 2639.625,1870.957 Q2639.9375,1871.2695 2639.9375,1871.7188 Q2639.9375,1872.1484 2639.5078,1872.6563 Q2638.8828,1873.3984 2637.8867,1873.8086 Q2636.5781,1874.375 2634.9766,1874.375 Q2633.1016,1874.375 2631.5977,1873.6328 Q2630.3867,1873.0469 2629.5273,1871.7773 Q2628.6875,1870.5078 2628.6875,1869.0039 L2628.6875,1867.6367 Q2628.6875,1866.0742 2629.4297,1864.707 Q2630.1914,1863.3398 2631.5,1862.6172 Q2632.8281,1861.875 2634.3125,1861.875 Q2635.2109,1861.875 2635.9922,1862.1875 Q2636.7734,1862.5 2637.4375,1863.125 Z " fill="#000000"/><text fill="#000000" font-family="sans-serif" font-size="15" lengthAdjust="spacing" textLength="75" x="2652.5625" y="1873.6377">MyBarcode</text><line style="stroke:#A80036;stroke-width:1.875;" x1="2616.875" x2="2730.625" y1="1887.5" y2="1887.5"/><text fill="#000000" font-family="sans-serif" font-size="13.75" lengthAdjust="spacing" textLength="101.25" x="2623.125" y="1906.7737">-barcodeNumber</text><!--MD5=[55cb992be19579b505cea3c5691093cb]
class ClientStore--><rect codeLine="88" fill="#FEFECE" filter="url(#fyvynb4b5giyd)" height="67.2949" id="ClientStore" style="stroke:#A80036;stroke-width:1.875;" width="223.75" x="816.875" y="1066.875"/><ellipse cx="885.3125" cy="1086.875" fill="#ADD1B2" rx="13.75" ry="13.75" style="stroke:#A80036;stroke-width:1.25;"/><path d="M887.8125,1082.5 Q888.0664,1081.875 888.3594,1081.5625 Q888.6523,1081.25 888.9844,1081.25 Q889.5703,1081.25 889.9414,1081.6016 Q890.3125,1081.9531 890.3125,1082.7734 L890.3125,1084.7266 Q890.3125,1085.5469 889.9609,1085.8984 Q889.6094,1086.25 889.0625,1086.25 Q888.5742,1086.25 888.2617,1086.0352 Q887.9492,1085.8203 887.8125,1085.2539 Q887.7539,1084.8633 887.5391,1084.6484 Q887.1484,1084.2383 886.4453,1084.0039 Q885.7422,1083.75 885.0391,1083.75 Q884.1602,1083.75 883.418,1084.1016 Q882.6953,1084.4531 882.1289,1085.2344 Q881.5625,1086.0156 881.5625,1087.0898 L881.5625,1088.2422 Q881.5625,1089.5313 882.6172,1090.3906 Q883.6719,1091.25 885.5469,1091.25 Q886.6602,1091.25 887.4414,1090.9961 Q887.8906,1090.8594 888.3984,1090.4102 Q888.7305,1090.1563 888.9063,1090.0781 Q889.082,1090 889.2969,1090 Q889.707,1090 890,1090.332 Q890.3125,1090.6445 890.3125,1091.0938 Q890.3125,1091.5234 889.8828,1092.0313 Q889.2578,1092.7734 888.2617,1093.1836 Q886.9531,1093.75 885.3516,1093.75 Q883.4766,1093.75 881.9727,1093.0078 Q880.7617,1092.4219 879.9023,1091.1523 Q879.0625,1089.8828 879.0625,1088.3789 L879.0625,1087.0117 Q879.0625,1085.4492 879.8047,1084.082 Q880.5664,1082.7148 881.875,1081.9922 Q883.2031,1081.25 884.6875,1081.25 Q885.5859,1081.25 886.3672,1081.5625 Q887.1484,1081.875 887.8125,1082.5 Z " fill="#000000"/><text fill="#000000" font-family="sans-serif" font-size="15" lengthAdjust="spacing" textLength="76.25" x="910.9375" y="1093.0127">ClientStore</text><line style="stroke:#A80036;stroke-width:1.875;" x1="818.125" x2="1039.375" y1="1106.875" y2="1106.875"/><text fill="#000000" font-family="sans-serif" font-size="13.75" lengthAdjust="spacing" textLength="208.75" x="824.375" y="1126.1487">+getClientByTinNumber(tinNumber)</text><!--MD5=[be7802b157a16874d39c59ca0e2b25be]
class ParameterStore--><rect codeLine="92" fill="#FEFECE" filter="url(#fyvynb4b5giyd)" height="84.5898" id="ParameterStore" style="stroke:#A80036;stroke-width:1.875;" width="407.5" x="1085" y="1058.125"/><ellipse cx="1229.0625" cy="1078.125" fill="#ADD1B2" rx="13.75" ry="13.75" style="stroke:#A80036;stroke-width:1.25;"/><path d="M1231.5625,1073.75 Q1231.8164,1073.125 1232.1094,1072.8125 Q1232.4023,1072.5 1232.7344,1072.5 Q1233.3203,1072.5 1233.6914,1072.8516 Q1234.0625,1073.2031 1234.0625,1074.0234 L1234.0625,1075.9766 Q1234.0625,1076.7969 1233.7109,1077.1484 Q1233.3594,1077.5 1232.8125,1077.5 Q1232.3242,1077.5 1232.0117,1077.2852 Q1231.6992,1077.0703 1231.5625,1076.5039 Q1231.5039,1076.1133 1231.2891,1075.8984 Q1230.8984,1075.4883 1230.1953,1075.2539 Q1229.4922,1075 1228.7891,1075 Q1227.9102,1075 1227.168,1075.3516 Q1226.4453,1075.7031 1225.8789,1076.4844 Q1225.3125,1077.2656 1225.3125,1078.3398 L1225.3125,1079.4922 Q1225.3125,1080.7813 1226.3672,1081.6406 Q1227.4219,1082.5 1229.2969,1082.5 Q1230.4102,1082.5 1231.1914,1082.2461 Q1231.6406,1082.1094 1232.1484,1081.6602 Q1232.4805,1081.4063 1232.6563,1081.3281 Q1232.832,1081.25 1233.0469,1081.25 Q1233.457,1081.25 1233.75,1081.582 Q1234.0625,1081.8945 1234.0625,1082.3438 Q1234.0625,1082.7734 1233.6328,1083.2813 Q1233.0078,1084.0234 1232.0117,1084.4336 Q1230.7031,1085 1229.1016,1085 Q1227.2266,1085 1225.7227,1084.2578 Q1224.5117,1083.6719 1223.6523,1082.4023 Q1222.8125,1081.1328 1222.8125,1079.6289 L1222.8125,1078.2617 Q1222.8125,1076.6992 1223.5547,1075.332 Q1224.3164,1073.9648 1225.625,1073.2422 Q1226.9531,1072.5 1228.4375,1072.5 Q1229.3359,1072.5 1230.1172,1072.8125 Q1230.8984,1073.125 1231.5625,1073.75 Z " fill="#000000"/><text fill="#000000" font-family="sans-serif" font-size="15" lengthAdjust="spacing" textLength="108.75" x="1254.6875" y="1084.2627">ParameterStore</text><line style="stroke:#A80036;stroke-width:1.875;" x1="1086.25" x2="1491.25" y1="1098.125" y2="1098.125"/><text fill="#000000" font-family="sans-serif" font-size="13.75" lengthAdjust="spacing" textLength="392.5" x="1092.5" y="1117.3987">+getParamsByCategories(List&lt;String&gt; selectedCategoriesCodes)</text><text fill="#000000" font-family="sans-serif" font-size="13.75" lengthAdjust="spacing" textLength="245" x="1092.5" y="1134.6936">+getParamsByCategory(String category)</text><!--MD5=[fcd6df96e169c9fc6403c4dc9bdb4d83]
class SampleStore--><rect codeLine="97" fill="#FEFECE" filter="url(#fyvynb4b5giyd)" height="84.5898" id="SampleStore" style="stroke:#A80036;stroke-width:1.875;" width="183.75" x="1536.875" y="1058.125"/><ellipse cx="1579.8125" cy="1078.125" fill="#ADD1B2" rx="13.75" ry="13.75" style="stroke:#A80036;stroke-width:1.25;"/><path d="M1582.3125,1073.75 Q1582.5664,1073.125 1582.8594,1072.8125 Q1583.1523,1072.5 1583.4844,1072.5 Q1584.0703,1072.5 1584.4414,1072.8516 Q1584.8125,1073.2031 1584.8125,1074.0234 L1584.8125,1075.9766 Q1584.8125,1076.7969 1584.4609,1077.1484 Q1584.1094,1077.5 1583.5625,1077.5 Q1583.0742,1077.5 1582.7617,1077.2852 Q1582.4492,1077.0703 1582.3125,1076.5039 Q1582.2539,1076.1133 1582.0391,1075.8984 Q1581.6484,1075.4883 1580.9453,1075.2539 Q1580.2422,1075 1579.5391,1075 Q1578.6602,1075 1577.918,1075.3516 Q1577.1953,1075.7031 1576.6289,1076.4844 Q1576.0625,1077.2656 1576.0625,1078.3398 L1576.0625,1079.4922 Q1576.0625,1080.7813 1577.1172,1081.6406 Q1578.1719,1082.5 1580.0469,1082.5 Q1581.1602,1082.5 1581.9414,1082.2461 Q1582.3906,1082.1094 1582.8984,1081.6602 Q1583.2305,1081.4063 1583.4063,1081.3281 Q1583.582,1081.25 1583.7969,1081.25 Q1584.207,1081.25 1584.5,1081.582 Q1584.8125,1081.8945 1584.8125,1082.3438 Q1584.8125,1082.7734 1584.3828,1083.2813 Q1583.7578,1084.0234 1582.7617,1084.4336 Q1581.4531,1085 1579.8516,1085 Q1577.9766,1085 1576.4727,1084.2578 Q1575.2617,1083.6719 1574.4023,1082.4023 Q1573.5625,1081.1328 1573.5625,1079.6289 L1573.5625,1078.2617 Q1573.5625,1076.6992 1574.3047,1075.332 Q1575.0664,1073.9648 1576.375,1073.2422 Q1577.7031,1072.5 1579.1875,1072.5 Q1580.0859,1072.5 1580.8672,1072.8125 Q1581.6484,1073.125 1582.3125,1073.75 Z " fill="#000000"/><text fill="#000000" font-family="sans-serif" font-size="15" lengthAdjust="spacing" textLength="90" x="1602.6875" y="1084.2627">SampleStore</text><line style="stroke:#A80036;stroke-width:1.875;" x1="1538.125" x2="1719.375" y1="1098.125" y2="1098.125"/><text fill="#000000" font-family="sans-serif" font-size="13.75" lengthAdjust="spacing" textLength="168.75" x="1544.375" y="1117.3987">+createSample(myBarcode)</text><text fill="#000000" font-family="sans-serif" font-size="13.75" lengthAdjust="spacing" textLength="150" x="1544.375" y="1134.6936">+validateSample(sample)</text><!--MD5=[0f6f7964b844a64b0496af0dda7914bd]
class TestStore--><rect codeLine="102" fill="#FEFECE" filter="url(#fyvynb4b5giyd)" height="119.1797" id="TestStore" style="stroke:#A80036;stroke-width:1.875;" width="413.75" x="744.375" y="1378.125"/><ellipse cx="912.8125" cy="1398.125" fill="#ADD1B2" rx="13.75" ry="13.75" style="stroke:#A80036;stroke-width:1.25;"/><path d="M915.3125,1393.75 Q915.5664,1393.125 915.8594,1392.8125 Q916.1523,1392.5 916.4844,1392.5 Q917.0703,1392.5 917.4414,1392.8516 Q917.8125,1393.2031 917.8125,1394.0234 L917.8125,1395.9766 Q917.8125,1396.7969 917.4609,1397.1484 Q917.1094,1397.5 916.5625,1397.5 Q916.0742,1397.5 915.7617,1397.2852 Q915.4492,1397.0703 915.3125,1396.5039 Q915.2539,1396.1133 915.0391,1395.8984 Q914.6484,1395.4883 913.9453,1395.2539 Q913.2422,1395 912.5391,1395 Q911.6602,1395 910.918,1395.3516 Q910.1953,1395.7031 909.6289,1396.4844 Q909.0625,1397.2656 909.0625,1398.3398 L909.0625,1399.4922 Q909.0625,1400.7813 910.1172,1401.6406 Q911.1719,1402.5 913.0469,1402.5 Q914.1602,1402.5 914.9414,1402.2461 Q915.3906,1402.1094 915.8984,1401.6602 Q916.2305,1401.4063 916.4063,1401.3281 Q916.582,1401.25 916.7969,1401.25 Q917.207,1401.25 917.5,1401.582 Q917.8125,1401.8945 917.8125,1402.3438 Q917.8125,1402.7734 917.3828,1403.2813 Q916.7578,1404.0234 915.7617,1404.4336 Q914.4531,1405 912.8516,1405 Q910.9766,1405 909.4727,1404.2578 Q908.2617,1403.6719 907.4023,1402.4023 Q906.5625,1401.1328 906.5625,1399.6289 L906.5625,1398.2617 Q906.5625,1396.6992 907.3047,1395.332 Q908.0664,1393.9648 909.375,1393.2422 Q910.7031,1392.5 912.1875,1392.5 Q913.0859,1392.5 913.8672,1392.8125 Q914.6484,1393.125 915.3125,1393.75 Z " fill="#000000"/><text fill="#000000" font-family="sans-serif" font-size="15" lengthAdjust="spacing" textLength="66.25" x="938.4375" y="1404.2627">TestStore</text><line style="stroke:#A80036;stroke-width:1.875;" x1="745.625" x2="1156.875" y1="1418.125" y2="1418.125"/><text fill="#000000" font-family="sans-serif" font-size="13.75" lengthAdjust="spacing" textLength="316.25" x="751.875" y="1437.3987">+createTest(String nhsCode, Client associatedClient,</text><text fill="#000000" font-family="sans-serif" font-size="13.75" lengthAdjust="spacing" textLength="395" x="755.625" y="1454.6936">TestType selectedTestType, List&lt;Parameter&gt;selectedParamsList)</text><text fill="#000000" font-family="sans-serif" font-size="13.75" lengthAdjust="spacing" textLength="112.5" x="751.875" y="1471.9885">+validateTest(test)</text><text fill="#000000" font-family="sans-serif" font-size="13.75" lengthAdjust="spacing" textLength="96.25" x="751.875" y="1489.2834">+saveTest(test)</text><!--MD5=[438281daef332c5ccec4fb6cf3747e9a]
class ClinicalAnalysisLaboratoryStore--><rect codeLine="108" fill="#FEFECE" filter="url(#fyvynb4b5giyd)" height="67.2949" id="ClinicalAnalysisLaboratoryStore" style="stroke:#A80036;stroke-width:1.875;" width="257.5" x="1202.5" y="1403.75"/><ellipse cx="1221.25" cy="1423.75" fill="#ADD1B2" rx="13.75" ry="13.75" style="stroke:#A80036;stroke-width:1.25;"/><path d="M1223.75,1419.375 Q1224.0039,1418.75 1224.2969,1418.4375 Q1224.5898,1418.125 1224.9219,1418.125 Q1225.5078,1418.125 1225.8789,1418.4766 Q1226.25,1418.8281 1226.25,1419.6484 L1226.25,1421.6016 Q1226.25,1422.4219 1225.8984,1422.7734 Q1225.5469,1423.125 1225,1423.125 Q1224.5117,1423.125 1224.1992,1422.9102 Q1223.8867,1422.6953 1223.75,1422.1289 Q1223.6914,1421.7383 1223.4766,1421.5234 Q1223.0859,1421.1133 1222.3828,1420.8789 Q1221.6797,1420.625 1220.9766,1420.625 Q1220.0977,1420.625 1219.3555,1420.9766 Q1218.6328,1421.3281 1218.0664,1422.1094 Q1217.5,1422.8906 1217.5,1423.9648 L1217.5,1425.1172 Q1217.5,1426.4063 1218.5547,1427.2656 Q1219.6094,1428.125 1221.4844,1428.125 Q1222.5977,1428.125 1223.3789,1427.8711 Q1223.8281,1427.7344 1224.3359,1427.2852 Q1224.668,1427.0313 1224.8438,1426.9531 Q1225.0195,1426.875 1225.2344,1426.875 Q1225.6445,1426.875 1225.9375,1427.207 Q1226.25,1427.5195 1226.25,1427.9688 Q1226.25,1428.3984 1225.8203,1428.9063 Q1225.1953,1429.6484 1224.1992,1430.0586 Q1222.8906,1430.625 1221.2891,1430.625 Q1219.4141,1430.625 1217.9102,1429.8828 Q1216.6992,1429.2969 1215.8398,1428.0273 Q1215,1426.7578 1215,1425.2539 L1215,1423.8867 Q1215,1422.3242 1215.7422,1420.957 Q1216.5039,1419.5898 1217.8125,1418.8672 Q1219.1406,1418.125 1220.625,1418.125 Q1221.5234,1418.125 1222.3047,1418.4375 Q1223.0859,1418.75 1223.75,1419.375 Z " fill="#000000"/><text fill="#000000" font-family="sans-serif" font-size="15" lengthAdjust="spacing" textLength="217.5" x="1238.75" y="1429.8877">ClinicalAnalysisLaboratoryStore</text><line style="stroke:#A80036;stroke-width:1.875;" x1="1203.75" x2="1458.75" y1="1443.75" y2="1443.75"/><text fill="#000000" font-family="sans-serif" font-size="13.75" lengthAdjust="spacing" textLength="130" x="1210" y="1463.0237">+getCalByCode(labId)</text><!--MD5=[6ba72ddf03822b91e8d41ca71de58ed3]
class TestTypeStore--><rect codeLine="112" fill="#FEFECE" filter="url(#fyvynb4b5giyd)" height="67.2949" id="TestTypeStore" style="stroke:#A80036;stroke-width:1.875;" width="217.5" x="1503.75" y="1403.75"/><ellipse cx="1557.9375" cy="1423.75" fill="#ADD1B2" rx="13.75" ry="13.75" style="stroke:#A80036;stroke-width:1.25;"/><path d="M1560.4375,1419.375 Q1560.6914,1418.75 1560.9844,1418.4375 Q1561.2773,1418.125 1561.6094,1418.125 Q1562.1953,1418.125 1562.5664,1418.4766 Q1562.9375,1418.8281 1562.9375,1419.6484 L1562.9375,1421.6016 Q1562.9375,1422.4219 1562.5859,1422.7734 Q1562.2344,1423.125 1561.6875,1423.125 Q1561.1992,1423.125 1560.8867,1422.9102 Q1560.5742,1422.6953 1560.4375,1422.1289 Q1560.3789,1421.7383 1560.1641,1421.5234 Q1559.7734,1421.1133 1559.0703,1420.8789 Q1558.3672,1420.625 1557.6641,1420.625 Q1556.7852,1420.625 1556.043,1420.9766 Q1555.3203,1421.3281 1554.7539,1422.1094 Q1554.1875,1422.8906 1554.1875,1423.9648 L1554.1875,1425.1172 Q1554.1875,1426.4063 1555.2422,1427.2656 Q1556.2969,1428.125 1558.1719,1428.125 Q1559.2852,1428.125 1560.0664,1427.8711 Q1560.5156,1427.7344 1561.0234,1427.2852 Q1561.3555,1427.0313 1561.5313,1426.9531 Q1561.707,1426.875 1561.9219,1426.875 Q1562.332,1426.875 1562.625,1427.207 Q1562.9375,1427.5195 1562.9375,1427.9688 Q1562.9375,1428.3984 1562.5078,1428.9063 Q1561.8828,1429.6484 1560.8867,1430.0586 Q1559.5781,1430.625 1557.9766,1430.625 Q1556.1016,1430.625 1554.5977,1429.8828 Q1553.3867,1429.2969 1552.5273,1428.0273 Q1551.6875,1426.7578 1551.6875,1425.2539 L1551.6875,1423.8867 Q1551.6875,1422.3242 1552.4297,1420.957 Q1553.1914,1419.5898 1554.5,1418.8672 Q1555.8281,1418.125 1557.3125,1418.125 Q1558.2109,1418.125 1558.9922,1418.4375 Q1559.7734,1418.75 1560.4375,1419.375 Z " fill="#000000"/><text fill="#000000" font-family="sans-serif" font-size="15" lengthAdjust="spacing" textLength="98.75" x="1583.3125" y="1429.8877">TestTypeStore</text><line style="stroke:#A80036;stroke-width:1.875;" x1="1505" x2="1720" y1="1443.75" y2="1443.75"/><text fill="#000000" font-family="sans-serif" font-size="13.75" lengthAdjust="spacing" textLength="202.5" x="1511.25" y="1463.0237">+getTestTypeByTinNumber(code)</text><!--MD5=[91a243d16834250cc0783f93b105dc5d]
class TestFileDTO--><rect codeLine="121" fill="#FEFECE" filter="url(#fyvynb4b5giyd)" height="188.3594" id="TestFileDTO" style="stroke:#A80036;stroke-width:1.875;" width="170" x="2932.5" y="697.5"/><ellipse cx="2970.9375" cy="717.5" fill="#ADD1B2" rx="13.75" ry="13.75" style="stroke:#A80036;stroke-width:1.25;"/><path d="M2973.4375,713.125 Q2973.6914,712.5 2973.9844,712.1875 Q2974.2773,711.875 2974.6094,711.875 Q2975.1953,711.875 2975.5664,712.2266 Q2975.9375,712.5781 2975.9375,713.3984 L2975.9375,715.3516 Q2975.9375,716.1719 2975.5859,716.5234 Q2975.2344,716.875 2974.6875,716.875 Q2974.1992,716.875 2973.8867,716.6602 Q2973.5742,716.4453 2973.4375,715.8789 Q2973.3789,715.4883 2973.1641,715.2734 Q2972.7734,714.8633 2972.0703,714.6289 Q2971.3672,714.375 2970.6641,714.375 Q2969.7852,714.375 2969.043,714.7266 Q2968.3203,715.0781 2967.7539,715.8594 Q2967.1875,716.6406 2967.1875,717.7148 L2967.1875,718.8672 Q2967.1875,720.1563 2968.2422,721.0156 Q2969.2969,721.875 2971.1719,721.875 Q2972.2852,721.875 2973.0664,721.6211 Q2973.5156,721.4844 2974.0234,721.0352 Q2974.3555,720.7813 2974.5313,720.7031 Q2974.707,720.625 2974.9219,720.625 Q2975.332,720.625 2975.625,720.957 Q2975.9375,721.2695 2975.9375,721.7188 Q2975.9375,722.1484 2975.5078,722.6563 Q2974.8828,723.3984 2973.8867,723.8086 Q2972.5781,724.375 2970.9766,724.375 Q2969.1016,724.375 2967.5977,723.6328 Q2966.3867,723.0469 2965.5273,721.7773 Q2964.6875,720.5078 2964.6875,719.0039 L2964.6875,717.6367 Q2964.6875,716.0742 2965.4297,714.707 Q2966.1914,713.3398 2967.5,712.6172 Q2968.8281,711.875 2970.3125,711.875 Q2971.2109,711.875 2971.9922,712.1875 Q2972.7734,712.5 2973.4375,713.125 Z " fill="#000000"/><text fill="#000000" font-family="sans-serif" font-size="15" lengthAdjust="spacing" textLength="86.25" x="2992.8125" y="723.6377">TestFileDTO</text><line style="stroke:#A80036;stroke-width:1.875;" x1="2933.75" x2="3101.25" y1="737.5" y2="737.5"/><text fill="#000000" font-family="sans-serif" font-size="13.75" lengthAdjust="spacing" textLength="63.75" x="2940" y="756.7737">-ClientDTO</text><text fill="#000000" font-family="sans-serif" font-size="13.75" lengthAdjust="spacing" textLength="60" x="2940" y="774.0686">-NhsCode</text><text fill="#000000" font-family="sans-serif" font-size="13.75" lengthAdjust="spacing" textLength="131.25" x="2940" y="791.3635">-TestParameterCodes</text><text fill="#000000" font-family="sans-serif" font-size="13.75" lengthAdjust="spacing" textLength="130" x="2940" y="808.6584">-TestParameterResult</text><text fill="#000000" font-family="sans-serif" font-size="13.75" lengthAdjust="spacing" textLength="143.75" x="2940" y="825.9534">-dateOfTestRegistration</text><text fill="#000000" font-family="sans-serif" font-size="13.75" lengthAdjust="spacing" textLength="155" x="2940" y="843.2483">-dateOfSamplesCollection</text><text fill="#000000" font-family="sans-serif" font-size="13.75" lengthAdjust="spacing" textLength="152.5" x="2940" y="860.5432">-dateOfChemicalAnalysis</text><text fill="#000000" font-family="sans-serif" font-size="13.75" lengthAdjust="spacing" textLength="105" x="2940" y="877.8381">-dateOfDiagnosis</text><!--MD5=[b6a3913a705cfb7a2ec9efa528c25c50]
class CreateTestOfFileControler--><rect codeLine="136" fill="#FEFECE" filter="url(#fyvynb4b5giyd)" height="84.5898" id="CreateTestOfFileControler" style="stroke:#A80036;stroke-width:1.875;" width="220" x="90" y="749.375"/><ellipse cx="108.75" cy="769.375" fill="#ADD1B2" rx="13.75" ry="13.75" style="stroke:#A80036;stroke-width:1.25;"/><path d="M111.25,765 Q111.5039,764.375 111.7969,764.0625 Q112.0898,763.75 112.4219,763.75 Q113.0078,763.75 113.3789,764.1016 Q113.75,764.4531 113.75,765.2734 L113.75,767.2266 Q113.75,768.0469 113.3984,768.3984 Q113.0469,768.75 112.5,768.75 Q112.0117,768.75 111.6992,768.5352 Q111.3867,768.3203 111.25,767.7539 Q111.1914,767.3633 110.9766,767.1484 Q110.5859,766.7383 109.8828,766.5039 Q109.1797,766.25 108.4766,766.25 Q107.5977,766.25 106.8555,766.6016 Q106.1328,766.9531 105.5664,767.7344 Q105,768.5156 105,769.5898 L105,770.7422 Q105,772.0313 106.0547,772.8906 Q107.1094,773.75 108.9844,773.75 Q110.0977,773.75 110.8789,773.4961 Q111.3281,773.3594 111.8359,772.9102 Q112.168,772.6563 112.3438,772.5781 Q112.5195,772.5 112.7344,772.5 Q113.1445,772.5 113.4375,772.832 Q113.75,773.1445 113.75,773.5938 Q113.75,774.0234 113.3203,774.5313 Q112.6953,775.2734 111.6992,775.6836 Q110.3906,776.25 108.7891,776.25 Q106.9141,776.25 105.4102,775.5078 Q104.1992,774.9219 103.3398,773.6523 Q102.5,772.3828 102.5,770.8789 L102.5,769.5117 Q102.5,767.9492 103.2422,766.582 Q104.0039,765.2148 105.3125,764.4922 Q106.6406,763.75 108.125,763.75 Q109.0234,763.75 109.8047,764.0625 Q110.5859,764.375 111.25,765 Z " fill="#000000"/><text fill="#000000" font-family="sans-serif" font-size="15" lengthAdjust="spacing" textLength="180" x="126.25" y="775.5127">CreateTestOfFileControler</text><line style="stroke:#A80036;stroke-width:1.875;" x1="91.25" x2="308.75" y1="789.375" y2="789.375"/><text fill="#000000" font-family="sans-serif" font-size="13.75" lengthAdjust="spacing" textLength="148.75" x="97.5" y="808.6487">+createTest(TestFileDto)</text><text fill="#000000" font-family="sans-serif" font-size="13.75" lengthAdjust="spacing" textLength="73.75" x="97.5" y="825.9436">+saveTest()</text><!--MD5=[51912c652aa2a3a1d0b745172ce59331]
class ImportTestController--><rect codeLine="141" fill="#FEFECE" filter="url(#fyvynb4b5giyd)" height="101.8848" id="ImportTestController" style="stroke:#A80036;stroke-width:1.875;" width="221.25" x="206.875" y="416.25"/><ellipse cx="243.625" cy="436.25" fill="#ADD1B2" rx="13.75" ry="13.75" style="stroke:#A80036;stroke-width:1.25;"/><path d="M246.125,431.875 Q246.3789,431.25 246.6719,430.9375 Q246.9648,430.625 247.2969,430.625 Q247.8828,430.625 248.2539,430.9766 Q248.625,431.3281 248.625,432.1484 L248.625,434.1016 Q248.625,434.9219 248.2734,435.2734 Q247.9219,435.625 247.375,435.625 Q246.8867,435.625 246.5742,435.4102 Q246.2617,435.1953 246.125,434.6289 Q246.0664,434.2383 245.8516,434.0234 Q245.4609,433.6133 244.7578,433.3789 Q244.0547,433.125 243.3516,433.125 Q242.4727,433.125 241.7305,433.4766 Q241.0078,433.8281 240.4414,434.6094 Q239.875,435.3906 239.875,436.4648 L239.875,437.6172 Q239.875,438.9063 240.9297,439.7656 Q241.9844,440.625 243.8594,440.625 Q244.9727,440.625 245.7539,440.3711 Q246.2031,440.2344 246.7109,439.7852 Q247.043,439.5313 247.2188,439.4531 Q247.3945,439.375 247.6094,439.375 Q248.0195,439.375 248.3125,439.707 Q248.625,440.0195 248.625,440.4688 Q248.625,440.8984 248.1953,441.4063 Q247.5703,442.1484 246.5742,442.5586 Q245.2656,443.125 243.6641,443.125 Q241.7891,443.125 240.2852,442.3828 Q239.0742,441.7969 238.2148,440.5273 Q237.375,439.2578 237.375,437.7539 L237.375,436.3867 Q237.375,434.8242 238.1172,433.457 Q238.8789,432.0898 240.1875,431.3672 Q241.5156,430.625 243,430.625 Q243.8984,430.625 244.6797,430.9375 Q245.4609,431.25 246.125,431.875 Z " fill="#000000"/><text fill="#000000" font-family="sans-serif" font-size="15" lengthAdjust="spacing" textLength="141.25" x="265.125" y="442.3877">ImportTestController</text><line style="stroke:#A80036;stroke-width:1.875;" x1="208.125" x2="426.875" y1="456.25" y2="456.25"/><text fill="#000000" font-family="sans-serif" font-size="13.75" lengthAdjust="spacing" textLength="206.25" x="214.375" y="475.5237">+createTestsFromFile(TestFileDto)</text><text fill="#000000" font-family="sans-serif" font-size="13.75" lengthAdjust="spacing" textLength="73.75" x="214.375" y="492.8186">+saveTest()</text><text fill="#000000" font-family="sans-serif" font-size="13.75" lengthAdjust="spacing" textLength="83.75" x="214.375" y="510.1135">+addSample()</text><!--MD5=[1a7fda4a36185bcd740bdf14b2b3a45e]
class RegisterClientController--><rect codeLine="147" fill="#FEFECE" filter="url(#fyvynb4b5giyd)" height="84.5898" id="RegisterClientController" style="stroke:#A80036;stroke-width:1.875;" width="206.25" x="354.375" y="749.375"/><ellipse cx="373.125" cy="769.375" fill="#ADD1B2" rx="13.75" ry="13.75" style="stroke:#A80036;stroke-width:1.25;"/><path d="M375.625,765 Q375.8789,764.375 376.1719,764.0625 Q376.4648,763.75 376.7969,763.75 Q377.3828,763.75 377.7539,764.1016 Q378.125,764.4531 378.125,765.2734 L378.125,767.2266 Q378.125,768.0469 377.7734,768.3984 Q377.4219,768.75 376.875,768.75 Q376.3867,768.75 376.0742,768.5352 Q375.7617,768.3203 375.625,767.7539 Q375.5664,767.3633 375.3516,767.1484 Q374.9609,766.7383 374.2578,766.5039 Q373.5547,766.25 372.8516,766.25 Q371.9727,766.25 371.2305,766.6016 Q370.5078,766.9531 369.9414,767.7344 Q369.375,768.5156 369.375,769.5898 L369.375,770.7422 Q369.375,772.0313 370.4297,772.8906 Q371.4844,773.75 373.3594,773.75 Q374.4727,773.75 375.2539,773.4961 Q375.7031,773.3594 376.2109,772.9102 Q376.543,772.6563 376.7188,772.5781 Q376.8945,772.5 377.1094,772.5 Q377.5195,772.5 377.8125,772.832 Q378.125,773.1445 378.125,773.5938 Q378.125,774.0234 377.6953,774.5313 Q377.0703,775.2734 376.0742,775.6836 Q374.7656,776.25 373.1641,776.25 Q371.2891,776.25 369.7852,775.5078 Q368.5742,774.9219 367.7148,773.6523 Q366.875,772.3828 366.875,770.8789 L366.875,769.5117 Q366.875,767.9492 367.6172,766.582 Q368.3789,765.2148 369.6875,764.4922 Q371.0156,763.75 372.5,763.75 Q373.3984,763.75 374.1797,764.0625 Q374.9609,764.375 375.625,765 Z " fill="#000000"/><text fill="#000000" font-family="sans-serif" font-size="15" lengthAdjust="spacing" textLength="166.25" x="390.625" y="775.5127">RegisterClientController</text><line style="stroke:#A80036;stroke-width:1.875;" x1="355.625" x2="559.375" y1="789.375" y2="789.375"/><text fill="#000000" font-family="sans-serif" font-size="13.75" lengthAdjust="spacing" textLength="148.75" x="361.875" y="808.6487">+registerClient(ClientDto)</text><text fill="#000000" font-family="sans-serif" font-size="13.75" lengthAdjust="spacing" textLength="80" x="361.875" y="825.9436">+saveClient()</text><!--MD5=[820f1ba3f31a0fab433ee6d1f4524101]
class barcode--><rect codeLine="155" fill="#FEFECE" filter="url(#fyvynb4b5giyd)" height="40" id="barcode" style="stroke:#A80036;stroke-width:1.875;" width="96.25" x="3629.375" y="1417.5"/><ellipse cx="3648.125" cy="1437.5" fill="#ADD1B2" rx="13.75" ry="13.75" style="stroke:#A80036;stroke-width:1.25;"/><path d="M3650.625,1433.125 Q3650.8789,1432.5 3651.1719,1432.1875 Q3651.4648,1431.875 3651.7969,1431.875 Q3652.3828,1431.875 3652.7539,1432.2266 Q3653.125,1432.5781 3653.125,1433.3984 L3653.125,1435.3516 Q3653.125,1436.1719 3652.7734,1436.5234 Q3652.4219,1436.875 3651.875,1436.875 Q3651.3867,1436.875 3651.0742,1436.6602 Q3650.7617,1436.4453 3650.625,1435.8789 Q3650.5664,1435.4883 3650.3516,1435.2734 Q3649.9609,1434.8633 3649.2578,1434.6289 Q3648.5547,1434.375 3647.8516,1434.375 Q3646.9727,1434.375 3646.2305,1434.7266 Q3645.5078,1435.0781 3644.9414,1435.8594 Q3644.375,1436.6406 3644.375,1437.7148 L3644.375,1438.8672 Q3644.375,1440.1563 3645.4297,1441.0156 Q3646.4844,1441.875 3648.3594,1441.875 Q3649.4727,1441.875 3650.2539,1441.6211 Q3650.7031,1441.4844 3651.2109,1441.0352 Q3651.543,1440.7813 3651.7188,1440.7031 Q3651.8945,1440.625 3652.1094,1440.625 Q3652.5195,1440.625 3652.8125,1440.957 Q3653.125,1441.2695 3653.125,1441.7188 Q3653.125,1442.1484 3652.6953,1442.6563 Q3652.0703,1443.3984 3651.0742,1443.8086 Q3649.7656,1444.375 3648.1641,1444.375 Q3646.2891,1444.375 3644.7852,1443.6328 Q3643.5742,1443.0469 3642.7148,1441.7773 Q3641.875,1440.5078 3641.875,1439.0039 L3641.875,1437.6367 Q3641.875,1436.0742 3642.6172,1434.707 Q3643.3789,1433.3398 3644.6875,1432.6172 Q3646.0156,1431.875 3647.5,1431.875 Q3648.3984,1431.875 3649.1797,1432.1875 Q3649.9609,1432.5 3650.625,1433.125 Z " fill="#000000"/><text fill="#000000" font-family="sans-serif" font-size="15" lengthAdjust="spacing" textLength="56.25" x="3665.625" y="1443.6377">barcode</text><!--MD5=[ceec499941a4b1e23bf576f2990db842]
class BarbecueAPI--><rect codeLine="157" fill="#FEFECE" filter="url(#fyvynb4b5giyd)" height="84.5898" id="BarbecueAPI" style="stroke:#A80036;stroke-width:1.875;" width="261.25" x="3814.375" y="1395"/><ellipse cx="3895.3125" cy="1415" fill="#ADD1B2" rx="13.75" ry="13.75" style="stroke:#A80036;stroke-width:1.25;"/><path d="M3897.8125,1410.625 Q3898.0664,1410 3898.3594,1409.6875 Q3898.6523,1409.375 3898.9844,1409.375 Q3899.5703,1409.375 3899.9414,1409.7266 Q3900.3125,1410.0781 3900.3125,1410.8984 L3900.3125,1412.8516 Q3900.3125,1413.6719 3899.9609,1414.0234 Q3899.6094,1414.375 3899.0625,1414.375 Q3898.5742,1414.375 3898.2617,1414.1602 Q3897.9492,1413.9453 3897.8125,1413.3789 Q3897.7539,1412.9883 3897.5391,1412.7734 Q3897.1484,1412.3633 3896.4453,1412.1289 Q3895.7422,1411.875 3895.0391,1411.875 Q3894.1602,1411.875 3893.418,1412.2266 Q3892.6953,1412.5781 3892.1289,1413.3594 Q3891.5625,1414.1406 3891.5625,1415.2148 L3891.5625,1416.3672 Q3891.5625,1417.6563 3892.6172,1418.5156 Q3893.6719,1419.375 3895.5469,1419.375 Q3896.6602,1419.375 3897.4414,1419.1211 Q3897.8906,1418.9844 3898.3984,1418.5352 Q3898.7305,1418.2813 3898.9063,1418.2031 Q3899.082,1418.125 3899.2969,1418.125 Q3899.707,1418.125 3900,1418.457 Q3900.3125,1418.7695 3900.3125,1419.2188 Q3900.3125,1419.6484 3899.8828,1420.1563 Q3899.2578,1420.8984 3898.2617,1421.3086 Q3896.9531,1421.875 3895.3516,1421.875 Q3893.4766,1421.875 3891.9727,1421.1328 Q3890.7617,1420.5469 3889.9023,1419.2773 Q3889.0625,1418.0078 3889.0625,1416.5039 L3889.0625,1415.1367 Q3889.0625,1413.5742 3889.8047,1412.207 Q3890.5664,1410.8398 3891.875,1410.1172 Q3893.2031,1409.375 3894.6875,1409.375 Q3895.5859,1409.375 3896.3672,1409.6875 Q3897.1484,1410 3897.8125,1410.625 Z " fill="#000000"/><text fill="#000000" font-family="sans-serif" font-size="15" lengthAdjust="spacing" textLength="88.75" x="3920.9375" y="1421.1377">BarbecueAPI</text><line style="stroke:#A80036;stroke-width:1.875;" x1="3815.625" x2="4074.375" y1="1435" y2="1435"/><text fill="#000000" font-family="sans-serif" font-size="13.75" lengthAdjust="spacing" textLength="172.5" x="3821.875" y="1454.2737">+Barcode createUPCA(data)</text><text fill="#000000" font-family="sans-serif" font-size="13.75" lengthAdjust="spacing" textLength="246.25" x="3821.875" y="1471.5686">+BufferedImage saveJPEG(barcode, file)</text><!--MD5=[9bb7cc3529c0d40aca5d5110b828cb84]
class TestFileUtils--><rect codeLine="167" fill="#FEFECE" filter="url(#fyvynb4b5giyd)" height="67.2949" id="TestFileUtils" style="stroke:#A80036;stroke-width:1.875;" width="183.75" x="1734.375" y="117.5"/><ellipse cx="1779" cy="137.5" fill="#ADD1B2" rx="13.75" ry="13.75" style="stroke:#A80036;stroke-width:1.25;"/><path d="M1781.5,133.125 Q1781.7539,132.5 1782.0469,132.1875 Q1782.3398,131.875 1782.6719,131.875 Q1783.2578,131.875 1783.6289,132.2266 Q1784,132.5781 1784,133.3984 L1784,135.3516 Q1784,136.1719 1783.6484,136.5234 Q1783.2969,136.875 1782.75,136.875 Q1782.2617,136.875 1781.9492,136.6602 Q1781.6367,136.4453 1781.5,135.8789 Q1781.4414,135.4883 1781.2266,135.2734 Q1780.8359,134.8633 1780.1328,134.6289 Q1779.4297,134.375 1778.7266,134.375 Q1777.8477,134.375 1777.1055,134.7266 Q1776.3828,135.0781 1775.8164,135.8594 Q1775.25,136.6406 1775.25,137.7148 L1775.25,138.8672 Q1775.25,140.1563 1776.3047,141.0156 Q1777.3594,141.875 1779.2344,141.875 Q1780.3477,141.875 1781.1289,141.6211 Q1781.5781,141.4844 1782.0859,141.0352 Q1782.418,140.7813 1782.5938,140.7031 Q1782.7695,140.625 1782.9844,140.625 Q1783.3945,140.625 1783.6875,140.957 Q1784,141.2695 1784,141.7188 Q1784,142.1484 1783.5703,142.6563 Q1782.9453,143.3984 1781.9492,143.8086 Q1780.6406,144.375 1779.0391,144.375 Q1777.1641,144.375 1775.6602,143.6328 Q1774.4492,143.0469 1773.5898,141.7773 Q1772.75,140.5078 1772.75,139.0039 L1772.75,137.6367 Q1772.75,136.0742 1773.4922,134.707 Q1774.2539,133.3398 1775.5625,132.6172 Q1776.8906,131.875 1778.375,131.875 Q1779.2734,131.875 1780.0547,132.1875 Q1780.8359,132.5 1781.5,133.125 Z " fill="#000000"/><text fill="#000000" font-family="sans-serif" font-size="15" lengthAdjust="spacing" textLength="86.25" x="1802.25" y="143.6377">TestFileUtils</text><line style="stroke:#A80036;stroke-width:1.875;" x1="1735.625" x2="1916.875" y1="157.5" y2="157.5"/><text fill="#000000" font-family="sans-serif" font-size="13.75" lengthAdjust="spacing" textLength="168.75" x="1741.875" y="176.7737">+getTestDataToDto(filepath)</text><!--MD5=[bcff1293548765b9bca2a02c7e5ada38]
class ImportTestUI--><rect codeLine="173" fill="#FEFECE" filter="url(#fyvynb4b5giyd)" height="40" id="ImportTestUI" style="stroke:#A80036;stroke-width:1.875;" width="128.75" x="1534.375" y="131.25"/><ellipse cx="1553.125" cy="151.25" fill="#ADD1B2" rx="13.75" ry="13.75" style="stroke:#A80036;stroke-width:1.25;"/><path d="M1555.625,146.875 Q1555.8789,146.25 1556.1719,145.9375 Q1556.4648,145.625 1556.7969,145.625 Q1557.3828,145.625 1557.7539,145.9766 Q1558.125,146.3281 1558.125,147.1484 L1558.125,149.1016 Q1558.125,149.9219 1557.7734,150.2734 Q1557.4219,150.625 1556.875,150.625 Q1556.3867,150.625 1556.0742,150.4102 Q1555.7617,150.1953 1555.625,149.6289 Q1555.5664,149.2383 1555.3516,149.0234 Q1554.9609,148.6133 1554.2578,148.3789 Q1553.5547,148.125 1552.8516,148.125 Q1551.9727,148.125 1551.2305,148.4766 Q1550.5078,148.8281 1549.9414,149.6094 Q1549.375,150.3906 1549.375,151.4648 L1549.375,152.6172 Q1549.375,153.9063 1550.4297,154.7656 Q1551.4844,155.625 1553.3594,155.625 Q1554.4727,155.625 1555.2539,155.3711 Q1555.7031,155.2344 1556.2109,154.7852 Q1556.543,154.5313 1556.7188,154.4531 Q1556.8945,154.375 1557.1094,154.375 Q1557.5195,154.375 1557.8125,154.707 Q1558.125,155.0195 1558.125,155.4688 Q1558.125,155.8984 1557.6953,156.4063 Q1557.0703,157.1484 1556.0742,157.5586 Q1554.7656,158.125 1553.1641,158.125 Q1551.2891,158.125 1549.7852,157.3828 Q1548.5742,156.7969 1547.7148,155.5273 Q1546.875,154.2578 1546.875,152.7539 L1546.875,151.3867 Q1546.875,149.8242 1547.6172,148.457 Q1548.3789,147.0898 1549.6875,146.3672 Q1551.0156,145.625 1552.5,145.625 Q1553.3984,145.625 1554.1797,145.9375 Q1554.9609,146.25 1555.625,146.875 Z " fill="#000000"/><text fill="#000000" font-family="sans-serif" font-size="15" lengthAdjust="spacing" textLength="88.75" x="1570.625" y="157.3877">ImportTestUI</text><!--MD5=[29e5572c3d09c6b445394b9c6bb55e57]
link Controllers to Model--><path d="M624.0771,555.5986 C624.3134,555.8156 624.5514,556.0306 624.7911,556.2438 C625.2706,556.6702 625.7568,557.0891 626.25,557.5 C728.5375,642.7312 1020.975,700.7719 1289.725,737.6234 C1424.1,756.0492 1552.5531,769.1777 1648.3547,777.7592 C1696.2555,782.0499 1735.9934,785.2039 1764.2271,787.3148 C1778.344,788.3703 1789.5849,789.165 1797.5321,789.7107 C1798.5255,789.779 1799.4674,789.8433 1800.3571,789.9037 " fill="none" id="Controllers-to-Model" style="stroke:#A80036;stroke-width:1.25;stroke-dasharray:7.0,7.0;"/><polygon fill="#A80036" points="1800.3571,789.9037,1789.472,784.1525,1794.1215,789.48,1788.794,794.1295,1800.3571,789.9037" style="stroke:#A80036;stroke-width:1.25;"/><!--MD5=[01b5c43ff5db2b3ab7f36f76b228af8f]
link Controllers to DTO--><path d="M624.8734,472.1519 C625.4952,472.2141 626.1252,472.277 626.7633,472.3406 C628.0393,472.468 629.3476,472.5984 630.6877,472.7318 C633.3679,472.9986 636.1755,473.2775 639.1076,473.5681 C644.9717,474.1492 651.3338,474.777 658.1709,475.4481 C671.8452,476.7903 687.4194,478.3058 704.71,479.9682 C773.8723,486.6176 870.4961,495.6164 982.8266,505.2703 C1207.4875,524.5781 1494.975,546.5063 1751.25,557.5 C1766.0625,558.1375 2806.8375,558.6625 2818.75,567.5 C2839.2938,582.7344 2853.9656,603.9836 2864.4115,627.3646 C2869.6345,639.0552 2873.8009,651.2787 2877.1166,663.5497 C2877.5311,665.0836 2877.9323,666.6182 2878.3205,668.1527 C2878.4176,668.5363 2878.5139,668.9199 2878.6093,669.3034 " fill="none" id="Controllers-to-DTO" style="stroke:#A80036;stroke-width:1.25;stroke-dasharray:7.0,7.0;"/><polygon fill="#A80036" points="2878.6093,669.3034,2880.7442,657.1789,2877.0998,663.2385,2871.0403,659.5941,2878.6093,669.3034" style="stroke:#A80036;stroke-width:1.25;"/><!--MD5=[b67c273f9ea26139499e1bd3b8231806]
link Controllers to Controllers--><path d="M623.75,451.663 C623.8146,451.6788 623.879,451.6949 623.9432,451.7114 C624.4571,451.8429 624.9599,451.9954 625.45,452.169 C627.4108,452.8633 629.1713,453.894 630.6472,455.2611 C633.5989,457.9953 635.4122,462.075 635.4122,467.5 C635.4122,472.925 633.5989,477.0047 630.6472,479.7389 C629.1713,481.106 627.4108,482.1367 625.45,482.831 C624.9599,483.0046 624.4571,483.1571 623.9432,483.2886 C623.879,483.3051 623.8146,483.3212 623.75,483.337 " fill="none" id="Controllers-to-Controllers" style="stroke:#A80036;stroke-width:1.25;stroke-dasharray:7.0,7.0;"/><polygon fill="#A80036" points="623.75,483.337,635.8654,485.5233,629.8213,481.8532,633.4914,475.8092,623.75,483.337" style="stroke:#A80036;stroke-width:1.25;"/><!--MD5=[bb4acd81d18e7ee3505d81d4ee75e8fc]
link UI to Controllers--><path d="M1462.8886,156.3663 C1462.4732,156.514 1462.0465,156.6657 1461.6085,156.8214 C1454.601,159.3128 1444.7159,162.8271 1432.3644,167.2183 C1407.6614,176.0006 1373.0928,188.2903 1331.9473,202.9182 C1249.6562,232.1738 1141.0578,270.782 1032.4625,309.3891 C923.8672,347.9961 815.275,386.602 732.9965,415.8529 C691.8572,430.4784 657.2964,442.7652 632.6028,451.544 C629.5161,452.6414 626.5836,453.6839 623.8116,454.6694 " fill="none" id="UI-to-Controllers" style="stroke:#A80036;stroke-width:1.25;stroke-dasharray:7.0,7.0;"/><polygon fill="#A80036" points="623.8116,454.6694,636.0866,455.6121,629.7006,452.5758,632.7368,446.1898,623.8116,454.6694" style="stroke:#A80036;stroke-width:1.25;"/><!--MD5=[9ea89be3b33715d555650644e5bd9dde]
link UI to DTO--><path d="M1497.4701,245.1111 C1497.685,245.4629 1497.9019,245.8133 1498.1207,246.1623 C1498.996,247.5584 1499.9028,248.9322 1500.8422,250.2803 C1504.5996,255.6727 1508.8781,260.6531 1513.75,265 C1958.0125,661.3625 2382.025,162.85 2818.75,567.5 C2837.5125,584.8844 2851.2797,607.225 2861.3738,631.0297 C2866.4209,642.932 2870.5497,655.2004 2873.9255,667.3982 C2875.6135,673.4972 2877.1131,679.5785 2878.4452,685.5876 C2878.5285,685.9631 2878.6111,686.3384 2878.693,686.7134 " fill="none" id="UI-to-DTO" style="stroke:#A80036;stroke-width:1.25;stroke-dasharray:7.0,7.0;"/><polygon fill="#A80036" points="2878.693,686.7134,2881.1758,674.6553,2877.3586,680.6075,2871.4064,676.7903,2878.693,686.7134" style="stroke:#A80036;stroke-width:1.25;"/><!--MD5=[8db2d36dfcc6aadb263e2609429d2d71]
link Model to Stores--><path d="M1801.0022,793.2675 C1800.1653,793.2812 1799.2792,793.296 1798.3449,793.312 C1790.8699,793.4402 1780.3007,793.6473 1767.0376,793.9719 C1740.5114,794.6211 1703.2091,795.7406 1658.3314,797.6406 C1568.5762,801.4406 1448.5195,808.3625 1323.7672,820.8875 C1074.2625,845.9375 805.975,893.4 723.75,983.125 C719.4391,987.8297 716.0377,993.1367 713.3873,998.8266 C713.056,999.5378 712.7365,1000.2551 712.4283,1000.9778 C712.2743,1001.3392 712.1231,1001.702 711.9747,1002.0661 C711.9005,1002.2482 711.827,1002.4306 711.7542,1002.6133 " fill="none" id="Model-Stores" style="stroke:#A80036;stroke-width:1.25;"/><text fill="#000000" font-family="sans-serif" font-size="16.25" lengthAdjust="spacing" textLength="50" x="762.5" y="964.3689">uses &gt;</text><!--MD5=[5fdc64a7607c2e0f896a4f6cf6f56cd1]
link ImportTestUI to TestFileUtils--><path codeLine="185" d="M1663.175,151.25 C1684.6375,151.25 1706.0875,151.25 1727.55,151.25 " fill="none" id="ImportTestUI-to-TestFileUtils" style="stroke:#A80036;stroke-width:1.25;stroke-dasharray:7.0,7.0;"/><polygon fill="#A80036" points="1734.2,151.25,1722.95,146.25,1727.95,151.25,1722.95,156.25,1734.2,151.25" style="stroke:#A80036;stroke-width:1.25;"/><!--MD5=[ebc6b64f71ff29ab8c8b944560b4a5d2]
link ImportTestController to CreateTestOfFileControler--><path codeLine="186" d="M299.1375,519.0375 C276.7375,580.4125 239.15,683.375 217.2625,743.35 " fill="none" id="ImportTestController-to-CreateTestOfFileControler" style="stroke:#A80036;stroke-width:1.25;stroke-dasharray:7.0,7.0;"/><polygon fill="#A80036" points="215.0625,749.3625,223.6147,740.5069,217.2041,743.4909,214.2201,737.0803,215.0625,749.3625" style="stroke:#A80036;stroke-width:1.25;"/><!--MD5=[11f505775541bdd9869a5b875923a1bb]
link ImportTestController to RegisterClientController--><path codeLine="187" d="M339.375,519.0375 C366.0625,580.4125 410.85,683.375 436.9375,743.35 " fill="none" id="ImportTestController-to-RegisterClientController" style="stroke:#A80036;stroke-width:1.25;stroke-dasharray:7.0,7.0;"/><polygon fill="#A80036" points="439.55,749.3625,439.6216,737.0516,437.0449,743.6365,430.46,741.0598,439.55,749.3625" style="stroke:#A80036;stroke-width:1.25;"/><!--MD5=[7e4bc624457760b649895ff2ead938fa]
link Company to Test--><path codeLine="188" d="M2380.6875,865.05 C2399.9875,899.7375 2421.6375,942.55 2436.25,983.125 C2474.675,1089.7875 2477.9875,1119.7625 2490,1232.5 C2494.8625,1278.15 2473.625,1323.725 2448.65,1360.1625 " fill="none" id="Company-Test" style="stroke:#A80036;stroke-width:1.25;"/><polygon fill="#000000" points="2492.0999,1107.0367,2494.2019,1095.3358,2486.9228,1096.3349,2492.0999,1107.0367" style="stroke:#000000;stroke-width:1.25;"/><text fill="#000000" font-family="sans-serif" font-size="16.25" lengthAdjust="spacing" textLength="66.25" x="2502.5" y="1107.4939">conducts</text><text fill="#000000" font-family="sans-serif" font-size="16.25" lengthAdjust="spacing" textLength="8.75" x="2376.6678" y="892.0689">1</text><text fill="#000000" font-family="sans-serif" font-size="16.25" lengthAdjust="spacing" textLength="6.25" x="2449.8318" y="1346.9573">*</text><!--MD5=[7e4bc624457760b649895ff2ead938fa]
link Company to Test--><path codeLine="193" d="M2306.5625,865.35 C2294.2,889.4375 2278.475,915.425 2260,936.25 C2236.0625,963.2375 2210.325,951.0875 2193.75,983.125 C2150.475,1066.7625 2163.2,1105.925 2193.75,1195 C2215.175,1257.475 2260.1,1316.2375 2300.6125,1360.125 " fill="none" id="Company-Test-1" style="stroke:#A80036;stroke-width:1.25;"/><polygon fill="#000000" points="2199.9248,1107.0943,2203.7342,1095.8329,2196.3874,1095.7446,2199.9248,1107.0943" style="stroke:#000000;stroke-width:1.25;"/><text fill="#000000" font-family="sans-serif" font-size="16.25" lengthAdjust="spacing" textLength="66.25" x="2211.25" y="1107.4939">conducts</text><text fill="#000000" font-family="sans-serif" font-size="16.25" lengthAdjust="spacing" textLength="8.75" x="2293.7295" y="891.8831">1</text><text fill="#000000" font-family="sans-serif" font-size="16.25" lengthAdjust="spacing" textLength="6.25" x="2284.6775" y="1346.9154">*</text><!--MD5=[502b51bc079239060389dab43b7d3470]
link Client to Test--><path codeLine="189" d="M2364.1125,1195.0125 C2367.825,1247.1875 2372.3875,1311.425 2375.8625,1360.4875 " fill="none" id="Client-Test" style="stroke:#A80036;stroke-width:1.25;"/><polygon fill="#000000" points="2373.3073,1237.7354,2370.4437,1249.2736,2377.7726,1248.7532,2373.3073,1237.7354" style="stroke:#000000;stroke-width:1.25;"/><text fill="#000000" font-family="sans-serif" font-size="16.25" lengthAdjust="spacing" textLength="93.75" x="2385" y="1250.6189">requested by</text><text fill="#000000" font-family="sans-serif" font-size="16.25" lengthAdjust="spacing" textLength="8.75" x="2355.5688" y="1221.5429">1</text><text fill="#000000" font-family="sans-serif" font-size="16.25" lengthAdjust="spacing" textLength="8.75" x="2365.9837" y="1347.3199">1</text><!--MD5=[d480452e7d21fe720ba0207568bc7434]
link ClinicalAnalysisLaboratory to Test--><path codeLine="190" d="M2172.275,1437.5 C2212.8875,1437.5 2258.1625,1437.5 2296.1625,1437.5 " fill="none" id="ClinicalAnalysisLaboratory-Test" style="stroke:#A80036;stroke-width:1.25;"/><polygon fill="#000000" points="2205.9375,1422.7197,2194.6311,1419.0461,2194.6311,1426.3934,2205.9375,1422.7197" style="stroke:#000000;stroke-width:1.25;"/><text fill="#000000" font-family="sans-serif" font-size="16.25" lengthAdjust="spacing" textLength="62.5" x="2210.9375" y="1429.3689">performs</text><text fill="#000000" font-family="sans-serif" font-size="16.25" lengthAdjust="spacing" textLength="8.75" x="2181.8316" y="1433.5675">1</text><text fill="#000000" font-family="sans-serif" font-size="16.25" lengthAdjust="spacing" textLength="25" x="2261.0988" y="1455.4218">1..*</text><!--MD5=[5b7a9ded131023be416e27d15bcd6d77]
link TestType to Parameter--><path codeLine="191" d="M1966.7125,1732.5625 C1984.65,1752.4875 2006.5875,1774.825 2028.75,1792.5 C2057.2125,1815.2 2092.1625,1836.0625 2121.0375,1851.7125 " fill="none" id="TestType-Parameter" style="stroke:#A80036;stroke-width:1.25;"/><polygon fill="#000000" points="2039.9471,1785.2892,2033.2428,1775.4718,2028.7527,1781.2875,2039.9471,1785.2892" style="stroke:#000000;stroke-width:1.25;"/><text fill="#000000" font-family="sans-serif" font-size="16.25" lengthAdjust="spacing" textLength="120" x="2046.25" y="1788.1189">characterized by</text><text fill="#000000" font-family="sans-serif" font-size="16.25" lengthAdjust="spacing" textLength="8.75" x="1963.6798" y="1758.9006">1</text><text fill="#000000" font-family="sans-serif" font-size="16.25" lengthAdjust="spacing" textLength="25" x="2086.3396" y="1843.0956">1..*</text><!--MD5=[742a261f27a3dcd734c626287d811acd]
link Company to TestType--><path codeLine="192" d="M2314.1,865.225 C2302.0125,891.5375 2284.5125,919.0375 2260,936.25 C2235.625,953.3625 2220.5,933.1625 2193.75,946.25 C2090.8125,996.6375 2052.0625,919.35 1928.75,1265 C1884.1375,1390.0375 1901.8,1550.0625 1915.2,1629.9375 " fill="none" id="Company-TestType" style="stroke:#A80036;stroke-width:1.25;"/><polygon fill="#000000" points="1942.1094,1249.5111,1950.5957,1241.1857,1944.0814,1237.7876,1942.1094,1249.5111" style="stroke:#000000;stroke-width:1.25;"/><text fill="#000000" font-family="sans-serif" font-size="16.25" lengthAdjust="spacing" textLength="66.25" x="1956.25" y="1250.6189">conducts</text><text fill="#000000" font-family="sans-serif" font-size="16.25" lengthAdjust="spacing" textLength="8.75" x="2311.7813" y="892.2653">1</text><text fill="#000000" font-family="sans-serif" font-size="16.25" lengthAdjust="spacing" textLength="6.25" x="1906.7285" y="1616.3589">*</text><!--MD5=[12d76240d3c3c66074d4ec2ea8bf469c]
link Company to Parameter--><path codeLine="194" d="M2410.0875,833.175 C2464.3,866.6125 2536.3,919.0625 2580,983.125 C2789.4875,1290.25 3034.875,1511.675 2791.25,1792.5 C2782.1,1803.0375 2384.5625,1853.9875 2234.25,1872.9 " fill="none" id="Company-Parameter" style="stroke:#A80036;stroke-width:1.25;"/><polygon fill="#000000" points="2897.7078,1443.8822,2903.2154,1433.3468,2895.9709,1432.1216,2897.7078,1443.8822" style="stroke:#000000;stroke-width:1.25;"/><text fill="#000000" font-family="sans-serif" font-size="16.25" lengthAdjust="spacing" textLength="147.5" x="2910" y="1444.3689">capable of analysing</text><text fill="#000000" font-family="sans-serif" font-size="16.25" lengthAdjust="spacing" textLength="8.75" x="2419.9483" y="834.068">1</text><text fill="#000000" font-family="sans-serif" font-size="16.25" lengthAdjust="spacing" textLength="6.25" x="2243.7926" y="1866.9284">*</text><!--MD5=[e981d4f96c4342412d1e68160b30cf70]
link Test to TestType--><path codeLine="195" d="M2296.0375,1504.1625 C2265.2625,1524.925 2229.3125,1546.0875 2193.75,1560 C2169.6,1569.45 2160.825,1561.6875 2136.25,1570 C2091.6,1585.1 2044.825,1608.5625 2006.6625,1629.95 " fill="none" id="Test-TestType" style="stroke:#A80036;stroke-width:1.25;"/><polygon fill="#000000" points="2136.7681,1583.9613,2148.6017,1582.8231,2145.6727,1576.0849,2136.7681,1583.9613" style="stroke:#000000;stroke-width:1.25;"/><text fill="#000000" font-family="sans-serif" font-size="16.25" lengthAdjust="spacing" textLength="90" x="2153.75" y="1588.1189">classified as</text><text fill="#000000" font-family="sans-serif" font-size="16.25" lengthAdjust="spacing" textLength="6.25" x="2280.1256" y="1507.2518">*</text><text fill="#000000" font-family="sans-serif" font-size="16.25" lengthAdjust="spacing" textLength="8.75" x="2011.1963" y="1616.3736">1</text><!--MD5=[f24c888dadeb846430474fe80a58922b]
link Test to TestParameter--><path codeLine="196" d="M2317.3375,1514.425 C2279.65,1559.05 2233.8625,1613.275 2205.1875,1647.2125 " fill="none" id="Test-TestParameter" style="stroke:#A80036;stroke-width:1.25;"/><polygon fill="#000000" points="2268.4672,1586.2446,2278.5692,1579.9772,2272.956,1575.2364,2268.4672,1586.2446" style="stroke:#000000;stroke-width:1.25;"/><text fill="#000000" font-family="sans-serif" font-size="16.25" lengthAdjust="spacing" textLength="145" x="2283.75" y="1588.1189">requests analysis of</text><text fill="#000000" font-family="sans-serif" font-size="16.25" lengthAdjust="spacing" textLength="8.75" x="2300.6918" y="1541.3689">1</text><text fill="#000000" font-family="sans-serif" font-size="16.25" lengthAdjust="spacing" textLength="25" x="2183.6996" y="1633.9722">1..*</text><!--MD5=[92e8e476cc9e9004a7125f53a120ec97]
link TestParameter to Parameter--><path codeLine="197" d="M2177.5,1715.1125 C2177.5,1746.3375 2177.5,1793.8875 2177.5,1829.925 " fill="none" id="TestParameter-Parameter" style="stroke:#A80036;stroke-width:1.25;"/><polygon fill="#000000" points="2183.75,1787.7197,2187.4237,1776.4134,2180.0763,1776.4134,2183.75,1787.7197" style="stroke:#000000;stroke-width:1.25;"/><text fill="#000000" font-family="sans-serif" font-size="16.25" lengthAdjust="spacing" textLength="58.75" x="2195" y="1788.1189">refers to</text><text fill="#000000" font-family="sans-serif" font-size="16.25" lengthAdjust="spacing" textLength="6.25" x="2170.5664" y="1741.6468">*</text><text fill="#000000" font-family="sans-serif" font-size="16.25" lengthAdjust="spacing" textLength="8.75" x="2167.998" y="1816.3443">1</text><!--MD5=[0e00e25ac6b8c14659aaff2cf7e5df08]
link TestParameter to TestParameterResult--><path codeLine="198" d="M2302.6,1681.25 C2343.3125,1681.25 2387.7625,1681.25 2425.8125,1681.25 " fill="none" id="TestParameter-TestParameterResult" style="stroke:#A80036;stroke-width:1.25;"/><polygon fill="#000000" points="2336.875,1666.4697,2325.5686,1662.7961,2325.5686,1670.1434,2336.875,1666.4697" style="stroke:#000000;stroke-width:1.25;"/><text fill="#000000" font-family="sans-serif" font-size="16.25" lengthAdjust="spacing" textLength="61.25" x="2341.875" y="1673.1189">contains</text><text fill="#000000" font-family="sans-serif" font-size="16.25" lengthAdjust="spacing" textLength="8.75" x="2312.5129" y="1677.3779">1</text><text fill="#000000" font-family="sans-serif" font-size="16.25" lengthAdjust="spacing" textLength="27.5" x="2388.6993" y="1699.0565">0..1</text><!--MD5=[b72ac8ab7fb5921fceb5036a3902baea]
link Test to Sample--><path codeLine="199" d="M2466.3125,1502.1375 C2528.8875,1548.7625 2611.4,1610.25 2661.2,1647.3625 " fill="none" id="Test-Sample" style="stroke:#A80036;stroke-width:1.25;"/><polygon fill="#000000" points="2592.5116,1585.2042,2585.6406,1575.5027,2581.2505,1581.3942,2592.5116,1585.2042" style="stroke:#000000;stroke-width:1.25;"/><text fill="#000000" font-family="sans-serif" font-size="16.25" lengthAdjust="spacing" textLength="56.25" x="2598.75" y="1588.1189">collects</text><text fill="#000000" font-family="sans-serif" font-size="16.25" lengthAdjust="spacing" textLength="8.75" x="2476.0947" y="1505.0053">1</text><text fill="#000000" font-family="sans-serif" font-size="16.25" lengthAdjust="spacing" textLength="25" x="2623.7229" y="1633.9065">1..*</text><!--MD5=[a457e9ab0335e1a600338213fc53e5bd]
link Sample to MyBarcode--><path codeLine="200" d="M2699.8375,1715.1125 C2694.05,1751.7125 2684.7125,1810.725 2678.9125,1847.3375 " fill="none" id="Sample-MyBarcode" style="stroke:#A80036;stroke-width:1.25;"/><polygon fill="#000000" points="2695.2731,1787.6429,2700.6689,1777.0497,2693.4118,1775.9013,2695.2731,1787.6429" style="stroke:#000000;stroke-width:1.25;"/><text fill="#000000" font-family="sans-serif" font-size="16.25" lengthAdjust="spacing" textLength="97.5" x="2707.5" y="1788.1189">identified with</text><text fill="#000000" font-family="sans-serif" font-size="16.25" lengthAdjust="spacing" textLength="8.75" x="2689.0012" y="1741.6468">1</text><text fill="#000000" font-family="sans-serif" font-size="16.25" lengthAdjust="spacing" textLength="8.75" x="2670.3446" y="1834.1262">1</text><!--MD5=[e4260d37eac002eaed16f3dbd7488749]
reverse link Interfaces to Adapters--><path d="M3192.5,869.9409 C3192.5,870.4592 3192.5,870.9791 3192.5,871.5006 C3192.5,873.5864 3192.5,875.6967 3192.5,877.8293 C3192.5,882.0944 3192.5,886.4488 3192.5,890.8744 C3192.5,908.5771 3192.5,927.4207 3192.5,946.2641 C3192.5,965.1074 3192.5,983.9505 3192.5,1001.6519 C3192.5,1001.9285 3192.5,1002.2048 3192.5,1002.4808 " fill="none" id="Interfaces-backto-Adapters" style="stroke:#A80036;stroke-width:1.25;stroke-dasharray:7.0,7.0;"/><polygon fill="#FFFFFF" points="3192.5,869.9409,3183.75,893.6909,3201.25,893.6909,3192.5,869.9409" style="stroke:#A80036;stroke-width:1.25;"/><!--MD5=[50a3f65e1c55b1f4fbf6f3ec54f8479b]
link Adapters to APIs--><path d="M3201.063,1173.4978 C3201.1287,1173.6458 3201.1948,1173.7936 3201.2613,1173.9412 C3201.3943,1174.2363 3201.529,1174.5306 3201.6655,1174.8238 C3201.9386,1175.4104 3202.2186,1175.9931 3202.5059,1176.5717 C3203.6549,1178.8861 3204.9192,1181.1341 3206.3096,1183.2931 C3209.0902,1187.6111 3212.375,1191.5734 3216.25,1195 C3400.45,1357.85 3599.8375,1082.8625 3765,1265 C3777.5875,1278.8813 3784.282,1296.3016 3787.2219,1314.6783 C3787.9568,1319.2725 3788.4571,1323.9265 3788.7562,1328.5999 C3788.9057,1330.9366 3789.0049,1333.2781 3789.058,1335.6195 C3789.0845,1336.7902 3789.0995,1337.9608 3789.1035,1339.1308 " fill="none" id="Adapters-to-APIs" style="stroke:#A80036;stroke-width:1.25;"/><polygon fill="#A80036" points="3789.1035,1339.1308,3794.0651,1327.8638,3789.0822,1332.8808,3784.0652,1327.8979,3789.1035,1339.1308" style="stroke:#A80036;stroke-width:1.25;"/><!--MD5=[d1d8997231ecd729aee5994c14758c82]
link ClientStore to ParameterStore--><!--MD5=[7340b417511c250d567e92d4709250ea]
link ParameterStore to SampleStore--><!--MD5=[88843d74b8637ddbd4f94fc1f534b2f4]
link ClientStore to TestStore--><!--MD5=[b0a70a502b300066f8ea063b3afafece]
link TestStore to ClinicalAnalysisLaboratoryStore--><!--MD5=[e0c74da7971ad49ccb99dd30d5717ca3]
link ClinicalAnalysisLaboratoryStore to TestTypeStore--><!--MD5=[aa13b6f17ebdc2e607fe72cf4ff1663b]
@startuml
hide empty methods
hide empty attributes
/'left to right direction'/
skinparam classAttributeIconSize 0

package Core {

package Domain {

package Adapters {
    class BarbecueAdapter {
    +MyBarcode getBarcode(barcodeNumber)
    +saveImageBarcode(myBarcode, code)
    }
    }

package Interfaces {
    interface ExternalAPI <<interface>> {
    +MyBarcode getBarcode(barcodeNumber)
    +saveImageBarcode(myBarcode, code)
    }
}
package Model {

       class ClinicalAnalysisLaboratory{
               - laboratoryID
               }

               class Test{
                   - code
                   - NhsCode
                   - dateOfTestRegistration
                   - dateOfSamplesCollection
                   - dateOfChemicalAnalysis
                   - dateOfDiagnosis
               }

        class Company {
                    -designation : String
                    +getTestTypeStore()
                    +getParameterStore()
                    +getTestStore()
                    +getCalStore()
                }
                class TestType {
                    - code : String
                    - description : String
                    - collectingMethod : String
                    }

                class Sample {
                -myBarcode
                }

                class Parameter {
                  -code
                  -shortName
                  -description
                }
                class TestParameter{
                    +TestParameter(parameter: Parameter)
                }
                class TestParameterResult{
                - createdAt
                - value
                - metric
                }

                class Client{
                - name
                - citizenCardNum
                - nhsNum
                - birthDate
                - sex
                - taxIdNum
                - phoneNum
                - email
                }

                class MyBarcode {
                - barcodeNumber
                }

}

package Stores {

    class ClientStore {
               +getClientByTinNumber(tinNumber)
            }

            class ParameterStore {
                    +getParamsByCategories(List<String> selectedCategoriesCodes)
                    +getParamsByCategory(String category)
                }

            class SampleStore {
                +createSample(myBarcode)
                +validateSample(sample)
            }

            class TestStore {
                +createTest(String nhsCode, Client associatedClient,\n TestType selectedTestType, List<Parameter>selectedParamsList)
                +validateTest(test)
                +saveTest(test)
            }

            class ClinicalAnalysisLaboratoryStore {
                +getCalByCode(labId)
            }

            class TestTypeStore {
                +getTestTypeByTinNumber(code)
                }

}


package DTO {

    class TestFileDTO{
               -ClientDTO
               -NhsCode
               -TestParameterCodes
               -TestParameterResult
               - dateOfTestRegistration
               - dateOfSamplesCollection
               - dateOfChemicalAnalysis
               - dateOfDiagnosis
            }
}

}
package Controllers {

    class CreateTestOfFileControler{
        +createTest(TestFileDto)
        +saveTest()
        }

    class ImportTestController{
            +createTestsFromFile(TestFileDto)
            +saveTest()
            +addSample()
        }

    class RegisterClientController {
      +registerClient(ClientDto)
      +saveClient()
    }

}

package ThirdParty {
class barcode
package APIs {
    class BarbecueAPI{
    +Barcode createUPCA(data)
    +BufferedImage saveJPEG(barcode, file)
    }
    }
}

}
package UI {
    package Utils{
        class TestFileUtils {
        +getTestDataToDto(filepath)

        }
    }
    package GUI {
     class ImportTestUI{
      }
    }

}

Controllers ..> Model
Controllers ..> DTO
Controllers ..> Controllers
UI ..> Controllers
UI ..> DTO
Model - - Stores : uses >
ImportTestUI .> TestFileUtils
ImportTestController ..> CreateTestOfFileControler
ImportTestController ..> RegisterClientController
Company "1" - - - "*" Test : conducts >
Client "1" - - "1" Test : requested by <
ClinicalAnalysisLaboratory "1" - "1..*" Test : performs >
TestType "1" - - "1..*" Parameter : characterized by >
Company "1" - - "*" TestType : conducts >
Company "1" - - "*" Test : conducts >
Company "1" - "*" Parameter : capable of analysing >
Test "*" - - "1" TestType : classified as >
Test "1" - - "1..*" TestParameter : requests analysis of >
TestParameter "*" - - "1" Parameter : refers to >
TestParameter "1" - "0..1" TestParameterResult : contains >
Test"1" - - "1..*" Sample : collects >
Sample "1" - - "1" MyBarcode : identified with >
Interfaces <|.. Adapters
Adapters - -> APIs

@enduml

@startuml
hide empty methods
hide empty attributes
skinparam classAttributeIconSize 0

package Core {

package Domain {

package Adapters {
    class BarbecueAdapter {
    +MyBarcode getBarcode(barcodeNumber)
    +saveImageBarcode(myBarcode, code)
    }
    }

package Interfaces {
    interface ExternalAPI <<interface>> {
    +MyBarcode getBarcode(barcodeNumber)
    +saveImageBarcode(myBarcode, code)
    }
}
package Model {

       class ClinicalAnalysisLaboratory{
               - laboratoryID
               }

               class Test{
                   - code
                   - NhsCode
                   - dateOfTestRegistration
                   - dateOfSamplesCollection
                   - dateOfChemicalAnalysis
                   - dateOfDiagnosis
               }

        class Company {
                    -designation : String
                    +getTestTypeStore()
                    +getParameterStore()
                    +getTestStore()
                    +getCalStore()
                }
                class TestType {
                    - code : String
                    - description : String
                    - collectingMethod : String
                    }

                class Sample {
                -myBarcode
                }

                class Parameter {
                  -code
                  -shortName
                  -description
                }
                class TestParameter{
                    +TestParameter(parameter: Parameter)
                }
                class TestParameterResult{
                - createdAt
                - value
                - metric
                }

                class Client{
                - name
                - citizenCardNum
                - nhsNum
                - birthDate
                - sex
                - taxIdNum
                - phoneNum
                - email
                }

                class MyBarcode {
                - barcodeNumber
                }

}

package Stores {

    class ClientStore {
               +getClientByTinNumber(tinNumber)
            }

            class ParameterStore {
                    +getParamsByCategories(List<String> selectedCategoriesCodes)
                    +getParamsByCategory(String category)
                }

            class SampleStore {
                +createSample(myBarcode)
                +validateSample(sample)
            }

            class TestStore {
                +createTest(String nhsCode, Client associatedClient,\n TestType selectedTestType, List<Parameter>selectedParamsList)
                +validateTest(test)
                +saveTest(test)
            }

            class ClinicalAnalysisLaboratoryStore {
                +getCalByCode(labId)
            }

            class TestTypeStore {
                +getTestTypeByTinNumber(code)
                }

}


package DTO {

    class TestFileDTO{
               -ClientDTO
               -NhsCode
               -TestParameterCodes
               -TestParameterResult
               - dateOfTestRegistration
               - dateOfSamplesCollection
               - dateOfChemicalAnalysis
               - dateOfDiagnosis
            }
}

}
package Controllers {

    class CreateTestOfFileControler{
        +createTest(TestFileDto)
        +saveTest()
        }

    class ImportTestController{
            +createTestsFromFile(TestFileDto)
            +saveTest()
            +addSample()
        }

    class RegisterClientController {
      +registerClient(ClientDto)
      +saveClient()
    }

}

package ThirdParty {
class barcode
package APIs {
    class BarbecueAPI{
    +Barcode createUPCA(data)
    +BufferedImage saveJPEG(barcode, file)
    }
    }
}

}
package UI {
    package Utils{
        class TestFileUtils {
        +getTestDataToDto(filepath)

        }
    }
    package GUI {
     class ImportTestUI{
      }
    }

}

Controllers ..> Model
Controllers ..> DTO
Controllers ..> Controllers
UI ..> Controllers
UI ..> DTO
Model - - Stores : uses >
ImportTestUI .> TestFileUtils
ImportTestController ..> CreateTestOfFileControler
ImportTestController ..> RegisterClientController
Company "1" - - - "*" Test : conducts >
Client "1" - - "1" Test : requested by <
ClinicalAnalysisLaboratory "1" - "1..*" Test : performs >
TestType "1" - - "1..*" Parameter : characterized by >
Company "1" - - "*" TestType : conducts >
Company "1" - - "*" Test : conducts >
Company "1" - "*" Parameter : capable of analysing >
Test "*" - - "1" TestType : classified as >
Test "1" - - "1..*" TestParameter : requests analysis of >
TestParameter "*" - - "1" Parameter : refers to >
TestParameter "1" - "0..1" TestParameterResult : contains >
Test"1" - - "1..*" Sample : collects >
Sample "1" - - "1" MyBarcode : identified with >
Interfaces <|.. Adapters
Adapters - -> APIs

@enduml

PlantUML version 1.2021.00(Sun Jan 10 10:25:05 GMT 2021)
(GPL source distribution)
Java Runtime: OpenJDK Runtime Environment
JVM: OpenJDK 64-Bit Server VM
Default Encoding: Cp1252
Language: pt
Country: BR
--></g></svg>