<?xml version="1.0" encoding="UTF-8" standalone="no"?><svg xmlns="http://www.w3.org/2000/svg" xmlns:xlink="http://www.w3.org/1999/xlink" contentScriptType="application/ecmascript" contentStyleType="text/css" height="572.5px" preserveAspectRatio="none" style="width:1986px;height:572px;" version="1.1" viewBox="0 0 1986 572" width="1986.25px" zoomAndPan="magnify"><defs><filter height="300%" id="fo06cic1pmrq7" width="300%" x="-1" y="-1"><feGaussianBlur result="blurOut" stdDeviation="2.5"/><feColorMatrix in="blurOut" result="blurOut2" type="matrix" values="0 0 0 0 0 0 0 0 0 0 0 0 0 0 0 0 0 0 .4 0"/><feOffset dx="5.0" dy="5.0" in="blurOut2" result="blurOut3"/><feBlend in="SourceGraphic" in2="blurOut3" mode="normal"/></filter></defs><g><!--MD5=[df38be88ccee13e832d6fafd6288a4ca]
class Test--><rect codeLine="8" fill="#FEFECE" filter="url(#fo06cic1pmrq7)" height="153.7695" id="Test" style="stroke:#A80036;stroke-width:1.875;" width="170" x="655" y="238.125"/><ellipse cx="719.6875" cy="258.125" fill="#ADD1B2" rx="13.75" ry="13.75" style="stroke:#A80036;stroke-width:1.25;"/><path d="M722.1875,253.75 Q722.4414,253.125 722.7344,252.8125 Q723.0273,252.5 723.3594,252.5 Q723.9453,252.5 724.3164,252.8516 Q724.6875,253.2031 724.6875,254.0234 L724.6875,255.9766 Q724.6875,256.7969 724.3359,257.1484 Q723.9844,257.5 723.4375,257.5 Q722.9492,257.5 722.6367,257.2852 Q722.3242,257.0703 722.1875,256.5039 Q722.1289,256.1133 721.9141,255.8984 Q721.5234,255.4883 720.8203,255.2539 Q720.1172,255 719.4141,255 Q718.5352,255 717.793,255.3516 Q717.0703,255.7031 716.5039,256.4844 Q715.9375,257.2656 715.9375,258.3398 L715.9375,259.4922 Q715.9375,260.7813 716.9922,261.6406 Q718.0469,262.5 719.9219,262.5 Q721.0352,262.5 721.8164,262.2461 Q722.2656,262.1094 722.7734,261.6602 Q723.1055,261.4063 723.2813,261.3281 Q723.457,261.25 723.6719,261.25 Q724.082,261.25 724.375,261.582 Q724.6875,261.8945 724.6875,262.3438 Q724.6875,262.7734 724.2578,263.2813 Q723.6328,264.0234 722.6367,264.4336 Q721.3281,265 719.7266,265 Q717.8516,265 716.3477,264.2578 Q715.1367,263.6719 714.2773,262.4023 Q713.4375,261.1328 713.4375,259.6289 L713.4375,258.2617 Q713.4375,256.6992 714.1797,255.332 Q714.9414,253.9648 716.25,253.2422 Q717.5781,252.5 719.0625,252.5 Q719.9609,252.5 720.7422,252.8125 Q721.5234,253.125 722.1875,253.75 Z " fill="#000000"/><text fill="#000000" font-family="sans-serif" font-size="15" lengthAdjust="spacing" textLength="30" x="745.3125" y="264.2627">Test</text><line style="stroke:#A80036;stroke-width:1.875;" x1="656.25" x2="823.75" y1="278.125" y2="278.125"/><text fill="#000000" font-family="sans-serif" font-size="13.75" lengthAdjust="spacing" textLength="35" x="662.5" y="297.3987">-code</text><text fill="#000000" font-family="sans-serif" font-size="13.75" lengthAdjust="spacing" textLength="60" x="662.5" y="314.6936">-NhsCode</text><text fill="#000000" font-family="sans-serif" font-size="13.75" lengthAdjust="spacing" textLength="143.75" x="662.5" y="331.9885">-dateOfTestRegistration</text><text fill="#000000" font-family="sans-serif" font-size="13.75" lengthAdjust="spacing" textLength="155" x="662.5" y="349.2834">-dateOfSamplesCollection</text><text fill="#000000" font-family="sans-serif" font-size="13.75" lengthAdjust="spacing" textLength="152.5" x="662.5" y="366.5784">-dateOfChemicalAnalysis</text><text fill="#000000" font-family="sans-serif" font-size="13.75" lengthAdjust="spacing" textLength="105" x="662.5" y="383.8733">-dateOfDiagnosis</text><!--MD5=[02e4b9b7573f1156f41e60aa5b4e25a4]
class Company--><rect codeLine="17" fill="#FEFECE" filter="url(#fo06cic1pmrq7)" height="67.2949" id="Company" style="stroke:#A80036;stroke-width:1.875;" width="106.25" x="8.75" y="281.25"/><ellipse cx="27.5" cy="301.25" fill="#ADD1B2" rx="13.75" ry="13.75" style="stroke:#A80036;stroke-width:1.25;"/><path d="M30,296.875 Q30.2539,296.25 30.5469,295.9375 Q30.8398,295.625 31.1719,295.625 Q31.7578,295.625 32.1289,295.9766 Q32.5,296.3281 32.5,297.1484 L32.5,299.1016 Q32.5,299.9219 32.1484,300.2734 Q31.7969,300.625 31.25,300.625 Q30.7617,300.625 30.4492,300.4102 Q30.1367,300.1953 30,299.6289 Q29.9414,299.2383 29.7266,299.0234 Q29.3359,298.6133 28.6328,298.3789 Q27.9297,298.125 27.2266,298.125 Q26.3477,298.125 25.6055,298.4766 Q24.8828,298.8281 24.3164,299.6094 Q23.75,300.3906 23.75,301.4648 L23.75,302.6172 Q23.75,303.9063 24.8047,304.7656 Q25.8594,305.625 27.7344,305.625 Q28.8477,305.625 29.6289,305.3711 Q30.0781,305.2344 30.5859,304.7852 Q30.918,304.5313 31.0938,304.4531 Q31.2695,304.375 31.4844,304.375 Q31.8945,304.375 32.1875,304.707 Q32.5,305.0195 32.5,305.4688 Q32.5,305.8984 32.0703,306.4063 Q31.4453,307.1484 30.4492,307.5586 Q29.1406,308.125 27.5391,308.125 Q25.6641,308.125 24.1602,307.3828 Q22.9492,306.7969 22.0898,305.5273 Q21.25,304.2578 21.25,302.7539 L21.25,301.3867 Q21.25,299.8242 21.9922,298.457 Q22.7539,297.0898 24.0625,296.3672 Q25.3906,295.625 26.875,295.625 Q27.7734,295.625 28.5547,295.9375 Q29.3359,296.25 30,296.875 Z " fill="#000000"/><text fill="#000000" font-family="sans-serif" font-size="15" lengthAdjust="spacing" textLength="66.25" x="45" y="307.3877">Company</text><line style="stroke:#A80036;stroke-width:1.875;" x1="10" x2="113.75" y1="321.25" y2="321.25"/><text fill="#000000" font-family="sans-serif" font-size="13.75" lengthAdjust="spacing" textLength="73.75" x="16.25" y="340.5237">-designation</text><!--MD5=[36afb6bbd95a8ac778c4537c55a683d5]
class ParameterCategory--><rect codeLine="21" fill="#FEFECE" filter="url(#fo06cic1pmrq7)" height="84.5898" id="ParameterCategory" style="stroke:#A80036;stroke-width:1.875;" width="173.75" x="1795" y="362.5"/><ellipse cx="1813.75" cy="382.5" fill="#ADD1B2" rx="13.75" ry="13.75" style="stroke:#A80036;stroke-width:1.25;"/><path d="M1816.25,378.125 Q1816.5039,377.5 1816.7969,377.1875 Q1817.0898,376.875 1817.4219,376.875 Q1818.0078,376.875 1818.3789,377.2266 Q1818.75,377.5781 1818.75,378.3984 L1818.75,380.3516 Q1818.75,381.1719 1818.3984,381.5234 Q1818.0469,381.875 1817.5,381.875 Q1817.0117,381.875 1816.6992,381.6602 Q1816.3867,381.4453 1816.25,380.8789 Q1816.1914,380.4883 1815.9766,380.2734 Q1815.5859,379.8633 1814.8828,379.6289 Q1814.1797,379.375 1813.4766,379.375 Q1812.5977,379.375 1811.8555,379.7266 Q1811.1328,380.0781 1810.5664,380.8594 Q1810,381.6406 1810,382.7148 L1810,383.8672 Q1810,385.1563 1811.0547,386.0156 Q1812.1094,386.875 1813.9844,386.875 Q1815.0977,386.875 1815.8789,386.6211 Q1816.3281,386.4844 1816.8359,386.0352 Q1817.168,385.7813 1817.3438,385.7031 Q1817.5195,385.625 1817.7344,385.625 Q1818.1445,385.625 1818.4375,385.957 Q1818.75,386.2695 1818.75,386.7188 Q1818.75,387.1484 1818.3203,387.6563 Q1817.6953,388.3984 1816.6992,388.8086 Q1815.3906,389.375 1813.7891,389.375 Q1811.9141,389.375 1810.4102,388.6328 Q1809.1992,388.0469 1808.3398,386.7773 Q1807.5,385.5078 1807.5,384.0039 L1807.5,382.6367 Q1807.5,381.0742 1808.2422,379.707 Q1809.0039,378.3398 1810.3125,377.6172 Q1811.6406,376.875 1813.125,376.875 Q1814.0234,376.875 1814.8047,377.1875 Q1815.5859,377.5 1816.25,378.125 Z " fill="#000000"/><text fill="#000000" font-family="sans-serif" font-size="15" lengthAdjust="spacing" textLength="133.75" x="1831.25" y="388.6377">ParameterCategory</text><line style="stroke:#A80036;stroke-width:1.875;" x1="1796.25" x2="1967.5" y1="402.5" y2="402.5"/><text fill="#000000" font-family="sans-serif" font-size="13.75" lengthAdjust="spacing" textLength="35" x="1802.5" y="421.7737">-code</text><text fill="#000000" font-family="sans-serif" font-size="13.75" lengthAdjust="spacing" textLength="37.5" x="1802.5" y="439.0686">-name</text><!--MD5=[9681492165142af2a4a3a169d90ee8d4]
class Sample--><rect codeLine="27" fill="#FEFECE" filter="url(#fo06cic1pmrq7)" height="67.2949" id="Sample" style="stroke:#A80036;stroke-width:1.875;" width="93.75" x="1088.125" y="17.5"/><ellipse cx="1106.875" cy="37.5" fill="#ADD1B2" rx="13.75" ry="13.75" style="stroke:#A80036;stroke-width:1.25;"/><path d="M1109.375,33.125 Q1109.6289,32.5 1109.9219,32.1875 Q1110.2148,31.875 1110.5469,31.875 Q1111.1328,31.875 1111.5039,32.2266 Q1111.875,32.5781 1111.875,33.3984 L1111.875,35.3516 Q1111.875,36.1719 1111.5234,36.5234 Q1111.1719,36.875 1110.625,36.875 Q1110.1367,36.875 1109.8242,36.6602 Q1109.5117,36.4453 1109.375,35.8789 Q1109.3164,35.4883 1109.1016,35.2734 Q1108.7109,34.8633 1108.0078,34.6289 Q1107.3047,34.375 1106.6016,34.375 Q1105.7227,34.375 1104.9805,34.7266 Q1104.2578,35.0781 1103.6914,35.8594 Q1103.125,36.6406 1103.125,37.7148 L1103.125,38.8672 Q1103.125,40.1563 1104.1797,41.0156 Q1105.2344,41.875 1107.1094,41.875 Q1108.2227,41.875 1109.0039,41.6211 Q1109.4531,41.4844 1109.9609,41.0352 Q1110.293,40.7813 1110.4688,40.7031 Q1110.6445,40.625 1110.8594,40.625 Q1111.2695,40.625 1111.5625,40.957 Q1111.875,41.2695 1111.875,41.7188 Q1111.875,42.1484 1111.4453,42.6563 Q1110.8203,43.3984 1109.8242,43.8086 Q1108.5156,44.375 1106.9141,44.375 Q1105.0391,44.375 1103.5352,43.6328 Q1102.3242,43.0469 1101.4648,41.7773 Q1100.625,40.5078 1100.625,39.0039 L1100.625,37.6367 Q1100.625,36.0742 1101.3672,34.707 Q1102.1289,33.3398 1103.4375,32.6172 Q1104.7656,31.875 1106.25,31.875 Q1107.1484,31.875 1107.9297,32.1875 Q1108.7109,32.5 1109.375,33.125 Z " fill="#000000"/><text fill="#000000" font-family="sans-serif" font-size="15" lengthAdjust="spacing" textLength="53.75" x="1124.375" y="43.6377">Sample</text><line style="stroke:#A80036;stroke-width:1.875;" x1="1089.375" x2="1180.625" y1="57.5" y2="57.5"/><text fill="#000000" font-family="sans-serif" font-size="13.75" lengthAdjust="spacing" textLength="56.25" x="1095.625" y="76.7737">-barCode</text><!--MD5=[ed6624c6556d5e7b1bd23032162d20b7]
class Client--><rect codeLine="31" fill="#FEFECE" filter="url(#fo06cic1pmrq7)" height="188.3594" id="Client" style="stroke:#A80036;stroke-width:1.875;" width="113.75" x="1078.125" y="220.625"/><ellipse cx="1112.0625" cy="240.625" fill="#ADD1B2" rx="13.75" ry="13.75" style="stroke:#A80036;stroke-width:1.25;"/><path d="M1114.5625,236.25 Q1114.8164,235.625 1115.1094,235.3125 Q1115.4023,235 1115.7344,235 Q1116.3203,235 1116.6914,235.3516 Q1117.0625,235.7031 1117.0625,236.5234 L1117.0625,238.4766 Q1117.0625,239.2969 1116.7109,239.6484 Q1116.3594,240 1115.8125,240 Q1115.3242,240 1115.0117,239.7852 Q1114.6992,239.5703 1114.5625,239.0039 Q1114.5039,238.6133 1114.2891,238.3984 Q1113.8984,237.9883 1113.1953,237.7539 Q1112.4922,237.5 1111.7891,237.5 Q1110.9102,237.5 1110.168,237.8516 Q1109.4453,238.2031 1108.8789,238.9844 Q1108.3125,239.7656 1108.3125,240.8398 L1108.3125,241.9922 Q1108.3125,243.2813 1109.3672,244.1406 Q1110.4219,245 1112.2969,245 Q1113.4102,245 1114.1914,244.7461 Q1114.6406,244.6094 1115.1484,244.1602 Q1115.4805,243.9063 1115.6563,243.8281 Q1115.832,243.75 1116.0469,243.75 Q1116.457,243.75 1116.75,244.082 Q1117.0625,244.3945 1117.0625,244.8438 Q1117.0625,245.2734 1116.6328,245.7813 Q1116.0078,246.5234 1115.0117,246.9336 Q1113.7031,247.5 1112.1016,247.5 Q1110.2266,247.5 1108.7227,246.7578 Q1107.5117,246.1719 1106.6523,244.9023 Q1105.8125,243.6328 1105.8125,242.1289 L1105.8125,240.7617 Q1105.8125,239.1992 1106.5547,237.832 Q1107.3164,236.4648 1108.625,235.7422 Q1109.9531,235 1111.4375,235 Q1112.3359,235 1113.1172,235.3125 Q1113.8984,235.625 1114.5625,236.25 Z " fill="#000000"/><text fill="#000000" font-family="sans-serif" font-size="15" lengthAdjust="spacing" textLength="40" x="1132.9375" y="246.7627">Client</text><line style="stroke:#A80036;stroke-width:1.875;" x1="1079.375" x2="1190.625" y1="260.625" y2="260.625"/><text fill="#000000" font-family="sans-serif" font-size="13.75" lengthAdjust="spacing" textLength="37.5" x="1085.625" y="279.8987">-name</text><text fill="#000000" font-family="sans-serif" font-size="13.75" lengthAdjust="spacing" textLength="98.75" x="1085.625" y="297.1936">-citizenCardNum</text><text fill="#000000" font-family="sans-serif" font-size="13.75" lengthAdjust="spacing" textLength="53.75" x="1085.625" y="314.4885">-nhsNum</text><text fill="#000000" font-family="sans-serif" font-size="13.75" lengthAdjust="spacing" textLength="58.75" x="1085.625" y="331.7834">-birthDate</text><text fill="#000000" font-family="sans-serif" font-size="13.75" lengthAdjust="spacing" textLength="27.5" x="1085.625" y="349.0784">-sex</text><text fill="#000000" font-family="sans-serif" font-size="13.75" lengthAdjust="spacing" textLength="60" x="1085.625" y="366.3733">-taxIdNum</text><text fill="#000000" font-family="sans-serif" font-size="13.75" lengthAdjust="spacing" textLength="68.75" x="1085.625" y="383.6682">-phoneNum</text><text fill="#000000" font-family="sans-serif" font-size="13.75" lengthAdjust="spacing" textLength="35" x="1085.625" y="400.9631">-email</text><!--MD5=[0f07739f46effee96e095e9c408da841]
class TestParameter--><rect codeLine="41" fill="#FEFECE" filter="url(#fo06cic1pmrq7)" height="40" id="TestParameter" style="stroke:#A80036;stroke-width:1.875;" width="142.5" x="1063.75" y="136.25"/><ellipse cx="1082.5" cy="156.25" fill="#ADD1B2" rx="13.75" ry="13.75" style="stroke:#A80036;stroke-width:1.25;"/><path d="M1085,151.875 Q1085.2539,151.25 1085.5469,150.9375 Q1085.8398,150.625 1086.1719,150.625 Q1086.7578,150.625 1087.1289,150.9766 Q1087.5,151.3281 1087.5,152.1484 L1087.5,154.1016 Q1087.5,154.9219 1087.1484,155.2734 Q1086.7969,155.625 1086.25,155.625 Q1085.7617,155.625 1085.4492,155.4102 Q1085.1367,155.1953 1085,154.6289 Q1084.9414,154.2383 1084.7266,154.0234 Q1084.3359,153.6133 1083.6328,153.3789 Q1082.9297,153.125 1082.2266,153.125 Q1081.3477,153.125 1080.6055,153.4766 Q1079.8828,153.8281 1079.3164,154.6094 Q1078.75,155.3906 1078.75,156.4648 L1078.75,157.6172 Q1078.75,158.9063 1079.8047,159.7656 Q1080.8594,160.625 1082.7344,160.625 Q1083.8477,160.625 1084.6289,160.3711 Q1085.0781,160.2344 1085.5859,159.7852 Q1085.918,159.5313 1086.0938,159.4531 Q1086.2695,159.375 1086.4844,159.375 Q1086.8945,159.375 1087.1875,159.707 Q1087.5,160.0195 1087.5,160.4688 Q1087.5,160.8984 1087.0703,161.4063 Q1086.4453,162.1484 1085.4492,162.5586 Q1084.1406,163.125 1082.5391,163.125 Q1080.6641,163.125 1079.1602,162.3828 Q1077.9492,161.7969 1077.0898,160.5273 Q1076.25,159.2578 1076.25,157.7539 L1076.25,156.3867 Q1076.25,154.8242 1076.9922,153.457 Q1077.7539,152.0898 1079.0625,151.3672 Q1080.3906,150.625 1081.875,150.625 Q1082.7734,150.625 1083.5547,150.9375 Q1084.3359,151.25 1085,151.875 Z " fill="#000000"/><text fill="#000000" font-family="sans-serif" font-size="15" lengthAdjust="spacing" textLength="102.5" x="1100" y="162.3877">TestParameter</text><!--MD5=[4e608140b854dae633589343bce77383]
class TestParameterResult--><rect codeLine="42" fill="#FEFECE" filter="url(#fo06cic1pmrq7)" height="101.8848" id="TestParameterResult" style="stroke:#A80036;stroke-width:1.875;" width="187.5" x="1397.5" y="120"/><ellipse cx="1416.25" cy="140" fill="#ADD1B2" rx="13.75" ry="13.75" style="stroke:#A80036;stroke-width:1.25;"/><path d="M1418.75,135.625 Q1419.0039,135 1419.2969,134.6875 Q1419.5898,134.375 1419.9219,134.375 Q1420.5078,134.375 1420.8789,134.7266 Q1421.25,135.0781 1421.25,135.8984 L1421.25,137.8516 Q1421.25,138.6719 1420.8984,139.0234 Q1420.5469,139.375 1420,139.375 Q1419.5117,139.375 1419.1992,139.1602 Q1418.8867,138.9453 1418.75,138.3789 Q1418.6914,137.9883 1418.4766,137.7734 Q1418.0859,137.3633 1417.3828,137.1289 Q1416.6797,136.875 1415.9766,136.875 Q1415.0977,136.875 1414.3555,137.2266 Q1413.6328,137.5781 1413.0664,138.3594 Q1412.5,139.1406 1412.5,140.2148 L1412.5,141.3672 Q1412.5,142.6563 1413.5547,143.5156 Q1414.6094,144.375 1416.4844,144.375 Q1417.5977,144.375 1418.3789,144.1211 Q1418.8281,143.9844 1419.3359,143.5352 Q1419.668,143.2813 1419.8438,143.2031 Q1420.0195,143.125 1420.2344,143.125 Q1420.6445,143.125 1420.9375,143.457 Q1421.25,143.7695 1421.25,144.2188 Q1421.25,144.6484 1420.8203,145.1563 Q1420.1953,145.8984 1419.1992,146.3086 Q1417.8906,146.875 1416.2891,146.875 Q1414.4141,146.875 1412.9102,146.1328 Q1411.6992,145.5469 1410.8398,144.2773 Q1410,143.0078 1410,141.5039 L1410,140.1367 Q1410,138.5742 1410.7422,137.207 Q1411.5039,135.8398 1412.8125,135.1172 Q1414.1406,134.375 1415.625,134.375 Q1416.5234,134.375 1417.3047,134.6875 Q1418.0859,135 1418.75,135.625 Z " fill="#000000"/><text fill="#000000" font-family="sans-serif" font-size="15" lengthAdjust="spacing" textLength="147.5" x="1433.75" y="146.1377">TestParameterResult</text><line style="stroke:#A80036;stroke-width:1.875;" x1="1398.75" x2="1583.75" y1="160" y2="160"/><text fill="#000000" font-family="sans-serif" font-size="13.75" lengthAdjust="spacing" textLength="65" x="1405" y="179.2737">-createdAt</text><text fill="#000000" font-family="sans-serif" font-size="13.75" lengthAdjust="spacing" textLength="37.5" x="1405" y="196.5686">-value</text><text fill="#000000" font-family="sans-serif" font-size="13.75" lengthAdjust="spacing" textLength="41.25" x="1405" y="213.8635">-metric</text><!--MD5=[aeb3272166074d8737a70b61b1e71682]
class TestType--><rect codeLine="47" fill="#FEFECE" filter="url(#fo06cic1pmrq7)" height="101.8848" id="TestType" style="stroke:#A80036;stroke-width:1.875;" width="132.5" x="1068.75" y="453.75"/><ellipse cx="1101" cy="473.75" fill="#ADD1B2" rx="13.75" ry="13.75" style="stroke:#A80036;stroke-width:1.25;"/><path d="M1103.5,469.375 Q1103.7539,468.75 1104.0469,468.4375 Q1104.3398,468.125 1104.6719,468.125 Q1105.2578,468.125 1105.6289,468.4766 Q1106,468.8281 1106,469.6484 L1106,471.6016 Q1106,472.4219 1105.6484,472.7734 Q1105.2969,473.125 1104.75,473.125 Q1104.2617,473.125 1103.9492,472.9102 Q1103.6367,472.6953 1103.5,472.1289 Q1103.4414,471.7383 1103.2266,471.5234 Q1102.8359,471.1133 1102.1328,470.8789 Q1101.4297,470.625 1100.7266,470.625 Q1099.8477,470.625 1099.1055,470.9766 Q1098.3828,471.3281 1097.8164,472.1094 Q1097.25,472.8906 1097.25,473.9648 L1097.25,475.1172 Q1097.25,476.4063 1098.3047,477.2656 Q1099.3594,478.125 1101.2344,478.125 Q1102.3477,478.125 1103.1289,477.8711 Q1103.5781,477.7344 1104.0859,477.2852 Q1104.418,477.0313 1104.5938,476.9531 Q1104.7695,476.875 1104.9844,476.875 Q1105.3945,476.875 1105.6875,477.207 Q1106,477.5195 1106,477.9688 Q1106,478.3984 1105.5703,478.9063 Q1104.9453,479.6484 1103.9492,480.0586 Q1102.6406,480.625 1101.0391,480.625 Q1099.1641,480.625 1097.6602,479.8828 Q1096.4492,479.2969 1095.5898,478.0273 Q1094.75,476.7578 1094.75,475.2539 L1094.75,473.8867 Q1094.75,472.3242 1095.4922,470.957 Q1096.2539,469.5898 1097.5625,468.8672 Q1098.8906,468.125 1100.375,468.125 Q1101.2734,468.125 1102.0547,468.4375 Q1102.8359,468.75 1103.5,469.375 Z " fill="#000000"/><text fill="#000000" font-family="sans-serif" font-size="15" lengthAdjust="spacing" textLength="62.5" x="1121.5" y="479.8877">TestType</text><line style="stroke:#A80036;stroke-width:1.875;" x1="1070" x2="1200" y1="493.75" y2="493.75"/><text fill="#000000" font-family="sans-serif" font-size="13.75" lengthAdjust="spacing" textLength="36.25" x="1076.25" y="513.0237">-Code</text><text fill="#000000" font-family="sans-serif" font-size="13.75" lengthAdjust="spacing" textLength="72.5" x="1076.25" y="530.3186">-Description</text><text fill="#000000" font-family="sans-serif" font-size="13.75" lengthAdjust="spacing" textLength="117.5" x="1076.25" y="547.6135">-Collecting methods</text><!--MD5=[1f6362a5c8f21d8d6a0fce68f3a92a4e]
class Parameter--><rect codeLine="53" fill="#FEFECE" filter="url(#fo06cic1pmrq7)" height="101.8848" id="Parameter" style="stroke:#A80036;stroke-width:1.875;" width="112.5" x="1435" y="283.75"/><ellipse cx="1453.75" cy="303.75" fill="#ADD1B2" rx="13.75" ry="13.75" style="stroke:#A80036;stroke-width:1.25;"/><path d="M1456.25,299.375 Q1456.5039,298.75 1456.7969,298.4375 Q1457.0898,298.125 1457.4219,298.125 Q1458.0078,298.125 1458.3789,298.4766 Q1458.75,298.8281 1458.75,299.6484 L1458.75,301.6016 Q1458.75,302.4219 1458.3984,302.7734 Q1458.0469,303.125 1457.5,303.125 Q1457.0117,303.125 1456.6992,302.9102 Q1456.3867,302.6953 1456.25,302.1289 Q1456.1914,301.7383 1455.9766,301.5234 Q1455.5859,301.1133 1454.8828,300.8789 Q1454.1797,300.625 1453.4766,300.625 Q1452.5977,300.625 1451.8555,300.9766 Q1451.1328,301.3281 1450.5664,302.1094 Q1450,302.8906 1450,303.9648 L1450,305.1172 Q1450,306.4063 1451.0547,307.2656 Q1452.1094,308.125 1453.9844,308.125 Q1455.0977,308.125 1455.8789,307.8711 Q1456.3281,307.7344 1456.8359,307.2852 Q1457.168,307.0313 1457.3438,306.9531 Q1457.5195,306.875 1457.7344,306.875 Q1458.1445,306.875 1458.4375,307.207 Q1458.75,307.5195 1458.75,307.9688 Q1458.75,308.3984 1458.3203,308.9063 Q1457.6953,309.6484 1456.6992,310.0586 Q1455.3906,310.625 1453.7891,310.625 Q1451.9141,310.625 1450.4102,309.8828 Q1449.1992,309.2969 1448.3398,308.0273 Q1447.5,306.7578 1447.5,305.2539 L1447.5,303.8867 Q1447.5,302.3242 1448.2422,300.957 Q1449.0039,299.5898 1450.3125,298.8672 Q1451.6406,298.125 1453.125,298.125 Q1454.0234,298.125 1454.8047,298.4375 Q1455.5859,298.75 1456.25,299.375 Z " fill="#000000"/><text fill="#000000" font-family="sans-serif" font-size="15" lengthAdjust="spacing" textLength="72.5" x="1471.25" y="309.8877">Parameter</text><line style="stroke:#A80036;stroke-width:1.875;" x1="1436.25" x2="1546.25" y1="323.75" y2="323.75"/><text fill="#000000" font-family="sans-serif" font-size="13.75" lengthAdjust="spacing" textLength="35" x="1442.5" y="343.0237">-code</text><text fill="#000000" font-family="sans-serif" font-size="13.75" lengthAdjust="spacing" textLength="70" x="1442.5" y="360.3186">-shortName</text><text fill="#000000" font-family="sans-serif" font-size="13.75" lengthAdjust="spacing" textLength="71.25" x="1442.5" y="377.6135">-description</text><!--MD5=[e59bda2572a266093cda22ac34510ea0]
class Barcode--><rect codeLine="59" fill="#FEFECE" filter="url(#fo06cic1pmrq7)" height="67.2949" id="Barcode" style="stroke:#A80036;stroke-width:1.875;" width="116.25" x="1433.125" y="8.75"/><ellipse cx="1460.3125" cy="28.75" fill="#ADD1B2" rx="13.75" ry="13.75" style="stroke:#A80036;stroke-width:1.25;"/><path d="M1462.8125,24.375 Q1463.0664,23.75 1463.3594,23.4375 Q1463.6523,23.125 1463.9844,23.125 Q1464.5703,23.125 1464.9414,23.4766 Q1465.3125,23.8281 1465.3125,24.6484 L1465.3125,26.6016 Q1465.3125,27.4219 1464.9609,27.7734 Q1464.6094,28.125 1464.0625,28.125 Q1463.5742,28.125 1463.2617,27.9102 Q1462.9492,27.6953 1462.8125,27.1289 Q1462.7539,26.7383 1462.5391,26.5234 Q1462.1484,26.1133 1461.4453,25.8789 Q1460.7422,25.625 1460.0391,25.625 Q1459.1602,25.625 1458.418,25.9766 Q1457.6953,26.3281 1457.1289,27.1094 Q1456.5625,27.8906 1456.5625,28.9648 L1456.5625,30.1172 Q1456.5625,31.4063 1457.6172,32.2656 Q1458.6719,33.125 1460.5469,33.125 Q1461.6602,33.125 1462.4414,32.8711 Q1462.8906,32.7344 1463.3984,32.2852 Q1463.7305,32.0313 1463.9063,31.9531 Q1464.082,31.875 1464.2969,31.875 Q1464.707,31.875 1465,32.207 Q1465.3125,32.5195 1465.3125,32.9688 Q1465.3125,33.3984 1464.8828,33.9063 Q1464.2578,34.6484 1463.2617,35.0586 Q1461.9531,35.625 1460.3516,35.625 Q1458.4766,35.625 1456.9727,34.8828 Q1455.7617,34.2969 1454.9023,33.0273 Q1454.0625,31.7578 1454.0625,30.2539 L1454.0625,28.8867 Q1454.0625,27.3242 1454.8047,25.957 Q1455.5664,24.5898 1456.875,23.8672 Q1458.2031,23.125 1459.6875,23.125 Q1460.5859,23.125 1461.3672,23.4375 Q1462.1484,23.75 1462.8125,24.375 Z " fill="#000000"/><text fill="#000000" font-family="sans-serif" font-size="15" lengthAdjust="spacing" textLength="57.5" x="1479.6875" y="34.8877">Barcode</text><line style="stroke:#A80036;stroke-width:1.875;" x1="1434.375" x2="1548.125" y1="48.75" y2="48.75"/><text fill="#000000" font-family="sans-serif" font-size="13.75" lengthAdjust="spacing" textLength="101.25" x="1440.625" y="68.0237">-barcodeNumber</text><!--MD5=[1934a092c0e7d4da7dc7075b6f4b6b03]
class ClinicalAnalysisLaboratory--><rect codeLine="63" fill="#FEFECE" filter="url(#fo06cic1pmrq7)" height="67.2949" id="ClinicalAnalysisLaboratory" style="stroke:#A80036;stroke-width:1.875;" width="221.25" x="246.25" y="383.75"/><ellipse cx="265" cy="403.75" fill="#ADD1B2" rx="13.75" ry="13.75" style="stroke:#A80036;stroke-width:1.25;"/><path d="M267.5,399.375 Q267.7539,398.75 268.0469,398.4375 Q268.3398,398.125 268.6719,398.125 Q269.2578,398.125 269.6289,398.4766 Q270,398.8281 270,399.6484 L270,401.6016 Q270,402.4219 269.6484,402.7734 Q269.2969,403.125 268.75,403.125 Q268.2617,403.125 267.9492,402.9102 Q267.6367,402.6953 267.5,402.1289 Q267.4414,401.7383 267.2266,401.5234 Q266.8359,401.1133 266.1328,400.8789 Q265.4297,400.625 264.7266,400.625 Q263.8477,400.625 263.1055,400.9766 Q262.3828,401.3281 261.8164,402.1094 Q261.25,402.8906 261.25,403.9648 L261.25,405.1172 Q261.25,406.4063 262.3047,407.2656 Q263.3594,408.125 265.2344,408.125 Q266.3477,408.125 267.1289,407.8711 Q267.5781,407.7344 268.0859,407.2852 Q268.418,407.0313 268.5938,406.9531 Q268.7695,406.875 268.9844,406.875 Q269.3945,406.875 269.6875,407.207 Q270,407.5195 270,407.9688 Q270,408.3984 269.5703,408.9063 Q268.9453,409.6484 267.9492,410.0586 Q266.6406,410.625 265.0391,410.625 Q263.1641,410.625 261.6602,409.8828 Q260.4492,409.2969 259.5898,408.0273 Q258.75,406.7578 258.75,405.2539 L258.75,403.8867 Q258.75,402.3242 259.4922,400.957 Q260.2539,399.5898 261.5625,398.8672 Q262.8906,398.125 264.375,398.125 Q265.2734,398.125 266.0547,398.4375 Q266.8359,398.75 267.5,399.375 Z " fill="#000000"/><text fill="#000000" font-family="sans-serif" font-size="15" lengthAdjust="spacing" textLength="181.25" x="282.5" y="409.8877">ClinicalAnalysisLaboratory</text><line style="stroke:#A80036;stroke-width:1.875;" x1="247.5" x2="466.25" y1="423.75" y2="423.75"/><text fill="#000000" font-family="sans-serif" font-size="13.75" lengthAdjust="spacing" textLength="77.5" x="253.75" y="443.0237">-laboratoryID</text><!--MD5=[f00dbe8c0302c6aec2cb26b3c659c8fc]
class Report--><rect fill="#FEFECE" filter="url(#fo06cic1pmrq7)" height="40" id="Report" style="stroke:#A80036;stroke-width:1.875;" width="86.25" x="313.75" y="300"/><ellipse cx="332.5" cy="320" fill="#ADD1B2" rx="13.75" ry="13.75" style="stroke:#A80036;stroke-width:1.25;"/><path d="M335,315.625 Q335.2539,315 335.5469,314.6875 Q335.8398,314.375 336.1719,314.375 Q336.7578,314.375 337.1289,314.7266 Q337.5,315.0781 337.5,315.8984 L337.5,317.8516 Q337.5,318.6719 337.1484,319.0234 Q336.7969,319.375 336.25,319.375 Q335.7617,319.375 335.4492,319.1602 Q335.1367,318.9453 335,318.3789 Q334.9414,317.9883 334.7266,317.7734 Q334.3359,317.3633 333.6328,317.1289 Q332.9297,316.875 332.2266,316.875 Q331.3477,316.875 330.6055,317.2266 Q329.8828,317.5781 329.3164,318.3594 Q328.75,319.1406 328.75,320.2148 L328.75,321.3672 Q328.75,322.6563 329.8047,323.5156 Q330.8594,324.375 332.7344,324.375 Q333.8477,324.375 334.6289,324.1211 Q335.0781,323.9844 335.5859,323.5352 Q335.918,323.2813 336.0938,323.2031 Q336.2695,323.125 336.4844,323.125 Q336.8945,323.125 337.1875,323.457 Q337.5,323.7695 337.5,324.2188 Q337.5,324.6484 337.0703,325.1563 Q336.4453,325.8984 335.4492,326.3086 Q334.1406,326.875 332.5391,326.875 Q330.6641,326.875 329.1602,326.1328 Q327.9492,325.5469 327.0898,324.2773 Q326.25,323.0078 326.25,321.5039 L326.25,320.1367 Q326.25,318.5742 326.9922,317.207 Q327.7539,315.8398 329.0625,315.1172 Q330.3906,314.375 331.875,314.375 Q332.7734,314.375 333.5547,314.6875 Q334.3359,315 335,315.625 Z " fill="#000000"/><text fill="#000000" font-family="sans-serif" font-size="15" lengthAdjust="spacing" textLength="46.25" x="350" y="326.1377">Report</text><!--MD5=[2c3d06ea16abba5fb0e6626b718769d1]
class ExternalAPI--><rect fill="#FEFECE" filter="url(#fo06cic1pmrq7)" height="40" id="ExternalAPI" style="stroke:#A80036;stroke-width:1.875;" width="117.5" x="1823.125" y="22.5"/><ellipse cx="1841.875" cy="42.5" fill="#ADD1B2" rx="13.75" ry="13.75" style="stroke:#A80036;stroke-width:1.25;"/><path d="M1844.375,38.125 Q1844.6289,37.5 1844.9219,37.1875 Q1845.2148,36.875 1845.5469,36.875 Q1846.1328,36.875 1846.5039,37.2266 Q1846.875,37.5781 1846.875,38.3984 L1846.875,40.3516 Q1846.875,41.1719 1846.5234,41.5234 Q1846.1719,41.875 1845.625,41.875 Q1845.1367,41.875 1844.8242,41.6602 Q1844.5117,41.4453 1844.375,40.8789 Q1844.3164,40.4883 1844.1016,40.2734 Q1843.7109,39.8633 1843.0078,39.6289 Q1842.3047,39.375 1841.6016,39.375 Q1840.7227,39.375 1839.9805,39.7266 Q1839.2578,40.0781 1838.6914,40.8594 Q1838.125,41.6406 1838.125,42.7148 L1838.125,43.8672 Q1838.125,45.1563 1839.1797,46.0156 Q1840.2344,46.875 1842.1094,46.875 Q1843.2227,46.875 1844.0039,46.6211 Q1844.4531,46.4844 1844.9609,46.0352 Q1845.293,45.7813 1845.4688,45.7031 Q1845.6445,45.625 1845.8594,45.625 Q1846.2695,45.625 1846.5625,45.957 Q1846.875,46.2695 1846.875,46.7188 Q1846.875,47.1484 1846.4453,47.6563 Q1845.8203,48.3984 1844.8242,48.8086 Q1843.5156,49.375 1841.9141,49.375 Q1840.0391,49.375 1838.5352,48.6328 Q1837.3242,48.0469 1836.4648,46.7773 Q1835.625,45.5078 1835.625,44.0039 L1835.625,42.6367 Q1835.625,41.0742 1836.3672,39.707 Q1837.1289,38.3398 1838.4375,37.6172 Q1839.7656,36.875 1841.25,36.875 Q1842.1484,36.875 1842.9297,37.1875 Q1843.7109,37.5 1844.375,38.125 Z " fill="#000000"/><text fill="#000000" font-family="sans-serif" font-size="15" lengthAdjust="spacing" textLength="77.5" x="1859.375" y="48.6377">ExternalAPI</text><!--MD5=[e981d4f96c4342412d1e68160b30cf70]
link Test to TestType--><path codeLine="67" d="M825.125,353.9125 C882.075,380.525 958.9625,416.8625 1026.25,450 C1039.975,456.7625 1054.625,464.1375 1068.5375,471.2375 " fill="none" id="Test-TestType" style="stroke:#A80036;stroke-width:1.25;"/><polygon fill="#000000" points="901.8801,362.9334,893.2902,354.715,890.1001,361.3336,901.8801,362.9334" style="stroke:#000000;stroke-width:1.25;"/><text fill="#000000" font-family="sans-serif" font-size="16.25" lengthAdjust="spacing" textLength="90" x="907.5" y="366.8689">classified as</text><text fill="#000000" font-family="sans-serif" font-size="16.25" lengthAdjust="spacing" textLength="6.25" x="834.7773" y="376.1542">*</text><text fill="#000000" font-family="sans-serif" font-size="16.25" lengthAdjust="spacing" textLength="8.75" x="1049.826" y="484.839">1</text><!--MD5=[63d25d625ab355317a074a623d33bba8]
link Report to Test--><path codeLine="68" d="M400.3125,319.45 C461.475,318.6375 576.0625,317.1375 654.825,316.1 " fill="none" id="Report-Test" style="stroke:#A80036;stroke-width:1.25;"/><polygon fill="#000000" points="549.3745,305.1375,538.0207,301.6129,538.1174,308.9596,549.3745,305.1375" style="stroke:#000000;stroke-width:1.25;"/><text fill="#000000" font-family="sans-serif" font-size="16.25" lengthAdjust="spacing" textLength="30" x="554.375" y="311.8689">is of</text><text fill="#000000" font-family="sans-serif" font-size="16.25" lengthAdjust="spacing" textLength="8.75" x="410.1738" y="338.3133">1</text><text fill="#000000" font-family="sans-serif" font-size="16.25" lengthAdjust="spacing" textLength="8.75" x="636.2805" y="334.2059">1</text><!--MD5=[3994f36c72829dbcddd1cf7021dddf61]
link Test to Client--><path codeLine="69" d="M825.45,315 C901.8125,315 1012.2125,315 1078.1,315 " fill="none" id="Test-Client" style="stroke:#A80036;stroke-width:1.25;"/><polygon fill="#000000" points="900.625,303.9697,889.3186,300.2961,889.3186,307.6434,900.625,303.9697" style="stroke:#000000;stroke-width:1.25;"/><text fill="#000000" font-family="sans-serif" font-size="16.25" lengthAdjust="spacing" textLength="93.75" x="905.625" y="310.6189">requested by</text><text fill="#000000" font-family="sans-serif" font-size="16.25" lengthAdjust="spacing" textLength="6.25" x="835.1379" y="332.9856">*</text><text fill="#000000" font-family="sans-serif" font-size="16.25" lengthAdjust="spacing" textLength="8.75" x="1059.2013" y="333.5939">1</text><!--MD5=[6df8849671cb880f6936e94aa30db6f9]
link Parameter to ParameterCategory--><path codeLine="70" d="M1547.7,344.95 C1612.1625,356.575 1719.5375,375.95 1794.8875,389.5375 " fill="none" id="Parameter-ParameterCategory" style="stroke:#A80036;stroke-width:1.25;"/><polygon fill="#000000" points="1634.9007,348.8292,1624.4261,343.2068,1623.1218,350.4375,1634.9007,348.8292" style="stroke:#000000;stroke-width:1.25;"/><text fill="#000000" font-family="sans-serif" font-size="16.25" lengthAdjust="spacing" textLength="116.25" x="1640" y="354.3689">presented under</text><text fill="#000000" font-family="sans-serif" font-size="16.25" lengthAdjust="spacing" textLength="6.25" x="1557.5671" y="365.2105">*</text><text fill="#000000" font-family="sans-serif" font-size="16.25" lengthAdjust="spacing" textLength="8.75" x="1776.1447" y="405.8554">1</text><!--MD5=[8aaf0efd5e2f3824be7ea3e488dcc283]
link TestType to ParameterCategory--><path codeLine="71" d="M1201.325,496.2625 C1335.7625,478.2 1644.1125,436.775 1794.7,416.5375 " fill="none" id="TestType-ParameterCategory" style="stroke:#A80036;stroke-width:1.25;"/><polygon fill="#000000" points="1434.3193,433.1375,1422.6245,431.0021,1423.6029,438.284,1434.3193,433.1375" style="stroke:#000000;stroke-width:1.25;"/><text fill="#000000" font-family="sans-serif" font-size="16.25" lengthAdjust="spacing" textLength="120" x="1439.375" y="440.6189">characterized by</text><text fill="#000000" font-family="sans-serif" font-size="16.25" lengthAdjust="spacing" textLength="8.75" x="1211.2672" y="513.3831">1</text><text fill="#000000" font-family="sans-serif" font-size="16.25" lengthAdjust="spacing" textLength="25" x="1759.8882" y="435.5683">1..*</text><!--MD5=[b72ac8ab7fb5921fceb5036a3902baea]
link Test to Sample--><path codeLine="72" d="M795.35,238.025 C814.5875,214.45 837.6875,189.85 862.5,171.25 C933.1625,118.275 1030.8875,82.425 1087.7,64.525 " fill="none" id="Test-Sample" style="stroke:#A80036;stroke-width:1.25;"/><polygon fill="#000000" points="918.4998,73.28,906.9018,75.8911,910.6516,82.2095,918.4998,73.28" style="stroke:#000000;stroke-width:1.25;"/><text fill="#000000" font-family="sans-serif" font-size="16.25" lengthAdjust="spacing" textLength="56.25" x="924.375" y="83.1189">collects</text><text fill="#000000" font-family="sans-serif" font-size="16.25" lengthAdjust="spacing" textLength="8.75" x="792.8126" y="224.3194">1</text><text fill="#000000" font-family="sans-serif" font-size="16.25" lengthAdjust="spacing" textLength="25" x="1053.1694" y="85.1547">1..*</text><!--MD5=[f24c888dadeb846430474fe80a58922b]
link Test to TestParameter--><path codeLine="73" d="M825.45,280.95 C904.0625,249.15 1018.75,202.7625 1083.8125,176.45 " fill="none" id="Test-TestParameter" style="stroke:#A80036;stroke-width:1.25;"/><polygon fill="#000000" points="874.544,190.3762,862.6851,191.21,865.44,198.0213,874.544,190.3762" style="stroke:#000000;stroke-width:1.25;"/><text fill="#000000" font-family="sans-serif" font-size="16.25" lengthAdjust="spacing" textLength="145" x="880" y="199.3689">requests analysis of</text><text fill="#000000" font-family="sans-serif" font-size="16.25" lengthAdjust="spacing" textLength="8.75" x="835.2746" y="295.2114">1</text><text fill="#000000" font-family="sans-serif" font-size="16.25" lengthAdjust="spacing" textLength="25" x="1038.5121" y="203.0152">1..*</text><!--MD5=[92e8e476cc9e9004a7125f53a120ec97]
link TestParameter to Parameter--><path codeLine="74" d="M1176.1375,176.4125 C1239.3875,208.3625 1362.825,270.7375 1434.6125,307.0125 " fill="none" id="TestParameter-Parameter" style="stroke:#A80036;stroke-width:1.25;"/><polygon fill="#000000" points="1274.9534,206.7883,1266.5187,198.4106,1263.2053,204.9683,1274.9534,206.7883" style="stroke:#000000;stroke-width:1.25;"/><text fill="#000000" font-family="sans-serif" font-size="16.25" lengthAdjust="spacing" textLength="58.75" x="1280.625" y="210.6189">refers to</text><text fill="#000000" font-family="sans-serif" font-size="16.25" lengthAdjust="spacing" textLength="6.25" x="1182.004" y="202.9657">*</text><text fill="#000000" font-family="sans-serif" font-size="16.25" lengthAdjust="spacing" textLength="8.75" x="1416.1386" y="321.0987">1</text><!--MD5=[0e00e25ac6b8c14659aaff2cf7e5df08]
link TestParameter to TestParameterResult--><path codeLine="75" d="M1206.5625,159.2375 C1261.2625,161.55 1337.65,164.7875 1397.35,167.325 " fill="none" id="TestParameter-TestParameterResult" style="stroke:#A80036;stroke-width:1.25;"/><polygon fill="#000000" points="1274.3694,150.4844,1263.2288,146.3352,1262.9176,153.6759,1274.3694,150.4844" style="stroke:#000000;stroke-width:1.25;"/><text fill="#000000" font-family="sans-serif" font-size="16.25" lengthAdjust="spacing" textLength="61.25" x="1279.375" y="156.8689">contains</text><text fill="#000000" font-family="sans-serif" font-size="16.25" lengthAdjust="spacing" textLength="8.75" x="1216.292" y="177.7986">1</text><text fill="#000000" font-family="sans-serif" font-size="16.25" lengthAdjust="spacing" textLength="27.5" x="1359.926" y="184.8026">0..1</text><!--MD5=[2eb961b30663a01bbfd8b4b9b8950031]
link ClinicalAnalysisLaboratory to TestType--><path codeLine="76" d="M467.6125,429.85 C631.5125,448.3375 935.5875,482.65 1068.6125,497.65 " fill="none" id="ClinicalAnalysisLaboratory-TestType" style="stroke:#A80036;stroke-width:1.25;"/><polygon fill="#000000" points="711.8356,439.6704,701.0123,434.7524,700.1887,442.0534,711.8356,439.6704" style="stroke:#000000;stroke-width:1.25;"/><text fill="#000000" font-family="sans-serif" font-size="16.25" lengthAdjust="spacing" textLength="62.5" x="716.875" y="445.6189">operates</text><text fill="#000000" font-family="sans-serif" font-size="16.25" lengthAdjust="spacing" textLength="8.75" x="477.505" y="448.6673">1</text><text fill="#000000" font-family="sans-serif" font-size="16.25" lengthAdjust="spacing" textLength="25" x="1033.505" y="514.926">1..*</text><!--MD5=[d480452e7d21fe720ba0207568bc7434]
link ClinicalAnalysisLaboratory to Test--><path codeLine="77" d="M467.775,389.65 C514.0625,377.7125 568.475,363.45 617.5,350 C629.5375,346.7 642.2375,343.125 654.6875,339.575 " fill="none" id="ClinicalAnalysisLaboratory-Test" style="stroke:#A80036;stroke-width:1.25;"/><polygon fill="#000000" points="505.2129,340.5871,517.0848,341.2098,515.1834,334.1127,505.2129,340.5871" style="stroke:#000000;stroke-width:1.25;"/><text fill="#000000" font-family="sans-serif" font-size="16.25" lengthAdjust="spacing" textLength="93.75" x="522.5" y="345.6189">conducted at</text><text fill="#000000" font-family="sans-serif" font-size="16.25" lengthAdjust="spacing" textLength="8.75" x="477.3212" y="405.0674">1</text><text fill="#000000" font-family="sans-serif" font-size="16.25" lengthAdjust="spacing" textLength="25" x="620.0591" y="359.868">1..*</text><!--MD5=[7e4bc624457760b649895ff2ead938fa]
link Company to Test--><path codeLine="78" d="M115.2125,301.8625 C151.6375,293.375 201.575,283.125 246.25,278.75 C410.475,262.65 454.1625,260.275 617.5,283.75 C629.6625,285.5 642.35,288 654.7625,290.825 " fill="none" id="Company-Test" style="stroke:#A80036;stroke-width:1.25;"/><polygon fill="#000000" points="326.8737,256.3419,315.4946,252.9003,315.6448,260.246,326.8737,256.3419" style="stroke:#000000;stroke-width:1.25;"/><text fill="#000000" font-family="sans-serif" font-size="16.25" lengthAdjust="spacing" textLength="66.25" x="331.875" y="263.1189">conducts</text><text fill="#000000" font-family="sans-serif" font-size="16.25" lengthAdjust="spacing" textLength="8.75" x="125.1318" y="318.2475">1</text><text fill="#000000" font-family="sans-serif" font-size="16.25" lengthAdjust="spacing" textLength="6.25" x="638.8479" y="306.1665">*</text><!--MD5=[aafc5d8a5829a6a8d6dc892cb1ff5d24]
link Company to ClinicalAnalysisLaboratory--><path codeLine="79" d="M115.075,333.2125 C154.975,347.1875 211.1875,366.8875 259.2375,383.725 " fill="none" id="Company-ClinicalAnalysisLaboratory" style="stroke:#A80036;stroke-width:1.25;"/><polygon fill="#000000" points="164.6484,338.5364,155.1929,331.3307,152.7633,338.2647,164.6484,338.5364" style="stroke:#000000;stroke-width:1.25;"/><text fill="#000000" font-family="sans-serif" font-size="16.25" lengthAdjust="spacing" textLength="37.5" x="170" y="343.1189">owns</text><text fill="#000000" font-family="sans-serif" font-size="16.25" lengthAdjust="spacing" textLength="8.75" x="124.9707" y="354.9858">1</text><text fill="#000000" font-family="sans-serif" font-size="16.25" lengthAdjust="spacing" textLength="25" x="211.5216" y="371.6318">2..*</text><!--MD5=[327391d6abe62f0446af3ffbf41cf7ec]
link Sample to Barcode--><path codeLine="80" d="M1182.1375,50.1125 C1246.4375,48.525 1363.3125,45.6375 1433.0875,43.9125 " fill="none" id="Sample-Barcode" style="stroke:#A80036;stroke-width:1.25;"/><polygon fill="#000000" points="1256.2481,35.0654,1244.8545,31.6721,1245.0359,39.0171,1256.2481,35.0654" style="stroke:#000000;stroke-width:1.25;"/><text fill="#000000" font-family="sans-serif" font-size="16.25" lengthAdjust="spacing" textLength="97.5" x="1261.25" y="41.8689">identified with</text><text fill="#000000" font-family="sans-serif" font-size="16.25" lengthAdjust="spacing" textLength="8.75" x="1191.9571" y="68.7322">1</text><text fill="#000000" font-family="sans-serif" font-size="16.25" lengthAdjust="spacing" textLength="8.75" x="1414.3706" y="62.6516">1</text><!--MD5=[e4ac68af6d94592bb702924ff19eb32d]
link Barcode to ExternalAPI--><path codeLine="81" d="M1549.775,42.5 C1623.15,42.5 1749.625,42.5 1823.125,42.5 " fill="none" id="Barcode-ExternalAPI" style="stroke:#A80036;stroke-width:1.25;"/><polygon fill="#000000" points="1646.25,31.4697,1634.9436,27.7961,1634.9436,35.1434,1646.25,31.4697" style="stroke:#000000;stroke-width:1.25;"/><text fill="#000000" font-family="sans-serif" font-size="16.25" lengthAdjust="spacing" textLength="93.75" x="1651.25" y="38.1189">generated by</text><text fill="#000000" font-family="sans-serif" font-size="16.25" lengthAdjust="spacing" textLength="6.25" x="1559.2152" y="60.9495">*</text><text fill="#000000" font-family="sans-serif" font-size="16.25" lengthAdjust="spacing" textLength="8.75" x="1804.3145" y="60.9977">1</text><!--MD5=[551ddfc626068591ba3097e59a2f5271]
@startuml

left to right direction
skinparam classAttributeIconSize 0
hide empty methods
hide empty attributes
/'skinparam linetype ortho'/

class Test{
- code
- NhsCode
- dateOfTestRegistration
- dateOfSamplesCollection
- dateOfChemicalAnalysis
- dateOfDiagnosis
}

class Company {
-designation
}

class ParameterCategory{
  -code
  -name
}


class Sample{
- barCode
}

class Client{
- name
- citizenCardNum
- nhsNum
- birthDate
- sex
- taxIdNum
- phoneNum
- email
}
class TestParameter{}
class TestParameterResult{
- createdAt
- value
- metric
}
class TestType{
- Code
- Description
- Collecting methods
}

class Parameter{
- code
- shortName
- description
}

class Barcode {
- barcodeNumber
}

class ClinicalAnalysisLaboratory{
- laboratoryID
}

Test "*" - - "1" TestType : classified as >
Report "1" - - "1" Test : is of >
Test "*" - - "1" Client : requested by >
Parameter "*" - - "1" ParameterCategory: presented under >
TestType "1" - - "1..*" ParameterCategory : characterized by >
Test "1" - - "1..*" Sample : collects >
Test "1" - - "1..*" TestParameter : requests analysis of >
TestParameter "*" - - "1" Parameter : refers to >
TestParameter "1" - - "0..1" TestParameterResult : contains >
ClinicalAnalysisLaboratory "1" - - "1..*" TestType : operates >
ClinicalAnalysisLaboratory "1" - - "1..*" Test : conducted at <
Company "1" - - - "*" Test : conducts >
Company "1" - - "2..*" ClinicalAnalysisLaboratory : owns >
Sample "1" - - "1" Barcode : identified with >
Barcode "*" - - "1" ExternalAPI : generated by >
@enduml

@startuml

left to right direction
skinparam classAttributeIconSize 0
hide empty methods
hide empty attributes

class Test{
- code
- NhsCode
- dateOfTestRegistration
- dateOfSamplesCollection
- dateOfChemicalAnalysis
- dateOfDiagnosis
}

class Company {
-designation
}

class ParameterCategory{
  -code
  -name
}


class Sample{
- barCode
}

class Client{
- name
- citizenCardNum
- nhsNum
- birthDate
- sex
- taxIdNum
- phoneNum
- email
}
class TestParameter{}
class TestParameterResult{
- createdAt
- value
- metric
}
class TestType{
- Code
- Description
- Collecting methods
}

class Parameter{
- code
- shortName
- description
}

class Barcode {
- barcodeNumber
}

class ClinicalAnalysisLaboratory{
- laboratoryID
}

Test "*" - - "1" TestType : classified as >
Report "1" - - "1" Test : is of >
Test "*" - - "1" Client : requested by >
Parameter "*" - - "1" ParameterCategory: presented under >
TestType "1" - - "1..*" ParameterCategory : characterized by >
Test "1" - - "1..*" Sample : collects >
Test "1" - - "1..*" TestParameter : requests analysis of >
TestParameter "*" - - "1" Parameter : refers to >
TestParameter "1" - - "0..1" TestParameterResult : contains >
ClinicalAnalysisLaboratory "1" - - "1..*" TestType : operates >
ClinicalAnalysisLaboratory "1" - - "1..*" Test : conducted at <
Company "1" - - - "*" Test : conducts >
Company "1" - - "2..*" ClinicalAnalysisLaboratory : owns >
Sample "1" - - "1" Barcode : identified with >
Barcode "*" - - "1" ExternalAPI : generated by >
@enduml

PlantUML version 1.2021.00(Sun Jan 10 10:25:05 GMT 2021)
(GPL source distribution)
Java Runtime: OpenJDK Runtime Environment
JVM: OpenJDK 64-Bit Server VM
Default Encoding: Cp1252
Language: pt
Country: BR
--></g></svg>