<?xml version="1.0" encoding="UTF-8" standalone="no"?><svg xmlns="http://www.w3.org/2000/svg" xmlns:xlink="http://www.w3.org/1999/xlink" contentScriptType="application/ecmascript" contentStyleType="text/css" height="286px" preserveAspectRatio="none" style="width:574px;height:286px;" version="1.1" viewBox="0 0 574 286" width="574px" zoomAndPan="magnify"><defs><filter height="300%" id="f17u8rzf3vjzhf" width="300%" x="-1" y="-1"><feGaussianBlur result="blurOut" stdDeviation="2.0"/><feColorMatrix in="blurOut" result="blurOut2" type="matrix" values="0 0 0 0 0 0 0 0 0 0 0 0 0 0 0 0 0 0 .4 0"/><feOffset dx="4.0" dy="4.0" in="blurOut2" result="blurOut3"/><feBlend in="SourceGraphic" in2="blurOut3" mode="normal"/></filter></defs><g><!--MD5=[02e4b9b7573f1156f41e60aa5b4e25a4]
class Company--><rect codeLine="7" fill="#FEFECE" filter="url(#f17u8rzf3vjzhf)" height="53.8359" id="Company" style="stroke:#A80036;stroke-width:1.5;" width="85" x="7" y="152"/><ellipse cx="22" cy="168" fill="#ADD1B2" rx="11" ry="11" style="stroke:#A80036;stroke-width:1.0;"/><path d="M24,164.5 Q24.2031,164 24.4375,163.75 Q24.6719,163.5 24.9375,163.5 Q25.4063,163.5 25.7031,163.7813 Q26,164.0625 26,164.7188 L26,166.2813 Q26,166.9375 25.7188,167.2188 Q25.4375,167.5 25,167.5 Q24.6094,167.5 24.3594,167.3281 Q24.1094,167.1563 24,166.7031 Q23.9531,166.3906 23.7813,166.2188 Q23.4688,165.8906 22.9063,165.7031 Q22.3438,165.5 21.7813,165.5 Q21.0781,165.5 20.4844,165.7813 Q19.9063,166.0625 19.4531,166.6875 Q19,167.3125 19,168.1719 L19,169.0938 Q19,170.125 19.8438,170.8125 Q20.6875,171.5 22.1875,171.5 Q23.0781,171.5 23.7031,171.2969 Q24.0625,171.1875 24.4688,170.8281 Q24.7344,170.625 24.875,170.5625 Q25.0156,170.5 25.1875,170.5 Q25.5156,170.5 25.75,170.7656 Q26,171.0156 26,171.375 Q26,171.7188 25.6563,172.125 Q25.1563,172.7188 24.3594,173.0469 Q23.3125,173.5 22.0313,173.5 Q20.5313,173.5 19.3281,172.9063 Q18.3594,172.4375 17.6719,171.4219 Q17,170.4063 17,169.2031 L17,168.1094 Q17,166.8594 17.5938,165.7656 Q18.2031,164.6719 19.25,164.0938 Q20.3125,163.5 21.5,163.5 Q22.2188,163.5 22.8438,163.75 Q23.4688,164 24,164.5 Z " fill="#000000"/><text fill="#000000" font-family="sans-serif" font-size="12" lengthAdjust="spacing" textLength="53" x="36" y="172.9102">Company</text><line style="stroke:#A80036;stroke-width:1.5;" x1="8" x2="91" y1="184" y2="184"/><text fill="#000000" font-family="sans-serif" font-size="11" lengthAdjust="spacing" textLength="59" x="13" y="199.4189">-designation</text><!--MD5=[7421f545a0d8420c5bec41e74b387d9c]
class Employee--><rect codeLine="11" fill="#FEFECE" filter="url(#f17u8rzf3vjzhf)" height="123.0156" id="Employee" style="stroke:#A80036;stroke-width:1.5;" width="87" x="212" y="76.5"/><ellipse cx="227" cy="92.5" fill="#ADD1B2" rx="11" ry="11" style="stroke:#A80036;stroke-width:1.0;"/><path d="M229,89 Q229.2031,88.5 229.4375,88.25 Q229.6719,88 229.9375,88 Q230.4063,88 230.7031,88.2813 Q231,88.5625 231,89.2188 L231,90.7813 Q231,91.4375 230.7188,91.7188 Q230.4375,92 230,92 Q229.6094,92 229.3594,91.8281 Q229.1094,91.6563 229,91.2031 Q228.9531,90.8906 228.7813,90.7188 Q228.4688,90.3906 227.9063,90.2031 Q227.3438,90 226.7813,90 Q226.0781,90 225.4844,90.2813 Q224.9063,90.5625 224.4531,91.1875 Q224,91.8125 224,92.6719 L224,93.5938 Q224,94.625 224.8438,95.3125 Q225.6875,96 227.1875,96 Q228.0781,96 228.7031,95.7969 Q229.0625,95.6875 229.4688,95.3281 Q229.7344,95.125 229.875,95.0625 Q230.0156,95 230.1875,95 Q230.5156,95 230.75,95.2656 Q231,95.5156 231,95.875 Q231,96.2188 230.6563,96.625 Q230.1563,97.2188 229.3594,97.5469 Q228.3125,98 227.0313,98 Q225.5313,98 224.3281,97.4063 Q223.3594,96.9375 222.6719,95.9219 Q222,94.9063 222,93.7031 L222,92.6094 Q222,91.3594 222.5938,90.2656 Q223.2031,89.1719 224.25,88.5938 Q225.3125,88 226.5,88 Q227.2188,88 227.8438,88.25 Q228.4688,88.5 229,89 Z " fill="#000000"/><text fill="#000000" font-family="sans-serif" font-size="12" lengthAdjust="spacing" textLength="55" x="241" y="97.4102">Employee</text><line style="stroke:#A80036;stroke-width:1.5;" x1="213" x2="298" y1="108.5" y2="108.5"/><text fill="#000000" font-family="sans-serif" font-size="11" lengthAdjust="spacing" textLength="59" x="218" y="123.9189">-employeeID</text><text fill="#000000" font-family="sans-serif" font-size="11" lengthAdjust="spacing" textLength="30" x="218" y="137.7549">-name</text><text fill="#000000" font-family="sans-serif" font-size="11" lengthAdjust="spacing" textLength="44" x="218" y="151.5908">-address</text><text fill="#000000" font-family="sans-serif" font-size="11" lengthAdjust="spacing" textLength="71" x="218" y="165.4268">-phoneNumber</text><text fill="#000000" font-family="sans-serif" font-size="11" lengthAdjust="spacing" textLength="32" x="218" y="179.2627">-e-Mail</text><text fill="#000000" font-family="sans-serif" font-size="11" lengthAdjust="spacing" textLength="47" x="218" y="193.0986">-socCode</text><!--MD5=[3fd616f346a44cd59a91eb10b19e157c]
class User--><rect codeLine="20" fill="#FEFECE" filter="url(#f17u8rzf3vjzhf)" height="81.5078" id="User" style="stroke:#A80036;stroke-width:1.5;" width="66" x="463.5" y="96"/><ellipse cx="481.65" cy="112" fill="#ADD1B2" rx="11" ry="11" style="stroke:#A80036;stroke-width:1.0;"/><path d="M483.65,108.5 Q483.8531,108 484.0875,107.75 Q484.3219,107.5 484.5875,107.5 Q485.0563,107.5 485.3531,107.7813 Q485.65,108.0625 485.65,108.7188 L485.65,110.2813 Q485.65,110.9375 485.3688,111.2188 Q485.0875,111.5 484.65,111.5 Q484.2594,111.5 484.0094,111.3281 Q483.7594,111.1563 483.65,110.7031 Q483.6031,110.3906 483.4313,110.2188 Q483.1188,109.8906 482.5563,109.7031 Q481.9938,109.5 481.4313,109.5 Q480.7281,109.5 480.1344,109.7813 Q479.5563,110.0625 479.1031,110.6875 Q478.65,111.3125 478.65,112.1719 L478.65,113.0938 Q478.65,114.125 479.4938,114.8125 Q480.3375,115.5 481.8375,115.5 Q482.7281,115.5 483.3531,115.2969 Q483.7125,115.1875 484.1188,114.8281 Q484.3844,114.625 484.525,114.5625 Q484.6656,114.5 484.8375,114.5 Q485.1656,114.5 485.4,114.7656 Q485.65,115.0156 485.65,115.375 Q485.65,115.7188 485.3063,116.125 Q484.8063,116.7188 484.0094,117.0469 Q482.9625,117.5 481.6813,117.5 Q480.1813,117.5 478.9781,116.9063 Q478.0094,116.4375 477.3219,115.4219 Q476.65,114.4063 476.65,113.2031 L476.65,112.1094 Q476.65,110.8594 477.2438,109.7656 Q477.8531,108.6719 478.9,108.0938 Q479.9625,107.5 481.15,107.5 Q481.8688,107.5 482.4938,107.75 Q483.1188,108 483.65,108.5 Z " fill="#000000"/><text fill="#000000" font-family="sans-serif" font-size="12" lengthAdjust="spacing" textLength="27" x="496.35" y="116.9102">User</text><line style="stroke:#A80036;stroke-width:1.5;" x1="464.5" x2="528.5" y1="128" y2="128"/><text fill="#000000" font-family="sans-serif" font-size="11" lengthAdjust="spacing" textLength="30" x="469.5" y="143.4189">-name</text><text fill="#000000" font-family="sans-serif" font-size="11" lengthAdjust="spacing" textLength="28" x="469.5" y="157.2549">-email</text><text fill="#000000" font-family="sans-serif" font-size="11" lengthAdjust="spacing" textLength="54" x="469.5" y="171.0908">-password</text><!--MD5=[12e90e92236ca84f203192a07d84ec5e]
class OrganizationRole--><rect codeLine="26" fill="#FEFECE" filter="url(#f17u8rzf3vjzhf)" height="53.8359" id="OrganizationRole" style="stroke:#A80036;stroke-width:1.5;" width="127" x="433" y="219"/><ellipse cx="448" cy="235" fill="#ADD1B2" rx="11" ry="11" style="stroke:#A80036;stroke-width:1.0;"/><path d="M450,231.5 Q450.2031,231 450.4375,230.75 Q450.6719,230.5 450.9375,230.5 Q451.4063,230.5 451.7031,230.7813 Q452,231.0625 452,231.7188 L452,233.2813 Q452,233.9375 451.7188,234.2188 Q451.4375,234.5 451,234.5 Q450.6094,234.5 450.3594,234.3281 Q450.1094,234.1563 450,233.7031 Q449.9531,233.3906 449.7813,233.2188 Q449.4688,232.8906 448.9063,232.7031 Q448.3438,232.5 447.7813,232.5 Q447.0781,232.5 446.4844,232.7813 Q445.9063,233.0625 445.4531,233.6875 Q445,234.3125 445,235.1719 L445,236.0938 Q445,237.125 445.8438,237.8125 Q446.6875,238.5 448.1875,238.5 Q449.0781,238.5 449.7031,238.2969 Q450.0625,238.1875 450.4688,237.8281 Q450.7344,237.625 450.875,237.5625 Q451.0156,237.5 451.1875,237.5 Q451.5156,237.5 451.75,237.7656 Q452,238.0156 452,238.375 Q452,238.7188 451.6563,239.125 Q451.1563,239.7188 450.3594,240.0469 Q449.3125,240.5 448.0313,240.5 Q446.5313,240.5 445.3281,239.9063 Q444.3594,239.4375 443.6719,238.4219 Q443,237.4063 443,236.2031 L443,235.1094 Q443,233.8594 443.5938,232.7656 Q444.2031,231.6719 445.25,231.0938 Q446.3125,230.5 447.5,230.5 Q448.2188,230.5 448.8438,230.75 Q449.4688,231 450,231.5 Z " fill="#000000"/><text fill="#000000" font-family="sans-serif" font-size="12" lengthAdjust="spacing" textLength="95" x="462" y="239.9102">OrganizationRole</text><line style="stroke:#A80036;stroke-width:1.5;" x1="434" x2="559" y1="251" y2="251"/><text fill="#000000" font-family="sans-serif" font-size="11" lengthAdjust="spacing" textLength="57" x="439" y="266.4189">-description</text><!--MD5=[7d96fd15f3014691d2fcaf89c5791e2a]
class SpecialistDoctor--><rect codeLine="30" fill="#FEFECE" filter="url(#f17u8rzf3vjzhf)" height="53.8359" id="SpecialistDoctor" style="stroke:#A80036;stroke-width:1.5;" width="122" x="435.5" y="7"/><ellipse cx="450.5" cy="23" fill="#ADD1B2" rx="11" ry="11" style="stroke:#A80036;stroke-width:1.0;"/><path d="M452.5,19.5 Q452.7031,19 452.9375,18.75 Q453.1719,18.5 453.4375,18.5 Q453.9063,18.5 454.2031,18.7813 Q454.5,19.0625 454.5,19.7188 L454.5,21.2813 Q454.5,21.9375 454.2188,22.2188 Q453.9375,22.5 453.5,22.5 Q453.1094,22.5 452.8594,22.3281 Q452.6094,22.1563 452.5,21.7031 Q452.4531,21.3906 452.2813,21.2188 Q451.9688,20.8906 451.4063,20.7031 Q450.8438,20.5 450.2813,20.5 Q449.5781,20.5 448.9844,20.7813 Q448.4063,21.0625 447.9531,21.6875 Q447.5,22.3125 447.5,23.1719 L447.5,24.0938 Q447.5,25.125 448.3438,25.8125 Q449.1875,26.5 450.6875,26.5 Q451.5781,26.5 452.2031,26.2969 Q452.5625,26.1875 452.9688,25.8281 Q453.2344,25.625 453.375,25.5625 Q453.5156,25.5 453.6875,25.5 Q454.0156,25.5 454.25,25.7656 Q454.5,26.0156 454.5,26.375 Q454.5,26.7188 454.1563,27.125 Q453.6563,27.7188 452.8594,28.0469 Q451.8125,28.5 450.5313,28.5 Q449.0313,28.5 447.8281,27.9063 Q446.8594,27.4375 446.1719,26.4219 Q445.5,25.4063 445.5,24.2031 L445.5,23.1094 Q445.5,21.8594 446.0938,20.7656 Q446.7031,19.6719 447.75,19.0938 Q448.8125,18.5 450,18.5 Q450.7188,18.5 451.3438,18.75 Q451.9688,19 452.5,19.5 Z " fill="#000000"/><text fill="#000000" font-family="sans-serif" font-size="12" lengthAdjust="spacing" textLength="90" x="464.5" y="27.9102">SpecialistDoctor</text><line style="stroke:#A80036;stroke-width:1.5;" x1="436.5" x2="556.5" y1="39" y2="39"/><text fill="#000000" font-family="sans-serif" font-size="11" lengthAdjust="spacing" textLength="98" x="441.5" y="54.4189">-doctorIndexNumber</text><!--MD5=[d7ace9ce94145b54e26b24a174e1b7b9]
link Employee to Company--><path codeLine="34" d="M211.92,167.98 C201.6,173.76 190.28,178.95 179,182 C150.67,189.65 117.54,188.65 92.01,185.87 " fill="none" id="Employee-Company" style="stroke:#A80036;stroke-width:1.0;"/><polygon fill="#000000" points="131.9453,172.438,122.5655,170.8659,123.4329,176.6794,131.9453,172.438" style="stroke:#000000;stroke-width:1.0;"/><text fill="#000000" font-family="sans-serif" font-size="13" lengthAdjust="spacing" textLength="42" x="136" y="178.4951">employ</text><text fill="#000000" font-family="sans-serif" font-size="13" lengthAdjust="spacing" textLength="5" x="199" y="188.0318">*</text><text fill="#000000" font-family="sans-serif" font-size="13" lengthAdjust="spacing" textLength="7" x="99.918" y="183.2152">1</text><!--MD5=[09366576ee87d48d594df10cacc83f45]
link Company to Employee--><!--MD5=[22fb9506fac029fc1d2ae00f0eb8d606]
link Employee to User--><path codeLine="35" d="M299.23,137.82 C346.36,137.62 421.11,137.31 463.46,137.13 " fill="none" id="Employee-User" style="stroke:#A80036;stroke-width:1.0;"/><polygon fill="#000000" points="343,128.1548,333.9426,125.2539,333.9673,131.1317,343,128.1548" style="stroke:#000000;stroke-width:1.0;"/><text fill="#000000" font-family="sans-serif" font-size="13" lengthAdjust="spacing" textLength="54" x="347" y="133.4951">relates to</text><text fill="#000000" font-family="sans-serif" font-size="13" lengthAdjust="spacing" textLength="22" x="306.9264" y="152.4384">0..1</text><text fill="#000000" font-family="sans-serif" font-size="13" lengthAdjust="spacing" textLength="7" x="448.4669" y="152.4958">1</text><!--MD5=[372bd27a178b4208a6d241b4516ac7e6]
reverse link Employee to SpecialistDoctor--><path codeLine="36" d="M317.66,111.38 C353.75,95.68 399.25,75.88 435.19,60.25 " fill="none" id="Employee-backto-SpecialistDoctor" style="stroke:#A80036;stroke-width:1.0;"/><polygon fill="none" points="320.36,117.85,299.23,119.41,314.77,105.01,320.36,117.85" style="stroke:#A80036;stroke-width:1.0;"/><!--MD5=[241b49406f7a05442b1e788ffaf3787c]
link Employee to OrganizationRole--><path codeLine="37" d="M299.23,157.31 C337.23,174.48 393.18,199.76 435.64,218.95 " fill="none" id="Employee-OrganizationRole" style="stroke:#A80036;stroke-width:1.0;"/><polygon fill="#000000" points="341.5564,165.2347,334.524,158.8319,332.1036,164.1883,341.5564,165.2347" style="stroke:#000000;stroke-width:1.0;"/><text fill="#000000" font-family="sans-serif" font-size="13" lengthAdjust="spacing" textLength="56" x="346" y="168.4951">has/plays</text><text fill="#000000" font-family="sans-serif" font-size="13" lengthAdjust="spacing" textLength="5" x="306.8868" y="175.3562">*</text><text fill="#000000" font-family="sans-serif" font-size="13" lengthAdjust="spacing" textLength="7" x="417.9804" y="210.6827">1</text><!--MD5=[9abf40ff36e4aa94ac761b2803c1dce8]
link Company to OrganizationRole--><path codeLine="38" d="M92.25,197.65 C123.67,210.72 168.15,227.19 209,235 C285.02,249.54 374.4,250.48 432.85,248.97 " fill="none" id="Company-OrganizationRole" style="stroke:#A80036;stroke-width:1.0;"/><polygon fill="#000000" points="218.9442,226.9207,210.4379,222.667,209.5622,228.4792,218.9442,226.9207" style="stroke:#000000;stroke-width:1.0;"/><text fill="#000000" font-family="sans-serif" font-size="13" lengthAdjust="spacing" textLength="78" x="223" y="231.4951">comprehends</text><text fill="#000000" font-family="sans-serif" font-size="13" lengthAdjust="spacing" textLength="7" x="99.9102" y="215.6017">1</text><text fill="#000000" font-family="sans-serif" font-size="13" lengthAdjust="spacing" textLength="5" x="420.2014" y="263.7633">*</text><!--MD5=[3b85c56e204db4c6a4344a242340d4dc]
@startuml

skinparam classAttributeIconSize 0
hide empty methods
hide empty attributes
left to right direction

class Company{
- designation
}

class Employee {
- employeeID
- name
- address
- phoneNumber
- e-Mail
- socCode
}

class User {
-name
-email
-password
}

class OrganizationRole {
-description
}

class SpecialistDoctor{
- doctorIndexNumber
}

Employee "*" - - "1" Company : employ <
Employee "0..1" - - "1" User : relates to >
Employee <|- - SpecialistDoctor
Employee "*" - - "1" OrganizationRole : has/plays >
Company "1" - - "*" OrganizationRole : comprehends >

Company -[hidden]down-> Employee



@enduml

PlantUML version 1.2021.4(Sun Apr 04 09:49:39 BST 2021)
(GPL source distribution)
Java Runtime: OpenJDK Runtime Environment
JVM: OpenJDK 64-Bit Server VM
Default Encoding: Cp1252
Language: pt
Country: PT
--></g></svg>