<?xml version="1.0" encoding="UTF-8" standalone="no"?><svg xmlns="http://www.w3.org/2000/svg" xmlns:xlink="http://www.w3.org/1999/xlink" contentScriptType="application/ecmascript" contentStyleType="text/css" height="478px" preserveAspectRatio="none" style="width:679px;height:478px;" version="1.1" viewBox="0 0 679 478" width="679px" zoomAndPan="magnify"><defs><filter height="300%" id="f1pj2mng7gnju3" width="300%" x="-1" y="-1"><feGaussianBlur result="blurOut" stdDeviation="2.0"/><feColorMatrix in="blurOut" result="blurOut2" type="matrix" values="0 0 0 0 0 0 0 0 0 0 0 0 0 0 0 0 0 0 .4 0"/><feOffset dx="4.0" dy="4.0" in="blurOut2" result="blurOut3"/><feBlend in="SourceGraphic" in2="blurOut3" mode="normal"/></filter></defs><g><rect fill="#FFFFFF" filter="url(#f1pj2mng7gnju3)" height="275.1641" style="stroke:#A80036;stroke-width:1.0;" width="10" x="44.5" y="99.6094"/><rect fill="#FFFFFF" filter="url(#f1pj2mng7gnju3)" height="30.3516" style="stroke:#A80036;stroke-width:1.0;" width="10" x="630.5" y="121.9609"/><rect fill="#FFFFFF" filter="url(#f1pj2mng7gnju3)" height="70.7031" style="stroke:#A80036;stroke-width:1.0;" width="10" x="630.5" y="182.6641"/><rect fill="#FFFFFF" filter="url(#f1pj2mng7gnju3)" height="30.3516" style="stroke:#A80036;stroke-width:1.0;" width="10" x="630.5" y="283.7188"/><rect fill="#FFFFFF" filter="url(#f1pj2mng7gnju3)" height="30.3516" style="stroke:#A80036;stroke-width:1.0;" width="10" x="630.5" y="344.4219"/><line style="stroke:#A80036;stroke-width:1.0;stroke-dasharray:5.0,5.0;" x1="49" x2="49" y1="89.6094" y2="392.7734"/><line style="stroke:#A80036;stroke-width:1.0;stroke-dasharray:5.0,5.0;" x1="635.5" x2="635.5" y1="89.6094" y2="392.7734"/><text fill="#000000" font-family="sans-serif" font-size="14" lengthAdjust="spacing" textLength="83" x="5" y="86.5332">Administrator</text><ellipse cx="49.5" cy="15" fill="#FEFECE" filter="url(#f1pj2mng7gnju3)" rx="8" ry="8" style="stroke:#A80036;stroke-width:2.0;"/><path d="M49.5,23 L49.5,50 M36.5,31 L62.5,31 M49.5,50 L36.5,65 M49.5,50 L62.5,65 " fill="none" filter="url(#f1pj2mng7gnju3)" style="stroke:#A80036;stroke-width:2.0;"/><text fill="#000000" font-family="sans-serif" font-size="14" lengthAdjust="spacing" textLength="83" x="5" y="406.3066">Administrator</text><ellipse cx="49.5" cy="419.3828" fill="#FEFECE" filter="url(#f1pj2mng7gnju3)" rx="8" ry="8" style="stroke:#A80036;stroke-width:2.0;"/><path d="M49.5,427.3828 L49.5,454.3828 M36.5,435.3828 L62.5,435.3828 M49.5,454.3828 L36.5,469.3828 M49.5,454.3828 L62.5,469.3828 " fill="none" filter="url(#f1pj2mng7gnju3)" style="stroke:#A80036;stroke-width:2.0;"/><rect fill="#FEFECE" filter="url(#f1pj2mng7gnju3)" height="31.6094" style="stroke:#A80036;stroke-width:1.5;" width="64" x="601.5" y="53"/><text fill="#000000" font-family="sans-serif" font-size="14" lengthAdjust="spacing" textLength="50" x="608.5" y="74.5332">:System</text><rect fill="#FEFECE" filter="url(#f1pj2mng7gnju3)" height="31.6094" style="stroke:#A80036;stroke-width:1.5;" width="64" x="601.5" y="391.7734"/><text fill="#000000" font-family="sans-serif" font-size="14" lengthAdjust="spacing" textLength="50" x="608.5" y="413.3066">:System</text><rect fill="#FFFFFF" filter="url(#f1pj2mng7gnju3)" height="275.1641" style="stroke:#A80036;stroke-width:1.0;" width="10" x="44.5" y="99.6094"/><rect fill="#FFFFFF" filter="url(#f1pj2mng7gnju3)" height="30.3516" style="stroke:#A80036;stroke-width:1.0;" width="10" x="630.5" y="121.9609"/><rect fill="#FFFFFF" filter="url(#f1pj2mng7gnju3)" height="70.7031" style="stroke:#A80036;stroke-width:1.0;" width="10" x="630.5" y="182.6641"/><rect fill="#FFFFFF" filter="url(#f1pj2mng7gnju3)" height="30.3516" style="stroke:#A80036;stroke-width:1.0;" width="10" x="630.5" y="283.7188"/><rect fill="#FFFFFF" filter="url(#f1pj2mng7gnju3)" height="30.3516" style="stroke:#A80036;stroke-width:1.0;" width="10" x="630.5" y="344.4219"/><polygon fill="#A80036" points="618.5,117.9609,628.5,121.9609,618.5,125.9609,622.5,121.9609" style="stroke:#A80036;stroke-width:1.0;"/><line style="stroke:#A80036;stroke-width:1.0;" x1="54.5" x2="624.5" y1="121.9609" y2="121.9609"/><text fill="#000000" font-family="sans-serif" font-size="13" font-weight="bold" lengthAdjust="spacing" textLength="7" x="61.5" y="117.1045">1</text><text fill="#000000" font-family="sans-serif" font-size="13" lengthAdjust="spacing" textLength="195" x="72.5" y="117.1045">starts registering a new employee</text><polygon fill="#A80036" points="65.5,148.3125,55.5,152.3125,65.5,156.3125,61.5,152.3125" style="stroke:#A80036;stroke-width:1.0;"/><line style="stroke:#A80036;stroke-width:1.0;stroke-dasharray:2.0,2.0;" x1="59.5" x2="634.5" y1="152.3125" y2="152.3125"/><text fill="#000000" font-family="sans-serif" font-size="13" font-weight="bold" lengthAdjust="spacing" textLength="7" x="71.5" y="147.4561">2</text><text fill="#000000" font-family="sans-serif" font-size="13" lengthAdjust="spacing" textLength="179" x="82.5" y="147.4561">asks to type the employee role</text><polygon fill="#A80036" points="618.5,178.6641,628.5,182.6641,618.5,186.6641,622.5,182.6641" style="stroke:#A80036;stroke-width:1.0;"/><line style="stroke:#A80036;stroke-width:1.0;" x1="54.5" x2="624.5" y1="182.6641" y2="182.6641"/><text fill="#000000" font-family="sans-serif" font-size="13" font-weight="bold" lengthAdjust="spacing" textLength="7" x="61.5" y="177.8076">3</text><text fill="#000000" font-family="sans-serif" font-size="13" lengthAdjust="spacing" textLength="132" x="72.5" y="177.8076">types the intended role</text><path d="M12,195.6641 L12,221.6641 L671,221.6641 L671,205.6641 L661,195.6641 L12,195.6641 " fill="#FBFB77" filter="url(#f1pj2mng7gnju3)" style="stroke:#A80036;stroke-width:1.0;"/><path d="M661,195.6641 L661,205.6641 L671,205.6641 L661,195.6641 " fill="#FBFB77" style="stroke:#A80036;stroke-width:1.0;"/><text fill="#000000" font-family="sans-serif" font-size="13" lengthAdjust="spacing" textLength="568" x="51.25" y="214.1592">If the role chose is Specialist Doctor, it will be requested one more attribute: Doctor Index Number.</text><polygon fill="#A80036" points="65.5,249.3672,55.5,253.3672,65.5,257.3672,61.5,253.3672" style="stroke:#A80036;stroke-width:1.0;"/><line style="stroke:#A80036;stroke-width:1.0;stroke-dasharray:2.0,2.0;" x1="59.5" x2="634.5" y1="253.3672" y2="253.3672"/><text fill="#000000" font-family="sans-serif" font-size="13" font-weight="bold" lengthAdjust="spacing" textLength="7" x="71.5" y="248.5107">4</text><text fill="#000000" font-family="sans-serif" font-size="13" lengthAdjust="spacing" textLength="541" x="82.5" y="248.5107">requests data (employeeId, organizationRole, name, address, phoneNumber, email, socCode)</text><polygon fill="#A80036" points="618.5,279.7188,628.5,283.7188,618.5,287.7188,622.5,283.7188" style="stroke:#A80036;stroke-width:1.0;"/><line style="stroke:#A80036;stroke-width:1.0;" x1="54.5" x2="624.5" y1="283.7188" y2="283.7188"/><text fill="#000000" font-family="sans-serif" font-size="13" font-weight="bold" lengthAdjust="spacing" textLength="7" x="61.5" y="278.8623">5</text><text fill="#000000" font-family="sans-serif" font-size="13" lengthAdjust="spacing" textLength="122" x="72.5" y="278.8623">types requested data</text><polygon fill="#A80036" points="65.5,310.0703,55.5,314.0703,65.5,318.0703,61.5,314.0703" style="stroke:#A80036;stroke-width:1.0;"/><line style="stroke:#A80036;stroke-width:1.0;stroke-dasharray:2.0,2.0;" x1="59.5" x2="634.5" y1="314.0703" y2="314.0703"/><text fill="#000000" font-family="sans-serif" font-size="13" font-weight="bold" lengthAdjust="spacing" textLength="7" x="71.5" y="309.2139">6</text><text fill="#000000" font-family="sans-serif" font-size="13" lengthAdjust="spacing" textLength="236" x="82.5" y="309.2139">shows all data and requests confirmation</text><polygon fill="#A80036" points="618.5,340.4219,628.5,344.4219,618.5,348.4219,622.5,344.4219" style="stroke:#A80036;stroke-width:1.0;"/><line style="stroke:#A80036;stroke-width:1.0;" x1="54.5" x2="624.5" y1="344.4219" y2="344.4219"/><text fill="#000000" font-family="sans-serif" font-size="13" font-weight="bold" lengthAdjust="spacing" textLength="7" x="61.5" y="339.5654">7</text><text fill="#000000" font-family="sans-serif" font-size="13" lengthAdjust="spacing" textLength="100" x="72.5" y="339.5654">confirms the data</text><polygon fill="#A80036" points="60.5,370.7734,50.5,374.7734,60.5,378.7734,56.5,374.7734" style="stroke:#A80036;stroke-width:1.0;"/><line style="stroke:#A80036;stroke-width:1.0;stroke-dasharray:2.0,2.0;" x1="54.5" x2="634.5" y1="374.7734" y2="374.7734"/><text fill="#000000" font-family="sans-serif" font-size="13" font-weight="bold" lengthAdjust="spacing" textLength="7" x="66.5" y="369.917">8</text><text fill="#000000" font-family="sans-serif" font-size="13" lengthAdjust="spacing" textLength="152" x="77.5" y="369.917">informs operation success</text><!--MD5=[9c796363510014d7249801007e9e7014]
@startuml
autonumber
actor Administrator as A

activate A
A -> ":System" : starts registering a new employee
activate ":System"
":System" - -> A : asks to type the employee role
deactivate ":System"

A -> ":System" : types the intended role
activate ":System"

note over A, ":System"
If the role chose is Specialist Doctor, it will be requested one more attribute: Doctor Index Number.
end note
":System" - -> A : requests data (employeeId, organizationRole, name, address, phoneNumber, email, socCode)
deactivate ":System"

A -> ":System" : types requested data
activate ":System"
":System" - -> A : shows all data and requests confirmation
deactivate ":System"

A -> ":System" : confirms the data
activate ":System"
":System" - -> A : informs operation success
deactivate ":System"

deactivate A

@enduml

PlantUML version 1.2021.4(Sun Apr 04 09:49:39 BST 2021)
(GPL source distribution)
Java Runtime: OpenJDK Runtime Environment
JVM: OpenJDK 64-Bit Server VM
Default Encoding: Cp1252
Language: pt
Country: PT
--></g></svg>