<?xml version="1.0" encoding="UTF-8" standalone="no"?><svg xmlns="http://www.w3.org/2000/svg" xmlns:xlink="http://www.w3.org/1999/xlink" contentScriptType="application/ecmascript" contentStyleType="text/css" height="290px" preserveAspectRatio="none" style="width:1171px;height:290px;" version="1.1" viewBox="0 0 1171 290" width="1171.25px" zoomAndPan="magnify"><defs><filter height="300%" id="f1f1r7c0uipr71" width="300%" x="-1" y="-1"><feGaussianBlur result="blurOut" stdDeviation="2.5"/><feColorMatrix in="blurOut" result="blurOut2" type="matrix" values="0 0 0 0 0 0 0 0 0 0 0 0 0 0 0 0 0 0 .4 0"/><feOffset dx="5.0" dy="5.0" in="blurOut2" result="blurOut3"/><feBlend in="SourceGraphic" in2="blurOut3" mode="normal"/></filter></defs><g><!--MD5=[02e4b9b7573f1156f41e60aa5b4e25a4]
class Company--><rect codeLine="7" fill="#FEFECE" filter="url(#f1f1r7c0uipr71)" height="67.2949" id="Company" style="stroke:#A80036;stroke-width:1.875;" width="106.25" x="8.75" y="143.75"/><ellipse cx="27.5" cy="163.75" fill="#ADD1B2" rx="13.75" ry="13.75" style="stroke:#A80036;stroke-width:1.25;"/><path d="M30,159.375 Q30.2539,158.75 30.5469,158.4375 Q30.8398,158.125 31.1719,158.125 Q31.7578,158.125 32.1289,158.4766 Q32.5,158.8281 32.5,159.6484 L32.5,161.6016 Q32.5,162.4219 32.1484,162.7734 Q31.7969,163.125 31.25,163.125 Q30.7617,163.125 30.4492,162.9102 Q30.1367,162.6953 30,162.1289 Q29.9414,161.7383 29.7266,161.5234 Q29.3359,161.1133 28.6328,160.8789 Q27.9297,160.625 27.2266,160.625 Q26.3477,160.625 25.6055,160.9766 Q24.8828,161.3281 24.3164,162.1094 Q23.75,162.8906 23.75,163.9648 L23.75,165.1172 Q23.75,166.4063 24.8047,167.2656 Q25.8594,168.125 27.7344,168.125 Q28.8477,168.125 29.6289,167.8711 Q30.0781,167.7344 30.5859,167.2852 Q30.918,167.0313 31.0938,166.9531 Q31.2695,166.875 31.4844,166.875 Q31.8945,166.875 32.1875,167.207 Q32.5,167.5195 32.5,167.9688 Q32.5,168.3984 32.0703,168.9063 Q31.4453,169.6484 30.4492,170.0586 Q29.1406,170.625 27.5391,170.625 Q25.6641,170.625 24.1602,169.8828 Q22.9492,169.2969 22.0898,168.0273 Q21.25,166.7578 21.25,165.2539 L21.25,163.8867 Q21.25,162.3242 21.9922,160.957 Q22.7539,159.5898 24.0625,158.8672 Q25.3906,158.125 26.875,158.125 Q27.7734,158.125 28.5547,158.4375 Q29.3359,158.75 30,159.375 Z " fill="#000000"/><text fill="#000000" font-family="sans-serif" font-size="15" lengthAdjust="spacing" textLength="66.25" x="45" y="169.8877">Company</text><line style="stroke:#A80036;stroke-width:1.875;" x1="10" x2="113.75" y1="183.75" y2="183.75"/><text fill="#000000" font-family="sans-serif" font-size="13.75" lengthAdjust="spacing" textLength="73.75" x="16.25" y="203.0237">-designation</text><!--MD5=[1f6362a5c8f21d8d6a0fce68f3a92a4e]
class Parameter--><rect codeLine="11" fill="#FEFECE" filter="url(#f1f1r7c0uipr71)" height="101.8848" id="Parameter" style="stroke:#A80036;stroke-width:1.875;" width="112.5" x="356.25" y="8.75"/><ellipse cx="375" cy="28.75" fill="#ADD1B2" rx="13.75" ry="13.75" style="stroke:#A80036;stroke-width:1.25;"/><path d="M377.5,24.375 Q377.7539,23.75 378.0469,23.4375 Q378.3398,23.125 378.6719,23.125 Q379.2578,23.125 379.6289,23.4766 Q380,23.8281 380,24.6484 L380,26.6016 Q380,27.4219 379.6484,27.7734 Q379.2969,28.125 378.75,28.125 Q378.2617,28.125 377.9492,27.9102 Q377.6367,27.6953 377.5,27.1289 Q377.4414,26.7383 377.2266,26.5234 Q376.8359,26.1133 376.1328,25.8789 Q375.4297,25.625 374.7266,25.625 Q373.8477,25.625 373.1055,25.9766 Q372.3828,26.3281 371.8164,27.1094 Q371.25,27.8906 371.25,28.9648 L371.25,30.1172 Q371.25,31.4063 372.3047,32.2656 Q373.3594,33.125 375.2344,33.125 Q376.3477,33.125 377.1289,32.8711 Q377.5781,32.7344 378.0859,32.2852 Q378.418,32.0313 378.5938,31.9531 Q378.7695,31.875 378.9844,31.875 Q379.3945,31.875 379.6875,32.207 Q380,32.5195 380,32.9688 Q380,33.3984 379.5703,33.9063 Q378.9453,34.6484 377.9492,35.0586 Q376.6406,35.625 375.0391,35.625 Q373.1641,35.625 371.6602,34.8828 Q370.4492,34.2969 369.5898,33.0273 Q368.75,31.7578 368.75,30.2539 L368.75,28.8867 Q368.75,27.3242 369.4922,25.957 Q370.2539,24.5898 371.5625,23.8672 Q372.8906,23.125 374.375,23.125 Q375.2734,23.125 376.0547,23.4375 Q376.8359,23.75 377.5,24.375 Z " fill="#000000"/><text fill="#000000" font-family="sans-serif" font-size="15" lengthAdjust="spacing" textLength="72.5" x="392.5" y="34.8877">Parameter</text><line style="stroke:#A80036;stroke-width:1.875;" x1="357.5" x2="467.5" y1="48.75" y2="48.75"/><text fill="#000000" font-family="sans-serif" font-size="13.75" lengthAdjust="spacing" textLength="35" x="363.75" y="68.0237">-code</text><text fill="#000000" font-family="sans-serif" font-size="13.75" lengthAdjust="spacing" textLength="70" x="363.75" y="85.3186">-shortName</text><text fill="#000000" font-family="sans-serif" font-size="13.75" lengthAdjust="spacing" textLength="71.25" x="363.75" y="102.6135">-description</text><!--MD5=[36afb6bbd95a8ac778c4537c55a683d5]
class ParameterCategory--><rect codeLine="17" fill="#FEFECE" filter="url(#f1f1r7c0uipr71)" height="84.5898" id="ParameterCategory" style="stroke:#A80036;stroke-width:1.875;" width="173.75" x="678.75" y="136.25"/><ellipse cx="697.5" cy="156.25" fill="#ADD1B2" rx="13.75" ry="13.75" style="stroke:#A80036;stroke-width:1.25;"/><path d="M700,151.875 Q700.2539,151.25 700.5469,150.9375 Q700.8398,150.625 701.1719,150.625 Q701.7578,150.625 702.1289,150.9766 Q702.5,151.3281 702.5,152.1484 L702.5,154.1016 Q702.5,154.9219 702.1484,155.2734 Q701.7969,155.625 701.25,155.625 Q700.7617,155.625 700.4492,155.4102 Q700.1367,155.1953 700,154.6289 Q699.9414,154.2383 699.7266,154.0234 Q699.3359,153.6133 698.6328,153.3789 Q697.9297,153.125 697.2266,153.125 Q696.3477,153.125 695.6055,153.4766 Q694.8828,153.8281 694.3164,154.6094 Q693.75,155.3906 693.75,156.4648 L693.75,157.6172 Q693.75,158.9063 694.8047,159.7656 Q695.8594,160.625 697.7344,160.625 Q698.8477,160.625 699.6289,160.3711 Q700.0781,160.2344 700.5859,159.7852 Q700.918,159.5313 701.0938,159.4531 Q701.2695,159.375 701.4844,159.375 Q701.8945,159.375 702.1875,159.707 Q702.5,160.0195 702.5,160.4688 Q702.5,160.8984 702.0703,161.4063 Q701.4453,162.1484 700.4492,162.5586 Q699.1406,163.125 697.5391,163.125 Q695.6641,163.125 694.1602,162.3828 Q692.9492,161.7969 692.0898,160.5273 Q691.25,159.2578 691.25,157.7539 L691.25,156.3867 Q691.25,154.8242 691.9922,153.457 Q692.7539,152.0898 694.0625,151.3672 Q695.3906,150.625 696.875,150.625 Q697.7734,150.625 698.5547,150.9375 Q699.3359,151.25 700,151.875 Z " fill="#000000"/><text fill="#000000" font-family="sans-serif" font-size="15" lengthAdjust="spacing" textLength="133.75" x="715" y="162.3877">ParameterCategory</text><line style="stroke:#A80036;stroke-width:1.875;" x1="680" x2="851.25" y1="176.25" y2="176.25"/><text fill="#000000" font-family="sans-serif" font-size="13.75" lengthAdjust="spacing" textLength="35" x="686.25" y="195.5237">-code</text><text fill="#000000" font-family="sans-serif" font-size="13.75" lengthAdjust="spacing" textLength="37.5" x="686.25" y="212.8186">-name</text><!--MD5=[da547346deef918ea16944ba046651ef]
class Administrator--><rect codeLine="22" fill="#FEFECE" filter="url(#f1f1r7c0uipr71)" height="40" id="Administrator" style="stroke:#A80036;stroke-width:1.875;" width="131.25" x="1022.5" y="158.75"/><ellipse cx="1041.25" cy="178.75" fill="#ADD1B2" rx="13.75" ry="13.75" style="stroke:#A80036;stroke-width:1.25;"/><path d="M1043.75,174.375 Q1044.0039,173.75 1044.2969,173.4375 Q1044.5898,173.125 1044.9219,173.125 Q1045.5078,173.125 1045.8789,173.4766 Q1046.25,173.8281 1046.25,174.6484 L1046.25,176.6016 Q1046.25,177.4219 1045.8984,177.7734 Q1045.5469,178.125 1045,178.125 Q1044.5117,178.125 1044.1992,177.9102 Q1043.8867,177.6953 1043.75,177.1289 Q1043.6914,176.7383 1043.4766,176.5234 Q1043.0859,176.1133 1042.3828,175.8789 Q1041.6797,175.625 1040.9766,175.625 Q1040.0977,175.625 1039.3555,175.9766 Q1038.6328,176.3281 1038.0664,177.1094 Q1037.5,177.8906 1037.5,178.9648 L1037.5,180.1172 Q1037.5,181.4062 1038.5547,182.2656 Q1039.6094,183.125 1041.4844,183.125 Q1042.5977,183.125 1043.3789,182.8711 Q1043.8281,182.7344 1044.3359,182.2852 Q1044.668,182.0312 1044.8438,181.9531 Q1045.0195,181.875 1045.2344,181.875 Q1045.6445,181.875 1045.9375,182.207 Q1046.25,182.5195 1046.25,182.9687 Q1046.25,183.3984 1045.8203,183.9062 Q1045.1953,184.6484 1044.1992,185.0586 Q1042.8906,185.625 1041.2891,185.625 Q1039.4141,185.625 1037.9102,184.8828 Q1036.6992,184.2969 1035.8398,183.0273 Q1035,181.7578 1035,180.2539 L1035,178.8867 Q1035,177.3242 1035.7422,175.957 Q1036.5039,174.5898 1037.8125,173.8672 Q1039.1406,173.125 1040.625,173.125 Q1041.5234,173.125 1042.3047,173.4375 Q1043.0859,173.75 1043.75,174.375 Z " fill="#000000"/><text fill="#000000" font-family="sans-serif" font-size="15" lengthAdjust="spacing" textLength="91.25" x="1058.75" y="184.8877">Administrator</text><!--MD5=[12d76240d3c3c66074d4ec2ea8bf469c]
link Company to Parameter--><path codeLine="26" d="M115.0125,158.3125 C127.275,153.8625 140.325,149.2 152.5,145 C222.4375,120.8 303.5625,94.425 356.0625,77.575 " fill="none" id="Company-Parameter" style="stroke:#A80036;stroke-width:1.25;"/><polygon fill="#000000" points="164.6764,76.9847,152.7887,77.0922,155.1222,84.0591,164.6764,76.9847" style="stroke:#000000;stroke-width:1.25;"/><text fill="#000000" font-family="sans-serif" font-size="16.25" lengthAdjust="spacing" textLength="147.5" x="170" y="85.6189">capable of analysing</text><text fill="#000000" font-family="sans-serif" font-size="16.25" lengthAdjust="spacing" textLength="8.75" x="124.8975" y="150.2202">1</text><text fill="#000000" font-family="sans-serif" font-size="16.25" lengthAdjust="spacing" textLength="6.25" x="339.9475" y="99.0983">*</text><!--MD5=[93b4f25fb503a8e0e9a46b1d30ff3f44]
link Company to ParameterCategory--><path codeLine="27" d="M115.2625,177.5875 C235.0875,177.8 531.0875,178.325 678.3375,178.5875 " fill="none" id="Company-ParameterCategory" style="stroke:#A80036;stroke-width:1.25;"/><polygon fill="#000000" points="391.25,167.7308,379.9502,164.0371,379.9371,171.3844,391.25,167.7308" style="stroke:#000000;stroke-width:1.25;"/><text fill="#000000" font-family="sans-serif" font-size="16.25" lengthAdjust="spacing" textLength="48.75" x="396.25" y="174.3689">adopts</text><text fill="#000000" font-family="sans-serif" font-size="16.25" lengthAdjust="spacing" textLength="8.75" x="124.8294" y="196.1805">1</text><text fill="#000000" font-family="sans-serif" font-size="16.25" lengthAdjust="spacing" textLength="6.25" x="662.7637" y="196.5147">*</text><!--MD5=[eaea43e34e45c5b9d20b595fc78f1f20]
link Company to Administrator--><path codeLine="28" d="M115.05,189.675 C241.6,217.675 575.875,281.3875 852.5,243.75 C914.8375,235.2625 984.0125,214.6375 1030.9375,198.875 " fill="none" id="Company-Administrator" style="stroke:#A80036;stroke-width:1.25;"/><polygon fill="#000000" points="558.1247,237.7825,546.8558,233.9955,546.782,241.3424,558.1247,237.7825" style="stroke:#000000;stroke-width:1.25;"/><text fill="#000000" font-family="sans-serif" font-size="16.25" lengthAdjust="spacing" textLength="37.5" x="563.125" y="244.3689">know</text><text fill="#000000" font-family="sans-serif" font-size="16.25" lengthAdjust="spacing" textLength="8.75" x="124.9414" y="210.4106">1</text><text fill="#000000" font-family="sans-serif" font-size="16.25" lengthAdjust="spacing" textLength="6.25" x="1006.2168" y="225.037">*</text><!--MD5=[6df8849671cb880f6936e94aa30db6f9]
link Parameter to ParameterCategory--><path codeLine="29" d="M468.8875,87.825 C481.0375,93.4625 493.9625,99.0875 506.25,103.75 C562.5375,125.075 627.65,143.9625 678.3875,157.4375 " fill="none" id="Parameter-ParameterCategory" style="stroke:#A80036;stroke-width:1.25;"/><polygon fill="#000000" points="518.4311,94.6905,508.86,87.6391,506.5432,94.6116,518.4311,94.6905" style="stroke:#000000;stroke-width:1.25;"/><text fill="#000000" font-family="sans-serif" font-size="16.25" lengthAdjust="spacing" textLength="116.25" x="523.75" y="99.3689">presented under</text><text fill="#000000" font-family="sans-serif" font-size="16.25" lengthAdjust="spacing" textLength="6.25" x="478.7443" y="111.046">*</text><text fill="#000000" font-family="sans-serif" font-size="16.25" lengthAdjust="spacing" textLength="8.75" x="660.19" y="173.1836">1</text><!--MD5=[8fed49cf12a674e36a1de475622ee091]
link ParameterCategory to Administrator--><path codeLine="30" d="M852.625,178.75 C905.95,178.75 973.4,178.75 1022.2125,178.75 " fill="none" id="ParameterCategory-Administrator" style="stroke:#A80036;stroke-width:1.25;"/><polygon fill="#000000" points="902.5,167.7197,891.1936,164.0461,891.1936,171.3934,902.5,167.7197" style="stroke:#000000;stroke-width:1.25;"/><text fill="#000000" font-family="sans-serif" font-size="16.25" lengthAdjust="spacing" textLength="76.25" x="907.5" y="174.3689">created by</text><text fill="#000000" font-family="sans-serif" font-size="16.25" lengthAdjust="spacing" textLength="6.25" x="862.4824" y="196.7591">*</text><text fill="#000000" font-family="sans-serif" font-size="16.25" lengthAdjust="spacing" textLength="8.75" x="1003.5783" y="197.056">1</text><!--MD5=[cf4793ee9d8e468829d360120e63d908]
link Parameter to Administrator--><path codeLine="31" d="M469.075,62.325 C515.2375,64.6625 582.7,68.975 641.25,76.25 C795.975,95.45 834.9375,103.95 985,146.25 C998.4,150.025 1012.7,154.375 1026.2125,158.6375 " fill="none" id="Parameter-Administrator" style="stroke:#A80036;stroke-width:1.25;"/><polygon fill="#000000" points="730.5337,71.2844,720.0183,65.7384,718.7668,72.9784,730.5337,71.2844" style="stroke:#000000;stroke-width:1.25;"/><text fill="#000000" font-family="sans-serif" font-size="16.25" lengthAdjust="spacing" textLength="76.25" x="735.625" y="76.8689">created by</text><text fill="#000000" font-family="sans-serif" font-size="16.25" lengthAdjust="spacing" textLength="6.25" x="478.5897" y="81.2422">*</text><text fill="#000000" font-family="sans-serif" font-size="16.25" lengthAdjust="spacing" textLength="8.75" x="1003.7907" y="149.341">1</text><!--MD5=[5d1a142c44beb602ca48e7472d108be3]
@startuml
hide empty methods
hide empty attributes
left to right direction
skinparam classAttributeIconSize 0


class Company {
  -designation
}

class Parameter {
  -code
  -shortName
  -description
}

class ParameterCategory {
  -code
  -name
}

class Administrator {

}

Company "1" - - "*" Parameter : capable of analysing >
Company "1" - - "*" ParameterCategory : adopts >
Company "1" - - "*" Administrator : know >
Parameter "*" - - "1" ParameterCategory: presented under >
ParameterCategory "*" - - "1" Administrator: created by >
Parameter "*" - - "1" Administrator: created by >


@enduml

PlantUML version 1.2021.5(Sun Apr 25 12:20:28 BST 2021)
(GPL source distribution)
Java Runtime: OpenJDK Runtime Environment
JVM: Dynamic Code Evolution 64-Bit Server VM
Default Encoding: Cp1252
Language: pt
Country: PT
--></g></svg>