<?xml version="1.0" encoding="UTF-8" standalone="no"?><svg xmlns="http://www.w3.org/2000/svg" xmlns:xlink="http://www.w3.org/1999/xlink" contentScriptType="application/ecmascript" contentStyleType="text/css" height="215px" preserveAspectRatio="none" style="width:1648px;height:215px;" version="1.1" viewBox="0 0 1648 215" width="1648.75px" zoomAndPan="magnify"><defs><filter height="300%" id="f1f82mmaap4hsf" width="300%" x="-1" y="-1"><feGaussianBlur result="blurOut" stdDeviation="2.5"/><feColorMatrix in="blurOut" result="blurOut2" type="matrix" values="0 0 0 0 0 0 0 0 0 0 0 0 0 0 0 0 0 0 .4 0"/><feOffset dx="5.0" dy="5.0" in="blurOut2" result="blurOut3"/><feBlend in="SourceGraphic" in2="blurOut3" mode="normal"/></filter></defs><g><!--MD5=[02e4b9b7573f1156f41e60aa5b4e25a4]
class Company--><rect codeLine="6" fill="#FEFECE" filter="url(#f1f82mmaap4hsf)" height="94.5898" id="Company" style="stroke:#A80036;stroke-width:1.875;" width="200" x="683.75" y="8.75"/><ellipse cx="745.3125" cy="28.75" fill="#ADD1B2" rx="13.75" ry="13.75" style="stroke:#A80036;stroke-width:1.25;"/><path d="M747.8125,24.375 Q748.0664,23.75 748.3594,23.4375 Q748.6523,23.125 748.9844,23.125 Q749.5703,23.125 749.9414,23.4766 Q750.3125,23.8281 750.3125,24.6484 L750.3125,26.6016 Q750.3125,27.4219 749.9609,27.7734 Q749.6094,28.125 749.0625,28.125 Q748.5742,28.125 748.2617,27.9102 Q747.9492,27.6953 747.8125,27.1289 Q747.7539,26.7383 747.5391,26.5234 Q747.1484,26.1133 746.4453,25.8789 Q745.7422,25.625 745.0391,25.625 Q744.1602,25.625 743.418,25.9766 Q742.6953,26.3281 742.1289,27.1094 Q741.5625,27.8906 741.5625,28.9648 L741.5625,30.1172 Q741.5625,31.4063 742.6172,32.2656 Q743.6719,33.125 745.5469,33.125 Q746.6602,33.125 747.4414,32.8711 Q747.8906,32.7344 748.3984,32.2852 Q748.7305,32.0313 748.9063,31.9531 Q749.082,31.875 749.2969,31.875 Q749.707,31.875 750,32.207 Q750.3125,32.5195 750.3125,32.9688 Q750.3125,33.3984 749.8828,33.9063 Q749.2578,34.6484 748.2617,35.0586 Q746.9531,35.625 745.3516,35.625 Q743.4766,35.625 741.9727,34.8828 Q740.7617,34.2969 739.9023,33.0273 Q739.0625,31.7578 739.0625,30.2539 L739.0625,28.8867 Q739.0625,27.3242 739.8047,25.957 Q740.5664,24.5898 741.875,23.8672 Q743.2031,23.125 744.6875,23.125 Q745.5859,23.125 746.3672,23.4375 Q747.1484,23.75 747.8125,24.375 Z " fill="#000000"/><text fill="#000000" font-family="sans-serif" font-size="15" lengthAdjust="spacing" textLength="66.25" x="770.9375" y="34.8877">Company</text><line style="stroke:#A80036;stroke-width:1.875;" x1="685" x2="882.5" y1="48.75" y2="48.75"/><text fill="#000000" font-family="sans-serif" font-size="13.75" lengthAdjust="spacing" textLength="112.5" x="691.25" y="68.0237">-String designation</text><line style="stroke:#A80036;stroke-width:1.875;" x1="685" x2="882.5" y1="76.0449" y2="76.0449"/><text fill="#000000" font-family="sans-serif" font-size="13.75" lengthAdjust="spacing" textLength="185" x="691.25" y="95.3186">+getParameterCategoryStore()</text><!--MD5=[36afb6bbd95a8ac778c4537c55a683d5]
class ParameterCategory--><rect codeLine="11" fill="#FEFECE" filter="url(#f1f82mmaap4hsf)" height="129.1797" id="ParameterCategory" style="stroke:#A80036;stroke-width:1.875;" width="218.75" x="1412.5" y="69.375"/><ellipse cx="1451.5" cy="89.375" fill="#ADD1B2" rx="13.75" ry="13.75" style="stroke:#A80036;stroke-width:1.25;"/><path d="M1454,85 Q1454.2539,84.375 1454.5469,84.0625 Q1454.8398,83.75 1455.1719,83.75 Q1455.7578,83.75 1456.1289,84.1016 Q1456.5,84.4531 1456.5,85.2734 L1456.5,87.2266 Q1456.5,88.0469 1456.1484,88.3984 Q1455.7969,88.75 1455.25,88.75 Q1454.7617,88.75 1454.4492,88.5352 Q1454.1367,88.3203 1454,87.7539 Q1453.9414,87.3633 1453.7266,87.1484 Q1453.3359,86.7383 1452.6328,86.5039 Q1451.9297,86.25 1451.2266,86.25 Q1450.3477,86.25 1449.6055,86.6016 Q1448.8828,86.9531 1448.3164,87.7344 Q1447.75,88.5156 1447.75,89.5898 L1447.75,90.7422 Q1447.75,92.0313 1448.8047,92.8906 Q1449.8594,93.75 1451.7344,93.75 Q1452.8477,93.75 1453.6289,93.4961 Q1454.0781,93.3594 1454.5859,92.9102 Q1454.918,92.6563 1455.0938,92.5781 Q1455.2695,92.5 1455.4844,92.5 Q1455.8945,92.5 1456.1875,92.832 Q1456.5,93.1445 1456.5,93.5938 Q1456.5,94.0234 1456.0703,94.5313 Q1455.4453,95.2734 1454.4492,95.6836 Q1453.1406,96.25 1451.5391,96.25 Q1449.6641,96.25 1448.1602,95.5078 Q1446.9492,94.9219 1446.0898,93.6523 Q1445.25,92.3828 1445.25,90.8789 L1445.25,89.5117 Q1445.25,87.9492 1445.9922,86.582 Q1446.7539,85.2148 1448.0625,84.4922 Q1449.3906,83.75 1450.875,83.75 Q1451.7734,83.75 1452.5547,84.0625 Q1453.3359,84.375 1454,85 Z " fill="#000000"/><text fill="#000000" font-family="sans-serif" font-size="15" lengthAdjust="spacing" textLength="133.75" x="1473.5" y="95.5127">ParameterCategory</text><line style="stroke:#A80036;stroke-width:1.875;" x1="1413.75" x2="1630" y1="109.375" y2="109.375"/><text fill="#000000" font-family="sans-serif" font-size="13.75" lengthAdjust="spacing" textLength="73.75" x="1420" y="128.6487">-String code</text><text fill="#000000" font-family="sans-serif" font-size="13.75" lengthAdjust="spacing" textLength="76.25" x="1420" y="145.9436">-String name</text><line style="stroke:#A80036;stroke-width:1.875;" x1="1413.75" x2="1630" y1="153.9648" y2="153.9648"/><text fill="#000000" font-family="sans-serif" font-size="13.75" lengthAdjust="spacing" textLength="203.75" x="1420" y="173.2385">+ParameterCategory(code, name)</text><text fill="#000000" font-family="sans-serif" font-size="13.75" lengthAdjust="spacing" textLength="67.5" x="1420" y="190.5334">+getCode()</text><!--MD5=[d802db621b5b215a6f0466f93cefcb42]
class ParameterCategoryStore--><rect codeLine="18" fill="#FEFECE" filter="url(#f1f82mmaap4hsf)" height="101.8848" id="ParameterCategoryStore" style="stroke:#A80036;stroke-width:1.875;" width="257.5" x="1012.5" y="82.5"/><ellipse cx="1052.625" cy="102.5" fill="#ADD1B2" rx="13.75" ry="13.75" style="stroke:#A80036;stroke-width:1.25;"/><path d="M1055.125,98.125 Q1055.3789,97.5 1055.6719,97.1875 Q1055.9648,96.875 1056.2969,96.875 Q1056.8828,96.875 1057.2539,97.2266 Q1057.625,97.5781 1057.625,98.3984 L1057.625,100.3516 Q1057.625,101.1719 1057.2734,101.5234 Q1056.9219,101.875 1056.375,101.875 Q1055.8867,101.875 1055.5742,101.6602 Q1055.2617,101.4453 1055.125,100.8789 Q1055.0664,100.4883 1054.8516,100.2734 Q1054.4609,99.8633 1053.7578,99.6289 Q1053.0547,99.375 1052.3516,99.375 Q1051.4727,99.375 1050.7305,99.7266 Q1050.0078,100.0781 1049.4414,100.8594 Q1048.875,101.6406 1048.875,102.7148 L1048.875,103.8672 Q1048.875,105.1563 1049.9297,106.0156 Q1050.9844,106.875 1052.8594,106.875 Q1053.9727,106.875 1054.7539,106.6211 Q1055.2031,106.4844 1055.7109,106.0352 Q1056.043,105.7813 1056.2188,105.7031 Q1056.3945,105.625 1056.6094,105.625 Q1057.0195,105.625 1057.3125,105.957 Q1057.625,106.2695 1057.625,106.7188 Q1057.625,107.1484 1057.1953,107.6563 Q1056.5703,108.3984 1055.5742,108.8086 Q1054.2656,109.375 1052.6641,109.375 Q1050.7891,109.375 1049.2852,108.6328 Q1048.0742,108.0469 1047.2148,106.7773 Q1046.375,105.5078 1046.375,104.0039 L1046.375,102.6367 Q1046.375,101.0742 1047.1172,99.707 Q1047.8789,98.3398 1049.1875,97.6172 Q1050.5156,96.875 1052,96.875 Q1052.8984,96.875 1053.6797,97.1875 Q1054.4609,97.5 1055.125,98.125 Z " fill="#000000"/><text fill="#000000" font-family="sans-serif" font-size="15" lengthAdjust="spacing" textLength="170" x="1074.875" y="108.6377">ParameterCategoryStore</text><line style="stroke:#A80036;stroke-width:1.875;" x1="1013.75" x2="1268.75" y1="122.5" y2="122.5"/><text fill="#000000" font-family="sans-serif" font-size="13.75" lengthAdjust="spacing" textLength="242.5" x="1020" y="141.7737">+createParameterCategory(code, name)</text><text fill="#000000" font-family="sans-serif" font-size="13.75" lengthAdjust="spacing" textLength="195" x="1020" y="159.0686">+validateParameterCategory(pc)</text><text fill="#000000" font-family="sans-serif" font-size="13.75" lengthAdjust="spacing" textLength="178.75" x="1020" y="176.3635">+saveParameterCategory(pc)</text><!--MD5=[43bb81d93caae6cc68206df5797cd1c4]
class CreateParameterCategoryController--><rect codeLine="24" fill="#FEFECE" filter="url(#f1f82mmaap4hsf)" height="84.5898" id="CreateParameterCategoryController" style="stroke:#A80036;stroke-width:1.875;" width="287.5" x="320" y="102.5"/><ellipse cx="338.75" cy="122.5" fill="#ADD1B2" rx="13.75" ry="13.75" style="stroke:#A80036;stroke-width:1.25;"/><path d="M341.25,118.125 Q341.5039,117.5 341.7969,117.1875 Q342.0898,116.875 342.4219,116.875 Q343.0078,116.875 343.3789,117.2266 Q343.75,117.5781 343.75,118.3984 L343.75,120.3516 Q343.75,121.1719 343.3984,121.5234 Q343.0469,121.875 342.5,121.875 Q342.0117,121.875 341.6992,121.6602 Q341.3867,121.4453 341.25,120.8789 Q341.1914,120.4883 340.9766,120.2734 Q340.5859,119.8633 339.8828,119.6289 Q339.1797,119.375 338.4766,119.375 Q337.5977,119.375 336.8555,119.7266 Q336.1328,120.0781 335.5664,120.8594 Q335,121.6406 335,122.7148 L335,123.8672 Q335,125.1563 336.0547,126.0156 Q337.1094,126.875 338.9844,126.875 Q340.0977,126.875 340.8789,126.6211 Q341.3281,126.4844 341.8359,126.0352 Q342.168,125.7813 342.3438,125.7031 Q342.5195,125.625 342.7344,125.625 Q343.1445,125.625 343.4375,125.957 Q343.75,126.2695 343.75,126.7188 Q343.75,127.1484 343.3203,127.6563 Q342.6953,128.3984 341.6992,128.8086 Q340.3906,129.375 338.7891,129.375 Q336.9141,129.375 335.4102,128.6328 Q334.1992,128.0469 333.3398,126.7773 Q332.5,125.5078 332.5,124.0039 L332.5,122.6367 Q332.5,121.0742 333.2422,119.707 Q334.0039,118.3398 335.3125,117.6172 Q336.6406,116.875 338.125,116.875 Q339.0234,116.875 339.8047,117.1875 Q340.5859,117.5 341.25,118.125 Z " fill="#000000"/><text fill="#000000" font-family="sans-serif" font-size="15" lengthAdjust="spacing" textLength="247.5" x="356.25" y="128.6377">CreateParameterCategoryController</text><line style="stroke:#A80036;stroke-width:1.875;" x1="321.25" x2="606.25" y1="142.5" y2="142.5"/><text fill="#000000" font-family="sans-serif" font-size="13.75" lengthAdjust="spacing" textLength="242.5" x="327.5" y="161.7737">+createParameterCategory(code, name)</text><text fill="#000000" font-family="sans-serif" font-size="13.75" lengthAdjust="spacing" textLength="163.75" x="327.5" y="179.0686">+saveParameterCategory()</text><!--MD5=[6017f56a87b244e108fd0d8749edd53c]
class CreateParameterCategoryUI--><rect codeLine="29" fill="#FEFECE" filter="url(#f1f82mmaap4hsf)" height="40" id="CreateParameterCategoryUI" style="stroke:#A80036;stroke-width:1.875;" width="235" x="8.75" y="125"/><ellipse cx="27.5" cy="145" fill="#ADD1B2" rx="13.75" ry="13.75" style="stroke:#A80036;stroke-width:1.25;"/><path d="M30,140.625 Q30.2539,140 30.5469,139.6875 Q30.8398,139.375 31.1719,139.375 Q31.7578,139.375 32.1289,139.7266 Q32.5,140.0781 32.5,140.8984 L32.5,142.8516 Q32.5,143.6719 32.1484,144.0234 Q31.7969,144.375 31.25,144.375 Q30.7617,144.375 30.4492,144.1602 Q30.1367,143.9453 30,143.3789 Q29.9414,142.9883 29.7266,142.7734 Q29.3359,142.3633 28.6328,142.1289 Q27.9297,141.875 27.2266,141.875 Q26.3477,141.875 25.6055,142.2266 Q24.8828,142.5781 24.3164,143.3594 Q23.75,144.1406 23.75,145.2148 L23.75,146.3672 Q23.75,147.6563 24.8047,148.5156 Q25.8594,149.375 27.7344,149.375 Q28.8477,149.375 29.6289,149.1211 Q30.0781,148.9844 30.5859,148.5352 Q30.918,148.2813 31.0938,148.2031 Q31.2695,148.125 31.4844,148.125 Q31.8945,148.125 32.1875,148.457 Q32.5,148.7695 32.5,149.2188 Q32.5,149.6484 32.0703,150.1563 Q31.4453,150.8984 30.4492,151.3086 Q29.1406,151.875 27.5391,151.875 Q25.6641,151.875 24.1602,151.1328 Q22.9492,150.5469 22.0898,149.2773 Q21.25,148.0078 21.25,146.5039 L21.25,145.1367 Q21.25,143.5742 21.9922,142.207 Q22.7539,140.8398 24.0625,140.1172 Q25.3906,139.375 26.875,139.375 Q27.7734,139.375 28.5547,139.6875 Q29.3359,140 30,140.625 Z " fill="#000000"/><text fill="#000000" font-family="sans-serif" font-size="15" lengthAdjust="spacing" textLength="195" x="45" y="151.1377">CreateParameterCategoryUI</text><!--MD5=[93b1b9218398b0464d36d46d0f539949]
link CreateParameterCategoryUI to CreateParameterCategoryController--><path codeLine="32" d="M244.2,145 C266.4625,145 290.05,145 313.175,145 " fill="none" id="CreateParameterCategoryUI-to-CreateParameterCategoryController" style="stroke:#A80036;stroke-width:1.25;stroke-dasharray:7.0,7.0;"/><polygon fill="#A80036" points="319.675,145,308.425,140,313.425,145,308.425,150,319.675,145" style="stroke:#A80036;stroke-width:1.25;"/><!--MD5=[a00c31f7a5d66db29f7adf0293377a3b]
link CreateParameterCategoryController to Company--><path codeLine="33" d="M607.9625,105.0375 C631.275,98.525 655.0625,91.875 677.2625,85.6625 " fill="none" id="CreateParameterCategoryController-to-Company" style="stroke:#A80036;stroke-width:1.25;stroke-dasharray:7.0,7.0;"/><polygon fill="#A80036" points="683.475,83.925,671.2904,82.165,677.4595,85.6208,674.0036,91.7898,683.475,83.925" style="stroke:#A80036;stroke-width:1.25;"/><!--MD5=[be6e87e2c6f1800ec3da53612c46e11a]
link CreateParameterCategoryController to ParameterCategoryStore--><path codeLine="34" d="M607.7375,142.625 C725.2625,140.6625 890.675,137.9 1005.8,135.9875 " fill="none" id="CreateParameterCategoryController-to-ParameterCategoryStore" style="stroke:#A80036;stroke-width:1.25;stroke-dasharray:7.0,7.0;"/><polygon fill="#A80036" points="1012.275,135.875,1000.941,131.0686,1006.0259,135.9821,1001.1124,141.0671,1012.275,135.875" style="stroke:#A80036;stroke-width:1.25;"/><!--MD5=[d6274e3b73b5bc8f467c6cfbf5bf003e]
link ParameterCategoryStore to ParameterCategory--><path codeLine="35" d="M1270.5125,133.75 C1316.575,133.75 1368.0625,133.75 1412.2875,133.75 " fill="none" id="ParameterCategoryStore-ParameterCategory" style="stroke:#A80036;stroke-width:1.25;"/><polygon fill="#000000" points="1320,122.7197,1308.6936,119.0461,1308.6936,126.3934,1320,122.7197" style="stroke:#000000;stroke-width:1.25;"/><text fill="#000000" font-family="sans-serif" font-size="16.25" lengthAdjust="spacing" textLength="48.75" x="1325" y="129.3689">adopts</text><text fill="#000000" font-family="sans-serif" font-size="16.25" lengthAdjust="spacing" textLength="8.75" x="1279.9089" y="151.3591">1</text><text fill="#000000" font-family="sans-serif" font-size="16.25" lengthAdjust="spacing" textLength="6.25" x="1396.3513" y="151.4787">*</text><!--MD5=[d53d7490e5836ca5709858d7326f212b]
link Company to ParameterCategoryStore--><path codeLine="36" d="M883.8875,77.8375 C921.6625,86.0875 965.4,95.6375 1005.925,104.475 " fill="none" id="Company-to-ParameterCategoryStore" style="stroke:#A80036;stroke-width:1.25;"/><polygon fill="#A80036" points="1012.3875,105.8875,1002.4494,98.6214,1006.2789,104.5657,1000.3345,108.3953,1012.3875,105.8875" style="stroke:#A80036;stroke-width:1.25;"/><polygon fill="#000000" points="933.6062,79.0526,923.3434,73.0523,921.7765,80.2306,933.6062,79.0526" style="stroke:#000000;stroke-width:1.25;"/><text fill="#000000" font-family="sans-serif" font-size="16.25" lengthAdjust="spacing" textLength="35" x="938.75" y="84.3689">uses</text><text fill="#000000" font-family="sans-serif" font-size="16.25" lengthAdjust="spacing" textLength="8.75" x="893.8488" y="97.7576">1</text><text fill="#000000" font-family="sans-serif" font-size="16.25" lengthAdjust="spacing" textLength="8.75" x="993.8529" y="121.4833">1</text><!--MD5=[540d02d8716095a89ca88c01d7a0c575]
@startuml
hide empty methods
hide empty attributes
left to right direction
skinparam classAttributeIconSize 0

class Company {
  -String designation
  +getParameterCategoryStore()
}

class ParameterCategory {
   -String code
   -String name
   +ParameterCategory(code, name)
   +getCode()
}

class ParameterCategoryStore {
    +createParameterCategory(code, name)
    +validateParameterCategory(pc)
    +saveParameterCategory(pc)
}

class CreateParameterCategoryController {
  +createParameterCategory(code, name)
  +saveParameterCategory()
}

class CreateParameterCategoryUI {
}

CreateParameterCategoryUI ..> CreateParameterCategoryController
CreateParameterCategoryController ..> Company
CreateParameterCategoryController ..> ParameterCategoryStore
ParameterCategoryStore "1" - - "*" ParameterCategory : adopts >
Company "1" - -> "1" ParameterCategoryStore : uses >


@enduml

PlantUML version 1.2021.4(Sun Apr 04 09:49:39 BST 2021)
(GPL source distribution)
Java Runtime: OpenJDK Runtime Environment
JVM: Dynamic Code Evolution 64-Bit Server VM
Default Encoding: Cp1252
Language: pt
Country: PT
--></g></svg>