<?xml version="1.0" encoding="UTF-8" standalone="no"?><svg xmlns="http://www.w3.org/2000/svg" xmlns:xlink="http://www.w3.org/1999/xlink" contentScriptType="application/ecmascript" contentStyleType="text/css" height="716.25px" preserveAspectRatio="none" style="width:2578px;height:716px;" version="1.1" viewBox="0 0 2578 716" width="2578.75px" zoomAndPan="magnify"><defs><filter height="300%" id="f695feosx77qe" width="300%" x="-1" y="-1"><feGaussianBlur result="blurOut" stdDeviation="2.5"/><feColorMatrix in="blurOut" result="blurOut2" type="matrix" values="0 0 0 0 0 0 0 0 0 0 0 0 0 0 0 0 0 0 .4 0"/><feOffset dx="5.0" dy="5.0" in="blurOut2" result="blurOut3"/><feBlend in="SourceGraphic" in2="blurOut3" mode="normal"/></filter></defs><g><!--MD5=[e7b7f76692bc7b6a189caa2305323cac]
class CategoriesDto--><rect codeLine="6" fill="#FEFECE" filter="url(#f695feosx77qe)" height="129.1797" id="CategoriesDto" style="stroke:#A80036;stroke-width:1.875;" width="183.75" x="1298.125" y="8.75"/><ellipse cx="1336.5625" cy="28.75" fill="#ADD1B2" rx="13.75" ry="13.75" style="stroke:#A80036;stroke-width:1.25;"/><path d="M1339.0625,24.375 Q1339.3164,23.75 1339.6094,23.4375 Q1339.9023,23.125 1340.2344,23.125 Q1340.8203,23.125 1341.1914,23.4766 Q1341.5625,23.8281 1341.5625,24.6484 L1341.5625,26.6016 Q1341.5625,27.4219 1341.2109,27.7734 Q1340.8594,28.125 1340.3125,28.125 Q1339.8242,28.125 1339.5117,27.9102 Q1339.1992,27.6953 1339.0625,27.1289 Q1339.0039,26.7383 1338.7891,26.5234 Q1338.3984,26.1133 1337.6953,25.8789 Q1336.9922,25.625 1336.2891,25.625 Q1335.4102,25.625 1334.668,25.9766 Q1333.9453,26.3281 1333.3789,27.1094 Q1332.8125,27.8906 1332.8125,28.9648 L1332.8125,30.1172 Q1332.8125,31.4063 1333.8672,32.2656 Q1334.9219,33.125 1336.7969,33.125 Q1337.9102,33.125 1338.6914,32.8711 Q1339.1406,32.7344 1339.6484,32.2852 Q1339.9805,32.0313 1340.1563,31.9531 Q1340.332,31.875 1340.5469,31.875 Q1340.957,31.875 1341.25,32.207 Q1341.5625,32.5195 1341.5625,32.9688 Q1341.5625,33.3984 1341.1328,33.9063 Q1340.5078,34.6484 1339.5117,35.0586 Q1338.2031,35.625 1336.6016,35.625 Q1334.7266,35.625 1333.2227,34.8828 Q1332.0117,34.2969 1331.1523,33.0273 Q1330.3125,31.7578 1330.3125,30.2539 L1330.3125,28.8867 Q1330.3125,27.3242 1331.0547,25.957 Q1331.8164,24.5898 1333.125,23.8672 Q1334.4531,23.125 1335.9375,23.125 Q1336.8359,23.125 1337.6172,23.4375 Q1338.3984,23.75 1339.0625,24.375 Z " fill="#000000"/><text fill="#000000" font-family="sans-serif" font-size="15" lengthAdjust="spacing" textLength="100" x="1358.4375" y="34.8877">CategoriesDto</text><line style="stroke:#A80036;stroke-width:1.875;" x1="1299.375" x2="1480.625" y1="48.75" y2="48.75"/><text fill="#000000" font-family="sans-serif" font-size="13.75" lengthAdjust="spacing" textLength="73.75" x="1305.625" y="68.0237">-String code</text><text fill="#000000" font-family="sans-serif" font-size="13.75" lengthAdjust="spacing" textLength="76.25" x="1305.625" y="85.3186">-String name</text><line style="stroke:#A80036;stroke-width:1.875;" x1="1299.375" x2="1480.625" y1="93.3398" y2="93.3398"/><text fill="#000000" font-family="sans-serif" font-size="13.75" lengthAdjust="spacing" textLength="168.75" x="1305.625" y="112.6135">+CategoriesDto(name,code)</text><text fill="#000000" font-family="sans-serif" font-size="13.75" lengthAdjust="spacing" textLength="67.5" x="1305.625" y="129.9084">+getCode()</text><!--MD5=[d63babda4aaccf35fa117b37a096c517]
class CategoriesMapper--><rect codeLine="13" fill="#FEFECE" filter="url(#f695feosx77qe)" height="84.5898" id="CategoriesMapper" style="stroke:#A80036;stroke-width:1.875;" width="167.5" x="825.625" y="150.625"/><ellipse cx="844.375" cy="170.625" fill="#ADD1B2" rx="13.75" ry="13.75" style="stroke:#A80036;stroke-width:1.25;"/><path d="M846.875,166.25 Q847.1289,165.625 847.4219,165.3125 Q847.7148,165 848.0469,165 Q848.6328,165 849.0039,165.3516 Q849.375,165.7031 849.375,166.5234 L849.375,168.4766 Q849.375,169.2969 849.0234,169.6484 Q848.6719,170 848.125,170 Q847.6367,170 847.3242,169.7852 Q847.0117,169.5703 846.875,169.0039 Q846.8164,168.6133 846.6016,168.3984 Q846.2109,167.9883 845.5078,167.7539 Q844.8047,167.5 844.1016,167.5 Q843.2227,167.5 842.4805,167.8516 Q841.7578,168.2031 841.1914,168.9844 Q840.625,169.7656 840.625,170.8398 L840.625,171.9922 Q840.625,173.2813 841.6797,174.1406 Q842.7344,175 844.6094,175 Q845.7227,175 846.5039,174.7461 Q846.9531,174.6094 847.4609,174.1602 Q847.793,173.9063 847.9688,173.8281 Q848.1445,173.75 848.3594,173.75 Q848.7695,173.75 849.0625,174.082 Q849.375,174.3945 849.375,174.8438 Q849.375,175.2734 848.9453,175.7813 Q848.3203,176.5234 847.3242,176.9336 Q846.0156,177.5 844.4141,177.5 Q842.5391,177.5 841.0352,176.7578 Q839.8242,176.1719 838.9648,174.9023 Q838.125,173.6328 838.125,172.1289 L838.125,170.7617 Q838.125,169.1992 838.8672,167.832 Q839.6289,166.4648 840.9375,165.7422 Q842.2656,165 843.75,165 Q844.6484,165 845.4297,165.3125 Q846.2109,165.625 846.875,166.25 Z " fill="#000000"/><text fill="#000000" font-family="sans-serif" font-size="15" lengthAdjust="spacing" textLength="127.5" x="861.875" y="176.7627">CategoriesMapper</text><line style="stroke:#A80036;stroke-width:1.875;" x1="826.875" x2="991.875" y1="190.625" y2="190.625"/><text fill="#000000" font-family="sans-serif" font-size="13.75" lengthAdjust="spacing" textLength="108.75" x="833.125" y="209.8987">+toDTO(category)</text><text fill="#000000" font-family="sans-serif" font-size="13.75" lengthAdjust="spacing" textLength="118.75" x="833.125" y="227.1936">+toDTO(categories)</text><!--MD5=[d802db621b5b215a6f0466f93cefcb42]
class ParameterCategoryStore--><rect codeLine="18" fill="#FEFECE" filter="url(#f695feosx77qe)" height="111.8848" id="ParameterCategoryStore" style="stroke:#A80036;stroke-width:1.875;" width="323.75" x="1228.125" y="270.625"/><ellipse cx="1299.6875" cy="290.625" fill="#ADD1B2" rx="13.75" ry="13.75" style="stroke:#A80036;stroke-width:1.25;"/><path d="M1302.1875,286.25 Q1302.4414,285.625 1302.7344,285.3125 Q1303.0273,285 1303.3594,285 Q1303.9453,285 1304.3164,285.3516 Q1304.6875,285.7031 1304.6875,286.5234 L1304.6875,288.4766 Q1304.6875,289.2969 1304.3359,289.6484 Q1303.9844,290 1303.4375,290 Q1302.9492,290 1302.6367,289.7852 Q1302.3242,289.5703 1302.1875,289.0039 Q1302.1289,288.6133 1301.9141,288.3984 Q1301.5234,287.9883 1300.8203,287.7539 Q1300.1172,287.5 1299.4141,287.5 Q1298.5352,287.5 1297.793,287.8516 Q1297.0703,288.2031 1296.5039,288.9844 Q1295.9375,289.7656 1295.9375,290.8398 L1295.9375,291.9922 Q1295.9375,293.2813 1296.9922,294.1406 Q1298.0469,295 1299.9219,295 Q1301.0352,295 1301.8164,294.7461 Q1302.2656,294.6094 1302.7734,294.1602 Q1303.1055,293.9063 1303.2813,293.8281 Q1303.457,293.75 1303.6719,293.75 Q1304.082,293.75 1304.375,294.082 Q1304.6875,294.3945 1304.6875,294.8438 Q1304.6875,295.2734 1304.2578,295.7813 Q1303.6328,296.5234 1302.6367,296.9336 Q1301.3281,297.5 1299.7266,297.5 Q1297.8516,297.5 1296.3477,296.7578 Q1295.1367,296.1719 1294.2773,294.9023 Q1293.4375,293.6328 1293.4375,292.1289 L1293.4375,290.7617 Q1293.4375,289.1992 1294.1797,287.832 Q1294.9414,286.4648 1296.25,285.7422 Q1297.5781,285 1299.0625,285 Q1299.9609,285 1300.7422,285.3125 Q1301.5234,285.625 1302.1875,286.25 Z " fill="#000000"/><text fill="#000000" font-family="sans-serif" font-size="15" lengthAdjust="spacing" textLength="170" x="1325.3125" y="296.7627">ParameterCategoryStore</text><line style="stroke:#A80036;stroke-width:1.875;" x1="1229.375" x2="1550.625" y1="310.625" y2="310.625"/><text fill="#000000" font-family="sans-serif" font-size="13.75" lengthAdjust="spacing" textLength="308.75" x="1235.625" y="329.8987">-List&lt;ParameterCategory&gt; parameterCategoriesList</text><line style="stroke:#A80036;stroke-width:1.875;" x1="1229.375" x2="1550.625" y1="337.9199" y2="337.9199"/><text fill="#000000" font-family="sans-serif" font-size="13.75" lengthAdjust="spacing" textLength="195" x="1235.625" y="357.1936">+getParameterCategoriesStore()</text><text fill="#000000" font-family="sans-serif" font-size="13.75" lengthAdjust="spacing" textLength="168.75" x="1235.625" y="374.4885">+getCategoryByCode(code)</text><!--MD5=[be7802b157a16874d39c59ca0e2b25be]
class ParameterStore--><rect codeLine="24" fill="#FEFECE" filter="url(#f695feosx77qe)" height="129.1797" id="ParameterStore" style="stroke:#A80036;stroke-width:1.875;" width="382.5" x="1198.75" y="483.75"/><ellipse cx="1330.3125" cy="503.75" fill="#ADD1B2" rx="13.75" ry="13.75" style="stroke:#A80036;stroke-width:1.25;"/><path d="M1332.8125,499.375 Q1333.0664,498.75 1333.3594,498.4375 Q1333.6523,498.125 1333.9844,498.125 Q1334.5703,498.125 1334.9414,498.4766 Q1335.3125,498.8281 1335.3125,499.6484 L1335.3125,501.6016 Q1335.3125,502.4219 1334.9609,502.7734 Q1334.6094,503.125 1334.0625,503.125 Q1333.5742,503.125 1333.2617,502.9102 Q1332.9492,502.6953 1332.8125,502.1289 Q1332.7539,501.7383 1332.5391,501.5234 Q1332.1484,501.1133 1331.4453,500.8789 Q1330.7422,500.625 1330.0391,500.625 Q1329.1602,500.625 1328.418,500.9766 Q1327.6953,501.3281 1327.1289,502.1094 Q1326.5625,502.8906 1326.5625,503.9648 L1326.5625,505.1172 Q1326.5625,506.4063 1327.6172,507.2656 Q1328.6719,508.125 1330.5469,508.125 Q1331.6602,508.125 1332.4414,507.8711 Q1332.8906,507.7344 1333.3984,507.2852 Q1333.7305,507.0313 1333.9063,506.9531 Q1334.082,506.875 1334.2969,506.875 Q1334.707,506.875 1335,507.207 Q1335.3125,507.5195 1335.3125,507.9688 Q1335.3125,508.3984 1334.8828,508.9063 Q1334.2578,509.6484 1333.2617,510.0586 Q1331.9531,510.625 1330.3516,510.625 Q1328.4766,510.625 1326.9727,509.8828 Q1325.7617,509.2969 1324.9023,508.0273 Q1324.0625,506.7578 1324.0625,505.2539 L1324.0625,503.8867 Q1324.0625,502.3242 1324.8047,500.957 Q1325.5664,499.5898 1326.875,498.8672 Q1328.2031,498.125 1329.6875,498.125 Q1330.5859,498.125 1331.3672,498.4375 Q1332.1484,498.75 1332.8125,499.375 Z " fill="#000000"/><text fill="#000000" font-family="sans-serif" font-size="15" lengthAdjust="spacing" textLength="108.75" x="1355.9375" y="509.8877">ParameterStore</text><line style="stroke:#A80036;stroke-width:1.875;" x1="1200" x2="1580" y1="523.75" y2="523.75"/><text fill="#000000" font-family="sans-serif" font-size="13.75" lengthAdjust="spacing" textLength="145" x="1206.25" y="543.0237">-list&lt;Parameter&gt; prmList</text><line style="stroke:#A80036;stroke-width:1.875;" x1="1200" x2="1580" y1="551.0449" y2="551.0449"/><text fill="#000000" font-family="sans-serif" font-size="13.75" lengthAdjust="spacing" textLength="367.5" x="1206.25" y="570.3186">+createParameter(parameterCode,shortName,description,pc)</text><text fill="#000000" font-family="sans-serif" font-size="13.75" lengthAdjust="spacing" textLength="147.5" x="1206.25" y="587.6135">+validateParameter(prm)</text><text fill="#000000" font-family="sans-serif" font-size="13.75" lengthAdjust="spacing" textLength="131.25" x="1206.25" y="604.9084">+saveParameter(prm)</text><!--MD5=[1f6362a5c8f21d8d6a0fce68f3a92a4e]
class Parameter--><rect codeLine="31" fill="#FEFECE" filter="url(#f695feosx77qe)" height="302.1289" id="Parameter" style="stroke:#A80036;stroke-width:1.875;" width="355" x="1822.5" y="396.875"/><ellipse cx="1958.4375" cy="416.875" fill="#ADD1B2" rx="13.75" ry="13.75" style="stroke:#A80036;stroke-width:1.25;"/><path d="M1960.9375,412.5 Q1961.1914,411.875 1961.4844,411.5625 Q1961.7773,411.25 1962.1094,411.25 Q1962.6953,411.25 1963.0664,411.6016 Q1963.4375,411.9531 1963.4375,412.7734 L1963.4375,414.7266 Q1963.4375,415.5469 1963.0859,415.8984 Q1962.7344,416.25 1962.1875,416.25 Q1961.6992,416.25 1961.3867,416.0352 Q1961.0742,415.8203 1960.9375,415.2539 Q1960.8789,414.8633 1960.6641,414.6484 Q1960.2734,414.2383 1959.5703,414.0039 Q1958.8672,413.75 1958.1641,413.75 Q1957.2852,413.75 1956.543,414.1016 Q1955.8203,414.4531 1955.2539,415.2344 Q1954.6875,416.0156 1954.6875,417.0898 L1954.6875,418.2422 Q1954.6875,419.5313 1955.7422,420.3906 Q1956.7969,421.25 1958.6719,421.25 Q1959.7852,421.25 1960.5664,420.9961 Q1961.0156,420.8594 1961.5234,420.4102 Q1961.8555,420.1563 1962.0313,420.0781 Q1962.207,420 1962.4219,420 Q1962.832,420 1963.125,420.332 Q1963.4375,420.6445 1963.4375,421.0938 Q1963.4375,421.5234 1963.0078,422.0313 Q1962.3828,422.7734 1961.3867,423.1836 Q1960.0781,423.75 1958.4766,423.75 Q1956.6016,423.75 1955.0977,423.0078 Q1953.8867,422.4219 1953.0273,421.1523 Q1952.1875,419.8828 1952.1875,418.3789 L1952.1875,417.0117 Q1952.1875,415.4492 1952.9297,414.082 Q1953.6914,412.7148 1955,411.9922 Q1956.3281,411.25 1957.8125,411.25 Q1958.7109,411.25 1959.4922,411.5625 Q1960.2734,411.875 1960.9375,412.5 Z " fill="#000000"/><text fill="#000000" font-family="sans-serif" font-size="15" lengthAdjust="spacing" textLength="72.5" x="1984.0625" y="423.0127">Parameter</text><line style="stroke:#A80036;stroke-width:1.875;" x1="1823.75" x2="2176.25" y1="436.875" y2="436.875"/><text fill="#000000" font-family="sans-serif" font-size="13.75" lengthAdjust="spacing" textLength="115" x="1830" y="456.1487">-int CODE_LENGTH</text><text fill="#000000" font-family="sans-serif" font-size="13.75" lengthAdjust="spacing" textLength="152.5" x="1830" y="473.4436">-int NAME_MAX_LENGTH</text><text fill="#000000" font-family="sans-serif" font-size="13.75" lengthAdjust="spacing" textLength="197.5" x="1830" y="490.7385">-int DESCRIPTION_MAX_LENGTH</text><text fill="#000000" font-family="sans-serif" font-size="13.75" lengthAdjust="spacing" textLength="136.25" x="1830" y="508.0334">-String parameterCode</text><text fill="#000000" font-family="sans-serif" font-size="13.75" lengthAdjust="spacing" textLength="108.75" x="1830" y="525.3284">-String shortName</text><text fill="#000000" font-family="sans-serif" font-size="13.75" lengthAdjust="spacing" textLength="110" x="1830" y="542.6233">-String description</text><text fill="#000000" font-family="sans-serif" font-size="13.75" lengthAdjust="spacing" textLength="140" x="1830" y="559.9182">-ParameterCategory pc</text><line style="stroke:#A80036;stroke-width:1.875;" x1="1823.75" x2="2176.25" y1="567.9395" y2="567.9395"/><text fill="#000000" font-family="sans-serif" font-size="13.75" lengthAdjust="spacing" textLength="340" x="1830" y="587.2131">+Parameter(parameterCode, shortName, description, pc)</text><text fill="#000000" font-family="sans-serif" font-size="13.75" lengthAdjust="spacing" textLength="90" x="1830" y="604.5081">+getPrmCode()</text><text fill="#000000" font-family="sans-serif" font-size="13.75" lengthAdjust="spacing" textLength="185" x="1830" y="621.803">+checkParameterCategory(pc)</text><text fill="#000000" font-family="sans-serif" font-size="13.75" lengthAdjust="spacing" textLength="272.5" x="1830" y="639.0979">+checkParameterCodeRules(parameterCode)</text><text fill="#000000" font-family="sans-serif" font-size="13.75" lengthAdjust="spacing" textLength="218.75" x="1830" y="656.3928">+checkShortNameRules(shortName)</text><text fill="#000000" font-family="sans-serif" font-size="13.75" lengthAdjust="spacing" textLength="221.25" x="1830" y="673.6877">+checkDescriptionRules(description)</text><text fill="#000000" font-family="sans-serif" font-size="13.75" lengthAdjust="spacing" textLength="157.5" x="1830" y="690.9827">+equals(parameterObject)</text><!--MD5=[36afb6bbd95a8ac778c4537c55a683d5]
class ParameterCategory--><rect codeLine="48" fill="#FEFECE" filter="url(#f695feosx77qe)" height="111.8848" id="ParameterCategory" style="stroke:#A80036;stroke-width:1.875;" width="173.75" x="2387.5" y="253.125"/><ellipse cx="2406.25" cy="273.125" fill="#ADD1B2" rx="13.75" ry="13.75" style="stroke:#A80036;stroke-width:1.25;"/><path d="M2408.75,268.75 Q2409.0039,268.125 2409.2969,267.8125 Q2409.5898,267.5 2409.9219,267.5 Q2410.5078,267.5 2410.8789,267.8516 Q2411.25,268.2031 2411.25,269.0234 L2411.25,270.9766 Q2411.25,271.7969 2410.8984,272.1484 Q2410.5469,272.5 2410,272.5 Q2409.5117,272.5 2409.1992,272.2852 Q2408.8867,272.0703 2408.75,271.5039 Q2408.6914,271.1133 2408.4766,270.8984 Q2408.0859,270.4883 2407.3828,270.2539 Q2406.6797,270 2405.9766,270 Q2405.0977,270 2404.3555,270.3516 Q2403.6328,270.7031 2403.0664,271.4844 Q2402.5,272.2656 2402.5,273.3398 L2402.5,274.4922 Q2402.5,275.7813 2403.5547,276.6406 Q2404.6094,277.5 2406.4844,277.5 Q2407.5977,277.5 2408.3789,277.2461 Q2408.8281,277.1094 2409.3359,276.6602 Q2409.668,276.4063 2409.8438,276.3281 Q2410.0195,276.25 2410.2344,276.25 Q2410.6445,276.25 2410.9375,276.582 Q2411.25,276.8945 2411.25,277.3438 Q2411.25,277.7734 2410.8203,278.2813 Q2410.1953,279.0234 2409.1992,279.4336 Q2407.8906,280 2406.2891,280 Q2404.4141,280 2402.9102,279.2578 Q2401.6992,278.6719 2400.8398,277.4023 Q2400,276.1328 2400,274.6289 L2400,273.2617 Q2400,271.6992 2400.7422,270.332 Q2401.5039,268.9648 2402.8125,268.2422 Q2404.1406,267.5 2405.625,267.5 Q2406.5234,267.5 2407.3047,267.8125 Q2408.0859,268.125 2408.75,268.75 Z " fill="#000000"/><text fill="#000000" font-family="sans-serif" font-size="15" lengthAdjust="spacing" textLength="133.75" x="2423.75" y="279.2627">ParameterCategory</text><line style="stroke:#A80036;stroke-width:1.875;" x1="2388.75" x2="2560" y1="293.125" y2="293.125"/><text fill="#000000" font-family="sans-serif" font-size="13.75" lengthAdjust="spacing" textLength="73.75" x="2395" y="312.3987">-String code</text><text fill="#000000" font-family="sans-serif" font-size="13.75" lengthAdjust="spacing" textLength="76.25" x="2395" y="329.6936">-String name</text><line style="stroke:#A80036;stroke-width:1.875;" x1="2388.75" x2="2560" y1="337.7148" y2="337.7148"/><text fill="#000000" font-family="sans-serif" font-size="13.75" lengthAdjust="spacing" textLength="67.5" x="2395" y="356.9885">+getCode()</text><!--MD5=[02e4b9b7573f1156f41e60aa5b4e25a4]
class Company--><rect codeLine="54" fill="#FEFECE" filter="url(#f695feosx77qe)" height="146.4746" id="Company" style="stroke:#A80036;stroke-width:1.875;" width="321.25" x="748.75" y="368.75"/><ellipse cx="870.9375" cy="388.75" fill="#ADD1B2" rx="13.75" ry="13.75" style="stroke:#A80036;stroke-width:1.25;"/><path d="M873.4375,384.375 Q873.6914,383.75 873.9844,383.4375 Q874.2773,383.125 874.6094,383.125 Q875.1953,383.125 875.5664,383.4766 Q875.9375,383.8281 875.9375,384.6484 L875.9375,386.6016 Q875.9375,387.4219 875.5859,387.7734 Q875.2344,388.125 874.6875,388.125 Q874.1992,388.125 873.8867,387.9102 Q873.5742,387.6953 873.4375,387.1289 Q873.3789,386.7383 873.1641,386.5234 Q872.7734,386.1133 872.0703,385.8789 Q871.3672,385.625 870.6641,385.625 Q869.7852,385.625 869.043,385.9766 Q868.3203,386.3281 867.7539,387.1094 Q867.1875,387.8906 867.1875,388.9648 L867.1875,390.1172 Q867.1875,391.4063 868.2422,392.2656 Q869.2969,393.125 871.1719,393.125 Q872.2852,393.125 873.0664,392.8711 Q873.5156,392.7344 874.0234,392.2852 Q874.3555,392.0313 874.5313,391.9531 Q874.707,391.875 874.9219,391.875 Q875.332,391.875 875.625,392.207 Q875.9375,392.5195 875.9375,392.9688 Q875.9375,393.3984 875.5078,393.9063 Q874.8828,394.6484 873.8867,395.0586 Q872.5781,395.625 870.9766,395.625 Q869.1016,395.625 867.5977,394.8828 Q866.3867,394.2969 865.5273,393.0273 Q864.6875,391.7578 864.6875,390.2539 L864.6875,388.8867 Q864.6875,387.3242 865.4297,385.957 Q866.1914,384.5898 867.5,383.8672 Q868.8281,383.125 870.3125,383.125 Q871.2109,383.125 871.9922,383.4375 Q872.7734,383.75 873.4375,384.375 Z " fill="#000000"/><text fill="#000000" font-family="sans-serif" font-size="15" lengthAdjust="spacing" textLength="66.25" x="896.5625" y="394.8877">Company</text><line style="stroke:#A80036;stroke-width:1.875;" x1="750" x2="1068.75" y1="408.75" y2="408.75"/><text fill="#000000" font-family="sans-serif" font-size="13.75" lengthAdjust="spacing" textLength="112.5" x="756.25" y="428.0237">-String designation</text><text fill="#000000" font-family="sans-serif" font-size="13.75" lengthAdjust="spacing" textLength="306.25" x="756.25" y="445.3186">-ParameterCategoryStore parameterCategoryStore</text><text fill="#000000" font-family="sans-serif" font-size="13.75" lengthAdjust="spacing" textLength="196.25" x="756.25" y="462.6135">-ParameterStore parameterStore</text><line style="stroke:#A80036;stroke-width:1.875;" x1="750" x2="1068.75" y1="470.6348" y2="470.6348"/><text fill="#000000" font-family="sans-serif" font-size="13.75" lengthAdjust="spacing" textLength="130" x="756.25" y="489.9084">+getParameterStore()</text><text fill="#000000" font-family="sans-serif" font-size="13.75" lengthAdjust="spacing" textLength="185" x="756.25" y="507.2034">+getParameterCategoryStore()</text><!--MD5=[b9009a04d919d78a73c2eeec1e385786]
class CreateParameterController--><rect codeLine="62" fill="#FEFECE" filter="url(#f695feosx77qe)" height="163.7695" id="CreateParameterController" style="stroke:#A80036;stroke-width:1.875;" width="413.75" x="258.75" y="180"/><ellipse cx="367.1875" cy="200" fill="#ADD1B2" rx="13.75" ry="13.75" style="stroke:#A80036;stroke-width:1.25;"/><path d="M369.6875,195.625 Q369.9414,195 370.2344,194.6875 Q370.5273,194.375 370.8594,194.375 Q371.4453,194.375 371.8164,194.7266 Q372.1875,195.0781 372.1875,195.8984 L372.1875,197.8516 Q372.1875,198.6719 371.8359,199.0234 Q371.4844,199.375 370.9375,199.375 Q370.4492,199.375 370.1367,199.1602 Q369.8242,198.9453 369.6875,198.3789 Q369.6289,197.9883 369.4141,197.7734 Q369.0234,197.3633 368.3203,197.1289 Q367.6172,196.875 366.9141,196.875 Q366.0352,196.875 365.293,197.2266 Q364.5703,197.5781 364.0039,198.3594 Q363.4375,199.1406 363.4375,200.2148 L363.4375,201.3672 Q363.4375,202.6563 364.4922,203.5156 Q365.5469,204.375 367.4219,204.375 Q368.5352,204.375 369.3164,204.1211 Q369.7656,203.9844 370.2734,203.5352 Q370.6055,203.2813 370.7813,203.2031 Q370.957,203.125 371.1719,203.125 Q371.582,203.125 371.875,203.457 Q372.1875,203.7695 372.1875,204.2188 Q372.1875,204.6484 371.7578,205.1563 Q371.1328,205.8984 370.1367,206.3086 Q368.8281,206.875 367.2266,206.875 Q365.3516,206.875 363.8477,206.1328 Q362.6367,205.5469 361.7773,204.2773 Q360.9375,203.0078 360.9375,201.5039 L360.9375,200.1367 Q360.9375,198.5742 361.6797,197.207 Q362.4414,195.8398 363.75,195.1172 Q365.0781,194.375 366.5625,194.375 Q367.4609,194.375 368.2422,194.6875 Q369.0234,195 369.6875,195.625 Z " fill="#000000"/><text fill="#000000" font-family="sans-serif" font-size="15" lengthAdjust="spacing" textLength="186.25" x="392.8125" y="206.1377">CreateParameterController</text><line style="stroke:#A80036;stroke-width:1.875;" x1="260" x2="671.25" y1="220" y2="220"/><text fill="#000000" font-family="sans-serif" font-size="13.75" lengthAdjust="spacing" textLength="120" x="266.25" y="239.2737">-Company company</text><text fill="#000000" font-family="sans-serif" font-size="13.75" lengthAdjust="spacing" textLength="92.5" x="266.25" y="256.5686">-Parameter prm</text><line style="stroke:#A80036;stroke-width:1.875;" x1="260" x2="671.25" y1="264.5898" y2="264.5898"/><text fill="#000000" font-family="sans-serif" font-size="13.75" lengthAdjust="spacing" textLength="398.75" x="266.25" y="283.8635">+createParameter(parameterCode,shortName,description,pcCode)</text><text fill="#000000" font-family="sans-serif" font-size="13.75" lengthAdjust="spacing" textLength="162.5" x="266.25" y="301.1584">+getParameterCategories()</text><text fill="#000000" font-family="sans-serif" font-size="13.75" lengthAdjust="spacing" textLength="188.75" x="266.25" y="318.4534">+getParameterCategoriesDTO()</text><text fill="#000000" font-family="sans-serif" font-size="13.75" lengthAdjust="spacing" textLength="108.75" x="266.25" y="335.7483">+saveParameter()</text><!--MD5=[5518e6815e09c51d4db6e17774f331d2]
class CreateParameterUI--><rect codeLine="71" fill="#FEFECE" filter="url(#f695feosx77qe)" height="40" id="CreateParameterUI" style="stroke:#A80036;stroke-width:1.875;" width="173.75" x="8.75" y="109.375"/><ellipse cx="27.5" cy="129.375" fill="#ADD1B2" rx="13.75" ry="13.75" style="stroke:#A80036;stroke-width:1.25;"/><path d="M30,125 Q30.2539,124.375 30.5469,124.0625 Q30.8398,123.75 31.1719,123.75 Q31.7578,123.75 32.1289,124.1016 Q32.5,124.4531 32.5,125.2734 L32.5,127.2266 Q32.5,128.0469 32.1484,128.3984 Q31.7969,128.75 31.25,128.75 Q30.7617,128.75 30.4492,128.5352 Q30.1367,128.3203 30,127.7539 Q29.9414,127.3633 29.7266,127.1484 Q29.3359,126.7383 28.6328,126.5039 Q27.9297,126.25 27.2266,126.25 Q26.3477,126.25 25.6055,126.6016 Q24.8828,126.9531 24.3164,127.7344 Q23.75,128.5156 23.75,129.5898 L23.75,130.7422 Q23.75,132.0313 24.8047,132.8906 Q25.8594,133.75 27.7344,133.75 Q28.8477,133.75 29.6289,133.4961 Q30.0781,133.3594 30.5859,132.9102 Q30.918,132.6563 31.0938,132.5781 Q31.2695,132.5 31.4844,132.5 Q31.8945,132.5 32.1875,132.832 Q32.5,133.1445 32.5,133.5938 Q32.5,134.0234 32.0703,134.5313 Q31.4453,135.2734 30.4492,135.6836 Q29.1406,136.25 27.5391,136.25 Q25.6641,136.25 24.1602,135.5078 Q22.9492,134.9219 22.0898,133.6523 Q21.25,132.3828 21.25,130.8789 L21.25,129.5117 Q21.25,127.9492 21.9922,126.582 Q22.7539,125.2148 24.0625,124.4922 Q25.3906,123.75 26.875,123.75 Q27.7734,123.75 28.5547,124.0625 Q29.3359,124.375 30,125 Z " fill="#000000"/><text fill="#000000" font-family="sans-serif" font-size="15" lengthAdjust="spacing" textLength="133.75" x="45" y="135.5127">CreateParameterUI</text><!--MD5=[9d3dd688f78c4545f26622cd23f9dd25]
link CreateParameterUI to CreateParameterController--><path codeLine="74" d="M152.6875,149.5 C180.325,159.4625 215.625,172.1875 252.475,185.475 " fill="none" id="CreateParameterUI-to-CreateParameterController" style="stroke:#A80036;stroke-width:1.25;stroke-dasharray:7.0,7.0;"/><polygon fill="#A80036" points="258.4,187.6125,249.4985,179.108,252.517,185.5025,246.1225,188.5209,258.4,187.6125" style="stroke:#A80036;stroke-width:1.25;"/><!--MD5=[6d585fb02c26694275539b4f1508918e]
link CreateParameterController to Company--><path codeLine="75" d="M667.8125,343.8375 C692.7625,354.025 718.0625,364.3375 742.4,374.275 " fill="none" id="CreateParameterController-to-Company" style="stroke:#A80036;stroke-width:1.25;stroke-dasharray:7.0,7.0;"/><polygon fill="#A80036" points="748.5625,376.7875,740.0539,367.8899,742.7807,374.4141,736.2565,377.1408,748.5625,376.7875" style="stroke:#A80036;stroke-width:1.25;"/><!--MD5=[d4acd0f9b6f472dc8c1d58fc6da00ca5]
link CreateParameterController to ParameterCategoryStore--><path codeLine="76" d="M672.6125,276.3875 C838.0125,288.0375 1067.425,304.2125 1221.6125,315.0875 " fill="none" id="CreateParameterController-to-ParameterCategoryStore" style="stroke:#A80036;stroke-width:1.25;stroke-dasharray:7.0,7.0;"/><polygon fill="#A80036" points="1227.9875,315.5375,1217.1059,309.7796,1221.7521,315.1099,1216.4218,319.7562,1227.9875,315.5375" style="stroke:#A80036;stroke-width:1.25;"/><!--MD5=[46706d5726812879537e05899d80bc9e]
link CreateParameterController to ParameterStore--><path codeLine="77" d="M523.15,343.9625 C573.6,409.7625 654.1125,497.3875 748.75,536.875 C888.6875,595.2625 1061.2625,594.6125 1191.9375,581.2625 " fill="none" id="CreateParameterController-to-ParameterStore" style="stroke:#A80036;stroke-width:1.25;stroke-dasharray:7.0,7.0;"/><polygon fill="#A80036" points="1198.5125,580.575,1186.8077,576.7592,1192.2957,581.2181,1187.8367,586.7061,1198.5125,580.575" style="stroke:#A80036;stroke-width:1.25;"/><!--MD5=[1890845a8958533c6f74c90e74f302d7]
link CreateParameterController to CategoriesMapper--><path codeLine="78" d="M672.6375,229.8125 C724.25,221.775 776.95,213.5625 819.375,206.95 " fill="none" id="CreateParameterController-to-CategoriesMapper" style="stroke:#A80036;stroke-width:1.25;stroke-dasharray:7.0,7.0;"/><polygon fill="#A80036" points="825.5625,205.9875,813.6851,202.7485,819.3846,206.9338,815.1993,212.6333,825.5625,205.9875" style="stroke:#A80036;stroke-width:1.25;"/><!--MD5=[faddff114592b8b1e2cc0b3da6aa4488]
link CategoriesMapper to ParameterCategory--><path codeLine="79" d="M993.525,192.925 C1215,193.4875 1838.5,202.375 2350,279.375 C2360.0875,280.9 2370.5625,282.85 2380.95,285.025 " fill="none" id="CategoriesMapper-to-ParameterCategory" style="stroke:#A80036;stroke-width:1.25;stroke-dasharray:7.0,7.0;"/><polygon fill="#A80036" points="2387.4,286.4125,2377.4416,279.1742,2381.2877,285.1078,2375.3541,288.9539,2387.4,286.4125" style="stroke:#A80036;stroke-width:1.25;"/><!--MD5=[27fe8888fcd579b8f600d3dac6e95bb7]
link CategoriesMapper to CategoriesDto--><path codeLine="80" d="M993.3625,172.3625 C1076.3625,151.525 1204.1375,119.4625 1291.8375,97.45 " fill="none" id="CategoriesMapper-to-CategoriesDto" style="stroke:#A80036;stroke-width:1.25;stroke-dasharray:7.0,7.0;"/><polygon fill="#A80036" points="1298.075,95.8875,1285.9467,93.7737,1292.0127,97.4076,1288.3788,103.4735,1298.075,95.8875" style="stroke:#A80036;stroke-width:1.25;"/><!--MD5=[1a1bd99bc525d8c25287190584ac1637]
link CreateParameterUI to CategoriesDto--><path codeLine="81" d="M182.5625,119.35 C356.5625,99.575 763.9375,56.2125 1107.5,41.875 C1131.3625,40.875 1137.4125,40.25 1161.25,41.875 C1204.1,44.8 1251.175,50.8 1291.3375,56.7625 " fill="none" id="CreateParameterUI-to-CategoriesDto" style="stroke:#A80036;stroke-width:1.25;stroke-dasharray:7.0,7.0;"/><polygon fill="#A80036" points="1297.7125,57.725,1287.3305,51.1086,1291.5319,56.7961,1285.8443,60.9975,1297.7125,57.725" style="stroke:#A80036;stroke-width:1.25;"/><!--MD5=[de45c89eea54a343ff385d4a8699b474]
link CreateParameterController to CategoriesDto--><path codeLine="82" d="M616.025,179.875 C657.85,160.2 704.1125,141.4125 748.75,129.375 C936.2,78.8 1164.6125,71 1291.6375,71.175 " fill="none" id="CreateParameterController-to-CategoriesDto" style="stroke:#A80036;stroke-width:1.25;stroke-dasharray:7.0,7.0;"/><polygon fill="#A80036" points="1297.975,71.2,1286.7393,66.1679,1291.725,71.1821,1286.7108,76.1678,1297.975,71.2" style="stroke:#A80036;stroke-width:1.25;"/><!--MD5=[d6274e3b73b5bc8f467c6cfbf5bf003e]
link ParameterCategoryStore to ParameterCategory--><path codeLine="83" d="M1552.05,324.275 C1784.5625,320.5125 2206.525,313.6875 2387.2375,310.7625 " fill="none" id="ParameterCategoryStore-ParameterCategory" style="stroke:#A80036;stroke-width:1.25;"/><polygon fill="#000000" points="1978.7492,301.9936,1967.3849,298.5033,1967.5037,305.8497,1978.7492,301.9936" style="stroke:#000000;stroke-width:1.25;"/><text fill="#000000" font-family="sans-serif" font-size="16.25" lengthAdjust="spacing" textLength="48.75" x="1983.75" y="308.7439">adopts</text><!--MD5=[d53d7490e5836ca5709858d7326f212b]
link Company to ParameterCategoryStore--><path codeLine="84" d="M1070.1625,403.5 C1120.95,391.2875 1177.1375,377.775 1228,365.5375 " fill="none" id="Company-ParameterCategoryStore" style="stroke:#A80036;stroke-width:1.25;"/><polygon fill="#000000" points="1119.8267,371.8832,1107.9748,370.9553,1109.6929,378.0989,1119.8267,371.8832" style="stroke:#000000;stroke-width:1.25;"/><text fill="#000000" font-family="sans-serif" font-size="16.25" lengthAdjust="spacing" textLength="35" x="1125" y="379.9939">uses</text><text fill="#000000" font-family="sans-serif" font-size="16.25" lengthAdjust="spacing" textLength="8.75" x="1080.2271" y="418.6463">1</text><text fill="#000000" font-family="sans-serif" font-size="16.25" lengthAdjust="spacing" textLength="8.75" x="1209.6314" y="385.2502">1</text><!--MD5=[daf3d7412afa2c7651483be0b6e971d1]
link Company to ParameterStore--><path codeLine="85" d="M1070.1625,477.325 C1111.3125,486.475 1156,496.4 1198.525,505.85 " fill="none" id="Company-ParameterStore" style="stroke:#A80036;stroke-width:1.25;"/><polygon fill="#000000" points="1119.8512,478.4505,1109.611,472.4117,1108.0171,479.584,1119.8512,478.4505" style="stroke:#000000;stroke-width:1.25;"/><text fill="#000000" font-family="sans-serif" font-size="16.25" lengthAdjust="spacing" textLength="35" x="1125" y="483.7439">uses</text><text fill="#000000" font-family="sans-serif" font-size="16.25" lengthAdjust="spacing" textLength="8.75" x="1080.2271" y="496.9701">1</text><text fill="#000000" font-family="sans-serif" font-size="16.25" lengthAdjust="spacing" textLength="8.75" x="1180.2885" y="521.1558">1</text><!--MD5=[a0992dda039fed1bb57aff5aacace800]
link ParameterStore to Parameter--><path codeLine="86" d="M1581.3875,548.125 C1658.3,548.125 1746.5875,548.125 1822.075,548.125 " fill="none" id="ParameterStore-Parameter" style="stroke:#A80036;stroke-width:1.25;"/><polygon fill="#000000" points="1631.25,537.0947,1619.9436,533.4211,1619.9436,540.7684,1631.25,537.0947" style="stroke:#000000;stroke-width:1.25;"/><text fill="#000000" font-family="sans-serif" font-size="16.25" lengthAdjust="spacing" textLength="147.5" x="1636.25" y="543.7439">capable of analysing</text><text fill="#000000" font-family="sans-serif" font-size="16.25" lengthAdjust="spacing" textLength="8.75" x="1591.4815" y="565.5098">1</text><text fill="#000000" font-family="sans-serif" font-size="16.25" lengthAdjust="spacing" textLength="6.25" x="1806.4896" y="565.5304">*</text><!--MD5=[6df8849671cb880f6936e94aa30db6f9]
link Parameter to ParameterCategory--><path codeLine="87" d="M2177.625,458.8875 C2249.3625,422.5875 2328.9375,382.325 2387.425,352.7375 " fill="none" id="Parameter-ParameterCategory" style="stroke:#A80036;stroke-width:1.25;"/><polygon fill="#000000" points="2226.8268,359.2731,2215.0797,361.0995,2218.3968,367.6554,2226.8268,359.2731" style="stroke:#000000;stroke-width:1.25;"/><text fill="#000000" font-family="sans-serif" font-size="16.25" lengthAdjust="spacing" textLength="116.25" x="2232.5" y="368.7439">presented under</text><text fill="#000000" font-family="sans-serif" font-size="16.25" lengthAdjust="spacing" textLength="6.25" x="2187.5098" y="471.4453">*</text><text fill="#000000" font-family="sans-serif" font-size="16.25" lengthAdjust="spacing" textLength="8.75" x="2368.6863" y="375.5006">1</text><!--MD5=[b10ab78fe28c88e3ca3440768875c58b]
@startuml
hide empty methods
hide empty attributes
left to right direction
skinparam classAttributeIconSize 0

class CategoriesDto {
    -String code
    -String name
    +CategoriesDto(name,code)
    +getCode()
}

class CategoriesMapper {
    +toDTO(category)
    +toDTO(categories)
}

class ParameterCategoryStore {
    -List<ParameterCategory> parameterCategoriesList
    +getParameterCategoriesStore()
    +getCategoryByCode(code)
}

class ParameterStore {
    -list<Parameter> prmList
    +createParameter(parameterCode,shortName,description,pc)
    +validateParameter(prm)
    +saveParameter(prm)
}

class Parameter {
  -int CODE_LENGTH
  -int NAME_MAX_LENGTH
  -int DESCRIPTION_MAX_LENGTH
  -String parameterCode
  -String shortName
  -String description
  -ParameterCategory pc
  +Parameter(parameterCode, shortName, description, pc)
  +getPrmCode()
  +checkParameterCategory(pc)
  +checkParameterCodeRules(parameterCode)
  +checkShortNameRules(shortName)
  +checkDescriptionRules(description)
  +equals(parameterObject)
}

class ParameterCategory {
   -String code
   -String name
   +getCode()
}

class Company {
  -String designation
  -ParameterCategoryStore parameterCategoryStore
  -ParameterStore parameterStore
  +getParameterStore()
  +getParameterCategoryStore()
}

class CreateParameterController {
  -Company company
  -Parameter prm
  +createParameter(parameterCode,shortName,description,pcCode)
  +getParameterCategories()
  +getParameterCategoriesDTO()
  +saveParameter()
}

class CreateParameterUI {
}

CreateParameterUI ..> CreateParameterController
CreateParameterController ..> Company
CreateParameterController ..> ParameterCategoryStore
CreateParameterController ..> ParameterStore
CreateParameterController ..> CategoriesMapper
CategoriesMapper ..> ParameterCategory
CategoriesMapper ..> CategoriesDto
CreateParameterUI ..> CategoriesDto
CreateParameterController ..> CategoriesDto
ParameterCategoryStore - - ParameterCategory : adopts >
Company "1" - - "1" ParameterCategoryStore : uses >
Company "1" - - "1" ParameterStore : uses >
ParameterStore "1" - - "*" Parameter : capable of analysing >
Parameter "*" - - "1" ParameterCategory : presented under >


@enduml

PlantUML version 1.2021.5(Sun Apr 25 12:20:28 BST 2021)
(GPL source distribution)
Java Runtime: OpenJDK Runtime Environment
JVM: Dynamic Code Evolution 64-Bit Server VM
Default Encoding: Cp1252
Language: pt
Country: PT
--></g></svg>