<?xml version="1.0" encoding="UTF-8" standalone="no"?><svg xmlns="http://www.w3.org/2000/svg" xmlns:xlink="http://www.w3.org/1999/xlink" contentScriptType="application/ecmascript" contentStyleType="text/css" height="1373.75px" preserveAspectRatio="none" style="width:1720px;height:1373px;" version="1.1" viewBox="0 0 1720 1373" width="1720px" zoomAndPan="magnify"><defs><filter height="300%" id="f1a57hkkkf4yqp" width="300%" x="-1" y="-1"><feGaussianBlur result="blurOut" stdDeviation="2.5"/><feColorMatrix in="blurOut" result="blurOut2" type="matrix" values="0 0 0 0 0 0 0 0 0 0 0 0 0 0 0 0 0 0 .4 0"/><feOffset dx="5.0" dy="5.0" in="blurOut2" result="blurOut3"/><feBlend in="SourceGraphic" in2="blurOut3" mode="normal"/></filter></defs><g><!--MD5=[7b8bc9ee8bb84b99fb3a3f9477c19238]
cluster DTO--><polygon fill="#FFFFFF" filter="url(#f1a57hkkkf4yqp)" points="1450,7.5,1493.75,7.5,1502.5,37.0117,1673.75,37.0117,1673.75,202.5,1450,202.5,1450,7.5" style="stroke:#000000;stroke-width:1.875;"/><line style="stroke:#000000;stroke-width:1.875;" x1="1450" x2="1502.5" y1="37.0117" y2="37.0117"/><text fill="#000000" font-family="sans-serif" font-size="17.5" font-weight="bold" lengthAdjust="spacing" textLength="36.25" x="1455" y="28.1665">DTO</text><!--MD5=[701152d03fbf85133a1de050cfdbc7fd]
cluster Mappers--><polygon fill="#FFFFFF" filter="url(#f1a57hkkkf4yqp)" points="960,160,1045,160,1053.75,189.5117,1167.5,189.5117,1167.5,310,960,310,960,160" style="stroke:#000000;stroke-width:1.875;"/><line style="stroke:#000000;stroke-width:1.875;" x1="960" x2="1053.75" y1="189.5117" y2="189.5117"/><text fill="#000000" font-family="sans-serif" font-size="17.5" font-weight="bold" lengthAdjust="spacing" textLength="77.5" x="965" y="180.6665">Mappers</text><!--MD5=[121a8bf1197281ab89ed693fab589f94]
cluster Domain--><polygon fill="#FFFFFF" filter="url(#f1a57hkkkf4yqp)" points="822.5,340,895,340,903.75,369.5117,1698.75,369.5117,1698.75,1365,822.5,1365,822.5,340" style="stroke:#000000;stroke-width:1.875;"/><line style="stroke:#000000;stroke-width:1.875;" x1="822.5" x2="903.75" y1="369.5117" y2="369.5117"/><text fill="#000000" font-family="sans-serif" font-size="17.5" font-weight="bold" lengthAdjust="spacing" textLength="65" x="827.5" y="360.6665">Domain</text><!--MD5=[7ce1723ddb6e6233854253973eae5a71]
cluster Store--><polygon fill="#FFFFFF" filter="url(#f1a57hkkkf4yqp)" points="852.5,395,907.5,395,916.25,424.5117,1275,424.5117,1275,746.25,852.5,746.25,852.5,395" style="stroke:#000000;stroke-width:1.875;"/><line style="stroke:#000000;stroke-width:1.875;" x1="852.5" x2="916.25" y1="424.5117" y2="424.5117"/><text fill="#000000" font-family="sans-serif" font-size="17.5" font-weight="bold" lengthAdjust="spacing" textLength="47.5" x="857.5" y="415.6665">Store</text><!--MD5=[15636c1ca4a123c16a2a1a8e90aca7a9]
cluster Model--><polygon fill="#FFFFFF" filter="url(#f1a57hkkkf4yqp)" points="866.25,776.25,928.75,776.25,937.5,805.7617,1668.75,805.7617,1668.75,1335,866.25,1335,866.25,776.25" style="stroke:#000000;stroke-width:1.875;"/><line style="stroke:#000000;stroke-width:1.875;" x1="866.25" x2="937.5" y1="805.7617" y2="805.7617"/><text fill="#000000" font-family="sans-serif" font-size="17.5" font-weight="bold" lengthAdjust="spacing" textLength="55" x="871.25" y="796.9165">Model</text><!--MD5=[1f2cfc53d9d308f53762fd0fcbaa4873]
cluster Controller--><polygon fill="#FFFFFF" filter="url(#f1a57hkkkf4yqp)" points="275,306.25,371.25,306.25,380,335.7617,728.75,335.7617,728.75,536.25,275,536.25,275,306.25" style="stroke:#000000;stroke-width:1.875;"/><line style="stroke:#000000;stroke-width:1.875;" x1="275" x2="380" y1="335.7617" y2="335.7617"/><text fill="#000000" font-family="sans-serif" font-size="17.5" font-weight="bold" lengthAdjust="spacing" textLength="88.75" x="280" y="326.9165">Controller</text><!--MD5=[9681dc6e01e10c6b4fe06895ae94f592]
cluster UI--><polygon fill="#FFFFFF" filter="url(#f1a57hkkkf4yqp)" points="20,83.75,45,83.75,53.75,113.2617,233.75,113.2617,233.75,188.75,20,188.75,20,83.75" style="stroke:#000000;stroke-width:1.875;"/><line style="stroke:#000000;stroke-width:1.875;" x1="20" x2="53.75" y1="113.2617" y2="113.2617"/><text fill="#000000" font-family="sans-serif" font-size="17.5" font-weight="bold" lengthAdjust="spacing" textLength="17.5" x="25" y="104.4165">UI</text><!--MD5=[e7b7f76692bc7b6a189caa2305323cac]
class CategoriesDto--><rect codeLine="8" fill="#FEFECE" filter="url(#f1a57hkkkf4yqp)" height="129.1797" id="CategoriesDto" style="stroke:#A80036;stroke-width:1.875;" width="183.75" x="1470" y="53.125"/><ellipse cx="1508.4375" cy="73.125" fill="#ADD1B2" rx="13.75" ry="13.75" style="stroke:#A80036;stroke-width:1.25;"/><path d="M1510.9375,68.75 Q1511.1914,68.125 1511.4844,67.8125 Q1511.7773,67.5 1512.1094,67.5 Q1512.6953,67.5 1513.0664,67.8516 Q1513.4375,68.2031 1513.4375,69.0234 L1513.4375,70.9766 Q1513.4375,71.7969 1513.0859,72.1484 Q1512.7344,72.5 1512.1875,72.5 Q1511.6992,72.5 1511.3867,72.2852 Q1511.0742,72.0703 1510.9375,71.5039 Q1510.8789,71.1133 1510.6641,70.8984 Q1510.2734,70.4883 1509.5703,70.2539 Q1508.8672,70 1508.1641,70 Q1507.2852,70 1506.543,70.3516 Q1505.8203,70.7031 1505.2539,71.4844 Q1504.6875,72.2656 1504.6875,73.3398 L1504.6875,74.4922 Q1504.6875,75.7813 1505.7422,76.6406 Q1506.7969,77.5 1508.6719,77.5 Q1509.7852,77.5 1510.5664,77.2461 Q1511.0156,77.1094 1511.5234,76.6602 Q1511.8555,76.4063 1512.0313,76.3281 Q1512.207,76.25 1512.4219,76.25 Q1512.832,76.25 1513.125,76.582 Q1513.4375,76.8945 1513.4375,77.3438 Q1513.4375,77.7734 1513.0078,78.2813 Q1512.3828,79.0234 1511.3867,79.4336 Q1510.0781,80 1508.4766,80 Q1506.6016,80 1505.0977,79.2578 Q1503.8867,78.6719 1503.0273,77.4023 Q1502.1875,76.1328 1502.1875,74.6289 L1502.1875,73.2617 Q1502.1875,71.6992 1502.9297,70.332 Q1503.6914,68.9648 1505,68.2422 Q1506.3281,67.5 1507.8125,67.5 Q1508.7109,67.5 1509.4922,67.8125 Q1510.2734,68.125 1510.9375,68.75 Z " fill="#000000"/><text fill="#000000" font-family="sans-serif" font-size="15" lengthAdjust="spacing" textLength="100" x="1530.3125" y="79.2627">CategoriesDto</text><line style="stroke:#A80036;stroke-width:1.875;" x1="1471.25" x2="1652.5" y1="93.125" y2="93.125"/><text fill="#000000" font-family="sans-serif" font-size="13.75" lengthAdjust="spacing" textLength="73.75" x="1477.5" y="112.3987">-String code</text><text fill="#000000" font-family="sans-serif" font-size="13.75" lengthAdjust="spacing" textLength="76.25" x="1477.5" y="129.6936">-String name</text><line style="stroke:#A80036;stroke-width:1.875;" x1="1471.25" x2="1652.5" y1="137.7148" y2="137.7148"/><text fill="#000000" font-family="sans-serif" font-size="13.75" lengthAdjust="spacing" textLength="168.75" x="1477.5" y="156.9885">+CategoriesDto(name,code)</text><text fill="#000000" font-family="sans-serif" font-size="13.75" lengthAdjust="spacing" textLength="67.5" x="1477.5" y="174.2834">+getCode()</text><!--MD5=[d63babda4aaccf35fa117b37a096c517]
class CategoriesMapper--><rect codeLine="19" fill="#FEFECE" filter="url(#f1a57hkkkf4yqp)" height="84.5898" id="CategoriesMapper" style="stroke:#A80036;stroke-width:1.875;" width="167.5" x="980" y="205"/><ellipse cx="998.75" cy="225" fill="#ADD1B2" rx="13.75" ry="13.75" style="stroke:#A80036;stroke-width:1.25;"/><path d="M1001.25,220.625 Q1001.5039,220 1001.7969,219.6875 Q1002.0898,219.375 1002.4219,219.375 Q1003.0078,219.375 1003.3789,219.7266 Q1003.75,220.0781 1003.75,220.8984 L1003.75,222.8516 Q1003.75,223.6719 1003.3984,224.0234 Q1003.0469,224.375 1002.5,224.375 Q1002.0117,224.375 1001.6992,224.1602 Q1001.3867,223.9453 1001.25,223.3789 Q1001.1914,222.9883 1000.9766,222.7734 Q1000.5859,222.3633 999.8828,222.1289 Q999.1797,221.875 998.4766,221.875 Q997.5977,221.875 996.8555,222.2266 Q996.1328,222.5781 995.5664,223.3594 Q995,224.1406 995,225.2148 L995,226.3672 Q995,227.6563 996.0547,228.5156 Q997.1094,229.375 998.9844,229.375 Q1000.0977,229.375 1000.8789,229.1211 Q1001.3281,228.9844 1001.8359,228.5352 Q1002.168,228.2813 1002.3438,228.2031 Q1002.5195,228.125 1002.7344,228.125 Q1003.1445,228.125 1003.4375,228.457 Q1003.75,228.7695 1003.75,229.2188 Q1003.75,229.6484 1003.3203,230.1563 Q1002.6953,230.8984 1001.6992,231.3086 Q1000.3906,231.875 998.7891,231.875 Q996.9141,231.875 995.4102,231.1328 Q994.1992,230.5469 993.3398,229.2773 Q992.5,228.0078 992.5,226.5039 L992.5,225.1367 Q992.5,223.5742 993.2422,222.207 Q994.0039,220.8398 995.3125,220.1172 Q996.6406,219.375 998.125,219.375 Q999.0234,219.375 999.8047,219.6875 Q1000.5859,220 1001.25,220.625 Z " fill="#000000"/><text fill="#000000" font-family="sans-serif" font-size="15" lengthAdjust="spacing" textLength="127.5" x="1016.25" y="231.1377">CategoriesMapper</text><line style="stroke:#A80036;stroke-width:1.875;" x1="981.25" x2="1146.25" y1="245" y2="245"/><text fill="#000000" font-family="sans-serif" font-size="13.75" lengthAdjust="spacing" textLength="108.75" x="987.5" y="264.2737">+toDTO(category)</text><text fill="#000000" font-family="sans-serif" font-size="13.75" lengthAdjust="spacing" textLength="118.75" x="987.5" y="281.5686">+toDTO(categories)</text><!--MD5=[d802db621b5b215a6f0466f93cefcb42]
class ParameterCategoryStore--><rect codeLine="30" fill="#FEFECE" filter="url(#f1a57hkkkf4yqp)" height="111.8848" id="ParameterCategoryStore" style="stroke:#A80036;stroke-width:1.875;" width="323.75" x="901.875" y="440"/><ellipse cx="973.4375" cy="460" fill="#ADD1B2" rx="13.75" ry="13.75" style="stroke:#A80036;stroke-width:1.25;"/><path d="M975.9375,455.625 Q976.1914,455 976.4844,454.6875 Q976.7773,454.375 977.1094,454.375 Q977.6953,454.375 978.0664,454.7266 Q978.4375,455.0781 978.4375,455.8984 L978.4375,457.8516 Q978.4375,458.6719 978.0859,459.0234 Q977.7344,459.375 977.1875,459.375 Q976.6992,459.375 976.3867,459.1602 Q976.0742,458.9453 975.9375,458.3789 Q975.8789,457.9883 975.6641,457.7734 Q975.2734,457.3633 974.5703,457.1289 Q973.8672,456.875 973.1641,456.875 Q972.2852,456.875 971.543,457.2266 Q970.8203,457.5781 970.2539,458.3594 Q969.6875,459.1406 969.6875,460.2148 L969.6875,461.3672 Q969.6875,462.6563 970.7422,463.5156 Q971.7969,464.375 973.6719,464.375 Q974.7852,464.375 975.5664,464.1211 Q976.0156,463.9844 976.5234,463.5352 Q976.8555,463.2813 977.0313,463.2031 Q977.207,463.125 977.4219,463.125 Q977.832,463.125 978.125,463.457 Q978.4375,463.7695 978.4375,464.2188 Q978.4375,464.6484 978.0078,465.1563 Q977.3828,465.8984 976.3867,466.3086 Q975.0781,466.875 973.4766,466.875 Q971.6016,466.875 970.0977,466.1328 Q968.8867,465.5469 968.0273,464.2773 Q967.1875,463.0078 967.1875,461.5039 L967.1875,460.1367 Q967.1875,458.5742 967.9297,457.207 Q968.6914,455.8398 970,455.1172 Q971.3281,454.375 972.8125,454.375 Q973.7109,454.375 974.4922,454.6875 Q975.2734,455 975.9375,455.625 Z " fill="#000000"/><text fill="#000000" font-family="sans-serif" font-size="15" lengthAdjust="spacing" textLength="170" x="999.0625" y="466.1377">ParameterCategoryStore</text><line style="stroke:#A80036;stroke-width:1.875;" x1="903.125" x2="1224.375" y1="480" y2="480"/><text fill="#000000" font-family="sans-serif" font-size="13.75" lengthAdjust="spacing" textLength="308.75" x="909.375" y="499.2737">-List&lt;ParameterCategory&gt; parameterCategoriesList</text><line style="stroke:#A80036;stroke-width:1.875;" x1="903.125" x2="1224.375" y1="507.2949" y2="507.2949"/><text fill="#000000" font-family="sans-serif" font-size="13.75" lengthAdjust="spacing" textLength="195" x="909.375" y="526.5686">+getParameterCategoriesStore()</text><text fill="#000000" font-family="sans-serif" font-size="13.75" lengthAdjust="spacing" textLength="168.75" x="909.375" y="543.8635">+getCategoryByCode(code)</text><!--MD5=[be7802b157a16874d39c59ca0e2b25be]
class ParameterStore--><rect codeLine="36" fill="#FEFECE" filter="url(#f1a57hkkkf4yqp)" height="129.1797" id="ParameterStore" style="stroke:#A80036;stroke-width:1.875;" width="382.5" x="872.5" y="596.875"/><ellipse cx="1004.0625" cy="616.875" fill="#ADD1B2" rx="13.75" ry="13.75" style="stroke:#A80036;stroke-width:1.25;"/><path d="M1006.5625,612.5 Q1006.8164,611.875 1007.1094,611.5625 Q1007.4023,611.25 1007.7344,611.25 Q1008.3203,611.25 1008.6914,611.6016 Q1009.0625,611.9531 1009.0625,612.7734 L1009.0625,614.7266 Q1009.0625,615.5469 1008.7109,615.8984 Q1008.3594,616.25 1007.8125,616.25 Q1007.3242,616.25 1007.0117,616.0352 Q1006.6992,615.8203 1006.5625,615.2539 Q1006.5039,614.8633 1006.2891,614.6484 Q1005.8984,614.2383 1005.1953,614.0039 Q1004.4922,613.75 1003.7891,613.75 Q1002.9102,613.75 1002.168,614.1016 Q1001.4453,614.4531 1000.8789,615.2344 Q1000.3125,616.0156 1000.3125,617.0898 L1000.3125,618.2422 Q1000.3125,619.5313 1001.3672,620.3906 Q1002.4219,621.25 1004.2969,621.25 Q1005.4102,621.25 1006.1914,620.9961 Q1006.6406,620.8594 1007.1484,620.4102 Q1007.4805,620.1563 1007.6563,620.0781 Q1007.832,620 1008.0469,620 Q1008.457,620 1008.75,620.332 Q1009.0625,620.6445 1009.0625,621.0938 Q1009.0625,621.5234 1008.6328,622.0313 Q1008.0078,622.7734 1007.0117,623.1836 Q1005.7031,623.75 1004.1016,623.75 Q1002.2266,623.75 1000.7227,623.0078 Q999.5117,622.4219 998.6523,621.1523 Q997.8125,619.8828 997.8125,618.3789 L997.8125,617.0117 Q997.8125,615.4492 998.5547,614.082 Q999.3164,612.7148 1000.625,611.9922 Q1001.9531,611.25 1003.4375,611.25 Q1004.3359,611.25 1005.1172,611.5625 Q1005.8984,611.875 1006.5625,612.5 Z " fill="#000000"/><text fill="#000000" font-family="sans-serif" font-size="15" lengthAdjust="spacing" textLength="108.75" x="1029.6875" y="623.0127">ParameterStore</text><line style="stroke:#A80036;stroke-width:1.875;" x1="873.75" x2="1253.75" y1="636.875" y2="636.875"/><text fill="#000000" font-family="sans-serif" font-size="13.75" lengthAdjust="spacing" textLength="145" x="880" y="656.1487">-list&lt;Parameter&gt; prmList</text><line style="stroke:#A80036;stroke-width:1.875;" x1="873.75" x2="1253.75" y1="664.1699" y2="664.1699"/><text fill="#000000" font-family="sans-serif" font-size="13.75" lengthAdjust="spacing" textLength="367.5" x="880" y="683.4436">+createParameter(parameterCode,shortName,description,pc)</text><text fill="#000000" font-family="sans-serif" font-size="13.75" lengthAdjust="spacing" textLength="147.5" x="880" y="700.7385">+validateParameter(prm)</text><text fill="#000000" font-family="sans-serif" font-size="13.75" lengthAdjust="spacing" textLength="131.25" x="880" y="718.0334">+saveParameter(prm)</text><!--MD5=[1f6362a5c8f21d8d6a0fce68f3a92a4e]
class Parameter--><rect codeLine="47" fill="#FEFECE" filter="url(#f1a57hkkkf4yqp)" height="302.1289" id="Parameter" style="stroke:#A80036;stroke-width:1.875;" width="355" x="886.25" y="821.25"/><ellipse cx="1022.1875" cy="841.25" fill="#ADD1B2" rx="13.75" ry="13.75" style="stroke:#A80036;stroke-width:1.25;"/><path d="M1024.6875,836.875 Q1024.9414,836.25 1025.2344,835.9375 Q1025.5273,835.625 1025.8594,835.625 Q1026.4453,835.625 1026.8164,835.9766 Q1027.1875,836.3281 1027.1875,837.1484 L1027.1875,839.1016 Q1027.1875,839.9219 1026.8359,840.2734 Q1026.4844,840.625 1025.9375,840.625 Q1025.4492,840.625 1025.1367,840.4102 Q1024.8242,840.1953 1024.6875,839.6289 Q1024.6289,839.2383 1024.4141,839.0234 Q1024.0234,838.6133 1023.3203,838.3789 Q1022.6172,838.125 1021.9141,838.125 Q1021.0352,838.125 1020.293,838.4766 Q1019.5703,838.8281 1019.0039,839.6094 Q1018.4375,840.3906 1018.4375,841.4648 L1018.4375,842.6172 Q1018.4375,843.9063 1019.4922,844.7656 Q1020.5469,845.625 1022.4219,845.625 Q1023.5352,845.625 1024.3164,845.3711 Q1024.7656,845.2344 1025.2734,844.7852 Q1025.6055,844.5313 1025.7813,844.4531 Q1025.957,844.375 1026.1719,844.375 Q1026.582,844.375 1026.875,844.707 Q1027.1875,845.0195 1027.1875,845.4688 Q1027.1875,845.8984 1026.7578,846.4063 Q1026.1328,847.1484 1025.1367,847.5586 Q1023.8281,848.125 1022.2266,848.125 Q1020.3516,848.125 1018.8477,847.3828 Q1017.6367,846.7969 1016.7773,845.5273 Q1015.9375,844.2578 1015.9375,842.7539 L1015.9375,841.3867 Q1015.9375,839.8242 1016.6797,838.457 Q1017.4414,837.0898 1018.75,836.3672 Q1020.0781,835.625 1021.5625,835.625 Q1022.4609,835.625 1023.2422,835.9375 Q1024.0234,836.25 1024.6875,836.875 Z " fill="#000000"/><text fill="#000000" font-family="sans-serif" font-size="15" lengthAdjust="spacing" textLength="72.5" x="1047.8125" y="847.3877">Parameter</text><line style="stroke:#A80036;stroke-width:1.875;" x1="887.5" x2="1240" y1="861.25" y2="861.25"/><text fill="#000000" font-family="sans-serif" font-size="13.75" lengthAdjust="spacing" textLength="115" x="893.75" y="880.5237">-int CODE_LENGTH</text><text fill="#000000" font-family="sans-serif" font-size="13.75" lengthAdjust="spacing" textLength="152.5" x="893.75" y="897.8186">-int NAME_MAX_LENGTH</text><text fill="#000000" font-family="sans-serif" font-size="13.75" lengthAdjust="spacing" textLength="197.5" x="893.75" y="915.1135">-int DESCRIPTION_MAX_LENGTH</text><text fill="#000000" font-family="sans-serif" font-size="13.75" lengthAdjust="spacing" textLength="136.25" x="893.75" y="932.4084">-String parameterCode</text><text fill="#000000" font-family="sans-serif" font-size="13.75" lengthAdjust="spacing" textLength="108.75" x="893.75" y="949.7034">-String shortName</text><text fill="#000000" font-family="sans-serif" font-size="13.75" lengthAdjust="spacing" textLength="110" x="893.75" y="966.9983">-String description</text><text fill="#000000" font-family="sans-serif" font-size="13.75" lengthAdjust="spacing" textLength="140" x="893.75" y="984.2932">-ParameterCategory pc</text><line style="stroke:#A80036;stroke-width:1.875;" x1="887.5" x2="1240" y1="992.3145" y2="992.3145"/><text fill="#000000" font-family="sans-serif" font-size="13.75" lengthAdjust="spacing" textLength="340" x="893.75" y="1011.5881">+Parameter(parameterCode, shortName, description, pc)</text><text fill="#000000" font-family="sans-serif" font-size="13.75" lengthAdjust="spacing" textLength="90" x="893.75" y="1028.8831">+getPrmCode()</text><text fill="#000000" font-family="sans-serif" font-size="13.75" lengthAdjust="spacing" textLength="185" x="893.75" y="1046.178">+checkParameterCategory(pc)</text><text fill="#000000" font-family="sans-serif" font-size="13.75" lengthAdjust="spacing" textLength="272.5" x="893.75" y="1063.4729">+checkParameterCodeRules(parameterCode)</text><text fill="#000000" font-family="sans-serif" font-size="13.75" lengthAdjust="spacing" textLength="218.75" x="893.75" y="1080.7678">+checkShortNameRules(shortName)</text><text fill="#000000" font-family="sans-serif" font-size="13.75" lengthAdjust="spacing" textLength="221.25" x="893.75" y="1098.0627">+checkDescriptionRules(description)</text><text fill="#000000" font-family="sans-serif" font-size="13.75" lengthAdjust="spacing" textLength="157.5" x="893.75" y="1115.3577">+equals(parameterObject)</text><!--MD5=[36afb6bbd95a8ac778c4537c55a683d5]
class ParameterCategory--><rect codeLine="64" fill="#FEFECE" filter="url(#f1a57hkkkf4yqp)" height="111.8848" id="ParameterCategory" style="stroke:#A80036;stroke-width:1.875;" width="173.75" x="1475" y="821.25"/><ellipse cx="1493.75" cy="841.25" fill="#ADD1B2" rx="13.75" ry="13.75" style="stroke:#A80036;stroke-width:1.25;"/><path d="M1496.25,836.875 Q1496.5039,836.25 1496.7969,835.9375 Q1497.0898,835.625 1497.4219,835.625 Q1498.0078,835.625 1498.3789,835.9766 Q1498.75,836.3281 1498.75,837.1484 L1498.75,839.1016 Q1498.75,839.9219 1498.3984,840.2734 Q1498.0469,840.625 1497.5,840.625 Q1497.0117,840.625 1496.6992,840.4102 Q1496.3867,840.1953 1496.25,839.6289 Q1496.1914,839.2383 1495.9766,839.0234 Q1495.5859,838.6133 1494.8828,838.3789 Q1494.1797,838.125 1493.4766,838.125 Q1492.5977,838.125 1491.8555,838.4766 Q1491.1328,838.8281 1490.5664,839.6094 Q1490,840.3906 1490,841.4648 L1490,842.6172 Q1490,843.9063 1491.0547,844.7656 Q1492.1094,845.625 1493.9844,845.625 Q1495.0977,845.625 1495.8789,845.3711 Q1496.3281,845.2344 1496.8359,844.7852 Q1497.168,844.5313 1497.3438,844.4531 Q1497.5195,844.375 1497.7344,844.375 Q1498.1445,844.375 1498.4375,844.707 Q1498.75,845.0195 1498.75,845.4688 Q1498.75,845.8984 1498.3203,846.4063 Q1497.6953,847.1484 1496.6992,847.5586 Q1495.3906,848.125 1493.7891,848.125 Q1491.9141,848.125 1490.4102,847.3828 Q1489.1992,846.7969 1488.3398,845.5273 Q1487.5,844.2578 1487.5,842.7539 L1487.5,841.3867 Q1487.5,839.8242 1488.2422,838.457 Q1489.0039,837.0898 1490.3125,836.3672 Q1491.6406,835.625 1493.125,835.625 Q1494.0234,835.625 1494.8047,835.9375 Q1495.5859,836.25 1496.25,836.875 Z " fill="#000000"/><text fill="#000000" font-family="sans-serif" font-size="15" lengthAdjust="spacing" textLength="133.75" x="1511.25" y="847.3877">ParameterCategory</text><line style="stroke:#A80036;stroke-width:1.875;" x1="1476.25" x2="1647.5" y1="861.25" y2="861.25"/><text fill="#000000" font-family="sans-serif" font-size="13.75" lengthAdjust="spacing" textLength="73.75" x="1482.5" y="880.5237">-String code</text><text fill="#000000" font-family="sans-serif" font-size="13.75" lengthAdjust="spacing" textLength="76.25" x="1482.5" y="897.8186">-String name</text><line style="stroke:#A80036;stroke-width:1.875;" x1="1476.25" x2="1647.5" y1="905.8398" y2="905.8398"/><text fill="#000000" font-family="sans-serif" font-size="13.75" lengthAdjust="spacing" textLength="67.5" x="1482.5" y="925.1135">+getCode()</text><!--MD5=[02e4b9b7573f1156f41e60aa5b4e25a4]
class Company--><rect codeLine="70" fill="#FEFECE" filter="url(#f1a57hkkkf4yqp)" height="146.4746" id="Company" style="stroke:#A80036;stroke-width:1.875;" width="321.25" x="903.125" y="1168.125"/><ellipse cx="1025.3125" cy="1188.125" fill="#ADD1B2" rx="13.75" ry="13.75" style="stroke:#A80036;stroke-width:1.25;"/><path d="M1027.8125,1183.75 Q1028.0664,1183.125 1028.3594,1182.8125 Q1028.6523,1182.5 1028.9844,1182.5 Q1029.5703,1182.5 1029.9414,1182.8516 Q1030.3125,1183.2031 1030.3125,1184.0234 L1030.3125,1185.9766 Q1030.3125,1186.7969 1029.9609,1187.1484 Q1029.6094,1187.5 1029.0625,1187.5 Q1028.5742,1187.5 1028.2617,1187.2852 Q1027.9492,1187.0703 1027.8125,1186.5039 Q1027.7539,1186.1133 1027.5391,1185.8984 Q1027.1484,1185.4883 1026.4453,1185.2539 Q1025.7422,1185 1025.0391,1185 Q1024.1602,1185 1023.418,1185.3516 Q1022.6953,1185.7031 1022.1289,1186.4844 Q1021.5625,1187.2656 1021.5625,1188.3398 L1021.5625,1189.4922 Q1021.5625,1190.7813 1022.6172,1191.6406 Q1023.6719,1192.5 1025.5469,1192.5 Q1026.6602,1192.5 1027.4414,1192.2461 Q1027.8906,1192.1094 1028.3984,1191.6602 Q1028.7305,1191.4063 1028.9063,1191.3281 Q1029.082,1191.25 1029.2969,1191.25 Q1029.707,1191.25 1030,1191.582 Q1030.3125,1191.8945 1030.3125,1192.3438 Q1030.3125,1192.7734 1029.8828,1193.2813 Q1029.2578,1194.0234 1028.2617,1194.4336 Q1026.9531,1195 1025.3516,1195 Q1023.4766,1195 1021.9727,1194.2578 Q1020.7617,1193.6719 1019.9023,1192.4023 Q1019.0625,1191.1328 1019.0625,1189.6289 L1019.0625,1188.2617 Q1019.0625,1186.6992 1019.8047,1185.332 Q1020.5664,1183.9648 1021.875,1183.2422 Q1023.2031,1182.5 1024.6875,1182.5 Q1025.5859,1182.5 1026.3672,1182.8125 Q1027.1484,1183.125 1027.8125,1183.75 Z " fill="#000000"/><text fill="#000000" font-family="sans-serif" font-size="15" lengthAdjust="spacing" textLength="66.25" x="1050.9375" y="1194.2627">Company</text><line style="stroke:#A80036;stroke-width:1.875;" x1="904.375" x2="1223.125" y1="1208.125" y2="1208.125"/><text fill="#000000" font-family="sans-serif" font-size="13.75" lengthAdjust="spacing" textLength="112.5" x="910.625" y="1227.3987">-String designation</text><text fill="#000000" font-family="sans-serif" font-size="13.75" lengthAdjust="spacing" textLength="306.25" x="910.625" y="1244.6936">-ParameterCategoryStore parameterCategoryStore</text><text fill="#000000" font-family="sans-serif" font-size="13.75" lengthAdjust="spacing" textLength="196.25" x="910.625" y="1261.9885">-ParameterStore parameterStore</text><line style="stroke:#A80036;stroke-width:1.875;" x1="904.375" x2="1223.125" y1="1270.0098" y2="1270.0098"/><text fill="#000000" font-family="sans-serif" font-size="13.75" lengthAdjust="spacing" textLength="130" x="910.625" y="1289.2834">+getParameterStore()</text><text fill="#000000" font-family="sans-serif" font-size="13.75" lengthAdjust="spacing" textLength="185" x="910.625" y="1306.5784">+getParameterCategoryStore()</text><!--MD5=[b9009a04d919d78a73c2eeec1e385786]
class CreateParameterController--><rect codeLine="84" fill="#FEFECE" filter="url(#f1a57hkkkf4yqp)" height="163.7695" id="CreateParameterController" style="stroke:#A80036;stroke-width:1.875;" width="413.75" x="295" y="351.875"/><ellipse cx="403.4375" cy="371.875" fill="#ADD1B2" rx="13.75" ry="13.75" style="stroke:#A80036;stroke-width:1.25;"/><path d="M405.9375,367.5 Q406.1914,366.875 406.4844,366.5625 Q406.7773,366.25 407.1094,366.25 Q407.6953,366.25 408.0664,366.6016 Q408.4375,366.9531 408.4375,367.7734 L408.4375,369.7266 Q408.4375,370.5469 408.0859,370.8984 Q407.7344,371.25 407.1875,371.25 Q406.6992,371.25 406.3867,371.0352 Q406.0742,370.8203 405.9375,370.2539 Q405.8789,369.8633 405.6641,369.6484 Q405.2734,369.2383 404.5703,369.0039 Q403.8672,368.75 403.1641,368.75 Q402.2852,368.75 401.543,369.1016 Q400.8203,369.4531 400.2539,370.2344 Q399.6875,371.0156 399.6875,372.0898 L399.6875,373.2422 Q399.6875,374.5313 400.7422,375.3906 Q401.7969,376.25 403.6719,376.25 Q404.7852,376.25 405.5664,375.9961 Q406.0156,375.8594 406.5234,375.4102 Q406.8555,375.1563 407.0313,375.0781 Q407.207,375 407.4219,375 Q407.832,375 408.125,375.332 Q408.4375,375.6445 408.4375,376.0938 Q408.4375,376.5234 408.0078,377.0313 Q407.3828,377.7734 406.3867,378.1836 Q405.0781,378.75 403.4766,378.75 Q401.6016,378.75 400.0977,378.0078 Q398.8867,377.4219 398.0273,376.1523 Q397.1875,374.8828 397.1875,373.3789 L397.1875,372.0117 Q397.1875,370.4492 397.9297,369.082 Q398.6914,367.7148 400,366.9922 Q401.3281,366.25 402.8125,366.25 Q403.7109,366.25 404.4922,366.5625 Q405.2734,366.875 405.9375,367.5 Z " fill="#000000"/><text fill="#000000" font-family="sans-serif" font-size="15" lengthAdjust="spacing" textLength="186.25" x="429.0625" y="378.0127">CreateParameterController</text><line style="stroke:#A80036;stroke-width:1.875;" x1="296.25" x2="707.5" y1="391.875" y2="391.875"/><text fill="#000000" font-family="sans-serif" font-size="13.75" lengthAdjust="spacing" textLength="120" x="302.5" y="411.1487">-Company company</text><text fill="#000000" font-family="sans-serif" font-size="13.75" lengthAdjust="spacing" textLength="92.5" x="302.5" y="428.4436">-Parameter prm</text><line style="stroke:#A80036;stroke-width:1.875;" x1="296.25" x2="707.5" y1="436.4648" y2="436.4648"/><text fill="#000000" font-family="sans-serif" font-size="13.75" lengthAdjust="spacing" textLength="398.75" x="302.5" y="455.7385">+createParameter(parameterCode,shortName,description,pcCode)</text><text fill="#000000" font-family="sans-serif" font-size="13.75" lengthAdjust="spacing" textLength="162.5" x="302.5" y="473.0334">+getParameterCategories()</text><text fill="#000000" font-family="sans-serif" font-size="13.75" lengthAdjust="spacing" textLength="188.75" x="302.5" y="490.3284">+getParameterCategoriesDTO()</text><text fill="#000000" font-family="sans-serif" font-size="13.75" lengthAdjust="spacing" textLength="108.75" x="302.5" y="507.6233">+saveParameter()</text><!--MD5=[5518e6815e09c51d4db6e17774f331d2]
class CreateParameterUI--><rect codeLine="97" fill="#FEFECE" filter="url(#f1a57hkkkf4yqp)" height="40" id="CreateParameterUI" style="stroke:#A80036;stroke-width:1.875;" width="173.75" x="40" y="128.75"/><ellipse cx="58.75" cy="148.75" fill="#ADD1B2" rx="13.75" ry="13.75" style="stroke:#A80036;stroke-width:1.25;"/><path d="M61.25,144.375 Q61.5039,143.75 61.7969,143.4375 Q62.0898,143.125 62.4219,143.125 Q63.0078,143.125 63.3789,143.4766 Q63.75,143.8281 63.75,144.6484 L63.75,146.6016 Q63.75,147.4219 63.3984,147.7734 Q63.0469,148.125 62.5,148.125 Q62.0117,148.125 61.6992,147.9102 Q61.3867,147.6953 61.25,147.1289 Q61.1914,146.7383 60.9766,146.5234 Q60.5859,146.1133 59.8828,145.8789 Q59.1797,145.625 58.4766,145.625 Q57.5977,145.625 56.8555,145.9766 Q56.1328,146.3281 55.5664,147.1094 Q55,147.8906 55,148.9648 L55,150.1172 Q55,151.4063 56.0547,152.2656 Q57.1094,153.125 58.9844,153.125 Q60.0977,153.125 60.8789,152.8711 Q61.3281,152.7344 61.8359,152.2852 Q62.168,152.0313 62.3438,151.9531 Q62.5195,151.875 62.7344,151.875 Q63.1445,151.875 63.4375,152.207 Q63.75,152.5195 63.75,152.9688 Q63.75,153.3984 63.3203,153.9063 Q62.6953,154.6484 61.6992,155.0586 Q60.3906,155.625 58.7891,155.625 Q56.9141,155.625 55.4102,154.8828 Q54.1992,154.2969 53.3398,153.0273 Q52.5,151.7578 52.5,150.2539 L52.5,148.8867 Q52.5,147.3242 53.2422,145.957 Q54.0039,144.5898 55.3125,143.8672 Q56.6406,143.125 58.125,143.125 Q59.0234,143.125 59.8047,143.4375 Q60.5859,143.75 61.25,144.375 Z " fill="#000000"/><text fill="#000000" font-family="sans-serif" font-size="15" lengthAdjust="spacing" textLength="133.75" x="76.25" y="154.8877">CreateParameterUI</text><!--MD5=[9d3dd688f78c4545f26622cd23f9dd25]
link CreateParameterUI to CreateParameterController--><path codeLine="102" d="M154.3125,168.7875 C202.2,205.425 306.45,285.1875 388.1375,347.6875 " fill="none" id="CreateParameterUI-to-CreateParameterController" style="stroke:#A80036;stroke-width:1.25;stroke-dasharray:7.0,7.0;"/><polygon fill="#A80036" points="393.475,351.775,387.5858,340.9639,388.5138,347.9738,381.5039,348.9018,393.475,351.775" style="stroke:#A80036;stroke-width:1.25;"/><!--MD5=[6d585fb02c26694275539b4f1508918e]
link CreateParameterController to Company--><path codeLine="103" d="M517.25,516.125 C546.5125,662.55 627.1625,969.3375 812.5,1146.25 C836.45,1169.1125 866.4625,1186.6125 897.2875,1199.95 " fill="none" id="CreateParameterController-to-Company" style="stroke:#A80036;stroke-width:1.25;stroke-dasharray:7.0,7.0;"/><polygon fill="#A80036" points="903.05,1202.4,894.6555,1193.3947,897.2989,1199.9531,890.7405,1202.5965,903.05,1202.4" style="stroke:#A80036;stroke-width:1.25;"/><!--MD5=[d4acd0f9b6f472dc8c1d58fc6da00ca5]
link CreateParameterController to ParameterCategoryStore--><path codeLine="104" d="M709.0375,456.7625 C770.35,463.6125 836.7625,471.025 895.2875,477.5625 " fill="none" id="CreateParameterController-to-ParameterCategoryStore" style="stroke:#A80036;stroke-width:1.25;stroke-dasharray:7.0,7.0;"/><polygon fill="#A80036" points="901.65,478.275,891.0092,472.0834,895.4369,477.5966,889.9237,482.0243,901.65,478.275" style="stroke:#A80036;stroke-width:1.25;"/><!--MD5=[46706d5726812879537e05899d80bc9e]
link CreateParameterController to ParameterStore--><path codeLine="105" d="M532.575,515.8875 C568.6,602.575 638.75,734.5 748.75,792.5 C785.4625,811.8625 876.475,770.375 951.075,729.025 " fill="none" id="CreateParameterController-to-ParameterStore" style="stroke:#A80036;stroke-width:1.25;stroke-dasharray:7.0,7.0;"/><polygon fill="#A80036" points="956.875,725.8,944.6125,726.8927,951.4115,728.8353,949.4689,735.6343,956.875,725.8" style="stroke:#A80036;stroke-width:1.25;"/><!--MD5=[1890845a8958533c6f74c90e74f302d7]
link CreateParameterController to CategoriesMapper--><path codeLine="106" d="M709.0375,365.1875 C800.05,334.8875 902.3,300.8375 973.3125,277.2 " fill="none" id="CreateParameterController-to-CategoriesMapper" style="stroke:#A80036;stroke-width:1.25;stroke-dasharray:7.0,7.0;"/><polygon fill="#A80036" points="979.6625,275.0875,967.4076,273.9127,973.735,277.0693,970.5785,283.3967,979.6625,275.0875" style="stroke:#A80036;stroke-width:1.25;"/><!--MD5=[faddff114592b8b1e2cc0b3da6aa4488]
link CategoriesMapper to ParameterCategory--><path codeLine="107" d="M1135.6625,290.175 C1217.35,342.8875 1350.7125,439.8375 1430,555 C1486.3625,636.8625 1524.2375,746.7125 1544.1,814.7625 " fill="none" id="CategoriesMapper-to-ParameterCategory" style="stroke:#A80036;stroke-width:1.25;stroke-dasharray:7.0,7.0;"/><polygon fill="#A80036" points="1545.85,820.8125,1547.5335,808.6171,1544.1165,814.8077,1537.9258,811.3907,1545.85,820.8125" style="stroke:#A80036;stroke-width:1.25;"/><!--MD5=[27fe8888fcd579b8f600d3dac6e95bb7]
link CategoriesMapper to CategoriesDto--><path codeLine="108" d="M1147.9625,225.7375 C1234.875,202.9375 1371.325,167.15 1463.2875,143.025 " fill="none" id="CategoriesMapper-to-CategoriesDto" style="stroke:#A80036;stroke-width:1.25;stroke-dasharray:7.0,7.0;"/><polygon fill="#A80036" points="1469.825,141.3125,1457.6727,139.3419,1463.781,142.904,1460.219,149.0123,1469.825,141.3125" style="stroke:#A80036;stroke-width:1.25;"/><!--MD5=[1a1bd99bc525d8c25287190584ac1637]
link CreateParameterUI to CategoriesDto--><path codeLine="109" d="M214.0375,141.3375 C407.075,125.0875 889.975,86.75 1295,73.75 C1354.975,71.825 1370.7875,64.1 1430,73.75 C1441.05,75.55 1452.4375,78.1625 1463.65,81.2125 " fill="none" id="CreateParameterUI-to-CategoriesDto" style="stroke:#A80036;stroke-width:1.25;stroke-dasharray:7.0,7.0;"/><polygon fill="#A80036" points="1469.8625,82.9625,1460.3911,75.0977,1463.847,81.2667,1457.6779,84.7225,1469.8625,82.9625" style="stroke:#A80036;stroke-width:1.25;"/><!--MD5=[de45c89eea54a343ff385d4a8699b474]
link CreateParameterController to CategoriesDto--><path codeLine="110" d="M578.55,351.4875 C636.4875,294.15 721.75,221.625 812.5,185 C1032.05,96.3875 1316.4625,99.5125 1463.3125,108.825 " fill="none" id="CreateParameterController-to-CategoriesDto" style="stroke:#A80036;stroke-width:1.25;stroke-dasharray:7.0,7.0;"/><polygon fill="#A80036" points="1469.775,109.2375,1458.8608,103.5416,1463.5373,108.8454,1458.2335,113.5219,1469.775,109.2375" style="stroke:#A80036;stroke-width:1.25;"/><!--MD5=[d6274e3b73b5bc8f467c6cfbf5bf003e]
link ParameterCategoryStore to ParameterCategory--><path codeLine="111" d="M1225.7125,543.275 C1246.4375,552.325 1266.775,562.85 1285,575 C1385.5125,641.975 1474.075,753.4 1522.2375,820.7 " fill="none" id="ParameterCategoryStore-ParameterCategory" style="stroke:#A80036;stroke-width:1.25;"/><polygon fill="#000000" points="1339.564,580.7397,1333.8175,570.3326,1328.7978,575.6979,1339.564,580.7397" style="stroke:#000000;stroke-width:1.25;"/><text fill="#000000" font-family="sans-serif" font-size="16.25" lengthAdjust="spacing" textLength="48.75" x="1346.25" y="583.1189">adopts</text><!--MD5=[d53d7490e5836ca5709858d7326f212b]
link Company to ParameterCategoryStore--><path codeLine="112" d="M903.0125,1212.0875 C867.7375,1198.0125 834.425,1177.15 812.5,1146.25 C689.3625,972.65 788.375,879.95 801.25,667.5 C803.75,626.1625 786.0125,606.8375 812.5,575 C835.375,547.5 867.75,529.4625 901.6625,517.6625 " fill="none" id="Company-ParameterCategoryStore" style="stroke:#A80036;stroke-width:1.25;"/><polygon fill="#000000" points="754.9878,672.7197,751.3362,684.0332,758.6835,684.0189,754.9878,672.7197" style="stroke:#000000;stroke-width:1.25;"/><text fill="#000000" font-family="sans-serif" font-size="16.25" lengthAdjust="spacing" textLength="35" x="766.25" y="685.6189">uses</text><text fill="#000000" font-family="sans-serif" font-size="16.25" lengthAdjust="spacing" textLength="8.75" x="884.201" y="1227.7952">1</text><text fill="#000000" font-family="sans-serif" font-size="16.25" lengthAdjust="spacing" textLength="8.75" x="883.2889" y="536.3779">1</text><!--MD5=[daf3d7412afa2c7651483be0b6e971d1]
link Company to ParameterStore--><path codeLine="113" d="M902.8375,1211.85 C867.675,1197.775 834.4625,1176.9875 812.5,1146.25 C763.7,1077.9625 754.4875,838.4375 801.25,768.75 C818.8875,742.475 844.2,722.625 872.225,707.6125 " fill="none" id="Company-ParameterStore" style="stroke:#A80036;stroke-width:1.25;"/><polygon fill="#000000" points="754.6213,773.9812,751.6395,785.4894,758.9733,785.0442,754.6213,773.9812" style="stroke:#000000;stroke-width:1.25;"/><text fill="#000000" font-family="sans-serif" font-size="16.25" lengthAdjust="spacing" textLength="35" x="766.25" y="786.8689">uses</text><text fill="#000000" font-family="sans-serif" font-size="16.25" lengthAdjust="spacing" textLength="8.75" x="884.5318" y="1206.4473">1</text><text fill="#000000" font-family="sans-serif" font-size="16.25" lengthAdjust="spacing" textLength="8.75" x="853.9861" y="727.2117">1</text><!--MD5=[a0992dda039fed1bb57aff5aacace800]
link ParameterStore to Parameter--><path codeLine="114" d="M1063.75,725.8125 C1063.75,753.625 1063.75,787.425 1063.75,820.975 " fill="none" id="ParameterStore-Parameter" style="stroke:#A80036;stroke-width:1.25;"/><polygon fill="#000000" points="971.875,779.9072,975.5487,768.6009,968.2013,768.6009,971.875,779.9072" style="stroke:#000000;stroke-width:1.25;"/><text fill="#000000" font-family="sans-serif" font-size="16.25" lengthAdjust="spacing" textLength="147.5" x="983.125" y="780.3064">capable of analysing</text><text fill="#000000" font-family="sans-serif" font-size="16.25" lengthAdjust="spacing" textLength="8.75" x="1054.4121" y="752.7014">1</text><text fill="#000000" font-family="sans-serif" font-size="16.25" lengthAdjust="spacing" textLength="6.25" x="1057.2998" y="807.5222">*</text><!--MD5=[6df8849671cb880f6936e94aa30db6f9]
link Parameter to ParameterCategory--><path codeLine="115" d="M1241.4875,938.675 C1320.75,923.475 1410.65,906.25 1474.8,893.95 " fill="none" id="Parameter-ParameterCategory" style="stroke:#A80036;stroke-width:1.25;"/><polygon fill="#000000" points="1307.3882,890.2931,1295.5924,888.8137,1296.9757,896.0296,1307.3882,890.2931" style="stroke:#000000;stroke-width:1.25;"/><text fill="#000000" font-family="sans-serif" font-size="16.25" lengthAdjust="spacing" textLength="116.25" x="1312.5" y="898.1189">presented under</text><text fill="#000000" font-family="sans-serif" font-size="16.25" lengthAdjust="spacing" textLength="6.25" x="1251.3784" y="954.2631">*</text><text fill="#000000" font-family="sans-serif" font-size="16.25" lengthAdjust="spacing" textLength="8.75" x="1456.0477" y="913.7695">1</text><!--MD5=[8f4298606cda92889b7223e01b2c4c53]
@startuml
hide empty methods
hide empty attributes
left to right direction
skinparam classAttributeIconSize 0

package DTO {

class CategoriesDto {
    -String code
    -String name
    +CategoriesDto(name,code)
    +getCode()
}

}

package Mappers {

class CategoriesMapper {
    +toDTO(category)
    +toDTO(categories)
}

}

package Domain {

package Store {

class ParameterCategoryStore {
    -List<ParameterCategory> parameterCategoriesList
    +getParameterCategoriesStore()
    +getCategoryByCode(code)
}

class ParameterStore {
    -list<Parameter> prmList
    +createParameter(parameterCode,shortName,description,pc)
    +validateParameter(prm)
    +saveParameter(prm)
}

}

package Model {

class Parameter {
  -int CODE_LENGTH
  -int NAME_MAX_LENGTH
  -int DESCRIPTION_MAX_LENGTH
  -String parameterCode
  -String shortName
  -String description
  -ParameterCategory pc
  +Parameter(parameterCode, shortName, description, pc)
  +getPrmCode()
  +checkParameterCategory(pc)
  +checkParameterCodeRules(parameterCode)
  +checkShortNameRules(shortName)
  +checkDescriptionRules(description)
  +equals(parameterObject)
}

class ParameterCategory {
   -String code
   -String name
   +getCode()
}

class Company {
  -String designation
  -ParameterCategoryStore parameterCategoryStore
  -ParameterStore parameterStore
  +getParameterStore()
  +getParameterCategoryStore()
}

}

}

package Controller {

class CreateParameterController {
  -Company company
  -Parameter prm
  +createParameter(parameterCode,shortName,description,pcCode)
  +getParameterCategories()
  +getParameterCategoriesDTO()
  +saveParameter()
}

}

package UI {

class CreateParameterUI {
}

}

CreateParameterUI ..> CreateParameterController
CreateParameterController ..> Company
CreateParameterController ..> ParameterCategoryStore
CreateParameterController ..> ParameterStore
CreateParameterController ..> CategoriesMapper
CategoriesMapper ..> ParameterCategory
CategoriesMapper ..> CategoriesDto
CreateParameterUI ..> CategoriesDto
CreateParameterController ..> CategoriesDto
ParameterCategoryStore - - ParameterCategory : adopts >
Company "1" - - "1" ParameterCategoryStore : uses >
Company "1" - - "1" ParameterStore : uses >
ParameterStore "1" - - "*" Parameter : capable of analysing >
Parameter "*" - - "1" ParameterCategory : presented under >


@enduml

PlantUML version 1.2021.5(Sun Apr 25 12:20:28 BST 2021)
(GPL source distribution)
Java Runtime: OpenJDK Runtime Environment
JVM: Dynamic Code Evolution 64-Bit Server VM
Default Encoding: Cp1252
Language: pt
Country: PT
--></g></svg>