<?xml version="1.0" encoding="UTF-8" standalone="no"?><svg xmlns="http://www.w3.org/2000/svg" xmlns:xlink="http://www.w3.org/1999/xlink" contentScriptType="application/ecmascript" contentStyleType="text/css" height="690px" preserveAspectRatio="none" style="width:2818px;height:690px;" version="1.1" viewBox="0 0 2818 690" width="2818.75px" zoomAndPan="magnify"><defs><filter height="300%" id="fadg6mxhxc86u" width="300%" x="-1" y="-1"><feGaussianBlur result="blurOut" stdDeviation="2.5"/><feColorMatrix in="blurOut" result="blurOut2" type="matrix" values="0 0 0 0 0 0 0 0 0 0 0 0 0 0 0 0 0 0 .4 0"/><feOffset dx="5.0" dy="5.0" in="blurOut2" result="blurOut3"/><feBlend in="SourceGraphic" in2="blurOut3" mode="normal"/></filter></defs><g><!--MD5=[7b8bc9ee8bb84b99fb3a3f9477c19238]
cluster DTO--><polygon fill="#FFFFFF" filter="url(#fadg6mxhxc86u)" points="1545,149.375,1588.75,149.375,1597.5,178.8867,1770,178.8867,1770,343.125,1545,343.125,1545,149.375" style="stroke:#000000;stroke-width:1.875;"/><line style="stroke:#000000;stroke-width:1.875;" x1="1545" x2="1597.5" y1="178.8867" y2="178.8867"/><text fill="#000000" font-family="sans-serif" font-size="17.5" font-weight="bold" lengthAdjust="spacing" textLength="36.25" x="1550" y="170.0415">DTO</text><!--MD5=[701152d03fbf85133a1de050cfdbc7fd]
cluster Mappers--><polygon fill="#FFFFFF" filter="url(#fadg6mxhxc86u)" points="1800,171.25,1885,171.25,1893.75,200.7617,2007.5,200.7617,2007.5,321.25,1800,321.25,1800,171.25" style="stroke:#000000;stroke-width:1.875;"/><line style="stroke:#000000;stroke-width:1.875;" x1="1800" x2="1893.75" y1="200.7617" y2="200.7617"/><text fill="#000000" font-family="sans-serif" font-size="17.5" font-weight="bold" lengthAdjust="spacing" textLength="77.5" x="1805" y="191.9165">Mappers</text><!--MD5=[121a8bf1197281ab89ed693fab589f94]
cluster Domain--><polygon fill="#FFFFFF" filter="url(#fadg6mxhxc86u)" points="20,7.5,92.5,7.5,101.25,37.0117,1515,37.0117,1515,681.25,20,681.25,20,7.5" style="stroke:#000000;stroke-width:1.875;"/><line style="stroke:#000000;stroke-width:1.875;" x1="20" x2="101.25" y1="37.0117" y2="37.0117"/><text fill="#000000" font-family="sans-serif" font-size="17.5" font-weight="bold" lengthAdjust="spacing" textLength="65" x="25" y="28.1665">Domain</text><!--MD5=[7ce1723ddb6e6233854253973eae5a71]
cluster Store--><polygon fill="#FFFFFF" filter="url(#fadg6mxhxc86u)" points="693.75,149.375,748.75,149.375,757.5,178.8867,1485,178.8867,1485,343.125,693.75,343.125,693.75,149.375" style="stroke:#000000;stroke-width:1.875;"/><line style="stroke:#000000;stroke-width:1.875;" x1="693.75" x2="757.5" y1="178.8867" y2="178.8867"/><text fill="#000000" font-family="sans-serif" font-size="17.5" font-weight="bold" lengthAdjust="spacing" textLength="47.5" x="698.75" y="170.0415">Store</text><!--MD5=[15636c1ca4a123c16a2a1a8e90aca7a9]
cluster Model--><polygon fill="#FFFFFF" filter="url(#fadg6mxhxc86u)" points="50,62.5,112.5,62.5,121.25,92.0117,663.75,92.0117,663.75,651.25,50,651.25,50,62.5" style="stroke:#000000;stroke-width:1.875;"/><line style="stroke:#000000;stroke-width:1.875;" x1="50" x2="121.25" y1="92.0117" y2="92.0117"/><text fill="#000000" font-family="sans-serif" font-size="17.5" font-weight="bold" lengthAdjust="spacing" textLength="55" x="55" y="83.1665">Model</text><!--MD5=[1f2cfc53d9d308f53762fd0fcbaa4873]
cluster Controller--><polygon fill="#FFFFFF" filter="url(#fadg6mxhxc86u)" points="2037.5,131.875,2133.75,131.875,2142.5,161.3867,2492.5,161.3867,2492.5,360.625,2037.5,360.625,2037.5,131.875" style="stroke:#000000;stroke-width:1.875;"/><line style="stroke:#000000;stroke-width:1.875;" x1="2037.5" x2="2142.5" y1="161.3867" y2="161.3867"/><text fill="#000000" font-family="sans-serif" font-size="17.5" font-weight="bold" lengthAdjust="spacing" textLength="88.75" x="2042.5" y="152.5415">Controller</text><!--MD5=[9681dc6e01e10c6b4fe06895ae94f592]
cluster UI--><polygon fill="#FFFFFF" filter="url(#fadg6mxhxc86u)" points="2522.5,138.75,2547.5,138.75,2556.25,168.2617,2797.5,168.2617,2797.5,328.75,2522.5,328.75,2522.5,138.75" style="stroke:#000000;stroke-width:1.875;"/><line style="stroke:#000000;stroke-width:1.875;" x1="2522.5" x2="2556.25" y1="168.2617" y2="168.2617"/><text fill="#000000" font-family="sans-serif" font-size="17.5" font-weight="bold" lengthAdjust="spacing" textLength="17.5" x="2527.5" y="159.4165">UI</text><!--MD5=[4851e5193cf5e7abdec7b18b3bca50f8]
cluster Console--><polygon fill="#FFFFFF" filter="url(#fadg6mxhxc86u)" points="2552.5,193.75,2632.5,193.75,2641.25,223.2617,2767.5,223.2617,2767.5,298.75,2552.5,298.75,2552.5,193.75" style="stroke:#000000;stroke-width:1.875;"/><line style="stroke:#000000;stroke-width:1.875;" x1="2552.5" x2="2641.25" y1="223.2617" y2="223.2617"/><text fill="#000000" font-family="sans-serif" font-size="17.5" font-weight="bold" lengthAdjust="spacing" textLength="72.5" x="2557.5" y="214.4165">Console</text><!--MD5=[e7b7f76692bc7b6a189caa2305323cac]
class CategoriesDto--><rect codeLine="8" fill="#FEFECE" filter="url(#fadg6mxhxc86u)" height="129.1797" id="CategoriesDto" style="stroke:#A80036;stroke-width:1.875;" width="183.75" x="1565.625" y="194.375"/><ellipse cx="1604.0625" cy="214.375" fill="#ADD1B2" rx="13.75" ry="13.75" style="stroke:#A80036;stroke-width:1.25;"/><path d="M1606.5625,210 Q1606.8164,209.375 1607.1094,209.0625 Q1607.4023,208.75 1607.7344,208.75 Q1608.3203,208.75 1608.6914,209.1016 Q1609.0625,209.4531 1609.0625,210.2734 L1609.0625,212.2266 Q1609.0625,213.0469 1608.7109,213.3984 Q1608.3594,213.75 1607.8125,213.75 Q1607.3242,213.75 1607.0117,213.5352 Q1606.6992,213.3203 1606.5625,212.7539 Q1606.5039,212.3633 1606.2891,212.1484 Q1605.8984,211.7383 1605.1953,211.5039 Q1604.4922,211.25 1603.7891,211.25 Q1602.9102,211.25 1602.168,211.6016 Q1601.4453,211.9531 1600.8789,212.7344 Q1600.3125,213.5156 1600.3125,214.5898 L1600.3125,215.7422 Q1600.3125,217.0313 1601.3672,217.8906 Q1602.4219,218.75 1604.2969,218.75 Q1605.4102,218.75 1606.1914,218.4961 Q1606.6406,218.3594 1607.1484,217.9102 Q1607.4805,217.6563 1607.6563,217.5781 Q1607.832,217.5 1608.0469,217.5 Q1608.457,217.5 1608.75,217.832 Q1609.0625,218.1445 1609.0625,218.5938 Q1609.0625,219.0234 1608.6328,219.5313 Q1608.0078,220.2734 1607.0117,220.6836 Q1605.7031,221.25 1604.1016,221.25 Q1602.2266,221.25 1600.7227,220.5078 Q1599.5117,219.9219 1598.6523,218.6523 Q1597.8125,217.3828 1597.8125,215.8789 L1597.8125,214.5117 Q1597.8125,212.9492 1598.5547,211.582 Q1599.3164,210.2148 1600.625,209.4922 Q1601.9531,208.75 1603.4375,208.75 Q1604.3359,208.75 1605.1172,209.0625 Q1605.8984,209.375 1606.5625,210 Z " fill="#000000"/><text fill="#000000" font-family="sans-serif" font-size="15" lengthAdjust="spacing" textLength="100" x="1625.9375" y="220.5127">CategoriesDto</text><line style="stroke:#A80036;stroke-width:1.875;" x1="1566.875" x2="1748.125" y1="234.375" y2="234.375"/><text fill="#000000" font-family="sans-serif" font-size="13.75" lengthAdjust="spacing" textLength="73.75" x="1573.125" y="253.6487">-String code</text><text fill="#000000" font-family="sans-serif" font-size="13.75" lengthAdjust="spacing" textLength="76.25" x="1573.125" y="270.9436">-String name</text><line style="stroke:#A80036;stroke-width:1.875;" x1="1566.875" x2="1748.125" y1="278.9648" y2="278.9648"/><text fill="#000000" font-family="sans-serif" font-size="13.75" lengthAdjust="spacing" textLength="168.75" x="1573.125" y="298.2385">+CategoriesDto(name,code)</text><text fill="#000000" font-family="sans-serif" font-size="13.75" lengthAdjust="spacing" textLength="67.5" x="1573.125" y="315.5334">+getCode()</text><!--MD5=[d63babda4aaccf35fa117b37a096c517]
class CategoriesMapper--><rect codeLine="19" fill="#FEFECE" filter="url(#fadg6mxhxc86u)" height="84.5898" id="CategoriesMapper" style="stroke:#A80036;stroke-width:1.875;" width="167.5" x="1820" y="216.25"/><ellipse cx="1838.75" cy="236.25" fill="#ADD1B2" rx="13.75" ry="13.75" style="stroke:#A80036;stroke-width:1.25;"/><path d="M1841.25,231.875 Q1841.5039,231.25 1841.7969,230.9375 Q1842.0898,230.625 1842.4219,230.625 Q1843.0078,230.625 1843.3789,230.9766 Q1843.75,231.3281 1843.75,232.1484 L1843.75,234.1016 Q1843.75,234.9219 1843.3984,235.2734 Q1843.0469,235.625 1842.5,235.625 Q1842.0117,235.625 1841.6992,235.4102 Q1841.3867,235.1953 1841.25,234.6289 Q1841.1914,234.2383 1840.9766,234.0234 Q1840.5859,233.6133 1839.8828,233.3789 Q1839.1797,233.125 1838.4766,233.125 Q1837.5977,233.125 1836.8555,233.4766 Q1836.1328,233.8281 1835.5664,234.6094 Q1835,235.3906 1835,236.4648 L1835,237.6172 Q1835,238.9063 1836.0547,239.7656 Q1837.1094,240.625 1838.9844,240.625 Q1840.0977,240.625 1840.8789,240.3711 Q1841.3281,240.2344 1841.8359,239.7852 Q1842.168,239.5313 1842.3438,239.4531 Q1842.5195,239.375 1842.7344,239.375 Q1843.1445,239.375 1843.4375,239.707 Q1843.75,240.0195 1843.75,240.4688 Q1843.75,240.8984 1843.3203,241.4063 Q1842.6953,242.1484 1841.6992,242.5586 Q1840.3906,243.125 1838.7891,243.125 Q1836.9141,243.125 1835.4102,242.3828 Q1834.1992,241.7969 1833.3398,240.5273 Q1832.5,239.2578 1832.5,237.7539 L1832.5,236.3867 Q1832.5,234.8242 1833.2422,233.457 Q1834.0039,232.0898 1835.3125,231.3672 Q1836.6406,230.625 1838.125,230.625 Q1839.0234,230.625 1839.8047,230.9375 Q1840.5859,231.25 1841.25,231.875 Z " fill="#000000"/><text fill="#000000" font-family="sans-serif" font-size="15" lengthAdjust="spacing" textLength="127.5" x="1856.25" y="242.3877">CategoriesMapper</text><line style="stroke:#A80036;stroke-width:1.875;" x1="1821.25" x2="1986.25" y1="256.25" y2="256.25"/><text fill="#000000" font-family="sans-serif" font-size="13.75" lengthAdjust="spacing" textLength="108.75" x="1827.5" y="275.5237">+toDTO(category)</text><text fill="#000000" font-family="sans-serif" font-size="13.75" lengthAdjust="spacing" textLength="118.75" x="1827.5" y="292.8186">+toDTO(categories)</text><!--MD5=[d802db621b5b215a6f0466f93cefcb42]
class ParameterCategoryStore--><rect codeLine="30" fill="#FEFECE" filter="url(#fadg6mxhxc86u)" height="111.8848" id="ParameterCategoryStore" style="stroke:#A80036;stroke-width:1.875;" width="323.75" x="1140.625" y="202.5"/><ellipse cx="1212.1875" cy="222.5" fill="#ADD1B2" rx="13.75" ry="13.75" style="stroke:#A80036;stroke-width:1.25;"/><path d="M1214.6875,218.125 Q1214.9414,217.5 1215.2344,217.1875 Q1215.5273,216.875 1215.8594,216.875 Q1216.4453,216.875 1216.8164,217.2266 Q1217.1875,217.5781 1217.1875,218.3984 L1217.1875,220.3516 Q1217.1875,221.1719 1216.8359,221.5234 Q1216.4844,221.875 1215.9375,221.875 Q1215.4492,221.875 1215.1367,221.6602 Q1214.8242,221.4453 1214.6875,220.8789 Q1214.6289,220.4883 1214.4141,220.2734 Q1214.0234,219.8633 1213.3203,219.6289 Q1212.6172,219.375 1211.9141,219.375 Q1211.0352,219.375 1210.293,219.7266 Q1209.5703,220.0781 1209.0039,220.8594 Q1208.4375,221.6406 1208.4375,222.7148 L1208.4375,223.8672 Q1208.4375,225.1563 1209.4922,226.0156 Q1210.5469,226.875 1212.4219,226.875 Q1213.5352,226.875 1214.3164,226.6211 Q1214.7656,226.4844 1215.2734,226.0352 Q1215.6055,225.7813 1215.7813,225.7031 Q1215.957,225.625 1216.1719,225.625 Q1216.582,225.625 1216.875,225.957 Q1217.1875,226.2695 1217.1875,226.7188 Q1217.1875,227.1484 1216.7578,227.6563 Q1216.1328,228.3984 1215.1367,228.8086 Q1213.8281,229.375 1212.2266,229.375 Q1210.3516,229.375 1208.8477,228.6328 Q1207.6367,228.0469 1206.7773,226.7773 Q1205.9375,225.5078 1205.9375,224.0039 L1205.9375,222.6367 Q1205.9375,221.0742 1206.6797,219.707 Q1207.4414,218.3398 1208.75,217.6172 Q1210.0781,216.875 1211.5625,216.875 Q1212.4609,216.875 1213.2422,217.1875 Q1214.0234,217.5 1214.6875,218.125 Z " fill="#000000"/><text fill="#000000" font-family="sans-serif" font-size="15" lengthAdjust="spacing" textLength="170" x="1237.8125" y="228.6377">ParameterCategoryStore</text><line style="stroke:#A80036;stroke-width:1.875;" x1="1141.875" x2="1463.125" y1="242.5" y2="242.5"/><text fill="#000000" font-family="sans-serif" font-size="13.75" lengthAdjust="spacing" textLength="308.75" x="1148.125" y="261.7737">-List&lt;ParameterCategory&gt; parameterCategoriesList</text><line style="stroke:#A80036;stroke-width:1.875;" x1="1141.875" x2="1463.125" y1="269.7949" y2="269.7949"/><text fill="#000000" font-family="sans-serif" font-size="13.75" lengthAdjust="spacing" textLength="195" x="1148.125" y="289.0686">+getParameterCategoriesStore()</text><text fill="#000000" font-family="sans-serif" font-size="13.75" lengthAdjust="spacing" textLength="168.75" x="1148.125" y="306.3635">+getCategoryByCode(code)</text><!--MD5=[be7802b157a16874d39c59ca0e2b25be]
class ParameterStore--><rect codeLine="36" fill="#FEFECE" filter="url(#fadg6mxhxc86u)" height="129.1797" id="ParameterStore" style="stroke:#A80036;stroke-width:1.875;" width="382.5" x="713.75" y="194.375"/><ellipse cx="845.3125" cy="214.375" fill="#ADD1B2" rx="13.75" ry="13.75" style="stroke:#A80036;stroke-width:1.25;"/><path d="M847.8125,210 Q848.0664,209.375 848.3594,209.0625 Q848.6523,208.75 848.9844,208.75 Q849.5703,208.75 849.9414,209.1016 Q850.3125,209.4531 850.3125,210.2734 L850.3125,212.2266 Q850.3125,213.0469 849.9609,213.3984 Q849.6094,213.75 849.0625,213.75 Q848.5742,213.75 848.2617,213.5352 Q847.9492,213.3203 847.8125,212.7539 Q847.7539,212.3633 847.5391,212.1484 Q847.1484,211.7383 846.4453,211.5039 Q845.7422,211.25 845.0391,211.25 Q844.1602,211.25 843.418,211.6016 Q842.6953,211.9531 842.1289,212.7344 Q841.5625,213.5156 841.5625,214.5898 L841.5625,215.7422 Q841.5625,217.0313 842.6172,217.8906 Q843.6719,218.75 845.5469,218.75 Q846.6602,218.75 847.4414,218.4961 Q847.8906,218.3594 848.3984,217.9102 Q848.7305,217.6563 848.9063,217.5781 Q849.082,217.5 849.2969,217.5 Q849.707,217.5 850,217.832 Q850.3125,218.1445 850.3125,218.5938 Q850.3125,219.0234 849.8828,219.5313 Q849.2578,220.2734 848.2617,220.6836 Q846.9531,221.25 845.3516,221.25 Q843.4766,221.25 841.9727,220.5078 Q840.7617,219.9219 839.9023,218.6523 Q839.0625,217.3828 839.0625,215.8789 L839.0625,214.5117 Q839.0625,212.9492 839.8047,211.582 Q840.5664,210.2148 841.875,209.4922 Q843.2031,208.75 844.6875,208.75 Q845.5859,208.75 846.3672,209.0625 Q847.1484,209.375 847.8125,210 Z " fill="#000000"/><text fill="#000000" font-family="sans-serif" font-size="15" lengthAdjust="spacing" textLength="108.75" x="870.9375" y="220.5127">ParameterStore</text><line style="stroke:#A80036;stroke-width:1.875;" x1="715" x2="1095" y1="234.375" y2="234.375"/><text fill="#000000" font-family="sans-serif" font-size="13.75" lengthAdjust="spacing" textLength="145" x="721.25" y="253.6487">-list&lt;Parameter&gt; prmList</text><line style="stroke:#A80036;stroke-width:1.875;" x1="715" x2="1095" y1="261.6699" y2="261.6699"/><text fill="#000000" font-family="sans-serif" font-size="13.75" lengthAdjust="spacing" textLength="367.5" x="721.25" y="280.9436">+createParameter(parameterCode,shortName,description,pc)</text><text fill="#000000" font-family="sans-serif" font-size="13.75" lengthAdjust="spacing" textLength="147.5" x="721.25" y="298.2385">+validateParameter(prm)</text><text fill="#000000" font-family="sans-serif" font-size="13.75" lengthAdjust="spacing" textLength="131.25" x="721.25" y="315.5334">+saveParameter(prm)</text><!--MD5=[1f6362a5c8f21d8d6a0fce68f3a92a4e]
class Parameter--><rect codeLine="47" fill="#FEFECE" filter="url(#fadg6mxhxc86u)" height="302.1289" id="Parameter" style="stroke:#A80036;stroke-width:1.875;" width="355" x="70" y="107.5"/><ellipse cx="205.9375" cy="127.5" fill="#ADD1B2" rx="13.75" ry="13.75" style="stroke:#A80036;stroke-width:1.25;"/><path d="M208.4375,123.125 Q208.6914,122.5 208.9844,122.1875 Q209.2773,121.875 209.6094,121.875 Q210.1953,121.875 210.5664,122.2266 Q210.9375,122.5781 210.9375,123.3984 L210.9375,125.3516 Q210.9375,126.1719 210.5859,126.5234 Q210.2344,126.875 209.6875,126.875 Q209.1992,126.875 208.8867,126.6602 Q208.5742,126.4453 208.4375,125.8789 Q208.3789,125.4883 208.1641,125.2734 Q207.7734,124.8633 207.0703,124.6289 Q206.3672,124.375 205.6641,124.375 Q204.7852,124.375 204.043,124.7266 Q203.3203,125.0781 202.7539,125.8594 Q202.1875,126.6406 202.1875,127.7148 L202.1875,128.8672 Q202.1875,130.1563 203.2422,131.0156 Q204.2969,131.875 206.1719,131.875 Q207.2852,131.875 208.0664,131.6211 Q208.5156,131.4844 209.0234,131.0352 Q209.3555,130.7813 209.5313,130.7031 Q209.707,130.625 209.9219,130.625 Q210.332,130.625 210.625,130.957 Q210.9375,131.2695 210.9375,131.7188 Q210.9375,132.1484 210.5078,132.6563 Q209.8828,133.3984 208.8867,133.8086 Q207.5781,134.375 205.9766,134.375 Q204.1016,134.375 202.5977,133.6328 Q201.3867,133.0469 200.5273,131.7773 Q199.6875,130.5078 199.6875,129.0039 L199.6875,127.6367 Q199.6875,126.0742 200.4297,124.707 Q201.1914,123.3398 202.5,122.6172 Q203.8281,121.875 205.3125,121.875 Q206.2109,121.875 206.9922,122.1875 Q207.7734,122.5 208.4375,123.125 Z " fill="#000000"/><text fill="#000000" font-family="sans-serif" font-size="15" lengthAdjust="spacing" textLength="72.5" x="231.5625" y="133.6377">Parameter</text><line style="stroke:#A80036;stroke-width:1.875;" x1="71.25" x2="423.75" y1="147.5" y2="147.5"/><text fill="#000000" font-family="sans-serif" font-size="13.75" lengthAdjust="spacing" textLength="115" x="77.5" y="166.7737">-int CODE_LENGTH</text><text fill="#000000" font-family="sans-serif" font-size="13.75" lengthAdjust="spacing" textLength="152.5" x="77.5" y="184.0686">-int NAME_MAX_LENGTH</text><text fill="#000000" font-family="sans-serif" font-size="13.75" lengthAdjust="spacing" textLength="197.5" x="77.5" y="201.3635">-int DESCRIPTION_MAX_LENGTH</text><text fill="#000000" font-family="sans-serif" font-size="13.75" lengthAdjust="spacing" textLength="136.25" x="77.5" y="218.6584">-String parameterCode</text><text fill="#000000" font-family="sans-serif" font-size="13.75" lengthAdjust="spacing" textLength="108.75" x="77.5" y="235.9534">-String shortName</text><text fill="#000000" font-family="sans-serif" font-size="13.75" lengthAdjust="spacing" textLength="110" x="77.5" y="253.2483">-String description</text><text fill="#000000" font-family="sans-serif" font-size="13.75" lengthAdjust="spacing" textLength="140" x="77.5" y="270.5432">-ParameterCategory pc</text><line style="stroke:#A80036;stroke-width:1.875;" x1="71.25" x2="423.75" y1="278.5645" y2="278.5645"/><text fill="#000000" font-family="sans-serif" font-size="13.75" lengthAdjust="spacing" textLength="340" x="77.5" y="297.8381">+Parameter(parameterCode, shortName, description, pc)</text><text fill="#000000" font-family="sans-serif" font-size="13.75" lengthAdjust="spacing" textLength="90" x="77.5" y="315.1331">+getPrmCode()</text><text fill="#000000" font-family="sans-serif" font-size="13.75" lengthAdjust="spacing" textLength="185" x="77.5" y="332.428">+checkParameterCategory(pc)</text><text fill="#000000" font-family="sans-serif" font-size="13.75" lengthAdjust="spacing" textLength="272.5" x="77.5" y="349.7229">+checkParameterCodeRules(parameterCode)</text><text fill="#000000" font-family="sans-serif" font-size="13.75" lengthAdjust="spacing" textLength="218.75" x="77.5" y="367.0178">+checkShortNameRules(shortName)</text><text fill="#000000" font-family="sans-serif" font-size="13.75" lengthAdjust="spacing" textLength="221.25" x="77.5" y="384.3127">+checkDescriptionRules(description)</text><text fill="#000000" font-family="sans-serif" font-size="13.75" lengthAdjust="spacing" textLength="157.5" x="77.5" y="401.6077">+equals(parameterObject)</text><!--MD5=[36afb6bbd95a8ac778c4537c55a683d5]
class ParameterCategory--><rect codeLine="64" fill="#FEFECE" filter="url(#fadg6mxhxc86u)" height="111.8848" id="ParameterCategory" style="stroke:#A80036;stroke-width:1.875;" width="173.75" x="469.375" y="202.5"/><ellipse cx="488.125" cy="222.5" fill="#ADD1B2" rx="13.75" ry="13.75" style="stroke:#A80036;stroke-width:1.25;"/><path d="M490.625,218.125 Q490.8789,217.5 491.1719,217.1875 Q491.4648,216.875 491.7969,216.875 Q492.3828,216.875 492.7539,217.2266 Q493.125,217.5781 493.125,218.3984 L493.125,220.3516 Q493.125,221.1719 492.7734,221.5234 Q492.4219,221.875 491.875,221.875 Q491.3867,221.875 491.0742,221.6602 Q490.7617,221.4453 490.625,220.8789 Q490.5664,220.4883 490.3516,220.2734 Q489.9609,219.8633 489.2578,219.6289 Q488.5547,219.375 487.8516,219.375 Q486.9727,219.375 486.2305,219.7266 Q485.5078,220.0781 484.9414,220.8594 Q484.375,221.6406 484.375,222.7148 L484.375,223.8672 Q484.375,225.1563 485.4297,226.0156 Q486.4844,226.875 488.3594,226.875 Q489.4727,226.875 490.2539,226.6211 Q490.7031,226.4844 491.2109,226.0352 Q491.543,225.7813 491.7188,225.7031 Q491.8945,225.625 492.1094,225.625 Q492.5195,225.625 492.8125,225.957 Q493.125,226.2695 493.125,226.7188 Q493.125,227.1484 492.6953,227.6563 Q492.0703,228.3984 491.0742,228.8086 Q489.7656,229.375 488.1641,229.375 Q486.2891,229.375 484.7852,228.6328 Q483.5742,228.0469 482.7148,226.7773 Q481.875,225.5078 481.875,224.0039 L481.875,222.6367 Q481.875,221.0742 482.6172,219.707 Q483.3789,218.3398 484.6875,217.6172 Q486.0156,216.875 487.5,216.875 Q488.3984,216.875 489.1797,217.1875 Q489.9609,217.5 490.625,218.125 Z " fill="#000000"/><text fill="#000000" font-family="sans-serif" font-size="15" lengthAdjust="spacing" textLength="133.75" x="505.625" y="228.6377">ParameterCategory</text><line style="stroke:#A80036;stroke-width:1.875;" x1="470.625" x2="641.875" y1="242.5" y2="242.5"/><text fill="#000000" font-family="sans-serif" font-size="13.75" lengthAdjust="spacing" textLength="73.75" x="476.875" y="261.7737">-String code</text><text fill="#000000" font-family="sans-serif" font-size="13.75" lengthAdjust="spacing" textLength="76.25" x="476.875" y="279.0686">-String name</text><line style="stroke:#A80036;stroke-width:1.875;" x1="470.625" x2="641.875" y1="287.0898" y2="287.0898"/><text fill="#000000" font-family="sans-serif" font-size="13.75" lengthAdjust="spacing" textLength="67.5" x="476.875" y="306.3635">+getCode()</text><!--MD5=[02e4b9b7573f1156f41e60aa5b4e25a4]
class Company--><rect codeLine="70" fill="#FEFECE" filter="url(#fadg6mxhxc86u)" height="146.4746" id="Company" style="stroke:#A80036;stroke-width:1.875;" width="321.25" x="86.875" y="485"/><ellipse cx="209.0625" cy="505" fill="#ADD1B2" rx="13.75" ry="13.75" style="stroke:#A80036;stroke-width:1.25;"/><path d="M211.5625,500.625 Q211.8164,500 212.1094,499.6875 Q212.4023,499.375 212.7344,499.375 Q213.3203,499.375 213.6914,499.7266 Q214.0625,500.0781 214.0625,500.8984 L214.0625,502.8516 Q214.0625,503.6719 213.7109,504.0234 Q213.3594,504.375 212.8125,504.375 Q212.3242,504.375 212.0117,504.1602 Q211.6992,503.9453 211.5625,503.3789 Q211.5039,502.9883 211.2891,502.7734 Q210.8984,502.3633 210.1953,502.1289 Q209.4922,501.875 208.7891,501.875 Q207.9102,501.875 207.168,502.2266 Q206.4453,502.5781 205.8789,503.3594 Q205.3125,504.1406 205.3125,505.2148 L205.3125,506.3672 Q205.3125,507.6563 206.3672,508.5156 Q207.4219,509.375 209.2969,509.375 Q210.4102,509.375 211.1914,509.1211 Q211.6406,508.9844 212.1484,508.5352 Q212.4805,508.2813 212.6563,508.2031 Q212.832,508.125 213.0469,508.125 Q213.457,508.125 213.75,508.457 Q214.0625,508.7695 214.0625,509.2188 Q214.0625,509.6484 213.6328,510.1563 Q213.0078,510.8984 212.0117,511.3086 Q210.7031,511.875 209.1016,511.875 Q207.2266,511.875 205.7227,511.1328 Q204.5117,510.5469 203.6523,509.2773 Q202.8125,508.0078 202.8125,506.5039 L202.8125,505.1367 Q202.8125,503.5742 203.5547,502.207 Q204.3164,500.8398 205.625,500.1172 Q206.9531,499.375 208.4375,499.375 Q209.3359,499.375 210.1172,499.6875 Q210.8984,500 211.5625,500.625 Z " fill="#000000"/><text fill="#000000" font-family="sans-serif" font-size="15" lengthAdjust="spacing" textLength="66.25" x="234.6875" y="511.1377">Company</text><line style="stroke:#A80036;stroke-width:1.875;" x1="88.125" x2="406.875" y1="525" y2="525"/><text fill="#000000" font-family="sans-serif" font-size="13.75" lengthAdjust="spacing" textLength="112.5" x="94.375" y="544.2737">-String designation</text><text fill="#000000" font-family="sans-serif" font-size="13.75" lengthAdjust="spacing" textLength="306.25" x="94.375" y="561.5686">-ParameterCategoryStore parameterCategoryStore</text><text fill="#000000" font-family="sans-serif" font-size="13.75" lengthAdjust="spacing" textLength="196.25" x="94.375" y="578.8635">-ParameterStore parameterStore</text><line style="stroke:#A80036;stroke-width:1.875;" x1="88.125" x2="406.875" y1="586.8848" y2="586.8848"/><text fill="#000000" font-family="sans-serif" font-size="13.75" lengthAdjust="spacing" textLength="130" x="94.375" y="606.1584">+getParameterStore()</text><text fill="#000000" font-family="sans-serif" font-size="13.75" lengthAdjust="spacing" textLength="185" x="94.375" y="623.4534">+getParameterCategoryStore()</text><!--MD5=[b9009a04d919d78a73c2eeec1e385786]
class CreateParameterController--><rect codeLine="84" fill="#FEFECE" filter="url(#fadg6mxhxc86u)" height="163.7695" id="CreateParameterController" style="stroke:#A80036;stroke-width:1.875;" width="413.75" x="2058.125" y="176.875"/><ellipse cx="2166.5625" cy="196.875" fill="#ADD1B2" rx="13.75" ry="13.75" style="stroke:#A80036;stroke-width:1.25;"/><path d="M2169.0625,192.5 Q2169.3164,191.875 2169.6094,191.5625 Q2169.9023,191.25 2170.2344,191.25 Q2170.8203,191.25 2171.1914,191.6016 Q2171.5625,191.9531 2171.5625,192.7734 L2171.5625,194.7266 Q2171.5625,195.5469 2171.2109,195.8984 Q2170.8594,196.25 2170.3125,196.25 Q2169.8242,196.25 2169.5117,196.0352 Q2169.1992,195.8203 2169.0625,195.2539 Q2169.0039,194.8633 2168.7891,194.6484 Q2168.3984,194.2383 2167.6953,194.0039 Q2166.9922,193.75 2166.2891,193.75 Q2165.4102,193.75 2164.668,194.1016 Q2163.9453,194.4531 2163.3789,195.2344 Q2162.8125,196.0156 2162.8125,197.0898 L2162.8125,198.2422 Q2162.8125,199.5313 2163.8672,200.3906 Q2164.9219,201.25 2166.7969,201.25 Q2167.9102,201.25 2168.6914,200.9961 Q2169.1406,200.8594 2169.6484,200.4102 Q2169.9805,200.1563 2170.1563,200.0781 Q2170.332,200 2170.5469,200 Q2170.957,200 2171.25,200.332 Q2171.5625,200.6445 2171.5625,201.0938 Q2171.5625,201.5234 2171.1328,202.0313 Q2170.5078,202.7734 2169.5117,203.1836 Q2168.2031,203.75 2166.6016,203.75 Q2164.7266,203.75 2163.2227,203.0078 Q2162.0117,202.4219 2161.1523,201.1523 Q2160.3125,199.8828 2160.3125,198.3789 L2160.3125,197.0117 Q2160.3125,195.4492 2161.0547,194.082 Q2161.8164,192.7148 2163.125,191.9922 Q2164.4531,191.25 2165.9375,191.25 Q2166.8359,191.25 2167.6172,191.5625 Q2168.3984,191.875 2169.0625,192.5 Z " fill="#000000"/><text fill="#000000" font-family="sans-serif" font-size="15" lengthAdjust="spacing" textLength="186.25" x="2192.1875" y="203.0127">CreateParameterController</text><line style="stroke:#A80036;stroke-width:1.875;" x1="2059.375" x2="2470.625" y1="216.875" y2="216.875"/><text fill="#000000" font-family="sans-serif" font-size="13.75" lengthAdjust="spacing" textLength="120" x="2065.625" y="236.1487">-Company company</text><text fill="#000000" font-family="sans-serif" font-size="13.75" lengthAdjust="spacing" textLength="92.5" x="2065.625" y="253.4436">-Parameter prm</text><line style="stroke:#A80036;stroke-width:1.875;" x1="2059.375" x2="2470.625" y1="261.4648" y2="261.4648"/><text fill="#000000" font-family="sans-serif" font-size="13.75" lengthAdjust="spacing" textLength="398.75" x="2065.625" y="280.7385">+createParameter(parameterCode,shortName,description,pcCode)</text><text fill="#000000" font-family="sans-serif" font-size="13.75" lengthAdjust="spacing" textLength="162.5" x="2065.625" y="298.0334">+getParameterCategories()</text><text fill="#000000" font-family="sans-serif" font-size="13.75" lengthAdjust="spacing" textLength="188.75" x="2065.625" y="315.3284">+getParameterCategoriesDTO()</text><text fill="#000000" font-family="sans-serif" font-size="13.75" lengthAdjust="spacing" textLength="108.75" x="2065.625" y="332.6233">+saveParameter()</text><!--MD5=[5518e6815e09c51d4db6e17774f331d2]
class CreateParameterUI--><rect codeLine="99" fill="#FEFECE" filter="url(#fadg6mxhxc86u)" height="40" id="CreateParameterUI" style="stroke:#A80036;stroke-width:1.875;" width="173.75" x="2573.125" y="238.75"/><ellipse cx="2591.875" cy="258.75" fill="#ADD1B2" rx="13.75" ry="13.75" style="stroke:#A80036;stroke-width:1.25;"/><path d="M2594.375,254.375 Q2594.6289,253.75 2594.9219,253.4375 Q2595.2148,253.125 2595.5469,253.125 Q2596.1328,253.125 2596.5039,253.4766 Q2596.875,253.8281 2596.875,254.6484 L2596.875,256.6016 Q2596.875,257.4219 2596.5234,257.7734 Q2596.1719,258.125 2595.625,258.125 Q2595.1367,258.125 2594.8242,257.9102 Q2594.5117,257.6953 2594.375,257.1289 Q2594.3164,256.7383 2594.1016,256.5234 Q2593.7109,256.1133 2593.0078,255.8789 Q2592.3047,255.625 2591.6016,255.625 Q2590.7227,255.625 2589.9805,255.9766 Q2589.2578,256.3281 2588.6914,257.1094 Q2588.125,257.8906 2588.125,258.9648 L2588.125,260.1172 Q2588.125,261.4063 2589.1797,262.2656 Q2590.2344,263.125 2592.1094,263.125 Q2593.2227,263.125 2594.0039,262.8711 Q2594.4531,262.7344 2594.9609,262.2852 Q2595.293,262.0313 2595.4688,261.9531 Q2595.6445,261.875 2595.8594,261.875 Q2596.2695,261.875 2596.5625,262.207 Q2596.875,262.5195 2596.875,262.9688 Q2596.875,263.3984 2596.4453,263.9063 Q2595.8203,264.6484 2594.8242,265.0586 Q2593.5156,265.625 2591.9141,265.625 Q2590.0391,265.625 2588.5352,264.8828 Q2587.3242,264.2969 2586.4648,263.0273 Q2585.625,261.7578 2585.625,260.2539 L2585.625,258.8867 Q2585.625,257.3242 2586.3672,255.957 Q2587.1289,254.5898 2588.4375,253.8672 Q2589.7656,253.125 2591.25,253.125 Q2592.1484,253.125 2592.9297,253.4375 Q2593.7109,253.75 2594.375,254.375 Z " fill="#000000"/><text fill="#000000" font-family="sans-serif" font-size="15" lengthAdjust="spacing" textLength="133.75" x="2609.375" y="264.8877">CreateParameterUI</text><!--MD5=[6df8849671cb880f6936e94aa30db6f9]
link Parameter to ParameterCategory--><!--MD5=[bef7460411a029a61cc51a0d251ac694]
link Parameter to Company--><!--MD5=[b02f5576d225ce11422f98d1c15fa4e4]
@startuml
hide empty methods
hide empty attributes
'left to right direction
skinparam classAttributeIconSize 0

package DTO {

class CategoriesDto {
    -String code
    -String name
    +CategoriesDto(name,code)
    +getCode()
}

}

package Mappers {

class CategoriesMapper {
    +toDTO(category)
    +toDTO(categories)
}

}

package Domain {

package Store {

class ParameterCategoryStore {
    -List<ParameterCategory> parameterCategoriesList
    +getParameterCategoriesStore()
    +getCategoryByCode(code)
}

class ParameterStore {
    -list<Parameter> prmList
    +createParameter(parameterCode,shortName,description,pc)
    +validateParameter(prm)
    +saveParameter(prm)
}

}

package Model {

class Parameter {
  -int CODE_LENGTH
  -int NAME_MAX_LENGTH
  -int DESCRIPTION_MAX_LENGTH
  -String parameterCode
  -String shortName
  -String description
  -ParameterCategory pc
  +Parameter(parameterCode, shortName, description, pc)
  +getPrmCode()
  +checkParameterCategory(pc)
  +checkParameterCodeRules(parameterCode)
  +checkShortNameRules(shortName)
  +checkDescriptionRules(description)
  +equals(parameterObject)
}

class ParameterCategory {
   -String code
   -String name
   +getCode()
}

class Company {
  -String designation
  -ParameterCategoryStore parameterCategoryStore
  -ParameterStore parameterStore
  +getParameterStore()
  +getParameterCategoryStore()
}

}

}

package Controller {

class CreateParameterController {
  -Company company
  -Parameter prm
  +createParameter(parameterCode,shortName,description,pcCode)
  +getParameterCategories()
  +getParameterCategoriesDTO()
  +saveParameter()
}

}

package UI {

package Console {

class CreateParameterUI {
}

}

}

@enduml

@startuml
hide empty methods
hide empty attributes
skinparam classAttributeIconSize 0

package DTO {

class CategoriesDto {
    -String code
    -String name
    +CategoriesDto(name,code)
    +getCode()
}

}

package Mappers {

class CategoriesMapper {
    +toDTO(category)
    +toDTO(categories)
}

}

package Domain {

package Store {

class ParameterCategoryStore {
    -List<ParameterCategory> parameterCategoriesList
    +getParameterCategoriesStore()
    +getCategoryByCode(code)
}

class ParameterStore {
    -list<Parameter> prmList
    +createParameter(parameterCode,shortName,description,pc)
    +validateParameter(prm)
    +saveParameter(prm)
}

}

package Model {

class Parameter {
  -int CODE_LENGTH
  -int NAME_MAX_LENGTH
  -int DESCRIPTION_MAX_LENGTH
  -String parameterCode
  -String shortName
  -String description
  -ParameterCategory pc
  +Parameter(parameterCode, shortName, description, pc)
  +getPrmCode()
  +checkParameterCategory(pc)
  +checkParameterCodeRules(parameterCode)
  +checkShortNameRules(shortName)
  +checkDescriptionRules(description)
  +equals(parameterObject)
}

class ParameterCategory {
   -String code
   -String name
   +getCode()
}

class Company {
  -String designation
  -ParameterCategoryStore parameterCategoryStore
  -ParameterStore parameterStore
  +getParameterStore()
  +getParameterCategoryStore()
}

}

}

package Controller {

class CreateParameterController {
  -Company company
  -Parameter prm
  +createParameter(parameterCode,shortName,description,pcCode)
  +getParameterCategories()
  +getParameterCategoriesDTO()
  +saveParameter()
}

}

package UI {

package Console {

class CreateParameterUI {
}

}

}

@enduml

PlantUML version 1.2021.5(Sun Apr 25 12:20:28 BST 2021)
(GPL source distribution)
Java Runtime: OpenJDK Runtime Environment
JVM: Dynamic Code Evolution 64-Bit Server VM
Default Encoding: Cp1252
Language: pt
Country: PT
--></g></svg>