<?xml version="1.0" encoding="UTF-8" standalone="no"?><svg xmlns="http://www.w3.org/2000/svg" xmlns:xlink="http://www.w3.org/1999/xlink" contentScriptType="application/ecmascript" contentStyleType="text/css" height="830px" preserveAspectRatio="none" style="width:3462px;height:830px;background:#FFFFFF;" version="1.1" viewBox="0 0 3462 830" width="3462.5px" zoomAndPan="magnify"><defs><filter height="300%" id="f1kvmkztzr2sjk" width="300%" x="-1" y="-1"><feGaussianBlur result="blurOut" stdDeviation="2.5"/><feColorMatrix in="blurOut" result="blurOut2" type="matrix" values="0 0 0 0 0 0 0 0 0 0 0 0 0 0 0 0 0 0 .4 0"/><feOffset dx="5.0" dy="5.0" in="blurOut2" result="blurOut3"/><feBlend in="SourceGraphic" in2="blurOut3" mode="normal"/></filter></defs><g><!--MD5=[2c2e2644034c00788261e03c85b06837]
cluster Core--><polygon fill="#FFFFFF" filter="url(#f1kvmkztzr2sjk)" points="20,7.5,70,7.5,78.75,37.0117,3043.75,37.0117,3043.75,821.25,20,821.25,20,7.5" style="stroke:#000000;stroke-width:1.875;"/><line style="stroke:#000000;stroke-width:1.875;" x1="20" x2="78.75" y1="37.0117" y2="37.0117"/><text fill="#000000" font-family="sans-serif" font-size="17.5" font-weight="bold" lengthAdjust="spacing" textLength="42.5" x="25" y="28.1665">Core</text><!--MD5=[121a8bf1197281ab89ed693fab589f94]
cluster Domain--><polygon fill="#FFFFFF" filter="url(#f1kvmkztzr2sjk)" points="843.75,62.5,916.25,62.5,925,92.0117,3013.75,92.0117,3013.75,791.25,843.75,791.25,843.75,62.5" style="stroke:#000000;stroke-width:1.875;"/><line style="stroke:#000000;stroke-width:1.875;" x1="843.75" x2="925" y1="92.0117" y2="92.0117"/><text fill="#000000" font-family="sans-serif" font-size="17.5" font-weight="bold" lengthAdjust="spacing" textLength="65" x="848.75" y="83.1665">Domain</text><!--MD5=[15636c1ca4a123c16a2a1a8e90aca7a9]
cluster Model--><polygon fill="#FFFFFF" filter="url(#f1kvmkztzr2sjk)" points="2300,117.5,2362.5,117.5,2371.25,147.0117,2983.75,147.0117,2983.75,761.25,2300,761.25,2300,117.5" style="stroke:#000000;stroke-width:1.875;"/><line style="stroke:#000000;stroke-width:1.875;" x1="2300" x2="2371.25" y1="147.0117" y2="147.0117"/><text fill="#000000" font-family="sans-serif" font-size="17.5" font-weight="bold" lengthAdjust="spacing" textLength="55" x="2305" y="138.1665">Model</text><!--MD5=[0b89f7d34c26fffbb81ea7301eb9df33]
cluster Interfaces--><polygon fill="#FFFFFF" filter="url(#f1kvmkztzr2sjk)" points="2027.5,368.125,2123.75,368.125,2132.5,397.6367,2270,397.6367,2270,510.625,2027.5,510.625,2027.5,368.125" style="stroke:#000000;stroke-width:1.875;"/><line style="stroke:#000000;stroke-width:1.875;" x1="2027.5" x2="2132.5" y1="397.6367" y2="397.6367"/><text fill="#000000" font-family="sans-serif" font-size="17.5" font-weight="bold" lengthAdjust="spacing" textLength="88.75" x="2032.5" y="388.7915">Interfaces</text><!--MD5=[7ce1723ddb6e6233854253973eae5a71]
cluster Store--><polygon fill="#FFFFFF" filter="url(#f1kvmkztzr2sjk)" points="873.75,347.5,928.75,347.5,937.5,377.0117,1413.75,377.0117,1413.75,531.25,873.75,531.25,873.75,347.5" style="stroke:#000000;stroke-width:1.875;"/><line style="stroke:#000000;stroke-width:1.875;" x1="873.75" x2="937.5" y1="377.0117" y2="377.0117"/><text fill="#000000" font-family="sans-serif" font-size="17.5" font-weight="bold" lengthAdjust="spacing" textLength="47.5" x="878.75" y="368.1665">Store</text><!--MD5=[aedc30b8666742a3000193d7e0a0b93e]
cluster Adapters--><polygon fill="#FFFFFF" filter="url(#f1kvmkztzr2sjk)" points="1443.75,373.125,1530,373.125,1538.75,402.6367,1997.5,402.6367,1997.5,505.625,1443.75,505.625,1443.75,373.125" style="stroke:#000000;stroke-width:1.875;"/><line style="stroke:#000000;stroke-width:1.875;" x1="1443.75" x2="1538.75" y1="402.6367" y2="402.6367"/><text fill="#000000" font-family="sans-serif" font-size="17.5" font-weight="bold" lengthAdjust="spacing" textLength="78.75" x="1448.75" y="393.7915">Adapters</text><!--MD5=[1f2cfc53d9d308f53762fd0fcbaa4873]
cluster Controller--><polygon fill="#FFFFFF" filter="url(#f1kvmkztzr2sjk)" points="50,290.625,146.25,290.625,155,320.1367,410,320.1367,410,588.125,50,588.125,50,290.625" style="stroke:#000000;stroke-width:1.875;"/><line style="stroke:#000000;stroke-width:1.875;" x1="50" x2="155" y1="320.1367" y2="320.1367"/><text fill="#000000" font-family="sans-serif" font-size="17.5" font-weight="bold" lengthAdjust="spacing" textLength="88.75" x="55" y="311.2915">Controller</text><!--MD5=[c29634d7cdbe8f1c1e88f2fe66ae73ec]
cluster ThirdParty--><polygon fill="#FFFFFF" filter="url(#f1kvmkztzr2sjk)" points="440,318.125,536.25,318.125,545,347.6367,813.75,347.6367,813.75,535.625,440,535.625,440,318.125" style="stroke:#000000;stroke-width:1.875;"/><line style="stroke:#000000;stroke-width:1.875;" x1="440" x2="545" y1="347.6367" y2="347.6367"/><text fill="#000000" font-family="sans-serif" font-size="17.5" font-weight="bold" lengthAdjust="spacing" textLength="88.75" x="445" y="338.7915">ThirdParty</text><!--MD5=[0d079ae59d318396171bf167e6cb96b6]
cluster APIs--><polygon fill="#FFFFFF" filter="url(#f1kvmkztzr2sjk)" points="663.75,373.125,708.75,373.125,717.5,402.6367,783.75,402.6367,783.75,505.625,663.75,505.625,663.75,373.125" style="stroke:#000000;stroke-width:1.875;"/><line style="stroke:#000000;stroke-width:1.875;" x1="663.75" x2="717.5" y1="402.6367" y2="402.6367"/><text fill="#000000" font-family="sans-serif" font-size="17.5" font-weight="bold" lengthAdjust="spacing" textLength="37.5" x="668.75" y="393.7915">APIs</text><!--MD5=[9681dc6e01e10c6b4fe06895ae94f592]
cluster UI--><polygon fill="#FFFFFF" filter="url(#f1kvmkztzr2sjk)" points="3073.75,331.875,3098.75,331.875,3107.5,361.3867,3441.25,361.3867,3441.25,521.875,3073.75,521.875,3073.75,331.875" style="stroke:#000000;stroke-width:1.875;"/><line style="stroke:#000000;stroke-width:1.875;" x1="3073.75" x2="3107.5" y1="361.3867" y2="361.3867"/><text fill="#000000" font-family="sans-serif" font-size="17.5" font-weight="bold" lengthAdjust="spacing" textLength="17.5" x="3078.75" y="352.5415">UI</text><!--MD5=[b27c5c9af3cea12247b1c4c8d3c78770]
cluster GUI--><polygon fill="#FFFFFF" filter="url(#f1kvmkztzr2sjk)" points="3103.75,386.875,3142.5,386.875,3151.25,416.3867,3411.25,416.3867,3411.25,491.875,3103.75,491.875,3103.75,386.875" style="stroke:#000000;stroke-width:1.875;"/><line style="stroke:#000000;stroke-width:1.875;" x1="3103.75" x2="3151.25" y1="416.3867" y2="416.3867"/><text fill="#000000" font-family="sans-serif" font-size="17.5" font-weight="bold" lengthAdjust="spacing" textLength="31.25" x="3108.75" y="407.5415">GUI</text><!--MD5=[02e4b9b7573f1156f41e60aa5b4e25a4]
class Company--><rect codeLine="13" fill="#FEFECE" filter="url(#f1kvmkztzr2sjk)" height="111.8848" id="Company" style="stroke:#A80036;stroke-width:1.875;" width="137.5" x="2826.25" y="395.625"/><ellipse cx="2859.0625" cy="415.625" fill="#ADD1B2" rx="13.75" ry="13.75" style="stroke:#A80036;stroke-width:1.25;"/><path d="M2861.5625,411.25 Q2861.8164,410.625 2862.1094,410.3125 Q2862.4023,410 2862.7344,410 Q2863.3203,410 2863.6914,410.3516 Q2864.0625,410.7031 2864.0625,411.5234 L2864.0625,413.4766 Q2864.0625,414.2969 2863.7109,414.6484 Q2863.3594,415 2862.8125,415 Q2862.3242,415 2862.0117,414.7852 Q2861.6992,414.5703 2861.5625,414.0039 Q2861.5039,413.6133 2861.2891,413.3984 Q2860.8984,412.9883 2860.1953,412.7539 Q2859.4922,412.5 2858.7891,412.5 Q2857.9102,412.5 2857.168,412.8516 Q2856.4453,413.2031 2855.8789,413.9844 Q2855.3125,414.7656 2855.3125,415.8398 L2855.3125,416.9922 Q2855.3125,418.2813 2856.3672,419.1406 Q2857.4219,420 2859.2969,420 Q2860.4102,420 2861.1914,419.7461 Q2861.6406,419.6094 2862.1484,419.1602 Q2862.4805,418.9063 2862.6563,418.8281 Q2862.832,418.75 2863.0469,418.75 Q2863.457,418.75 2863.75,419.082 Q2864.0625,419.3945 2864.0625,419.8438 Q2864.0625,420.2734 2863.6328,420.7813 Q2863.0078,421.5234 2862.0117,421.9336 Q2860.7031,422.5 2859.1016,422.5 Q2857.2266,422.5 2855.7227,421.7578 Q2854.5117,421.1719 2853.6523,419.9023 Q2852.8125,418.6328 2852.8125,417.1289 L2852.8125,415.7617 Q2852.8125,414.1992 2853.5547,412.832 Q2854.3164,411.4648 2855.625,410.7422 Q2856.9531,410 2858.4375,410 Q2859.3359,410 2860.1172,410.3125 Q2860.8984,410.625 2861.5625,411.25 Z " fill="#000000"/><text fill="#000000" font-family="sans-serif" font-size="15" lengthAdjust="spacing" textLength="66.25" x="2879.6875" y="421.7627">Company</text><line style="stroke:#A80036;stroke-width:1.875;" x1="2827.5" x2="2962.5" y1="435.625" y2="435.625"/><text fill="#000000" font-family="sans-serif" font-size="13.75" lengthAdjust="spacing" textLength="112.5" x="2833.75" y="454.8987">-String designation</text><text fill="#000000" font-family="sans-serif" font-size="13.75" lengthAdjust="spacing" textLength="122.5" x="2833.75" y="472.1936">-TestStore testStore</text><line style="stroke:#A80036;stroke-width:1.875;" x1="2827.5" x2="2962.5" y1="480.2148" y2="480.2148"/><text fill="#000000" font-family="sans-serif" font-size="13.75" lengthAdjust="spacing" textLength="95" x="2833.75" y="499.4885">+getTestStore()</text><!--MD5=[dcf2a5f2a10777fb61a46b3b0525c1db]
class CompanyPerformance--><rect codeLine="19" fill="#FEFECE" filter="url(#f1kvmkztzr2sjk)" height="578.8477" id="CompanyPerformance" style="stroke:#A80036;stroke-width:1.875;" width="461.25" x="2320.625" y="162.5"/><ellipse cx="2468.4375" cy="182.5" fill="#ADD1B2" rx="13.75" ry="13.75" style="stroke:#A80036;stroke-width:1.25;"/><path d="M2470.9375,178.125 Q2471.1914,177.5 2471.4844,177.1875 Q2471.7773,176.875 2472.1094,176.875 Q2472.6953,176.875 2473.0664,177.2266 Q2473.4375,177.5781 2473.4375,178.3984 L2473.4375,180.3516 Q2473.4375,181.1719 2473.0859,181.5234 Q2472.7344,181.875 2472.1875,181.875 Q2471.6992,181.875 2471.3867,181.6602 Q2471.0742,181.4453 2470.9375,180.8789 Q2470.8789,180.4883 2470.6641,180.2734 Q2470.2734,179.8633 2469.5703,179.6289 Q2468.8672,179.375 2468.1641,179.375 Q2467.2852,179.375 2466.543,179.7266 Q2465.8203,180.0781 2465.2539,180.8594 Q2464.6875,181.6406 2464.6875,182.7148 L2464.6875,183.8672 Q2464.6875,185.1563 2465.7422,186.0156 Q2466.7969,186.875 2468.6719,186.875 Q2469.7852,186.875 2470.5664,186.6211 Q2471.0156,186.4844 2471.5234,186.0352 Q2471.8555,185.7813 2472.0313,185.7031 Q2472.207,185.625 2472.4219,185.625 Q2472.832,185.625 2473.125,185.957 Q2473.4375,186.2695 2473.4375,186.7188 Q2473.4375,187.1484 2473.0078,187.6563 Q2472.3828,188.3984 2471.3867,188.8086 Q2470.0781,189.375 2468.4766,189.375 Q2466.6016,189.375 2465.0977,188.6328 Q2463.8867,188.0469 2463.0273,186.7773 Q2462.1875,185.5078 2462.1875,184.0039 L2462.1875,182.6367 Q2462.1875,181.0742 2462.9297,179.707 Q2463.6914,178.3398 2465,177.6172 Q2466.3281,176.875 2467.8125,176.875 Q2468.7109,176.875 2469.4922,177.1875 Q2470.2734,177.5 2470.9375,178.125 Z " fill="#000000"/><text fill="#000000" font-family="sans-serif" font-size="15" lengthAdjust="spacing" textLength="155" x="2494.0625" y="188.6377">CompanyPerformance</text><line style="stroke:#A80036;stroke-width:1.875;" x1="2321.875" x2="2780.625" y1="202.5" y2="202.5"/><text fill="#000000" font-family="sans-serif" font-size="13.75" lengthAdjust="spacing" textLength="120" x="2328.125" y="221.7737">-Company company</text><text fill="#000000" font-family="sans-serif" font-size="13.75" lengthAdjust="spacing" textLength="121.25" x="2328.125" y="239.0686">-Date beginningDate</text><text fill="#000000" font-family="sans-serif" font-size="13.75" lengthAdjust="spacing" textLength="103.75" x="2328.125" y="256.3635">-Date endingDate</text><text fill="#000000" font-family="sans-serif" font-size="13.75" lengthAdjust="spacing" textLength="108.75" x="2328.125" y="273.6584">-String chosenAlg</text><text fill="#000000" font-family="sans-serif" font-size="13.75" lengthAdjust="spacing" textLength="87.5" x="2328.125" y="290.9534">-int clientsNum</text><text fill="#000000" font-family="sans-serif" font-size="13.75" lengthAdjust="spacing" textLength="132.5" x="2328.125" y="308.2483">-int processTestsNum</text><text fill="#000000" font-family="sans-serif" font-size="13.75" lengthAdjust="spacing" textLength="170" x="2328.125" y="325.5432">-ArrayList&lt;int[]&gt; testInfoDay</text><text fill="#000000" font-family="sans-serif" font-size="13.75" lengthAdjust="spacing" textLength="180" x="2328.125" y="342.8381">-ArrayList&lt;int[]&gt; testInfoWeek</text><text fill="#000000" font-family="sans-serif" font-size="13.75" lengthAdjust="spacing" textLength="182.5" x="2328.125" y="360.1331">-ArrayList&lt;int[]&gt; testInfoMonth</text><text fill="#000000" font-family="sans-serif" font-size="13.75" lengthAdjust="spacing" textLength="176.25" x="2328.125" y="377.428">-ArrayList&lt;int[]&gt; testInfoYear</text><text fill="#000000" font-family="sans-serif" font-size="13.75" lengthAdjust="spacing" textLength="117.5" x="2328.125" y="394.7229">-Date[] worstSubInt</text><text fill="#000000" font-family="sans-serif" font-size="13.75" lengthAdjust="spacing" textLength="82.5" x="2328.125" y="412.0178">+setCompany</text><line style="stroke:#A80036;stroke-width:1.875;" x1="2321.875" x2="2780.625" y1="420.0391" y2="420.0391"/><text fill="#000000" font-family="sans-serif" font-size="13.75" lengthAdjust="spacing" textLength="446.25" x="2328.125" y="439.3127">+CompanyPerformance(beginningDate, endingDate, chosenAlg, company)</text><text fill="#000000" font-family="sans-serif" font-size="13.75" lengthAdjust="spacing" textLength="102.5" x="2328.125" y="456.6077">+getClientsNum()</text><text fill="#000000" font-family="sans-serif" font-size="13.75" lengthAdjust="spacing" textLength="146.25" x="2328.125" y="473.9026">+getProcessTestsNum()</text><text fill="#000000" font-family="sans-serif" font-size="13.75" lengthAdjust="spacing" textLength="108.75" x="2328.125" y="491.1975">+getTestInfoDay()</text><text fill="#000000" font-family="sans-serif" font-size="13.75" lengthAdjust="spacing" textLength="118.75" x="2328.125" y="508.4924">+getTestInfoWeek()</text><text fill="#000000" font-family="sans-serif" font-size="13.75" lengthAdjust="spacing" textLength="121.25" x="2328.125" y="525.7874">+getTestInfoMonth()</text><text fill="#000000" font-family="sans-serif" font-size="13.75" lengthAdjust="spacing" textLength="115" x="2328.125" y="543.0823">+getTestInfoYear()</text><text fill="#000000" font-family="sans-serif" font-size="13.75" lengthAdjust="spacing" textLength="110" x="2328.125" y="560.3772">+getWorstSubInt()</text><text fill="#000000" font-family="sans-serif" font-size="13.75" lengthAdjust="spacing" textLength="192.5" x="2328.125" y="577.6721">+getClientsInfoPerInterval(days)</text><text fill="#000000" font-family="sans-serif" font-size="13.75" lengthAdjust="spacing" textLength="235" x="2328.125" y="594.967">+getNumTestsProcessedInterval(days)</text><text fill="#000000" font-family="sans-serif" font-size="13.75" lengthAdjust="spacing" textLength="158.75" x="2328.125" y="612.262">+getTestInfoPerDay(days)</text><text fill="#000000" font-family="sans-serif" font-size="13.75" lengthAdjust="spacing" textLength="168.75" x="2328.125" y="629.5569">+getTestInfoPerWeek(days)</text><text fill="#000000" font-family="sans-serif" font-size="13.75" lengthAdjust="spacing" textLength="171.25" x="2328.125" y="646.8518">+getTestInfoPerMonth(days)</text><text fill="#000000" font-family="sans-serif" font-size="13.75" lengthAdjust="spacing" textLength="165" x="2328.125" y="664.1467">+getTestInfoPerYear(days)</text><text fill="#000000" font-family="sans-serif" font-size="13.75" lengthAdjust="spacing" textLength="67.5" x="2328.125" y="681.4417">+getDays()</text><text fill="#000000" font-family="sans-serif" font-size="13.75" lengthAdjust="spacing" textLength="157.5" x="2328.125" y="698.7366">+makeIntervalArray(days)</text><text fill="#000000" font-family="sans-serif" font-size="13.75" lengthAdjust="spacing" textLength="381.25" x="2328.125" y="716.0315">+findWorstSubIntWithChosenAlgorithm(days, chosenAlgorithm)</text><text fill="#000000" font-family="sans-serif" font-size="13.75" lengthAdjust="spacing" textLength="288.75" x="2328.125" y="733.3264">+getChosenAlgorithmAdapter(chosenAlgorithm)</text><!--MD5=[03e21a3a74a4ec725edc90da8949a6b4]
class SubMaxSumAlgorithms--><rect codeLine="56" fill="#FEFECE" filter="url(#f1kvmkztzr2sjk)" height="77.5293" id="SubMaxSumAlgorithms" style="stroke:#A80036;stroke-width:1.875;" width="202.5" x="2047.5" y="413.125"/><ellipse cx="2066.25" cy="438.2422" fill="#B4A7E5" rx="13.75" ry="13.75" style="stroke:#A80036;stroke-width:1.25;"/><path d="M2067.5,434.4922 L2067.5,441.9922 L2070,441.9922 L2070.6055,441.9922 L2071.25,442.7734 L2071.25,443.2422 L2071.25,443.7109 L2070.6055,444.4922 L2070,444.4922 L2062.5,444.4922 L2061.8945,444.4922 L2061.25,443.7109 L2061.25,443.2422 L2061.25,442.7734 L2061.8945,441.9922 L2062.5,441.9922 L2065,441.9922 L2065,434.4922 L2062.5,434.4922 L2061.8945,434.4922 L2061.25,433.7109 L2061.25,433.2422 L2061.25,432.7734 L2061.8945,431.9922 L2062.5,431.9922 L2070,431.9922 L2070.6055,431.9922 L2071.25,432.7734 L2071.25,433.2422 L2071.25,433.7109 L2070.6055,434.4922 L2070,434.4922 L2067.5,434.4922 Z " fill="#000000"/><text fill="#000000" font-family="sans-serif" font-size="15" font-style="italic" lengthAdjust="spacing" textLength="76.25" x="2126.875" y="434.9463">«interface»</text><text fill="#000000" font-family="sans-serif" font-size="15" font-style="italic" lengthAdjust="spacing" textLength="162.5" x="2083.75" y="453.8135">SubMaxSumAlgorithms</text><line style="stroke:#A80036;stroke-width:1.875;" x1="2048.75" x2="2248.75" y1="463.3594" y2="463.3594"/><text fill="#000000" font-family="sans-serif" font-size="13.75" lengthAdjust="spacing" textLength="158.75" x="2055" y="482.6331">+findSubMaxSum(interval)</text><!--MD5=[0f6f7964b844a64b0496af0dda7914bd]
class TestStore--><rect codeLine="64" fill="#FEFECE" filter="url(#f1kvmkztzr2sjk)" height="119.1797" id="TestStore" style="stroke:#A80036;stroke-width:1.875;" width="498.75" x="894.375" y="392.5"/><ellipse cx="1105.3125" cy="412.5" fill="#ADD1B2" rx="13.75" ry="13.75" style="stroke:#A80036;stroke-width:1.25;"/><path d="M1107.8125,408.125 Q1108.0664,407.5 1108.3594,407.1875 Q1108.6523,406.875 1108.9844,406.875 Q1109.5703,406.875 1109.9414,407.2266 Q1110.3125,407.5781 1110.3125,408.3984 L1110.3125,410.3516 Q1110.3125,411.1719 1109.9609,411.5234 Q1109.6094,411.875 1109.0625,411.875 Q1108.5742,411.875 1108.2617,411.6602 Q1107.9492,411.4453 1107.8125,410.8789 Q1107.7539,410.4883 1107.5391,410.2734 Q1107.1484,409.8633 1106.4453,409.6289 Q1105.7422,409.375 1105.0391,409.375 Q1104.1602,409.375 1103.418,409.7266 Q1102.6953,410.0781 1102.1289,410.8594 Q1101.5625,411.6406 1101.5625,412.7148 L1101.5625,413.8672 Q1101.5625,415.1563 1102.6172,416.0156 Q1103.6719,416.875 1105.5469,416.875 Q1106.6602,416.875 1107.4414,416.6211 Q1107.8906,416.4844 1108.3984,416.0352 Q1108.7305,415.7813 1108.9063,415.7031 Q1109.082,415.625 1109.2969,415.625 Q1109.707,415.625 1110,415.957 Q1110.3125,416.2695 1110.3125,416.7188 Q1110.3125,417.1484 1109.8828,417.6563 Q1109.2578,418.3984 1108.2617,418.8086 Q1106.9531,419.375 1105.3516,419.375 Q1103.4766,419.375 1101.9727,418.6328 Q1100.7617,418.0469 1099.9023,416.7773 Q1099.0625,415.5078 1099.0625,414.0039 L1099.0625,412.6367 Q1099.0625,411.0742 1099.8047,409.707 Q1100.5664,408.3398 1101.875,407.6172 Q1103.2031,406.875 1104.6875,406.875 Q1105.5859,406.875 1106.3672,407.1875 Q1107.1484,407.5 1107.8125,408.125 Z " fill="#000000"/><text fill="#000000" font-family="sans-serif" font-size="15" lengthAdjust="spacing" textLength="66.25" x="1130.9375" y="418.6377">TestStore</text><line style="stroke:#A80036;stroke-width:1.875;" x1="895.625" x2="1391.875" y1="432.5" y2="432.5"/><text fill="#000000" font-family="sans-serif" font-size="13.75" lengthAdjust="spacing" textLength="440" x="901.875" y="451.7737">+getNumTestsWaitingForResultsDayOrInterval(beginningDay, endingDay)</text><text fill="#000000" font-family="sans-serif" font-size="13.75" lengthAdjust="spacing" textLength="453.75" x="901.875" y="469.0686">+getNumTestsWaitingForDiagnosisDayOrInterval(beginningDay, endingDay)</text><text fill="#000000" font-family="sans-serif" font-size="13.75" lengthAdjust="spacing" textLength="483.75" x="901.875" y="486.3635">+getNumberOfTestsByIntervalDateOfTestRegistration(beginningDay, endingDay)</text><text fill="#000000" font-family="sans-serif" font-size="13.75" lengthAdjust="spacing" textLength="445" x="901.875" y="503.6584">+getNumberOfTestsByIntervalDateOfDiagnosis(beginningDay, endingDay)</text><!--MD5=[f4a38599b97b911edb1e154f571cf5e4]
class BenchmarkAlgorithmAdapter--><rect codeLine="75" fill="#FEFECE" filter="url(#f1kvmkztzr2sjk)" height="67.2949" id="BenchmarkAlgorithmAdapter" style="stroke:#A80036;stroke-width:1.875;" width="236.25" x="1740.625" y="418.125"/><ellipse cx="1759.375" cy="438.125" fill="#ADD1B2" rx="13.75" ry="13.75" style="stroke:#A80036;stroke-width:1.25;"/><path d="M1761.875,433.75 Q1762.1289,433.125 1762.4219,432.8125 Q1762.7148,432.5 1763.0469,432.5 Q1763.6328,432.5 1764.0039,432.8516 Q1764.375,433.2031 1764.375,434.0234 L1764.375,435.9766 Q1764.375,436.7969 1764.0234,437.1484 Q1763.6719,437.5 1763.125,437.5 Q1762.6367,437.5 1762.3242,437.2852 Q1762.0117,437.0703 1761.875,436.5039 Q1761.8164,436.1133 1761.6016,435.8984 Q1761.2109,435.4883 1760.5078,435.2539 Q1759.8047,435 1759.1016,435 Q1758.2227,435 1757.4805,435.3516 Q1756.7578,435.7031 1756.1914,436.4844 Q1755.625,437.2656 1755.625,438.3398 L1755.625,439.4922 Q1755.625,440.7813 1756.6797,441.6406 Q1757.7344,442.5 1759.6094,442.5 Q1760.7227,442.5 1761.5039,442.2461 Q1761.9531,442.1094 1762.4609,441.6602 Q1762.793,441.4063 1762.9688,441.3281 Q1763.1445,441.25 1763.3594,441.25 Q1763.7695,441.25 1764.0625,441.582 Q1764.375,441.8945 1764.375,442.3438 Q1764.375,442.7734 1763.9453,443.2813 Q1763.3203,444.0234 1762.3242,444.4336 Q1761.0156,445 1759.4141,445 Q1757.5391,445 1756.0352,444.2578 Q1754.8242,443.6719 1753.9648,442.4023 Q1753.125,441.1328 1753.125,439.6289 L1753.125,438.2617 Q1753.125,436.6992 1753.8672,435.332 Q1754.6289,433.9648 1755.9375,433.2422 Q1757.2656,432.5 1758.75,432.5 Q1759.6484,432.5 1760.4297,432.8125 Q1761.2109,433.125 1761.875,433.75 Z " fill="#000000"/><text fill="#000000" font-family="sans-serif" font-size="15" lengthAdjust="spacing" textLength="196.25" x="1776.875" y="444.2627">BenchmarkAlgorithmAdapter</text><line style="stroke:#A80036;stroke-width:1.875;" x1="1741.875" x2="1975.625" y1="458.125" y2="458.125"/><text fill="#000000" font-family="sans-serif" font-size="13.75" lengthAdjust="spacing" textLength="158.75" x="1748.125" y="477.3987">+findSubMaxSum(interval)</text><!--MD5=[3d195b319a9e341286852cea89c88ec3]
class BruteForceAlgorithmAdapter--><rect codeLine="79" fill="#FEFECE" filter="url(#f1kvmkztzr2sjk)" height="67.2949" id="BruteForceAlgorithmAdapter" style="stroke:#A80036;stroke-width:1.875;" width="232.5" x="1463.75" y="418.125"/><ellipse cx="1482.5" cy="438.125" fill="#ADD1B2" rx="13.75" ry="13.75" style="stroke:#A80036;stroke-width:1.25;"/><path d="M1485,433.75 Q1485.2539,433.125 1485.5469,432.8125 Q1485.8398,432.5 1486.1719,432.5 Q1486.7578,432.5 1487.1289,432.8516 Q1487.5,433.2031 1487.5,434.0234 L1487.5,435.9766 Q1487.5,436.7969 1487.1484,437.1484 Q1486.7969,437.5 1486.25,437.5 Q1485.7617,437.5 1485.4492,437.2852 Q1485.1367,437.0703 1485,436.5039 Q1484.9414,436.1133 1484.7266,435.8984 Q1484.3359,435.4883 1483.6328,435.2539 Q1482.9297,435 1482.2266,435 Q1481.3477,435 1480.6055,435.3516 Q1479.8828,435.7031 1479.3164,436.4844 Q1478.75,437.2656 1478.75,438.3398 L1478.75,439.4922 Q1478.75,440.7813 1479.8047,441.6406 Q1480.8594,442.5 1482.7344,442.5 Q1483.8477,442.5 1484.6289,442.2461 Q1485.0781,442.1094 1485.5859,441.6602 Q1485.918,441.4063 1486.0938,441.3281 Q1486.2695,441.25 1486.4844,441.25 Q1486.8945,441.25 1487.1875,441.582 Q1487.5,441.8945 1487.5,442.3438 Q1487.5,442.7734 1487.0703,443.2813 Q1486.4453,444.0234 1485.4492,444.4336 Q1484.1406,445 1482.5391,445 Q1480.6641,445 1479.1602,444.2578 Q1477.9492,443.6719 1477.0898,442.4023 Q1476.25,441.1328 1476.25,439.6289 L1476.25,438.2617 Q1476.25,436.6992 1476.9922,435.332 Q1477.7539,433.9648 1479.0625,433.2422 Q1480.3906,432.5 1481.875,432.5 Q1482.7734,432.5 1483.5547,432.8125 Q1484.3359,433.125 1485,433.75 Z " fill="#000000"/><text fill="#000000" font-family="sans-serif" font-size="15" lengthAdjust="spacing" textLength="192.5" x="1500" y="444.2627">BruteForceAlgorithmAdapter</text><line style="stroke:#A80036;stroke-width:1.875;" x1="1465" x2="1695" y1="458.125" y2="458.125"/><text fill="#000000" font-family="sans-serif" font-size="13.75" lengthAdjust="spacing" textLength="158.75" x="1471.25" y="477.3987">+findSubMaxSum(interval)</text><!--MD5=[670275f839cd0f6ae295f6f439fd6034]
class CompanyPerformanceAnalysisController--><rect codeLine="89" fill="#FEFECE" filter="url(#f1kvmkztzr2sjk)" height="232.9492" id="CompanyPerformanceAnalysisController" style="stroke:#A80036;stroke-width:1.875;" width="320" x="70" y="335.625"/><ellipse cx="88.75" cy="355.625" fill="#ADD1B2" rx="13.75" ry="13.75" style="stroke:#A80036;stroke-width:1.25;"/><path d="M91.25,351.25 Q91.5039,350.625 91.7969,350.3125 Q92.0898,350 92.4219,350 Q93.0078,350 93.3789,350.3516 Q93.75,350.7031 93.75,351.5234 L93.75,353.4766 Q93.75,354.2969 93.3984,354.6484 Q93.0469,355 92.5,355 Q92.0117,355 91.6992,354.7852 Q91.3867,354.5703 91.25,354.0039 Q91.1914,353.6133 90.9766,353.3984 Q90.5859,352.9883 89.8828,352.7539 Q89.1797,352.5 88.4766,352.5 Q87.5977,352.5 86.8555,352.8516 Q86.1328,353.2031 85.5664,353.9844 Q85,354.7656 85,355.8398 L85,356.9922 Q85,358.2813 86.0547,359.1406 Q87.1094,360 88.9844,360 Q90.0977,360 90.8789,359.7461 Q91.3281,359.6094 91.8359,359.1602 Q92.168,358.9063 92.3438,358.8281 Q92.5195,358.75 92.7344,358.75 Q93.1445,358.75 93.4375,359.082 Q93.75,359.3945 93.75,359.8438 Q93.75,360.2734 93.3203,360.7813 Q92.6953,361.5234 91.6992,361.9336 Q90.3906,362.5 88.7891,362.5 Q86.9141,362.5 85.4102,361.7578 Q84.1992,361.1719 83.3398,359.9023 Q82.5,358.6328 82.5,357.1289 L82.5,355.7617 Q82.5,354.1992 83.2422,352.832 Q84.0039,351.4648 85.3125,350.7422 Q86.6406,350 88.125,350 Q89.0234,350 89.8047,350.3125 Q90.5859,350.625 91.25,351.25 Z " fill="#000000"/><text fill="#000000" font-family="sans-serif" font-size="15" lengthAdjust="spacing" textLength="280" x="106.25" y="361.7627">CompanyPerformanceAnalysisController</text><line style="stroke:#A80036;stroke-width:1.875;" x1="71.25" x2="388.75" y1="375.625" y2="375.625"/><text fill="#000000" font-family="sans-serif" font-size="13.75" lengthAdjust="spacing" textLength="120" x="77.5" y="394.8987">-Company company</text><text fill="#000000" font-family="sans-serif" font-size="13.75" lengthAdjust="spacing" textLength="275" x="77.5" y="412.1936">-CompanyPerformance companyPerformance</text><line style="stroke:#A80036;stroke-width:1.875;" x1="71.25" x2="388.75" y1="420.2148" y2="420.2148"/><text fill="#000000" font-family="sans-serif" font-size="13.75" lengthAdjust="spacing" textLength="302.5" x="77.5" y="439.4885">+setCompanyPerformance(companyPerformance)</text><text fill="#000000" font-family="sans-serif" font-size="13.75" lengthAdjust="spacing" textLength="162.5" x="77.5" y="456.7834">+getClientsInfoPerInterval()</text><text fill="#000000" font-family="sans-serif" font-size="13.75" lengthAdjust="spacing" textLength="205" x="77.5" y="474.0784">+getNumTestsProcessedInterval()</text><text fill="#000000" font-family="sans-serif" font-size="13.75" lengthAdjust="spacing" textLength="128.75" x="77.5" y="491.3733">+getTestInfoPerDay()</text><text fill="#000000" font-family="sans-serif" font-size="13.75" lengthAdjust="spacing" textLength="138.75" x="77.5" y="508.6682">+getTestInfoPerWeek()</text><text fill="#000000" font-family="sans-serif" font-size="13.75" lengthAdjust="spacing" textLength="141.25" x="77.5" y="525.9631">+getTestInfoPerMonth()</text><text fill="#000000" font-family="sans-serif" font-size="13.75" lengthAdjust="spacing" textLength="135" x="77.5" y="543.2581">+getTestInfoPerYear()</text><text fill="#000000" font-family="sans-serif" font-size="13.75" lengthAdjust="spacing" textLength="242.5" x="77.5" y="560.553">+findWorstSubIntWithChosenAlgorithm()</text><!--MD5=[1dec90c14ec2ba3af2708f621be65d00]
class BruteForceAlgorithm--><rect codeLine="114" fill="#FEFECE" filter="url(#f1kvmkztzr2sjk)" height="67.2949" id="BruteForceAlgorithm" style="stroke:#A80036;stroke-width:1.875;" width="180" x="460" y="418.125"/><ellipse cx="478.75" cy="438.125" fill="#ADD1B2" rx="13.75" ry="13.75" style="stroke:#A80036;stroke-width:1.25;"/><path d="M481.25,433.75 Q481.5039,433.125 481.7969,432.8125 Q482.0898,432.5 482.4219,432.5 Q483.0078,432.5 483.3789,432.8516 Q483.75,433.2031 483.75,434.0234 L483.75,435.9766 Q483.75,436.7969 483.3984,437.1484 Q483.0469,437.5 482.5,437.5 Q482.0117,437.5 481.6992,437.2852 Q481.3867,437.0703 481.25,436.5039 Q481.1914,436.1133 480.9766,435.8984 Q480.5859,435.4883 479.8828,435.2539 Q479.1797,435 478.4766,435 Q477.5977,435 476.8555,435.3516 Q476.1328,435.7031 475.5664,436.4844 Q475,437.2656 475,438.3398 L475,439.4922 Q475,440.7813 476.0547,441.6406 Q477.1094,442.5 478.9844,442.5 Q480.0977,442.5 480.8789,442.2461 Q481.3281,442.1094 481.8359,441.6602 Q482.168,441.4063 482.3438,441.3281 Q482.5195,441.25 482.7344,441.25 Q483.1445,441.25 483.4375,441.582 Q483.75,441.8945 483.75,442.3438 Q483.75,442.7734 483.3203,443.2813 Q482.6953,444.0234 481.6992,444.4336 Q480.3906,445 478.7891,445 Q476.9141,445 475.4102,444.2578 Q474.1992,443.6719 473.3398,442.4023 Q472.5,441.1328 472.5,439.6289 L472.5,438.2617 Q472.5,436.6992 473.2422,435.332 Q474.0039,433.9648 475.3125,433.2422 Q476.6406,432.5 478.125,432.5 Q479.0234,432.5 479.8047,432.8125 Q480.5859,433.125 481.25,433.75 Z " fill="#000000"/><text fill="#000000" font-family="sans-serif" font-size="15" lengthAdjust="spacing" textLength="140" x="496.25" y="444.2627">BruteForceAlgorithm</text><line style="stroke:#A80036;stroke-width:1.875;" x1="461.25" x2="638.75" y1="458.125" y2="458.125"/><text fill="#000000" font-family="sans-serif" font-size="13.75" lengthAdjust="spacing" textLength="65" x="467.5" y="477.3987">+Max(seq)</text><!--MD5=[bbc84d1aa0e7f30bd67b3f6e81f0f299]
class Sum--><rect codeLine="108" fill="#FEFECE" filter="url(#f1kvmkztzr2sjk)" height="67.2949" id="Sum" style="stroke:#A80036;stroke-width:1.875;" width="80" x="683.75" y="418.125"/><ellipse cx="705.875" cy="438.125" fill="#ADD1B2" rx="13.75" ry="13.75" style="stroke:#A80036;stroke-width:1.25;"/><path d="M708.375,433.75 Q708.6289,433.125 708.9219,432.8125 Q709.2148,432.5 709.5469,432.5 Q710.1328,432.5 710.5039,432.8516 Q710.875,433.2031 710.875,434.0234 L710.875,435.9766 Q710.875,436.7969 710.5234,437.1484 Q710.1719,437.5 709.625,437.5 Q709.1367,437.5 708.8242,437.2852 Q708.5117,437.0703 708.375,436.5039 Q708.3164,436.1133 708.1016,435.8984 Q707.7109,435.4883 707.0078,435.2539 Q706.3047,435 705.6016,435 Q704.7227,435 703.9805,435.3516 Q703.2578,435.7031 702.6914,436.4844 Q702.125,437.2656 702.125,438.3398 L702.125,439.4922 Q702.125,440.7813 703.1797,441.6406 Q704.2344,442.5 706.1094,442.5 Q707.2227,442.5 708.0039,442.2461 Q708.4531,442.1094 708.9609,441.6602 Q709.293,441.4063 709.4688,441.3281 Q709.6445,441.25 709.8594,441.25 Q710.2695,441.25 710.5625,441.582 Q710.875,441.8945 710.875,442.3438 Q710.875,442.7734 710.4453,443.2813 Q709.8203,444.0234 708.8242,444.4336 Q707.5156,445 705.9141,445 Q704.0391,445 702.5352,444.2578 Q701.3242,443.6719 700.4648,442.4023 Q699.625,441.1328 699.625,439.6289 L699.625,438.2617 Q699.625,436.6992 700.3672,435.332 Q701.1289,433.9648 702.4375,433.2422 Q703.7656,432.5 705.25,432.5 Q706.1484,432.5 706.9297,432.8125 Q707.7109,433.125 708.375,433.75 Z " fill="#000000"/><text fill="#000000" font-family="sans-serif" font-size="15" lengthAdjust="spacing" textLength="32.5" x="724.125" y="444.2627">Sum</text><line style="stroke:#A80036;stroke-width:1.875;" x1="685" x2="762.5" y1="458.125" y2="458.125"/><text fill="#000000" font-family="sans-serif" font-size="13.75" lengthAdjust="spacing" textLength="65" x="691.25" y="477.3987">+Max(seq)</text><!--MD5=[3404723274ca4ec774b8d2f7e379376f]
class CompanyPerformanceAnalysisUI--><rect codeLine="126" fill="#FEFECE" filter="url(#f1kvmkztzr2sjk)" height="40" id="CompanyPerformanceAnalysisUI" style="stroke:#A80036;stroke-width:1.875;" width="267.5" x="3123.75" y="431.875"/><ellipse cx="3142.5" cy="451.875" fill="#ADD1B2" rx="13.75" ry="13.75" style="stroke:#A80036;stroke-width:1.25;"/><path d="M3145,447.5 Q3145.2539,446.875 3145.5469,446.5625 Q3145.8398,446.25 3146.1719,446.25 Q3146.7578,446.25 3147.1289,446.6016 Q3147.5,446.9531 3147.5,447.7734 L3147.5,449.7266 Q3147.5,450.5469 3147.1484,450.8984 Q3146.7969,451.25 3146.25,451.25 Q3145.7617,451.25 3145.4492,451.0352 Q3145.1367,450.8203 3145,450.2539 Q3144.9414,449.8633 3144.7266,449.6484 Q3144.3359,449.2383 3143.6328,449.0039 Q3142.9297,448.75 3142.2266,448.75 Q3141.3477,448.75 3140.6055,449.1016 Q3139.8828,449.4531 3139.3164,450.2344 Q3138.75,451.0156 3138.75,452.0898 L3138.75,453.2422 Q3138.75,454.5313 3139.8047,455.3906 Q3140.8594,456.25 3142.7344,456.25 Q3143.8477,456.25 3144.6289,455.9961 Q3145.0781,455.8594 3145.5859,455.4102 Q3145.918,455.1563 3146.0938,455.0781 Q3146.2695,455 3146.4844,455 Q3146.8945,455 3147.1875,455.332 Q3147.5,455.6445 3147.5,456.0938 Q3147.5,456.5234 3147.0703,457.0313 Q3146.4453,457.7734 3145.4492,458.1836 Q3144.1406,458.75 3142.5391,458.75 Q3140.6641,458.75 3139.1602,458.0078 Q3137.9492,457.4219 3137.0898,456.1523 Q3136.25,454.8828 3136.25,453.3789 L3136.25,452.0117 Q3136.25,450.4492 3136.9922,449.082 Q3137.7539,447.7148 3139.0625,446.9922 Q3140.3906,446.25 3141.875,446.25 Q3142.7734,446.25 3143.5547,446.5625 Q3144.3359,446.875 3145,447.5 Z " fill="#000000"/><text fill="#000000" font-family="sans-serif" font-size="15" lengthAdjust="spacing" textLength="227.5" x="3160" y="458.0127">CompanyPerformanceAnalysisUI</text><!--MD5=[90265dbbeaf43ef1d10cdd69a5055130]
@startuml
'skinparam linetype ortho
hide empty methods
hide empty attributes
'left to right direction
skinparam classAttributeIconSize 0

package Core{

package Domain {

package Model{

class Company {
    - String designation
    - TestStore testStore
    + getTestStore()
}

class CompanyPerformance{
    - Company company
    - Date beginningDate
    - Date endingDate
    - String chosenAlg
    - int clientsNum
    - int processTestsNum
    - ArrayList<int[]> testInfoDay
    - ArrayList<int[]> testInfoWeek
    - ArrayList<int[]> testInfoMonth
    - ArrayList<int[]> testInfoYear
    - Date[] worstSubInt
    + setCompany
    + CompanyPerformance(beginningDate, endingDate, chosenAlg, company)
    + getClientsNum()
    + getProcessTestsNum()
    + getTestInfoDay()
    + getTestInfoWeek()
    + getTestInfoMonth()
    + getTestInfoYear()
    + getWorstSubInt()
    + getClientsInfoPerInterval(days)
    + getNumTestsProcessedInterval(days)
    + getTestInfoPerDay(days)
    + getTestInfoPerWeek(days)
    + getTestInfoPerMonth(days)
    + getTestInfoPerYear(days)
    + getDays()
    + makeIntervalArray(days)
    + findWorstSubIntWithChosenAlgorithm(days, chosenAlgorithm)
    + getChosenAlgorithmAdapter(chosenAlgorithm)
}

}

package Interfaces {

interface SubMaxSumAlgorithms <<interface>> {
    +findSubMaxSum(interval)
}

}

package Store {

class TestStore {
    + getNumTestsWaitingForResultsDayOrInterval(beginningDay, endingDay)
    + getNumTestsWaitingForDiagnosisDayOrInterval(beginningDay, endingDay)
    + getNumberOfTestsByIntervalDateOfTestRegistration(beginningDay, endingDay)
    + getNumberOfTestsByIntervalDateOfDiagnosis(beginningDay, endingDay)
}

}

package Adapters{

class BenchmarkAlgorithmAdapter{
    +findSubMaxSum(interval)
}

class BruteForceAlgorithmAdapter{
    +findSubMaxSum(interval)
}

}

}

package Controller {

class CompanyPerformanceAnalysisController{
    - Company company
    - CompanyPerformance companyPerformance
    + setCompanyPerformance(companyPerformance)
    + getClientsInfoPerInterval()
    + getNumTestsProcessedInterval()
    + getTestInfoPerDay()
    + getTestInfoPerWeek()
    + getTestInfoPerMonth()
    + getTestInfoPerYear()
    + findWorstSubIntWithChosenAlgorithm()
}

}

package ThirdParty{

package APIs {

class Sum{
    +Max(seq)
}

}

class BruteForceAlgorithm{
    +Max(seq)
}

}

}

package UI {

package GUI{

class CompanyPerformanceAnalysisUI{
}

}

}

@enduml

@startuml
hide empty methods
hide empty attributes
skinparam classAttributeIconSize 0

package Core{

package Domain {

package Model{

class Company {
    - String designation
    - TestStore testStore
    + getTestStore()
}

class CompanyPerformance{
    - Company company
    - Date beginningDate
    - Date endingDate
    - String chosenAlg
    - int clientsNum
    - int processTestsNum
    - ArrayList<int[]> testInfoDay
    - ArrayList<int[]> testInfoWeek
    - ArrayList<int[]> testInfoMonth
    - ArrayList<int[]> testInfoYear
    - Date[] worstSubInt
    + setCompany
    + CompanyPerformance(beginningDate, endingDate, chosenAlg, company)
    + getClientsNum()
    + getProcessTestsNum()
    + getTestInfoDay()
    + getTestInfoWeek()
    + getTestInfoMonth()
    + getTestInfoYear()
    + getWorstSubInt()
    + getClientsInfoPerInterval(days)
    + getNumTestsProcessedInterval(days)
    + getTestInfoPerDay(days)
    + getTestInfoPerWeek(days)
    + getTestInfoPerMonth(days)
    + getTestInfoPerYear(days)
    + getDays()
    + makeIntervalArray(days)
    + findWorstSubIntWithChosenAlgorithm(days, chosenAlgorithm)
    + getChosenAlgorithmAdapter(chosenAlgorithm)
}

}

package Interfaces {

interface SubMaxSumAlgorithms <<interface>> {
    +findSubMaxSum(interval)
}

}

package Store {

class TestStore {
    + getNumTestsWaitingForResultsDayOrInterval(beginningDay, endingDay)
    + getNumTestsWaitingForDiagnosisDayOrInterval(beginningDay, endingDay)
    + getNumberOfTestsByIntervalDateOfTestRegistration(beginningDay, endingDay)
    + getNumberOfTestsByIntervalDateOfDiagnosis(beginningDay, endingDay)
}

}

package Adapters{

class BenchmarkAlgorithmAdapter{
    +findSubMaxSum(interval)
}

class BruteForceAlgorithmAdapter{
    +findSubMaxSum(interval)
}

}

}

package Controller {

class CompanyPerformanceAnalysisController{
    - Company company
    - CompanyPerformance companyPerformance
    + setCompanyPerformance(companyPerformance)
    + getClientsInfoPerInterval()
    + getNumTestsProcessedInterval()
    + getTestInfoPerDay()
    + getTestInfoPerWeek()
    + getTestInfoPerMonth()
    + getTestInfoPerYear()
    + findWorstSubIntWithChosenAlgorithm()
}

}

package ThirdParty{

package APIs {

class Sum{
    +Max(seq)
}

}

class BruteForceAlgorithm{
    +Max(seq)
}

}

}

package UI {

package GUI{

class CompanyPerformanceAnalysisUI{
}

}

}

@enduml

PlantUML version 1.2021.7(Sun May 23 13:40:07 BST 2021)
(GPL source distribution)
Java Runtime: OpenJDK Runtime Environment
JVM: Dynamic Code Evolution 64-Bit Server VM
Default Encoding: Cp1252
Language: pt
Country: PT
--></g></svg>