<?xml version="1.0" encoding="UTF-8" standalone="no"?><svg xmlns="http://www.w3.org/2000/svg" xmlns:xlink="http://www.w3.org/1999/xlink" contentScriptType="application/ecmascript" contentStyleType="text/css" height="1707.5px" preserveAspectRatio="none" style="width:895px;height:1707px;background:#FFFFFF;" version="1.1" viewBox="0 0 895 1707" width="895px" zoomAndPan="magnify"><defs><filter height="300%" id="fi1dzo80kgnrr" width="300%" x="-1" y="-1"><feGaussianBlur result="blurOut" stdDeviation="2.5"/><feColorMatrix in="blurOut" result="blurOut2" type="matrix" values="0 0 0 0 0 0 0 0 0 0 0 0 0 0 0 0 0 0 .4 0"/><feOffset dx="5.0" dy="5.0" in="blurOut2" result="blurOut3"/><feBlend in="SourceGraphic" in2="blurOut3" mode="normal"/></filter></defs><g><!--MD5=[02e4b9b7573f1156f41e60aa5b4e25a4]
class Company--><rect codeLine="7" fill="#FEFECE" filter="url(#fi1dzo80kgnrr)" height="111.8848" id="Company" style="stroke:#A80036;stroke-width:1.875;" width="137.5" x="196.875" y="436.875"/><ellipse cx="229.6875" cy="456.875" fill="#ADD1B2" rx="13.75" ry="13.75" style="stroke:#A80036;stroke-width:1.25;"/><path d="M232.1875,452.5 Q232.4414,451.875 232.7344,451.5625 Q233.0273,451.25 233.3594,451.25 Q233.9453,451.25 234.3164,451.6016 Q234.6875,451.9531 234.6875,452.7734 L234.6875,454.7266 Q234.6875,455.5469 234.3359,455.8984 Q233.9844,456.25 233.4375,456.25 Q232.9492,456.25 232.6367,456.0352 Q232.3242,455.8203 232.1875,455.2539 Q232.1289,454.8633 231.9141,454.6484 Q231.5234,454.2383 230.8203,454.0039 Q230.1172,453.75 229.4141,453.75 Q228.5352,453.75 227.793,454.1016 Q227.0703,454.4531 226.5039,455.2344 Q225.9375,456.0156 225.9375,457.0898 L225.9375,458.2422 Q225.9375,459.5313 226.9922,460.3906 Q228.0469,461.25 229.9219,461.25 Q231.0352,461.25 231.8164,460.9961 Q232.2656,460.8594 232.7734,460.4102 Q233.1055,460.1563 233.2813,460.0781 Q233.457,460 233.6719,460 Q234.082,460 234.375,460.332 Q234.6875,460.6445 234.6875,461.0938 Q234.6875,461.5234 234.2578,462.0313 Q233.6328,462.7734 232.6367,463.1836 Q231.3281,463.75 229.7266,463.75 Q227.8516,463.75 226.3477,463.0078 Q225.1367,462.4219 224.2773,461.1523 Q223.4375,459.8828 223.4375,458.3789 L223.4375,457.0117 Q223.4375,455.4492 224.1797,454.082 Q224.9414,452.7148 226.25,451.9922 Q227.5781,451.25 229.0625,451.25 Q229.9609,451.25 230.7422,451.5625 Q231.5234,451.875 232.1875,452.5 Z " fill="#000000"/><text fill="#000000" font-family="sans-serif" font-size="15" lengthAdjust="spacing" textLength="66.25" x="250.3125" y="463.0127">Company</text><line style="stroke:#A80036;stroke-width:1.875;" x1="198.125" x2="333.125" y1="476.875" y2="476.875"/><text fill="#000000" font-family="sans-serif" font-size="13.75" lengthAdjust="spacing" textLength="112.5" x="204.375" y="496.1487">-String designation</text><text fill="#000000" font-family="sans-serif" font-size="13.75" lengthAdjust="spacing" textLength="122.5" x="204.375" y="513.4436">-TestStore testStore</text><line style="stroke:#A80036;stroke-width:1.875;" x1="198.125" x2="333.125" y1="521.4648" y2="521.4648"/><text fill="#000000" font-family="sans-serif" font-size="13.75" lengthAdjust="spacing" textLength="95" x="204.375" y="540.7385">+getTestStore()</text><!--MD5=[0f6f7964b844a64b0496af0dda7914bd]
class TestStore--><rect codeLine="13" fill="#FEFECE" filter="url(#fi1dzo80kgnrr)" height="119.1797" id="TestStore" style="stroke:#A80036;stroke-width:1.875;" width="498.75" x="378.75" y="433.75"/><ellipse cx="589.6875" cy="453.75" fill="#ADD1B2" rx="13.75" ry="13.75" style="stroke:#A80036;stroke-width:1.25;"/><path d="M592.1875,449.375 Q592.4414,448.75 592.7344,448.4375 Q593.0273,448.125 593.3594,448.125 Q593.9453,448.125 594.3164,448.4766 Q594.6875,448.8281 594.6875,449.6484 L594.6875,451.6016 Q594.6875,452.4219 594.3359,452.7734 Q593.9844,453.125 593.4375,453.125 Q592.9492,453.125 592.6367,452.9102 Q592.3242,452.6953 592.1875,452.1289 Q592.1289,451.7383 591.9141,451.5234 Q591.5234,451.1133 590.8203,450.8789 Q590.1172,450.625 589.4141,450.625 Q588.5352,450.625 587.793,450.9766 Q587.0703,451.3281 586.5039,452.1094 Q585.9375,452.8906 585.9375,453.9648 L585.9375,455.1172 Q585.9375,456.4063 586.9922,457.2656 Q588.0469,458.125 589.9219,458.125 Q591.0352,458.125 591.8164,457.8711 Q592.2656,457.7344 592.7734,457.2852 Q593.1055,457.0313 593.2813,456.9531 Q593.457,456.875 593.6719,456.875 Q594.082,456.875 594.375,457.207 Q594.6875,457.5195 594.6875,457.9688 Q594.6875,458.3984 594.2578,458.9063 Q593.6328,459.6484 592.6367,460.0586 Q591.3281,460.625 589.7266,460.625 Q587.8516,460.625 586.3477,459.8828 Q585.1367,459.2969 584.2773,458.0273 Q583.4375,456.7578 583.4375,455.2539 L583.4375,453.8867 Q583.4375,452.3242 584.1797,450.957 Q584.9414,449.5898 586.25,448.8672 Q587.5781,448.125 589.0625,448.125 Q589.9609,448.125 590.7422,448.4375 Q591.5234,448.75 592.1875,449.375 Z " fill="#000000"/><text fill="#000000" font-family="sans-serif" font-size="15" lengthAdjust="spacing" textLength="66.25" x="615.3125" y="459.8877">TestStore</text><line style="stroke:#A80036;stroke-width:1.875;" x1="380" x2="876.25" y1="473.75" y2="473.75"/><text fill="#000000" font-family="sans-serif" font-size="13.75" lengthAdjust="spacing" textLength="440" x="386.25" y="493.0237">+getNumTestsWaitingForResultsDayOrInterval(beginningDay, endingDay)</text><text fill="#000000" font-family="sans-serif" font-size="13.75" lengthAdjust="spacing" textLength="453.75" x="386.25" y="510.3186">+getNumTestsWaitingForDiagnosisDayOrInterval(beginningDay, endingDay)</text><text fill="#000000" font-family="sans-serif" font-size="13.75" lengthAdjust="spacing" textLength="483.75" x="386.25" y="527.6135">+getNumberOfTestsByIntervalDateOfTestRegistration(beginningDay, endingDay)</text><text fill="#000000" font-family="sans-serif" font-size="13.75" lengthAdjust="spacing" textLength="445" x="386.25" y="544.9084">+getNumberOfTestsByIntervalDateOfDiagnosis(beginningDay, endingDay)</text><!--MD5=[670275f839cd0f6ae295f6f439fd6034]
class CompanyPerformanceAnalysisController--><rect codeLine="20" fill="#FEFECE" filter="url(#fi1dzo80kgnrr)" height="232.9492" id="CompanyPerformanceAnalysisController" style="stroke:#A80036;stroke-width:1.875;" width="320" x="286.875" y="125"/><ellipse cx="305.625" cy="145" fill="#ADD1B2" rx="13.75" ry="13.75" style="stroke:#A80036;stroke-width:1.25;"/><path d="M308.125,140.625 Q308.3789,140 308.6719,139.6875 Q308.9648,139.375 309.2969,139.375 Q309.8828,139.375 310.2539,139.7266 Q310.625,140.0781 310.625,140.8984 L310.625,142.8516 Q310.625,143.6719 310.2734,144.0234 Q309.9219,144.375 309.375,144.375 Q308.8867,144.375 308.5742,144.1602 Q308.2617,143.9453 308.125,143.3789 Q308.0664,142.9883 307.8516,142.7734 Q307.4609,142.3633 306.7578,142.1289 Q306.0547,141.875 305.3516,141.875 Q304.4727,141.875 303.7305,142.2266 Q303.0078,142.5781 302.4414,143.3594 Q301.875,144.1406 301.875,145.2148 L301.875,146.3672 Q301.875,147.6563 302.9297,148.5156 Q303.9844,149.375 305.8594,149.375 Q306.9727,149.375 307.7539,149.1211 Q308.2031,148.9844 308.7109,148.5352 Q309.043,148.2813 309.2188,148.2031 Q309.3945,148.125 309.6094,148.125 Q310.0195,148.125 310.3125,148.457 Q310.625,148.7695 310.625,149.2188 Q310.625,149.6484 310.1953,150.1563 Q309.5703,150.8984 308.5742,151.3086 Q307.2656,151.875 305.6641,151.875 Q303.7891,151.875 302.2852,151.1328 Q301.0742,150.5469 300.2148,149.2773 Q299.375,148.0078 299.375,146.5039 L299.375,145.1367 Q299.375,143.5742 300.1172,142.207 Q300.8789,140.8398 302.1875,140.1172 Q303.5156,139.375 305,139.375 Q305.8984,139.375 306.6797,139.6875 Q307.4609,140 308.125,140.625 Z " fill="#000000"/><text fill="#000000" font-family="sans-serif" font-size="15" lengthAdjust="spacing" textLength="280" x="323.125" y="151.1377">CompanyPerformanceAnalysisController</text><line style="stroke:#A80036;stroke-width:1.875;" x1="288.125" x2="605.625" y1="165" y2="165"/><text fill="#000000" font-family="sans-serif" font-size="13.75" lengthAdjust="spacing" textLength="120" x="294.375" y="184.2737">-Company company</text><text fill="#000000" font-family="sans-serif" font-size="13.75" lengthAdjust="spacing" textLength="275" x="294.375" y="201.5686">-CompanyPerformance companyPerformance</text><line style="stroke:#A80036;stroke-width:1.875;" x1="288.125" x2="605.625" y1="209.5898" y2="209.5898"/><text fill="#000000" font-family="sans-serif" font-size="13.75" lengthAdjust="spacing" textLength="302.5" x="294.375" y="228.8635">+setCompanyPerformance(companyPerformance)</text><text fill="#000000" font-family="sans-serif" font-size="13.75" lengthAdjust="spacing" textLength="162.5" x="294.375" y="246.1584">+getClientsInfoPerInterval()</text><text fill="#000000" font-family="sans-serif" font-size="13.75" lengthAdjust="spacing" textLength="205" x="294.375" y="263.4534">+getNumTestsProcessedInterval()</text><text fill="#000000" font-family="sans-serif" font-size="13.75" lengthAdjust="spacing" textLength="128.75" x="294.375" y="280.7483">+getTestInfoPerDay()</text><text fill="#000000" font-family="sans-serif" font-size="13.75" lengthAdjust="spacing" textLength="138.75" x="294.375" y="298.0432">+getTestInfoPerWeek()</text><text fill="#000000" font-family="sans-serif" font-size="13.75" lengthAdjust="spacing" textLength="141.25" x="294.375" y="315.3381">+getTestInfoPerMonth()</text><text fill="#000000" font-family="sans-serif" font-size="13.75" lengthAdjust="spacing" textLength="135" x="294.375" y="332.6331">+getTestInfoPerYear()</text><text fill="#000000" font-family="sans-serif" font-size="13.75" lengthAdjust="spacing" textLength="242.5" x="294.375" y="349.928">+findWorstSubIntWithChosenAlgorithm()</text><!--MD5=[3404723274ca4ec774b8d2f7e379376f]
class CompanyPerformanceAnalysisUI--><rect codeLine="33" fill="#FEFECE" filter="url(#fi1dzo80kgnrr)" height="40" id="CompanyPerformanceAnalysisUI" style="stroke:#A80036;stroke-width:1.875;" width="267.5" x="313.125" y="8.75"/><ellipse cx="331.875" cy="28.75" fill="#ADD1B2" rx="13.75" ry="13.75" style="stroke:#A80036;stroke-width:1.25;"/><path d="M334.375,24.375 Q334.6289,23.75 334.9219,23.4375 Q335.2148,23.125 335.5469,23.125 Q336.1328,23.125 336.5039,23.4766 Q336.875,23.8281 336.875,24.6484 L336.875,26.6016 Q336.875,27.4219 336.5234,27.7734 Q336.1719,28.125 335.625,28.125 Q335.1367,28.125 334.8242,27.9102 Q334.5117,27.6953 334.375,27.1289 Q334.3164,26.7383 334.1016,26.5234 Q333.7109,26.1133 333.0078,25.8789 Q332.3047,25.625 331.6016,25.625 Q330.7227,25.625 329.9805,25.9766 Q329.2578,26.3281 328.6914,27.1094 Q328.125,27.8906 328.125,28.9648 L328.125,30.1172 Q328.125,31.4063 329.1797,32.2656 Q330.2344,33.125 332.1094,33.125 Q333.2227,33.125 334.0039,32.8711 Q334.4531,32.7344 334.9609,32.2852 Q335.293,32.0313 335.4688,31.9531 Q335.6445,31.875 335.8594,31.875 Q336.2695,31.875 336.5625,32.207 Q336.875,32.5195 336.875,32.9688 Q336.875,33.3984 336.4453,33.9063 Q335.8203,34.6484 334.8242,35.0586 Q333.5156,35.625 331.9141,35.625 Q330.0391,35.625 328.5352,34.8828 Q327.3242,34.2969 326.4648,33.0273 Q325.625,31.7578 325.625,30.2539 L325.625,28.8867 Q325.625,27.3242 326.3672,25.957 Q327.1289,24.5898 328.4375,23.8672 Q329.7656,23.125 331.25,23.125 Q332.1484,23.125 332.9297,23.4375 Q333.7109,23.75 334.375,24.375 Z " fill="#000000"/><text fill="#000000" font-family="sans-serif" font-size="15" lengthAdjust="spacing" textLength="227.5" x="349.375" y="34.8877">CompanyPerformanceAnalysisUI</text><!--MD5=[03e21a3a74a4ec725edc90da8949a6b4]
class SubMaxSumAlgorithms--><rect codeLine="36" fill="#FEFECE" filter="url(#fi1dzo80kgnrr)" height="77.5293" id="SubMaxSumAlgorithms" style="stroke:#A80036;stroke-width:1.875;" width="202.5" x="164.375" y="1326.25"/><ellipse cx="183.125" cy="1351.3672" fill="#B4A7E5" rx="13.75" ry="13.75" style="stroke:#A80036;stroke-width:1.25;"/><path d="M184.375,1347.6172 L184.375,1355.1172 L186.875,1355.1172 L187.4805,1355.1172 L188.125,1355.8984 L188.125,1356.3672 L188.125,1356.8359 L187.4805,1357.6172 L186.875,1357.6172 L179.375,1357.6172 L178.7695,1357.6172 L178.125,1356.8359 L178.125,1356.3672 L178.125,1355.8984 L178.7695,1355.1172 L179.375,1355.1172 L181.875,1355.1172 L181.875,1347.6172 L179.375,1347.6172 L178.7695,1347.6172 L178.125,1346.8359 L178.125,1346.3672 L178.125,1345.8984 L178.7695,1345.1172 L179.375,1345.1172 L186.875,1345.1172 L187.4805,1345.1172 L188.125,1345.8984 L188.125,1346.3672 L188.125,1346.8359 L187.4805,1347.6172 L186.875,1347.6172 L184.375,1347.6172 Z " fill="#000000"/><text fill="#000000" font-family="sans-serif" font-size="15" font-style="italic" lengthAdjust="spacing" textLength="76.25" x="243.75" y="1348.0713">«interface»</text><text fill="#000000" font-family="sans-serif" font-size="15" font-style="italic" lengthAdjust="spacing" textLength="162.5" x="200.625" y="1366.9385">SubMaxSumAlgorithms</text><line style="stroke:#A80036;stroke-width:1.875;" x1="165.625" x2="365.625" y1="1376.4844" y2="1376.4844"/><text fill="#000000" font-family="sans-serif" font-size="13.75" lengthAdjust="spacing" textLength="158.75" x="171.875" y="1395.7581">+findSubMaxSum(interval)</text><!--MD5=[f4a38599b97b911edb1e154f571cf5e4]
class BenchmarkAlgorithmAdapter--><rect codeLine="97" fill="#FEFECE" filter="url(#fi1dzo80kgnrr)" height="67.2949" id="BenchmarkAlgorithmAdapter" style="stroke:#A80036;stroke-width:1.875;" width="236.25" x="8.75" y="1480"/><ellipse cx="27.5" cy="1500" fill="#ADD1B2" rx="13.75" ry="13.75" style="stroke:#A80036;stroke-width:1.25;"/><path d="M30,1495.625 Q30.2539,1495 30.5469,1494.6875 Q30.8398,1494.375 31.1719,1494.375 Q31.7578,1494.375 32.1289,1494.7266 Q32.5,1495.0781 32.5,1495.8984 L32.5,1497.8516 Q32.5,1498.6719 32.1484,1499.0234 Q31.7969,1499.375 31.25,1499.375 Q30.7617,1499.375 30.4492,1499.1602 Q30.1367,1498.9453 30,1498.3789 Q29.9414,1497.9883 29.7266,1497.7734 Q29.3359,1497.3633 28.6328,1497.1289 Q27.9297,1496.875 27.2266,1496.875 Q26.3477,1496.875 25.6055,1497.2266 Q24.8828,1497.5781 24.3164,1498.3594 Q23.75,1499.1406 23.75,1500.2148 L23.75,1501.3672 Q23.75,1502.6563 24.8047,1503.5156 Q25.8594,1504.375 27.7344,1504.375 Q28.8477,1504.375 29.6289,1504.1211 Q30.0781,1503.9844 30.5859,1503.5352 Q30.918,1503.2813 31.0938,1503.2031 Q31.2695,1503.125 31.4844,1503.125 Q31.8945,1503.125 32.1875,1503.457 Q32.5,1503.7695 32.5,1504.2188 Q32.5,1504.6484 32.0703,1505.1563 Q31.4453,1505.8984 30.4492,1506.3086 Q29.1406,1506.875 27.5391,1506.875 Q25.6641,1506.875 24.1602,1506.1328 Q22.9492,1505.5469 22.0898,1504.2773 Q21.25,1503.0078 21.25,1501.5039 L21.25,1500.1367 Q21.25,1498.5742 21.9922,1497.207 Q22.7539,1495.8398 24.0625,1495.1172 Q25.3906,1494.375 26.875,1494.375 Q27.7734,1494.375 28.5547,1494.6875 Q29.3359,1495 30,1495.625 Z " fill="#000000"/><text fill="#000000" font-family="sans-serif" font-size="15" lengthAdjust="spacing" textLength="196.25" x="45" y="1506.1377">BenchmarkAlgorithmAdapter</text><line style="stroke:#A80036;stroke-width:1.875;" x1="10" x2="243.75" y1="1520" y2="1520"/><text fill="#000000" font-family="sans-serif" font-size="13.75" lengthAdjust="spacing" textLength="158.75" x="16.25" y="1539.2737">+findSubMaxSum(interval)</text><!--MD5=[3d195b319a9e341286852cea89c88ec3]
class BruteForceAlgorithmAdapter--><rect codeLine="98" fill="#FEFECE" filter="url(#fi1dzo80kgnrr)" height="67.2949" id="BruteForceAlgorithmAdapter" style="stroke:#A80036;stroke-width:1.875;" width="232.5" x="289.375" y="1480"/><ellipse cx="308.125" cy="1500" fill="#ADD1B2" rx="13.75" ry="13.75" style="stroke:#A80036;stroke-width:1.25;"/><path d="M310.625,1495.625 Q310.8789,1495 311.1719,1494.6875 Q311.4648,1494.375 311.7969,1494.375 Q312.3828,1494.375 312.7539,1494.7266 Q313.125,1495.0781 313.125,1495.8984 L313.125,1497.8516 Q313.125,1498.6719 312.7734,1499.0234 Q312.4219,1499.375 311.875,1499.375 Q311.3867,1499.375 311.0742,1499.1602 Q310.7617,1498.9453 310.625,1498.3789 Q310.5664,1497.9883 310.3516,1497.7734 Q309.9609,1497.3633 309.2578,1497.1289 Q308.5547,1496.875 307.8516,1496.875 Q306.9727,1496.875 306.2305,1497.2266 Q305.5078,1497.5781 304.9414,1498.3594 Q304.375,1499.1406 304.375,1500.2148 L304.375,1501.3672 Q304.375,1502.6563 305.4297,1503.5156 Q306.4844,1504.375 308.3594,1504.375 Q309.4727,1504.375 310.2539,1504.1211 Q310.7031,1503.9844 311.2109,1503.5352 Q311.543,1503.2813 311.7188,1503.2031 Q311.8945,1503.125 312.1094,1503.125 Q312.5195,1503.125 312.8125,1503.457 Q313.125,1503.7695 313.125,1504.2188 Q313.125,1504.6484 312.6953,1505.1563 Q312.0703,1505.8984 311.0742,1506.3086 Q309.7656,1506.875 308.1641,1506.875 Q306.2891,1506.875 304.7852,1506.1328 Q303.5742,1505.5469 302.7148,1504.2773 Q301.875,1503.0078 301.875,1501.5039 L301.875,1500.1367 Q301.875,1498.5742 302.6172,1497.207 Q303.3789,1495.8398 304.6875,1495.1172 Q306.0156,1494.375 307.5,1494.375 Q308.3984,1494.375 309.1797,1494.6875 Q309.9609,1495 310.625,1495.625 Z " fill="#000000"/><text fill="#000000" font-family="sans-serif" font-size="15" lengthAdjust="spacing" textLength="192.5" x="325.625" y="1506.1377">BruteForceAlgorithmAdapter</text><line style="stroke:#A80036;stroke-width:1.875;" x1="290.625" x2="520.625" y1="1520" y2="1520"/><text fill="#000000" font-family="sans-serif" font-size="13.75" lengthAdjust="spacing" textLength="158.75" x="296.875" y="1539.2737">+findSubMaxSum(interval)</text><!--MD5=[bbc84d1aa0e7f30bd67b3f6e81f0f299]
class Sum--><rect codeLine="48" fill="#FEFECE" filter="url(#fi1dzo80kgnrr)" height="67.2949" id="Sum" style="stroke:#A80036;stroke-width:1.875;" width="80" x="86.875" y="1623.75"/><ellipse cx="109" cy="1643.75" fill="#ADD1B2" rx="13.75" ry="13.75" style="stroke:#A80036;stroke-width:1.25;"/><path d="M111.5,1639.375 Q111.7539,1638.75 112.0469,1638.4375 Q112.3398,1638.125 112.6719,1638.125 Q113.2578,1638.125 113.6289,1638.4766 Q114,1638.8281 114,1639.6484 L114,1641.6016 Q114,1642.4219 113.6484,1642.7734 Q113.2969,1643.125 112.75,1643.125 Q112.2617,1643.125 111.9492,1642.9102 Q111.6367,1642.6953 111.5,1642.1289 Q111.4414,1641.7383 111.2266,1641.5234 Q110.8359,1641.1133 110.1328,1640.8789 Q109.4297,1640.625 108.7266,1640.625 Q107.8477,1640.625 107.1055,1640.9766 Q106.3828,1641.3281 105.8164,1642.1094 Q105.25,1642.8906 105.25,1643.9648 L105.25,1645.1172 Q105.25,1646.4063 106.3047,1647.2656 Q107.3594,1648.125 109.2344,1648.125 Q110.3477,1648.125 111.1289,1647.8711 Q111.5781,1647.7344 112.0859,1647.2852 Q112.418,1647.0313 112.5938,1646.9531 Q112.7695,1646.875 112.9844,1646.875 Q113.3945,1646.875 113.6875,1647.207 Q114,1647.5195 114,1647.9688 Q114,1648.3984 113.5703,1648.9063 Q112.9453,1649.6484 111.9492,1650.0586 Q110.6406,1650.625 109.0391,1650.625 Q107.1641,1650.625 105.6602,1649.8828 Q104.4492,1649.2969 103.5898,1648.0273 Q102.75,1646.7578 102.75,1645.2539 L102.75,1643.8867 Q102.75,1642.3242 103.4922,1640.957 Q104.2539,1639.5898 105.5625,1638.8672 Q106.8906,1638.125 108.375,1638.125 Q109.2734,1638.125 110.0547,1638.4375 Q110.8359,1638.75 111.5,1639.375 Z " fill="#000000"/><text fill="#000000" font-family="sans-serif" font-size="15" lengthAdjust="spacing" textLength="32.5" x="127.25" y="1649.8877">Sum</text><line style="stroke:#A80036;stroke-width:1.875;" x1="88.125" x2="165.625" y1="1663.75" y2="1663.75"/><text fill="#000000" font-family="sans-serif" font-size="13.75" lengthAdjust="spacing" textLength="65" x="94.375" y="1683.0237">+Max(seq)</text><!--MD5=[1dec90c14ec2ba3af2708f621be65d00]
class BruteForceAlgorithm--><rect codeLine="52" fill="#FEFECE" filter="url(#fi1dzo80kgnrr)" height="67.2949" id="BruteForceAlgorithm" style="stroke:#A80036;stroke-width:1.875;" width="180" x="315.625" y="1623.75"/><ellipse cx="334.375" cy="1643.75" fill="#ADD1B2" rx="13.75" ry="13.75" style="stroke:#A80036;stroke-width:1.25;"/><path d="M336.875,1639.375 Q337.1289,1638.75 337.4219,1638.4375 Q337.7148,1638.125 338.0469,1638.125 Q338.6328,1638.125 339.0039,1638.4766 Q339.375,1638.8281 339.375,1639.6484 L339.375,1641.6016 Q339.375,1642.4219 339.0234,1642.7734 Q338.6719,1643.125 338.125,1643.125 Q337.6367,1643.125 337.3242,1642.9102 Q337.0117,1642.6953 336.875,1642.1289 Q336.8164,1641.7383 336.6016,1641.5234 Q336.2109,1641.1133 335.5078,1640.8789 Q334.8047,1640.625 334.1016,1640.625 Q333.2227,1640.625 332.4805,1640.9766 Q331.7578,1641.3281 331.1914,1642.1094 Q330.625,1642.8906 330.625,1643.9648 L330.625,1645.1172 Q330.625,1646.4063 331.6797,1647.2656 Q332.7344,1648.125 334.6094,1648.125 Q335.7227,1648.125 336.5039,1647.8711 Q336.9531,1647.7344 337.4609,1647.2852 Q337.793,1647.0313 337.9688,1646.9531 Q338.1445,1646.875 338.3594,1646.875 Q338.7695,1646.875 339.0625,1647.207 Q339.375,1647.5195 339.375,1647.9688 Q339.375,1648.3984 338.9453,1648.9063 Q338.3203,1649.6484 337.3242,1650.0586 Q336.0156,1650.625 334.4141,1650.625 Q332.5391,1650.625 331.0352,1649.8828 Q329.8242,1649.2969 328.9648,1648.0273 Q328.125,1646.7578 328.125,1645.2539 L328.125,1643.8867 Q328.125,1642.3242 328.8672,1640.957 Q329.6289,1639.5898 330.9375,1638.8672 Q332.2656,1638.125 333.75,1638.125 Q334.6484,1638.125 335.4297,1638.4375 Q336.2109,1638.75 336.875,1639.375 Z " fill="#000000"/><text fill="#000000" font-family="sans-serif" font-size="15" lengthAdjust="spacing" textLength="140" x="351.875" y="1649.8877">BruteForceAlgorithm</text><line style="stroke:#A80036;stroke-width:1.875;" x1="316.875" x2="494.375" y1="1663.75" y2="1663.75"/><text fill="#000000" font-family="sans-serif" font-size="13.75" lengthAdjust="spacing" textLength="65" x="323.125" y="1683.0237">+Max(seq)</text><!--MD5=[dcf2a5f2a10777fb61a46b3b0525c1db]
class CompanyPerformance--><rect codeLine="56" fill="#FEFECE" filter="url(#fi1dzo80kgnrr)" height="578.8477" id="CompanyPerformance" style="stroke:#A80036;stroke-width:1.875;" width="461.25" x="35" y="650"/><ellipse cx="182.8125" cy="670" fill="#ADD1B2" rx="13.75" ry="13.75" style="stroke:#A80036;stroke-width:1.25;"/><path d="M185.3125,665.625 Q185.5664,665 185.8594,664.6875 Q186.1523,664.375 186.4844,664.375 Q187.0703,664.375 187.4414,664.7266 Q187.8125,665.0781 187.8125,665.8984 L187.8125,667.8516 Q187.8125,668.6719 187.4609,669.0234 Q187.1094,669.375 186.5625,669.375 Q186.0742,669.375 185.7617,669.1602 Q185.4492,668.9453 185.3125,668.3789 Q185.2539,667.9883 185.0391,667.7734 Q184.6484,667.3633 183.9453,667.1289 Q183.2422,666.875 182.5391,666.875 Q181.6602,666.875 180.918,667.2266 Q180.1953,667.5781 179.6289,668.3594 Q179.0625,669.1406 179.0625,670.2148 L179.0625,671.3672 Q179.0625,672.6563 180.1172,673.5156 Q181.1719,674.375 183.0469,674.375 Q184.1602,674.375 184.9414,674.1211 Q185.3906,673.9844 185.8984,673.5352 Q186.2305,673.2813 186.4063,673.2031 Q186.582,673.125 186.7969,673.125 Q187.207,673.125 187.5,673.457 Q187.8125,673.7695 187.8125,674.2188 Q187.8125,674.6484 187.3828,675.1563 Q186.7578,675.8984 185.7617,676.3086 Q184.4531,676.875 182.8516,676.875 Q180.9766,676.875 179.4727,676.1328 Q178.2617,675.5469 177.4023,674.2773 Q176.5625,673.0078 176.5625,671.5039 L176.5625,670.1367 Q176.5625,668.5742 177.3047,667.207 Q178.0664,665.8398 179.375,665.1172 Q180.7031,664.375 182.1875,664.375 Q183.0859,664.375 183.8672,664.6875 Q184.6484,665 185.3125,665.625 Z " fill="#000000"/><text fill="#000000" font-family="sans-serif" font-size="15" lengthAdjust="spacing" textLength="155" x="208.4375" y="676.1377">CompanyPerformance</text><line style="stroke:#A80036;stroke-width:1.875;" x1="36.25" x2="495" y1="690" y2="690"/><text fill="#000000" font-family="sans-serif" font-size="13.75" lengthAdjust="spacing" textLength="120" x="42.5" y="709.2737">-Company company</text><text fill="#000000" font-family="sans-serif" font-size="13.75" lengthAdjust="spacing" textLength="121.25" x="42.5" y="726.5686">-Date beginningDate</text><text fill="#000000" font-family="sans-serif" font-size="13.75" lengthAdjust="spacing" textLength="103.75" x="42.5" y="743.8635">-Date endingDate</text><text fill="#000000" font-family="sans-serif" font-size="13.75" lengthAdjust="spacing" textLength="108.75" x="42.5" y="761.1584">-String chosenAlg</text><text fill="#000000" font-family="sans-serif" font-size="13.75" lengthAdjust="spacing" textLength="87.5" x="42.5" y="778.4534">-int clientsNum</text><text fill="#000000" font-family="sans-serif" font-size="13.75" lengthAdjust="spacing" textLength="132.5" x="42.5" y="795.7483">-int processTestsNum</text><text fill="#000000" font-family="sans-serif" font-size="13.75" lengthAdjust="spacing" textLength="170" x="42.5" y="813.0432">-ArrayList&lt;int[]&gt; testInfoDay</text><text fill="#000000" font-family="sans-serif" font-size="13.75" lengthAdjust="spacing" textLength="180" x="42.5" y="830.3381">-ArrayList&lt;int[]&gt; testInfoWeek</text><text fill="#000000" font-family="sans-serif" font-size="13.75" lengthAdjust="spacing" textLength="182.5" x="42.5" y="847.6331">-ArrayList&lt;int[]&gt; testInfoMonth</text><text fill="#000000" font-family="sans-serif" font-size="13.75" lengthAdjust="spacing" textLength="176.25" x="42.5" y="864.928">-ArrayList&lt;int[]&gt; testInfoYear</text><text fill="#000000" font-family="sans-serif" font-size="13.75" lengthAdjust="spacing" textLength="117.5" x="42.5" y="882.2229">-Date[] worstSubInt</text><text fill="#000000" font-family="sans-serif" font-size="13.75" lengthAdjust="spacing" textLength="82.5" x="42.5" y="899.5178">+setCompany</text><line style="stroke:#A80036;stroke-width:1.875;" x1="36.25" x2="495" y1="907.5391" y2="907.5391"/><text fill="#000000" font-family="sans-serif" font-size="13.75" lengthAdjust="spacing" textLength="446.25" x="42.5" y="926.8127">+CompanyPerformance(beginningDate, endingDate, chosenAlg, company)</text><text fill="#000000" font-family="sans-serif" font-size="13.75" lengthAdjust="spacing" textLength="102.5" x="42.5" y="944.1077">+getClientsNum()</text><text fill="#000000" font-family="sans-serif" font-size="13.75" lengthAdjust="spacing" textLength="146.25" x="42.5" y="961.4026">+getProcessTestsNum()</text><text fill="#000000" font-family="sans-serif" font-size="13.75" lengthAdjust="spacing" textLength="108.75" x="42.5" y="978.6975">+getTestInfoDay()</text><text fill="#000000" font-family="sans-serif" font-size="13.75" lengthAdjust="spacing" textLength="118.75" x="42.5" y="995.9924">+getTestInfoWeek()</text><text fill="#000000" font-family="sans-serif" font-size="13.75" lengthAdjust="spacing" textLength="121.25" x="42.5" y="1013.2874">+getTestInfoMonth()</text><text fill="#000000" font-family="sans-serif" font-size="13.75" lengthAdjust="spacing" textLength="115" x="42.5" y="1030.5823">+getTestInfoYear()</text><text fill="#000000" font-family="sans-serif" font-size="13.75" lengthAdjust="spacing" textLength="110" x="42.5" y="1047.8772">+getWorstSubInt()</text><text fill="#000000" font-family="sans-serif" font-size="13.75" lengthAdjust="spacing" textLength="192.5" x="42.5" y="1065.1721">+getClientsInfoPerInterval(days)</text><text fill="#000000" font-family="sans-serif" font-size="13.75" lengthAdjust="spacing" textLength="235" x="42.5" y="1082.467">+getNumTestsProcessedInterval(days)</text><text fill="#000000" font-family="sans-serif" font-size="13.75" lengthAdjust="spacing" textLength="158.75" x="42.5" y="1099.762">+getTestInfoPerDay(days)</text><text fill="#000000" font-family="sans-serif" font-size="13.75" lengthAdjust="spacing" textLength="168.75" x="42.5" y="1117.0569">+getTestInfoPerWeek(days)</text><text fill="#000000" font-family="sans-serif" font-size="13.75" lengthAdjust="spacing" textLength="171.25" x="42.5" y="1134.3518">+getTestInfoPerMonth(days)</text><text fill="#000000" font-family="sans-serif" font-size="13.75" lengthAdjust="spacing" textLength="165" x="42.5" y="1151.6467">+getTestInfoPerYear(days)</text><text fill="#000000" font-family="sans-serif" font-size="13.75" lengthAdjust="spacing" textLength="67.5" x="42.5" y="1168.9417">+getDays()</text><text fill="#000000" font-family="sans-serif" font-size="13.75" lengthAdjust="spacing" textLength="157.5" x="42.5" y="1186.2366">+makeIntervalArray(days)</text><text fill="#000000" font-family="sans-serif" font-size="13.75" lengthAdjust="spacing" textLength="381.25" x="42.5" y="1203.5315">+findWorstSubIntWithChosenAlgorithm(days, chosenAlgorithm)</text><text fill="#000000" font-family="sans-serif" font-size="13.75" lengthAdjust="spacing" textLength="288.75" x="42.5" y="1220.8264">+getChosenAlgorithmAdapter(chosenAlgorithm)</text><!--MD5=[5b29af9deb3324aeb9c231daa5002dba]
link CompanyPerformanceAnalysisUI to CompanyPerformanceAnalysisController--><path codeLine="89" d="M446.875,49.0125 C446.875,65.55 446.875,91.0625 446.875,118.125 " fill="none" id="CompanyPerformanceAnalysisUI-to-CompanyPerformanceAnalysisController" style="stroke:#A80036;stroke-width:1.25;stroke-dasharray:7.0,7.0;"/><polygon fill="#A80036" points="446.875,124.65,451.875,113.4,446.875,118.4,441.875,113.4,446.875,124.65" style="stroke:#A80036;stroke-width:1.25;"/><!--MD5=[5ce4db4ce32c27ecea6aaa74e26a0164]
link CompanyPerformanceAnalysisController to Company--><path codeLine="90" d="M363.15,357.7 C344.675,383.1125 325.825,409.05 309.675,431.2625 " fill="none" id="CompanyPerformanceAnalysisController-to-Company" style="stroke:#A80036;stroke-width:1.25;stroke-dasharray:7.0,7.0;"/><polygon fill="#A80036" points="305.6375,436.825,316.3007,430.6721,309.3157,431.7719,308.2158,424.7869,305.6375,436.825" style="stroke:#A80036;stroke-width:1.25;"/><!--MD5=[d03b593c12afa5f3c42671c11d6ed63b]
link CompanyPerformanceAnalysisController to TestStore--><path codeLine="91" d="M530.6,357.7 C548.2125,381.9375 566.1875,406.65 581.8125,428.1625 " fill="none" id="CompanyPerformanceAnalysisController-to-TestStore" style="stroke:#A80036;stroke-width:1.25;stroke-dasharray:7.0,7.0;"/><polygon fill="#A80036" points="585.7375,433.55,583.1592,421.5119,582.0593,428.4969,575.0743,427.3971,585.7375,433.55" style="stroke:#A80036;stroke-width:1.25;"/><!--MD5=[3300167ae7d23235b62a0a68c7d5f569]
link CompanyPerformance to SubMaxSumAlgorithms--><path codeLine="92" d="M265.625,1229.2875 C265.625,1264.2 265.625,1295.875 265.625,1319.7 " fill="none" id="CompanyPerformance-to-SubMaxSumAlgorithms" style="stroke:#A80036;stroke-width:1.25;"/><polygon fill="#A80036" points="265.625,1326.2,270.625,1314.95,265.625,1319.95,260.625,1314.95,265.625,1326.2" style="stroke:#A80036;stroke-width:1.25;"/><polygon fill="#000000" points="271.875,1283.9697,275.5487,1272.6634,268.2013,1272.6634,271.875,1283.9697" style="stroke:#000000;stroke-width:1.25;"/><text fill="#000000" font-family="sans-serif" font-size="16.25" lengthAdjust="spacing" textLength="97.5" x="283.125" y="1284.3689">makes use of</text><text fill="#000000" font-family="sans-serif" font-size="16.25" lengthAdjust="spacing" textLength="6.25" x="259.2725" y="1256.0029">*</text><text fill="#000000" font-family="sans-serif" font-size="16.25" lengthAdjust="spacing" textLength="8.75" x="255.918" y="1312.4388">1</text><!--MD5=[6926410afba6dbb7662f77bf9a4beef8]
link BenchmarkAlgorithmAdapter to Sum--><path codeLine="93" d="M126.875,1547.7625 C126.875,1568.4375 126.875,1595.275 126.875,1617.075 " fill="none" id="BenchmarkAlgorithmAdapter-to-Sum" style="stroke:#A80036;stroke-width:1.25;"/><polygon fill="#A80036" points="126.875,1623.6625,131.875,1612.4125,126.875,1617.4125,121.875,1612.4125,126.875,1623.6625" style="stroke:#A80036;stroke-width:1.25;"/><!--MD5=[5c0b00d376c45fe49ede70ccf937dd89]
link BruteForceAlgorithmAdapter to BruteForceAlgorithm--><path codeLine="94" d="M405.625,1547.7625 C405.625,1568.4375 405.625,1595.275 405.625,1617.075 " fill="none" id="BruteForceAlgorithmAdapter-to-BruteForceAlgorithm" style="stroke:#A80036;stroke-width:1.25;"/><polygon fill="#A80036" points="405.625,1623.6625,410.625,1612.4125,405.625,1617.4125,400.625,1612.4125,405.625,1623.6625" style="stroke:#A80036;stroke-width:1.25;"/><!--MD5=[3f3cec389b63617d5cf5a63fd6d0d0a0]
link Company to CompanyPerformance--><path codeLine="95" d="M265.625,549.675 C265.625,575.275 265.625,607.825 265.625,643.1625 " fill="none" id="Company-to-CompanyPerformance" style="stroke:#A80036;stroke-width:1.25;"/><polygon fill="#A80036" points="265.625,649.8,270.625,638.55,265.625,643.55,260.625,638.55,265.625,649.8" style="stroke:#A80036;stroke-width:1.25;"/><polygon fill="#000000" points="271.875,607.7197,275.5487,596.4134,268.2013,596.4134,271.875,607.7197" style="stroke:#000000;stroke-width:1.25;"/><text fill="#000000" font-family="sans-serif" font-size="16.25" lengthAdjust="spacing" textLength="26.25" x="283.125" y="608.1189">has</text><text fill="#000000" font-family="sans-serif" font-size="16.25" lengthAdjust="spacing" textLength="8.75" x="256.2871" y="575.5574">1</text><text fill="#000000" font-family="sans-serif" font-size="16.25" lengthAdjust="spacing" textLength="6.25" x="259.2725" y="636.8447">*</text><!--MD5=[7500d493c54aadfc564551571970942a]
reverse link SubMaxSumAlgorithms to BenchmarkAlgorithmAdapter--><path d="M212.2125,1422.55 C193.7875,1441.9625 173.7875,1463.0625 157.775,1479.9375 " fill="none" id="SubMaxSumAlgorithms-backto-BenchmarkAlgorithmAdapter" style="stroke:#A80036;stroke-width:1.25;stroke-dasharray:7.0,7.0;"/><polygon fill="none" points="206.3375,1416.025,229.8875,1403.9125,219.0375,1428.075,206.3375,1416.025" style="stroke:#A80036;stroke-width:1.25;"/><!--MD5=[2746a4793daa6de3b91732e823f67982]
reverse link SubMaxSumAlgorithms to BruteForceAlgorithmAdapter--><path d="M319.525,1422.55 C338.1125,1441.9625 358.3,1463.0625 374.45,1479.9375 " fill="none" id="SubMaxSumAlgorithms-backto-BruteForceAlgorithmAdapter" style="stroke:#A80036;stroke-width:1.25;stroke-dasharray:7.0,7.0;"/><polygon fill="none" points="312.65,1428.025,301.675,1403.9125,325.2875,1415.925,312.65,1428.025" style="stroke:#A80036;stroke-width:1.25;"/><!--MD5=[12c7e8a775cbfd76d20ab56120276d63]
@startuml
'skinparam linetype ortho
hide empty methods
hide empty attributes
'left to right direction
skinparam classAttributeIconSize 0

class Company {
    - String designation
    - TestStore testStore
    + getTestStore()
}

class TestStore {
    + getNumTestsWaitingForResultsDayOrInterval(beginningDay, endingDay)
    + getNumTestsWaitingForDiagnosisDayOrInterval(beginningDay, endingDay)
    + getNumberOfTestsByIntervalDateOfTestRegistration(beginningDay, endingDay)
    + getNumberOfTestsByIntervalDateOfDiagnosis(beginningDay, endingDay)
}

class CompanyPerformanceAnalysisController{
    - Company company
    - CompanyPerformance companyPerformance
    + setCompanyPerformance(companyPerformance)
    + getClientsInfoPerInterval()
    + getNumTestsProcessedInterval()
    + getTestInfoPerDay()
    + getTestInfoPerWeek()
    + getTestInfoPerMonth()
    + getTestInfoPerYear()
    + findWorstSubIntWithChosenAlgorithm()
}

class CompanyPerformanceAnalysisUI{
}

interface SubMaxSumAlgorithms <<interface>> {
    + findSubMaxSum(interval)
}

class BenchmarkAlgorithmAdapter{
    + findSubMaxSum(interval)
}

class BruteForceAlgorithmAdapter{
    + findSubMaxSum(interval)
}

class Sum{
    + Max(seq)
}

class BruteForceAlgorithm{
    + Max(seq)
}

class CompanyPerformance{
    - Company company
    - Date beginningDate
    - Date endingDate
    - String chosenAlg
    - int clientsNum
    - int processTestsNum
    - ArrayList<int[]> testInfoDay
    - ArrayList<int[]> testInfoWeek
    - ArrayList<int[]> testInfoMonth
    - ArrayList<int[]> testInfoYear
    - Date[] worstSubInt
    + setCompany
    + CompanyPerformance(beginningDate, endingDate, chosenAlg, company)
    + getClientsNum()
    + getProcessTestsNum()
    + getTestInfoDay()
    + getTestInfoWeek()
    + getTestInfoMonth()
    + getTestInfoYear()
    + getWorstSubInt()
    + getClientsInfoPerInterval(days)
    + getNumTestsProcessedInterval(days)
    + getTestInfoPerDay(days)
    + getTestInfoPerWeek(days)
    + getTestInfoPerMonth(days)
    + getTestInfoPerYear(days)
    + getDays()
    + makeIntervalArray(days)
    + findWorstSubIntWithChosenAlgorithm(days, chosenAlgorithm)
    + getChosenAlgorithmAdapter(chosenAlgorithm)
}

CompanyPerformanceAnalysisUI ..> CompanyPerformanceAnalysisController
CompanyPerformanceAnalysisController ..> Company
CompanyPerformanceAnalysisController ..> TestStore
CompanyPerformance "*" - -> "1" SubMaxSumAlgorithms : makes use of >
BenchmarkAlgorithmAdapter - -> Sum
BruteForceAlgorithmAdapter - -> BruteForceAlgorithm
Company "1" - -> "*" CompanyPerformance : has >

class BenchmarkAlgorithmAdapter implements SubMaxSumAlgorithms
class BruteForceAlgorithmAdapter implements SubMaxSumAlgorithms

@enduml

@startuml
hide empty methods
hide empty attributes
skinparam classAttributeIconSize 0

class Company {
    - String designation
    - TestStore testStore
    + getTestStore()
}

class TestStore {
    + getNumTestsWaitingForResultsDayOrInterval(beginningDay, endingDay)
    + getNumTestsWaitingForDiagnosisDayOrInterval(beginningDay, endingDay)
    + getNumberOfTestsByIntervalDateOfTestRegistration(beginningDay, endingDay)
    + getNumberOfTestsByIntervalDateOfDiagnosis(beginningDay, endingDay)
}

class CompanyPerformanceAnalysisController{
    - Company company
    - CompanyPerformance companyPerformance
    + setCompanyPerformance(companyPerformance)
    + getClientsInfoPerInterval()
    + getNumTestsProcessedInterval()
    + getTestInfoPerDay()
    + getTestInfoPerWeek()
    + getTestInfoPerMonth()
    + getTestInfoPerYear()
    + findWorstSubIntWithChosenAlgorithm()
}

class CompanyPerformanceAnalysisUI{
}

interface SubMaxSumAlgorithms <<interface>> {
    + findSubMaxSum(interval)
}

class BenchmarkAlgorithmAdapter{
    + findSubMaxSum(interval)
}

class BruteForceAlgorithmAdapter{
    + findSubMaxSum(interval)
}

class Sum{
    + Max(seq)
}

class BruteForceAlgorithm{
    + Max(seq)
}

class CompanyPerformance{
    - Company company
    - Date beginningDate
    - Date endingDate
    - String chosenAlg
    - int clientsNum
    - int processTestsNum
    - ArrayList<int[]> testInfoDay
    - ArrayList<int[]> testInfoWeek
    - ArrayList<int[]> testInfoMonth
    - ArrayList<int[]> testInfoYear
    - Date[] worstSubInt
    + setCompany
    + CompanyPerformance(beginningDate, endingDate, chosenAlg, company)
    + getClientsNum()
    + getProcessTestsNum()
    + getTestInfoDay()
    + getTestInfoWeek()
    + getTestInfoMonth()
    + getTestInfoYear()
    + getWorstSubInt()
    + getClientsInfoPerInterval(days)
    + getNumTestsProcessedInterval(days)
    + getTestInfoPerDay(days)
    + getTestInfoPerWeek(days)
    + getTestInfoPerMonth(days)
    + getTestInfoPerYear(days)
    + getDays()
    + makeIntervalArray(days)
    + findWorstSubIntWithChosenAlgorithm(days, chosenAlgorithm)
    + getChosenAlgorithmAdapter(chosenAlgorithm)
}

CompanyPerformanceAnalysisUI ..> CompanyPerformanceAnalysisController
CompanyPerformanceAnalysisController ..> Company
CompanyPerformanceAnalysisController ..> TestStore
CompanyPerformance "*" - -> "1" SubMaxSumAlgorithms : makes use of >
BenchmarkAlgorithmAdapter - -> Sum
BruteForceAlgorithmAdapter - -> BruteForceAlgorithm
Company "1" - -> "*" CompanyPerformance : has >

class BenchmarkAlgorithmAdapter implements SubMaxSumAlgorithms
class BruteForceAlgorithmAdapter implements SubMaxSumAlgorithms

@enduml

PlantUML version 1.2021.7(Sun May 23 13:40:07 BST 2021)
(GPL source distribution)
Java Runtime: OpenJDK Runtime Environment
JVM: Dynamic Code Evolution 64-Bit Server VM
Default Encoding: Cp1252
Language: pt
Country: PT
--></g></svg>