<?xml version="1.0" encoding="UTF-8" standalone="no"?><svg xmlns="http://www.w3.org/2000/svg" xmlns:xlink="http://www.w3.org/1999/xlink" contentScriptType="application/ecmascript" contentStyleType="text/css" height="336px" preserveAspectRatio="none" style="width:1179px;height:336px;" version="1.1" viewBox="0 0 1179 336" width="1179.75px" zoomAndPan="magnify"><defs><filter height="300%" id="fpy7yopprsk3o" width="300%" x="-1" y="-1"><feGaussianBlur result="blurOut" stdDeviation="1.5"/><feColorMatrix in="blurOut" result="blurOut2" type="matrix" values="0 0 0 0 0 0 0 0 0 0 0 0 0 0 0 0 0 0 .4 0"/><feOffset dx="3.0" dy="3.0" in="blurOut2" result="blurOut3"/><feBlend in="SourceGraphic" in2="blurOut3" mode="normal"/></filter></defs><g><!--MD5=[df38be88ccee13e832d6fafd6288a4ca]
class Test--><rect codeLine="7" fill="#FEFECE" filter="url(#fpy7yopprsk3o)" height="92.2617" id="Test" style="stroke:#A80036;stroke-width:1.125;" width="102" x="402.75" y="147"/><ellipse cx="441.5625" cy="159" fill="#ADD1B2" rx="8.25" ry="8.25" style="stroke:#A80036;stroke-width:0.75;"/><path d="M443.0625,156.375 Q443.2148,156 443.3906,155.8125 Q443.5664,155.625 443.7656,155.625 Q444.1172,155.625 444.3398,155.8359 Q444.5625,156.0469 444.5625,156.5391 L444.5625,157.7109 Q444.5625,158.2031 444.3516,158.4141 Q444.1406,158.625 443.8125,158.625 Q443.5195,158.625 443.332,158.4961 Q443.1445,158.3672 443.0625,158.0273 Q443.0273,157.793 442.8984,157.6641 Q442.6641,157.418 442.2422,157.2773 Q441.8203,157.125 441.3984,157.125 Q440.8711,157.125 440.4258,157.3359 Q439.9922,157.5469 439.6523,158.0156 Q439.3125,158.4844 439.3125,159.1289 L439.3125,159.8203 Q439.3125,160.5938 439.9453,161.1094 Q440.5781,161.625 441.7031,161.625 Q442.3711,161.625 442.8398,161.4727 Q443.1094,161.3906 443.4141,161.1211 Q443.6133,160.9688 443.7188,160.9219 Q443.8242,160.875 443.9531,160.875 Q444.1992,160.875 444.375,161.0742 Q444.5625,161.2617 444.5625,161.5313 Q444.5625,161.7891 444.3047,162.0938 Q443.9297,162.5391 443.332,162.7852 Q442.5469,163.125 441.5859,163.125 Q440.4609,163.125 439.5586,162.6797 Q438.832,162.3281 438.3164,161.5664 Q437.8125,160.8047 437.8125,159.9023 L437.8125,159.082 Q437.8125,158.1445 438.2578,157.3242 Q438.7148,156.5039 439.5,156.0703 Q440.2969,155.625 441.1875,155.625 Q441.7266,155.625 442.1953,155.8125 Q442.6641,156 443.0625,156.375 Z " fill="#000000"/><text fill="#000000" font-family="sans-serif" font-size="9" lengthAdjust="spacing" textLength="18" x="456.9375" y="162.6826">Test</text><line style="stroke:#A80036;stroke-width:1.125;" x1="403.5" x2="504" y1="171" y2="171"/><text fill="#000000" font-family="sans-serif" font-size="8.25" lengthAdjust="spacing" textLength="21" x="407.25" y="182.5642">-code</text><text fill="#000000" font-family="sans-serif" font-size="8.25" lengthAdjust="spacing" textLength="36" x="407.25" y="192.9412">-NhsCode</text><text fill="#000000" font-family="sans-serif" font-size="8.25" lengthAdjust="spacing" textLength="86.25" x="407.25" y="203.3181">-dateOfTestRegistration</text><text fill="#000000" font-family="sans-serif" font-size="8.25" lengthAdjust="spacing" textLength="93" x="407.25" y="213.6951">-dateOfSamplesCollection</text><text fill="#000000" font-family="sans-serif" font-size="8.25" lengthAdjust="spacing" textLength="91.5" x="407.25" y="224.072">-dateOfChemicalAnalysis</text><text fill="#000000" font-family="sans-serif" font-size="8.25" lengthAdjust="spacing" textLength="63" x="407.25" y="234.449">-dateOfDiagnosis</text><!--MD5=[02e4b9b7573f1156f41e60aa5b4e25a4]
class Company--><rect codeLine="16" fill="#FEFECE" filter="url(#fpy7yopprsk3o)" height="40.377" id="Company" style="stroke:#A80036;stroke-width:1.125;" width="63.75" x="11.25" y="211.125"/><ellipse cx="22.5" cy="223.125" fill="#ADD1B2" rx="8.25" ry="8.25" style="stroke:#A80036;stroke-width:0.75;"/><path d="M24,220.5 Q24.1523,220.125 24.3281,219.9375 Q24.5039,219.75 24.7031,219.75 Q25.0547,219.75 25.2773,219.9609 Q25.5,220.1719 25.5,220.6641 L25.5,221.8359 Q25.5,222.3281 25.2891,222.5391 Q25.0781,222.75 24.75,222.75 Q24.457,222.75 24.2695,222.6211 Q24.082,222.4922 24,222.1523 Q23.9648,221.918 23.8359,221.7891 Q23.6016,221.543 23.1797,221.4023 Q22.7578,221.25 22.3359,221.25 Q21.8086,221.25 21.3633,221.4609 Q20.9297,221.6719 20.5898,222.1406 Q20.25,222.6094 20.25,223.2539 L20.25,223.9453 Q20.25,224.7188 20.8828,225.2344 Q21.5156,225.75 22.6406,225.75 Q23.3086,225.75 23.7773,225.5977 Q24.0469,225.5156 24.3516,225.2461 Q24.5508,225.0938 24.6563,225.0469 Q24.7617,225 24.8906,225 Q25.1367,225 25.3125,225.1992 Q25.5,225.3867 25.5,225.6563 Q25.5,225.9141 25.2422,226.2188 Q24.8672,226.6641 24.2695,226.9102 Q23.4844,227.25 22.5234,227.25 Q21.3984,227.25 20.4961,226.8047 Q19.7695,226.4531 19.2539,225.6914 Q18.75,224.9297 18.75,224.0273 L18.75,223.207 Q18.75,222.2695 19.1953,221.4492 Q19.6523,220.6289 20.4375,220.1953 Q21.2344,219.75 22.125,219.75 Q22.6641,219.75 23.1328,219.9375 Q23.6016,220.125 24,220.5 Z " fill="#000000"/><text fill="#000000" font-family="sans-serif" font-size="9" lengthAdjust="spacing" textLength="39.75" x="33" y="226.8076">Company</text><line style="stroke:#A80036;stroke-width:1.125;" x1="12" x2="74.25" y1="235.125" y2="235.125"/><text fill="#000000" font-family="sans-serif" font-size="8.25" lengthAdjust="spacing" textLength="44.25" x="15.75" y="246.6892">-designation</text><!--MD5=[36afb6bbd95a8ac778c4537c55a683d5]
class ParameterCategory--><rect codeLine="20" fill="#FEFECE" filter="url(#fpy7yopprsk3o)" height="50.7539" id="ParameterCategory" style="stroke:#A80036;stroke-width:1.125;" width="104.25" x="1065" y="247.875"/><ellipse cx="1076.25" cy="259.875" fill="#ADD1B2" rx="8.25" ry="8.25" style="stroke:#A80036;stroke-width:0.75;"/><path d="M1077.75,257.25 Q1077.9023,256.875 1078.0781,256.6875 Q1078.2539,256.5 1078.4531,256.5 Q1078.8047,256.5 1079.0273,256.7109 Q1079.25,256.9219 1079.25,257.4141 L1079.25,258.5859 Q1079.25,259.0781 1079.0391,259.2891 Q1078.8281,259.5 1078.5,259.5 Q1078.207,259.5 1078.0195,259.3711 Q1077.832,259.2422 1077.75,258.9023 Q1077.7148,258.668 1077.5859,258.5391 Q1077.3516,258.293 1076.9297,258.1523 Q1076.5078,258 1076.0859,258 Q1075.5586,258 1075.1133,258.2109 Q1074.6797,258.4219 1074.3398,258.8906 Q1074,259.3594 1074,260.0039 L1074,260.6953 Q1074,261.4688 1074.6328,261.9844 Q1075.2656,262.5 1076.3906,262.5 Q1077.0586,262.5 1077.5273,262.3477 Q1077.7969,262.2656 1078.1016,261.9961 Q1078.3008,261.8438 1078.4063,261.7969 Q1078.5117,261.75 1078.6406,261.75 Q1078.8867,261.75 1079.0625,261.9492 Q1079.25,262.1367 1079.25,262.4063 Q1079.25,262.6641 1078.9922,262.9688 Q1078.6172,263.4141 1078.0195,263.6602 Q1077.2344,264 1076.2734,264 Q1075.1484,264 1074.2461,263.5547 Q1073.5195,263.2031 1073.0039,262.4414 Q1072.5,261.6797 1072.5,260.7773 L1072.5,259.957 Q1072.5,259.0195 1072.9453,258.1992 Q1073.4023,257.3789 1074.1875,256.9453 Q1074.9844,256.5 1075.875,256.5 Q1076.4141,256.5 1076.8828,256.6875 Q1077.3516,256.875 1077.75,257.25 Z " fill="#000000"/><text fill="#000000" font-family="sans-serif" font-size="9" lengthAdjust="spacing" textLength="80.25" x="1086.75" y="263.5576">ParameterCategory</text><line style="stroke:#A80036;stroke-width:1.125;" x1="1065.75" x2="1168.5" y1="271.875" y2="271.875"/><text fill="#000000" font-family="sans-serif" font-size="8.25" lengthAdjust="spacing" textLength="21" x="1069.5" y="283.4392">-code</text><text fill="#000000" font-family="sans-serif" font-size="8.25" lengthAdjust="spacing" textLength="22.5" x="1069.5" y="293.8162">-name</text><!--MD5=[03960189e81aa2c066c762ffabbee709]
class Receptionist--><rect codeLine="25" fill="#FEFECE" filter="url(#fpy7yopprsk3o)" height="24" id="Receptionist" style="stroke:#A80036;stroke-width:1.125;" width="75.75" x="5.25" y="153.375"/><ellipse cx="16.5" cy="165.375" fill="#ADD1B2" rx="8.25" ry="8.25" style="stroke:#A80036;stroke-width:0.75;"/><path d="M18,162.75 Q18.1523,162.375 18.3281,162.1875 Q18.5039,162 18.7031,162 Q19.0547,162 19.2773,162.2109 Q19.5,162.4219 19.5,162.9141 L19.5,164.0859 Q19.5,164.5781 19.2891,164.7891 Q19.0781,165 18.75,165 Q18.457,165 18.2695,164.8711 Q18.082,164.7422 18,164.4023 Q17.9648,164.168 17.8359,164.0391 Q17.6016,163.793 17.1797,163.6523 Q16.7578,163.5 16.3359,163.5 Q15.8086,163.5 15.3633,163.7109 Q14.9297,163.9219 14.5898,164.3906 Q14.25,164.8594 14.25,165.5039 L14.25,166.1953 Q14.25,166.9688 14.8828,167.4844 Q15.5156,168 16.6406,168 Q17.3086,168 17.7773,167.8477 Q18.0469,167.7656 18.3516,167.4961 Q18.5508,167.3438 18.6563,167.2969 Q18.7617,167.25 18.8906,167.25 Q19.1367,167.25 19.3125,167.4492 Q19.5,167.6367 19.5,167.9063 Q19.5,168.1641 19.2422,168.4688 Q18.8672,168.9141 18.2695,169.1602 Q17.4844,169.5 16.5234,169.5 Q15.3984,169.5 14.4961,169.0547 Q13.7695,168.7031 13.2539,167.9414 Q12.75,167.1797 12.75,166.2773 L12.75,165.457 Q12.75,164.5195 13.1953,163.6992 Q13.6523,162.8789 14.4375,162.4453 Q15.2344,162 16.125,162 Q16.6641,162 17.1328,162.1875 Q17.6016,162.375 18,162.75 Z " fill="#000000"/><text fill="#000000" font-family="sans-serif" font-size="9" lengthAdjust="spacing" textLength="51.75" x="27" y="169.0576">Receptionist</text><!--MD5=[9681492165142af2a4a3a169d90ee8d4]
class Sample--><rect codeLine="27" fill="#FEFECE" filter="url(#fpy7yopprsk3o)" height="40.377" id="Sample" style="stroke:#A80036;stroke-width:1.125;" width="56.25" x="662.625" y="195.375"/><ellipse cx="673.875" cy="207.375" fill="#ADD1B2" rx="8.25" ry="8.25" style="stroke:#A80036;stroke-width:0.75;"/><path d="M675.375,204.75 Q675.5273,204.375 675.7031,204.1875 Q675.8789,204 676.0781,204 Q676.4297,204 676.6523,204.2109 Q676.875,204.4219 676.875,204.9141 L676.875,206.0859 Q676.875,206.5781 676.6641,206.7891 Q676.4531,207 676.125,207 Q675.832,207 675.6445,206.8711 Q675.457,206.7422 675.375,206.4023 Q675.3398,206.168 675.2109,206.0391 Q674.9766,205.793 674.5547,205.6523 Q674.1328,205.5 673.7109,205.5 Q673.1836,205.5 672.7383,205.7109 Q672.3047,205.9219 671.9648,206.3906 Q671.625,206.8594 671.625,207.5039 L671.625,208.1953 Q671.625,208.9688 672.2578,209.4844 Q672.8906,210 674.0156,210 Q674.6836,210 675.1523,209.8477 Q675.4219,209.7656 675.7266,209.4961 Q675.9258,209.3438 676.0313,209.2969 Q676.1367,209.25 676.2656,209.25 Q676.5117,209.25 676.6875,209.4492 Q676.875,209.6367 676.875,209.9063 Q676.875,210.1641 676.6172,210.4688 Q676.2422,210.9141 675.6445,211.1602 Q674.8594,211.5 673.8984,211.5 Q672.7734,211.5 671.8711,211.0547 Q671.1445,210.7031 670.6289,209.9414 Q670.125,209.1797 670.125,208.2773 L670.125,207.457 Q670.125,206.5195 670.5703,205.6992 Q671.0273,204.8789 671.8125,204.4453 Q672.6094,204 673.5,204 Q674.0391,204 674.5078,204.1875 Q674.9766,204.375 675.375,204.75 Z " fill="#000000"/><text fill="#000000" font-family="sans-serif" font-size="9" lengthAdjust="spacing" textLength="32.25" x="684.375" y="211.0576">Sample</text><line style="stroke:#A80036;stroke-width:1.125;" x1="663.375" x2="718.125" y1="219.375" y2="219.375"/><text fill="#000000" font-family="sans-serif" font-size="8.25" lengthAdjust="spacing" textLength="33.75" x="667.125" y="230.9392">-barCode</text><!--MD5=[ed6624c6556d5e7b1bd23032162d20b7]
class Client--><rect codeLine="31" fill="#FEFECE" filter="url(#fpy7yopprsk3o)" height="113.0156" id="Client" style="stroke:#A80036;stroke-width:1.125;" width="68.25" x="656.625" y="5.25"/><ellipse cx="676.9875" cy="17.25" fill="#ADD1B2" rx="8.25" ry="8.25" style="stroke:#A80036;stroke-width:0.75;"/><path d="M678.4875,14.625 Q678.6398,14.25 678.8156,14.0625 Q678.9914,13.875 679.1906,13.875 Q679.5422,13.875 679.7648,14.0859 Q679.9875,14.2969 679.9875,14.7891 L679.9875,15.9609 Q679.9875,16.4531 679.7766,16.6641 Q679.5656,16.875 679.2375,16.875 Q678.9445,16.875 678.757,16.7461 Q678.5695,16.6172 678.4875,16.2773 Q678.4523,16.043 678.3234,15.9141 Q678.0891,15.668 677.6672,15.5273 Q677.2453,15.375 676.8234,15.375 Q676.2961,15.375 675.8508,15.5859 Q675.4172,15.7969 675.0773,16.2656 Q674.7375,16.7344 674.7375,17.3789 L674.7375,18.0703 Q674.7375,18.8438 675.3703,19.3594 Q676.0031,19.875 677.1281,19.875 Q677.7961,19.875 678.2648,19.7227 Q678.5344,19.6406 678.8391,19.3711 Q679.0383,19.2188 679.1438,19.1719 Q679.2492,19.125 679.3781,19.125 Q679.6242,19.125 679.8,19.3242 Q679.9875,19.5117 679.9875,19.7813 Q679.9875,20.0391 679.7297,20.3438 Q679.3547,20.7891 678.757,21.0352 Q677.9719,21.375 677.0109,21.375 Q675.8859,21.375 674.9836,20.9297 Q674.257,20.5781 673.7414,19.8164 Q673.2375,19.0547 673.2375,18.1523 L673.2375,17.332 Q673.2375,16.3945 673.6828,15.5742 Q674.1398,14.7539 674.925,14.3203 Q675.7219,13.875 676.6125,13.875 Q677.1516,13.875 677.6203,14.0625 Q678.0891,14.25 678.4875,14.625 Z " fill="#000000"/><text fill="#000000" font-family="sans-serif" font-size="9" lengthAdjust="spacing" textLength="24" x="689.5125" y="20.9326">Client</text><line style="stroke:#A80036;stroke-width:1.125;" x1="657.375" x2="724.125" y1="29.25" y2="29.25"/><text fill="#000000" font-family="sans-serif" font-size="8.25" lengthAdjust="spacing" textLength="22.5" x="661.125" y="40.8142">-name</text><text fill="#000000" font-family="sans-serif" font-size="8.25" lengthAdjust="spacing" textLength="59.25" x="661.125" y="51.1912">-citizenCardNum</text><text fill="#000000" font-family="sans-serif" font-size="8.25" lengthAdjust="spacing" textLength="32.25" x="661.125" y="61.5681">-nhsNum</text><text fill="#000000" font-family="sans-serif" font-size="8.25" lengthAdjust="spacing" textLength="35.25" x="661.125" y="71.9451">-birthDate</text><text fill="#000000" font-family="sans-serif" font-size="8.25" lengthAdjust="spacing" textLength="16.5" x="661.125" y="82.322">-sex</text><text fill="#000000" font-family="sans-serif" font-size="8.25" lengthAdjust="spacing" textLength="36" x="661.125" y="92.699">-taxIdNum</text><text fill="#000000" font-family="sans-serif" font-size="8.25" lengthAdjust="spacing" textLength="41.25" x="661.125" y="103.0759">-phoneNum</text><text fill="#000000" font-family="sans-serif" font-size="8.25" lengthAdjust="spacing" textLength="21" x="661.125" y="113.4529">-email</text><!--MD5=[0f07739f46effee96e095e9c408da841]
class TestParameter--><rect codeLine="41" fill="#FEFECE" filter="url(#fpy7yopprsk3o)" height="24" id="TestParameter" style="stroke:#A80036;stroke-width:1.125;" width="85.5" x="648" y="145.125"/><ellipse cx="659.25" cy="157.125" fill="#ADD1B2" rx="8.25" ry="8.25" style="stroke:#A80036;stroke-width:0.75;"/><path d="M660.75,154.5 Q660.9023,154.125 661.0781,153.9375 Q661.2539,153.75 661.4531,153.75 Q661.8047,153.75 662.0273,153.9609 Q662.25,154.1719 662.25,154.6641 L662.25,155.8359 Q662.25,156.3281 662.0391,156.5391 Q661.8281,156.75 661.5,156.75 Q661.207,156.75 661.0195,156.6211 Q660.832,156.4922 660.75,156.1523 Q660.7148,155.918 660.5859,155.7891 Q660.3516,155.543 659.9297,155.4023 Q659.5078,155.25 659.0859,155.25 Q658.5586,155.25 658.1133,155.4609 Q657.6797,155.6719 657.3398,156.1406 Q657,156.6094 657,157.2539 L657,157.9453 Q657,158.7188 657.6328,159.2344 Q658.2656,159.75 659.3906,159.75 Q660.0586,159.75 660.5273,159.5977 Q660.7969,159.5156 661.1016,159.2461 Q661.3008,159.0938 661.4063,159.0469 Q661.5117,159 661.6406,159 Q661.8867,159 662.0625,159.1992 Q662.25,159.3867 662.25,159.6563 Q662.25,159.9141 661.9922,160.2188 Q661.6172,160.6641 661.0195,160.9102 Q660.2344,161.25 659.2734,161.25 Q658.1484,161.25 657.2461,160.8047 Q656.5195,160.4531 656.0039,159.6914 Q655.5,158.9297 655.5,158.0273 L655.5,157.207 Q655.5,156.2695 655.9453,155.4492 Q656.4023,154.6289 657.1875,154.1953 Q657.9844,153.75 658.875,153.75 Q659.4141,153.75 659.8828,153.9375 Q660.3516,154.125 660.75,154.5 Z " fill="#000000"/><text fill="#000000" font-family="sans-serif" font-size="9" lengthAdjust="spacing" textLength="61.5" x="669.75" y="160.8076">TestParameter</text><!--MD5=[4e608140b854dae633589343bce77383]
class TestParameterResult--><rect codeLine="42" fill="#FEFECE" filter="url(#fpy7yopprsk3o)" height="61.1309" id="TestParameterResult" style="stroke:#A80036;stroke-width:1.125;" width="112.5" x="826.5" y="193.875"/><ellipse cx="837.75" cy="205.875" fill="#ADD1B2" rx="8.25" ry="8.25" style="stroke:#A80036;stroke-width:0.75;"/><path d="M839.25,203.25 Q839.4023,202.875 839.5781,202.6875 Q839.7539,202.5 839.9531,202.5 Q840.3047,202.5 840.5273,202.7109 Q840.75,202.9219 840.75,203.4141 L840.75,204.5859 Q840.75,205.0781 840.5391,205.2891 Q840.3281,205.5 840,205.5 Q839.707,205.5 839.5195,205.3711 Q839.332,205.2422 839.25,204.9023 Q839.2148,204.668 839.0859,204.5391 Q838.8516,204.293 838.4297,204.1523 Q838.0078,204 837.5859,204 Q837.0586,204 836.6133,204.2109 Q836.1797,204.4219 835.8398,204.8906 Q835.5,205.3594 835.5,206.0039 L835.5,206.6953 Q835.5,207.4688 836.1328,207.9844 Q836.7656,208.5 837.8906,208.5 Q838.5586,208.5 839.0273,208.3477 Q839.2969,208.2656 839.6016,207.9961 Q839.8008,207.8438 839.9063,207.7969 Q840.0117,207.75 840.1406,207.75 Q840.3867,207.75 840.5625,207.9492 Q840.75,208.1367 840.75,208.4063 Q840.75,208.6641 840.4922,208.9688 Q840.1172,209.4141 839.5195,209.6602 Q838.7344,210 837.7734,210 Q836.6484,210 835.7461,209.5547 Q835.0195,209.2031 834.5039,208.4414 Q834,207.6797 834,206.7773 L834,205.957 Q834,205.0195 834.4453,204.1992 Q834.9023,203.3789 835.6875,202.9453 Q836.4844,202.5 837.375,202.5 Q837.9141,202.5 838.3828,202.6875 Q838.8516,202.875 839.25,203.25 Z " fill="#000000"/><text fill="#000000" font-family="sans-serif" font-size="9" lengthAdjust="spacing" textLength="88.5" x="848.25" y="209.5576">TestParameterResult</text><line style="stroke:#A80036;stroke-width:1.125;" x1="827.25" x2="938.25" y1="217.875" y2="217.875"/><text fill="#000000" font-family="sans-serif" font-size="8.25" lengthAdjust="spacing" textLength="39" x="831" y="229.4392">-createdAt</text><text fill="#000000" font-family="sans-serif" font-size="8.25" lengthAdjust="spacing" textLength="22.5" x="831" y="239.8162">-value</text><text fill="#000000" font-family="sans-serif" font-size="8.25" lengthAdjust="spacing" textLength="24.75" x="831" y="250.1931">-metric</text><!--MD5=[aeb3272166074d8737a70b61b1e71682]
class TestType--><rect codeLine="47" fill="#FEFECE" filter="url(#fpy7yopprsk3o)" height="61.1309" id="TestType" style="stroke:#A80036;stroke-width:1.125;" width="79.5" x="651" y="264.375"/><ellipse cx="670.35" cy="276.375" fill="#ADD1B2" rx="8.25" ry="8.25" style="stroke:#A80036;stroke-width:0.75;"/><path d="M671.85,273.75 Q672.0023,273.375 672.1781,273.1875 Q672.3539,273 672.5531,273 Q672.9047,273 673.1273,273.2109 Q673.35,273.4219 673.35,273.9141 L673.35,275.0859 Q673.35,275.5781 673.1391,275.7891 Q672.9281,276 672.6,276 Q672.307,276 672.1195,275.8711 Q671.932,275.7422 671.85,275.4023 Q671.8148,275.168 671.6859,275.0391 Q671.4516,274.793 671.0297,274.6523 Q670.6078,274.5 670.1859,274.5 Q669.6586,274.5 669.2133,274.7109 Q668.7797,274.9219 668.4398,275.3906 Q668.1,275.8594 668.1,276.5039 L668.1,277.1953 Q668.1,277.9688 668.7328,278.4844 Q669.3656,279 670.4906,279 Q671.1586,279 671.6273,278.8477 Q671.8969,278.7656 672.2016,278.4961 Q672.4008,278.3438 672.5062,278.2969 Q672.6117,278.25 672.7406,278.25 Q672.9867,278.25 673.1625,278.4492 Q673.35,278.6367 673.35,278.9063 Q673.35,279.1641 673.0922,279.4688 Q672.7172,279.9141 672.1195,280.1602 Q671.3344,280.5 670.3734,280.5 Q669.2484,280.5 668.3461,280.0547 Q667.6195,279.7031 667.1039,278.9414 Q666.6,278.1797 666.6,277.2773 L666.6,276.457 Q666.6,275.5195 667.0453,274.6992 Q667.5023,273.8789 668.2875,273.4453 Q669.0844,273 669.975,273 Q670.5141,273 670.9828,273.1875 Q671.4516,273.375 671.85,273.75 Z " fill="#000000"/><text fill="#000000" font-family="sans-serif" font-size="9" lengthAdjust="spacing" textLength="37.5" x="682.65" y="280.0576">TestType</text><line style="stroke:#A80036;stroke-width:1.125;" x1="651.75" x2="729.75" y1="288.375" y2="288.375"/><text fill="#000000" font-family="sans-serif" font-size="8.25" lengthAdjust="spacing" textLength="21.75" x="655.5" y="299.9392">-Code</text><text fill="#000000" font-family="sans-serif" font-size="8.25" lengthAdjust="spacing" textLength="43.5" x="655.5" y="310.3162">-Description</text><text fill="#000000" font-family="sans-serif" font-size="8.25" lengthAdjust="spacing" textLength="70.5" x="655.5" y="320.6931">-Collecting methods</text><!--MD5=[1f6362a5c8f21d8d6a0fce68f3a92a4e]
class Parameter--><rect codeLine="53" fill="#FEFECE" filter="url(#fpy7yopprsk3o)" height="61.1309" id="Parameter" style="stroke:#A80036;stroke-width:1.125;" width="67.5" x="849" y="106.125"/><ellipse cx="860.25" cy="118.125" fill="#ADD1B2" rx="8.25" ry="8.25" style="stroke:#A80036;stroke-width:0.75;"/><path d="M861.75,115.5 Q861.9023,115.125 862.0781,114.9375 Q862.2539,114.75 862.4531,114.75 Q862.8047,114.75 863.0273,114.9609 Q863.25,115.1719 863.25,115.6641 L863.25,116.8359 Q863.25,117.3281 863.0391,117.5391 Q862.8281,117.75 862.5,117.75 Q862.207,117.75 862.0195,117.6211 Q861.832,117.4922 861.75,117.1523 Q861.7148,116.918 861.5859,116.7891 Q861.3516,116.543 860.9297,116.4023 Q860.5078,116.25 860.0859,116.25 Q859.5586,116.25 859.1133,116.4609 Q858.6797,116.6719 858.3398,117.1406 Q858,117.6094 858,118.2539 L858,118.9453 Q858,119.7188 858.6328,120.2344 Q859.2656,120.75 860.3906,120.75 Q861.0586,120.75 861.5273,120.5977 Q861.7969,120.5156 862.1016,120.2461 Q862.3008,120.0938 862.4063,120.0469 Q862.5117,120 862.6406,120 Q862.8867,120 863.0625,120.1992 Q863.25,120.3867 863.25,120.6563 Q863.25,120.9141 862.9922,121.2188 Q862.6172,121.6641 862.0195,121.9102 Q861.2344,122.25 860.2734,122.25 Q859.1484,122.25 858.2461,121.8047 Q857.5195,121.4531 857.0039,120.6914 Q856.5,119.9297 856.5,119.0273 L856.5,118.207 Q856.5,117.2695 856.9453,116.4492 Q857.4023,115.6289 858.1875,115.1953 Q858.9844,114.75 859.875,114.75 Q860.4141,114.75 860.8828,114.9375 Q861.3516,115.125 861.75,115.5 Z " fill="#000000"/><text fill="#000000" font-family="sans-serif" font-size="9" lengthAdjust="spacing" textLength="43.5" x="870.75" y="121.8076">Parameter</text><line style="stroke:#A80036;stroke-width:1.125;" x1="849.75" x2="915.75" y1="130.125" y2="130.125"/><text fill="#000000" font-family="sans-serif" font-size="8.25" lengthAdjust="spacing" textLength="21" x="853.5" y="141.6892">-code</text><text fill="#000000" font-family="sans-serif" font-size="8.25" lengthAdjust="spacing" textLength="42" x="853.5" y="152.0662">-shortName</text><text fill="#000000" font-family="sans-serif" font-size="8.25" lengthAdjust="spacing" textLength="42.75" x="853.5" y="162.4431">-description</text><!--MD5=[1934a092c0e7d4da7dc7075b6f4b6b03]
class ClinicalAnalysisLaboratory--><rect codeLine="59" fill="#FEFECE" filter="url(#fpy7yopprsk3o)" height="40.377" id="ClinicalAnalysisLaboratory" style="stroke:#A80036;stroke-width:1.125;" width="132.75" x="176.25" y="277.875"/><ellipse cx="187.5" cy="289.875" fill="#ADD1B2" rx="8.25" ry="8.25" style="stroke:#A80036;stroke-width:0.75;"/><path d="M189,287.25 Q189.1523,286.875 189.3281,286.6875 Q189.5039,286.5 189.7031,286.5 Q190.0547,286.5 190.2773,286.7109 Q190.5,286.9219 190.5,287.4141 L190.5,288.5859 Q190.5,289.0781 190.2891,289.2891 Q190.0781,289.5 189.75,289.5 Q189.457,289.5 189.2695,289.3711 Q189.082,289.2422 189,288.9023 Q188.9648,288.668 188.8359,288.5391 Q188.6016,288.293 188.1797,288.1523 Q187.7578,288 187.3359,288 Q186.8086,288 186.3633,288.2109 Q185.9297,288.4219 185.5898,288.8906 Q185.25,289.3594 185.25,290.0039 L185.25,290.6953 Q185.25,291.4688 185.8828,291.9844 Q186.5156,292.5 187.6406,292.5 Q188.3086,292.5 188.7773,292.3477 Q189.0469,292.2656 189.3516,291.9961 Q189.5508,291.8438 189.6563,291.7969 Q189.7617,291.75 189.8906,291.75 Q190.1367,291.75 190.3125,291.9492 Q190.5,292.1367 190.5,292.4063 Q190.5,292.6641 190.2422,292.9688 Q189.8672,293.4141 189.2695,293.6602 Q188.4844,294 187.5234,294 Q186.3984,294 185.4961,293.5547 Q184.7695,293.2031 184.2539,292.4414 Q183.75,291.6797 183.75,290.7773 L183.75,289.957 Q183.75,289.0195 184.1953,288.1992 Q184.6523,287.3789 185.4375,286.9453 Q186.2344,286.5 187.125,286.5 Q187.6641,286.5 188.1328,286.6875 Q188.6016,286.875 189,287.25 Z " fill="#000000"/><text fill="#000000" font-family="sans-serif" font-size="9" lengthAdjust="spacing" textLength="108.75" x="198" y="293.5576">ClinicalAnalysisLaboratory</text><line style="stroke:#A80036;stroke-width:1.125;" x1="177" x2="308.25" y1="301.875" y2="301.875"/><text fill="#000000" font-family="sans-serif" font-size="8.25" lengthAdjust="spacing" textLength="46.5" x="180.75" y="313.4392">-laboratoryID</text><!--MD5=[f00dbe8c0302c6aec2cb26b3c659c8fc]
class Report--><rect fill="#FEFECE" filter="url(#fpy7yopprsk3o)" height="24" id="Report" style="stroke:#A80036;stroke-width:1.125;" width="51.75" x="216.75" y="161.625"/><ellipse cx="228" cy="173.625" fill="#ADD1B2" rx="8.25" ry="8.25" style="stroke:#A80036;stroke-width:0.75;"/><path d="M229.5,171 Q229.6523,170.625 229.8281,170.4375 Q230.0039,170.25 230.2031,170.25 Q230.5547,170.25 230.7773,170.4609 Q231,170.6719 231,171.1641 L231,172.3359 Q231,172.8281 230.7891,173.0391 Q230.5781,173.25 230.25,173.25 Q229.957,173.25 229.7695,173.1211 Q229.582,172.9922 229.5,172.6523 Q229.4648,172.418 229.3359,172.2891 Q229.1016,172.043 228.6797,171.9023 Q228.2578,171.75 227.8359,171.75 Q227.3086,171.75 226.8633,171.9609 Q226.4297,172.1719 226.0898,172.6406 Q225.75,173.1094 225.75,173.7539 L225.75,174.4453 Q225.75,175.2188 226.3828,175.7344 Q227.0156,176.25 228.1406,176.25 Q228.8086,176.25 229.2773,176.0977 Q229.5469,176.0156 229.8516,175.7461 Q230.0508,175.5938 230.1563,175.5469 Q230.2617,175.5 230.3906,175.5 Q230.6367,175.5 230.8125,175.6992 Q231,175.8867 231,176.1563 Q231,176.4141 230.7422,176.7188 Q230.3672,177.1641 229.7695,177.4102 Q228.9844,177.75 228.0234,177.75 Q226.8984,177.75 225.9961,177.3047 Q225.2695,176.9531 224.7539,176.1914 Q224.25,175.4297 224.25,174.5273 L224.25,173.707 Q224.25,172.7695 224.6953,171.9492 Q225.1523,171.1289 225.9375,170.6953 Q226.7344,170.25 227.625,170.25 Q228.1641,170.25 228.6328,170.4375 Q229.1016,170.625 229.5,171 Z " fill="#000000"/><text fill="#000000" font-family="sans-serif" font-size="9" lengthAdjust="spacing" textLength="27.75" x="238.5" y="177.3076">Report</text><!--MD5=[e981d4f96c4342412d1e68160b30cf70]
link Test to TestType--><path codeLine="63" d="M504.84,223.02 C512.2575,227.0325 519.885,230.94 527.25,234.375 C568.38,253.5675 617.4,271.185 650.82,282.4575 " fill="none" id="Test-TestType" style="stroke:#A80036;stroke-width:0.75;"/><polygon fill="#000000" points="550.9731,229.171,545.5214,224.5713,543.859,228.6542,550.9731,229.171" style="stroke:#000000;stroke-width:0.75;"/><text fill="#000000" font-family="sans-serif" font-size="9.75" lengthAdjust="spacing" textLength="54" x="554.25" y="231.7463">classified as</text><text fill="#000000" font-family="sans-serif" font-size="9.75" lengthAdjust="spacing" textLength="3.75" x="510.633" y="237.0811">*</text><text fill="#000000" font-family="sans-serif" font-size="9.75" lengthAdjust="spacing" textLength="5.25" x="639.8517" y="291.7254">1</text><!--MD5=[63d25d625ab355317a074a623d33bba8]
link Report to Test--><path codeLine="64" d="M268.6575,175.98 C301.71,179.055 360.3525,184.5075 402.63,188.4375 " fill="none" id="Report-Test" style="stroke:#A80036;stroke-width:0.75;"/><polygon fill="#000000" points="348.7339,176.354,342.1833,173.5312,341.7751,177.9207,348.7339,176.354" style="stroke:#000000;stroke-width:0.75;"/><text fill="#000000" font-family="sans-serif" font-size="9.75" lengthAdjust="spacing" textLength="18" x="351.75" y="179.9963">is of</text><text fill="#000000" font-family="sans-serif" font-size="9.75" lengthAdjust="spacing" textLength="5.25" x="274.5681" y="187.8517">1</text><text fill="#000000" font-family="sans-serif" font-size="9.75" lengthAdjust="spacing" textLength="5.25" x="391.5016" y="198.7162">1</text><!--MD5=[3994f36c72829dbcddd1cf7021dddf61]
link Test to Client--><path codeLine="65" d="M504.7725,162.0525 C512.265,157.56 519.93,153.0525 527.25,148.875 C571.35,123.6975 623.235,96.3525 656.355,79.17 " fill="none" id="Test-Client" style="stroke:#A80036;stroke-width:0.75;"/><polygon fill="#000000" points="549.6653,87.9578,542.6557,89.2783,544.7706,93.1463,549.6653,87.9578" style="stroke:#000000;stroke-width:0.75;"/><text fill="#000000" font-family="sans-serif" font-size="9.75" lengthAdjust="spacing" textLength="56.25" x="553.125" y="93.7463">requested by</text><text fill="#000000" font-family="sans-serif" font-size="9.75" lengthAdjust="spacing" textLength="3.75" x="510.8888" y="169.2894">*</text><text fill="#000000" font-family="sans-serif" font-size="9.75" lengthAdjust="spacing" textLength="5.25" x="645.4363" y="92.8965">1</text><!--MD5=[e8b34c2e6517a986175307f5599f058a]
link Receptionist to Test--><path codeLine="66" d="M81.12,159.21 C107.58,155.1525 143.985,150.2175 176.25,148.125 C266.97,142.2375 293.3775,136.32 380.25,163.125 C387.5625,165.3825 395.1525,168.0825 402.555,170.9325 " fill="none" id="Receptionist-Test" style="stroke:#A80036;stroke-width:0.75;"/><polygon fill="#000000" points="225.7475,137.1435,219.0485,134.6935,218.8879,139.099,225.7475,137.1435" style="stroke:#000000;stroke-width:0.75;"/><text fill="#000000" font-family="sans-serif" font-size="9.75" lengthAdjust="spacing" textLength="37.5" x="228.75" y="140.9963">registers</text><text fill="#000000" font-family="sans-serif" font-size="9.75" lengthAdjust="spacing" textLength="5.25" x="87.0861" y="169.3265">1</text><text fill="#000000" font-family="sans-serif" font-size="9.75" lengthAdjust="spacing" textLength="3.75" x="393.0005" y="179.2966">*</text><!--MD5=[6df8849671cb880f6936e94aa30db6f9]
link Parameter to ParameterCategory--><path codeLine="67" d="M916.62,156.285 C957.615,180.3225 1027.56,221.3175 1072.86,247.8675 " fill="none" id="Parameter-ParameterCategory" style="stroke:#A80036;stroke-width:0.75;"/><polygon fill="#000000" points="968.4852,180.9032,963.7473,175.5711,961.518,179.3742,968.4852,180.9032" style="stroke:#000000;stroke-width:0.75;"/><text fill="#000000" font-family="sans-serif" font-size="9.75" lengthAdjust="spacing" textLength="69.75" x="972" y="182.9963">presented under</text><text fill="#000000" font-family="sans-serif" font-size="9.75" lengthAdjust="spacing" textLength="3.75" x="922.5403" y="170.6673">*</text><text fill="#000000" font-family="sans-serif" font-size="9.75" lengthAdjust="spacing" textLength="5.25" x="1057.9389" y="239.543">1</text><!--MD5=[8aaf0efd5e2f3824be7ea3e488dcc283]
link TestType to ParameterCategory--><path codeLine="68" d="M730.5225,293.13 C807.45,289.1925 978.675,280.425 1064.805,276.015 " fill="none" id="TestType-ParameterCategory" style="stroke:#A80036;stroke-width:0.75;"/><polygon fill="#000000" points="848.6201,275.5651,841.7324,273.7107,841.9579,278.1133,848.6201,275.5651" style="stroke:#000000;stroke-width:0.75;"/><text fill="#000000" font-family="sans-serif" font-size="9.75" lengthAdjust="spacing" textLength="72" x="851.625" y="279.7463">characterized by</text><text fill="#000000" font-family="sans-serif" font-size="9.75" lengthAdjust="spacing" textLength="5.25" x="736.4846" y="303.859">1</text><text fill="#000000" font-family="sans-serif" font-size="9.75" lengthAdjust="spacing" textLength="15" x="1043.9165" y="287.0119">1..*</text><!--MD5=[b72ac8ab7fb5921fceb5036a3902baea]
link Test to Sample--><path codeLine="69" d="M504.7875,205.185 C512.2875,206.64 519.945,207.9375 527.25,208.875 C574.515,214.9275 630.0675,215.9325 662.52,215.9175 " fill="none" id="Test-Sample" style="stroke:#A80036;stroke-width:0.75;"/><polygon fill="#000000" points="561.3663,202.5114,554.7478,199.8518,554.4486,204.25,561.3663,202.5114" style="stroke:#000000;stroke-width:0.75;"/><text fill="#000000" font-family="sans-serif" font-size="9.75" lengthAdjust="spacing" textLength="33.75" x="564.375" y="206.2463">collects</text><text fill="#000000" font-family="sans-serif" font-size="9.75" lengthAdjust="spacing" textLength="5.25" x="510.6568" y="217.2954">1</text><text fill="#000000" font-family="sans-serif" font-size="9.75" lengthAdjust="spacing" textLength="15" x="641.6022" y="227.1131">1..*</text><!--MD5=[f24c888dadeb846430474fe80a58922b]
link Test to TestParameter--><path codeLine="70" d="M505.02,185.4 C547.59,178.8975 607.8,169.6875 647.8275,163.575 " fill="none" id="Test-TestParameter" style="stroke:#A80036;stroke-width:0.75;"/><polygon fill="#000000" points="534.707,161.1903,527.668,160.0363,528.334,164.3941,534.707,161.1903" style="stroke:#000000;stroke-width:0.75;"/><text fill="#000000" font-family="sans-serif" font-size="9.75" lengthAdjust="spacing" textLength="87" x="537.75" y="165.7463">requests analysis of</text><text fill="#000000" font-family="sans-serif" font-size="9.75" lengthAdjust="spacing" textLength="5.25" x="510.9148" y="195.3464">1</text><text fill="#000000" font-family="sans-serif" font-size="9.75" lengthAdjust="spacing" textLength="15" x="626.9974" y="175.1511">1..*</text><!--MD5=[92e8e476cc9e9004a7125f53a120ec97]
link TestParameter to Parameter--><path codeLine="71" d="M733.545,152.655 C768.2775,148.965 816.9075,143.7975 848.9175,140.3925 " fill="none" id="TestParameter-Parameter" style="stroke:#A80036;stroke-width:0.75;"/><polygon fill="#000000" points="764.229,138.8605,757.2502,137.3856,757.7161,141.7693,764.229,138.8605" style="stroke:#000000;stroke-width:0.75;"/><text fill="#000000" font-family="sans-serif" font-size="9.75" lengthAdjust="spacing" textLength="35.25" x="767.25" y="143.2463">refers to</text><text fill="#000000" font-family="sans-serif" font-size="9.75" lengthAdjust="spacing" textLength="3.75" x="739.5475" y="162.9996">*</text><text fill="#000000" font-family="sans-serif" font-size="9.75" lengthAdjust="spacing" textLength="5.25" x="837.8571" y="152.0811">1</text><!--MD5=[0e00e25ac6b8c14659aaff2cf7e5df08]
link TestParameter to TestParameterResult--><path codeLine="72" d="M725.5575,169.1925 C753.4875,179.0925 793.5975,193.305 826.2075,204.855 " fill="none" id="TestParameter-TestParameterResult" style="stroke:#A80036;stroke-width:0.75;"/><polygon fill="#000000" points="763.2847,175.7593,757.6265,171.416,756.1542,175.5712,763.2847,175.7593" style="stroke:#000000;stroke-width:0.75;"/><text fill="#000000" font-family="sans-serif" font-size="9.75" lengthAdjust="spacing" textLength="36.75" x="766.5" y="178.4963">contains</text><text fill="#000000" font-family="sans-serif" font-size="9.75" lengthAdjust="spacing" textLength="5.25" x="730.968" y="185.3424">1</text><text fill="#000000" font-family="sans-serif" font-size="9.75" lengthAdjust="spacing" textLength="16.5" x="803.9369" y="213.7781">0..1</text><!--MD5=[2eb961b30663a01bbfd8b4b9b8950031]
link ClinicalAnalysisLaboratory to TestType--><path codeLine="73" d="M309.0375,297.6825 C403.3575,297.0525 574.26,295.905 650.9325,295.3875 " fill="none" id="ClinicalAnalysisLaboratory-TestType" style="stroke:#A80036;stroke-width:0.75;"/><polygon fill="#000000" points="436.8749,289.2317,430.0765,287.0731,430.1061,291.4813,436.8749,289.2317" style="stroke:#000000;stroke-width:0.75;"/><text fill="#000000" font-family="sans-serif" font-size="9.75" lengthAdjust="spacing" textLength="37.5" x="439.875" y="293.2463">operates</text><text fill="#000000" font-family="sans-serif" font-size="9.75" lengthAdjust="spacing" textLength="5.25" x="314.9704" y="308.2981">1</text><text fill="#000000" font-family="sans-serif" font-size="9.75" lengthAdjust="spacing" textLength="15" x="629.8699" y="306.3518">1..*</text><!--MD5=[d480452e7d21fe720ba0207568bc7434]
link ClinicalAnalysisLaboratory to Test--><path codeLine="74" d="M309.1125,285.3975 C332.4825,279.255 358.4025,270.51 380.25,258.375 C389.745,253.1025 399.0375,246.39 407.64,239.2875 " fill="none" id="ClinicalAnalysisLaboratory-Test" style="stroke:#A80036;stroke-width:0.75;"/><polygon fill="#000000" points="338.6465,250.1673,331.5679,251.0464,333.4365,255.0392,338.6465,250.1673" style="stroke:#000000;stroke-width:0.75;"/><text fill="#000000" font-family="sans-serif" font-size="9.75" lengthAdjust="spacing" textLength="37.5" x="342" y="255.7463">performs</text><text fill="#000000" font-family="sans-serif" font-size="9.75" lengthAdjust="spacing" textLength="5.25" x="315.0519" y="294.9573">1</text><text fill="#000000" font-family="sans-serif" font-size="9.75" lengthAdjust="spacing" textLength="15" x="386.4413" y="255.4547">1..*</text><!--MD5=[7e4bc624457760b649895ff2ead938fa]
link Company to Test--><path codeLine="75" d="M75.15,229.6425 C124.785,226.77 224.6325,220.4625 309,211.875 C340.1025,208.71 374.8575,204.21 402.435,200.415 " fill="none" id="Company-Test" style="stroke:#A80036;stroke-width:0.75;"/><polygon fill="#000000" points="224.6101,204.9233,217.6572,203.3312,218.0493,207.7221,224.6101,204.9233" style="stroke:#000000;stroke-width:0.75;"/><text fill="#000000" font-family="sans-serif" font-size="9.75" lengthAdjust="spacing" textLength="39.75" x="227.625" y="209.2463">conducts</text><text fill="#000000" font-family="sans-serif" font-size="9.75" lengthAdjust="spacing" textLength="5.25" x="81.1055" y="240.5305">1</text><text fill="#000000" font-family="sans-serif" font-size="9.75" lengthAdjust="spacing" textLength="3.75" x="392.8673" y="212.0037">*</text><!--MD5=[6cd0a3af2322bf46f6c633408da71c74]
link Receptionist to ClinicalAnalysisLaboratory--><path codeLine="76" d="M63.15,177.3975 C85.425,191.49 122.9625,215.85 153.75,238.875 C164.175,246.6675 165.6825,250.02 176.25,257.625 C185.9175,264.585 196.8,271.5975 206.88,277.7925 " fill="none" id="Receptionist-ClinicalAnalysisLaboratory" style="stroke:#A80036;stroke-width:0.75;"/><polygon fill="#000000" points="110.3243,201.4042,106.025,195.7125,103.5006,199.3266,110.3243,201.4042" style="stroke:#000000;stroke-width:0.75;"/><text fill="#000000" font-family="sans-serif" font-size="9.75" lengthAdjust="spacing" textLength="39" x="114" y="203.2463">works for</text><text fill="#000000" font-family="sans-serif" font-size="9.75" lengthAdjust="spacing" textLength="15" x="52.2989" y="193.5325">1..*</text><text fill="#000000" font-family="sans-serif" font-size="9.75" lengthAdjust="spacing" textLength="5.25" x="192.7569" y="269.8692">1</text><!--MD5=[aafc5d8a5829a6a8d6dc892cb1ff5d24]
link Company to ClinicalAnalysisLaboratory--><path codeLine="77" d="M75.0825,246.54 C84.135,250.65 94.1175,254.925 103.5,258.375 C126.84,266.9625 152.94,274.875 176.13,281.3475 " fill="none" id="Company-ClinicalAnalysisLaboratory" style="stroke:#A80036;stroke-width:0.75;"/><polygon fill="#000000" points="119.0455,252.9782,113.3495,248.6847,111.9137,252.8528,119.0455,252.9782" style="stroke:#000000;stroke-width:0.75;"/><text fill="#000000" font-family="sans-serif" font-size="9.75" lengthAdjust="spacing" textLength="22.5" x="122.25" y="255.7463">owns</text><text fill="#000000" font-family="sans-serif" font-size="9.75" lengthAdjust="spacing" textLength="5.25" x="81.0264" y="260.3323">1</text><text fill="#000000" font-family="sans-serif" font-size="9.75" lengthAdjust="spacing" textLength="15" x="155.2335" y="290.6254">2..*</text><!--MD5=[52f75bc7884e1da57d6e5a7b28122e04]
@startuml

left to right direction
skinparam classAttributeIconSize 0
hide empty methods
hide empty attributes

class Test{
- code
- NhsCode
- dateOfTestRegistration
- dateOfSamplesCollection
- dateOfChemicalAnalysis
- dateOfDiagnosis
}

class Company {
-designation
}

class ParameterCategory{
  -code
  -name
}

class Receptionist{}

class Sample{
- barCode
}

class Client{
- name
- citizenCardNum
- nhsNum
- birthDate
- sex
- taxIdNum
- phoneNum
- email
}
class TestParameter{}
class TestParameterResult{
- createdAt
- value
- metric
}
class TestType{
- Code
- Description
- Collecting methods
}

class Parameter{
- code
- shortName
- description
}

class ClinicalAnalysisLaboratory{
- laboratoryID
}

Test "*" - - "1" TestType : classified as >
Report "1" - - "1" Test : is of >
Test "*" - - "1" Client : requested by >
Receptionist "1" - - "*" Test : registers >
Parameter "*" - - "1" ParameterCategory: presented under >
TestType "1" - - "1..*" ParameterCategory : characterized by >
Test "1" - - "1..*" Sample : collects >
Test "1" - - "1..*" TestParameter : requests analysis of >
TestParameter "*" - - "1" Parameter : refers to >
TestParameter "1" - - "0..1" TestParameterResult : contains >
ClinicalAnalysisLaboratory "1" - - "1..*" TestType : operates >
ClinicalAnalysisLaboratory "1" - - "1..*" Test : performs >
Company "1" - - - "*" Test : conducts >
Receptionist "1..*" - - "1" ClinicalAnalysisLaboratory : works for >
Company "1" - - "2..*" ClinicalAnalysisLaboratory : owns >
@enduml

PlantUML version 1.2021.00(Sun Jan 10 10:25:05 GMT 2021)
(GPL source distribution)
Java Runtime: OpenJDK Runtime Environment
JVM: OpenJDK 64-Bit Server VM
Default Encoding: Cp1252
Language: pt
Country: BR
--></g></svg>