<?xml version="1.0" encoding="UTF-8" standalone="no"?><svg xmlns="http://www.w3.org/2000/svg" xmlns:xlink="http://www.w3.org/1999/xlink" contentScriptType="application/ecmascript" contentStyleType="text/css" height="163.5px" preserveAspectRatio="none" style="width:341px;height:163px;" version="1.1" viewBox="0 0 341 163" width="341.25px" zoomAndPan="magnify"><defs><filter height="300%" id="f15mqz1lr1hr2g" width="300%" x="-1" y="-1"><feGaussianBlur result="blurOut" stdDeviation="1.5"/><feColorMatrix in="blurOut" result="blurOut2" type="matrix" values="0 0 0 0 0 0 0 0 0 0 0 0 0 0 0 0 0 0 .4 0"/><feOffset dx="3.0" dy="3.0" in="blurOut2" result="blurOut3"/><feBlend in="SourceGraphic" in2="blurOut3" mode="normal"/></filter></defs><g><!--MD5=[02e4b9b7573f1156f41e60aa5b4e25a4]
class Company--><rect codeLine="7" fill="#FEFECE" filter="url(#f15mqz1lr1hr2g)" height="40.377" id="Company" style="stroke:#A80036;stroke-width:1.125;" width="63.75" x="13.0792" y="106.5"/><ellipse cx="24.3292" cy="118.5" fill="#ADD1B2" rx="8.25" ry="8.25" style="stroke:#A80036;stroke-width:0.75;"/><path d="M25.8292,115.875 Q25.9815,115.5 26.1573,115.3125 Q26.3331,115.125 26.5323,115.125 Q26.8839,115.125 27.1065,115.3359 Q27.3292,115.5469 27.3292,116.0391 L27.3292,117.2109 Q27.3292,117.7031 27.1183,117.9141 Q26.9073,118.125 26.5792,118.125 Q26.2862,118.125 26.0987,117.9961 Q25.9112,117.8672 25.8292,117.5273 Q25.794,117.293 25.6651,117.1641 Q25.4308,116.918 25.0089,116.7773 Q24.587,116.625 24.1651,116.625 Q23.6378,116.625 23.1925,116.8359 Q22.7589,117.0469 22.419,117.5156 Q22.0792,117.9844 22.0792,118.6289 L22.0792,119.3203 Q22.0792,120.0938 22.712,120.6094 Q23.3448,121.125 24.4698,121.125 Q25.1378,121.125 25.6065,120.9727 Q25.8761,120.8906 26.1808,120.6211 Q26.38,120.4688 26.4854,120.4219 Q26.5909,120.375 26.7198,120.375 Q26.9659,120.375 27.1417,120.5742 Q27.3292,120.7617 27.3292,121.0313 Q27.3292,121.2891 27.0714,121.5938 Q26.6964,122.0391 26.0987,122.2852 Q25.3136,122.625 24.3526,122.625 Q23.2276,122.625 22.3253,122.1797 Q21.5987,121.8281 21.0831,121.0664 Q20.5792,120.3047 20.5792,119.4023 L20.5792,118.582 Q20.5792,117.6445 21.0245,116.8242 Q21.4815,116.0039 22.2667,115.5703 Q23.0636,115.125 23.9542,115.125 Q24.4933,115.125 24.962,115.3125 Q25.4308,115.5 25.8292,115.875 Z " fill="#000000"/><text fill="#000000" font-family="sans-serif" font-size="9" lengthAdjust="spacing" textLength="39.75" x="34.8292" y="122.1826">Company</text><line style="stroke:#A80036;stroke-width:1.125;" x1="13.8292" x2="76.0792" y1="130.5" y2="130.5"/><text fill="#000000" font-family="sans-serif" font-size="8.25" lengthAdjust="spacing" textLength="44.25" x="17.5792" y="142.0642">-designation</text><!--MD5=[36afb6bbd95a8ac778c4537c55a683d5]
class ParameterCategory--><rect codeLine="10" fill="#FEFECE" filter="url(#f15mqz1lr1hr2g)" height="50.7539" id="ParameterCategory" style="stroke:#A80036;stroke-width:1.125;" width="104.25" x="227.2042" y="7.5"/><ellipse cx="238.4542" cy="19.5" fill="#ADD1B2" rx="8.25" ry="8.25" style="stroke:#A80036;stroke-width:0.75;"/><path d="M239.9542,16.875 Q240.1065,16.5 240.2823,16.3125 Q240.4581,16.125 240.6573,16.125 Q241.0089,16.125 241.2315,16.3359 Q241.4542,16.5469 241.4542,17.0391 L241.4542,18.2109 Q241.4542,18.7031 241.2433,18.9141 Q241.0323,19.125 240.7042,19.125 Q240.4112,19.125 240.2237,18.9961 Q240.0362,18.8672 239.9542,18.5273 Q239.919,18.293 239.7901,18.1641 Q239.5558,17.918 239.1339,17.7773 Q238.712,17.625 238.2901,17.625 Q237.7628,17.625 237.3175,17.8359 Q236.8839,18.0469 236.544,18.5156 Q236.2042,18.9844 236.2042,19.6289 L236.2042,20.3203 Q236.2042,21.0938 236.837,21.6094 Q237.4698,22.125 238.5948,22.125 Q239.2628,22.125 239.7315,21.9727 Q240.0011,21.8906 240.3058,21.6211 Q240.505,21.4688 240.6104,21.4219 Q240.7159,21.375 240.8448,21.375 Q241.0909,21.375 241.2667,21.5742 Q241.4542,21.7617 241.4542,22.0313 Q241.4542,22.2891 241.1964,22.5938 Q240.8214,23.0391 240.2237,23.2852 Q239.4386,23.625 238.4776,23.625 Q237.3526,23.625 236.4503,23.1797 Q235.7237,22.8281 235.2081,22.0664 Q234.7042,21.3047 234.7042,20.4023 L234.7042,19.582 Q234.7042,18.6445 235.1495,17.8242 Q235.6065,17.0039 236.3917,16.5703 Q237.1886,16.125 238.0792,16.125 Q238.6183,16.125 239.087,16.3125 Q239.5558,16.5 239.9542,16.875 Z " fill="#000000"/><text fill="#000000" font-family="sans-serif" font-size="9" lengthAdjust="spacing" textLength="80.25" x="248.9542" y="23.1826">ParameterCategory</text><line style="stroke:#A80036;stroke-width:1.125;" x1="227.9542" x2="330.7042" y1="31.5" y2="31.5"/><text fill="#000000" font-family="sans-serif" font-size="8.25" lengthAdjust="spacing" textLength="21" x="231.7042" y="43.0642">-code</text><text fill="#000000" font-family="sans-serif" font-size="8.25" lengthAdjust="spacing" textLength="22.5" x="231.7042" y="53.4412">-name</text><!--MD5=[aeb3272166074d8737a70b61b1e71682]
class TestType--><rect codeLine="14" fill="#FEFECE" filter="url(#f15mqz1lr1hr2g)" height="61.1309" id="TestType" style="stroke:#A80036;stroke-width:1.125;" width="75" x="7.4542" y="5.25"/><ellipse cx="24.7792" cy="17.25" fill="#ADD1B2" rx="8.25" ry="8.25" style="stroke:#A80036;stroke-width:0.75;"/><path d="M26.2792,14.625 Q26.4315,14.25 26.6073,14.0625 Q26.7831,13.875 26.9823,13.875 Q27.3339,13.875 27.5565,14.0859 Q27.7792,14.2969 27.7792,14.7891 L27.7792,15.9609 Q27.7792,16.4531 27.5683,16.6641 Q27.3573,16.875 27.0292,16.875 Q26.7362,16.875 26.5487,16.7461 Q26.3612,16.6172 26.2792,16.2773 Q26.244,16.043 26.1151,15.9141 Q25.8808,15.668 25.4589,15.5273 Q25.037,15.375 24.6151,15.375 Q24.0878,15.375 23.6425,15.5859 Q23.2089,15.7969 22.869,16.2656 Q22.5292,16.7344 22.5292,17.3789 L22.5292,18.0703 Q22.5292,18.8438 23.162,19.3594 Q23.7948,19.875 24.9198,19.875 Q25.5878,19.875 26.0565,19.7227 Q26.3261,19.6406 26.6308,19.3711 Q26.83,19.2188 26.9354,19.1719 Q27.0409,19.125 27.1698,19.125 Q27.4159,19.125 27.5917,19.3242 Q27.7792,19.5117 27.7792,19.7813 Q27.7792,20.0391 27.5214,20.3438 Q27.1464,20.7891 26.5487,21.0352 Q25.7636,21.375 24.8026,21.375 Q23.6776,21.375 22.7753,20.9297 Q22.0487,20.5781 21.5331,19.8164 Q21.0292,19.0547 21.0292,18.1523 L21.0292,17.332 Q21.0292,16.3945 21.4745,15.5742 Q21.9315,14.7539 22.7167,14.3203 Q23.5136,13.875 24.4042,13.875 Q24.9433,13.875 25.412,14.0625 Q25.8808,14.25 26.2792,14.625 Z " fill="#000000"/><text fill="#000000" font-family="sans-serif" font-size="9" lengthAdjust="spacing" textLength="37.5" x="36.6292" y="20.9326">TestType</text><line style="stroke:#A80036;stroke-width:1.125;" x1="8.2042" x2="81.7042" y1="29.25" y2="29.25"/><text fill="#000000" font-family="sans-serif" font-size="8.25" lengthAdjust="spacing" textLength="21.75" x="11.9542" y="40.8142">-Code</text><text fill="#000000" font-family="sans-serif" font-size="8.25" lengthAdjust="spacing" textLength="43.5" x="11.9542" y="51.1912">-Description</text><text fill="#000000" font-family="sans-serif" font-size="8.25" lengthAdjust="spacing" textLength="66" x="11.9542" y="61.5681">-Collecting method</text><!--MD5=[da547346deef918ea16944ba046651ef]
class Administrator--><rect fill="#FEFECE" filter="url(#f15mqz1lr1hr2g)" height="24" id="Administrator" style="stroke:#A80036;stroke-width:1.125;" width="78.75" x="239.9542" y="101.25"/><ellipse cx="251.2042" cy="113.25" fill="#ADD1B2" rx="8.25" ry="8.25" style="stroke:#A80036;stroke-width:0.75;"/><path d="M252.7042,110.625 Q252.8565,110.25 253.0323,110.0625 Q253.2081,109.875 253.4073,109.875 Q253.7589,109.875 253.9815,110.0859 Q254.2042,110.2969 254.2042,110.7891 L254.2042,111.9609 Q254.2042,112.4531 253.9933,112.6641 Q253.7823,112.875 253.4542,112.875 Q253.1612,112.875 252.9737,112.7461 Q252.7862,112.6172 252.7042,112.2773 Q252.669,112.043 252.5401,111.9141 Q252.3058,111.668 251.8839,111.5273 Q251.462,111.375 251.0401,111.375 Q250.5128,111.375 250.0675,111.5859 Q249.6339,111.7969 249.294,112.2656 Q248.9542,112.7344 248.9542,113.3789 L248.9542,114.0703 Q248.9542,114.8438 249.587,115.3594 Q250.2198,115.875 251.3448,115.875 Q252.0128,115.875 252.4815,115.7227 Q252.7511,115.6406 253.0558,115.3711 Q253.255,115.2188 253.3604,115.1719 Q253.4659,115.125 253.5948,115.125 Q253.8409,115.125 254.0167,115.3242 Q254.2042,115.5117 254.2042,115.7813 Q254.2042,116.0391 253.9464,116.3438 Q253.5714,116.7891 252.9737,117.0352 Q252.1886,117.375 251.2276,117.375 Q250.1026,117.375 249.2003,116.9297 Q248.4737,116.5781 247.9581,115.8164 Q247.4542,115.0547 247.4542,114.1523 L247.4542,113.332 Q247.4542,112.3945 247.8995,111.5742 Q248.3565,110.7539 249.1417,110.3203 Q249.9386,109.875 250.8292,109.875 Q251.3683,109.875 251.837,110.0625 Q252.3058,110.25 252.7042,110.625 Z " fill="#000000"/><text fill="#000000" font-family="sans-serif" font-size="9" lengthAdjust="spacing" textLength="54.75" x="261.7042" y="116.9326">Administrator</text><!--MD5=[6d9eb9a083ac0654c8b63743033752d3]
link TestType to Company--><!--MD5=[742a261f27a3dcd734c626287d811acd]
link Company to TestType--><path codeLine="22" d="M44.9542,106.38 C44.9542,94.7775 44.9542,80.01 44.9542,66.9975 " fill="none" id="Company-TestType" style="stroke:#A80036;stroke-width:0.75;"/><polygon fill="#000000" points="14.2042,83.0068,12,89.7906,16.4084,89.7906,14.2042,83.0068" style="stroke:#000000;stroke-width:0.75;"/><text fill="#000000" font-family="sans-serif" font-size="9.75" lengthAdjust="spacing" textLength="39.75" x="20.9542" y="90.7463">conducts</text><text fill="#000000" font-family="sans-serif" font-size="9.75" lengthAdjust="spacing" textLength="5.25" x="39.0972" y="98.448">1</text><text fill="#000000" font-family="sans-serif" font-size="9.75" lengthAdjust="spacing" textLength="3.75" x="40.9288" y="82.5993">*</text><!--MD5=[93b4f25fb503a8e0e9a46b1d30ff3f44]
link Company to ParameterCategory--><path codeLine="23" d="M76.9942,129 C110.3467,130.0875 163.8892,127.98 204.7042,108 C210.9442,104.9475 235.8142,79.08 254.9992,58.56 " fill="none" id="Company-ParameterCategory" style="stroke:#A80036;stroke-width:0.75;"/><polygon fill="#000000" points="112.1911,100.002,105.0722,100.4486,106.6943,104.5477,112.1911,100.002" style="stroke:#000000;stroke-width:0.75;"/><text fill="#000000" font-family="sans-serif" font-size="9.75" lengthAdjust="spacing" textLength="88.5" x="115.4542" y="105.3713">capable of analysing</text><text fill="#000000" font-family="sans-serif" font-size="9.75" lengthAdjust="spacing" textLength="5.25" x="82.7356" y="126.5323">1</text><text fill="#000000" font-family="sans-serif" font-size="9.75" lengthAdjust="spacing" textLength="3.75" x="246.5814" y="74.3484">*</text><!--MD5=[eaea43e34e45c5b9d20b595fc78f1f20]
link Company to Administrator--><path codeLine="24" d="M77.1142,140.6025 C85.9417,143.85 95.6767,146.85 104.9542,148.5 C148.6042,156.255 161.4667,158.2875 204.7042,148.5 C224.3842,144.045 244.9642,133.6875 259.3867,125.34 " fill="none" id="Company-Administrator" style="stroke:#A80036;stroke-width:0.75;"/><polygon fill="#000000" points="145.4411,141.5689,138.497,139.9385,138.8649,144.3315,145.4411,141.5689" style="stroke:#000000;stroke-width:0.75;"/><text fill="#000000" font-family="sans-serif" font-size="9.75" lengthAdjust="spacing" textLength="22.5" x="148.4542" y="145.8713">know</text><text fill="#000000" font-family="sans-serif" font-size="9.75" lengthAdjust="spacing" textLength="5.25" x="82.8755" y="154.0439">1</text><text fill="#000000" font-family="sans-serif" font-size="9.75" lengthAdjust="spacing" textLength="3.75" x="248.6824" y="141.2695">*</text><!--MD5=[8aaf0efd5e2f3824be7ea3e488dcc283]
link TestType to ParameterCategory--><path codeLine="25" d="M82.6042,35.52 C121.5892,35.0175 183.3742,34.2225 227.1292,33.66 " fill="none" id="TestType-ParameterCategory" style="stroke:#A80036;stroke-width:0.75;"/><polygon fill="#000000" points="120.7039,27.8336,113.8923,25.7169,113.949,30.1249,120.7039,27.8336" style="stroke:#000000;stroke-width:0.75;"/><text fill="#000000" font-family="sans-serif" font-size="9.75" lengthAdjust="spacing" textLength="72" x="123.7042" y="31.8713">characterized by</text><text fill="#000000" font-family="sans-serif" font-size="9.75" lengthAdjust="spacing" textLength="5.25" x="88.5196" y="46.4986">1</text><text fill="#000000" font-family="sans-serif" font-size="9.75" lengthAdjust="spacing" textLength="15" x="206.2525" y="44.462">1..*</text><!--MD5=[0985ee834cc881275852ed47ce1e01f6]
link TestType to Administrator--><path codeLine="26" d="M82.6642,48.15 C114.8992,58.7625 162.9142,74.6025 204.7042,88.5 C217.0267,92.595 230.4967,97.1025 242.5192,101.13 " fill="none" id="TestType-Administrator" style="stroke:#A80036;stroke-width:0.75;"/><polygon fill="#000000" points="133.6388,50.8116,127.8929,46.5851,126.506,50.7697,133.6388,50.8116" style="stroke:#000000;stroke-width:0.75;"/><text fill="#000000" font-family="sans-serif" font-size="9.75" lengthAdjust="spacing" textLength="45.75" x="136.8292" y="53.6213">created by</text><text fill="#000000" font-family="sans-serif" font-size="9.75" lengthAdjust="spacing" textLength="3.75" x="88.4782" y="60.9836">*</text><text fill="#000000" font-family="sans-serif" font-size="9.75" lengthAdjust="spacing" textLength="5.25" x="228.6428" y="95.3164">1</text><!--MD5=[18506d9e75618c63c0d3c2980847c0c5]
@startuml

skinparam classAttributeIconSize 0
hide empty methods
hide empty attributes
left to right direction

class Company{
- designation
}
class ParameterCategory{
  -code
  -name
}
class TestType{
- Code
- Description
- Collecting method
}

 TestType -[hidden]right-|> Company

Company "1" - - "*" TestType : conducts >
Company "1" - - "*" ParameterCategory : capable of analysing >
Company "1" - - "*" Administrator : know >
TestType "1" - - "1..*" ParameterCategory : characterized by >
TestType "*" - - "1" Administrator : created by >

@enduml

PlantUML version 1.2021.00(Sun Jan 10 10:25:05 GMT 2021)
(GPL source distribution)
Java Runtime: OpenJDK Runtime Environment
JVM: OpenJDK 64-Bit Server VM
Default Encoding: Cp1252
Language: pt
Country: BR
--></g></svg>