<?xml version="1.0" encoding="UTF-8" standalone="no"?><svg xmlns="http://www.w3.org/2000/svg" xmlns:xlink="http://www.w3.org/1999/xlink" contentScriptType="application/ecmascript" contentStyleType="text/css" height="463.5px" preserveAspectRatio="none" style="width:1831px;height:463px;" version="1.1" viewBox="0 0 1831 463" width="1831.5px" zoomAndPan="magnify"><defs><filter height="300%" id="f1ips2my3piv6l" width="300%" x="-1" y="-1"><feGaussianBlur result="blurOut" stdDeviation="1.5"/><feColorMatrix in="blurOut" result="blurOut2" type="matrix" values="0 0 0 0 0 0 0 0 0 0 0 0 0 0 0 0 0 0 .4 0"/><feOffset dx="3.0" dy="3.0" in="blurOut2" result="blurOut3"/><feBlend in="SourceGraphic" in2="blurOut3" mode="normal"/></filter></defs><g><!--MD5=[bebdcc43ebcb1534ee764d1f430c03ae]
class CreateTestTypeUI--><rect codeLine="3" fill="#FEFECE" filter="url(#f1ips2my3piv6l)" height="36" id="CreateTestTypeUI" style="stroke:#A80036;stroke-width:1.125;" width="98.25" x="5.25" y="417"/><ellipse cx="16.5" cy="429" fill="#ADD1B2" rx="8.25" ry="8.25" style="stroke:#A80036;stroke-width:0.75;"/><path d="M18,426.375 Q18.1523,426 18.3281,425.8125 Q18.5039,425.625 18.7031,425.625 Q19.0547,425.625 19.2773,425.8359 Q19.5,426.0469 19.5,426.5391 L19.5,427.7109 Q19.5,428.2031 19.2891,428.4141 Q19.0781,428.625 18.75,428.625 Q18.457,428.625 18.2695,428.4961 Q18.082,428.3672 18,428.0273 Q17.9648,427.793 17.8359,427.6641 Q17.6016,427.418 17.1797,427.2773 Q16.7578,427.125 16.3359,427.125 Q15.8086,427.125 15.3633,427.3359 Q14.9297,427.5469 14.5898,428.0156 Q14.25,428.4844 14.25,429.1289 L14.25,429.8203 Q14.25,430.5938 14.8828,431.1094 Q15.5156,431.625 16.6406,431.625 Q17.3086,431.625 17.7773,431.4727 Q18.0469,431.3906 18.3516,431.1211 Q18.5508,430.9688 18.6563,430.9219 Q18.7617,430.875 18.8906,430.875 Q19.1367,430.875 19.3125,431.0742 Q19.5,431.2617 19.5,431.5313 Q19.5,431.7891 19.2422,432.0938 Q18.8672,432.5391 18.2695,432.7852 Q17.4844,433.125 16.5234,433.125 Q15.3984,433.125 14.4961,432.6797 Q13.7695,432.3281 13.2539,431.5664 Q12.75,430.8047 12.75,429.9023 L12.75,429.082 Q12.75,428.1445 13.1953,427.3242 Q13.6523,426.5039 14.4375,426.0703 Q15.2344,425.625 16.125,425.625 Q16.6641,425.625 17.1328,425.8125 Q17.6016,426 18,426.375 Z " fill="#000000"/><text fill="#000000" font-family="sans-serif" font-size="9" lengthAdjust="spacing" textLength="74.25" x="27" y="432.6826">CreateTestTypeUI</text><line style="stroke:#A80036;stroke-width:1.125;" x1="6" x2="102.75" y1="441" y2="441"/><line style="stroke:#A80036;stroke-width:1.125;" x1="6" x2="102.75" y1="447" y2="447"/><!--MD5=[2c845ebea24388d268f5a9acbeca4fd9]
class CreateTestTypeController--><rect codeLine="6" fill="#FEFECE" filter="url(#f1ips2my3piv6l)" height="67.1309" id="CreateTestTypeController" style="stroke:#A80036;stroke-width:1.125;" width="300.75" x="149.25" y="246"/><ellipse cx="243.5625" cy="258" fill="#ADD1B2" rx="8.25" ry="8.25" style="stroke:#A80036;stroke-width:0.75;"/><path d="M245.0625,255.375 Q245.2148,255 245.3906,254.8125 Q245.5664,254.625 245.7656,254.625 Q246.1172,254.625 246.3398,254.8359 Q246.5625,255.0469 246.5625,255.5391 L246.5625,256.7109 Q246.5625,257.2031 246.3516,257.4141 Q246.1406,257.625 245.8125,257.625 Q245.5195,257.625 245.332,257.4961 Q245.1445,257.3672 245.0625,257.0273 Q245.0273,256.793 244.8984,256.6641 Q244.6641,256.418 244.2422,256.2773 Q243.8203,256.125 243.3984,256.125 Q242.8711,256.125 242.4258,256.3359 Q241.9922,256.5469 241.6523,257.0156 Q241.3125,257.4844 241.3125,258.1289 L241.3125,258.8203 Q241.3125,259.5938 241.9453,260.1094 Q242.5781,260.625 243.7031,260.625 Q244.3711,260.625 244.8398,260.4727 Q245.1094,260.3906 245.4141,260.1211 Q245.6133,259.9688 245.7188,259.9219 Q245.8242,259.875 245.9531,259.875 Q246.1992,259.875 246.375,260.0742 Q246.5625,260.2617 246.5625,260.5313 Q246.5625,260.7891 246.3047,261.0938 Q245.9297,261.5391 245.332,261.7852 Q244.5469,262.125 243.5859,262.125 Q242.4609,262.125 241.5586,261.6797 Q240.832,261.3281 240.3164,260.5664 Q239.8125,259.8047 239.8125,258.9023 L239.8125,258.082 Q239.8125,257.1445 240.2578,256.3242 Q240.7148,255.5039 241.5,255.0703 Q242.2969,254.625 243.1875,254.625 Q243.7266,254.625 244.1953,254.8125 Q244.6641,255 245.0625,255.375 Z " fill="#000000"/><text fill="#000000" font-family="sans-serif" font-size="9" lengthAdjust="spacing" textLength="105.75" x="258.9375" y="261.6826">CreateTestTypeController</text><line style="stroke:#A80036;stroke-width:1.125;" x1="150" x2="449.25" y1="270" y2="270"/><line style="stroke:#A80036;stroke-width:1.125;" x1="150" x2="449.25" y1="276" y2="276"/><text fill="#000000" font-family="sans-serif" font-size="8.25" lengthAdjust="spacing" textLength="291.75" x="153.75" y="287.5642">+createTestType(code, description, collectingMethod, selectedCategoriesCodes)</text><text fill="#000000" font-family="sans-serif" font-size="8.25" lengthAdjust="spacing" textLength="66.75" x="153.75" y="297.9412">+saveTestType(tt)</text><text fill="#000000" font-family="sans-serif" font-size="8.25" lengthAdjust="spacing" textLength="60.75" x="153.75" y="308.3181">+getCategories()</text><!--MD5=[aeb3272166074d8737a70b61b1e71682]
class TestType--><rect codeLine="12" fill="#FEFECE" filter="url(#f1ips2my3piv6l)" height="77.5078" id="TestType" style="stroke:#A80036;stroke-width:1.125;" width="277.5" x="1311" y="61.125"/><ellipse cx="1427.8125" cy="73.125" fill="#ADD1B2" rx="8.25" ry="8.25" style="stroke:#A80036;stroke-width:0.75;"/><path d="M1429.3125,70.5 Q1429.4648,70.125 1429.6406,69.9375 Q1429.8164,69.75 1430.0156,69.75 Q1430.3672,69.75 1430.5898,69.9609 Q1430.8125,70.1719 1430.8125,70.6641 L1430.8125,71.8359 Q1430.8125,72.3281 1430.6016,72.5391 Q1430.3906,72.75 1430.0625,72.75 Q1429.7695,72.75 1429.582,72.6211 Q1429.3945,72.4922 1429.3125,72.1523 Q1429.2773,71.918 1429.1484,71.7891 Q1428.9141,71.543 1428.4922,71.4023 Q1428.0703,71.25 1427.6484,71.25 Q1427.1211,71.25 1426.6758,71.4609 Q1426.2422,71.6719 1425.9023,72.1406 Q1425.5625,72.6094 1425.5625,73.2539 L1425.5625,73.9453 Q1425.5625,74.7188 1426.1953,75.2344 Q1426.8281,75.75 1427.9531,75.75 Q1428.6211,75.75 1429.0898,75.5977 Q1429.3594,75.5156 1429.6641,75.2461 Q1429.8633,75.0938 1429.9688,75.0469 Q1430.0742,75 1430.2031,75 Q1430.4492,75 1430.625,75.1992 Q1430.8125,75.3867 1430.8125,75.6563 Q1430.8125,75.9141 1430.5547,76.2188 Q1430.1797,76.6641 1429.582,76.9102 Q1428.7969,77.25 1427.8359,77.25 Q1426.7109,77.25 1425.8086,76.8047 Q1425.082,76.4531 1424.5664,75.6914 Q1424.0625,74.9297 1424.0625,74.0273 L1424.0625,73.207 Q1424.0625,72.2695 1424.5078,71.4492 Q1424.9648,70.6289 1425.75,70.1953 Q1426.5469,69.75 1427.4375,69.75 Q1427.9766,69.75 1428.4453,69.9375 Q1428.9141,70.125 1429.3125,70.5 Z " fill="#000000"/><text fill="#000000" font-family="sans-serif" font-size="9" lengthAdjust="spacing" textLength="37.5" x="1443.1875" y="76.8076">TestType</text><line style="stroke:#A80036;stroke-width:1.125;" x1="1311.75" x2="1587.75" y1="85.125" y2="85.125"/><text fill="#000000" font-family="sans-serif" font-size="8.25" lengthAdjust="spacing" textLength="48.75" x="1315.5" y="96.6892">-code : String</text><text fill="#000000" font-family="sans-serif" font-size="8.25" lengthAdjust="spacing" textLength="70.5" x="1315.5" y="107.0662">-description : String</text><text fill="#000000" font-family="sans-serif" font-size="8.25" lengthAdjust="spacing" textLength="90.75" x="1315.5" y="117.4431">-collectingMethod : String</text><line style="stroke:#A80036;stroke-width:1.125;" x1="1311.75" x2="1587.75" y1="122.2559" y2="122.2559"/><text fill="#000000" font-family="sans-serif" font-size="8.25" lengthAdjust="spacing" textLength="268.5" x="1315.5" y="133.8201">+TestType(code, description, collectingMethod, selectedCategoriesCodes)</text><!--MD5=[d802db621b5b215a6f0466f93cefcb42]
class ParameterCategoryStore--><rect codeLine="19" fill="#FEFECE" filter="url(#f1ips2my3piv6l)" height="67.1309" id="ParameterCategoryStore" style="stroke:#A80036;stroke-width:1.125;" width="236.25" x="897.75" y="218.25"/><ellipse cx="961.6875" cy="230.25" fill="#ADD1B2" rx="8.25" ry="8.25" style="stroke:#A80036;stroke-width:0.75;"/><path d="M963.1875,227.625 Q963.3398,227.25 963.5156,227.0625 Q963.6914,226.875 963.8906,226.875 Q964.2422,226.875 964.4648,227.0859 Q964.6875,227.2969 964.6875,227.7891 L964.6875,228.9609 Q964.6875,229.4531 964.4766,229.6641 Q964.2656,229.875 963.9375,229.875 Q963.6445,229.875 963.457,229.7461 Q963.2695,229.6172 963.1875,229.2773 Q963.1523,229.043 963.0234,228.9141 Q962.7891,228.668 962.3672,228.5273 Q961.9453,228.375 961.5234,228.375 Q960.9961,228.375 960.5508,228.5859 Q960.1172,228.7969 959.7773,229.2656 Q959.4375,229.7344 959.4375,230.3789 L959.4375,231.0703 Q959.4375,231.8438 960.0703,232.3594 Q960.7031,232.875 961.8281,232.875 Q962.4961,232.875 962.9648,232.7227 Q963.2344,232.6406 963.5391,232.3711 Q963.7383,232.2188 963.8438,232.1719 Q963.9492,232.125 964.0781,232.125 Q964.3242,232.125 964.5,232.3242 Q964.6875,232.5117 964.6875,232.7813 Q964.6875,233.0391 964.4297,233.3438 Q964.0547,233.7891 963.457,234.0352 Q962.6719,234.375 961.7109,234.375 Q960.5859,234.375 959.6836,233.9297 Q958.957,233.5781 958.4414,232.8164 Q957.9375,232.0547 957.9375,231.1523 L957.9375,230.332 Q957.9375,229.3945 958.3828,228.5742 Q958.8398,227.7539 959.625,227.3203 Q960.4219,226.875 961.3125,226.875 Q961.8516,226.875 962.3203,227.0625 Q962.7891,227.25 963.1875,227.625 Z " fill="#000000"/><text fill="#000000" font-family="sans-serif" font-size="9" lengthAdjust="spacing" textLength="102" x="977.0625" y="233.9326">ParameterCategoryStore</text><line style="stroke:#A80036;stroke-width:1.125;" x1="898.5" x2="1133.25" y1="242.25" y2="242.25"/><line style="stroke:#A80036;stroke-width:1.125;" x1="898.5" x2="1133.25" y1="248.25" y2="248.25"/><text fill="#000000" font-family="sans-serif" font-size="8.25" lengthAdjust="spacing" textLength="117" x="902.25" y="259.8142">+getParameterCategoriesStore()</text><text fill="#000000" font-family="sans-serif" font-size="8.25" lengthAdjust="spacing" textLength="227.25" x="902.25" y="270.1912">+getCategoriesByCode(List&lt;String&gt; parameterCategoryCodes)</text><text fill="#000000" font-family="sans-serif" font-size="8.25" lengthAdjust="spacing" textLength="124.5" x="902.25" y="280.5681">+getCategoryByCode(String code)</text><!--MD5=[36afb6bbd95a8ac778c4537c55a683d5]
class ParameterCategory--><rect codeLine="25" fill="#FEFECE" filter="url(#f1ips2my3piv6l)" height="56.7539" id="ParameterCategory" style="stroke:#A80036;stroke-width:1.125;" width="104.25" x="1716.75" y="177"/><ellipse cx="1728" cy="189" fill="#ADD1B2" rx="8.25" ry="8.25" style="stroke:#A80036;stroke-width:0.75;"/><path d="M1729.5,186.375 Q1729.6523,186 1729.8281,185.8125 Q1730.0039,185.625 1730.2031,185.625 Q1730.5547,185.625 1730.7773,185.8359 Q1731,186.0469 1731,186.5391 L1731,187.7109 Q1731,188.2031 1730.7891,188.4141 Q1730.5781,188.625 1730.25,188.625 Q1729.957,188.625 1729.7695,188.4961 Q1729.582,188.3672 1729.5,188.0273 Q1729.4648,187.793 1729.3359,187.6641 Q1729.1016,187.418 1728.6797,187.2773 Q1728.2578,187.125 1727.8359,187.125 Q1727.3086,187.125 1726.8633,187.3359 Q1726.4297,187.5469 1726.0898,188.0156 Q1725.75,188.4844 1725.75,189.1289 L1725.75,189.8203 Q1725.75,190.5938 1726.3828,191.1094 Q1727.0156,191.625 1728.1406,191.625 Q1728.8086,191.625 1729.2773,191.4727 Q1729.5469,191.3906 1729.8516,191.1211 Q1730.0508,190.9688 1730.1563,190.9219 Q1730.2617,190.875 1730.3906,190.875 Q1730.6367,190.875 1730.8125,191.0742 Q1731,191.2617 1731,191.5313 Q1731,191.7891 1730.7422,192.0938 Q1730.3672,192.5391 1729.7695,192.7852 Q1728.9844,193.125 1728.0234,193.125 Q1726.8984,193.125 1725.9961,192.6797 Q1725.2695,192.3281 1724.7539,191.5664 Q1724.25,190.8047 1724.25,189.9023 L1724.25,189.082 Q1724.25,188.1445 1724.6953,187.3242 Q1725.1523,186.5039 1725.9375,186.0703 Q1726.7344,185.625 1727.625,185.625 Q1728.1641,185.625 1728.6328,185.8125 Q1729.1016,186 1729.5,186.375 Z " fill="#000000"/><text fill="#000000" font-family="sans-serif" font-size="9" lengthAdjust="spacing" textLength="80.25" x="1738.5" y="192.6826">ParameterCategory</text><line style="stroke:#A80036;stroke-width:1.125;" x1="1717.5" x2="1820.25" y1="201" y2="201"/><text fill="#000000" font-family="sans-serif" font-size="8.25" lengthAdjust="spacing" textLength="22.5" x="1721.25" y="212.5642">-name</text><text fill="#000000" font-family="sans-serif" font-size="8.25" lengthAdjust="spacing" textLength="21" x="1721.25" y="222.9412">-code</text><line style="stroke:#A80036;stroke-width:1.125;" x1="1717.5" x2="1820.25" y1="227.7539" y2="227.7539"/><!--MD5=[02e4b9b7573f1156f41e60aa5b4e25a4]
class Company--><rect codeLine="30" fill="#FEFECE" filter="url(#f1ips2my3piv6l)" height="67.1309" id="Company" style="stroke:#A80036;stroke-width:1.125;" width="120" x="582" y="144.75"/><ellipse cx="618.9375" cy="156.75" fill="#ADD1B2" rx="8.25" ry="8.25" style="stroke:#A80036;stroke-width:0.75;"/><path d="M620.4375,154.125 Q620.5898,153.75 620.7656,153.5625 Q620.9414,153.375 621.1406,153.375 Q621.4922,153.375 621.7148,153.5859 Q621.9375,153.7969 621.9375,154.2891 L621.9375,155.4609 Q621.9375,155.9531 621.7266,156.1641 Q621.5156,156.375 621.1875,156.375 Q620.8945,156.375 620.707,156.2461 Q620.5195,156.1172 620.4375,155.7773 Q620.4023,155.543 620.2734,155.4141 Q620.0391,155.168 619.6172,155.0273 Q619.1953,154.875 618.7734,154.875 Q618.2461,154.875 617.8008,155.0859 Q617.3672,155.2969 617.0273,155.7656 Q616.6875,156.2344 616.6875,156.8789 L616.6875,157.5703 Q616.6875,158.3438 617.3203,158.8594 Q617.9531,159.375 619.0781,159.375 Q619.7461,159.375 620.2148,159.2227 Q620.4844,159.1406 620.7891,158.8711 Q620.9883,158.7188 621.0938,158.6719 Q621.1992,158.625 621.3281,158.625 Q621.5742,158.625 621.75,158.8242 Q621.9375,159.0117 621.9375,159.2813 Q621.9375,159.5391 621.6797,159.8438 Q621.3047,160.2891 620.707,160.5352 Q619.9219,160.875 618.9609,160.875 Q617.8359,160.875 616.9336,160.4297 Q616.207,160.0781 615.6914,159.3164 Q615.1875,158.5547 615.1875,157.6523 L615.1875,156.832 Q615.1875,155.8945 615.6328,155.0742 Q616.0898,154.2539 616.875,153.8203 Q617.6719,153.375 618.5625,153.375 Q619.1016,153.375 619.5703,153.5625 Q620.0391,153.75 620.4375,154.125 Z " fill="#000000"/><text fill="#000000" font-family="sans-serif" font-size="9" lengthAdjust="spacing" textLength="39.75" x="634.3125" y="160.4326">Company</text><line style="stroke:#A80036;stroke-width:1.125;" x1="582.75" x2="701.25" y1="168.75" y2="168.75"/><text fill="#000000" font-family="sans-serif" font-size="8.25" lengthAdjust="spacing" textLength="72" x="586.5" y="180.3142">-designation : String</text><line style="stroke:#A80036;stroke-width:1.125;" x1="582.75" x2="701.25" y1="185.127" y2="185.127"/><text fill="#000000" font-family="sans-serif" font-size="8.25" lengthAdjust="spacing" textLength="75" x="586.5" y="196.6912">+getTestTypeStore()</text><text fill="#000000" font-family="sans-serif" font-size="8.25" lengthAdjust="spacing" textLength="111" x="586.5" y="207.0681">+getParameterCategoryStore()</text><!--MD5=[6ba72ddf03822b91e8d41ca71de58ed3]
class TestTypeStore--><rect codeLine="36" fill="#FEFECE" filter="url(#f1ips2my3piv6l)" height="67.1309" id="TestTypeStore" style="stroke:#A80036;stroke-width:1.125;" width="300.75" x="865.5" y="5.25"/><ellipse cx="983.0625" cy="17.25" fill="#ADD1B2" rx="8.25" ry="8.25" style="stroke:#A80036;stroke-width:0.75;"/><path d="M984.5625,14.625 Q984.7148,14.25 984.8906,14.0625 Q985.0664,13.875 985.2656,13.875 Q985.6172,13.875 985.8398,14.0859 Q986.0625,14.2969 986.0625,14.7891 L986.0625,15.9609 Q986.0625,16.4531 985.8516,16.6641 Q985.6406,16.875 985.3125,16.875 Q985.0195,16.875 984.832,16.7461 Q984.6445,16.6172 984.5625,16.2773 Q984.5273,16.043 984.3984,15.9141 Q984.1641,15.668 983.7422,15.5273 Q983.3203,15.375 982.8984,15.375 Q982.3711,15.375 981.9258,15.5859 Q981.4922,15.7969 981.1523,16.2656 Q980.8125,16.7344 980.8125,17.3789 L980.8125,18.0703 Q980.8125,18.8438 981.4453,19.3594 Q982.0781,19.875 983.2031,19.875 Q983.8711,19.875 984.3398,19.7227 Q984.6094,19.6406 984.9141,19.3711 Q985.1133,19.2188 985.2188,19.1719 Q985.3242,19.125 985.4531,19.125 Q985.6992,19.125 985.875,19.3242 Q986.0625,19.5117 986.0625,19.7813 Q986.0625,20.0391 985.8047,20.3438 Q985.4297,20.7891 984.832,21.0352 Q984.0469,21.375 983.0859,21.375 Q981.9609,21.375 981.0586,20.9297 Q980.332,20.5781 979.8164,19.8164 Q979.3125,19.0547 979.3125,18.1523 L979.3125,17.332 Q979.3125,16.3945 979.7578,15.5742 Q980.2148,14.7539 981,14.3203 Q981.7969,13.875 982.6875,13.875 Q983.2266,13.875 983.6953,14.0625 Q984.1641,14.25 984.5625,14.625 Z " fill="#000000"/><text fill="#000000" font-family="sans-serif" font-size="9" lengthAdjust="spacing" textLength="59.25" x="998.4375" y="20.9326">TestTypeStore</text><line style="stroke:#A80036;stroke-width:1.125;" x1="866.25" x2="1165.5" y1="29.25" y2="29.25"/><line style="stroke:#A80036;stroke-width:1.125;" x1="866.25" x2="1165.5" y1="35.25" y2="35.25"/><text fill="#000000" font-family="sans-serif" font-size="8.25" lengthAdjust="spacing" textLength="291.75" x="870" y="46.8142">+createTestType(code, description, collectingMethod, selectedCategoriesCodes)</text><text fill="#000000" font-family="sans-serif" font-size="8.25" lengthAdjust="spacing" textLength="76.5" x="870" y="57.1912">+validateTestType(tt)</text><text fill="#000000" font-family="sans-serif" font-size="8.25" lengthAdjust="spacing" textLength="66.75" x="870" y="67.5681">+saveTestType(tt)</text><!--MD5=[867476cd2a5db62f3ac412e45787ce2b]
class CategoryMapper--><rect codeLine="42" fill="#FEFECE" filter="url(#f1ips2my3piv6l)" height="56.7539" id="CategoryMapper" style="stroke:#A80036;stroke-width:1.125;" width="292.5" x="495.75" y="345.75"/><ellipse cx="605.0625" cy="357.75" fill="#ADD1B2" rx="8.25" ry="8.25" style="stroke:#A80036;stroke-width:0.75;"/><path d="M606.5625,355.125 Q606.7148,354.75 606.8906,354.5625 Q607.0664,354.375 607.2656,354.375 Q607.6172,354.375 607.8398,354.5859 Q608.0625,354.7969 608.0625,355.2891 L608.0625,356.4609 Q608.0625,356.9531 607.8516,357.1641 Q607.6406,357.375 607.3125,357.375 Q607.0195,357.375 606.832,357.2461 Q606.6445,357.1172 606.5625,356.7773 Q606.5273,356.543 606.3984,356.4141 Q606.1641,356.168 605.7422,356.0273 Q605.3203,355.875 604.8984,355.875 Q604.3711,355.875 603.9258,356.0859 Q603.4922,356.2969 603.1523,356.7656 Q602.8125,357.2344 602.8125,357.8789 L602.8125,358.5703 Q602.8125,359.3438 603.4453,359.8594 Q604.0781,360.375 605.2031,360.375 Q605.8711,360.375 606.3398,360.2227 Q606.6094,360.1406 606.9141,359.8711 Q607.1133,359.7188 607.2188,359.6719 Q607.3242,359.625 607.4531,359.625 Q607.6992,359.625 607.875,359.8242 Q608.0625,360.0117 608.0625,360.2813 Q608.0625,360.5391 607.8047,360.8438 Q607.4297,361.2891 606.832,361.5352 Q606.0469,361.875 605.0859,361.875 Q603.9609,361.875 603.0586,361.4297 Q602.332,361.0781 601.8164,360.3164 Q601.3125,359.5547 601.3125,358.6523 L601.3125,357.832 Q601.3125,356.8945 601.7578,356.0742 Q602.2148,355.2539 603,354.8203 Q603.7969,354.375 604.6875,354.375 Q605.2266,354.375 605.6953,354.5625 Q606.1641,354.75 606.5625,355.125 Z " fill="#000000"/><text fill="#000000" font-family="sans-serif" font-size="9" lengthAdjust="spacing" textLength="67.5" x="620.4375" y="361.4326">CategoryMapper</text><line style="stroke:#A80036;stroke-width:1.125;" x1="496.5" x2="787.5" y1="369.75" y2="369.75"/><line style="stroke:#A80036;stroke-width:1.125;" x1="496.5" x2="787.5" y1="375.75" y2="375.75"/><text fill="#000000" font-family="sans-serif" font-size="8.25" lengthAdjust="spacing" textLength="283.5" x="500.25" y="387.3142">+List&lt;CategoryDtoDto&gt; toDTO(List&lt;ParameterCategory&gt; parameterCategories)</text><text fill="#000000" font-family="sans-serif" font-size="8.25" lengthAdjust="spacing" textLength="156.75" x="500.25" y="397.6912">+CategoryDto toDTO(ParameterCategory tt)</text><!--MD5=[6ca282d596ffdf8981b3c7f53e037f13]
class CategoryDto--><rect codeLine="48" fill="#FEFECE" filter="url(#f1ips2my3piv6l)" height="67.1309" id="CategoryDto" style="stroke:#A80036;stroke-width:1.125;" width="265.5" x="883.125" y="312"/><ellipse cx="987.1875" cy="324" fill="#ADD1B2" rx="8.25" ry="8.25" style="stroke:#A80036;stroke-width:0.75;"/><path d="M988.6875,321.375 Q988.8398,321 989.0156,320.8125 Q989.1914,320.625 989.3906,320.625 Q989.7422,320.625 989.9648,320.8359 Q990.1875,321.0469 990.1875,321.5391 L990.1875,322.7109 Q990.1875,323.2031 989.9766,323.4141 Q989.7656,323.625 989.4375,323.625 Q989.1445,323.625 988.957,323.4961 Q988.7695,323.3672 988.6875,323.0273 Q988.6523,322.793 988.5234,322.6641 Q988.2891,322.418 987.8672,322.2773 Q987.4453,322.125 987.0234,322.125 Q986.4961,322.125 986.0508,322.3359 Q985.6172,322.5469 985.2773,323.0156 Q984.9375,323.4844 984.9375,324.1289 L984.9375,324.8203 Q984.9375,325.5938 985.5703,326.1094 Q986.2031,326.625 987.3281,326.625 Q987.9961,326.625 988.4648,326.4727 Q988.7344,326.3906 989.0391,326.1211 Q989.2383,325.9688 989.3438,325.9219 Q989.4492,325.875 989.5781,325.875 Q989.8242,325.875 990,326.0742 Q990.1875,326.2617 990.1875,326.5313 Q990.1875,326.7891 989.9297,327.0938 Q989.5547,327.5391 988.957,327.7852 Q988.1719,328.125 987.2109,328.125 Q986.0859,328.125 985.1836,327.6797 Q984.457,327.3281 983.9414,326.5664 Q983.4375,325.8047 983.4375,324.9023 L983.4375,324.082 Q983.4375,323.1445 983.8828,322.3242 Q984.3398,321.5039 985.125,321.0703 Q985.9219,320.625 986.8125,320.625 Q987.3516,320.625 987.8203,320.8125 Q988.2891,321 988.6875,321.375 Z " fill="#000000"/><text fill="#000000" font-family="sans-serif" font-size="9" lengthAdjust="spacing" textLength="51" x="1002.5625" y="327.6826">CategoryDto</text><line style="stroke:#A80036;stroke-width:1.125;" x1="883.875" x2="1147.875" y1="336" y2="336"/><text fill="#000000" font-family="sans-serif" font-size="8.25" lengthAdjust="spacing" textLength="21" x="887.625" y="347.5642">-code</text><text fill="#000000" font-family="sans-serif" font-size="8.25" lengthAdjust="spacing" textLength="22.5" x="887.625" y="357.9412">-name</text><line style="stroke:#A80036;stroke-width:1.125;" x1="883.875" x2="1147.875" y1="362.7539" y2="362.7539"/><text fill="#000000" font-family="sans-serif" font-size="8.25" lengthAdjust="spacing" textLength="256.5" x="887.625" y="374.3181">+CategoryDto(code, description, collectingMethod, selectedCategories)</text><!--MD5=[69134a8957932d955e1f822b15ec4b1c]
link CreateTestTypeUI to CreateTestTypeController--><path codeLine="54" d="M83.565,416.8875 C122.3925,392.1525 192.855,347.28 242.5725,315.6075 " fill="none" id="CreateTestTypeUI-to-CreateTestTypeController" style="stroke:#A80036;stroke-width:0.75;stroke-dasharray:7.0,7.0;"/><polygon fill="#A80036" points="245.82,313.545,238.5154,314.6427,242.6576,315.5604,241.74,319.7026,245.82,313.545" style="stroke:#A80036;stroke-width:0.75;"/><!--MD5=[f25ebcabf545d1f1b995bae7cd64165e]
link CreateTestTypeUI to CategoryDto--><path codeLine="55" d="M103.59,438.33 C221.67,445.455 533.235,458.3025 788.25,416.25 C833.4825,408.795 882.2025,394.5225 922.86,380.76 " fill="none" id="CreateTestTypeUI-to-CategoryDto" style="stroke:#A80036;stroke-width:0.75;stroke-dasharray:7.0,7.0;"/><polygon fill="#A80036" points="926.52,379.515,919.1628,378.8567,922.9711,380.7266,921.1012,384.5349,926.52,379.515" style="stroke:#A80036;stroke-width:0.75;"/><!--MD5=[3d90787a6c4fcaaaef3316a8b7a2a1cb]
link CategoryMapper to CategoryDto--><path codeLine="56" d="M788.3175,363.105 C818.19,360.825 849.525,358.425 879.045,356.1675 " fill="none" id="CategoryMapper-to-CategoryDto" style="stroke:#A80036;stroke-width:0.75;stroke-dasharray:7.0,7.0;"/><polygon fill="#A80036" points="883.005,355.86,876.0437,353.3896,879.2662,356.1493,876.5065,359.3717,883.005,355.86" style="stroke:#A80036;stroke-width:0.75;"/><!--MD5=[5f4198d269e8e237122a004a01e5b057]
link CategoryMapper to ParameterCategory--><path codeLine="57" d="M788.52,388.29 C814.1475,390.2475 840.585,391.95 865.5,393 C999.0525,398.61 1034.1075,413.1075 1166.25,393 C1373.9625,361.395 1608.615,271.7475 1712.9925,228.885 " fill="none" id="CategoryMapper-to-ParameterCategory" style="stroke:#A80036;stroke-width:0.75;stroke-dasharray:7.0,7.0;"/><polygon fill="#A80036" points="1716.6525,227.385,1709.2689,227.173,1713.1834,228.809,1711.5474,232.7235,1716.6525,227.385" style="stroke:#A80036;stroke-width:0.75;"/><!--MD5=[812ef8251b528d1a64980212cceda9f5]
link CreateTestTypeController to Company--><path codeLine="58" d="M414.12,245.9625 C468.7275,229.74 532.1025,210.9225 578.01,197.28 " fill="none" id="CreateTestTypeController-to-Company" style="stroke:#A80036;stroke-width:0.75;stroke-dasharray:7.0,7.0;"/><polygon fill="#A80036" points="581.8425,196.1475,574.5172,195.1976,578.2483,197.2172,576.2287,200.9483,581.8425,196.1475" style="stroke:#A80036;stroke-width:0.75;"/><!--MD5=[f2860e7e6b9c1f495685c001f24e1741]
link CreateTestTypeController to CategoryMapper--><path codeLine="59" d="M422.235,313.53 C459.0075,323.73 499.065,334.83 534.75,344.7225 " fill="none" id="CreateTestTypeController-to-CategoryMapper" style="stroke:#A80036;stroke-width:0.75;stroke-dasharray:7.0,7.0;"/><polygon fill="#A80036" points="538.4175,345.7425,532.7088,341.055,534.8026,344.7449,531.1127,346.8388,538.4175,345.7425" style="stroke:#A80036;stroke-width:0.75;"/><!--MD5=[844245ee139c60c4fad00671eb604d1d]
link CreateTestTypeController to CategoryDto--><path codeLine="60" d="M450.21,293.5875 C576.7575,305.2725 756.435,321.8625 878.955,333.1725 " fill="none" id="CreateTestTypeController-to-CategoryDto" style="stroke:#A80036;stroke-width:0.75;stroke-dasharray:7.0,7.0;"/><polygon fill="#A80036" points="882.9225,333.54,876.4746,329.9362,879.1882,333.1976,875.9268,335.9111,882.9225,333.54" style="stroke:#A80036;stroke-width:0.75;"/><!--MD5=[f4bf28669fe4ba1101395c8fda9b28f2]
link CreateTestTypeController to ParameterCategoryStore--><path codeLine="61" d="M450.21,273.93 C581.9175,268.8225 771.1875,261.4725 893.655,256.7175 " fill="none" id="CreateTestTypeController-to-ParameterCategoryStore" style="stroke:#A80036;stroke-width:0.75;stroke-dasharray:7.0,7.0;"/><polygon fill="#A80036" points="897.6225,256.56,890.758,253.8322,893.8755,256.7099,890.9978,259.8274,897.6225,256.56" style="stroke:#A80036;stroke-width:0.75;"/><!--MD5=[97f86ea091f10acfb6befc2251259947]
link CreateTestTypeController to TestTypeStore--><path codeLine="62" d="M334.59,245.835 C371.28,211.5 432.8025,159.555 495.75,131.25 C611.835,79.0575 754.95,56.3475 861.5325,46.4925 " fill="none" id="CreateTestTypeController-to-TestTypeStore" style="stroke:#A80036;stroke-width:0.75;stroke-dasharray:7.0,7.0;"/><polygon fill="#A80036" points="865.305,46.1475,858.3087,43.7782,861.5708,46.4909,858.8581,49.753,865.305,46.1475" style="stroke:#A80036;stroke-width:0.75;"/><!--MD5=[3eebf0e5f359806b77b30e9524c37676]
link TestTypeStore to TestType--><path codeLine="63" d="M1166.3325,60.0375 C1211.9025,66.435 1261.83,73.455 1306.8825,79.785 " fill="none" id="TestTypeStore-to-TestType" style="stroke:#A80036;stroke-width:0.75;stroke-dasharray:7.0,7.0;"/><polygon fill="#A80036" points="1310.67,80.3175,1304.3963,76.4184,1306.9556,79.8022,1303.5718,82.3615,1310.67,80.3175" style="stroke:#A80036;stroke-width:0.75;"/><!--MD5=[d6274e3b73b5bc8f467c6cfbf5bf003e]
link ParameterCategoryStore to ParameterCategory--><path codeLine="64" d="M1134.045,244.7325 C1298.52,234.555 1590.9825,216.4575 1712.64,208.935 " fill="none" id="ParameterCategoryStore-to-ParameterCategory" style="stroke:#A80036;stroke-width:0.75;stroke-dasharray:7.0,7.0;"/><polygon fill="#A80036" points="1716.5475,208.695,1709.6295,206.1058,1712.8043,208.9202,1709.9899,212.095,1716.5475,208.695" style="stroke:#A80036;stroke-width:0.75;"/><!--MD5=[d53d7490e5836ca5709858d7326f212b]
link Company to ParameterCategoryStore--><path codeLine="65" d="M702.165,190.23 C754.6275,200.58 832.665,215.985 897.69,228.8175 " fill="none" id="Company-ParameterCategoryStore" style="stroke:#A80036;stroke-width:0.75;"/><polygon fill="#000000" points="818.179,207.8579,811.9504,204.3819,811.0968,208.7069,818.179,207.8579" style="stroke:#000000;stroke-width:0.75;"/><text fill="#000000" font-family="sans-serif" font-size="9.75" lengthAdjust="spacing" textLength="21" x="821.25" y="211.1213">uses</text><text fill="#000000" font-family="sans-serif" font-size="9.75" lengthAdjust="spacing" textLength="5.25" x="707.9535" y="202.015">1</text><text fill="#000000" font-family="sans-serif" font-size="9.75" lengthAdjust="spacing" textLength="5.25" x="886.5883" y="238.1219">1</text><!--MD5=[141c3afa12b2b3c0a39ffce56dbd5f19]
link Company to TestTypeStore--><path codeLine="66" d="M702.165,147.1875 C733.8525,131.25 773.82,112.3125 810.75,98.25 C834.915,89.0475 861.15,80.445 886.5075,72.8025 " fill="none" id="Company-TestTypeStore" style="stroke:#A80036;stroke-width:0.75;"/><polygon fill="#000000" points="817.9776,80.4786,810.8618,80.973,812.5114,85.0611,817.9776,80.4786" style="stroke:#000000;stroke-width:0.75;"/><text fill="#000000" font-family="sans-serif" font-size="9.75" lengthAdjust="spacing" textLength="21" x="821.25" y="85.8713">uses</text><text fill="#000000" font-family="sans-serif" font-size="9.75" lengthAdjust="spacing" textLength="5.25" x="707.9535" y="155.0045">1</text><text fill="#000000" font-family="sans-serif" font-size="9.75" lengthAdjust="spacing" textLength="5.25" x="862.6961" y="88.5656">1</text><!--MD5=[8aaf0efd5e2f3824be7ea3e488dcc283]
link TestType to ParameterCategory--><path codeLine="67" d="M1588.7025,125.145 C1623.855,133.8075 1661.0625,144.96 1694.25,159 C1705.695,163.8375 1717.3875,170.3475 1727.9925,176.9625 " fill="none" id="TestType-ParameterCategory" style="stroke:#A80036;stroke-width:0.75;"/><polygon fill="#000000" points="1618.2647,127.4393,1612.6751,123.0082,1611.138,127.1399,1618.2647,127.4393" style="stroke:#000000;stroke-width:0.75;"/><text fill="#000000" font-family="sans-serif" font-size="9.75" lengthAdjust="spacing" textLength="72" x="1621.5" y="130.1213">characterized by</text><text fill="#000000" font-family="sans-serif" font-size="9.75" lengthAdjust="spacing" textLength="5.25" x="1594.6753" y="136.5909">1</text><text fill="#000000" font-family="sans-serif" font-size="9.75" lengthAdjust="spacing" textLength="15" x="1704.072" y="168.763">1..*</text><!--MD5=[742a261f27a3dcd734c626287d811acd]
link Company to TestType--><path codeLine="68" d="M702.195,171.2625 C734.3175,167.4375 774.6825,162.765 810.75,159 C982.86,141.0225 1181.37,123.0225 1310.715,111.6675 " fill="none" id="Company-TestType" style="stroke:#A80036;stroke-width:0.75;"/><polygon fill="#000000" points="997.8571,119.0163,990.8908,117.4838,991.3205,121.8712,997.8571,119.0163" style="stroke:#000000;stroke-width:0.75;"/><text fill="#000000" font-family="sans-serif" font-size="9.75" lengthAdjust="spacing" textLength="39.75" x="1000.875" y="123.3713">conducts</text><text fill="#000000" font-family="sans-serif" font-size="9.75" lengthAdjust="spacing" textLength="5.25" x="707.9862" y="181.2989">1</text><text fill="#000000" font-family="sans-serif" font-size="9.75" lengthAdjust="spacing" textLength="3.75" x="1301.4607" y="122.4889">*</text><!--MD5=[93b4f25fb503a8e0e9a46b1d30ff3f44]
link Company to ParameterCategory--><path codeLine="69" d="M702.165,176.8275 C862.5225,172.875 1317.48,165.3825 1694.25,195 C1701.48,195.57 1709.085,196.3875 1716.5475,197.325 " fill="none" id="Company-ParameterCategory" style="stroke:#A80036;stroke-width:0.75;"/><polygon fill="#000000" points="1196.2492,168.2076,1189.5113,165.8668,1189.4223,170.2743,1196.2492,168.2076" style="stroke:#000000;stroke-width:0.75;"/><text fill="#000000" font-family="sans-serif" font-size="9.75" lengthAdjust="spacing" textLength="88.5" x="1199.25" y="172.1213">capable of analysing</text><text fill="#000000" font-family="sans-serif" font-size="9.75" lengthAdjust="spacing" textLength="5.25" x="707.9535" y="174.2707">1</text><text fill="#000000" font-family="sans-serif" font-size="9.75" lengthAdjust="spacing" textLength="3.75" x="1706.8691" y="207.2363">*</text><!--MD5=[c9347ddae3642860c0b0ec75ff0db00a]
@startuml
skinparam classAttributeIconSize 0
left to right direction
class CreateTestTypeUI{
}

class CreateTestTypeController{
+createTestType(code, description, collectingMethod, selectedCategoriesCodes)
+saveTestType(tt)
+getCategories()
}

class TestType {
- code : String
- description : String
- collectingMethod : String
+TestType(code, description, collectingMethod, selectedCategoriesCodes)
}

class ParameterCategoryStore {
+getParameterCategoriesStore()
+getCategoriesByCode(List<String> parameterCategoryCodes)
+getCategoryByCode(String code)
}

class ParameterCategory{
- name
- code
}

class Company {
-designation : String
+getTestTypeStore()
+getParameterCategoryStore()
}

class TestTypeStore {
+createTestType(code, description, collectingMethod, selectedCategoriesCodes)
+validateTestType(tt)
+saveTestType(tt)
}

class CategoryMapper {
+List<CategoryDtoDto> toDTO(List<ParameterCategory> parameterCategories)
+CategoryDto toDTO(ParameterCategory tt)
}


class CategoryDto {
-code
-name
+CategoryDto(code, description, collectingMethod, selectedCategories)
}

CreateTestTypeUI ..> CreateTestTypeController
CreateTestTypeUI ..> CategoryDto
CategoryMapper ..> CategoryDto
CategoryMapper ..> ParameterCategory
CreateTestTypeController ..> Company
CreateTestTypeController ..> CategoryMapper
CreateTestTypeController ..> CategoryDto
CreateTestTypeController ..> ParameterCategoryStore
CreateTestTypeController ..> TestTypeStore
TestTypeStore ..> TestType
ParameterCategoryStore ..> ParameterCategory
Company "1" - - "1" ParameterCategoryStore : uses >
Company "1" - - "1" TestTypeStore : uses >
TestType "1" - - "1..*" ParameterCategory : characterized by >
Company "1" - - "*" TestType : conducts >
Company "1" - - "*" ParameterCategory : capable of analysing >





@enduml

PlantUML version 1.2021.00(Sun Jan 10 10:25:05 GMT 2021)
(GPL source distribution)
Java Runtime: OpenJDK Runtime Environment
JVM: OpenJDK 64-Bit Server VM
Default Encoding: Cp1252
Language: pt
Country: BR
--></g></svg>