<?xml version="1.0" encoding="UTF-8" standalone="no"?><svg xmlns="http://www.w3.org/2000/svg" xmlns:xlink="http://www.w3.org/1999/xlink" contentScriptType="application/ecmascript" contentStyleType="text/css" height="1391.25px" preserveAspectRatio="none" style="width:1618px;height:1391px;" version="1.1" viewBox="0 0 1618 1391" width="1618.75px" zoomAndPan="magnify"><defs><filter height="300%" id="f11lu0hbhqzrit" width="300%" x="-1" y="-1"><feGaussianBlur result="blurOut" stdDeviation="2.5"/><feColorMatrix in="blurOut" result="blurOut2" type="matrix" values="0 0 0 0 0 0 0 0 0 0 0 0 0 0 0 0 0 0 .4 0"/><feOffset dx="5.0" dy="5.0" in="blurOut2" result="blurOut3"/><feBlend in="SourceGraphic" in2="blurOut3" mode="normal"/></filter></defs><g><!--MD5=[121a8bf1197281ab89ed693fab589f94]
cluster Domain--><polygon fill="#FFFFFF" filter="url(#f11lu0hbhqzrit)" points="507.5,7.5,580,7.5,588.75,37.0117,1597.5,37.0117,1597.5,720,507.5,720,507.5,7.5" style="stroke:#000000;stroke-width:1.875;"/><line style="stroke:#000000;stroke-width:1.875;" x1="507.5" x2="588.75" y1="37.0117" y2="37.0117"/><text fill="#000000" font-family="sans-serif" font-size="17.5" font-weight="bold" lengthAdjust="spacing" textLength="65" x="512.5" y="28.1665">Domain</text><!--MD5=[15636c1ca4a123c16a2a1a8e90aca7a9]
cluster Model--><polygon fill="#FFFFFF" filter="url(#f11lu0hbhqzrit)" points="537.5,287.5,600,287.5,608.75,317.0117,1567.5,317.0117,1567.5,690,537.5,690,537.5,287.5" style="stroke:#000000;stroke-width:1.875;"/><line style="stroke:#000000;stroke-width:1.875;" x1="537.5" x2="608.75" y1="317.0117" y2="317.0117"/><text fill="#000000" font-family="sans-serif" font-size="17.5" font-weight="bold" lengthAdjust="spacing" textLength="55" x="542.5" y="308.1665">Model</text><!--MD5=[7ce1723ddb6e6233854253973eae5a71]
cluster Store--><polygon fill="#FFFFFF" filter="url(#f11lu0hbhqzrit)" points="1310.625,62.5,1365.625,62.5,1374.375,92.0117,1545.625,92.0117,1545.625,257.5,1310.625,257.5,1310.625,62.5" style="stroke:#000000;stroke-width:1.875;"/><line style="stroke:#000000;stroke-width:1.875;" x1="1310.625" x2="1374.375" y1="92.0117" y2="92.0117"/><text fill="#000000" font-family="sans-serif" font-size="17.5" font-weight="bold" lengthAdjust="spacing" textLength="47.5" x="1315.625" y="83.1665">Store</text><!--MD5=[701152d03fbf85133a1de050cfdbc7fd]
cluster Mappers--><polygon fill="#FFFFFF" filter="url(#f11lu0hbhqzrit)" points="568.75,750,653.75,750,662.5,779.5117,802.5,779.5117,802.5,1028.75,568.75,1028.75,568.75,750" style="stroke:#000000;stroke-width:1.875;"/><line style="stroke:#000000;stroke-width:1.875;" x1="568.75" x2="662.5" y1="779.5117" y2="779.5117"/><text fill="#000000" font-family="sans-serif" font-size="17.5" font-weight="bold" lengthAdjust="spacing" textLength="77.5" x="573.75" y="770.6665">Mappers</text><!--MD5=[7b8bc9ee8bb84b99fb3a3f9477c19238]
cluster DTO--><polygon fill="#FFFFFF" filter="url(#f11lu0hbhqzrit)" points="945,897.5,988.75,897.5,997.5,927.0117,1193.75,927.0117,1193.75,1283.75,945,1283.75,945,897.5" style="stroke:#000000;stroke-width:1.875;"/><line style="stroke:#000000;stroke-width:1.875;" x1="945" x2="997.5" y1="927.0117" y2="927.0117"/><text fill="#000000" font-family="sans-serif" font-size="17.5" font-weight="bold" lengthAdjust="spacing" textLength="36.25" x="950" y="918.1665">DTO</text><!--MD5=[1f2cfc53d9d308f53762fd0fcbaa4873]
cluster Controller--><polygon fill="#FFFFFF" filter="url(#f11lu0hbhqzrit)" points="237.5,838.75,333.75,838.75,342.5,868.2617,466.25,868.2617,466.25,1068.75,237.5,1068.75,237.5,838.75" style="stroke:#000000;stroke-width:1.875;"/><line style="stroke:#000000;stroke-width:1.875;" x1="237.5" x2="342.5" y1="868.2617" y2="868.2617"/><text fill="#000000" font-family="sans-serif" font-size="17.5" font-weight="bold" lengthAdjust="spacing" textLength="88.75" x="242.5" y="859.4165">Controller</text><!--MD5=[9681dc6e01e10c6b4fe06895ae94f592]
cluster UI--><polygon fill="#FFFFFF" filter="url(#f11lu0hbhqzrit)" points="20,1187.5,45,1187.5,53.75,1217.0117,196.25,1217.0117,196.25,1292.5,20,1292.5,20,1187.5" style="stroke:#000000;stroke-width:1.875;"/><line style="stroke:#000000;stroke-width:1.875;" x1="20" x2="53.75" y1="1217.0117" y2="1217.0117"/><text fill="#000000" font-family="sans-serif" font-size="17.5" font-weight="bold" lengthAdjust="spacing" textLength="17.5" x="25" y="1208.1665">UI</text><!--MD5=[02e4b9b7573f1156f41e60aa5b4e25a4]
class Company--><rect codeLine="10" fill="#FEFECE" filter="url(#f11lu0hbhqzrit)" height="129.1797" id="Company" style="stroke:#A80036;stroke-width:1.875;" width="173.75" x="598.75" y="333.125"/><ellipse cx="647.875" cy="353.125" fill="#ADD1B2" rx="13.75" ry="13.75" style="stroke:#A80036;stroke-width:1.25;"/><path d="M650.375,348.75 Q650.6289,348.125 650.9219,347.8125 Q651.2148,347.5 651.5469,347.5 Q652.1328,347.5 652.5039,347.8516 Q652.875,348.2031 652.875,349.0234 L652.875,350.9766 Q652.875,351.7969 652.5234,352.1484 Q652.1719,352.5 651.625,352.5 Q651.1367,352.5 650.8242,352.2852 Q650.5117,352.0703 650.375,351.5039 Q650.3164,351.1133 650.1016,350.8984 Q649.7109,350.4883 649.0078,350.2539 Q648.3047,350 647.6016,350 Q646.7227,350 645.9805,350.3516 Q645.2578,350.7031 644.6914,351.4844 Q644.125,352.2656 644.125,353.3398 L644.125,354.4922 Q644.125,355.7813 645.1797,356.6406 Q646.2344,357.5 648.1094,357.5 Q649.2227,357.5 650.0039,357.2461 Q650.4531,357.1094 650.9609,356.6602 Q651.293,356.4063 651.4688,356.3281 Q651.6445,356.25 651.8594,356.25 Q652.2695,356.25 652.5625,356.582 Q652.875,356.8945 652.875,357.3438 Q652.875,357.7734 652.4453,358.2813 Q651.8203,359.0234 650.8242,359.4336 Q649.5156,360 647.9141,360 Q646.0391,360 644.5352,359.2578 Q643.3242,358.6719 642.4648,357.4023 Q641.625,356.1328 641.625,354.6289 L641.625,353.2617 Q641.625,351.6992 642.3672,350.332 Q643.1289,348.9648 644.4375,348.2422 Q645.7656,347.5 647.25,347.5 Q648.1484,347.5 648.9297,347.8125 Q649.7109,348.125 650.375,348.75 Z " fill="#000000"/><text fill="#000000" font-family="sans-serif" font-size="15" lengthAdjust="spacing" textLength="66.25" x="672.125" y="359.2627">Company</text><line style="stroke:#A80036;stroke-width:1.875;" x1="600" x2="771.25" y1="373.125" y2="373.125"/><text fill="#000000" font-family="sans-serif" font-size="13.75" lengthAdjust="spacing" textLength="112.5" x="606.25" y="392.3987">-String designation</text><text fill="#000000" font-family="sans-serif" font-size="13.75" lengthAdjust="spacing" textLength="122.5" x="606.25" y="409.6936">-TestStore testStore</text><line style="stroke:#A80036;stroke-width:1.875;" x1="600" x2="771.25" y1="417.7148" y2="417.7148"/><text fill="#000000" font-family="sans-serif" font-size="13.75" lengthAdjust="spacing" textLength="95" x="606.25" y="436.9885">+getTestStore()</text><text fill="#000000" font-family="sans-serif" font-size="13.75" lengthAdjust="spacing" textLength="158.75" x="606.25" y="454.2834">+createReport(reportText)</text><!--MD5=[f00dbe8c0302c6aec2cb26b3c659c8fc]
class Report--><rect codeLine="17" fill="#FEFECE" filter="url(#f11lu0hbhqzrit)" height="146.4746" id="Report" style="stroke:#A80036;stroke-width:1.875;" width="231.25" x="953.75" y="333.125"/><ellipse cx="1040.9375" cy="353.125" fill="#ADD1B2" rx="13.75" ry="13.75" style="stroke:#A80036;stroke-width:1.25;"/><path d="M1043.4375,348.75 Q1043.6914,348.125 1043.9844,347.8125 Q1044.2773,347.5 1044.6094,347.5 Q1045.1953,347.5 1045.5664,347.8516 Q1045.9375,348.2031 1045.9375,349.0234 L1045.9375,350.9766 Q1045.9375,351.7969 1045.5859,352.1484 Q1045.2344,352.5 1044.6875,352.5 Q1044.1992,352.5 1043.8867,352.2852 Q1043.5742,352.0703 1043.4375,351.5039 Q1043.3789,351.1133 1043.1641,350.8984 Q1042.7734,350.4883 1042.0703,350.2539 Q1041.3672,350 1040.6641,350 Q1039.7852,350 1039.043,350.3516 Q1038.3203,350.7031 1037.7539,351.4844 Q1037.1875,352.2656 1037.1875,353.3398 L1037.1875,354.4922 Q1037.1875,355.7813 1038.2422,356.6406 Q1039.2969,357.5 1041.1719,357.5 Q1042.2852,357.5 1043.0664,357.2461 Q1043.5156,357.1094 1044.0234,356.6602 Q1044.3555,356.4063 1044.5313,356.3281 Q1044.707,356.25 1044.9219,356.25 Q1045.332,356.25 1045.625,356.582 Q1045.9375,356.8945 1045.9375,357.3438 Q1045.9375,357.7734 1045.5078,358.2813 Q1044.8828,359.0234 1043.8867,359.4336 Q1042.5781,360 1040.9766,360 Q1039.1016,360 1037.5977,359.2578 Q1036.3867,358.6719 1035.5273,357.4023 Q1034.6875,356.1328 1034.6875,354.6289 L1034.6875,353.2617 Q1034.6875,351.6992 1035.4297,350.332 Q1036.1914,348.9648 1037.5,348.2422 Q1038.8281,347.5 1040.3125,347.5 Q1041.2109,347.5 1041.9922,347.8125 Q1042.7734,348.125 1043.4375,348.75 Z " fill="#000000"/><text fill="#000000" font-family="sans-serif" font-size="15" lengthAdjust="spacing" textLength="46.25" x="1066.5625" y="359.2627">Report</text><line style="stroke:#A80036;stroke-width:1.875;" x1="955" x2="1183.75" y1="373.125" y2="373.125"/><text fill="#000000" font-family="sans-serif" font-size="13.75" lengthAdjust="spacing" textLength="106.25" x="961.25" y="392.3987">-String reportText</text><line style="stroke:#A80036;stroke-width:1.875;" x1="955" x2="1183.75" y1="400.4199" y2="400.4199"/><text fill="#000000" font-family="sans-serif" font-size="13.75" lengthAdjust="spacing" textLength="120" x="961.25" y="419.6936">+Report(reportText)</text><text fill="#000000" font-family="sans-serif" font-size="13.75" lengthAdjust="spacing" textLength="216.25" x="961.25" y="436.9885">+checkReportTextRules(reportText)</text><text fill="#000000" font-family="sans-serif" font-size="13.75" lengthAdjust="spacing" textLength="153.75" x="961.25" y="454.2834">+countWords(reportText)</text><text fill="#000000" font-family="sans-serif" font-size="13.75" lengthAdjust="spacing" textLength="63.75" x="961.25" y="471.5784">+toString()</text><!--MD5=[df38be88ccee13e832d6fafd6288a4ca]
class Test--><rect codeLine="25" fill="#FEFECE" filter="url(#f11lu0hbhqzrit)" height="163.7695" id="Test" style="stroke:#A80036;stroke-width:1.875;" width="238.75" x="1308.75" y="443.125"/><ellipse cx="1407.8125" cy="463.125" fill="#ADD1B2" rx="13.75" ry="13.75" style="stroke:#A80036;stroke-width:1.25;"/><path d="M1410.3125,458.75 Q1410.5664,458.125 1410.8594,457.8125 Q1411.1523,457.5 1411.4844,457.5 Q1412.0703,457.5 1412.4414,457.8516 Q1412.8125,458.2031 1412.8125,459.0234 L1412.8125,460.9766 Q1412.8125,461.7969 1412.4609,462.1484 Q1412.1094,462.5 1411.5625,462.5 Q1411.0742,462.5 1410.7617,462.2852 Q1410.4492,462.0703 1410.3125,461.5039 Q1410.2539,461.1133 1410.0391,460.8984 Q1409.6484,460.4883 1408.9453,460.2539 Q1408.2422,460 1407.5391,460 Q1406.6602,460 1405.918,460.3516 Q1405.1953,460.7031 1404.6289,461.4844 Q1404.0625,462.2656 1404.0625,463.3398 L1404.0625,464.4922 Q1404.0625,465.7813 1405.1172,466.6406 Q1406.1719,467.5 1408.0469,467.5 Q1409.1602,467.5 1409.9414,467.2461 Q1410.3906,467.1094 1410.8984,466.6602 Q1411.2305,466.4063 1411.4063,466.3281 Q1411.582,466.25 1411.7969,466.25 Q1412.207,466.25 1412.5,466.582 Q1412.8125,466.8945 1412.8125,467.3438 Q1412.8125,467.7734 1412.3828,468.2813 Q1411.7578,469.0234 1410.7617,469.4336 Q1409.4531,470 1407.8516,470 Q1405.9766,470 1404.4727,469.2578 Q1403.2617,468.6719 1402.4023,467.4023 Q1401.5625,466.1328 1401.5625,464.6289 L1401.5625,463.2617 Q1401.5625,461.6992 1402.3047,460.332 Q1403.0664,458.9648 1404.375,458.2422 Q1405.7031,457.5 1407.1875,457.5 Q1408.0859,457.5 1408.8672,457.8125 Q1409.6484,458.125 1410.3125,458.75 Z " fill="#000000"/><text fill="#000000" font-family="sans-serif" font-size="15" lengthAdjust="spacing" textLength="30" x="1433.4375" y="469.2627">Test</text><line style="stroke:#A80036;stroke-width:1.875;" x1="1310" x2="1546.25" y1="483.125" y2="483.125"/><text fill="#000000" font-family="sans-serif" font-size="13.75" lengthAdjust="spacing" textLength="73.75" x="1316.25" y="502.3987">-String code</text><text fill="#000000" font-family="sans-serif" font-size="13.75" lengthAdjust="spacing" textLength="146.25" x="1316.25" y="519.6936">-Report diagnosisReport</text><text fill="#000000" font-family="sans-serif" font-size="13.75" lengthAdjust="spacing" textLength="223.75" x="1316.25" y="536.9885">-List&lt;TestParameter&gt; testParameters</text><line style="stroke:#A80036;stroke-width:1.875;" x1="1310" x2="1546.25" y1="545.0098" y2="545.0098"/><text fill="#000000" font-family="sans-serif" font-size="13.75" lengthAdjust="spacing" textLength="105" x="1316.25" y="564.2834">+getParameters()</text><text fill="#000000" font-family="sans-serif" font-size="13.75" lengthAdjust="spacing" textLength="148.75" x="1316.25" y="581.5784">+hasSamplesAnalysed()</text><text fill="#000000" font-family="sans-serif" font-size="13.75" lengthAdjust="spacing" textLength="116.25" x="1316.25" y="598.8733">+addReport(report)</text><!--MD5=[0f07739f46effee96e095e9c408da841]
class TestParameter--><rect codeLine="34" fill="#FEFECE" filter="url(#f11lu0hbhqzrit)" height="129.1797" id="TestParameter" style="stroke:#A80036;stroke-width:1.875;" width="208.75" x="965" y="523.125"/><ellipse cx="1013.5625" cy="543.125" fill="#ADD1B2" rx="13.75" ry="13.75" style="stroke:#A80036;stroke-width:1.25;"/><path d="M1016.0625,538.75 Q1016.3164,538.125 1016.6094,537.8125 Q1016.9023,537.5 1017.2344,537.5 Q1017.8203,537.5 1018.1914,537.8516 Q1018.5625,538.2031 1018.5625,539.0234 L1018.5625,540.9766 Q1018.5625,541.7969 1018.2109,542.1484 Q1017.8594,542.5 1017.3125,542.5 Q1016.8242,542.5 1016.5117,542.2852 Q1016.1992,542.0703 1016.0625,541.5039 Q1016.0039,541.1133 1015.7891,540.8984 Q1015.3984,540.4883 1014.6953,540.2539 Q1013.9922,540 1013.2891,540 Q1012.4102,540 1011.668,540.3516 Q1010.9453,540.7031 1010.3789,541.4844 Q1009.8125,542.2656 1009.8125,543.3398 L1009.8125,544.4922 Q1009.8125,545.7813 1010.8672,546.6406 Q1011.9219,547.5 1013.7969,547.5 Q1014.9102,547.5 1015.6914,547.2461 Q1016.1406,547.1094 1016.6484,546.6602 Q1016.9805,546.4063 1017.1563,546.3281 Q1017.332,546.25 1017.5469,546.25 Q1017.957,546.25 1018.25,546.582 Q1018.5625,546.8945 1018.5625,547.3438 Q1018.5625,547.7734 1018.1328,548.2813 Q1017.5078,549.0234 1016.5117,549.4336 Q1015.2031,550 1013.6016,550 Q1011.7266,550 1010.2227,549.2578 Q1009.0117,548.6719 1008.1523,547.4023 Q1007.3125,546.1328 1007.3125,544.6289 L1007.3125,543.2617 Q1007.3125,541.6992 1008.0547,540.332 Q1008.8164,538.9648 1010.125,538.2422 Q1011.4531,537.5 1012.9375,537.5 Q1013.8359,537.5 1014.6172,537.8125 Q1015.3984,538.125 1016.0625,538.75 Z " fill="#000000"/><text fill="#000000" font-family="sans-serif" font-size="15" lengthAdjust="spacing" textLength="102.5" x="1037.6875" y="549.2627">TestParameter</text><line style="stroke:#A80036;stroke-width:1.875;" x1="966.25" x2="1172.5" y1="563.125" y2="563.125"/><text fill="#000000" font-family="sans-serif" font-size="13.75" lengthAdjust="spacing" textLength="131.25" x="972.5" y="582.3987">-Parameter parameter</text><text fill="#000000" font-family="sans-serif" font-size="13.75" lengthAdjust="spacing" textLength="193.75" x="972.5" y="599.6936">-TestParameterResult testResult</text><line style="stroke:#A80036;stroke-width:1.875;" x1="966.25" x2="1172.5" y1="607.7148" y2="607.7148"/><text fill="#000000" font-family="sans-serif" font-size="13.75" lengthAdjust="spacing" textLength="97.5" x="972.5" y="626.9885">+getParameter()</text><text fill="#000000" font-family="sans-serif" font-size="13.75" lengthAdjust="spacing" textLength="135" x="972.5" y="644.2834">+getParameterResult()</text><!--MD5=[4e608140b854dae633589343bce77383]
class TestParameterResult--><rect codeLine="41" fill="#FEFECE" filter="url(#f11lu0hbhqzrit)" height="163.7695" id="TestParameterResult" style="stroke:#A80036;stroke-width:1.875;" width="256.25" x="557.5" y="505.625"/><ellipse cx="607.1875" cy="525.625" fill="#ADD1B2" rx="13.75" ry="13.75" style="stroke:#A80036;stroke-width:1.25;"/><path d="M609.6875,521.25 Q609.9414,520.625 610.2344,520.3125 Q610.5273,520 610.8594,520 Q611.4453,520 611.8164,520.3516 Q612.1875,520.7031 612.1875,521.5234 L612.1875,523.4766 Q612.1875,524.2969 611.8359,524.6484 Q611.4844,525 610.9375,525 Q610.4492,525 610.1367,524.7852 Q609.8242,524.5703 609.6875,524.0039 Q609.6289,523.6133 609.4141,523.3984 Q609.0234,522.9883 608.3203,522.7539 Q607.6172,522.5 606.9141,522.5 Q606.0352,522.5 605.293,522.8516 Q604.5703,523.2031 604.0039,523.9844 Q603.4375,524.7656 603.4375,525.8398 L603.4375,526.9922 Q603.4375,528.2813 604.4922,529.1406 Q605.5469,530 607.4219,530 Q608.5352,530 609.3164,529.7461 Q609.7656,529.6094 610.2734,529.1602 Q610.6055,528.9063 610.7813,528.8281 Q610.957,528.75 611.1719,528.75 Q611.582,528.75 611.875,529.082 Q612.1875,529.3945 612.1875,529.8438 Q612.1875,530.2734 611.7578,530.7813 Q611.1328,531.5234 610.1367,531.9336 Q608.8281,532.5 607.2266,532.5 Q605.3516,532.5 603.8477,531.7578 Q602.6367,531.1719 601.7773,529.9023 Q600.9375,528.6328 600.9375,527.1289 L600.9375,525.7617 Q600.9375,524.1992 601.6797,522.832 Q602.4414,521.4648 603.75,520.7422 Q605.0781,520 606.5625,520 Q607.4609,520 608.2422,520.3125 Q609.0234,520.625 609.6875,521.25 Z " fill="#000000"/><text fill="#000000" font-family="sans-serif" font-size="15" lengthAdjust="spacing" textLength="147.5" x="631.5625" y="531.7627">TestParameterResult</text><line style="stroke:#A80036;stroke-width:1.875;" x1="558.75" x2="812.5" y1="545.625" y2="545.625"/><text fill="#000000" font-family="sans-serif" font-size="13.75" lengthAdjust="spacing" textLength="82.5" x="565" y="564.8987">-Double value</text><text fill="#000000" font-family="sans-serif" font-size="13.75" lengthAdjust="spacing" textLength="80" x="565" y="582.1936">-String metric</text><text fill="#000000" font-family="sans-serif" font-size="13.75" lengthAdjust="spacing" textLength="241.25" x="565" y="599.4885">-MyReferenceValue myReferenceValue</text><line style="stroke:#A80036;stroke-width:1.875;" x1="558.75" x2="812.5" y1="607.5098" y2="607.5098"/><text fill="#000000" font-family="sans-serif" font-size="13.75" lengthAdjust="spacing" textLength="108.75" x="565" y="626.7834">+getResultValue()</text><text fill="#000000" font-family="sans-serif" font-size="13.75" lengthAdjust="spacing" textLength="110" x="565" y="644.0784">+getResultMetric()</text><text fill="#000000" font-family="sans-serif" font-size="13.75" lengthAdjust="spacing" textLength="172.5" x="565" y="661.3733">+getResultReferenceValue()</text><!--MD5=[0f6f7964b844a64b0496af0dda7914bd]
class TestStore--><rect codeLine="54" fill="#FEFECE" filter="url(#f11lu0hbhqzrit)" height="129.1797" id="TestStore" style="stroke:#A80036;stroke-width:1.875;" width="195" x="1330.625" y="108.125"/><ellipse cx="1389.6875" cy="128.125" fill="#ADD1B2" rx="13.75" ry="13.75" style="stroke:#A80036;stroke-width:1.25;"/><path d="M1392.1875,123.75 Q1392.4414,123.125 1392.7344,122.8125 Q1393.0273,122.5 1393.3594,122.5 Q1393.9453,122.5 1394.3164,122.8516 Q1394.6875,123.2031 1394.6875,124.0234 L1394.6875,125.9766 Q1394.6875,126.7969 1394.3359,127.1484 Q1393.9844,127.5 1393.4375,127.5 Q1392.9492,127.5 1392.6367,127.2852 Q1392.3242,127.0703 1392.1875,126.5039 Q1392.1289,126.1133 1391.9141,125.8984 Q1391.5234,125.4883 1390.8203,125.2539 Q1390.1172,125 1389.4141,125 Q1388.5352,125 1387.793,125.3516 Q1387.0703,125.7031 1386.5039,126.4844 Q1385.9375,127.2656 1385.9375,128.3398 L1385.9375,129.4922 Q1385.9375,130.7813 1386.9922,131.6406 Q1388.0469,132.5 1389.9219,132.5 Q1391.0352,132.5 1391.8164,132.2461 Q1392.2656,132.1094 1392.7734,131.6602 Q1393.1055,131.4063 1393.2813,131.3281 Q1393.457,131.25 1393.6719,131.25 Q1394.082,131.25 1394.375,131.582 Q1394.6875,131.8945 1394.6875,132.3438 Q1394.6875,132.7734 1394.2578,133.2813 Q1393.6328,134.0234 1392.6367,134.4336 Q1391.3281,135 1389.7266,135 Q1387.8516,135 1386.3477,134.2578 Q1385.1367,133.6719 1384.2773,132.4023 Q1383.4375,131.1328 1383.4375,129.6289 L1383.4375,128.2617 Q1383.4375,126.6992 1384.1797,125.332 Q1384.9414,123.9648 1386.25,123.2422 Q1387.5781,122.5 1389.0625,122.5 Q1389.9609,122.5 1390.7422,122.8125 Q1391.5234,123.125 1392.1875,123.75 Z " fill="#000000"/><text fill="#000000" font-family="sans-serif" font-size="15" lengthAdjust="spacing" textLength="66.25" x="1415.3125" y="134.2627">TestStore</text><line style="stroke:#A80036;stroke-width:1.875;" x1="1331.875" x2="1524.375" y1="148.125" y2="148.125"/><text fill="#000000" font-family="sans-serif" font-size="13.75" lengthAdjust="spacing" textLength="110" x="1338.125" y="167.3987">-list&lt;Test&gt; testList</text><line style="stroke:#A80036;stroke-width:1.875;" x1="1331.875" x2="1524.375" y1="175.4199" y2="175.4199"/><text fill="#000000" font-family="sans-serif" font-size="13.75" lengthAdjust="spacing" textLength="180" x="1338.125" y="194.6936">+getTestsReadyToDiagnose()</text><text fill="#000000" font-family="sans-serif" font-size="13.75" lengthAdjust="spacing" textLength="140" x="1338.125" y="211.9885">+getTestByCode(code)</text><text fill="#000000" font-family="sans-serif" font-size="13.75" lengthAdjust="spacing" textLength="146.25" x="1338.125" y="229.2834">+getTestParameters(tst)</text><!--MD5=[144698ec4d0188f6929a3b58a3eeb1f6]
class TestMapper--><rect codeLine="67" fill="#FEFECE" filter="url(#f11lu0hbhqzrit)" height="84.5898" id="TestMapper" style="stroke:#A80036;stroke-width:1.875;" width="121.25" x="625" y="795"/><ellipse cx="643.75" cy="815" fill="#ADD1B2" rx="13.75" ry="13.75" style="stroke:#A80036;stroke-width:1.25;"/><path d="M646.25,810.625 Q646.5039,810 646.7969,809.6875 Q647.0898,809.375 647.4219,809.375 Q648.0078,809.375 648.3789,809.7266 Q648.75,810.0781 648.75,810.8984 L648.75,812.8516 Q648.75,813.6719 648.3984,814.0234 Q648.0469,814.375 647.5,814.375 Q647.0117,814.375 646.6992,814.1602 Q646.3867,813.9453 646.25,813.3789 Q646.1914,812.9883 645.9766,812.7734 Q645.5859,812.3633 644.8828,812.1289 Q644.1797,811.875 643.4766,811.875 Q642.5977,811.875 641.8555,812.2266 Q641.1328,812.5781 640.5664,813.3594 Q640,814.1406 640,815.2148 L640,816.3672 Q640,817.6563 641.0547,818.5156 Q642.1094,819.375 643.9844,819.375 Q645.0977,819.375 645.8789,819.1211 Q646.3281,818.9844 646.8359,818.5352 Q647.168,818.2813 647.3438,818.2031 Q647.5195,818.125 647.7344,818.125 Q648.1445,818.125 648.4375,818.457 Q648.75,818.7695 648.75,819.2188 Q648.75,819.6484 648.3203,820.1563 Q647.6953,820.8984 646.6992,821.3086 Q645.3906,821.875 643.7891,821.875 Q641.9141,821.875 640.4102,821.1328 Q639.1992,820.5469 638.3398,819.2773 Q637.5,818.0078 637.5,816.5039 L637.5,815.1367 Q637.5,813.5742 638.2422,812.207 Q639.0039,810.8398 640.3125,810.1172 Q641.6406,809.375 643.125,809.375 Q644.0234,809.375 644.8047,809.6875 Q645.5859,810 646.25,810.625 Z " fill="#000000"/><text fill="#000000" font-family="sans-serif" font-size="15" lengthAdjust="spacing" textLength="81.25" x="661.25" y="821.1377">TestMapper</text><line style="stroke:#A80036;stroke-width:1.875;" x1="626.25" x2="745" y1="835" y2="835"/><text fill="#000000" font-family="sans-serif" font-size="13.75" lengthAdjust="spacing" textLength="85" x="632.5" y="854.2737">+toDTO(tests)</text><text fill="#000000" font-family="sans-serif" font-size="13.75" lengthAdjust="spacing" textLength="77.5" x="632.5" y="871.5686">+toDTO(test)</text><!--MD5=[a82d32c079496d6dca2681dc0633feb0]
class TestParameterMapper--><rect codeLine="72" fill="#FEFECE" filter="url(#f11lu0hbhqzrit)" height="84.5898" id="TestParameterMapper" style="stroke:#A80036;stroke-width:1.875;" width="193.75" x="588.75" y="923.75"/><ellipse cx="607.5" cy="943.75" fill="#ADD1B2" rx="13.75" ry="13.75" style="stroke:#A80036;stroke-width:1.25;"/><path d="M610,939.375 Q610.2539,938.75 610.5469,938.4375 Q610.8398,938.125 611.1719,938.125 Q611.7578,938.125 612.1289,938.4766 Q612.5,938.8281 612.5,939.6484 L612.5,941.6016 Q612.5,942.4219 612.1484,942.7734 Q611.7969,943.125 611.25,943.125 Q610.7617,943.125 610.4492,942.9102 Q610.1367,942.6953 610,942.1289 Q609.9414,941.7383 609.7266,941.5234 Q609.3359,941.1133 608.6328,940.8789 Q607.9297,940.625 607.2266,940.625 Q606.3477,940.625 605.6055,940.9766 Q604.8828,941.3281 604.3164,942.1094 Q603.75,942.8906 603.75,943.9648 L603.75,945.1172 Q603.75,946.4063 604.8047,947.2656 Q605.8594,948.125 607.7344,948.125 Q608.8477,948.125 609.6289,947.8711 Q610.0781,947.7344 610.5859,947.2852 Q610.918,947.0313 611.0938,946.9531 Q611.2695,946.875 611.4844,946.875 Q611.8945,946.875 612.1875,947.207 Q612.5,947.5195 612.5,947.9688 Q612.5,948.3984 612.0703,948.9063 Q611.4453,949.6484 610.4492,950.0586 Q609.1406,950.625 607.5391,950.625 Q605.6641,950.625 604.1602,949.8828 Q602.9492,949.2969 602.0898,948.0273 Q601.25,946.7578 601.25,945.2539 L601.25,943.8867 Q601.25,942.3242 601.9922,940.957 Q602.7539,939.5898 604.0625,938.8672 Q605.3906,938.125 606.875,938.125 Q607.7734,938.125 608.5547,938.4375 Q609.3359,938.75 610,939.375 Z " fill="#000000"/><text fill="#000000" font-family="sans-serif" font-size="15" lengthAdjust="spacing" textLength="153.75" x="625" y="949.8877">TestParameterMapper</text><line style="stroke:#A80036;stroke-width:1.875;" x1="590" x2="781.25" y1="963.75" y2="963.75"/><text fill="#000000" font-family="sans-serif" font-size="13.75" lengthAdjust="spacing" textLength="138.75" x="596.25" y="983.0237">+toDTO(testParameter)</text><text fill="#000000" font-family="sans-serif" font-size="13.75" lengthAdjust="spacing" textLength="146.25" x="596.25" y="1000.3186">+toDTO(testParameters)</text><!--MD5=[9fb704ffefcaf68bf1a361787afa998b]
class TestDTO--><rect codeLine="81" fill="#FEFECE" filter="url(#f11lu0hbhqzrit)" height="94.5898" id="TestDTO" style="stroke:#A80036;stroke-width:1.875;" width="101.25" x="1018.75" y="942.5"/><ellipse cx="1037.5" cy="962.5" fill="#ADD1B2" rx="13.75" ry="13.75" style="stroke:#A80036;stroke-width:1.25;"/><path d="M1040,958.125 Q1040.2539,957.5 1040.5469,957.1875 Q1040.8398,956.875 1041.1719,956.875 Q1041.7578,956.875 1042.1289,957.2266 Q1042.5,957.5781 1042.5,958.3984 L1042.5,960.3516 Q1042.5,961.1719 1042.1484,961.5234 Q1041.7969,961.875 1041.25,961.875 Q1040.7617,961.875 1040.4492,961.6602 Q1040.1367,961.4453 1040,960.8789 Q1039.9414,960.4883 1039.7266,960.2734 Q1039.3359,959.8633 1038.6328,959.6289 Q1037.9297,959.375 1037.2266,959.375 Q1036.3477,959.375 1035.6055,959.7266 Q1034.8828,960.0781 1034.3164,960.8594 Q1033.75,961.6406 1033.75,962.7148 L1033.75,963.8672 Q1033.75,965.1563 1034.8047,966.0156 Q1035.8594,966.875 1037.7344,966.875 Q1038.8477,966.875 1039.6289,966.6211 Q1040.0781,966.4844 1040.5859,966.0352 Q1040.918,965.7813 1041.0938,965.7031 Q1041.2695,965.625 1041.4844,965.625 Q1041.8945,965.625 1042.1875,965.957 Q1042.5,966.2695 1042.5,966.7188 Q1042.5,967.1484 1042.0703,967.6563 Q1041.4453,968.3984 1040.4492,968.8086 Q1039.1406,969.375 1037.5391,969.375 Q1035.6641,969.375 1034.1602,968.6328 Q1032.9492,968.0469 1032.0898,966.7773 Q1031.25,965.5078 1031.25,964.0039 L1031.25,962.6367 Q1031.25,961.0742 1031.9922,959.707 Q1032.7539,958.3398 1034.0625,957.6172 Q1035.3906,956.875 1036.875,956.875 Q1037.7734,956.875 1038.5547,957.1875 Q1039.3359,957.5 1040,958.125 Z " fill="#000000"/><text fill="#000000" font-family="sans-serif" font-size="15" lengthAdjust="spacing" textLength="61.25" x="1055" y="968.6377">TestDTO</text><line style="stroke:#A80036;stroke-width:1.875;" x1="1020" x2="1118.75" y1="982.5" y2="982.5"/><text fill="#000000" font-family="sans-serif" font-size="13.75" lengthAdjust="spacing" textLength="73.75" x="1026.25" y="1001.7737">-String code</text><line style="stroke:#A80036;stroke-width:1.875;" x1="1020" x2="1118.75" y1="1009.7949" y2="1009.7949"/><text fill="#000000" font-family="sans-serif" font-size="13.75" lengthAdjust="spacing" textLength="67.5" x="1026.25" y="1029.0686">+getCode()</text><!--MD5=[77cd0d232cb0916388eba2b410e3de64]
class TestParametersDTO--><rect codeLine="86" fill="#FEFECE" filter="url(#f11lu0hbhqzrit)" height="181.0645" id="TestParametersDTO" style="stroke:#A80036;stroke-width:1.875;" width="208.75" x="965" y="1081.875"/><ellipse cx="995.5625" cy="1101.875" fill="#ADD1B2" rx="13.75" ry="13.75" style="stroke:#A80036;stroke-width:1.25;"/><path d="M998.0625,1097.5 Q998.3164,1096.875 998.6094,1096.5625 Q998.9023,1096.25 999.2344,1096.25 Q999.8203,1096.25 1000.1914,1096.6016 Q1000.5625,1096.9531 1000.5625,1097.7734 L1000.5625,1099.7266 Q1000.5625,1100.5469 1000.2109,1100.8984 Q999.8594,1101.25 999.3125,1101.25 Q998.8242,1101.25 998.5117,1101.0352 Q998.1992,1100.8203 998.0625,1100.2539 Q998.0039,1099.8633 997.7891,1099.6484 Q997.3984,1099.2383 996.6953,1099.0039 Q995.9922,1098.75 995.2891,1098.75 Q994.4102,1098.75 993.668,1099.1016 Q992.9453,1099.4531 992.3789,1100.2344 Q991.8125,1101.0156 991.8125,1102.0898 L991.8125,1103.2422 Q991.8125,1104.5313 992.8672,1105.3906 Q993.9219,1106.25 995.7969,1106.25 Q996.9102,1106.25 997.6914,1105.9961 Q998.1406,1105.8594 998.6484,1105.4102 Q998.9805,1105.1563 999.1563,1105.0781 Q999.332,1105 999.5469,1105 Q999.957,1105 1000.25,1105.332 Q1000.5625,1105.6445 1000.5625,1106.0938 Q1000.5625,1106.5234 1000.1328,1107.0313 Q999.5078,1107.7734 998.5117,1108.1836 Q997.2031,1108.75 995.6016,1108.75 Q993.7266,1108.75 992.2227,1108.0078 Q991.0117,1107.4219 990.1523,1106.1523 Q989.3125,1104.8828 989.3125,1103.3789 L989.3125,1102.0117 Q989.3125,1100.4492 990.0547,1099.082 Q990.8164,1097.7148 992.125,1096.9922 Q993.4531,1096.25 994.9375,1096.25 Q995.8359,1096.25 996.6172,1096.5625 Q997.3984,1096.875 998.0625,1097.5 Z " fill="#000000"/><text fill="#000000" font-family="sans-serif" font-size="15" lengthAdjust="spacing" textLength="142.5" x="1015.6875" y="1108.0127">TestParametersDTO</text><line style="stroke:#A80036;stroke-width:1.875;" x1="966.25" x2="1172.5" y1="1121.875" y2="1121.875"/><text fill="#000000" font-family="sans-serif" font-size="13.75" lengthAdjust="spacing" textLength="131.25" x="972.5" y="1141.1487">-Parameter parameter</text><text fill="#000000" font-family="sans-serif" font-size="13.75" lengthAdjust="spacing" textLength="193.75" x="972.5" y="1158.4436">-TestParameterResult testResult</text><line style="stroke:#A80036;stroke-width:1.875;" x1="966.25" x2="1172.5" y1="1166.4648" y2="1166.4648"/><text fill="#000000" font-family="sans-serif" font-size="13.75" lengthAdjust="spacing" textLength="97.5" x="972.5" y="1185.7385">+getParameter()</text><text fill="#000000" font-family="sans-serif" font-size="13.75" lengthAdjust="spacing" textLength="161.25" x="972.5" y="1203.0334">+getTestParameterResult()</text><text fill="#000000" font-family="sans-serif" font-size="13.75" lengthAdjust="spacing" textLength="108.75" x="972.5" y="1220.3284">+getResultValue()</text><text fill="#000000" font-family="sans-serif" font-size="13.75" lengthAdjust="spacing" textLength="110" x="972.5" y="1237.6233">+getResultMetric()</text><text fill="#000000" font-family="sans-serif" font-size="13.75" lengthAdjust="spacing" textLength="172.5" x="972.5" y="1254.9182">+getResultReferenceValue()</text><!--MD5=[d7b8916e3117ca4a3ffdab4f31ea783a]
class WriteReportController--><rect codeLine="100" fill="#FEFECE" filter="url(#f11lu0hbhqzrit)" height="163.7695" id="WriteReportController" style="stroke:#A80036;stroke-width:1.875;" width="188.75" x="257.5" y="884.375"/><ellipse cx="276.25" cy="904.375" fill="#ADD1B2" rx="13.75" ry="13.75" style="stroke:#A80036;stroke-width:1.25;"/><path d="M278.75,900 Q279.0039,899.375 279.2969,899.0625 Q279.5898,898.75 279.9219,898.75 Q280.5078,898.75 280.8789,899.1016 Q281.25,899.4531 281.25,900.2734 L281.25,902.2266 Q281.25,903.0469 280.8984,903.3984 Q280.5469,903.75 280,903.75 Q279.5117,903.75 279.1992,903.5352 Q278.8867,903.3203 278.75,902.7539 Q278.6914,902.3633 278.4766,902.1484 Q278.0859,901.7383 277.3828,901.5039 Q276.6797,901.25 275.9766,901.25 Q275.0977,901.25 274.3555,901.6016 Q273.6328,901.9531 273.0664,902.7344 Q272.5,903.5156 272.5,904.5898 L272.5,905.7422 Q272.5,907.0313 273.5547,907.8906 Q274.6094,908.75 276.4844,908.75 Q277.5977,908.75 278.3789,908.4961 Q278.8281,908.3594 279.3359,907.9102 Q279.668,907.6563 279.8438,907.5781 Q280.0195,907.5 280.2344,907.5 Q280.6445,907.5 280.9375,907.832 Q281.25,908.1445 281.25,908.5938 Q281.25,909.0234 280.8203,909.5313 Q280.1953,910.2734 279.1992,910.6836 Q277.8906,911.25 276.2891,911.25 Q274.4141,911.25 272.9102,910.5078 Q271.6992,909.9219 270.8398,908.6523 Q270,907.3828 270,905.8789 L270,904.5117 Q270,902.9492 270.7422,901.582 Q271.5039,900.2148 272.8125,899.4922 Q274.1406,898.75 275.625,898.75 Q276.5234,898.75 277.3047,899.0625 Q278.0859,899.375 278.75,900 Z " fill="#000000"/><text fill="#000000" font-family="sans-serif" font-size="15" lengthAdjust="spacing" textLength="148.75" x="293.75" y="910.5127">WriteReportController</text><line style="stroke:#A80036;stroke-width:1.875;" x1="258.75" x2="445" y1="924.375" y2="924.375"/><text fill="#000000" font-family="sans-serif" font-size="13.75" lengthAdjust="spacing" textLength="120" x="265" y="943.6487">-Company company</text><text fill="#000000" font-family="sans-serif" font-size="13.75" lengthAdjust="spacing" textLength="85" x="265" y="960.9436">-Report report</text><line style="stroke:#A80036;stroke-width:1.875;" x1="258.75" x2="445" y1="968.9648" y2="968.9648"/><text fill="#000000" font-family="sans-serif" font-size="13.75" lengthAdjust="spacing" textLength="158.75" x="265" y="988.2385">+createReport(reportText)</text><text fill="#000000" font-family="sans-serif" font-size="13.75" lengthAdjust="spacing" textLength="151.25" x="265" y="1005.5334">+addReportToTest(code)</text><text fill="#000000" font-family="sans-serif" font-size="13.75" lengthAdjust="spacing" textLength="141.25" x="265" y="1022.8284">+getTestsToDiagnose()</text><text fill="#000000" font-family="sans-serif" font-size="13.75" lengthAdjust="spacing" textLength="161.25" x="265" y="1040.1233">+getTestParameters(code)</text><!--MD5=[71fba8c2abd557a2f7006580273aba3e]
class WriteReportUI--><rect codeLine="113" fill="#FEFECE" filter="url(#f11lu0hbhqzrit)" height="40" id="WriteReportUI" style="stroke:#A80036;stroke-width:1.875;" width="136.25" x="40" y="1232.5"/><ellipse cx="58.75" cy="1252.5" fill="#ADD1B2" rx="13.75" ry="13.75" style="stroke:#A80036;stroke-width:1.25;"/><path d="M61.25,1248.125 Q61.5039,1247.5 61.7969,1247.1875 Q62.0898,1246.875 62.4219,1246.875 Q63.0078,1246.875 63.3789,1247.2266 Q63.75,1247.5781 63.75,1248.3984 L63.75,1250.3516 Q63.75,1251.1719 63.3984,1251.5234 Q63.0469,1251.875 62.5,1251.875 Q62.0117,1251.875 61.6992,1251.6602 Q61.3867,1251.4453 61.25,1250.8789 Q61.1914,1250.4883 60.9766,1250.2734 Q60.5859,1249.8633 59.8828,1249.6289 Q59.1797,1249.375 58.4766,1249.375 Q57.5977,1249.375 56.8555,1249.7266 Q56.1328,1250.0781 55.5664,1250.8594 Q55,1251.6406 55,1252.7148 L55,1253.8672 Q55,1255.1563 56.0547,1256.0156 Q57.1094,1256.875 58.9844,1256.875 Q60.0977,1256.875 60.8789,1256.6211 Q61.3281,1256.4844 61.8359,1256.0352 Q62.168,1255.7813 62.3438,1255.7031 Q62.5195,1255.625 62.7344,1255.625 Q63.1445,1255.625 63.4375,1255.957 Q63.75,1256.2695 63.75,1256.7188 Q63.75,1257.1484 63.3203,1257.6563 Q62.6953,1258.3984 61.6992,1258.8086 Q60.3906,1259.375 58.7891,1259.375 Q56.9141,1259.375 55.4102,1258.6328 Q54.1992,1258.0469 53.3398,1256.7773 Q52.5,1255.5078 52.5,1254.0039 L52.5,1252.6367 Q52.5,1251.0742 53.2422,1249.707 Q54.0039,1248.3398 55.3125,1247.6172 Q56.6406,1246.875 58.125,1246.875 Q59.0234,1246.875 59.8047,1247.1875 Q60.5859,1247.5 61.25,1248.125 Z " fill="#000000"/><text fill="#000000" font-family="sans-serif" font-size="15" lengthAdjust="spacing" textLength="96.25" x="76.25" y="1258.6377">WriteReportUI</text><!--MD5=[4ff913b72b026e4c95390310e4df5ddd]
link WriteReportUI to WriteReportController--><path codeLine="118" d="M126.3375,1232.375 C157.275,1195.6625 224.5625,1115.8375 277.4,1053.125 " fill="none" id="WriteReportUI-to-WriteReportController" style="stroke:#A80036;stroke-width:1.25;stroke-dasharray:7.0,7.0;"/><polygon fill="#A80036" points="281.5,1048.2625,270.437,1053.6636,277.4813,1053.0492,278.0957,1060.0935,281.5,1048.2625" style="stroke:#A80036;stroke-width:1.25;"/><!--MD5=[b14f4b55bc9aa939c7cd06f1c0b56da5]
link WriteReportUI to TestDTO--><path codeLine="119" d="M176.2875,1236.9625 C315.1375,1204.3 644.35,1124.7375 916.25,1042.5 C948.4125,1032.775 983.925,1020.575 1012.5125,1010.3875 " fill="none" id="WriteReportUI-to-TestDTO" style="stroke:#A80036;stroke-width:1.25;stroke-dasharray:7.0,7.0;"/><polygon fill="#A80036" points="1018.5125,1008.25,1006.235,1007.3416,1012.6295,1010.36,1009.611,1016.7545,1018.5125,1008.25" style="stroke:#A80036;stroke-width:1.25;"/><!--MD5=[8952b7c69889eb72cb6c7fe0a635c82b]
link WriteReportUI to TestParametersDTO--><path codeLine="120" d="M164.1375,1272.5375 C180.65,1277.65 198.9875,1282.4375 216.25,1285 C523.975,1330.75 620.8125,1382.5 916.25,1285 C930.9625,1280.1375 945.425,1273.25 959.2125,1265.2375 " fill="none" id="WriteReportUI-to-TestParametersDTO" style="stroke:#A80036;stroke-width:1.25;stroke-dasharray:7.0,7.0;"/><polygon fill="#A80036" points="964.675,1261.9875,952.4499,1263.4402,959.3031,1265.1821,957.5613,1272.0352,964.675,1261.9875" style="stroke:#A80036;stroke-width:1.25;"/><!--MD5=[f27b4a25a5b059d18ef9f1b16d7419ab]
link WriteReportController to TestMapper--><path codeLine="121" d="M446.55,922.65 C463.3875,915.225 480.875,907.8125 497.5,901.25 C537.2875,885.55 582.6875,870.0125 618.775,858.2 " fill="none" id="WriteReportController-to-TestMapper" style="stroke:#A80036;stroke-width:1.25;stroke-dasharray:7.0,7.0;"/><polygon fill="#A80036" points="624.9375,856.1875,612.6937,854.9021,618.9924,858.1157,615.7788,864.4143,624.9375,856.1875" style="stroke:#A80036;stroke-width:1.25;"/><!--MD5=[2a13b80ffc8ef808da3a7bc0ac83e972]
link WriteReportController to TestParameterMapper--><path codeLine="122" d="M446.275,966.25 C488.5875,966.25 538.7625,966.25 582.125,966.25 " fill="none" id="WriteReportController-to-TestParameterMapper" style="stroke:#A80036;stroke-width:1.25;stroke-dasharray:7.0,7.0;"/><polygon fill="#A80036" points="588.4625,966.25,577.2125,961.25,582.2125,966.25,577.2125,971.25,588.4625,966.25" style="stroke:#A80036;stroke-width:1.25;"/><!--MD5=[a3405a5a29c0a1359ce5b85a18cd6043]
link WriteReportController to Company--><path codeLine="123" d="M357.425,884.375 C367.025,779.75 397.95,598.5125 497.5,483.75 C522.2875,455.175 558.5375,435.4875 592.525,422.2125 " fill="none" id="WriteReportController-to-Company" style="stroke:#A80036;stroke-width:1.25;stroke-dasharray:7.0,7.0;"/><polygon fill="#A80036" points="598.4,419.975,586.1081,419.2887,592.5561,422.1911,589.6538,428.639,598.4,419.975" style="stroke:#A80036;stroke-width:1.25;"/><!--MD5=[aa4aa685cc8a1bee089823f9a2dac854]
link WriteReportController to TestStore--><path codeLine="124" d="M359.875,883.9375 C374.575,726.0875 415.0125,389.575 497.5,312.5 C726.0875,98.9125 1133.5625,126.725 1323.775,154.15 " fill="none" id="WriteReportController-to-TestStore" style="stroke:#A80036;stroke-width:1.25;stroke-dasharray:7.0,7.0;"/><polygon fill="#A80036" points="1330.4375,155.125,1320.0369,148.5379,1324.2543,154.2136,1318.5786,158.431,1330.4375,155.125" style="stroke:#A80036;stroke-width:1.25;"/><!--MD5=[d2c887862af794255aa293b427ffc580]
link WriteReportController to TestDTO--><path codeLine="125" d="M446.45,1013.15 C463.075,1019.6125 480.5125,1025.2375 497.5,1028.75 C683.025,1067.1875 909,1026.8 1012.05,1003.7375 " fill="none" id="WriteReportController-to-TestDTO" style="stroke:#A80036;stroke-width:1.25;stroke-dasharray:7.0,7.0;"/><polygon fill="#A80036" points="1018.6625,1002.2375,1006.5875,999.8382,1012.566,1003.6141,1008.7901,1009.5926,1018.6625,1002.2375" style="stroke:#A80036;stroke-width:1.25;"/><!--MD5=[dbb0252714d08a11ef8d6a3e51fdcca3]
link WriteReportController to TestParametersDTO--><path codeLine="126" d="M446.5875,1030.1125 C463.05,1039.475 480.4,1048.225 497.5,1055 C651.0875,1115.8375 840.9625,1146.875 958.3125,1161.375 " fill="none" id="WriteReportController-to-TestParametersDTO" style="stroke:#A80036;stroke-width:1.25;stroke-dasharray:7.0,7.0;"/><polygon fill="#A80036" points="964.5375,1162.1375,953.9677,1155.8255,958.3325,1161.3886,952.7694,1165.7535,964.5375,1162.1375" style="stroke:#A80036;stroke-width:1.25;"/><!--MD5=[b0f4f6db8206580012ef9cd998ed01c5]
link TestStore to Test--><path codeLine="127" d="M1428.125,237.2 C1428.125,293.1375 1428.125,374.525 1428.125,436.4875 " fill="none" id="TestStore-to-Test" style="stroke:#A80036;stroke-width:1.25;"/><polygon fill="#A80036" points="1428.125,442.8,1433.125,431.55,1428.125,436.55,1423.125,431.55,1428.125,442.8" style="stroke:#A80036;stroke-width:1.25;"/><polygon fill="#000000" points="1385.625,346.4697,1389.2987,335.1634,1381.9513,335.1634,1385.625,346.4697" style="stroke:#000000;stroke-width:1.25;"/><text fill="#000000" font-family="sans-serif" font-size="16.25" lengthAdjust="spacing" textLength="48.75" x="1396.875" y="346.8689">adopts</text><text fill="#000000" font-family="sans-serif" font-size="16.25" lengthAdjust="spacing" textLength="8.75" x="1418.7871" y="264.1074">1</text><text fill="#000000" font-family="sans-serif" font-size="16.25" lengthAdjust="spacing" textLength="6.25" x="1421.5332" y="429.6075">*</text><!--MD5=[670dbdf7395d3fcbb40104f0a070263e]
link Company to Report--><path codeLine="128" d="M772.9125,399.475 C824.3,400.65 890.375,402.175 946.975,403.475 " fill="none" id="Company-to-Report" style="stroke:#A80036;stroke-width:1.25;"/><polygon fill="#A80036" points="953.475,403.625,942.3422,398.3692,947.2266,403.4822,942.1137,408.3666,953.475,403.625" style="stroke:#A80036;stroke-width:1.25;"/><polygon fill="#000000" points="863.7484,391.6133,852.5294,387.6809,852.3606,395.0262,863.7484,391.6133" style="stroke:#000000;stroke-width:1.25;"/><text fill="#000000" font-family="sans-serif" font-size="16.25" lengthAdjust="spacing" textLength="46.25" x="868.75" y="398.1189">knows</text><text fill="#000000" font-family="sans-serif" font-size="16.25" lengthAdjust="spacing" textLength="8.75" x="782.3652" y="417.5793">1</text><text fill="#000000" font-family="sans-serif" font-size="16.25" lengthAdjust="spacing" textLength="6.25" x="937.3682" y="421.1135">*</text><!--MD5=[63d25d625ab355317a074a623d33bba8]
link Report to Test--><path codeLine="129" d="M1185.3,444.475 C1222.7625,456.9625 1264.525,470.8875 1302.65,483.5875 " fill="none" id="Report-to-Test" style="stroke:#A80036;stroke-width:1.25;"/><polygon fill="#A80036" points="1308.7375,485.625,1299.6535,477.3158,1302.81,483.6432,1296.4826,486.7998,1308.7375,485.625" style="stroke:#A80036;stroke-width:1.25;"/><polygon fill="#000000" points="1234.6793,449.696,1225.1147,442.6357,1222.7915,449.6061,1234.6793,449.696" style="stroke:#000000;stroke-width:1.25;"/><text fill="#000000" font-family="sans-serif" font-size="16.25" lengthAdjust="spacing" textLength="30" x="1240" y="454.3689">is of</text><text fill="#000000" font-family="sans-serif" font-size="16.25" lengthAdjust="spacing" textLength="8.75" x="1194.8864" y="465.1954">1</text><text fill="#000000" font-family="sans-serif" font-size="16.25" lengthAdjust="spacing" textLength="8.75" x="1290.1252" y="500.1698">1</text><!--MD5=[7d615427424eb1e9d8965c4eb17ecbf5]
link TestParameter to Test--><path codeLine="130" d="M1174.15,569.3375 C1214.125,562.325 1260.2125,554.2375 1302,546.9125 " fill="none" id="TestParameter-to-Test" style="stroke:#A80036;stroke-width:1.25;"/><polygon fill="#A80036" points="1308.675,545.7375,1296.7263,542.7726,1302.5205,546.8257,1298.4674,552.6199,1308.675,545.7375" style="stroke:#A80036;stroke-width:1.25;"/><polygon fill="#000000" points="1234.906,541.64,1223.135,539.9749,1224.4043,547.2117,1234.906,541.64" style="stroke:#000000;stroke-width:1.25;"/><text fill="#000000" font-family="sans-serif" font-size="16.25" lengthAdjust="spacing" textLength="30" x="1240" y="549.3689">is of</text><text fill="#000000" font-family="sans-serif" font-size="16.25" lengthAdjust="spacing" textLength="25" x="1183.8618" y="585.5308">1..*</text><text fill="#000000" font-family="sans-serif" font-size="16.25" lengthAdjust="spacing" textLength="8.75" x="1290.0577" y="565.0725">1</text><!--MD5=[166b32c017035243ed8780a05e3f542e]
link TestParameterResult to TestParameter--><path codeLine="131" d="M813.825,587.5 C860.4875,587.5 912.9,587.5 957.9625,587.5 " fill="none" id="TestParameterResult-to-TestParameter" style="stroke:#A80036;stroke-width:1.25;"/><polygon fill="#A80036" points="964.55,587.5,953.3,582.5,958.3,587.5,953.3,592.5,964.55,587.5" style="stroke:#A80036;stroke-width:1.25;"/><polygon fill="#000000" points="871.875,576.4697,860.5686,572.7961,860.5686,580.1434,871.875,576.4697" style="stroke:#000000;stroke-width:1.25;"/><text fill="#000000" font-family="sans-serif" font-size="16.25" lengthAdjust="spacing" textLength="30" x="876.875" y="583.1189">is of</text><text fill="#000000" font-family="sans-serif" font-size="16.25" lengthAdjust="spacing" textLength="8.75" x="823.561" y="605.1187">1</text><text fill="#000000" font-family="sans-serif" font-size="16.25" lengthAdjust="spacing" textLength="8.75" x="946.4156" y="605.2287">1</text><!--MD5=[8d9a2c3ea1bf73d8d45b939465e53fff]
link TestMapper to Test--><path codeLine="132" d="M746.275,824.4625 C844.575,801.6125 1045.9,749.5 1203.75,673.75 C1240.4,656.1625 1278.0125,633.2625 1311.6625,610.725 " fill="none" id="TestMapper-to-Test" style="stroke:#A80036;stroke-width:1.25;stroke-dasharray:7.0,7.0;"/><polygon fill="#A80036" points="1317.0375,607.1125,1304.9169,609.2695,1311.8593,610.6123,1310.5165,617.5547,1317.0375,607.1125" style="stroke:#A80036;stroke-width:1.25;"/><!--MD5=[886f81fd36c1ffd754dcf922ff388f49]
link TestParameterMapper to TestParameter--><path codeLine="133" d="M781.1375,923.65 C792.5875,916.85 803.75,909.3625 813.75,901.25 C900.6625,830.75 978.075,726.2125 1024.05,657.4875 " fill="none" id="TestParameterMapper-to-TestParameter" style="stroke:#A80036;stroke-width:1.25;stroke-dasharray:7.0,7.0;"/><polygon fill="#A80036" points="1027.575,652.1875,1017.1848,658.791,1024.1164,657.3933,1025.5141,664.3248,1027.575,652.1875" style="stroke:#A80036;stroke-width:1.25;"/><!--MD5=[f6fda4afaf882dd39139bcbf06c50c8c]
link TestMapper to TestDTO--><path codeLine="134" d="M746.45,861.325 C819.375,890.5 941.8875,939.5125 1012.8125,967.875 " fill="none" id="TestMapper-to-TestDTO" style="stroke:#A80036;stroke-width:1.25;stroke-dasharray:7.0,7.0;"/><polygon fill="#A80036" points="1018.675,970.225,1010.0866,961.4045,1012.872,967.9038,1006.3727,970.6892,1018.675,970.225" style="stroke:#A80036;stroke-width:1.25;"/><!--MD5=[18ed76bd549b5ebe2e3f9be67ba1c205]
link TestParameterMapper to TestParametersDTO--><path codeLine="135" d="M765.875,1008.9875 C821.875,1039.275 897.7125,1080.3125 959.4125,1113.6875 " fill="none" id="TestParameterMapper-to-TestParametersDTO" style="stroke:#A80036;stroke-width:1.25;stroke-dasharray:7.0,7.0;"/><polygon fill="#A80036" points="964.9625,1116.6875,957.4693,1106.9195,959.4722,1113.7009,952.6908,1115.7039,964.9625,1116.6875" style="stroke:#A80036;stroke-width:1.25;"/><!--MD5=[297dc609cd143391360e0aea0cadf6b2]
@startuml
hide empty methods
hide empty attributes
left to right direction
skinparam classAttributeIconSize 0

package Domain {

package Model {

class Company {
    -String designation
    -TestStore testStore
    +getTestStore()
    +createReport(reportText)
}

class Report {
    - String reportText
    + Report(reportText)
    + checkReportTextRules(reportText)
    + countWords(reportText)
    + toString()
}

class Test {
    -String code
    -Report diagnosisReport
    -List<TestParameter> testParameters
    +getParameters()
    +hasSamplesAnalysed()
    +addReport(report)
}

class TestParameter {
    -Parameter parameter
    -TestParameterResult testResult
    +getParameter()
    +getParameterResult()
}

class TestParameterResult {
    -Double value
    -String metric
    -MyReferenceValue myReferenceValue
    +getResultValue()
    +getResultMetric()
    +getResultReferenceValue()
}

}

package Store {

class TestStore {
    -list<Test> testList
    +getTestsReadyToDiagnose()
    +getTestByCode(code)
    +getTestParameters(tst)
}

}

}

package Mappers {

class TestMapper {
    +toDTO(tests)
    +toDTO(test)
}

class TestParameterMapper {
    +toDTO(testParameter)
    +toDTO(testParameters)
}

}

package DTO {

class TestDTO {
    -String code
    +getCode()
}

class TestParametersDTO {
    -Parameter parameter
    -TestParameterResult testResult
    +getParameter()
    +getTestParameterResult()
    +getResultValue()
    +getResultMetric()
    +getResultReferenceValue()
}

}

package Controller {

class WriteReportController {
    -Company company
    -Report report
    +createReport(reportText)
    +addReportToTest(code)
    +getTestsToDiagnose()
    +getTestParameters(code)
}

}

package UI {

class WriteReportUI {
}

}

WriteReportUI ..> WriteReportController
WriteReportUI ..> TestDTO
WriteReportUI ..> TestParametersDTO
WriteReportController ..> TestMapper
WriteReportController ..> TestParameterMapper
WriteReportController ..> Company
WriteReportController ..> TestStore
WriteReportController ..> TestDTO
WriteReportController ..> TestParametersDTO
TestStore "1" -> "*" Test : adopts >
Company "1" - -> "*" Report : knows >
Report "1" - -> "1" Test : is of >
TestParameter "1..*" - -> "1" Test : is of >
TestParameterResult "1" - -> "1" TestParameter : is of >
TestMapper ..> Test
TestParameterMapper ..> TestParameter
TestMapper ..> TestDTO
TestParameterMapper ..> TestParametersDTO

@enduml

PlantUML version 1.2021.5(Sun Apr 25 12:20:28 BST 2021)
(GPL source distribution)
Java Runtime: OpenJDK Runtime Environment
JVM: Dynamic Code Evolution 64-Bit Server VM
Default Encoding: Cp1252
Language: pt
Country: PT
--></g></svg>