<?xml version="1.0" encoding="UTF-8" standalone="no"?><svg xmlns="http://www.w3.org/2000/svg" xmlns:xlink="http://www.w3.org/1999/xlink" contentScriptType="application/ecmascript" contentStyleType="text/css" height="1170px" preserveAspectRatio="none" style="width:1623px;height:1170px;" version="1.1" viewBox="0 0 1623 1170" width="1623.75px" zoomAndPan="magnify"><defs><filter height="300%" id="f17pizvuxg9g1y" width="300%" x="-1" y="-1"><feGaussianBlur result="blurOut" stdDeviation="2.5"/><feColorMatrix in="blurOut" result="blurOut2" type="matrix" values="0 0 0 0 0 0 0 0 0 0 0 0 0 0 0 0 0 0 .4 0"/><feOffset dx="5.0" dy="5.0" in="blurOut2" result="blurOut3"/><feBlend in="SourceGraphic" in2="blurOut3" mode="normal"/></filter></defs><g><!--MD5=[02e4b9b7573f1156f41e60aa5b4e25a4]
class Company--><rect codeLine="6" fill="#FEFECE" filter="url(#f17pizvuxg9g1y)" height="129.1797" id="Company" style="stroke:#A80036;stroke-width:1.875;" width="173.75" x="527.5" y="702.8"/><ellipse cx="576.625" cy="722.8" fill="#ADD1B2" rx="13.75" ry="13.75" style="stroke:#A80036;stroke-width:1.25;"/><path d="M579.125,718.425 Q579.3789,717.8 579.6719,717.4875 Q579.9648,717.175 580.2969,717.175 Q580.8828,717.175 581.2539,717.5266 Q581.625,717.8781 581.625,718.6984 L581.625,720.6516 Q581.625,721.4719 581.2734,721.8234 Q580.9219,722.175 580.375,722.175 Q579.8867,722.175 579.5742,721.9602 Q579.2617,721.7453 579.125,721.1789 Q579.0664,720.7883 578.8516,720.5734 Q578.4609,720.1633 577.7578,719.9289 Q577.0547,719.675 576.3516,719.675 Q575.4727,719.675 574.7305,720.0266 Q574.0078,720.3781 573.4414,721.1594 Q572.875,721.9406 572.875,723.0148 L572.875,724.1672 Q572.875,725.4563 573.9297,726.3156 Q574.9844,727.175 576.8594,727.175 Q577.9727,727.175 578.7539,726.9211 Q579.2031,726.7844 579.7109,726.3352 Q580.043,726.0813 580.2188,726.0031 Q580.3945,725.925 580.6094,725.925 Q581.0195,725.925 581.3125,726.257 Q581.625,726.5695 581.625,727.0188 Q581.625,727.4484 581.1953,727.9563 Q580.5703,728.6984 579.5742,729.1086 Q578.2656,729.675 576.6641,729.675 Q574.7891,729.675 573.2852,728.9328 Q572.0742,728.3469 571.2148,727.0773 Q570.375,725.8078 570.375,724.3039 L570.375,722.9367 Q570.375,721.3742 571.1172,720.007 Q571.8789,718.6398 573.1875,717.9172 Q574.5156,717.175 576,717.175 Q576.8984,717.175 577.6797,717.4875 Q578.4609,717.8 579.125,718.425 Z " fill="#000000"/><text fill="#000000" font-family="sans-serif" font-size="15" lengthAdjust="spacing" textLength="66.25" x="600.875" y="728.9377">Company</text><line style="stroke:#A80036;stroke-width:1.875;" x1="528.75" x2="700" y1="742.8" y2="742.8"/><text fill="#000000" font-family="sans-serif" font-size="13.75" lengthAdjust="spacing" textLength="112.5" x="535" y="762.0737">-String designation</text><text fill="#000000" font-family="sans-serif" font-size="13.75" lengthAdjust="spacing" textLength="122.5" x="535" y="779.3686">-TestStore testStore</text><line style="stroke:#A80036;stroke-width:1.875;" x1="528.75" x2="700" y1="787.3898" y2="787.3898"/><text fill="#000000" font-family="sans-serif" font-size="13.75" lengthAdjust="spacing" textLength="95" x="535" y="806.6635">+getTestStore()</text><text fill="#000000" font-family="sans-serif" font-size="13.75" lengthAdjust="spacing" textLength="158.75" x="535" y="823.9584">+createReport(reportText)</text><!--MD5=[f00dbe8c0302c6aec2cb26b3c659c8fc]
class Report--><rect codeLine="13" fill="#FEFECE" filter="url(#f17pizvuxg9g1y)" height="146.4746" id="Report" style="stroke:#A80036;stroke-width:1.875;" width="231.25" x="1012.5" y="685.3"/><ellipse cx="1099.6875" cy="705.3" fill="#ADD1B2" rx="13.75" ry="13.75" style="stroke:#A80036;stroke-width:1.25;"/><path d="M1102.1875,700.925 Q1102.4414,700.3 1102.7344,699.9875 Q1103.0273,699.675 1103.3594,699.675 Q1103.9453,699.675 1104.3164,700.0266 Q1104.6875,700.3781 1104.6875,701.1984 L1104.6875,703.1516 Q1104.6875,703.9719 1104.3359,704.3234 Q1103.9844,704.675 1103.4375,704.675 Q1102.9492,704.675 1102.6367,704.4602 Q1102.3242,704.2453 1102.1875,703.6789 Q1102.1289,703.2883 1101.9141,703.0734 Q1101.5234,702.6633 1100.8203,702.4289 Q1100.1172,702.175 1099.4141,702.175 Q1098.5352,702.175 1097.793,702.5266 Q1097.0703,702.8781 1096.5039,703.6594 Q1095.9375,704.4406 1095.9375,705.5148 L1095.9375,706.6672 Q1095.9375,707.9563 1096.9922,708.8156 Q1098.0469,709.675 1099.9219,709.675 Q1101.0352,709.675 1101.8164,709.4211 Q1102.2656,709.2844 1102.7734,708.8352 Q1103.1055,708.5813 1103.2813,708.5031 Q1103.457,708.425 1103.6719,708.425 Q1104.082,708.425 1104.375,708.757 Q1104.6875,709.0695 1104.6875,709.5188 Q1104.6875,709.9484 1104.2578,710.4563 Q1103.6328,711.1984 1102.6367,711.6086 Q1101.3281,712.175 1099.7266,712.175 Q1097.8516,712.175 1096.3477,711.4328 Q1095.1367,710.8469 1094.2773,709.5773 Q1093.4375,708.3078 1093.4375,706.8039 L1093.4375,705.4367 Q1093.4375,703.8742 1094.1797,702.507 Q1094.9414,701.1398 1096.25,700.4172 Q1097.5781,699.675 1099.0625,699.675 Q1099.9609,699.675 1100.7422,699.9875 Q1101.5234,700.3 1102.1875,700.925 Z " fill="#000000"/><text fill="#000000" font-family="sans-serif" font-size="15" lengthAdjust="spacing" textLength="46.25" x="1125.3125" y="711.4377">Report</text><line style="stroke:#A80036;stroke-width:1.875;" x1="1013.75" x2="1242.5" y1="725.3" y2="725.3"/><text fill="#000000" font-family="sans-serif" font-size="13.75" lengthAdjust="spacing" textLength="106.25" x="1020" y="744.5737">-String reportText</text><line style="stroke:#A80036;stroke-width:1.875;" x1="1013.75" x2="1242.5" y1="752.5949" y2="752.5949"/><text fill="#000000" font-family="sans-serif" font-size="13.75" lengthAdjust="spacing" textLength="120" x="1020" y="771.8686">+Report(reportText)</text><text fill="#000000" font-family="sans-serif" font-size="13.75" lengthAdjust="spacing" textLength="216.25" x="1020" y="789.1635">+checkReportTextRules(reportText)</text><text fill="#000000" font-family="sans-serif" font-size="13.75" lengthAdjust="spacing" textLength="153.75" x="1020" y="806.4584">+countWords(reportText)</text><text fill="#000000" font-family="sans-serif" font-size="13.75" lengthAdjust="spacing" textLength="63.75" x="1020" y="823.7534">+toString()</text><!--MD5=[df38be88ccee13e832d6fafd6288a4ca]
class Test--><rect codeLine="21" fill="#FEFECE" filter="url(#f17pizvuxg9g1y)" height="163.7695" id="Test" style="stroke:#A80036;stroke-width:1.875;" width="238.75" x="1367.5" y="564.05"/><ellipse cx="1466.5625" cy="584.05" fill="#ADD1B2" rx="13.75" ry="13.75" style="stroke:#A80036;stroke-width:1.25;"/><path d="M1469.0625,579.675 Q1469.3164,579.05 1469.6094,578.7375 Q1469.9023,578.425 1470.2344,578.425 Q1470.8203,578.425 1471.1914,578.7766 Q1471.5625,579.1281 1471.5625,579.9484 L1471.5625,581.9016 Q1471.5625,582.7219 1471.2109,583.0734 Q1470.8594,583.425 1470.3125,583.425 Q1469.8242,583.425 1469.5117,583.2102 Q1469.1992,582.9953 1469.0625,582.4289 Q1469.0039,582.0383 1468.7891,581.8234 Q1468.3984,581.4133 1467.6953,581.1789 Q1466.9922,580.925 1466.2891,580.925 Q1465.4102,580.925 1464.668,581.2766 Q1463.9453,581.6281 1463.3789,582.4094 Q1462.8125,583.1906 1462.8125,584.2648 L1462.8125,585.4172 Q1462.8125,586.7063 1463.8672,587.5656 Q1464.9219,588.425 1466.7969,588.425 Q1467.9102,588.425 1468.6914,588.1711 Q1469.1406,588.0344 1469.6484,587.5852 Q1469.9805,587.3313 1470.1563,587.2531 Q1470.332,587.175 1470.5469,587.175 Q1470.957,587.175 1471.25,587.507 Q1471.5625,587.8195 1471.5625,588.2688 Q1471.5625,588.6984 1471.1328,589.2063 Q1470.5078,589.9484 1469.5117,590.3586 Q1468.2031,590.925 1466.6016,590.925 Q1464.7266,590.925 1463.2227,590.1828 Q1462.0117,589.5969 1461.1523,588.3273 Q1460.3125,587.0578 1460.3125,585.5539 L1460.3125,584.1867 Q1460.3125,582.6242 1461.0547,581.257 Q1461.8164,579.8898 1463.125,579.1672 Q1464.4531,578.425 1465.9375,578.425 Q1466.8359,578.425 1467.6172,578.7375 Q1468.3984,579.05 1469.0625,579.675 Z " fill="#000000"/><text fill="#000000" font-family="sans-serif" font-size="15" lengthAdjust="spacing" textLength="30" x="1492.1875" y="590.1877">Test</text><line style="stroke:#A80036;stroke-width:1.875;" x1="1368.75" x2="1605" y1="604.05" y2="604.05"/><text fill="#000000" font-family="sans-serif" font-size="13.75" lengthAdjust="spacing" textLength="73.75" x="1375" y="623.3237">-String code</text><text fill="#000000" font-family="sans-serif" font-size="13.75" lengthAdjust="spacing" textLength="146.25" x="1375" y="640.6186">-Report diagnosisReport</text><text fill="#000000" font-family="sans-serif" font-size="13.75" lengthAdjust="spacing" textLength="223.75" x="1375" y="657.9135">-List&lt;TestParameter&gt; testParameters</text><line style="stroke:#A80036;stroke-width:1.875;" x1="1368.75" x2="1605" y1="665.9348" y2="665.9348"/><text fill="#000000" font-family="sans-serif" font-size="13.75" lengthAdjust="spacing" textLength="105" x="1375" y="685.2084">+getParameters()</text><text fill="#000000" font-family="sans-serif" font-size="13.75" lengthAdjust="spacing" textLength="148.75" x="1375" y="702.5034">+hasSamplesAnalysed()</text><text fill="#000000" font-family="sans-serif" font-size="13.75" lengthAdjust="spacing" textLength="116.25" x="1375" y="719.7983">+addReport(report)</text><!--MD5=[0f07739f46effee96e095e9c408da841]
class TestParameter--><rect codeLine="30" fill="#FEFECE" filter="url(#f17pizvuxg9g1y)" height="129.1797" id="TestParameter" style="stroke:#A80036;stroke-width:1.875;" width="208.75" x="1023.75" y="512.8"/><ellipse cx="1072.3125" cy="532.8" fill="#ADD1B2" rx="13.75" ry="13.75" style="stroke:#A80036;stroke-width:1.25;"/><path d="M1074.8125,528.425 Q1075.0664,527.8 1075.3594,527.4875 Q1075.6523,527.175 1075.9844,527.175 Q1076.5703,527.175 1076.9414,527.5266 Q1077.3125,527.8781 1077.3125,528.6984 L1077.3125,530.6516 Q1077.3125,531.4719 1076.9609,531.8234 Q1076.6094,532.175 1076.0625,532.175 Q1075.5742,532.175 1075.2617,531.9602 Q1074.9492,531.7453 1074.8125,531.1789 Q1074.7539,530.7883 1074.5391,530.5734 Q1074.1484,530.1633 1073.4453,529.9289 Q1072.7422,529.675 1072.0391,529.675 Q1071.1602,529.675 1070.418,530.0266 Q1069.6953,530.3781 1069.1289,531.1594 Q1068.5625,531.9406 1068.5625,533.0148 L1068.5625,534.1672 Q1068.5625,535.4563 1069.6172,536.3156 Q1070.6719,537.175 1072.5469,537.175 Q1073.6602,537.175 1074.4414,536.9211 Q1074.8906,536.7844 1075.3984,536.3352 Q1075.7305,536.0813 1075.9063,536.0031 Q1076.082,535.925 1076.2969,535.925 Q1076.707,535.925 1077,536.257 Q1077.3125,536.5695 1077.3125,537.0188 Q1077.3125,537.4484 1076.8828,537.9563 Q1076.2578,538.6984 1075.2617,539.1086 Q1073.9531,539.675 1072.3516,539.675 Q1070.4766,539.675 1068.9727,538.9328 Q1067.7617,538.3469 1066.9023,537.0773 Q1066.0625,535.8078 1066.0625,534.3039 L1066.0625,532.9367 Q1066.0625,531.3742 1066.8047,530.007 Q1067.5664,528.6398 1068.875,527.9172 Q1070.2031,527.175 1071.6875,527.175 Q1072.5859,527.175 1073.3672,527.4875 Q1074.1484,527.8 1074.8125,528.425 Z " fill="#000000"/><text fill="#000000" font-family="sans-serif" font-size="15" lengthAdjust="spacing" textLength="102.5" x="1096.4375" y="538.9377">TestParameter</text><line style="stroke:#A80036;stroke-width:1.875;" x1="1025" x2="1231.25" y1="552.8" y2="552.8"/><text fill="#000000" font-family="sans-serif" font-size="13.75" lengthAdjust="spacing" textLength="131.25" x="1031.25" y="572.0737">-Parameter parameter</text><text fill="#000000" font-family="sans-serif" font-size="13.75" lengthAdjust="spacing" textLength="193.75" x="1031.25" y="589.3686">-TestParameterResult testResult</text><line style="stroke:#A80036;stroke-width:1.875;" x1="1025" x2="1231.25" y1="597.3898" y2="597.3898"/><text fill="#000000" font-family="sans-serif" font-size="13.75" lengthAdjust="spacing" textLength="97.5" x="1031.25" y="616.6635">+getParameter()</text><text fill="#000000" font-family="sans-serif" font-size="13.75" lengthAdjust="spacing" textLength="135" x="1031.25" y="633.9584">+getParameterResult()</text><!--MD5=[4e608140b854dae633589343bce77383]
class TestParameterResult--><rect codeLine="37" fill="#FEFECE" filter="url(#f17pizvuxg9g1y)" height="163.7695" id="TestParameterResult" style="stroke:#A80036;stroke-width:1.875;" width="256.25" x="486.25" y="495.3"/><ellipse cx="535.9375" cy="515.3" fill="#ADD1B2" rx="13.75" ry="13.75" style="stroke:#A80036;stroke-width:1.25;"/><path d="M538.4375,510.925 Q538.6914,510.3 538.9844,509.9875 Q539.2773,509.675 539.6094,509.675 Q540.1953,509.675 540.5664,510.0266 Q540.9375,510.3781 540.9375,511.1984 L540.9375,513.1516 Q540.9375,513.9719 540.5859,514.3234 Q540.2344,514.675 539.6875,514.675 Q539.1992,514.675 538.8867,514.4602 Q538.5742,514.2453 538.4375,513.6789 Q538.3789,513.2883 538.1641,513.0734 Q537.7734,512.6633 537.0703,512.4289 Q536.3672,512.175 535.6641,512.175 Q534.7852,512.175 534.043,512.5266 Q533.3203,512.8781 532.7539,513.6594 Q532.1875,514.4406 532.1875,515.5148 L532.1875,516.6672 Q532.1875,517.9563 533.2422,518.8156 Q534.2969,519.675 536.1719,519.675 Q537.2852,519.675 538.0664,519.4211 Q538.5156,519.2844 539.0234,518.8352 Q539.3555,518.5813 539.5313,518.5031 Q539.707,518.425 539.9219,518.425 Q540.332,518.425 540.625,518.757 Q540.9375,519.0695 540.9375,519.5188 Q540.9375,519.9484 540.5078,520.4563 Q539.8828,521.1984 538.8867,521.6086 Q537.5781,522.175 535.9766,522.175 Q534.1016,522.175 532.5977,521.4328 Q531.3867,520.8469 530.5273,519.5773 Q529.6875,518.3078 529.6875,516.8039 L529.6875,515.4367 Q529.6875,513.8742 530.4297,512.507 Q531.1914,511.1398 532.5,510.4172 Q533.8281,509.675 535.3125,509.675 Q536.2109,509.675 536.9922,509.9875 Q537.7734,510.3 538.4375,510.925 Z " fill="#000000"/><text fill="#000000" font-family="sans-serif" font-size="15" lengthAdjust="spacing" textLength="147.5" x="560.3125" y="521.4377">TestParameterResult</text><line style="stroke:#A80036;stroke-width:1.875;" x1="487.5" x2="741.25" y1="535.3" y2="535.3"/><text fill="#000000" font-family="sans-serif" font-size="13.75" lengthAdjust="spacing" textLength="82.5" x="493.75" y="554.5737">-Double value</text><text fill="#000000" font-family="sans-serif" font-size="13.75" lengthAdjust="spacing" textLength="80" x="493.75" y="571.8686">-String metric</text><text fill="#000000" font-family="sans-serif" font-size="13.75" lengthAdjust="spacing" textLength="241.25" x="493.75" y="589.1635">-MyReferenceValue myReferenceValue</text><line style="stroke:#A80036;stroke-width:1.875;" x1="487.5" x2="741.25" y1="597.1848" y2="597.1848"/><text fill="#000000" font-family="sans-serif" font-size="13.75" lengthAdjust="spacing" textLength="108.75" x="493.75" y="616.4584">+getResultValue()</text><text fill="#000000" font-family="sans-serif" font-size="13.75" lengthAdjust="spacing" textLength="110" x="493.75" y="633.7534">+getResultMetric()</text><text fill="#000000" font-family="sans-serif" font-size="13.75" lengthAdjust="spacing" textLength="172.5" x="493.75" y="651.0483">+getResultReferenceValue()</text><!--MD5=[0f6f7964b844a64b0496af0dda7914bd]
class TestStore--><rect codeLine="46" fill="#FEFECE" filter="url(#f17pizvuxg9g1y)" height="129.1797" id="TestStore" style="stroke:#A80036;stroke-width:1.875;" width="195" x="780" y="141.55"/><ellipse cx="839.0625" cy="161.55" fill="#ADD1B2" rx="13.75" ry="13.75" style="stroke:#A80036;stroke-width:1.25;"/><path d="M841.5625,157.175 Q841.8164,156.55 842.1094,156.2375 Q842.4023,155.925 842.7344,155.925 Q843.3203,155.925 843.6914,156.2766 Q844.0625,156.6281 844.0625,157.4484 L844.0625,159.4016 Q844.0625,160.2219 843.7109,160.5734 Q843.3594,160.925 842.8125,160.925 Q842.3242,160.925 842.0117,160.7102 Q841.6992,160.4953 841.5625,159.9289 Q841.5039,159.5383 841.2891,159.3234 Q840.8984,158.9133 840.1953,158.6789 Q839.4922,158.425 838.7891,158.425 Q837.9102,158.425 837.168,158.7766 Q836.4453,159.1281 835.8789,159.9094 Q835.3125,160.6906 835.3125,161.7648 L835.3125,162.9172 Q835.3125,164.2063 836.3672,165.0656 Q837.4219,165.925 839.2969,165.925 Q840.4102,165.925 841.1914,165.6711 Q841.6406,165.5344 842.1484,165.0852 Q842.4805,164.8313 842.6563,164.7531 Q842.832,164.675 843.0469,164.675 Q843.457,164.675 843.75,165.007 Q844.0625,165.3195 844.0625,165.7688 Q844.0625,166.1984 843.6328,166.7063 Q843.0078,167.4484 842.0117,167.8586 Q840.7031,168.425 839.1016,168.425 Q837.2266,168.425 835.7227,167.6828 Q834.5117,167.0969 833.6523,165.8273 Q832.8125,164.5578 832.8125,163.0539 L832.8125,161.6867 Q832.8125,160.1242 833.5547,158.757 Q834.3164,157.3898 835.625,156.6672 Q836.9531,155.925 838.4375,155.925 Q839.3359,155.925 840.1172,156.2375 Q840.8984,156.55 841.5625,157.175 Z " fill="#000000"/><text fill="#000000" font-family="sans-serif" font-size="15" lengthAdjust="spacing" textLength="66.25" x="864.6875" y="167.6877">TestStore</text><line style="stroke:#A80036;stroke-width:1.875;" x1="781.25" x2="973.75" y1="181.55" y2="181.55"/><text fill="#000000" font-family="sans-serif" font-size="13.75" lengthAdjust="spacing" textLength="110" x="787.5" y="200.8237">-list&lt;Test&gt; testList</text><line style="stroke:#A80036;stroke-width:1.875;" x1="781.25" x2="973.75" y1="208.8449" y2="208.8449"/><text fill="#000000" font-family="sans-serif" font-size="13.75" lengthAdjust="spacing" textLength="180" x="787.5" y="228.1186">+getTestsReadyToDiagnose()</text><text fill="#000000" font-family="sans-serif" font-size="13.75" lengthAdjust="spacing" textLength="140" x="787.5" y="245.4135">+getTestByCode(code)</text><text fill="#000000" font-family="sans-serif" font-size="13.75" lengthAdjust="spacing" textLength="146.25" x="787.5" y="262.7084">+getTestParameters(tst)</text><!--MD5=[144698ec4d0188f6929a3b58a3eeb1f6]
class TestMapper--><rect codeLine="53" fill="#FEFECE" filter="url(#f17pizvuxg9g1y)" height="84.5898" id="TestMapper" style="stroke:#A80036;stroke-width:1.875;" width="121.25" x="553.75" y="964.675"/><ellipse cx="572.5" cy="984.675" fill="#ADD1B2" rx="13.75" ry="13.75" style="stroke:#A80036;stroke-width:1.25;"/><path d="M575,980.3 Q575.2539,979.675 575.5469,979.3625 Q575.8398,979.05 576.1719,979.05 Q576.7578,979.05 577.1289,979.4016 Q577.5,979.7531 577.5,980.5734 L577.5,982.5266 Q577.5,983.3469 577.1484,983.6984 Q576.7969,984.05 576.25,984.05 Q575.7617,984.05 575.4492,983.8352 Q575.1367,983.6203 575,983.0539 Q574.9414,982.6633 574.7266,982.4484 Q574.3359,982.0383 573.6328,981.8039 Q572.9297,981.55 572.2266,981.55 Q571.3477,981.55 570.6055,981.9016 Q569.8828,982.2531 569.3164,983.0344 Q568.75,983.8156 568.75,984.8898 L568.75,986.0422 Q568.75,987.3313 569.8047,988.1906 Q570.8594,989.05 572.7344,989.05 Q573.8477,989.05 574.6289,988.7961 Q575.0781,988.6594 575.5859,988.2102 Q575.918,987.9563 576.0938,987.8781 Q576.2695,987.8 576.4844,987.8 Q576.8945,987.8 577.1875,988.132 Q577.5,988.4445 577.5,988.8938 Q577.5,989.3234 577.0703,989.8313 Q576.4453,990.5734 575.4492,990.9836 Q574.1406,991.55 572.5391,991.55 Q570.6641,991.55 569.1602,990.8078 Q567.9492,990.2219 567.0898,988.9523 Q566.25,987.6828 566.25,986.1789 L566.25,984.8117 Q566.25,983.2492 566.9922,981.882 Q567.7539,980.5148 569.0625,979.7922 Q570.3906,979.05 571.875,979.05 Q572.7734,979.05 573.5547,979.3625 Q574.3359,979.675 575,980.3 Z " fill="#000000"/><text fill="#000000" font-family="sans-serif" font-size="15" lengthAdjust="spacing" textLength="81.25" x="590" y="990.8127">TestMapper</text><line style="stroke:#A80036;stroke-width:1.875;" x1="555" x2="673.75" y1="1004.675" y2="1004.675"/><text fill="#000000" font-family="sans-serif" font-size="13.75" lengthAdjust="spacing" textLength="85" x="561.25" y="1023.9487">+toDTO(tests)</text><text fill="#000000" font-family="sans-serif" font-size="13.75" lengthAdjust="spacing" textLength="77.5" x="561.25" y="1041.2436">+toDTO(test)</text><!--MD5=[a82d32c079496d6dca2681dc0633feb0]
class TestParameterMapper--><rect codeLine="58" fill="#FEFECE" filter="url(#f17pizvuxg9g1y)" height="84.5898" id="TestParameterMapper" style="stroke:#A80036;stroke-width:1.875;" width="193.75" x="517.5" y="365.925"/><ellipse cx="536.25" cy="385.925" fill="#ADD1B2" rx="13.75" ry="13.75" style="stroke:#A80036;stroke-width:1.25;"/><path d="M538.75,381.55 Q539.0039,380.925 539.2969,380.6125 Q539.5898,380.3 539.9219,380.3 Q540.5078,380.3 540.8789,380.6516 Q541.25,381.0031 541.25,381.8234 L541.25,383.7766 Q541.25,384.5969 540.8984,384.9484 Q540.5469,385.3 540,385.3 Q539.5117,385.3 539.1992,385.0852 Q538.8867,384.8703 538.75,384.3039 Q538.6914,383.9133 538.4766,383.6984 Q538.0859,383.2883 537.3828,383.0539 Q536.6797,382.8 535.9766,382.8 Q535.0977,382.8 534.3555,383.1516 Q533.6328,383.5031 533.0664,384.2844 Q532.5,385.0656 532.5,386.1398 L532.5,387.2922 Q532.5,388.5813 533.5547,389.4406 Q534.6094,390.3 536.4844,390.3 Q537.5977,390.3 538.3789,390.0461 Q538.8281,389.9094 539.3359,389.4602 Q539.668,389.2063 539.8438,389.1281 Q540.0195,389.05 540.2344,389.05 Q540.6445,389.05 540.9375,389.382 Q541.25,389.6945 541.25,390.1438 Q541.25,390.5734 540.8203,391.0813 Q540.1953,391.8234 539.1992,392.2336 Q537.8906,392.8 536.2891,392.8 Q534.4141,392.8 532.9102,392.0578 Q531.6992,391.4719 530.8398,390.2023 Q530,388.9328 530,387.4289 L530,386.0617 Q530,384.4992 530.7422,383.132 Q531.5039,381.7648 532.8125,381.0422 Q534.1406,380.3 535.625,380.3 Q536.5234,380.3 537.3047,380.6125 Q538.0859,380.925 538.75,381.55 Z " fill="#000000"/><text fill="#000000" font-family="sans-serif" font-size="15" lengthAdjust="spacing" textLength="153.75" x="553.75" y="392.0627">TestParameterMapper</text><line style="stroke:#A80036;stroke-width:1.875;" x1="518.75" x2="710" y1="405.925" y2="405.925"/><text fill="#000000" font-family="sans-serif" font-size="13.75" lengthAdjust="spacing" textLength="138.75" x="525" y="425.1987">+toDTO(testParameter)</text><text fill="#000000" font-family="sans-serif" font-size="13.75" lengthAdjust="spacing" textLength="146.25" x="525" y="442.4936">+toDTO(testParameters)</text><!--MD5=[9fb704ffefcaf68bf1a361787afa998b]
class TestDTO--><rect codeLine="63" fill="#FEFECE" filter="url(#f17pizvuxg9g1y)" height="94.5898" id="TestDTO" style="stroke:#A80036;stroke-width:1.875;" width="101.25" x="1077.5" y="875.925"/><ellipse cx="1096.25" cy="895.925" fill="#ADD1B2" rx="13.75" ry="13.75" style="stroke:#A80036;stroke-width:1.25;"/><path d="M1098.75,891.55 Q1099.0039,890.925 1099.2969,890.6125 Q1099.5898,890.3 1099.9219,890.3 Q1100.5078,890.3 1100.8789,890.6516 Q1101.25,891.0031 1101.25,891.8234 L1101.25,893.7766 Q1101.25,894.5969 1100.8984,894.9484 Q1100.5469,895.3 1100,895.3 Q1099.5117,895.3 1099.1992,895.0852 Q1098.8867,894.8703 1098.75,894.3039 Q1098.6914,893.9133 1098.4766,893.6984 Q1098.0859,893.2883 1097.3828,893.0539 Q1096.6797,892.8 1095.9766,892.8 Q1095.0977,892.8 1094.3555,893.1516 Q1093.6328,893.5031 1093.0664,894.2844 Q1092.5,895.0656 1092.5,896.1398 L1092.5,897.2922 Q1092.5,898.5813 1093.5547,899.4406 Q1094.6094,900.3 1096.4844,900.3 Q1097.5977,900.3 1098.3789,900.0461 Q1098.8281,899.9094 1099.3359,899.4602 Q1099.668,899.2063 1099.8438,899.1281 Q1100.0195,899.05 1100.2344,899.05 Q1100.6445,899.05 1100.9375,899.382 Q1101.25,899.6945 1101.25,900.1438 Q1101.25,900.5734 1100.8203,901.0813 Q1100.1953,901.8234 1099.1992,902.2336 Q1097.8906,902.8 1096.2891,902.8 Q1094.4141,902.8 1092.9102,902.0578 Q1091.6992,901.4719 1090.8398,900.2023 Q1090,898.9328 1090,897.4289 L1090,896.0617 Q1090,894.4992 1090.7422,893.132 Q1091.5039,891.7648 1092.8125,891.0422 Q1094.1406,890.3 1095.625,890.3 Q1096.5234,890.3 1097.3047,890.6125 Q1098.0859,890.925 1098.75,891.55 Z " fill="#000000"/><text fill="#000000" font-family="sans-serif" font-size="15" lengthAdjust="spacing" textLength="61.25" x="1113.75" y="902.0627">TestDTO</text><line style="stroke:#A80036;stroke-width:1.875;" x1="1078.75" x2="1177.5" y1="915.925" y2="915.925"/><text fill="#000000" font-family="sans-serif" font-size="13.75" lengthAdjust="spacing" textLength="73.75" x="1085" y="935.1987">-String code</text><line style="stroke:#A80036;stroke-width:1.875;" x1="1078.75" x2="1177.5" y1="943.2199" y2="943.2199"/><text fill="#000000" font-family="sans-serif" font-size="13.75" lengthAdjust="spacing" textLength="67.5" x="1085" y="962.4936">+getCode()</text><!--MD5=[77cd0d232cb0916388eba2b410e3de64]
class TestParametersDTO--><rect codeLine="68" fill="#FEFECE" filter="url(#f17pizvuxg9g1y)" height="181.0645" id="TestParametersDTO" style="stroke:#A80036;stroke-width:1.875;" width="208.75" x="1023.75" y="287.8"/><ellipse cx="1054.3125" cy="307.8" fill="#ADD1B2" rx="13.75" ry="13.75" style="stroke:#A80036;stroke-width:1.25;"/><path d="M1056.8125,303.425 Q1057.0664,302.8 1057.3594,302.4875 Q1057.6523,302.175 1057.9844,302.175 Q1058.5703,302.175 1058.9414,302.5266 Q1059.3125,302.8781 1059.3125,303.6984 L1059.3125,305.6516 Q1059.3125,306.4719 1058.9609,306.8234 Q1058.6094,307.175 1058.0625,307.175 Q1057.5742,307.175 1057.2617,306.9602 Q1056.9492,306.7453 1056.8125,306.1789 Q1056.7539,305.7883 1056.5391,305.5734 Q1056.1484,305.1633 1055.4453,304.9289 Q1054.7422,304.675 1054.0391,304.675 Q1053.1602,304.675 1052.418,305.0266 Q1051.6953,305.3781 1051.1289,306.1594 Q1050.5625,306.9406 1050.5625,308.0148 L1050.5625,309.1672 Q1050.5625,310.4563 1051.6172,311.3156 Q1052.6719,312.175 1054.5469,312.175 Q1055.6602,312.175 1056.4414,311.9211 Q1056.8906,311.7844 1057.3984,311.3352 Q1057.7305,311.0813 1057.9063,311.0031 Q1058.082,310.925 1058.2969,310.925 Q1058.707,310.925 1059,311.257 Q1059.3125,311.5695 1059.3125,312.0188 Q1059.3125,312.4484 1058.8828,312.9563 Q1058.2578,313.6984 1057.2617,314.1086 Q1055.9531,314.675 1054.3516,314.675 Q1052.4766,314.675 1050.9727,313.9328 Q1049.7617,313.3469 1048.9023,312.0773 Q1048.0625,310.8078 1048.0625,309.3039 L1048.0625,307.9367 Q1048.0625,306.3742 1048.8047,305.007 Q1049.5664,303.6398 1050.875,302.9172 Q1052.2031,302.175 1053.6875,302.175 Q1054.5859,302.175 1055.3672,302.4875 Q1056.1484,302.8 1056.8125,303.425 Z " fill="#000000"/><text fill="#000000" font-family="sans-serif" font-size="15" lengthAdjust="spacing" textLength="142.5" x="1074.4375" y="313.9377">TestParametersDTO</text><line style="stroke:#A80036;stroke-width:1.875;" x1="1025" x2="1231.25" y1="327.8" y2="327.8"/><text fill="#000000" font-family="sans-serif" font-size="13.75" lengthAdjust="spacing" textLength="131.25" x="1031.25" y="347.0737">-Parameter parameter</text><text fill="#000000" font-family="sans-serif" font-size="13.75" lengthAdjust="spacing" textLength="193.75" x="1031.25" y="364.3686">-TestParameterResult testResult</text><line style="stroke:#A80036;stroke-width:1.875;" x1="1025" x2="1231.25" y1="372.3898" y2="372.3898"/><text fill="#000000" font-family="sans-serif" font-size="13.75" lengthAdjust="spacing" textLength="97.5" x="1031.25" y="391.6635">+getParameter()</text><text fill="#000000" font-family="sans-serif" font-size="13.75" lengthAdjust="spacing" textLength="161.25" x="1031.25" y="408.9584">+getTestParameterResult()</text><text fill="#000000" font-family="sans-serif" font-size="13.75" lengthAdjust="spacing" textLength="108.75" x="1031.25" y="426.2534">+getResultValue()</text><text fill="#000000" font-family="sans-serif" font-size="13.75" lengthAdjust="spacing" textLength="110" x="1031.25" y="443.5483">+getResultMetric()</text><text fill="#000000" font-family="sans-serif" font-size="13.75" lengthAdjust="spacing" textLength="172.5" x="1031.25" y="460.8432">+getResultReferenceValue()</text><!--MD5=[d7b8916e3117ca4a3ffdab4f31ea783a]
class WriteReportController--><rect codeLine="78" fill="#FEFECE" filter="url(#f17pizvuxg9g1y)" height="163.7695" id="WriteReportController" style="stroke:#A80036;stroke-width:1.875;" width="188.75" x="221.25" y="545.3"/><ellipse cx="240" cy="565.3" fill="#ADD1B2" rx="13.75" ry="13.75" style="stroke:#A80036;stroke-width:1.25;"/><path d="M242.5,560.925 Q242.7539,560.3 243.0469,559.9875 Q243.3398,559.675 243.6719,559.675 Q244.2578,559.675 244.6289,560.0266 Q245,560.3781 245,561.1984 L245,563.1516 Q245,563.9719 244.6484,564.3234 Q244.2969,564.675 243.75,564.675 Q243.2617,564.675 242.9492,564.4602 Q242.6367,564.2453 242.5,563.6789 Q242.4414,563.2883 242.2266,563.0734 Q241.8359,562.6633 241.1328,562.4289 Q240.4297,562.175 239.7266,562.175 Q238.8477,562.175 238.1055,562.5266 Q237.3828,562.8781 236.8164,563.6594 Q236.25,564.4406 236.25,565.5148 L236.25,566.6672 Q236.25,567.9563 237.3047,568.8156 Q238.3594,569.675 240.2344,569.675 Q241.3477,569.675 242.1289,569.4211 Q242.5781,569.2844 243.0859,568.8352 Q243.418,568.5813 243.5938,568.5031 Q243.7695,568.425 243.9844,568.425 Q244.3945,568.425 244.6875,568.757 Q245,569.0695 245,569.5188 Q245,569.9484 244.5703,570.4563 Q243.9453,571.1984 242.9492,571.6086 Q241.6406,572.175 240.0391,572.175 Q238.1641,572.175 236.6602,571.4328 Q235.4492,570.8469 234.5898,569.5773 Q233.75,568.3078 233.75,566.8039 L233.75,565.4367 Q233.75,563.8742 234.4922,562.507 Q235.2539,561.1398 236.5625,560.4172 Q237.8906,559.675 239.375,559.675 Q240.2734,559.675 241.0547,559.9875 Q241.8359,560.3 242.5,560.925 Z " fill="#000000"/><text fill="#000000" font-family="sans-serif" font-size="15" lengthAdjust="spacing" textLength="148.75" x="257.5" y="571.4377">WriteReportController</text><line style="stroke:#A80036;stroke-width:1.875;" x1="222.5" x2="408.75" y1="585.3" y2="585.3"/><text fill="#000000" font-family="sans-serif" font-size="13.75" lengthAdjust="spacing" textLength="120" x="228.75" y="604.5737">-Company company</text><text fill="#000000" font-family="sans-serif" font-size="13.75" lengthAdjust="spacing" textLength="85" x="228.75" y="621.8686">-Report report</text><line style="stroke:#A80036;stroke-width:1.875;" x1="222.5" x2="408.75" y1="629.8898" y2="629.8898"/><text fill="#000000" font-family="sans-serif" font-size="13.75" lengthAdjust="spacing" textLength="158.75" x="228.75" y="649.1635">+createReport(reportText)</text><text fill="#000000" font-family="sans-serif" font-size="13.75" lengthAdjust="spacing" textLength="151.25" x="228.75" y="666.4584">+addReportToTest(code)</text><text fill="#000000" font-family="sans-serif" font-size="13.75" lengthAdjust="spacing" textLength="141.25" x="228.75" y="683.7534">+getTestsToDiagnose()</text><text fill="#000000" font-family="sans-serif" font-size="13.75" lengthAdjust="spacing" textLength="161.25" x="228.75" y="701.0483">+getTestParameters(code)</text><!--MD5=[71fba8c2abd557a2f7006580273aba3e]
class WriteReportUI--><rect codeLine="87" fill="#FEFECE" filter="url(#f17pizvuxg9g1y)" height="40" id="WriteReportUI" style="stroke:#A80036;stroke-width:1.875;" width="136.25" x="8.75" y="607.175"/><ellipse cx="27.5" cy="627.175" fill="#ADD1B2" rx="13.75" ry="13.75" style="stroke:#A80036;stroke-width:1.25;"/><path d="M30,622.8 Q30.2539,622.175 30.5469,621.8625 Q30.8398,621.55 31.1719,621.55 Q31.7578,621.55 32.1289,621.9016 Q32.5,622.2531 32.5,623.0734 L32.5,625.0266 Q32.5,625.8469 32.1484,626.1984 Q31.7969,626.55 31.25,626.55 Q30.7617,626.55 30.4492,626.3352 Q30.1367,626.1203 30,625.5539 Q29.9414,625.1633 29.7266,624.9484 Q29.3359,624.5383 28.6328,624.3039 Q27.9297,624.05 27.2266,624.05 Q26.3477,624.05 25.6055,624.4016 Q24.8828,624.7531 24.3164,625.5344 Q23.75,626.3156 23.75,627.3898 L23.75,628.5422 Q23.75,629.8313 24.8047,630.6906 Q25.8594,631.55 27.7344,631.55 Q28.8477,631.55 29.6289,631.2961 Q30.0781,631.1594 30.5859,630.7102 Q30.918,630.4563 31.0938,630.3781 Q31.2695,630.3 31.4844,630.3 Q31.8945,630.3 32.1875,630.632 Q32.5,630.9445 32.5,631.3938 Q32.5,631.8234 32.0703,632.3313 Q31.4453,633.0734 30.4492,633.4836 Q29.1406,634.05 27.5391,634.05 Q25.6641,634.05 24.1602,633.3078 Q22.9492,632.7219 22.0898,631.4523 Q21.25,630.1828 21.25,628.6789 L21.25,627.3117 Q21.25,625.7492 21.9922,624.382 Q22.7539,623.0148 24.0625,622.2922 Q25.3906,621.55 26.875,621.55 Q27.7734,621.55 28.5547,621.8625 Q29.3359,622.175 30,622.8 Z " fill="#000000"/><text fill="#000000" font-family="sans-serif" font-size="15" lengthAdjust="spacing" textLength="96.25" x="45" y="633.3127">WriteReportUI</text><!--MD5=[4ff913b72b026e4c95390310e4df5ddd]
link WriteReportUI to WriteReportController--><path codeLine="90" d="M145.1875,627.175 C166.7625,627.175 191.15,627.175 214.55,627.175 " fill="none" id="WriteReportUI-to-WriteReportController" style="stroke:#A80036;stroke-width:1.25;stroke-dasharray:7.0,7.0;"/><polygon fill="#A80036" points="221.125,627.175,209.875,622.175,214.875,627.175,209.875,632.175,221.125,627.175" style="stroke:#A80036;stroke-width:1.25;"/><!--MD5=[b14f4b55bc9aa939c7cd06f1c0b56da5]
link WriteReportUI to TestDTO--><path codeLine="91" d="M88.6,647.6 C128.1875,722.1625 277.0625,980.175 486.25,1072.175 C691.05,1162.2375 957.6375,1027.2875 1071.4625,959.0125 " fill="none" id="WriteReportUI-to-TestDTO" style="stroke:#A80036;stroke-width:1.25;stroke-dasharray:7.0,7.0;"/><polygon fill="#A80036" points="1077.0875,955.6125,1064.8742,957.1611,1071.7408,958.8491,1070.0528,965.7157,1077.0875,955.6125" style="stroke:#A80036;stroke-width:1.25;"/><!--MD5=[8952b7c69889eb72cb6c7fe0a635c82b]
link WriteReportUI to TestParametersDTO--><path codeLine="92" d="M89.6875,606.825 C131.8625,534.6875 285.575,289.825 486.25,183.425 C678.9375,81.2625 801.525,7.5 975,139.675 C1024.9625,177.7375 979.4375,222.525 1012.5,275.925 C1014.7125,279.5 1017.0875,283.0125 1019.5875,286.475 " fill="none" id="WriteReportUI-to-TestParametersDTO" style="stroke:#A80036;stroke-width:1.25;stroke-dasharray:7.0,7.0;"/><polygon fill="#A80036" points="1023.625,291.8625,1020.875,279.8625,1019.875,286.8625,1012.875,285.8625,1023.625,291.8625" style="stroke:#A80036;stroke-width:1.25;"/><!--MD5=[f27b4a25a5b059d18ef9f1b16d7419ab]
link WriteReportController to TestMapper--><path codeLine="93" d="M334.775,709.2375 C353.1,776.2125 387.5875,869.475 447.5,930.925 C474.65,958.7625 513.8875,977.45 547.35,989.35 " fill="none" id="WriteReportController-to-TestMapper" style="stroke:#A80036;stroke-width:1.25;stroke-dasharray:7.0,7.0;"/><polygon fill="#A80036" points="553.525,991.4875,544.5164,983.0966,547.6157,989.4523,541.26,992.5515,553.525,991.4875" style="stroke:#A80036;stroke-width:1.25;"/><!--MD5=[2a13b80ffc8ef808da3a7bc0ac83e972]
link WriteReportController to TestParameterMapper--><path codeLine="94" d="M398.4875,545.1125 C425.225,520.475 455.875,494.4375 486.25,473.425 C495.8625,466.775 506.25,460.3625 516.8,454.325 " fill="none" id="WriteReportController-to-TestParameterMapper" style="stroke:#A80036;stroke-width:1.25;stroke-dasharray:7.0,7.0;"/><polygon fill="#A80036" points="522.675,451.0125,510.4197,452.1834,517.231,454.0826,515.3318,460.8938,522.675,451.0125" style="stroke:#A80036;stroke-width:1.25;"/><!--MD5=[a3405a5a29c0a1359ce5b85a18cd6043]
link WriteReportController to Company--><path codeLine="95" d="M410.2,671.275 C445.6375,688.025 485.9375,707.0625 521.2375,723.75 " fill="none" id="WriteReportController-to-Company" style="stroke:#A80036;stroke-width:1.25;stroke-dasharray:7.0,7.0;"/><polygon fill="#A80036" points="527.3125,726.625,519.2935,717.2838,521.6663,723.9449,515.0053,726.3177,527.3125,726.625" style="stroke:#A80036;stroke-width:1.25;"/><!--MD5=[aa4aa685cc8a1bee089823f9a2dac854]
link WriteReportController to TestStore--><path codeLine="96" d="M322.9125,545.0625 C333.7125,461.6 363.775,335.2 447.5,267.175 C538.6875,193.0875 678.275,186.625 773.225,192.825 " fill="none" id="WriteReportController-to-TestStore" style="stroke:#A80036;stroke-width:1.25;stroke-dasharray:7.0,7.0;"/><polygon fill="#A80036" points="779.9875,193.3,769.107,187.54,773.7522,192.8712,768.421,197.5164,779.9875,193.3" style="stroke:#A80036;stroke-width:1.25;"/><!--MD5=[d2c887862af794255aa293b427ffc580]
link WriteReportController to TestDTO--><path codeLine="97" d="M356.3875,709.5875 C385.0875,759.925 428.925,820.7125 486.25,853.425 C585.5,910.05 934.2,920.875 1071.1,922.9375 " fill="none" id="WriteReportController-to-TestDTO" style="stroke:#A80036;stroke-width:1.25;stroke-dasharray:7.0,7.0;"/><polygon fill="#A80036" points="1077.4625,923.0375,1066.2851,917.8773,1071.2131,922.9482,1066.1422,927.8763,1077.4625,923.0375" style="stroke:#A80036;stroke-width:1.25;"/><!--MD5=[dbb0252714d08a11ef8d6a3e51fdcca3]
link WriteReportController to TestParametersDTO--><path codeLine="98" d="M340.8375,545.05 C365.375,477.525 410.7875,386.2625 486.25,343.425 C652.1625,249.2375 882.8375,296.75 1017.35,338.5125 " fill="none" id="WriteReportController-to-TestParametersDTO" style="stroke:#A80036;stroke-width:1.25;stroke-dasharray:7.0,7.0;"/><polygon fill="#A80036" points="1023.675,340.5,1014.4202,332.3815,1017.7076,338.6419,1011.4472,341.9293,1023.675,340.5" style="stroke:#A80036;stroke-width:1.25;"/><!--MD5=[b0f4f6db8206580012ef9cd998ed01c5]
link TestStore to Test--><path codeLine="99" d="M975.2875,200.9875 C1053.7125,201.575 1164.025,213.3 1243.75,265.925 C1349.2375,335.55 1417.9375,468.725 1454.25,557.45 " fill="none" id="TestStore-to-Test" style="stroke:#A80036;stroke-width:1.25;"/><polygon fill="#A80036" points="1456.8125,563.7625,1457.231,551.4585,1454.4697,557.9682,1447.9601,555.207,1456.8125,563.7625" style="stroke:#A80036;stroke-width:1.25;"/><polygon fill="#000000" points="1105.6388,196.1262,1098.762,186.4288,1094.3754,192.3229,1105.6388,196.1262" style="stroke:#000000;stroke-width:1.25;"/><text fill="#000000" font-family="sans-serif" font-size="16.25" lengthAdjust="spacing" textLength="48.75" x="1111.875" y="199.0439">adopts</text><text fill="#000000" font-family="sans-serif" font-size="16.25" lengthAdjust="spacing" textLength="8.75" x="985.0249" y="218.3394">1</text><text fill="#000000" font-family="sans-serif" font-size="16.25" lengthAdjust="spacing" textLength="6.25" x="1446.9326" y="550.5741">*</text><!--MD5=[670dbdf7395d3fcbb40104f0a070263e]
link Company to Report--><path codeLine="100" d="M701.775,765.7 C785.15,764.275 912.2875,762.1 1005.825,760.5 " fill="none" id="Company-to-Report" style="stroke:#A80036;stroke-width:1.25;"/><polygon fill="#A80036" points="1012.4875,760.375,1001.1535,755.5686,1006.2384,760.4821,1001.3249,765.5671,1012.4875,760.375" style="stroke:#A80036;stroke-width:1.25;"/><polygon fill="#000000" points="857.4991,749.7879,846.1316,746.3081,846.2572,753.6543,857.4991,749.7879" style="stroke:#000000;stroke-width:1.25;"/><text fill="#000000" font-family="sans-serif" font-size="16.25" lengthAdjust="spacing" textLength="46.25" x="862.5" y="756.5439">knows</text><text fill="#000000" font-family="sans-serif" font-size="16.25" lengthAdjust="spacing" textLength="8.75" x="711.2393" y="783.4485">1</text><text fill="#000000" font-family="sans-serif" font-size="16.25" lengthAdjust="spacing" textLength="6.25" x="996.4025" y="778.2424">*</text><!--MD5=[63d25d625ab355317a074a623d33bba8]
link Report to Test--><path codeLine="101" d="M1244.05,722.2125 C1281.5125,710.375 1323.275,697.1875 1361.4,685.15 " fill="none" id="Report-to-Test" style="stroke:#A80036;stroke-width:1.25;"/><polygon fill="#A80036" points="1367.4875,683.225,1355.2521,681.8623,1361.5303,685.1156,1358.277,691.3938,1367.4875,683.225" style="stroke:#A80036;stroke-width:1.25;"/><polygon fill="#000000" points="1293.4598,681.7624,1281.572,681.6644,1283.7848,688.6706,1293.4598,681.7624" style="stroke:#000000;stroke-width:1.25;"/><text fill="#000000" font-family="sans-serif" font-size="16.25" lengthAdjust="spacing" textLength="30" x="1298.75" y="690.2939">is of</text><text fill="#000000" font-family="sans-serif" font-size="16.25" lengthAdjust="spacing" textLength="8.75" x="1253.6364" y="737.0011">1</text><text fill="#000000" font-family="sans-serif" font-size="16.25" lengthAdjust="spacing" textLength="8.75" x="1348.8752" y="703.8798">1</text><!--MD5=[7d615427424eb1e9d8965c4eb17ecbf5]
link TestParameter to Test--><path codeLine="102" d="M1232.9,597.15 C1273.0375,604.9 1319.35,613.8375 1361.275,621.925 " fill="none" id="TestParameter-to-Test" style="stroke:#A80036;stroke-width:1.25;"/><polygon fill="#A80036" points="1367.425,623.1125,1357.3186,616.0823,1361.287,621.9349,1355.4344,625.9032,1367.425,623.1125" style="stroke:#A80036;stroke-width:1.25;"/><polygon fill="#000000" points="1293.6368,597.3291,1283.2314,591.5795,1281.8391,598.7937,1293.6368,597.3291" style="stroke:#000000;stroke-width:1.25;"/><text fill="#000000" font-family="sans-serif" font-size="16.25" lengthAdjust="spacing" textLength="30" x="1298.75" y="602.7939">is of</text><text fill="#000000" font-family="sans-serif" font-size="16.25" lengthAdjust="spacing" textLength="25" x="1242.6118" y="616.5016">1..*</text><text fill="#000000" font-family="sans-serif" font-size="16.25" lengthAdjust="spacing" textLength="8.75" x="1348.8077" y="638.9771">1</text><!--MD5=[166b32c017035243ed8780a05e3f542e]
link TestParameterResult to TestParameter--><path codeLine="103" d="M742.6625,577.175 C826.9375,577.175 936.4375,577.175 1016.9625,577.175 " fill="none" id="TestParameterResult-to-TestParameter" style="stroke:#A80036;stroke-width:1.25;"/><polygon fill="#A80036" points="1023.6875,577.175,1012.4375,572.175,1017.4375,577.175,1012.4375,582.175,1023.6875,577.175" style="stroke:#A80036;stroke-width:1.25;"/><polygon fill="#000000" points="865.625,566.1447,854.3186,562.4711,854.3186,569.8184,865.625,566.1447" style="stroke:#000000;stroke-width:1.25;"/><text fill="#000000" font-family="sans-serif" font-size="16.25" lengthAdjust="spacing" textLength="30" x="870.625" y="572.7939">is of</text><text fill="#000000" font-family="sans-serif" font-size="16.25" lengthAdjust="spacing" textLength="8.75" x="752.4049" y="594.7937">1</text><text fill="#000000" font-family="sans-serif" font-size="16.25" lengthAdjust="spacing" textLength="8.75" x="1004.9063" y="594.9662">1</text><!--MD5=[8d9a2c3ea1bf73d8d45b939465e53fff]
link TestMapper to Test--><path codeLine="104" d="M675.0375,1022.6375 C792.025,1049.65 1057.0375,1093.575 1243.75,993.425 C1346.7,938.2 1415.05,817.6125 1452.075,734.1 " fill="none" id="TestMapper-to-Test" style="stroke:#A80036;stroke-width:1.25;stroke-dasharray:7.0,7.0;"/><polygon fill="#A80036" points="1454.6875,728.15,1445.5758,736.4288,1452.1674,733.8694,1454.7268,740.461,1454.6875,728.15" style="stroke:#A80036;stroke-width:1.25;"/><!--MD5=[886f81fd36c1ffd754dcf922ff388f49]
link TestParameterMapper to TestParameter--><path codeLine="105" d="M711.7875,440.1625 C798.65,468.8375 926.4125,511 1017.2125,540.975 " fill="none" id="TestParameterMapper-to-TestParameter" style="stroke:#A80036;stroke-width:1.25;stroke-dasharray:7.0,7.0;"/><polygon fill="#A80036" points="1023.6875,543.1125,1014.581,534.828,1017.7547,541.1468,1011.4358,544.3205,1023.6875,543.1125" style="stroke:#A80036;stroke-width:1.25;"/><!--MD5=[f6fda4afaf882dd39139bcbf06c50c8c]
link TestMapper to TestDTO--><path codeLine="106" d="M675.275,997.4 C775.025,981.0625 974.2625,948.425 1071.25,932.5375 " fill="none" id="TestMapper-to-TestDTO" style="stroke:#A80036;stroke-width:1.25;stroke-dasharray:7.0,7.0;"/><polygon fill="#A80036" points="1077.4875,931.5125,1065.5832,928.3741,1071.3178,932.5111,1067.1809,938.2457,1077.4875,931.5125" style="stroke:#A80036;stroke-width:1.25;"/><!--MD5=[18ed76bd549b5ebe2e3f9be67ba1c205]
link TestParameterMapper to TestParametersDTO--><path codeLine="107" d="M711.7875,402.775 C798.65,397.6875 926.4125,390.1875 1017.2125,384.8625 " fill="none" id="TestParameterMapper-to-TestParametersDTO" style="stroke:#A80036;stroke-width:1.25;stroke-dasharray:7.0,7.0;"/><polygon fill="#A80036" points="1023.6875,384.475,1012.1575,380.1597,1017.4488,384.8504,1012.7581,390.1417,1023.6875,384.475" style="stroke:#A80036;stroke-width:1.25;"/><!--MD5=[53804fa218b8aa52f8a95d1fefbe615f]
@startuml
hide empty methods
hide empty attributes
left to right direction
skinparam classAttributeIconSize 0

class Company {
    -String designation
    -TestStore testStore
    +getTestStore()
    +createReport(reportText)
}

class Report {
    - String reportText
    + Report(reportText)
    + checkReportTextRules(reportText)
    + countWords(reportText)
    + toString()
}

class Test {
    -String code
    -Report diagnosisReport
    -List<TestParameter> testParameters
    +getParameters()
    +hasSamplesAnalysed()
    +addReport(report)
}

class TestParameter {
    -Parameter parameter
    -TestParameterResult testResult
    +getParameter()
    +getParameterResult()
}

class TestParameterResult {
    -Double value
    -String metric
    -MyReferenceValue myReferenceValue
    +getResultValue()
    +getResultMetric()
    +getResultReferenceValue()
}

class TestStore {
    -list<Test> testList
    +getTestsReadyToDiagnose()
    +getTestByCode(code)
    +getTestParameters(tst)
}

class TestMapper {
    +toDTO(tests)
    +toDTO(test)
}

class TestParameterMapper {
    +toDTO(testParameter)
    +toDTO(testParameters)
}

class TestDTO {
    -String code
    +getCode()
}

class TestParametersDTO {
    -Parameter parameter
    -TestParameterResult testResult
    +getParameter()
    +getTestParameterResult()
    +getResultValue()
    +getResultMetric()
    +getResultReferenceValue()
}

class WriteReportController {
    -Company company
    -Report report
    +createReport(reportText)
    +addReportToTest(code)
    +getTestsToDiagnose()
    +getTestParameters(code)
}

class WriteReportUI {
}

WriteReportUI ..> WriteReportController
WriteReportUI ..> TestDTO
WriteReportUI ..> TestParametersDTO
WriteReportController ..> TestMapper
WriteReportController ..> TestParameterMapper
WriteReportController ..> Company
WriteReportController ..> TestStore
WriteReportController ..> TestDTO
WriteReportController ..> TestParametersDTO
TestStore "1" -> "*" Test : adopts >
Company "1" - -> "*" Report : knows >
Report "1" - -> "1" Test : is of >
TestParameter "1..*" - -> "1" Test : is of >
TestParameterResult "1" - -> "1" TestParameter : is of >
TestMapper ..> Test
TestParameterMapper ..> TestParameter
TestMapper ..> TestDTO
TestParameterMapper ..> TestParametersDTO

@enduml

PlantUML version 1.2021.5(Sun Apr 25 12:20:28 BST 2021)
(GPL source distribution)
Java Runtime: OpenJDK Runtime Environment
JVM: Dynamic Code Evolution 64-Bit Server VM
Default Encoding: Cp1252
Language: pt
Country: PT
--></g></svg>