<?xml version="1.0" encoding="UTF-8" standalone="no"?><svg xmlns="http://www.w3.org/2000/svg" xmlns:xlink="http://www.w3.org/1999/xlink" contentScriptType="application/ecmascript" contentStyleType="text/css" height="406.25px" preserveAspectRatio="none" style="width:903px;height:406px;" version="1.1" viewBox="0 0 903 406" width="903.75px" zoomAndPan="magnify"><defs><filter height="300%" id="flee8ydl2xnnp" width="300%" x="-1" y="-1"><feGaussianBlur result="blurOut" stdDeviation="2.5"/><feColorMatrix in="blurOut" result="blurOut2" type="matrix" values="0 0 0 0 0 0 0 0 0 0 0 0 0 0 0 0 0 0 .4 0"/><feOffset dx="5.0" dy="5.0" in="blurOut2" result="blurOut3"/><feBlend in="SourceGraphic" in2="blurOut3" mode="normal"/></filter></defs><g><!--MD5=[2c2e2644034c00788261e03c85b06837]
cluster Core--><polygon fill="#FFFFFF" filter="url(#flee8ydl2xnnp)" points="121.25,7.5,171.25,7.5,180,37.0117,882.5,37.0117,882.5,375,121.25,375,121.25,7.5" style="stroke:#000000;stroke-width:1.875;"/><line style="stroke:#000000;stroke-width:1.875;" x1="121.25" x2="180" y1="37.0117" y2="37.0117"/><text fill="#000000" font-family="sans-serif" font-size="17.5" font-weight="bold" lengthAdjust="spacing" textLength="42.5" x="126.25" y="28.1665">Core</text><!--MD5=[121a8bf1197281ab89ed693fab589f94]
cluster Domain--><polygon fill="#FFFFFF" filter="url(#flee8ydl2xnnp)" points="502.5,72.5,575,72.5,583.75,102.0117,842.5,102.0117,842.5,251.25,502.5,251.25,502.5,72.5" style="stroke:#000000;stroke-width:1.875;"/><line style="stroke:#000000;stroke-width:1.875;" x1="502.5" x2="583.75" y1="102.0117" y2="102.0117"/><text fill="#000000" font-family="sans-serif" font-size="17.5" font-weight="bold" lengthAdjust="spacing" textLength="65" x="507.5" y="93.1665">Domain</text><polygon fill="#FFFFFF" filter="url(#flee8ydl2xnnp)" points="532.5,128.125,595,128.125,603.75,157.6367,612.5,157.6367,612.5,197.1484,532.5,197.1484,532.5,128.125" style="stroke:#000000;stroke-width:1.875;"/><line style="stroke:#000000;stroke-width:1.875;" x1="532.5" x2="603.75" y1="157.6367" y2="157.6367"/><text fill="#000000" font-family="sans-serif" font-size="17.5" font-weight="bold" lengthAdjust="spacing" textLength="55" x="537.5" y="148.7915">Model</text><polygon fill="#FFFFFF" filter="url(#flee8ydl2xnnp)" points="740,128.125,795,128.125,803.75,157.6367,812.5,157.6367,812.5,197.1484,740,197.1484,740,128.125" style="stroke:#000000;stroke-width:1.875;"/><line style="stroke:#000000;stroke-width:1.875;" x1="740" x2="803.75" y1="157.6367" y2="157.6367"/><text fill="#000000" font-family="sans-serif" font-size="17.5" font-weight="bold" lengthAdjust="spacing" textLength="47.5" x="745" y="148.7915">Store</text><polygon fill="#FFFFFF" filter="url(#flee8ydl2xnnp)" points="331.25,206.875,416.25,206.875,425,236.3867,433.75,236.3867,433.75,275.8984,331.25,275.8984,331.25,206.875" style="stroke:#000000;stroke-width:1.875;"/><line style="stroke:#000000;stroke-width:1.875;" x1="331.25" x2="425" y1="236.3867" y2="236.3867"/><text fill="#000000" font-family="sans-serif" font-size="17.5" font-weight="bold" lengthAdjust="spacing" textLength="77.5" x="336.25" y="227.5415">Mappers</text><polygon fill="#FFFFFF" filter="url(#flee8ydl2xnnp)" points="541.875,285.625,585.625,285.625,594.375,315.1367,603.125,315.1367,603.125,354.6484,541.875,354.6484,541.875,285.625" style="stroke:#000000;stroke-width:1.875;"/><line style="stroke:#000000;stroke-width:1.875;" x1="541.875" x2="594.375" y1="315.1367" y2="315.1367"/><text fill="#000000" font-family="sans-serif" font-size="17.5" font-weight="bold" lengthAdjust="spacing" textLength="36.25" x="546.875" y="306.2915">DTO</text><polygon fill="#FFFFFF" filter="url(#flee8ydl2xnnp)" points="141.25,230.625,237.5,230.625,246.25,260.1367,255,260.1367,255,299.6484,141.25,299.6484,141.25,230.625" style="stroke:#000000;stroke-width:1.875;"/><line style="stroke:#000000;stroke-width:1.875;" x1="141.25" x2="246.25" y1="260.1367" y2="260.1367"/><text fill="#000000" font-family="sans-serif" font-size="17.5" font-weight="bold" lengthAdjust="spacing" textLength="88.75" x="146.25" y="251.2915">Controller</text><polygon fill="#FFFFFF" filter="url(#flee8ydl2xnnp)" points="20,329.375,45,329.375,53.75,358.8867,62.5,358.8867,62.5,398.3984,20,398.3984,20,329.375" style="stroke:#000000;stroke-width:1.875;"/><line style="stroke:#000000;stroke-width:1.875;" x1="20" x2="53.75" y1="358.8867" y2="358.8867"/><text fill="#000000" font-family="sans-serif" font-size="17.5" font-weight="bold" lengthAdjust="spacing" textLength="17.5" x="25" y="350.0415">UI</text><!--MD5=[132c963044dc2a803644bb1c6fd2eeb1]
link UI to Controller--><path d="M62.6875,350.8375 C81.675,338.6875 111.0875,319.875 137.5375,302.95 " fill="none" id="UI-to-Controller" style="stroke:#A80036;stroke-width:1.25;stroke-dasharray:7.0,7.0;"/><polygon fill="#A80036" points="143.1375,299.375,130.9676,301.2338,137.8749,302.7466,136.3622,309.654,143.1375,299.375" style="stroke:#A80036;stroke-width:1.25;"/><!--MD5=[9ea89be3b33715d555650644e5bd9dde]
link UI to DTO--><path d="M62.5875,362.0875 C141.775,355.5375 433.0375,331.4375 535.4,322.9625 " fill="none" id="UI-to-DTO" style="stroke:#A80036;stroke-width:1.25;stroke-dasharray:7.0,7.0;"/><polygon fill="#A80036" points="541.8625,322.4375,530.2371,318.3863,535.634,322.9551,531.0652,328.3519,541.8625,322.4375" style="stroke:#A80036;stroke-width:1.25;"/><!--MD5=[388c1612b88ec01a25e4c9e549608083]
link Controller to Mappers--><path d="M255.425,257.675 C277.375,254.8125 302.5125,251.5375 324.525,248.6625 " fill="none" id="Controller-to-Mappers" style="stroke:#A80036;stroke-width:1.25;stroke-dasharray:7.0,7.0;"/><polygon fill="#A80036" points="331.2375,247.775,319.4379,244.2633,325.0394,248.5788,320.724,254.1803,331.2375,247.775" style="stroke:#A80036;stroke-width:1.25;"/><!--MD5=[b56077b83eea1bdcc34279ae4b4c8f8d]
link Controller to DTO--><path d="M255.1375,280.6875 C278.4875,286.75 306.025,293.2375 331.25,297.5 C402.825,309.6125 487.6,315.6375 534.825,318.2625 " fill="none" id="Controller-to-DTO" style="stroke:#A80036;stroke-width:1.25;stroke-dasharray:7.0,7.0;"/><polygon fill="#A80036" points="541.5125,318.625,530.5509,313.0208,535.2717,318.2852,530.0073,323.006,541.5125,318.625" style="stroke:#A80036;stroke-width:1.25;"/><!--MD5=[5eef8fc34ee0f8a6e9a4917deebd15c5]
link Controller to Domain--><path d="M242.9,230.2625 C267.3375,212.9875 299.275,193.9375 331.25,185 C375.125,172.7375 390.15,171.8 433.75,185 C458.675,192.55 458.775,206.775 482.5,217.5 C487.0047,219.5375 491.7197,221.4299 496.5281,223.1824 C497.7302,223.6205 498.9382,224.0499 500.1501,224.4706 C500.7561,224.681 501.363,224.8892 501.9708,225.0952 C502.1227,225.1468 502.2747,225.1981 502.4267,225.2494 " fill="none" id="Controller-to-Domain" style="stroke:#A80036;stroke-width:1.25;stroke-dasharray:7.0,7.0;"/><polygon fill="#A80036" points="502.4267,225.2494,493.363,216.9181,496.5041,223.2531,490.169,226.3943,502.4267,225.2494" style="stroke:#A80036;stroke-width:1.25;"/><!--MD5=[7bfceed364607ce3b8cce1b3d5210487]
link Mappers to DTO--><path d="M434,262.35 C466,275.8 506.6875,292.8875 535.4375,304.9625 " fill="none" id="Mappers-to-DTO" style="stroke:#A80036;stroke-width:1.25;stroke-dasharray:7.0,7.0;"/><polygon fill="#A80036" points="541.375,307.45,532.9469,298.4762,535.6148,305.0246,529.0663,307.6925,541.375,307.45" style="stroke:#A80036;stroke-width:1.25;"/><!--MD5=[e520cc194c2a0f527ea9a8a291e7735a]
link Mappers to Domain--><path d="M434,241.25 C447.6656,241.25 462.9172,241.25 478.1465,241.25 C485.7611,241.25 493.3702,241.25 500.7727,241.25 C501.2354,241.25 501.6972,241.25 502.1582,241.25 " fill="none" id="Mappers-to-Domain" style="stroke:#A80036;stroke-width:1.25;stroke-dasharray:7.0,7.0;"/><polygon fill="#A80036" points="502.1582,241.25,490.9082,236.25,495.9082,241.25,490.9082,246.25,502.1582,241.25" style="stroke:#A80036;stroke-width:1.25;"/><!--MD5=[5a887953c81670e82bf0effada931465]
link Model to Store--><path d="M612.55,162.5 C647.175,162.5 697.75,162.5 733.2375,162.5 " fill="none" id="Model-to-Store" style="stroke:#A80036;stroke-width:1.25;stroke-dasharray:7.0,7.0;"/><polygon fill="#A80036" points="739.6875,162.5,728.4375,157.5,733.4375,162.5,728.4375,167.5,739.6875,162.5" style="stroke:#A80036;stroke-width:1.25;"/><text fill="#000000" font-family="sans-serif" font-size="16.25" lengthAdjust="spacing" textLength="50" x="651.25" y="158.1189">uses &gt;</text><!--MD5=[0da39d696afd17afa3cb22178ca588a6]
@startuml
hide empty methods
hide empty attributes
left to right direction
skinparam classAttributeIconSize 0

package Core {

package Domain {
package Model {}
package Store {}
}

package Mappers {}
package DTO {}
package Controller {}

}


package UI {}

UI ..> Controller
UI ..> DTO
Controller ..> Mappers
Controller ..> DTO
Controller ..> Domain
Mappers ..> DTO
Mappers ..> Domain
Model ..> Store : uses >

@enduml

PlantUML version 1.2021.5(Sun Apr 25 12:20:28 BST 2021)
(GPL source distribution)
Java Runtime: OpenJDK Runtime Environment
JVM: Dynamic Code Evolution 64-Bit Server VM
Default Encoding: Cp1252
Language: pt
Country: PT
--></g></svg>