<?xml version="1.0" encoding="UTF-8" standalone="no"?><svg xmlns="http://www.w3.org/2000/svg" xmlns:xlink="http://www.w3.org/1999/xlink" contentScriptType="application/ecmascript" contentStyleType="text/css" height="587.5px" preserveAspectRatio="none" style="width:590px;height:587px;" version="1.1" viewBox="0 0 590 587" width="590px" zoomAndPan="magnify"><defs><filter height="300%" id="fl7xzvvp6sy2z" width="300%" x="-1" y="-1"><feGaussianBlur result="blurOut" stdDeviation="2.5"/><feColorMatrix in="blurOut" result="blurOut2" type="matrix" values="0 0 0 0 0 0 0 0 0 0 0 0 0 0 0 0 0 0 .4 0"/><feOffset dx="5.0" dy="5.0" in="blurOut2" result="blurOut3"/><feBlend in="SourceGraphic" in2="blurOut3" mode="normal"/></filter></defs><g><rect fill="#FFFFFF" filter="url(#fl7xzvvp6sy2z)" height="333.9551" style="stroke:#A80036;stroke-width:1.25;" width="12.5" x="74.375" y="124.5117"/><rect fill="#FFFFFF" filter="url(#fl7xzvvp6sy2z)" height="37.9395" style="stroke:#A80036;stroke-width:1.25;" width="12.5" x="511.875" y="152.4512"/><rect fill="#FFFFFF" filter="url(#fl7xzvvp6sy2z)" height="69.6289" style="stroke:#A80036;stroke-width:1.25;" width="12.5" x="511.875" y="228.3301"/><rect fill="#FFFFFF" filter="url(#fl7xzvvp6sy2z)" height="37.9395" style="stroke:#A80036;stroke-width:1.25;" width="12.5" x="511.875" y="420.5273"/><rect fill="#FFFFFF" filter="url(#fl7xzvvp6sy2z)" height="98.8184" style="stroke:#000000;stroke-width:2.5;" width="560.625" x="12.5" y="247.0801"/><line style="stroke:#A80036;stroke-width:1.25;stroke-dasharray:5.0,5.0;" x1="80" x2="80" y1="112.0117" y2="480.9668"/><line style="stroke:#A80036;stroke-width:1.25;stroke-dasharray:5.0,5.0;" x1="518.125" x2="518.125" y1="112.0117" y2="480.9668"/><text fill="#000000" font-family="sans-serif" font-size="17.5" lengthAdjust="spacing" textLength="103.75" x="25" y="108.1665">Administrator</text><ellipse cx="80.625" cy="18.75" fill="#FEFECE" filter="url(#fl7xzvvp6sy2z)" rx="10" ry="10" style="stroke:#A80036;stroke-width:2.5;"/><path d="M80.625,28.75 L80.625,62.5 M64.375,38.75 L96.875,38.75 M80.625,62.5 L64.375,81.25 M80.625,62.5 L96.875,81.25 " fill="none" filter="url(#fl7xzvvp6sy2z)" style="stroke:#A80036;stroke-width:2.5;"/><text fill="#000000" font-family="sans-serif" font-size="17.5" lengthAdjust="spacing" textLength="103.75" x="25" y="497.8833">Administrator</text><ellipse cx="80.625" cy="514.2285" fill="#FEFECE" filter="url(#fl7xzvvp6sy2z)" rx="10" ry="10" style="stroke:#A80036;stroke-width:2.5;"/><path d="M80.625,524.2285 L80.625,557.9785 M64.375,534.2285 L96.875,534.2285 M80.625,557.9785 L64.375,576.7285 M80.625,557.9785 L96.875,576.7285 " fill="none" filter="url(#fl7xzvvp6sy2z)" style="stroke:#A80036;stroke-width:2.5;"/><rect fill="#FEFECE" filter="url(#fl7xzvvp6sy2z)" height="39.5117" style="stroke:#A80036;stroke-width:1.875;" width="80" x="475.625" y="66.25"/><text fill="#000000" font-family="sans-serif" font-size="17.5" lengthAdjust="spacing" textLength="62.5" x="484.375" y="93.1665">:System</text><rect fill="#FEFECE" filter="url(#fl7xzvvp6sy2z)" height="39.5117" style="stroke:#A80036;stroke-width:1.875;" width="80" x="475.625" y="479.7168"/><text fill="#000000" font-family="sans-serif" font-size="17.5" lengthAdjust="spacing" textLength="62.5" x="484.375" y="506.6333">:System</text><rect fill="#FFFFFF" filter="url(#fl7xzvvp6sy2z)" height="333.9551" style="stroke:#A80036;stroke-width:1.25;" width="12.5" x="74.375" y="124.5117"/><rect fill="#FFFFFF" filter="url(#fl7xzvvp6sy2z)" height="37.9395" style="stroke:#A80036;stroke-width:1.25;" width="12.5" x="511.875" y="152.4512"/><rect fill="#FFFFFF" filter="url(#fl7xzvvp6sy2z)" height="69.6289" style="stroke:#A80036;stroke-width:1.25;" width="12.5" x="511.875" y="228.3301"/><rect fill="#FFFFFF" filter="url(#fl7xzvvp6sy2z)" height="37.9395" style="stroke:#A80036;stroke-width:1.25;" width="12.5" x="511.875" y="420.5273"/><polygon fill="#A80036" points="496.875,147.4512,509.375,152.4512,496.875,157.4512,501.875,152.4512" style="stroke:#A80036;stroke-width:1.25;"/><line style="stroke:#A80036;stroke-width:1.25;" x1="86.875" x2="504.375" y1="152.4512" y2="152.4512"/><text fill="#000000" font-family="sans-serif" font-size="16.25" font-weight="bold" lengthAdjust="spacing" textLength="8.75" x="95.625" y="146.3806">1</text><text fill="#000000" font-family="sans-serif" font-size="16.25" lengthAdjust="spacing" textLength="226.25" x="109.375" y="146.3806">asks to specify a new test type</text><polygon fill="#A80036" points="100.625,185.3906,88.125,190.3906,100.625,195.3906,95.625,190.3906" style="stroke:#A80036;stroke-width:1.25;"/><line style="stroke:#A80036;stroke-width:1.25;stroke-dasharray:2.0,2.0;" x1="93.125" x2="516.875" y1="190.3906" y2="190.3906"/><text fill="#000000" font-family="sans-serif" font-size="16.25" font-weight="bold" lengthAdjust="spacing" textLength="8.75" x="108.125" y="184.3201">2</text><text fill="#000000" font-family="sans-serif" font-size="16.25" lengthAdjust="spacing" textLength="370" x="121.875" y="184.3201">requests data (code, description, collectingMethod)</text><polygon fill="#A80036" points="496.875,223.3301,509.375,228.3301,496.875,233.3301,501.875,228.3301" style="stroke:#A80036;stroke-width:1.25;"/><line style="stroke:#A80036;stroke-width:1.25;" x1="86.875" x2="504.375" y1="228.3301" y2="228.3301"/><text fill="#000000" font-family="sans-serif" font-size="16.25" font-weight="bold" lengthAdjust="spacing" textLength="8.75" x="95.625" y="222.2595">3</text><text fill="#000000" font-family="sans-serif" font-size="16.25" lengthAdjust="spacing" textLength="152.5" x="109.375" y="222.2595">types requested data</text><path d="M12.5,247.0801 L103.75,247.0801 L103.75,257.0801 L91.25,269.5801 L12.5,269.5801 L12.5,247.0801 " fill="#EEEEEE" style="stroke:#000000;stroke-width:1.25;"/><rect fill="none" height="98.8184" style="stroke:#000000;stroke-width:2.5;" width="560.625" x="12.5" y="247.0801"/><text fill="#000000" font-family="sans-serif" font-size="16.25" font-weight="bold" lengthAdjust="spacing" textLength="35" x="31.25" y="265.199">loop</text><text fill="#000000" font-family="sans-serif" font-size="13.75" font-weight="bold" lengthAdjust="spacing" textLength="198.75" x="122.5" y="263.8538">[while user adds categories]</text><polygon fill="#A80036" points="100.625,292.959,88.125,297.959,100.625,302.959,95.625,297.959" style="stroke:#A80036;stroke-width:1.25;"/><line style="stroke:#A80036;stroke-width:1.25;stroke-dasharray:2.0,2.0;" x1="93.125" x2="516.875" y1="297.959" y2="297.959"/><text fill="#000000" font-family="sans-serif" font-size="16.25" font-weight="bold" lengthAdjust="spacing" textLength="8.75" x="108.125" y="291.8884">4</text><text fill="#000000" font-family="sans-serif" font-size="16.25" lengthAdjust="spacing" textLength="381.25" x="121.875" y="291.8884">shows available categories and request to select one</text><polygon fill="#A80036" points="503.125,330.8984,515.625,335.8984,503.125,340.8984,508.125,335.8984" style="stroke:#A80036;stroke-width:1.25;"/><line style="stroke:#A80036;stroke-width:1.25;" x1="86.875" x2="510.625" y1="335.8984" y2="335.8984"/><text fill="#000000" font-family="sans-serif" font-size="16.25" font-weight="bold" lengthAdjust="spacing" textLength="8.75" x="95.625" y="329.8279">5</text><text fill="#000000" font-family="sans-serif" font-size="16.25" lengthAdjust="spacing" textLength="165" x="109.375" y="329.8279">selects requested data</text><polygon fill="#A80036" points="100.625,377.5879,88.125,382.5879,100.625,387.5879,95.625,382.5879" style="stroke:#A80036;stroke-width:1.25;"/><line style="stroke:#A80036;stroke-width:1.25;stroke-dasharray:2.0,2.0;" x1="93.125" x2="516.875" y1="382.5879" y2="382.5879"/><text fill="#000000" font-family="sans-serif" font-size="16.25" font-weight="bold" lengthAdjust="spacing" textLength="8.75" x="108.125" y="376.5173">6</text><text fill="#000000" font-family="sans-serif" font-size="16.25" lengthAdjust="spacing" textLength="333.75" x="121.875" y="376.5173">show test type data and requests confirmation</text><polygon fill="#A80036" points="496.875,415.5273,509.375,420.5273,496.875,425.5273,501.875,420.5273" style="stroke:#A80036;stroke-width:1.25;"/><line style="stroke:#A80036;stroke-width:1.25;" x1="86.875" x2="504.375" y1="420.5273" y2="420.5273"/><text fill="#000000" font-family="sans-serif" font-size="16.25" font-weight="bold" lengthAdjust="spacing" textLength="8.75" x="95.625" y="414.4568">7</text><text fill="#000000" font-family="sans-serif" font-size="16.25" lengthAdjust="spacing" textLength="125" x="109.375" y="414.4568">confirms the data</text><polygon fill="#A80036" points="94.375,453.4668,81.875,458.4668,94.375,463.4668,89.375,458.4668" style="stroke:#A80036;stroke-width:1.25;"/><line style="stroke:#A80036;stroke-width:1.25;stroke-dasharray:2.0,2.0;" x1="86.875" x2="516.875" y1="458.4668" y2="458.4668"/><text fill="#000000" font-family="sans-serif" font-size="16.25" font-weight="bold" lengthAdjust="spacing" textLength="8.75" x="101.875" y="452.3962">8</text><text fill="#000000" font-family="sans-serif" font-size="16.25" lengthAdjust="spacing" textLength="190" x="115.625" y="452.3962">informs operation success</text><!--MD5=[83ea033674e1f9fddff5fef55355535b]
@startuml
autonumber
actor Administrator as A

activate A
A -> ":System" : asks to specify a new test type
activate ":System"
":System" - -> A : requests data (code, description, collectingMethod)
deactivate ":System"
A -> ":System" : types requested data
loop while user adds categories
activate ":System"
":System" - -> A : shows available categories and request to select one
deactivate ":System"
A -> ":System" : selects requested data
end
activate ":System"
":System" - -> A : show test type data and requests confirmation
deactivate ":System"
A -> ":System" : confirms the data
activate ":System"
":System" - -> A : informs operation success
deactivate ":System"

deactivate A

@enduml

PlantUML version 1.2021.00(Sun Jan 10 10:25:05 GMT 2021)
(GPL source distribution)
Java Runtime: OpenJDK Runtime Environment
JVM: OpenJDK 64-Bit Server VM
Default Encoding: Cp1252
Language: pt
Country: BR
--></g></svg>