<?xml version="1.0" encoding="UTF-8" standalone="no"?><svg xmlns="http://www.w3.org/2000/svg" xmlns:xlink="http://www.w3.org/1999/xlink" contentScriptType="application/ecmascript" contentStyleType="text/css" height="1536px" preserveAspectRatio="none" style="width:751px;height:1536px;" version="1.1" viewBox="0 0 751 1536" width="751px" zoomAndPan="magnify"><defs><filter height="300%" id="fivuythhca5x4" width="300%" x="-1" y="-1"><feGaussianBlur result="blurOut" stdDeviation="2.0"/><feColorMatrix in="blurOut" result="blurOut2" type="matrix" values="0 0 0 0 0 0 0 0 0 0 0 0 0 0 0 0 0 0 .4 0"/><feOffset dx="4.0" dy="4.0" in="blurOut2" result="blurOut3"/><feBlend in="SourceGraphic" in2="blurOut3" mode="normal"/></filter></defs><g><!--MD5=[02e4b9b7573f1156f41e60aa5b4e25a4]
class Company--><rect codeLine="6" fill="#FEFECE" filter="url(#fivuythhca5x4)" height="150.6875" id="Company" style="stroke:#A80036;stroke-width:1.5;" width="150" x="281.0771" y="117"/><ellipse cx="325.3271" cy="133" fill="#ADD1B2" rx="11" ry="11" style="stroke:#A80036;stroke-width:1.0;"/><path d="M327.3271,129.5 Q327.5302,129 327.7646,128.75 Q327.9989,128.5 328.2646,128.5 Q328.7333,128.5 329.0302,128.7813 Q329.3271,129.0625 329.3271,129.7188 L329.3271,131.2813 Q329.3271,131.9375 329.0458,132.2188 Q328.7646,132.5 328.3271,132.5 Q327.9364,132.5 327.6864,132.3281 Q327.4364,132.1563 327.3271,131.7031 Q327.2802,131.3906 327.1083,131.2188 Q326.7958,130.8906 326.2333,130.7031 Q325.6708,130.5 325.1083,130.5 Q324.4052,130.5 323.8114,130.7813 Q323.2333,131.0625 322.7802,131.6875 Q322.3271,132.3125 322.3271,133.1719 L322.3271,134.0938 Q322.3271,135.125 323.1708,135.8125 Q324.0146,136.5 325.5146,136.5 Q326.4052,136.5 327.0302,136.2969 Q327.3896,136.1875 327.7958,135.8281 Q328.0614,135.625 328.2021,135.5625 Q328.3427,135.5 328.5146,135.5 Q328.8427,135.5 329.0771,135.7656 Q329.3271,136.0156 329.3271,136.375 Q329.3271,136.7188 328.9833,137.125 Q328.4833,137.7188 327.6864,138.0469 Q326.6396,138.5 325.3583,138.5 Q323.8583,138.5 322.6552,137.9063 Q321.6864,137.4375 320.9989,136.4219 Q320.3271,135.4063 320.3271,134.2031 L320.3271,133.1094 Q320.3271,131.8594 320.9208,130.7656 Q321.5302,129.6719 322.5771,129.0938 Q323.6396,128.5 324.8271,128.5 Q325.5458,128.5 326.1708,128.75 Q326.7958,129 327.3271,129.5 Z " fill="#000000"/><text fill="#000000" font-family="sans-serif" font-size="12" lengthAdjust="spacing" textLength="53" x="345.8271" y="137.9102">Company</text><line style="stroke:#A80036;stroke-width:1.5;" x1="282.0771" x2="430.0771" y1="149" y2="149"/><text fill="#000000" font-family="sans-serif" font-size="11" lengthAdjust="spacing" textLength="59" x="287.0771" y="164.4189">-designation</text><text fill="#000000" font-family="sans-serif" font-size="11" lengthAdjust="spacing" textLength="130" x="287.0771" y="178.2549">-classNameForBarcodeApi</text><text fill="#000000" font-family="sans-serif" font-size="11" lengthAdjust="spacing" textLength="138" x="287.0771" y="192.0908">-classNameForSortAlgorithm</text><text fill="#000000" font-family="sans-serif" font-size="11" lengthAdjust="spacing" textLength="115" x="287.0771" y="205.9268">-regressionModelCLass</text><text fill="#000000" font-family="sans-serif" font-size="11" lengthAdjust="spacing" textLength="60" x="287.0771" y="219.7627">-dateInterval</text><text fill="#000000" font-family="sans-serif" font-size="11" lengthAdjust="spacing" textLength="76" x="287.0771" y="233.5986">-historicalPoints</text><text fill="#000000" font-family="sans-serif" font-size="11" lengthAdjust="spacing" textLength="84" x="287.0771" y="247.4346">-confidenceLevel</text><text fill="#000000" font-family="sans-serif" font-size="11" lengthAdjust="spacing" textLength="88" x="287.0771" y="261.2705">-significanceLevel</text><!--MD5=[1b844c90688aafb95cd8c95626c3b83a]
class Timer--><rect codeLine="17" fill="#FEFECE" filter="url(#fivuythhca5x4)" height="32" id="Timer" style="stroke:#A80036;stroke-width:1.5;" width="64" x="324.0771" y="391.5"/><ellipse cx="339.0771" cy="407.5" fill="#ADD1B2" rx="11" ry="11" style="stroke:#A80036;stroke-width:1.0;"/><path d="M341.0771,404 Q341.2802,403.5 341.5146,403.25 Q341.7489,403 342.0146,403 Q342.4833,403 342.7802,403.2813 Q343.0771,403.5625 343.0771,404.2188 L343.0771,405.7813 Q343.0771,406.4375 342.7958,406.7188 Q342.5146,407 342.0771,407 Q341.6864,407 341.4364,406.8281 Q341.1864,406.6563 341.0771,406.2031 Q341.0302,405.8906 340.8583,405.7188 Q340.5458,405.3906 339.9833,405.2031 Q339.4208,405 338.8583,405 Q338.1552,405 337.5614,405.2813 Q336.9833,405.5625 336.5302,406.1875 Q336.0771,406.8125 336.0771,407.6719 L336.0771,408.5938 Q336.0771,409.625 336.9208,410.3125 Q337.7646,411 339.2646,411 Q340.1552,411 340.7802,410.7969 Q341.1396,410.6875 341.5458,410.3281 Q341.8114,410.125 341.9521,410.0625 Q342.0927,410 342.2646,410 Q342.5927,410 342.8271,410.2656 Q343.0771,410.5156 343.0771,410.875 Q343.0771,411.2188 342.7333,411.625 Q342.2333,412.2188 341.4364,412.5469 Q340.3896,413 339.1083,413 Q337.6083,413 336.4052,412.4063 Q335.4364,411.9375 334.7489,410.9219 Q334.0771,409.9063 334.0771,408.7031 L334.0771,407.6094 Q334.0771,406.3594 334.6708,405.2656 Q335.2802,404.1719 336.3271,403.5938 Q337.3896,403 338.5771,403 Q339.2958,403 339.9208,403.25 Q340.5458,403.5 341.0771,404 Z " fill="#000000"/><text fill="#000000" font-family="sans-serif" font-size="12" lengthAdjust="spacing" textLength="32" x="353.0771" y="412.4102">Timer</text><!--MD5=[db86e106e83ea9efd94d1461be461932]
class NhsAPI--><rect codeLine="19" fill="#FEFECE" filter="url(#fivuythhca5x4)" height="32" id="NhsAPI" style="stroke:#A80036;stroke-width:1.5;" width="73" x="443.5771" y="606.5"/><ellipse cx="458.5771" cy="622.5" fill="#ADD1B2" rx="11" ry="11" style="stroke:#A80036;stroke-width:1.0;"/><path d="M460.5771,619 Q460.7802,618.5 461.0146,618.25 Q461.2489,618 461.5146,618 Q461.9833,618 462.2802,618.2813 Q462.5771,618.5625 462.5771,619.2188 L462.5771,620.7813 Q462.5771,621.4375 462.2958,621.7188 Q462.0146,622 461.5771,622 Q461.1864,622 460.9364,621.8281 Q460.6864,621.6563 460.5771,621.2031 Q460.5302,620.8906 460.3583,620.7188 Q460.0458,620.3906 459.4833,620.2031 Q458.9208,620 458.3583,620 Q457.6552,620 457.0614,620.2813 Q456.4833,620.5625 456.0302,621.1875 Q455.5771,621.8125 455.5771,622.6719 L455.5771,623.5938 Q455.5771,624.625 456.4208,625.3125 Q457.2646,626 458.7646,626 Q459.6552,626 460.2802,625.7969 Q460.6396,625.6875 461.0458,625.3281 Q461.3114,625.125 461.4521,625.0625 Q461.5927,625 461.7646,625 Q462.0927,625 462.3271,625.2656 Q462.5771,625.5156 462.5771,625.875 Q462.5771,626.2188 462.2333,626.625 Q461.7333,627.2188 460.9364,627.5469 Q459.8896,628 458.6083,628 Q457.1083,628 455.9052,627.4063 Q454.9364,626.9375 454.2489,625.9219 Q453.5771,624.9063 453.5771,623.7031 L453.5771,622.6094 Q453.5771,621.3594 454.1708,620.2656 Q454.7802,619.1719 455.8271,618.5938 Q456.8896,618 458.0771,618 Q458.7958,618 459.4208,618.25 Q460.0458,618.5 460.5771,619 Z " fill="#000000"/><text fill="#000000" font-family="sans-serif" font-size="12" lengthAdjust="spacing" textLength="41" x="472.5771" y="627.4102">NhsAPI</text><!--MD5=[74783ec010d186752c4ffd5c6de5633a]
class NHSReport--><rect codeLine="21" fill="#FEFECE" filter="url(#fivuythhca5x4)" height="32" id="NHSReport" style="stroke:#A80036;stroke-width:1.5;" width="95" x="255.5771" y="606.5"/><ellipse cx="270.5771" cy="622.5" fill="#ADD1B2" rx="11" ry="11" style="stroke:#A80036;stroke-width:1.0;"/><path d="M272.5771,619 Q272.7802,618.5 273.0146,618.25 Q273.2489,618 273.5146,618 Q273.9833,618 274.2802,618.2813 Q274.5771,618.5625 274.5771,619.2188 L274.5771,620.7813 Q274.5771,621.4375 274.2958,621.7188 Q274.0146,622 273.5771,622 Q273.1864,622 272.9364,621.8281 Q272.6864,621.6563 272.5771,621.2031 Q272.5302,620.8906 272.3583,620.7188 Q272.0458,620.3906 271.4833,620.2031 Q270.9208,620 270.3583,620 Q269.6552,620 269.0614,620.2813 Q268.4833,620.5625 268.0302,621.1875 Q267.5771,621.8125 267.5771,622.6719 L267.5771,623.5938 Q267.5771,624.625 268.4208,625.3125 Q269.2646,626 270.7646,626 Q271.6552,626 272.2802,625.7969 Q272.6396,625.6875 273.0458,625.3281 Q273.3114,625.125 273.4521,625.0625 Q273.5927,625 273.7646,625 Q274.0927,625 274.3271,625.2656 Q274.5771,625.5156 274.5771,625.875 Q274.5771,626.2188 274.2333,626.625 Q273.7333,627.2188 272.9364,627.5469 Q271.8896,628 270.6083,628 Q269.1083,628 267.9052,627.4063 Q266.9364,626.9375 266.2489,625.9219 Q265.5771,624.9063 265.5771,623.7031 L265.5771,622.6094 Q265.5771,621.3594 266.1708,620.2656 Q266.7802,619.1719 267.8271,618.5938 Q268.8896,618 270.0771,618 Q270.7958,618 271.4208,618.25 Q272.0458,618.5 272.5771,619 Z " fill="#000000"/><text fill="#000000" font-family="sans-serif" font-size="12" lengthAdjust="spacing" textLength="63" x="284.5771" y="627.4102">NHSReport</text><!--MD5=[f9bf174dd5fcee0192f6251129b9c376]
class RegressionModel--><rect codeLine="23" fill="#FEFECE" filter="url(#fivuythhca5x4)" height="136.8516" id="RegressionModel" style="stroke:#A80036;stroke-width:1.5;" width="130" x="320.0771" y="1275"/><ellipse cx="335.0771" cy="1291" fill="#ADD1B2" rx="11" ry="11" style="stroke:#A80036;stroke-width:1.0;"/><path d="M337.0771,1287.5 Q337.2802,1287 337.5146,1286.75 Q337.7489,1286.5 338.0146,1286.5 Q338.4833,1286.5 338.7802,1286.7813 Q339.0771,1287.0625 339.0771,1287.7188 L339.0771,1289.2813 Q339.0771,1289.9375 338.7958,1290.2188 Q338.5146,1290.5 338.0771,1290.5 Q337.6864,1290.5 337.4364,1290.3281 Q337.1864,1290.1563 337.0771,1289.7031 Q337.0302,1289.3906 336.8583,1289.2188 Q336.5458,1288.8906 335.9833,1288.7031 Q335.4208,1288.5 334.8583,1288.5 Q334.1552,1288.5 333.5614,1288.7813 Q332.9833,1289.0625 332.5302,1289.6875 Q332.0771,1290.3125 332.0771,1291.1719 L332.0771,1292.0938 Q332.0771,1293.125 332.9208,1293.8125 Q333.7646,1294.5 335.2646,1294.5 Q336.1552,1294.5 336.7802,1294.2969 Q337.1396,1294.1875 337.5458,1293.8281 Q337.8114,1293.625 337.9521,1293.5625 Q338.0927,1293.5 338.2646,1293.5 Q338.5927,1293.5 338.8271,1293.7656 Q339.0771,1294.0156 339.0771,1294.375 Q339.0771,1294.7188 338.7333,1295.125 Q338.2333,1295.7188 337.4364,1296.0469 Q336.3896,1296.5 335.1083,1296.5 Q333.6083,1296.5 332.4052,1295.9063 Q331.4364,1295.4375 330.7489,1294.4219 Q330.0771,1293.4063 330.0771,1292.2031 L330.0771,1291.1094 Q330.0771,1289.8594 330.6708,1288.7656 Q331.2802,1287.6719 332.3271,1287.0938 Q333.3896,1286.5 334.5771,1286.5 Q335.2958,1286.5 335.9208,1286.75 Q336.5458,1287 337.0771,1287.5 Z " fill="#000000"/><text fill="#000000" font-family="sans-serif" font-size="12" lengthAdjust="spacing" textLength="98" x="349.0771" y="1295.9102">RegressionModel</text><line style="stroke:#A80036;stroke-width:1.5;" x1="321.0771" x2="449.0771" y1="1307" y2="1307"/><text fill="#000000" font-family="sans-serif" font-size="11" lengthAdjust="spacing" textLength="46" x="326.0771" y="1322.4189">-intercept</text><text fill="#000000" font-family="sans-serif" font-size="11" lengthAdjust="spacing" textLength="30" x="326.0771" y="1336.2549">-slope</text><text fill="#000000" font-family="sans-serif" font-size="11" lengthAdjust="spacing" textLength="94" x="326.0771" y="1350.0908">-secondIndVariable</text><text fill="#000000" font-family="sans-serif" font-size="11" lengthAdjust="spacing" textLength="8" x="326.0771" y="1363.9268">-r</text><text fill="#000000" font-family="sans-serif" font-size="11" lengthAdjust="spacing" textLength="14" x="326.0771" y="1377.7627">-r2</text><text fill="#000000" font-family="sans-serif" font-size="11" lengthAdjust="spacing" textLength="57" x="326.0771" y="1391.5986">-r2Adjusted</text><text fill="#000000" font-family="sans-serif" font-size="11" lengthAdjust="spacing" textLength="117" x="326.0771" y="1405.4346">-numberOfObservations</text><!--MD5=[dfe7672a7c242e7ff03cfd775649b5cb]
class HypothesisTest--><rect codeLine="42" fill="#FEFECE" filter="url(#fivuythhca5x4)" height="164.5234" id="HypothesisTest" style="stroke:#A80036;stroke-width:1.5;" width="170" x="197.0771" y="1032"/><ellipse cx="235.4771" cy="1048" fill="#ADD1B2" rx="11" ry="11" style="stroke:#A80036;stroke-width:1.0;"/><path d="M237.4771,1044.5 Q237.6802,1044 237.9146,1043.75 Q238.1489,1043.5 238.4146,1043.5 Q238.8833,1043.5 239.1802,1043.7813 Q239.4771,1044.0625 239.4771,1044.7188 L239.4771,1046.2813 Q239.4771,1046.9375 239.1958,1047.2188 Q238.9146,1047.5 238.4771,1047.5 Q238.0864,1047.5 237.8364,1047.3281 Q237.5864,1047.1563 237.4771,1046.7031 Q237.4302,1046.3906 237.2583,1046.2188 Q236.9458,1045.8906 236.3833,1045.7031 Q235.8208,1045.5 235.2583,1045.5 Q234.5552,1045.5 233.9614,1045.7813 Q233.3833,1046.0625 232.9302,1046.6875 Q232.4771,1047.3125 232.4771,1048.1719 L232.4771,1049.0938 Q232.4771,1050.125 233.3208,1050.8125 Q234.1646,1051.5 235.6646,1051.5 Q236.5552,1051.5 237.1802,1051.2969 Q237.5396,1051.1875 237.9458,1050.8281 Q238.2114,1050.625 238.3521,1050.5625 Q238.4927,1050.5 238.6646,1050.5 Q238.9927,1050.5 239.2271,1050.7656 Q239.4771,1051.0156 239.4771,1051.375 Q239.4771,1051.7188 239.1333,1052.125 Q238.6333,1052.7188 237.8364,1053.0469 Q236.7896,1053.5 235.5083,1053.5 Q234.0083,1053.5 232.8052,1052.9063 Q231.8364,1052.4375 231.1489,1051.4219 Q230.4771,1050.4063 230.4771,1049.2031 L230.4771,1048.1094 Q230.4771,1046.8594 231.0708,1045.7656 Q231.6802,1044.6719 232.7271,1044.0938 Q233.7896,1043.5 234.9771,1043.5 Q235.6958,1043.5 236.3208,1043.75 Q236.9458,1044 237.4771,1044.5 Z " fill="#000000"/><text fill="#000000" font-family="sans-serif" font-size="12" lengthAdjust="spacing" textLength="86" x="254.6771" y="1052.9102">HypothesisTest</text><line style="stroke:#A80036;stroke-width:1.5;" x1="198.0771" x2="366.0771" y1="1064" y2="1064"/><text fill="#000000" font-family="sans-serif" font-size="11" lengthAdjust="spacing" textLength="35" x="203.0771" y="1079.4189">-tObsA</text><text fill="#000000" font-family="sans-serif" font-size="11" lengthAdjust="spacing" textLength="34" x="203.0771" y="1093.2549">-tObsB</text><text fill="#000000" font-family="sans-serif" font-size="11" lengthAdjust="spacing" textLength="34" x="203.0771" y="1107.0908">-tObsC</text><text fill="#000000" font-family="sans-serif" font-size="11" lengthAdjust="spacing" textLength="88" x="203.0771" y="1120.9268">-significanceLevel</text><text fill="#000000" font-family="sans-serif" font-size="11" lengthAdjust="spacing" textLength="32" x="203.0771" y="1134.7627">-critTD</text><text fill="#000000" font-family="sans-serif" font-size="11" lengthAdjust="spacing" textLength="8" x="203.0771" y="1148.5986">-f</text><text fill="#000000" font-family="sans-serif" font-size="11" lengthAdjust="spacing" textLength="32" x="203.0771" y="1162.4346">-critFD</text><text fill="#000000" font-family="sans-serif" font-size="11" lengthAdjust="spacing" textLength="148" x="203.0771" y="1176.2705">-numeratorDegreesOfFreedom</text><text fill="#000000" font-family="sans-serif" font-size="11" lengthAdjust="spacing" textLength="158" x="203.0771" y="1190.1064">-denominatorDegreesOfFreedom</text><!--MD5=[39ee656b41ae4892150ca74368648c0e]
class SignificanceModelAnova--><rect codeLine="55" fill="#FEFECE" filter="url(#fivuythhca5x4)" height="178.3594" id="SignificanceModelAnova" style="stroke:#A80036;stroke-width:1.5;" width="165" x="67.5771" y="776"/><ellipse cx="82.5771" cy="792" fill="#ADD1B2" rx="11" ry="11" style="stroke:#A80036;stroke-width:1.0;"/><path d="M84.5771,788.5 Q84.7802,788 85.0146,787.75 Q85.2489,787.5 85.5146,787.5 Q85.9833,787.5 86.2802,787.7813 Q86.5771,788.0625 86.5771,788.7188 L86.5771,790.2813 Q86.5771,790.9375 86.2958,791.2188 Q86.0146,791.5 85.5771,791.5 Q85.1864,791.5 84.9364,791.3281 Q84.6864,791.1563 84.5771,790.7031 Q84.5302,790.3906 84.3583,790.2188 Q84.0458,789.8906 83.4833,789.7031 Q82.9208,789.5 82.3583,789.5 Q81.6552,789.5 81.0614,789.7813 Q80.4833,790.0625 80.0302,790.6875 Q79.5771,791.3125 79.5771,792.1719 L79.5771,793.0938 Q79.5771,794.125 80.4208,794.8125 Q81.2646,795.5 82.7646,795.5 Q83.6552,795.5 84.2802,795.2969 Q84.6396,795.1875 85.0458,794.8281 Q85.3114,794.625 85.4521,794.5625 Q85.5927,794.5 85.7646,794.5 Q86.0927,794.5 86.3271,794.7656 Q86.5771,795.0156 86.5771,795.375 Q86.5771,795.7188 86.2333,796.125 Q85.7333,796.7188 84.9364,797.0469 Q83.8896,797.5 82.6083,797.5 Q81.1083,797.5 79.9052,796.9063 Q78.9364,796.4375 78.2489,795.4219 Q77.5771,794.4063 77.5771,793.2031 L77.5771,792.1094 Q77.5771,790.8594 78.1708,789.7656 Q78.7802,788.6719 79.8271,788.0938 Q80.8896,787.5 82.0771,787.5 Q82.7958,787.5 83.4208,787.75 Q84.0458,788 84.5771,788.5 Z " fill="#000000"/><text fill="#000000" font-family="sans-serif" font-size="12" lengthAdjust="spacing" textLength="133" x="96.5771" y="796.9102">SignificanceModelAnova</text><line style="stroke:#A80036;stroke-width:1.5;" x1="68.5771" x2="231.5771" y1="808" y2="808"/><text fill="#000000" font-family="sans-serif" font-size="11" lengthAdjust="spacing" textLength="88" x="73.5771" y="823.4189">-significanceLevel</text><text fill="#000000" font-family="sans-serif" font-size="11" lengthAdjust="spacing" textLength="14" x="73.5771" y="837.2549">-sr</text><text fill="#000000" font-family="sans-serif" font-size="11" lengthAdjust="spacing" textLength="16" x="73.5771" y="851.0908">-se</text><text fill="#000000" font-family="sans-serif" font-size="11" lengthAdjust="spacing" textLength="13" x="73.5771" y="864.9268">-st</text><text fill="#000000" font-family="sans-serif" font-size="11" lengthAdjust="spacing" textLength="16" x="73.5771" y="878.7627">-mr</text><text fill="#000000" font-family="sans-serif" font-size="11" lengthAdjust="spacing" textLength="18" x="73.5771" y="892.5986">-me</text><text fill="#000000" font-family="sans-serif" font-size="11" lengthAdjust="spacing" textLength="8" x="73.5771" y="906.4346">-f</text><text fill="#000000" font-family="sans-serif" font-size="11" lengthAdjust="spacing" textLength="75" x="73.5771" y="920.2705">-degFreedomSr</text><text fill="#000000" font-family="sans-serif" font-size="11" lengthAdjust="spacing" textLength="77" x="73.5771" y="934.1064">-degFreedomSe</text><text fill="#000000" font-family="sans-serif" font-size="11" lengthAdjust="spacing" textLength="74" x="73.5771" y="947.9424">-degFreedomSt</text><!--MD5=[2326f07dd74de3a812ad289cd3fa63bf]
class TableOfValues--><rect codeLine="68" fill="#FEFECE" filter="url(#fivuythhca5x4)" height="81.5078" id="TableOfValues" style="stroke:#A80036;stroke-width:1.5;" width="113" x="473.5771" y="824"/><ellipse cx="488.5771" cy="840" fill="#ADD1B2" rx="11" ry="11" style="stroke:#A80036;stroke-width:1.0;"/><path d="M490.5771,836.5 Q490.7802,836 491.0146,835.75 Q491.2489,835.5 491.5146,835.5 Q491.9833,835.5 492.2802,835.7813 Q492.5771,836.0625 492.5771,836.7188 L492.5771,838.2813 Q492.5771,838.9375 492.2958,839.2188 Q492.0146,839.5 491.5771,839.5 Q491.1864,839.5 490.9364,839.3281 Q490.6864,839.1563 490.5771,838.7031 Q490.5302,838.3906 490.3583,838.2188 Q490.0458,837.8906 489.4833,837.7031 Q488.9208,837.5 488.3583,837.5 Q487.6552,837.5 487.0614,837.7813 Q486.4833,838.0625 486.0302,838.6875 Q485.5771,839.3125 485.5771,840.1719 L485.5771,841.0938 Q485.5771,842.125 486.4208,842.8125 Q487.2646,843.5 488.7646,843.5 Q489.6552,843.5 490.2802,843.2969 Q490.6396,843.1875 491.0458,842.8281 Q491.3114,842.625 491.4521,842.5625 Q491.5927,842.5 491.7646,842.5 Q492.0927,842.5 492.3271,842.7656 Q492.5771,843.0156 492.5771,843.375 Q492.5771,843.7188 492.2333,844.125 Q491.7333,844.7188 490.9364,845.0469 Q489.8896,845.5 488.6083,845.5 Q487.1083,845.5 485.9052,844.9063 Q484.9364,844.4375 484.2489,843.4219 Q483.5771,842.4063 483.5771,841.2031 L483.5771,840.1094 Q483.5771,838.8594 484.1708,837.7656 Q484.7802,836.6719 485.8271,836.0938 Q486.8896,835.5 488.0771,835.5 Q488.7958,835.5 489.4208,835.75 Q490.0458,836 490.5771,836.5 Z " fill="#000000"/><text fill="#000000" font-family="sans-serif" font-size="12" lengthAdjust="spacing" textLength="81" x="502.5771" y="844.9102">TableOfValues</text><line style="stroke:#A80036;stroke-width:1.5;" x1="474.5771" x2="585.5771" y1="856" y2="856"/><text fill="#000000" font-family="sans-serif" font-size="11" lengthAdjust="spacing" textLength="31" x="479.5771" y="871.4189">-dates</text><text fill="#000000" font-family="sans-serif" font-size="11" lengthAdjust="spacing" textLength="93" x="479.5771" y="885.2549">-observedPositives</text><text fill="#000000" font-family="sans-serif" font-size="11" lengthAdjust="spacing" textLength="93" x="479.5771" y="899.0908">-estimatedPositives</text><!--MD5=[fe0bb2d390fc5dca74774fa5d2975c11]
class ConfidenceInterval--><rect codeLine="74" fill="#FEFECE" filter="url(#fivuythhca5x4)" height="123.0156" id="ConfidenceInterval" style="stroke:#A80036;stroke-width:1.5;" width="134" x="568.0771" y="1053"/><ellipse cx="583.0771" cy="1069" fill="#ADD1B2" rx="11" ry="11" style="stroke:#A80036;stroke-width:1.0;"/><path d="M585.0771,1065.5 Q585.2802,1065 585.5146,1064.75 Q585.7489,1064.5 586.0146,1064.5 Q586.4833,1064.5 586.7802,1064.7813 Q587.0771,1065.0625 587.0771,1065.7188 L587.0771,1067.2813 Q587.0771,1067.9375 586.7958,1068.2188 Q586.5146,1068.5 586.0771,1068.5 Q585.6864,1068.5 585.4364,1068.3281 Q585.1864,1068.1563 585.0771,1067.7031 Q585.0302,1067.3906 584.8583,1067.2188 Q584.5458,1066.8906 583.9833,1066.7031 Q583.4208,1066.5 582.8583,1066.5 Q582.1552,1066.5 581.5614,1066.7813 Q580.9833,1067.0625 580.5302,1067.6875 Q580.0771,1068.3125 580.0771,1069.1719 L580.0771,1070.0938 Q580.0771,1071.125 580.9208,1071.8125 Q581.7646,1072.5 583.2646,1072.5 Q584.1552,1072.5 584.7802,1072.2969 Q585.1396,1072.1875 585.5458,1071.8281 Q585.8114,1071.625 585.9521,1071.5625 Q586.0927,1071.5 586.2646,1071.5 Q586.5927,1071.5 586.8271,1071.7656 Q587.0771,1072.0156 587.0771,1072.375 Q587.0771,1072.7188 586.7333,1073.125 Q586.2333,1073.7188 585.4364,1074.0469 Q584.3896,1074.5 583.1083,1074.5 Q581.6083,1074.5 580.4052,1073.9063 Q579.4364,1073.4375 578.7489,1072.4219 Q578.0771,1071.4063 578.0771,1070.2031 L578.0771,1069.1094 Q578.0771,1067.8594 578.6708,1066.7656 Q579.2802,1065.6719 580.3271,1065.0938 Q581.3896,1064.5 582.5771,1064.5 Q583.2958,1064.5 583.9208,1064.75 Q584.5458,1065 585.0771,1065.5 Z " fill="#000000"/><text fill="#000000" font-family="sans-serif" font-size="12" lengthAdjust="spacing" textLength="102" x="597.0771" y="1073.9102">ConfidenceInterval</text><line style="stroke:#A80036;stroke-width:1.5;" x1="569.0771" x2="701.0771" y1="1085" y2="1085"/><text fill="#000000" font-family="sans-serif" font-size="11" lengthAdjust="spacing" textLength="16" x="574.0771" y="1100.4189">-y0</text><text fill="#000000" font-family="sans-serif" font-size="11" lengthAdjust="spacing" textLength="46" x="574.0771" y="1114.2549">-auxDelta</text><text fill="#000000" font-family="sans-serif" font-size="11" lengthAdjust="spacing" textLength="84" x="574.0771" y="1128.0908">-confidenceLevel</text><text fill="#000000" font-family="sans-serif" font-size="11" lengthAdjust="spacing" textLength="27" x="574.0771" y="1141.9268">-delta</text><text fill="#000000" font-family="sans-serif" font-size="11" lengthAdjust="spacing" textLength="28" x="574.0771" y="1155.7627">-limInf</text><text fill="#000000" font-family="sans-serif" font-size="11" lengthAdjust="spacing" textLength="35" x="574.0771" y="1169.5986">-limSup</text><!--MD5=[df38be88ccee13e832d6fafd6288a4ca]
class Test--><rect codeLine="83" fill="#FEFECE" filter="url(#fivuythhca5x4)" height="123.0156" id="Test" style="stroke:#A80036;stroke-width:1.5;" width="136" x="586.0771" y="346"/><ellipse cx="637.8271" cy="362" fill="#ADD1B2" rx="11" ry="11" style="stroke:#A80036;stroke-width:1.0;"/><path d="M639.8271,358.5 Q640.0302,358 640.2646,357.75 Q640.4989,357.5 640.7646,357.5 Q641.2333,357.5 641.5302,357.7813 Q641.8271,358.0625 641.8271,358.7188 L641.8271,360.2813 Q641.8271,360.9375 641.5458,361.2188 Q641.2646,361.5 640.8271,361.5 Q640.4364,361.5 640.1864,361.3281 Q639.9364,361.1563 639.8271,360.7031 Q639.7802,360.3906 639.6083,360.2188 Q639.2958,359.8906 638.7333,359.7031 Q638.1708,359.5 637.6083,359.5 Q636.9052,359.5 636.3114,359.7813 Q635.7333,360.0625 635.2802,360.6875 Q634.8271,361.3125 634.8271,362.1719 L634.8271,363.0938 Q634.8271,364.125 635.6708,364.8125 Q636.5146,365.5 638.0146,365.5 Q638.9052,365.5 639.5302,365.2969 Q639.8896,365.1875 640.2958,364.8281 Q640.5614,364.625 640.7021,364.5625 Q640.8427,364.5 641.0146,364.5 Q641.3427,364.5 641.5771,364.7656 Q641.8271,365.0156 641.8271,365.375 Q641.8271,365.7188 641.4833,366.125 Q640.9833,366.7188 640.1864,367.0469 Q639.1396,367.5 637.8583,367.5 Q636.3583,367.5 635.1552,366.9063 Q634.1864,366.4375 633.4989,365.4219 Q632.8271,364.4063 632.8271,363.2031 L632.8271,362.1094 Q632.8271,360.8594 633.4208,359.7656 Q634.0302,358.6719 635.0771,358.0938 Q636.1396,357.5 637.3271,357.5 Q638.0458,357.5 638.6708,357.75 Q639.2958,358 639.8271,358.5 Z " fill="#000000"/><text fill="#000000" font-family="sans-serif" font-size="12" lengthAdjust="spacing" textLength="24" x="658.3271" y="366.9102">Test</text><line style="stroke:#A80036;stroke-width:1.5;" x1="587.0771" x2="721.0771" y1="378" y2="378"/><text fill="#000000" font-family="sans-serif" font-size="11" lengthAdjust="spacing" textLength="28" x="592.0771" y="393.4189">-code</text><text fill="#000000" font-family="sans-serif" font-size="11" lengthAdjust="spacing" textLength="47" x="592.0771" y="407.2549">-nhsCode</text><text fill="#000000" font-family="sans-serif" font-size="11" lengthAdjust="spacing" textLength="115" x="592.0771" y="421.0908">-dateOfTestRegistration</text><text fill="#000000" font-family="sans-serif" font-size="11" lengthAdjust="spacing" textLength="124" x="592.0771" y="434.9268">-dateOfSamplesCollection</text><text fill="#000000" font-family="sans-serif" font-size="11" lengthAdjust="spacing" textLength="122" x="592.0771" y="448.7627">-dateOfChemicalAnalysis</text><text fill="#000000" font-family="sans-serif" font-size="11" lengthAdjust="spacing" textLength="84" x="592.0771" y="462.5986">-dateOfDiagnosis</text><!--MD5=[ed6624c6556d5e7b1bd23032162d20b7]
class Client--><rect codeLine="92" fill="#FEFECE" filter="url(#fivuythhca5x4)" height="150.6875" id="Client" style="stroke:#A80036;stroke-width:1.5;" width="91" x="608.5771" y="547"/><ellipse cx="635.7271" cy="563" fill="#ADD1B2" rx="11" ry="11" style="stroke:#A80036;stroke-width:1.0;"/><path d="M637.7271,559.5 Q637.9302,559 638.1646,558.75 Q638.3989,558.5 638.6646,558.5 Q639.1333,558.5 639.4302,558.7813 Q639.7271,559.0625 639.7271,559.7188 L639.7271,561.2813 Q639.7271,561.9375 639.4458,562.2188 Q639.1646,562.5 638.7271,562.5 Q638.3364,562.5 638.0864,562.3281 Q637.8364,562.1563 637.7271,561.7031 Q637.6802,561.3906 637.5083,561.2188 Q637.1958,560.8906 636.6333,560.7031 Q636.0708,560.5 635.5083,560.5 Q634.8052,560.5 634.2114,560.7813 Q633.6333,561.0625 633.1802,561.6875 Q632.7271,562.3125 632.7271,563.1719 L632.7271,564.0938 Q632.7271,565.125 633.5708,565.8125 Q634.4146,566.5 635.9146,566.5 Q636.8052,566.5 637.4302,566.2969 Q637.7896,566.1875 638.1958,565.8281 Q638.4614,565.625 638.6021,565.5625 Q638.7427,565.5 638.9146,565.5 Q639.2427,565.5 639.4771,565.7656 Q639.7271,566.0156 639.7271,566.375 Q639.7271,566.7188 639.3833,567.125 Q638.8833,567.7188 638.0864,568.0469 Q637.0396,568.5 635.7583,568.5 Q634.2583,568.5 633.0552,567.9063 Q632.0864,567.4375 631.3989,566.4219 Q630.7271,565.4063 630.7271,564.2031 L630.7271,563.1094 Q630.7271,561.8594 631.3208,560.7656 Q631.9302,559.6719 632.9771,559.0938 Q634.0396,558.5 635.2271,558.5 Q635.9458,558.5 636.5708,558.75 Q637.1958,559 637.7271,559.5 Z " fill="#000000"/><text fill="#000000" font-family="sans-serif" font-size="12" lengthAdjust="spacing" textLength="32" x="652.4271" y="567.9102">Client</text><line style="stroke:#A80036;stroke-width:1.5;" x1="609.5771" x2="698.5771" y1="579" y2="579"/><text fill="#000000" font-family="sans-serif" font-size="11" lengthAdjust="spacing" textLength="30" x="614.5771" y="594.4189">-name</text><text fill="#000000" font-family="sans-serif" font-size="11" lengthAdjust="spacing" textLength="79" x="614.5771" y="608.2549">-citizenCardNum</text><text fill="#000000" font-family="sans-serif" font-size="11" lengthAdjust="spacing" textLength="43" x="614.5771" y="622.0908">-nhsNum</text><text fill="#000000" font-family="sans-serif" font-size="11" lengthAdjust="spacing" textLength="47" x="614.5771" y="635.9268">-birthDate</text><text fill="#000000" font-family="sans-serif" font-size="11" lengthAdjust="spacing" textLength="22" x="614.5771" y="649.7627">-sex</text><text fill="#000000" font-family="sans-serif" font-size="11" lengthAdjust="spacing" textLength="48" x="614.5771" y="663.5986">-taxIdNum</text><text fill="#000000" font-family="sans-serif" font-size="11" lengthAdjust="spacing" textLength="55" x="614.5771" y="677.4346">-phoneNum</text><text fill="#000000" font-family="sans-serif" font-size="11" lengthAdjust="spacing" textLength="28" x="614.5771" y="691.2705">-email</text><!--MD5=[ae5ae3d8ba74ff2b11824aab5560c281]
class MathCalculus--><rect codeLine="103" fill="#FEFECE" filter="url(#fivuythhca5x4)" height="32" id="MathCalculus" style="stroke:#A80036;stroke-width:1.5;" width="107" x="331.5771" y="1490"/><ellipse cx="346.5771" cy="1506" fill="#ADD1B2" rx="11" ry="11" style="stroke:#A80036;stroke-width:1.0;"/><path d="M348.5771,1502.5 Q348.7802,1502 349.0146,1501.75 Q349.2489,1501.5 349.5146,1501.5 Q349.9833,1501.5 350.2802,1501.7813 Q350.5771,1502.0625 350.5771,1502.7188 L350.5771,1504.2813 Q350.5771,1504.9375 350.2958,1505.2188 Q350.0146,1505.5 349.5771,1505.5 Q349.1864,1505.5 348.9364,1505.3281 Q348.6864,1505.1563 348.5771,1504.7031 Q348.5302,1504.3906 348.3583,1504.2188 Q348.0458,1503.8906 347.4833,1503.7031 Q346.9208,1503.5 346.3583,1503.5 Q345.6552,1503.5 345.0614,1503.7813 Q344.4833,1504.0625 344.0302,1504.6875 Q343.5771,1505.3125 343.5771,1506.1719 L343.5771,1507.0938 Q343.5771,1508.125 344.4208,1508.8125 Q345.2646,1509.5 346.7646,1509.5 Q347.6552,1509.5 348.2802,1509.2969 Q348.6396,1509.1875 349.0458,1508.8281 Q349.3114,1508.625 349.4521,1508.5625 Q349.5927,1508.5 349.7646,1508.5 Q350.0927,1508.5 350.3271,1508.7656 Q350.5771,1509.0156 350.5771,1509.375 Q350.5771,1509.7188 350.2333,1510.125 Q349.7333,1510.7188 348.9364,1511.0469 Q347.8896,1511.5 346.6083,1511.5 Q345.1083,1511.5 343.9052,1510.9063 Q342.9364,1510.4375 342.2489,1509.4219 Q341.5771,1508.4063 341.5771,1507.2031 L341.5771,1506.1094 Q341.5771,1504.8594 342.1708,1503.7656 Q342.7802,1502.6719 343.8271,1502.0938 Q344.8896,1501.5 346.0771,1501.5 Q346.7958,1501.5 347.4208,1501.75 Q348.0458,1502 348.5771,1502.5 Z " fill="#000000"/><text fill="#000000" font-family="sans-serif" font-size="12" lengthAdjust="spacing" textLength="75" x="360.5771" y="1510.9102">MathCalculus</text><!--MD5=[335f4d9be48430461c68bf6d6fdba145]
class App--><rect fill="#FEFECE" filter="url(#fivuythhca5x4)" height="32" id="App" style="stroke:#A80036;stroke-width:1.5;" width="53" x="329.5771" y="7"/><ellipse cx="344.5771" cy="23" fill="#ADD1B2" rx="11" ry="11" style="stroke:#A80036;stroke-width:1.0;"/><path d="M346.5771,19.5 Q346.7802,19 347.0146,18.75 Q347.2489,18.5 347.5146,18.5 Q347.9833,18.5 348.2802,18.7813 Q348.5771,19.0625 348.5771,19.7188 L348.5771,21.2813 Q348.5771,21.9375 348.2958,22.2188 Q348.0146,22.5 347.5771,22.5 Q347.1864,22.5 346.9364,22.3281 Q346.6864,22.1563 346.5771,21.7031 Q346.5302,21.3906 346.3583,21.2188 Q346.0458,20.8906 345.4833,20.7031 Q344.9208,20.5 344.3583,20.5 Q343.6552,20.5 343.0614,20.7813 Q342.4833,21.0625 342.0302,21.6875 Q341.5771,22.3125 341.5771,23.1719 L341.5771,24.0938 Q341.5771,25.125 342.4208,25.8125 Q343.2646,26.5 344.7646,26.5 Q345.6552,26.5 346.2802,26.2969 Q346.6396,26.1875 347.0458,25.8281 Q347.3114,25.625 347.4521,25.5625 Q347.5927,25.5 347.7646,25.5 Q348.0927,25.5 348.3271,25.7656 Q348.5771,26.0156 348.5771,26.375 Q348.5771,26.7188 348.2333,27.125 Q347.7333,27.7188 346.9364,28.0469 Q345.8896,28.5 344.6083,28.5 Q343.1083,28.5 341.9052,27.9063 Q340.9364,27.4375 340.2489,26.4219 Q339.5771,25.4063 339.5771,24.2031 L339.5771,23.1094 Q339.5771,21.8594 340.1708,20.7656 Q340.7802,19.6719 341.8271,19.0938 Q342.8896,18.5 344.0771,18.5 Q344.7958,18.5 345.4208,18.75 Q346.0458,19 346.5771,19.5 Z " fill="#000000"/><text fill="#000000" font-family="sans-serif" font-size="12" lengthAdjust="spacing" textLength="21" x="358.5771" y="27.9102">App</text><!--MD5=[5b0f1873c15ced29becf7ded48d12cb7]
link App to Company--><path codeLine="113" d="M356.0771,39.16 C356.0771,56.88 356.0771,87.49 356.0771,116.66 " fill="none" id="App-Company" style="stroke:#A80036;stroke-width:1.0;"/><polygon fill="#000000" points="361.0771,83.1758,364.016,74.1307,358.1381,74.1307,361.0771,83.1758" style="stroke:#000000;stroke-width:1.0;"/><text fill="#000000" font-family="sans-serif" font-size="13" lengthAdjust="spacing" textLength="37" x="370.0771" y="83.4951">knows</text><text fill="#000000" font-family="sans-serif" font-size="13" lengthAdjust="spacing" textLength="7" x="347.9614" y="60.4121">1</text><text fill="#000000" font-family="sans-serif" font-size="13" lengthAdjust="spacing" textLength="7" x="348.7435" y="106.1958">1</text><!--MD5=[58ba2803d73c4fba726c522ad9701418]
link Timer to NHSReport--><path codeLine="114" d="M352.2671,423.82 C342.4871,463.12 316.5971,567.17 306.8571,606.32 " fill="none" id="Timer-NHSReport" style="stroke:#A80036;stroke-width:1.0;"/><polygon fill="#000000" points="336.8698,513.0278,341.9058,504.96,336.2018,503.5408,336.8698,513.0278" style="stroke:#000000;stroke-width:1.0;"/><text fill="#000000" font-family="sans-serif" font-size="13" lengthAdjust="spacing" textLength="59" x="347.0771" y="513.4951">schedules</text><text fill="#000000" font-family="sans-serif" font-size="13" lengthAdjust="spacing" textLength="7" x="342.937" y="445.1231">1</text><text fill="#000000" font-family="sans-serif" font-size="13" lengthAdjust="spacing" textLength="5" x="302.2971" y="595.5637">*</text><!--MD5=[1a29efac474ed00332939ff55dd5f4e3]
link Company to NHSReport--><path codeLine="116" d="M291.4471,268.25 C275.0271,291.63 259.6171,318.53 251.0771,346 C221.0171,442.68 274.1271,564.13 295.1071,606.27 " fill="none" id="Company-NHSReport" style="stroke:#A80036;stroke-width:1.0;"/><polygon fill="#000000" points="256.1312,412.6755,258.972,403.5991,253.0945,403.6628,256.1312,412.6755" style="stroke:#000000;stroke-width:1.0;"/><text fill="#000000" font-family="sans-serif" font-size="13" lengthAdjust="spacing" textLength="40" x="265.0771" y="412.9951">reports</text><text fill="#000000" font-family="sans-serif" font-size="13" lengthAdjust="spacing" textLength="7" x="278.3792" y="289.2337">1</text><text fill="#000000" font-family="sans-serif" font-size="13" lengthAdjust="spacing" textLength="20" x="268.9299" y="595.4965">1..*</text><!--MD5=[01558f40b86ad3407c4a50a817100da8]
link Company to Timer--><path codeLine="117" d="M356.0771,268.3 C356.0771,312.89 356.0771,365.64 356.0771,391.15 " fill="none" id="Company-Timer" style="stroke:#A80036;stroke-width:1.0;"/><polygon fill="#000000" points="361.0771,312.1758,364.016,303.1307,358.1381,303.1307,361.0771,312.1758" style="stroke:#000000;stroke-width:1.0;"/><text fill="#000000" font-family="sans-serif" font-size="13" lengthAdjust="spacing" textLength="37" x="370.0771" y="312.4951">knows</text><text fill="#000000" font-family="sans-serif" font-size="13" lengthAdjust="spacing" textLength="7" x="348.7653" y="289.2881">1</text><text fill="#000000" font-family="sans-serif" font-size="13" lengthAdjust="spacing" textLength="7" x="347.9177" y="380.6374">1</text><!--MD5=[cdd11370488bf2667b85afc1097a0f02]
link Company to NhsAPI--><path codeLine="120" d="M402.8371,268.28 C407.7971,278.05 412.3771,288.11 416.0771,298 C458.6371,411.67 474.5971,558.93 478.8271,606.19 " fill="none" id="Company-NhsAPI" style="stroke:#A80036;stroke-width:1.0;"/><polygon fill="#000000" points="466.1741,412.554,467.0569,403.0844,461.3222,404.3741,466.1741,412.554" style="stroke:#000000;stroke-width:1.0;"/><text fill="#000000" font-family="sans-serif" font-size="13" lengthAdjust="spacing" textLength="78" x="474.0771" y="412.9951">makes use of</text><text fill="#000000" font-family="sans-serif" font-size="13" lengthAdjust="spacing" textLength="5" x="401.779" y="289.2663">*</text><text fill="#000000" font-family="sans-serif" font-size="13" lengthAdjust="spacing" textLength="7" x="470.2536" y="595.6907">1</text><!--MD5=[e0d1e07505e582841357f2ac6b32b3f0]
link NHSReport to NhsAPI--><path codeLine="122" d="M350.9771,622.5 C380.0571,622.5 416.5971,622.5 443.3771,622.5 " fill="none" id="NHSReport-NhsAPI" style="stroke:#A80036;stroke-width:1.0;"/><polygon fill="#000000" points="378.0771,610.6758,369.032,607.7369,369.032,613.6147,378.0771,610.6758" style="stroke:#000000;stroke-width:1.0;"/><text fill="#000000" font-family="sans-serif" font-size="13" lengthAdjust="spacing" textLength="43" x="382.0771" y="615.9951">sent by</text><text fill="#000000" font-family="sans-serif" font-size="13" lengthAdjust="spacing" textLength="5" x="358.6946" y="618.797">*</text><text fill="#000000" font-family="sans-serif" font-size="13" lengthAdjust="spacing" textLength="7" x="428.4627" y="618.4547">1</text><!--MD5=[1e1bea86187fd5c0a36de60e63fbe61a]
link NHSReport to RegressionModel--><path codeLine="123" d="M311.9171,638.89 C326.8171,665.72 356.5271,723.24 369.0771,776 C410.9071,951.89 400.9271,1167.14 391.9671,1274.63 " fill="none" id="NHSReport-RegressionModel" style="stroke:#A80036;stroke-width:1.0;"/><polygon fill="#000000" points="403.7017,998.1366,405.4876,988.7952,399.6558,989.5295,403.7017,998.1366" style="stroke:#000000;stroke-width:1.0;"/><text fill="#000000" font-family="sans-serif" font-size="13" lengthAdjust="spacing" textLength="21" x="412.0771" y="998.4951">has</text><text fill="#000000" font-family="sans-serif" font-size="13" lengthAdjust="spacing" textLength="5" x="308.8587" y="659.9084">*</text><text fill="#000000" font-family="sans-serif" font-size="13" lengthAdjust="spacing" textLength="7" x="385.3167" y="1264.2237">1</text><!--MD5=[8b5211240efe264c13d5ef595a4d03bb]
link NHSReport to HypothesisTest--><path codeLine="124" d="M302.4271,638.7 C299.9071,697.42 290.7071,912.08 285.5871,1031.66 " fill="none" id="NHSReport-HypothesisTest" style="stroke:#A80036;stroke-width:1.0;"/><polygon fill="#000000" points="301.863,870.1712,305.1865,861.2602,299.314,861.0086,301.863,870.1712" style="stroke:#000000;stroke-width:1.0;"/><text fill="#000000" font-family="sans-serif" font-size="13" lengthAdjust="spacing" textLength="49" x="311.0771" y="870.4951">contains</text><text fill="#000000" font-family="sans-serif" font-size="13" lengthAdjust="spacing" textLength="7" x="294.1043" y="659.9649">1</text><text fill="#000000" font-family="sans-serif" font-size="13" lengthAdjust="spacing" textLength="7" x="278.588" y="1021.1016">1</text><!--MD5=[547d65f66fccba149814dbcd0a782d42]
link NHSReport to SignificanceModelAnova--><path codeLine="125" d="M287.5671,638.69 C268.3471,658.11 235.3871,693.38 213.0771,728 C203.4971,742.87 194.5571,759.44 186.5971,775.75 " fill="none" id="NHSReport-SignificanceModelAnova" style="stroke:#A80036;stroke-width:1.0;"/><polygon fill="#000000" points="215.1115,741.2014,222.8424,735.6621,218.1101,732.1759,215.1115,741.2014" style="stroke:#000000;stroke-width:1.0;"/><text fill="#000000" font-family="sans-serif" font-size="13" lengthAdjust="spacing" textLength="49" x="227.0771" y="742.4951">contains</text><text fill="#000000" font-family="sans-serif" font-size="13" lengthAdjust="spacing" textLength="7" x="274.5076" y="659.9517">1</text><text fill="#000000" font-family="sans-serif" font-size="13" lengthAdjust="spacing" textLength="7" x="182.3315" y="765.1913">1</text><!--MD5=[306e6753dd5938314f2cd068130fe945]
link Company to RegressionModel--><path codeLine="126" d="M281.0271,205.91 C180.3471,227.35 14.0771,281.64 14.0771,406.5 C14.0771,406.5 14.0771,406.5 14.0771,1115.5 C14.0771,1257.27 213.6271,1313.19 320.0271,1332.93 " fill="none" id="Company-RegressionModel" style="stroke:#A80036;stroke-width:1.0;"/><polygon fill="#000000" points="19.25,742.1728,21.8743,733.0315,16,733.2348,19.25,742.1728" style="stroke:#000000;stroke-width:1.0;"/><text fill="#000000" font-family="sans-serif" font-size="13" lengthAdjust="spacing" textLength="78" x="28.0771" y="742.4951">makes use of</text><text fill="#000000" font-family="sans-serif" font-size="13" lengthAdjust="spacing" textLength="5" x="268.0297" y="203.9973">*</text><text fill="#000000" font-family="sans-serif" font-size="13" lengthAdjust="spacing" textLength="7" x="305.101" y="1346.1569">1</text><!--MD5=[3613c24fd87214899814450dc04493e5]
link HypothesisTest to RegressionModel--><path codeLine="127" d="M319.1171,1197.13 C330.6471,1222.55 343.2371,1250.3 354.2971,1274.67 " fill="none" id="HypothesisTest-RegressionModel" style="stroke:#A80036;stroke-width:1.0;"/><polygon fill="#000000" points="347.1429,1240.7291,346.0821,1231.2778,340.7294,1233.7064,347.1429,1240.7291" style="stroke:#000000;stroke-width:1.0;"/><text fill="#000000" font-family="sans-serif" font-size="13" lengthAdjust="spacing" textLength="10" x="354.0771" y="1241.4951">of</text><text fill="#000000" font-family="sans-serif" font-size="13" lengthAdjust="spacing" textLength="5" x="316.8695" y="1217.8802">*</text><text fill="#000000" font-family="sans-serif" font-size="13" lengthAdjust="spacing" textLength="7" x="343.7619" y="1264.2678">1</text><!--MD5=[2924ce52b3cd3a70f6e893e26caf63a8]
link SignificanceModelAnova to RegressionModel--><path codeLine="128" d="M129.3071,954.11 C117.6471,1024.42 112.6671,1123.04 154.0771,1197 C189.4471,1260.17 264.8471,1299.76 319.9171,1321.42 " fill="none" id="SignificanceModelAnova-RegressionModel" style="stroke:#A80036;stroke-width:1.0;"/><polygon fill="#000000" points="161.3801,1119.1138,159.8225,1109.7317,154.6053,1112.439,161.3801,1119.1138" style="stroke:#000000;stroke-width:1.0;"/><text fill="#000000" font-family="sans-serif" font-size="13" lengthAdjust="spacing" textLength="10" x="168.0771" y="1119.9951">of</text><text fill="#000000" font-family="sans-serif" font-size="13" lengthAdjust="spacing" textLength="7" x="120.2214" y="975.9502">1</text><text fill="#000000" font-family="sans-serif" font-size="13" lengthAdjust="spacing" textLength="7" x="304.9783" y="1315.466">1</text><!--MD5=[c6acbac970cf27bd6d16a5c7db39602e]
link SignificanceModelAnova to HypothesisTest--><path codeLine="129" d="M189.0471,954.19 C196.6771,970.27 204.8771,986.76 213.0771,1002 C218.3671,1011.82 224.1571,1021.97 230.0671,1031.95 " fill="none" id="SignificanceModelAnova-HypothesisTest" style="stroke:#A80036;stroke-width:1.0;"/><polygon fill="#000000" points="220.41,997.5982,218.7891,988.2267,213.5903,990.9692,220.41,997.5982" style="stroke:#000000;stroke-width:1.0;"/><text fill="#000000" font-family="sans-serif" font-size="13" lengthAdjust="spacing" textLength="49" x="227.0771" y="998.4951">contains</text><text fill="#000000" font-family="sans-serif" font-size="13" lengthAdjust="spacing" textLength="7" x="184.9844" y="975.7333">1</text><text fill="#000000" font-family="sans-serif" font-size="13" lengthAdjust="spacing" textLength="7" x="217.9497" y="1021.1357">1</text><!--MD5=[0dcaa8173aedfc40b07273db6fb5ce96]
link NHSReport to TableOfValues--><path codeLine="130" d="M329.7171,638.61 C360.3771,656.93 410.9971,690.08 446.0771,728 C472.6471,756.72 495.4371,795.06 510.5371,823.71 " fill="none" id="NHSReport-TableOfValues" style="stroke:#A80036;stroke-width:1.0;"/><polygon fill="#000000" points="469.571,740.7524,465.3527,732.2285,461.1481,736.3359,469.571,740.7524" style="stroke:#000000;stroke-width:1.0;"/><text fill="#000000" font-family="sans-serif" font-size="13" lengthAdjust="spacing" textLength="49" x="475.0771" y="742.4951">contains</text><text fill="#000000" font-family="sans-serif" font-size="13" lengthAdjust="spacing" textLength="7" x="330.0929" y="659.8462">1</text><text fill="#000000" font-family="sans-serif" font-size="13" lengthAdjust="spacing" textLength="7" x="499.7211" y="813.1113">1</text><!--MD5=[60801c19033a4adc54741325ca863d30]
link TableOfValues to RegressionModel--><path codeLine="131" d="M525.7471,906.07 C517.1271,976.72 494.3371,1127.12 446.0771,1245 C441.9871,1254.98 436.9171,1265.09 431.4471,1274.82 " fill="none" id="TableOfValues-RegressionModel" style="stroke:#A80036;stroke-width:1.0;"/><polygon fill="#000000" points="508.8383,1119.5199,513.9266,1111.4849,508.232,1110.0287,508.8383,1119.5199" style="stroke:#000000;stroke-width:1.0;"/><text fill="#000000" font-family="sans-serif" font-size="13" lengthAdjust="spacing" textLength="10" x="519.0771" y="1119.9951">of</text><text fill="#000000" font-family="sans-serif" font-size="13" lengthAdjust="spacing" textLength="7" x="517.5481" y="927.1436">1</text><text fill="#000000" font-family="sans-serif" font-size="13" lengthAdjust="spacing" textLength="7" x="429.136" y="1263.9556">1</text><!--MD5=[fbf6af04bdbd2e53a8939c56935774d0]
link TableOfValues to ConfidenceInterval--><path codeLine="132" d="M547.0671,906.04 C563.8971,945.72 589.8971,1007 609.2771,1052.69 " fill="none" id="TableOfValues-ConfidenceInterval" style="stroke:#A80036;stroke-width:1.0;"/><polygon fill="#000000" points="593.0297,997.7787,592.2029,988.3042,586.7918,990.5996,593.0297,997.7787" style="stroke:#000000;stroke-width:1.0;"/><text fill="#000000" font-family="sans-serif" font-size="13" lengthAdjust="spacing" textLength="49" x="600.0771" y="998.4951">contains</text><text fill="#000000" font-family="sans-serif" font-size="13" lengthAdjust="spacing" textLength="7" x="542.1327" y="927.109">1</text><text fill="#000000" font-family="sans-serif" font-size="13" lengthAdjust="spacing" textLength="5" x="601.0049" y="1042.1328">*</text><!--MD5=[e9ea997fd01ddd5be83691ad6dfc4b93]
link ConfidenceInterval to RegressionModel--><path codeLine="133" d="M594.3471,1176.03 C577.2571,1199.06 556.2071,1224.63 534.0771,1245 C508.9371,1268.13 477.7471,1289.46 450.3971,1306.23 " fill="none" id="ConfidenceInterval-RegressionModel" style="stroke:#A80036;stroke-width:1.0;"/><polygon fill="#000000" points="551.3689,1239.5298,560.0485,1235.642,556.1056,1231.2827,551.3689,1239.5298" style="stroke:#000000;stroke-width:1.0;"/><text fill="#000000" font-family="sans-serif" font-size="13" lengthAdjust="spacing" textLength="10" x="564.0771" y="1241.4951">of</text><text fill="#000000" font-family="sans-serif" font-size="13" lengthAdjust="spacing" textLength="5" x="584.3486" y="1197.5839">*</text><text fill="#000000" font-family="sans-serif" font-size="13" lengthAdjust="spacing" textLength="7" x="457.9243" y="1298.8011">1</text><!--MD5=[d216cdaead7ca886dbb0449b3ca05d73]
link RegressionModel to MathCalculus--><path codeLine="134" d="M385.0771,1412.1 C385.0771,1440.89 385.0771,1471.9 385.0771,1489.82 " fill="none" id="RegressionModel-MathCalculus" style="stroke:#A80036;stroke-width:1.0;"/><polygon fill="#000000" points="390.0771,1456.1758,393.016,1447.1307,387.1381,1447.1307,390.0771,1456.1758" style="stroke:#000000;stroke-width:1.0;"/><text fill="#000000" font-family="sans-serif" font-size="13" lengthAdjust="spacing" textLength="65" x="399.0771" y="1456.4951">provided by</text><text fill="#000000" font-family="sans-serif" font-size="13" lengthAdjust="spacing" textLength="5" x="379.8193" y="1433.5203">*</text><text fill="#000000" font-family="sans-serif" font-size="13" lengthAdjust="spacing" textLength="7" x="376.8739" y="1479.0637">1</text><!--MD5=[3994f36c72829dbcddd1cf7021dddf61]
link Test to Client--><path codeLine="135" d="M654.0771,469.25 C654.0771,493.35 654.0771,521.31 654.0771,546.65 " fill="none" id="Test-Client" style="stroke:#A80036;stroke-width:1.0;"/><polygon fill="#000000" points="659.0771,513.1758,662.016,504.1307,656.1381,504.1307,659.0771,513.1758" style="stroke:#000000;stroke-width:1.0;"/><text fill="#000000" font-family="sans-serif" font-size="13" lengthAdjust="spacing" textLength="75" x="668.0771" y="513.4951">requested by</text><text fill="#000000" font-family="sans-serif" font-size="13" lengthAdjust="spacing" textLength="5" x="648.8036" y="490.3924">*</text><text fill="#000000" font-family="sans-serif" font-size="13" lengthAdjust="spacing" textLength="7" x="646.7435" y="536.1848">1</text><!--MD5=[7e4bc624457760b649895ff2ead938fa]
link Company to Test--><path codeLine="136" d="M431.2771,247.25 C478.8671,281.26 539.8871,324.88 586.0371,357.87 " fill="none" id="Company-Test" style="stroke:#A80036;stroke-width:1.0;"/><polygon fill="#000000" points="532.1448,310.0833,526.4952,302.4326,523.0772,307.2145,532.1448,310.0833" style="stroke:#000000;stroke-width:1.0;"/><text fill="#000000" font-family="sans-serif" font-size="13" lengthAdjust="spacing" textLength="53" x="537.0771" y="312.4951">conducts</text><text fill="#000000" font-family="sans-serif" font-size="13" lengthAdjust="spacing" textLength="7" x="439.0241" y="249.3798">1</text><text fill="#000000" font-family="sans-serif" font-size="13" lengthAdjust="spacing" textLength="5" x="572.8809" y="348.7211">*</text><!--MD5=[a682f63dc7d48a58a1a77e7dc90aef90]
@startuml

skinparam classAttributeIconSize 0
hide empty methods
hide empty attributes

class Company {
-designation
-classNameForBarcodeApi
-classNameForSortAlgorithm
-regressionModelCLass
-dateInterval
-historicalPoints
-confidenceLevel
-significanceLevel
}

class Timer {}

class NhsAPI{}

class NHSReport {}

class RegressionModel {
-intercept
-slope
-secondIndVariable
-r
-r2
-r2Adjusted
-numberOfObservations
}

/'class ConfigFile {}'/

'The interval of dates to fit the regression model
/'class IntervalOfDates {}'/

'Number of days and number of weeks
/'class NumberOfHistoricalPoints {}'/

'hypothesis tests for regression coefficients
class HypothesisTest {
-tObsA
-tObsB
-tObsC
-significanceLevel
-critTD
-f
-critFD
-numeratorDegreesOfFreedom
-denominatorDegreesOfFreedom
}

'significance model with Anova.
class SignificanceModelAnova {
-significanceLevel
-sr
-se
-st
-mr
-me
-f
-degFreedomSr
-degFreedomSe
-degFreedomSt
}

class TableOfValues {
-dates
-observedPositives
-estimatedPositives
}

class ConfidenceInterval {
-y0
-auxDelta
-confidenceLevel
-delta
-limInf
-limSup
}

class Test {
- code
- nhsCode
- dateOfTestRegistration
- dateOfSamplesCollection
- dateOfChemicalAnalysis
- dateOfDiagnosis
}

class Client {
- name
- citizenCardNum
- nhsNum
- birthDate
- sex
- taxIdNum
- phoneNum
- email
}

class MathCalculus {}

/'class NHSReportTask {
-regressionModelClass
-historicalPoints
-significanceLevel
-confidenceLevel
-dateInterval
}'/

App "1" - - "1" Company : knows >
Timer "1" - - "*" NHSReport : schedules >
/'NHSReportTask "1" - - "1..*" NHSReport : reports >'/
Company "1" - - "1..*" NHSReport : reports >
Company "1" - - "1" Timer : knows >
/'Company "1" - - "1" NHSReportTask : knows >'/
/'Company "*" - "1" NhsAPI : makes use of >'/
Company "*" - "1" NhsAPI : makes use of >
/'NHSReportTask "*" - "1" NhsAPI : makes use of >'/
NHSReport "*" - "1" NhsAPI : sent by >
NHSReport "*" - - "1" RegressionModel : has >
NHSReport "1" - - "1" HypothesisTest : contains >
NHSReport "1" - - "1" SignificanceModelAnova : contains >
Company "*" - - "1" RegressionModel : makes use of >
HypothesisTest "*" - - "1" RegressionModel : of >
SignificanceModelAnova "1" - - "1" RegressionModel : of >
SignificanceModelAnova "1" - - "1" HypothesisTest : contains >
NHSReport "1" - "1" TableOfValues : contains >
TableOfValues "1" - - "1" RegressionModel : of >
TableOfValues "1" - - "*" ConfidenceInterval : contains >
ConfidenceInterval "*" - - "1" RegressionModel : of >
RegressionModel "*" - - "1" MathCalculus : provided by >
Test "*" - - "1" Client : requested by >
Company "1" - - "*" Test : conducts >
/'Timer "1" - - "*" NHSReportTask : schedules >'/
/'NHSReportTask "1" - - "1" RegressionModel : makes use of >'/
/'NHSReportTask "*" - - "1" RegressionModel : makes use of >'/


'ANTIGO
/'NHSReportTask "1" - - "1..*" NHSReport : reports >
Company "1" - - "1" Timer : knows >
Company "*" - "1" NhsAPI : makes use of >'/
/'NHSReportTask "*" - - "1" NhsAPI : makes use of >'/
/'NHSReport "*" - - "1" NhsAPI : sent by >
NHSReport "*" - - "1" RegressionModel : has >
NHSReport "1" - - "1" HypothesisTest : contains >
NHSReport "1" - - "1" SignificanceModelAnova : contains >
Company "*" - - "1" RegressionModel : makes use of >
HypothesisTest "*" - - "1" RegressionModel : of >
SignificanceModelAnova "1" - - "1" RegressionModel : of >
SignificanceModelAnova "1" - - "1" HypothesisTest : contains >
NHSReport "1" - - "1" TableOfValues : contains >
TableOfValues "1" - - "1" RegressionModel : of >
TableOfValues "1" - - "*" ConfidenceInterval : contains >
ConfidenceInterval "*" - - "1" RegressionModel : of >
Timer "1" - "*" NHSReportTask : schedules >
NHSReportTask "1" - - "1" RegressionModel : makes use of >'/
/'NHSReportTask "*" - - "1" RegressionModel : makes use of >'/

'Apagar posteriormente
/'RegressionModel "1" - - "1" ConfigFile : defined by >
IntervalOfDates "1" - - "1" ConfigFile : defined by >
NumberOfHistoricalPoints "1" - - "1" ConfigFile : defined by >'/



@enduml

@startuml

skinparam classAttributeIconSize 0
hide empty methods
hide empty attributes

class Company {
-designation
-classNameForBarcodeApi
-classNameForSortAlgorithm
-regressionModelCLass
-dateInterval
-historicalPoints
-confidenceLevel
-significanceLevel
}

class Timer {}

class NhsAPI{}

class NHSReport {}

class RegressionModel {
-intercept
-slope
-secondIndVariable
-r
-r2
-r2Adjusted
-numberOfObservations
}




class HypothesisTest {
-tObsA
-tObsB
-tObsC
-significanceLevel
-critTD
-f
-critFD
-numeratorDegreesOfFreedom
-denominatorDegreesOfFreedom
}

class SignificanceModelAnova {
-significanceLevel
-sr
-se
-st
-mr
-me
-f
-degFreedomSr
-degFreedomSe
-degFreedomSt
}

class TableOfValues {
-dates
-observedPositives
-estimatedPositives
}

class ConfidenceInterval {
-y0
-auxDelta
-confidenceLevel
-delta
-limInf
-limSup
}

class Test {
- code
- nhsCode
- dateOfTestRegistration
- dateOfSamplesCollection
- dateOfChemicalAnalysis
- dateOfDiagnosis
}

class Client {
- name
- citizenCardNum
- nhsNum
- birthDate
- sex
- taxIdNum
- phoneNum
- email
}

class MathCalculus {}


App "1" - - "1" Company : knows >
Timer "1" - - "*" NHSReport : schedules >
Company "1" - - "1..*" NHSReport : reports >
Company "1" - - "1" Timer : knows >
Company "*" - "1" NhsAPI : makes use of >
NHSReport "*" - "1" NhsAPI : sent by >
NHSReport "*" - - "1" RegressionModel : has >
NHSReport "1" - - "1" HypothesisTest : contains >
NHSReport "1" - - "1" SignificanceModelAnova : contains >
Company "*" - - "1" RegressionModel : makes use of >
HypothesisTest "*" - - "1" RegressionModel : of >
SignificanceModelAnova "1" - - "1" RegressionModel : of >
SignificanceModelAnova "1" - - "1" HypothesisTest : contains >
NHSReport "1" - "1" TableOfValues : contains >
TableOfValues "1" - - "1" RegressionModel : of >
TableOfValues "1" - - "*" ConfidenceInterval : contains >
ConfidenceInterval "*" - - "1" RegressionModel : of >
RegressionModel "*" - - "1" MathCalculus : provided by >
Test "*" - - "1" Client : requested by >
Company "1" - - "*" Test : conducts >






@enduml

PlantUML version 1.2021.4(Sun Apr 04 09:49:39 BST 2021)
(GPL source distribution)
Java Runtime: OpenJDK Runtime Environment
JVM: OpenJDK 64-Bit Server VM
Default Encoding: Cp1252
Language: pt
Country: PT
--></g></svg>