<?xml version="1.0" encoding="UTF-8" standalone="no"?><svg xmlns="http://www.w3.org/2000/svg" xmlns:xlink="http://www.w3.org/1999/xlink" contentScriptType="application/ecmascript" contentStyleType="text/css" height="794px" preserveAspectRatio="none" style="width:903px;height:794px;" version="1.1" viewBox="0 0 903 794" width="903px" zoomAndPan="magnify"><defs><filter height="300%" id="f1x4arrlu7ji43" width="300%" x="-1" y="-1"><feGaussianBlur result="blurOut" stdDeviation="2.0"/><feColorMatrix in="blurOut" result="blurOut2" type="matrix" values="0 0 0 0 0 0 0 0 0 0 0 0 0 0 0 0 0 0 .4 0"/><feOffset dx="4.0" dy="4.0" in="blurOut2" result="blurOut3"/><feBlend in="SourceGraphic" in2="blurOut3" mode="normal"/></filter></defs><g><text fill="#000000" font-family="sans-serif" font-size="18" lengthAdjust="spacing" textLength="73" x="412.5" y="30.6855">SD_run()</text><text fill="#000000" font-family="sans-serif" font-size="18" lengthAdjust="spacing" textLength="161" x="368.5" y="53.3262">Timer runs the Task</text><rect fill="#FFFFFF" filter="url(#f1x4arrlu7ji43)" height="556.5703" style="stroke:#A80036;stroke-width:1.0;" width="10" x="120" y="150.8516"/><rect fill="#FFFFFF" filter="url(#f1x4arrlu7ji43)" height="556.5703" style="stroke:#A80036;stroke-width:1.0;" width="10" x="216.5" y="150.8516"/><rect fill="#FFFFFF" filter="url(#f1x4arrlu7ji43)" height="89.0547" style="stroke:#A80036;stroke-width:1.0;" width="10" x="221.5" y="249.5547"/><rect fill="#FFFFFF" filter="url(#f1x4arrlu7ji43)" height="89.0547" style="stroke:#A80036;stroke-width:1.0;" width="10" x="221.5" y="444.3125"/><rect fill="#FFFFFF" filter="url(#f1x4arrlu7ji43)" height="28" style="stroke:#A80036;stroke-width:1.0;" width="10" x="221.5" y="679.4219"/><rect fill="#FFFFFF" filter="url(#f1x4arrlu7ji43)" height="30" style="stroke:#A80036;stroke-width:1.0;" width="10" x="451.5" y="611.0703"/><rect fill="#FFFFFF" filter="url(#f1x4arrlu7ji43)" height="30" style="stroke:#A80036;stroke-width:1.0;" width="10" x="845" y="181.2031"/><rect fill="#FFFFFF" filter="url(#f1x4arrlu7ji43)" height="30" style="stroke:#A80036;stroke-width:1.0;" width="10" x="845" y="375.9609"/><line style="stroke:#A80036;stroke-width:1.0;stroke-dasharray:5.0,5.0;" x1="125" x2="125" y1="118.5" y2="732.4219"/><line style="stroke:#A80036;stroke-width:1.0;stroke-dasharray:5.0,5.0;" x1="221" x2="221" y1="118.5" y2="732.4219"/><line style="stroke:#A80036;stroke-width:1.0;stroke-dasharray:5.0,5.0;" x1="456" x2="456" y1="118.5" y2="732.4219"/><line style="stroke:#A80036;stroke-width:1.0;stroke-dasharray:5.0,5.0;" x1="567" x2="567" y1="118.5" y2="732.4219"/><line style="stroke:#A80036;stroke-width:1.0;stroke-dasharray:5.0,5.0;" x1="722" x2="722" y1="118.5" y2="732.4219"/><line style="stroke:#A80036;stroke-width:1.0;stroke-dasharray:5.0,5.0;" x1="850" x2="850" y1="118.5" y2="732.4219"/><rect fill="#FEFECE" filter="url(#f1x4arrlu7ji43)" height="49.2188" style="stroke:#A80036;stroke-width:1.5;" width="50" x="98" y="64.2813"/><text fill="#000000" font-family="sans-serif" font-size="14" lengthAdjust="spacing" textLength="35" x="105.5" y="85.8145">timer:</text><text fill="#000000" font-family="sans-serif" font-size="14" lengthAdjust="spacing" textLength="36" x="105" y="103.4238">Timer</text><rect fill="#FEFECE" filter="url(#f1x4arrlu7ji43)" height="49.2188" style="stroke:#A80036;stroke-width:1.5;" width="50" x="98" y="731.4219"/><text fill="#000000" font-family="sans-serif" font-size="14" lengthAdjust="spacing" textLength="35" x="105.5" y="752.9551">timer:</text><text fill="#000000" font-family="sans-serif" font-size="14" lengthAdjust="spacing" textLength="36" x="105" y="770.5645">Timer</text><rect fill="#FEFECE" filter="url(#f1x4arrlu7ji43)" height="49.2188" style="stroke:#A80036;stroke-width:1.5;" width="115" x="162" y="64.2813"/><text fill="#000000" font-family="sans-serif" font-size="14" lengthAdjust="spacing" textLength="101" x="169" y="85.8145">nhsReportTask:</text><text fill="#000000" font-family="sans-serif" font-size="14" lengthAdjust="spacing" textLength="101" x="169" y="103.4238">NHSReportTask</text><rect fill="#FEFECE" filter="url(#f1x4arrlu7ji43)" height="49.2188" style="stroke:#A80036;stroke-width:1.5;" width="115" x="162" y="731.4219"/><text fill="#000000" font-family="sans-serif" font-size="14" lengthAdjust="spacing" textLength="101" x="169" y="752.9551">nhsReportTask:</text><text fill="#000000" font-family="sans-serif" font-size="14" lengthAdjust="spacing" textLength="101" x="169" y="770.5645">NHSReportTask</text><rect fill="#FEFECE" filter="url(#f1x4arrlu7ji43)" height="31.6094" style="stroke:#A80036;stroke-width:1.5;" width="59" x="425" y="81.8906"/><text fill="#000000" font-family="sans-serif" font-size="14" lengthAdjust="spacing" textLength="45" x="432" y="103.4238">NhsAPI</text><rect fill="#FEFECE" filter="url(#f1x4arrlu7ji43)" height="31.6094" style="stroke:#A80036;stroke-width:1.5;" width="59" x="425" y="731.4219"/><text fill="#000000" font-family="sans-serif" font-size="14" lengthAdjust="spacing" textLength="45" x="432" y="752.9551">NhsAPI</text><rect fill="#FEFECE" filter="url(#f1x4arrlu7ji43)" height="49.2188" style="stroke:#A80036;stroke-width:1.5;" width="135" x="498" y="64.2813"/><text fill="#000000" font-family="sans-serif" font-size="14" lengthAdjust="spacing" textLength="121" x="505" y="85.8145">nhsDayDataReport</text><text fill="#000000" font-family="sans-serif" font-size="14" lengthAdjust="spacing" textLength="74" x="528.5" y="103.4238">:NHSReport</text><rect fill="#FEFECE" filter="url(#f1x4arrlu7ji43)" height="49.2188" style="stroke:#A80036;stroke-width:1.5;" width="135" x="498" y="731.4219"/><text fill="#000000" font-family="sans-serif" font-size="14" lengthAdjust="spacing" textLength="121" x="505" y="752.9551">nhsDayDataReport</text><text fill="#000000" font-family="sans-serif" font-size="14" lengthAdjust="spacing" textLength="74" x="528.5" y="770.5645">:NHSReport</text><rect fill="#FEFECE" filter="url(#f1x4arrlu7ji43)" height="49.2188" style="stroke:#A80036;stroke-width:1.5;" width="146" x="647" y="64.2813"/><text fill="#000000" font-family="sans-serif" font-size="14" lengthAdjust="spacing" textLength="132" x="654" y="85.8145">nhsWeekDataReport</text><text fill="#000000" font-family="sans-serif" font-size="14" lengthAdjust="spacing" textLength="74" x="683" y="103.4238">:NHSReport</text><rect fill="#FEFECE" filter="url(#f1x4arrlu7ji43)" height="49.2188" style="stroke:#A80036;stroke-width:1.5;" width="146" x="647" y="731.4219"/><text fill="#000000" font-family="sans-serif" font-size="14" lengthAdjust="spacing" textLength="132" x="654" y="752.9551">nhsWeekDataReport</text><text fill="#000000" font-family="sans-serif" font-size="14" lengthAdjust="spacing" textLength="74" x="683" y="770.5645">:NHSReport</text><rect fill="#FEFECE" filter="url(#f1x4arrlu7ji43)" height="31.6094" style="stroke:#A80036;stroke-width:1.5;" width="82" x="807" y="81.8906"/><text fill="#000000" font-family="sans-serif" font-size="14" lengthAdjust="spacing" textLength="68" x="814" y="103.4238">:Constants</text><rect fill="#FEFECE" filter="url(#f1x4arrlu7ji43)" height="31.6094" style="stroke:#A80036;stroke-width:1.5;" width="82" x="807" y="731.4219"/><text fill="#000000" font-family="sans-serif" font-size="14" lengthAdjust="spacing" textLength="68" x="814" y="752.9551">:Constants</text><rect fill="#FFFFFF" filter="url(#f1x4arrlu7ji43)" height="556.5703" style="stroke:#A80036;stroke-width:1.0;" width="10" x="120" y="150.8516"/><rect fill="#FFFFFF" filter="url(#f1x4arrlu7ji43)" height="556.5703" style="stroke:#A80036;stroke-width:1.0;" width="10" x="216.5" y="150.8516"/><rect fill="#FFFFFF" filter="url(#f1x4arrlu7ji43)" height="89.0547" style="stroke:#A80036;stroke-width:1.0;" width="10" x="221.5" y="249.5547"/><rect fill="#FFFFFF" filter="url(#f1x4arrlu7ji43)" height="89.0547" style="stroke:#A80036;stroke-width:1.0;" width="10" x="221.5" y="444.3125"/><rect fill="#FFFFFF" filter="url(#f1x4arrlu7ji43)" height="28" style="stroke:#A80036;stroke-width:1.0;" width="10" x="221.5" y="679.4219"/><rect fill="#FFFFFF" filter="url(#f1x4arrlu7ji43)" height="30" style="stroke:#A80036;stroke-width:1.0;" width="10" x="451.5" y="611.0703"/><rect fill="#FFFFFF" filter="url(#f1x4arrlu7ji43)" height="30" style="stroke:#A80036;stroke-width:1.0;" width="10" x="845" y="181.2031"/><rect fill="#FFFFFF" filter="url(#f1x4arrlu7ji43)" height="30" style="stroke:#A80036;stroke-width:1.0;" width="10" x="845" y="375.9609"/><polygon fill="#A80036" points="204.5,146.8516,214.5,150.8516,204.5,154.8516,208.5,150.8516" style="stroke:#A80036;stroke-width:1.0;"/><line style="stroke:#A80036;stroke-width:1.0;" x1="130" x2="210.5" y1="150.8516" y2="150.8516"/><text fill="#000000" font-family="sans-serif" font-size="13" lengthAdjust="spacing" textLength="26" x="137" y="145.9951">run()</text><polygon fill="#A80036" points="833,177.2031,843,181.2031,833,185.2031,837,181.2031" style="stroke:#A80036;stroke-width:1.0;"/><line style="stroke:#A80036;stroke-width:1.0;" x1="226.5" x2="839" y1="181.2031" y2="181.2031"/><text fill="#000000" font-family="sans-serif" font-size="13" lengthAdjust="spacing" textLength="195" x="233.5" y="176.3467">dayData = Constants.DAY_DATA</text><line style="stroke:#A80036;stroke-width:1.0;" x1="226.5" x2="273.5" y1="236.5547" y2="236.5547"/><line style="stroke:#A80036;stroke-width:1.0;" x1="273.5" x2="273.5" y1="236.5547" y2="249.5547"/><line style="stroke:#A80036;stroke-width:1.0;" x1="232.5" x2="273.5" y1="249.5547" y2="249.5547"/><polygon fill="#A80036" points="242.5,245.5547,232.5,249.5547,242.5,253.5547,238.5,249.5547" style="stroke:#A80036;stroke-width:1.0;"/><text fill="#000000" font-family="sans-serif" font-size="13" lengthAdjust="spacing" textLength="186" x="238.5" y="231.6982">createNHSDailyReport(dayData)</text><rect fill="#FFFFFF" filter="url(#f1x4arrlu7ji43)" height="42.7031" style="stroke:#000000;stroke-width:2.0;" width="236" x="159" y="262.5547"/><polygon fill="#EEEEEE" points="159,262.5547,221,262.5547,221,270.5547,211,280.5547,159,280.5547,159,262.5547" style="stroke:#000000;stroke-width:2.0;"/><text fill="#000000" font-family="sans-serif" font-size="13" font-weight="bold" lengthAdjust="spacing" textLength="17" x="172" y="278.0498">ref</text><text fill="#000000" font-family="sans-serif" font-size="13" lengthAdjust="spacing" textLength="228" x="165" y="298.0498">SD_createNHSDailyReport(typeOfData)</text><line style="stroke:#A80036;stroke-width:1.0;stroke-dasharray:2.0,2.0;" x1="231.5" x2="273.5" y1="337.6094" y2="337.6094"/><line style="stroke:#A80036;stroke-width:1.0;stroke-dasharray:2.0,2.0;" x1="273.5" x2="273.5" y1="337.6094" y2="350.6094"/><line style="stroke:#A80036;stroke-width:1.0;stroke-dasharray:2.0,2.0;" x1="226.5" x2="273.5" y1="350.6094" y2="350.6094"/><polygon fill="#A80036" points="236.5,346.6094,226.5,350.6094,236.5,354.6094,232.5,350.6094" style="stroke:#A80036;stroke-width:1.0;"/><text fill="#000000" font-family="sans-serif" font-size="13" lengthAdjust="spacing" textLength="109" x="238.5" y="332.7529">nhsDayDataReport</text><polygon fill="#A80036" points="833,371.9609,843,375.9609,833,379.9609,837,375.9609" style="stroke:#A80036;stroke-width:1.0;"/><line style="stroke:#A80036;stroke-width:1.0;" x1="226.5" x2="839" y1="375.9609" y2="375.9609"/><text fill="#000000" font-family="sans-serif" font-size="13" lengthAdjust="spacing" textLength="154" x="233.5" y="371.1045">weekData = WEEK_DATA</text><line style="stroke:#A80036;stroke-width:1.0;" x1="226.5" x2="273.5" y1="431.3125" y2="431.3125"/><line style="stroke:#A80036;stroke-width:1.0;" x1="273.5" x2="273.5" y1="431.3125" y2="444.3125"/><line style="stroke:#A80036;stroke-width:1.0;" x1="232.5" x2="273.5" y1="444.3125" y2="444.3125"/><polygon fill="#A80036" points="242.5,440.3125,232.5,444.3125,242.5,448.3125,238.5,444.3125" style="stroke:#A80036;stroke-width:1.0;"/><text fill="#000000" font-family="sans-serif" font-size="13" lengthAdjust="spacing" textLength="195" x="238.5" y="426.4561">createNHSDailyReport(weekData)</text><rect fill="#FFFFFF" filter="url(#f1x4arrlu7ji43)" height="42.7031" style="stroke:#000000;stroke-width:2.0;" width="236" x="159" y="457.3125"/><polygon fill="#EEEEEE" points="159,457.3125,221,457.3125,221,465.3125,211,475.3125,159,475.3125,159,457.3125" style="stroke:#000000;stroke-width:2.0;"/><text fill="#000000" font-family="sans-serif" font-size="13" font-weight="bold" lengthAdjust="spacing" textLength="17" x="172" y="472.8076">ref</text><text fill="#000000" font-family="sans-serif" font-size="13" lengthAdjust="spacing" textLength="228" x="165" y="492.8076">SD_createNHSDailyReport(typeOfData)</text><line style="stroke:#A80036;stroke-width:1.0;stroke-dasharray:2.0,2.0;" x1="231.5" x2="273.5" y1="532.3672" y2="532.3672"/><line style="stroke:#A80036;stroke-width:1.0;stroke-dasharray:2.0,2.0;" x1="273.5" x2="273.5" y1="532.3672" y2="545.3672"/><line style="stroke:#A80036;stroke-width:1.0;stroke-dasharray:2.0,2.0;" x1="226.5" x2="273.5" y1="545.3672" y2="545.3672"/><polygon fill="#A80036" points="236.5,541.3672,226.5,545.3672,236.5,549.3672,232.5,545.3672" style="stroke:#A80036;stroke-width:1.0;"/><text fill="#000000" font-family="sans-serif" font-size="13" lengthAdjust="spacing" textLength="120" x="238.5" y="527.5107">nhsWeekDataReport</text><path d="M5,553.3672 L5,579.3672 L670,579.3672 L670,563.3672 L660,553.3672 L5,553.3672 " fill="#FBFB77" filter="url(#f1x4arrlu7ji43)" style="stroke:#A80036;stroke-width:1.0;"/><path d="M660,553.3672 L660,563.3672 L670,563.3672 L660,553.3672 " fill="#FBFB77" style="stroke:#A80036;stroke-width:1.0;"/><text fill="#000000" font-family="sans-serif" font-size="13" lengthAdjust="spacing" textLength="21" x="11" y="571.8623">The</text><text fill="#000000" font-family="sans-serif" font-size="13" font-weight="bold" lengthAdjust="spacing" textLength="90" x="36" y="571.8623">dataToBeSent</text><text fill="#000000" font-family="sans-serif" font-size="13" lengthAdjust="spacing" textLength="122" x="130" y="571.8623">is a String containing</text><text fill="#000000" font-family="sans-serif" font-size="13" font-weight="bold" lengthAdjust="spacing" textLength="179" x="256" y="571.8623">nhsDayDataReport.toString()</text><text fill="#000000" font-family="sans-serif" font-size="13" lengthAdjust="spacing" textLength="21" x="439" y="571.8623">and</text><text fill="#000000" font-family="sans-serif" font-size="13" font-weight="bold" lengthAdjust="spacing" textLength="191" x="464" y="571.8623">nhsWeekDataReport.toString()</text><polygon fill="#A80036" points="439.5,607.0703,449.5,611.0703,439.5,615.0703,443.5,611.0703" style="stroke:#A80036;stroke-width:1.0;"/><line style="stroke:#A80036;stroke-width:1.0;" x1="226.5" x2="445.5" y1="611.0703" y2="611.0703"/><text fill="#000000" font-family="sans-serif" font-size="13" lengthAdjust="spacing" textLength="206" x="233.5" y="606.2139">writeUsingFileWriter(dataToBeSent)</text><line style="stroke:#A80036;stroke-width:1.0;" x1="231.5" x2="273.5" y1="671.4219" y2="671.4219"/><line style="stroke:#A80036;stroke-width:1.0;" x1="273.5" x2="273.5" y1="671.4219" y2="684.4219"/><line style="stroke:#A80036;stroke-width:1.0;" x1="232.5" x2="273.5" y1="684.4219" y2="684.4219"/><polygon fill="#A80036" points="242.5,680.4219,232.5,684.4219,242.5,688.4219,238.5,684.4219" style="stroke:#A80036;stroke-width:1.0;"/><text fill="#000000" font-family="sans-serif" font-size="13" lengthAdjust="spacing" textLength="130" x="238.5" y="666.5654">writeEventIntoLogFile()</text><!--MD5=[1cf73f5e5d62939cb0c721032d25a98b]
@startuml

title SD_run()\nTimer runs the Task

participant "timer:\nTimer" as TIMER
participant "nhsReportTask:\nNHSReportTask" as TASK
participant "NhsAPI" as NHS_API
participant "nhsDayDataReport\n:NHSReport"
participant "nhsWeekDataReport\n:NHSReport"
participant ":Constants" as CONSTANTS


TIMER -> TASK : run()
activate TIMER
activate TASK

TASK -> CONSTANTS : dayData = Constants.DAY_DATA
activate CONSTANTS
deactivate CONSTANTS
TASK -> TASK : createNHSDailyReport(dayData)
activate TASK
ref over TASK
SD_createNHSDailyReport(typeOfData)
end
TASK - -> TASK : nhsDayDataReport
deactivate TASK

TASK -> CONSTANTS : weekData = WEEK_DATA
activate CONSTANTS
deactivate CONSTANTS
TASK -> TASK : createNHSDailyReport(weekData)
activate TASK
ref over TASK
SD_createNHSDailyReport(typeOfData)
end
TASK - -> TASK : nhsWeekDataReport
deactivate TASK

note over TASK, NHS_API
The **dataToBeSent** is a String containing **nhsDayDataReport.toString()** and **nhsWeekDataReport.toString()**
end note
TASK -> NHS_API : writeUsingFileWriter(dataToBeSent)
activate NHS_API
deactivate NHS_API
TASK -> TASK : writeEventIntoLogFile()
activate TASK
deactivate TASK

deactivate TIMER
deactivate TASK


@enduml

PlantUML version 1.2021.4(Sun Apr 04 09:49:39 BST 2021)
(GPL source distribution)
Java Runtime: OpenJDK Runtime Environment
JVM: OpenJDK 64-Bit Server VM
Default Encoding: Cp1252
Language: pt
Country: PT
--></g></svg>