<?xml version="1.0" encoding="UTF-8" standalone="no"?><svg xmlns="http://www.w3.org/2000/svg" xmlns:xlink="http://www.w3.org/1999/xlink" contentScriptType="application/ecmascript" contentStyleType="text/css" height="587px" preserveAspectRatio="none" style="width:355px;height:587px;" version="1.1" viewBox="0 0 355 587" width="355px" zoomAndPan="magnify"><defs><filter height="300%" id="f1snzu3gwj6ikw" width="300%" x="-1" y="-1"><feGaussianBlur result="blurOut" stdDeviation="2.0"/><feColorMatrix in="blurOut" result="blurOut2" type="matrix" values="0 0 0 0 0 0 0 0 0 0 0 0 0 0 0 0 0 0 .4 0"/><feOffset dx="4.0" dy="4.0" in="blurOut2" result="blurOut3"/><feBlend in="SourceGraphic" in2="blurOut3" mode="normal"/></filter></defs><g><!--MD5=[2c2e2644034c00788261e03c85b06837]
cluster Core--><polygon fill="#FFFFFF" filter="url(#f1snzu3gwj6ikw)" points="16,6,56,6,63,29.6094,338,29.6094,338,580,16,580,16,6" style="stroke:#000000;stroke-width:1.5;"/><line style="stroke:#000000;stroke-width:1.5;" x1="16" x2="63" y1="29.6094" y2="29.6094"/><text fill="#000000" font-family="sans-serif" font-size="14" font-weight="bold" lengthAdjust="spacing" textLength="34" x="20" y="22.5332">Core</text><!--MD5=[121a8bf1197281ab89ed693fab589f94]
cluster Domain--><polygon fill="#FFFFFF" filter="url(#f1snzu3gwj6ikw)" points="48,152,106,152,113,175.6094,306,175.6094,306,408,48,408,48,152" style="stroke:#000000;stroke-width:1.5;"/><line style="stroke:#000000;stroke-width:1.5;" x1="48" x2="113" y1="175.6094" y2="175.6094"/><text fill="#000000" font-family="sans-serif" font-size="14" font-weight="bold" lengthAdjust="spacing" textLength="52" x="52" y="168.5332">Domain</text><!--MD5=[c29634d7cdbe8f1c1e88f2fe66ae73ec]
cluster ThirdParty--><polygon fill="#FFFFFF" filter="url(#f1snzu3gwj6ikw)" points="41,449,118,449,125,472.6094,227,472.6094,227,556,41,556,41,449" style="stroke:#000000;stroke-width:1.5;"/><line style="stroke:#000000;stroke-width:1.5;" x1="41" x2="125" y1="472.6094" y2="472.6094"/><text fill="#000000" font-family="sans-serif" font-size="14" font-weight="bold" lengthAdjust="spacing" textLength="71" x="45" y="465.5332">ThirdParty</text><polygon fill="#FFFFFF" filter="url(#f1snzu3gwj6ikw)" points="32.5,42,109.5,42,116.5,65.6094,123.5,65.6094,123.5,97.2188,32.5,97.2188,32.5,42" style="stroke:#000000;stroke-width:1.5;"/><line style="stroke:#000000;stroke-width:1.5;" x1="32.5" x2="116.5" y1="65.6094" y2="65.6094"/><text fill="#000000" font-family="sans-serif" font-size="14" font-weight="bold" lengthAdjust="spacing" textLength="71" x="36.5" y="58.5332">Controller</text><polygon fill="#FFFFFF" filter="url(#f1snzu3gwj6ikw)" points="218,196,268,196,275,219.6094,282,219.6094,282,251.2188,218,251.2188,218,196" style="stroke:#000000;stroke-width:1.5;"/><line style="stroke:#000000;stroke-width:1.5;" x1="218" x2="275" y1="219.6094" y2="219.6094"/><text fill="#000000" font-family="sans-serif" font-size="14" font-weight="bold" lengthAdjust="spacing" textLength="44" x="222" y="212.5332">Model</text><polygon fill="#FFFFFF" filter="url(#f1snzu3gwj6ikw)" points="211,329,263,329,270,352.6094,277,352.6094,277,384.2188,211,384.2188,211,329" style="stroke:#000000;stroke-width:1.5;"/><line style="stroke:#000000;stroke-width:1.5;" x1="211" x2="270" y1="352.6094" y2="352.6094"/><text fill="#000000" font-family="sans-serif" font-size="14" font-weight="bold" lengthAdjust="spacing" textLength="46" x="215" y="345.5332">Stores</text><polygon fill="#FFFFFF" filter="url(#f1snzu3gwj6ikw)" points="92.5,329,161.5,329,168.5,352.6094,175.5,352.6094,175.5,384.2188,92.5,384.2188,92.5,329" style="stroke:#000000;stroke-width:1.5;"/><line style="stroke:#000000;stroke-width:1.5;" x1="92.5" x2="168.5" y1="352.6094" y2="352.6094"/><text fill="#000000" font-family="sans-serif" font-size="14" font-weight="bold" lengthAdjust="spacing" textLength="63" x="96.5" y="345.5332">Adapters</text><polygon fill="#FFFFFF" filter="url(#f1snzu3gwj6ikw)" points="91.5,196,168.5,196,175.5,219.6094,182.5,219.6094,182.5,251.2188,91.5,251.2188,91.5,196" style="stroke:#000000;stroke-width:1.5;"/><line style="stroke:#000000;stroke-width:1.5;" x1="91.5" x2="175.5" y1="219.6094" y2="219.6094"/><text fill="#000000" font-family="sans-serif" font-size="14" font-weight="bold" lengthAdjust="spacing" textLength="71" x="95.5" y="212.5332">Interfaces</text><polygon fill="#FFFFFF" filter="url(#f1snzu3gwj6ikw)" points="57.5,485,196.5,485,203.5,508.6094,210.5,508.6094,210.5,540.2188,57.5,540.2188,57.5,485" style="stroke:#000000;stroke-width:1.5;"/><line style="stroke:#000000;stroke-width:1.5;" x1="57.5" x2="203.5" y1="508.6094" y2="508.6094"/><text fill="#000000" font-family="sans-serif" font-size="14" font-weight="bold" lengthAdjust="spacing" textLength="133" x="61.5" y="501.5332">RegressionModels</text><!--MD5=[5eef8fc34ee0f8a6e9a4917deebd15c5]
link Controller to Domain--><path d="M74.12,97.32 C72.565,108.06 70.6781,121.095 68.7169,134.645 C68.2266,138.0325 67.7316,141.4522 67.236,144.8762 C66.9882,146.5883 66.7403,148.3014 66.4927,150.0121 C66.4308,150.4398 66.3689,150.8674 66.307,151.2947 C66.2761,151.5084 66.2452,151.722 66.2143,151.9355 " fill="none" id="Controller-to-Domain" style="stroke:#A80036;stroke-width:1.0;stroke-dasharray:7.0,7.0;"/><polygon fill="#A80036" points="66.2143,151.9355,71.4622,143.6013,66.9305,146.9871,63.5447,142.4554,66.2143,151.9355" style="stroke:#A80036;stroke-width:1.0;"/><!--MD5=[8db2d36dfcc6aadb263e2609429d2d71]
link Model to Stores--><path d="M248.79,251.01 C247.83,271.91 246.49,301.14 245.47,323.38 " fill="none" id="Model-to-Stores" style="stroke:#A80036;stroke-width:1.0;"/><polygon fill="#A80036" points="245.23,328.58,249.6368,319.7721,245.4583,323.5852,241.6452,319.4067,245.23,328.58" style="stroke:#A80036;stroke-width:1.0;"/><text fill="#000000" font-family="sans-serif" font-size="13" lengthAdjust="spacing" textLength="40" x="248" y="295.4951">uses &gt;</text><!--MD5=[e4260d37eac002eaed16f3dbd7488749]
reverse link Interfaces to Adapters--><path d="M135.93,271.01 C135.49,290.3 135,312 134.62,328.58 " fill="none" id="Interfaces-backto-Adapters" style="stroke:#A80036;stroke-width:1.0;stroke-dasharray:7.0,7.0;"/><polygon fill="none" points="128.94,270.84,136.39,251.01,142.93,271.16,128.94,270.84" style="stroke:#A80036;stroke-width:1.0;"/><!--MD5=[9f5240a4ba513d87d459b6b9d27693b3]
link Adapters to RegressionModels--><path d="M134,384.32 C134,410.93 134,451.7 134,479.88 " fill="none" id="Adapters-to-RegressionModels" style="stroke:#A80036;stroke-width:1.0;"/><polygon fill="#A80036" points="134,484.98,138,475.98,134,479.98,130,475.98,134,484.98" style="stroke:#A80036;stroke-width:1.0;"/><!--MD5=[81d439a2603cdfeba22b774a3c27631f]
@startuml

skinparam classAttributeIconSize 0
/'hide empty methods
hide empty attributes'/


'PACKAGES


package Core {


package Controller {

}

package Domain {

package Model {

}


package Stores {

}




package Adapters {

}

package Interfaces {

}

}



package ThirdParty {

package RegressionModels {

}


}

}



Controller ..> Domain
Model - -> Stores : uses >
Interfaces <|.. Adapters
Adapters - -> RegressionModels




@enduml

@startuml

skinparam classAttributeIconSize 0




package Core {


package Controller {

}

package Domain {

package Model {

}


package Stores {

}




package Adapters {

}

package Interfaces {

}

}



package ThirdParty {

package RegressionModels {

}


}

}



Controller ..> Domain
Model - -> Stores : uses >
Interfaces <|.. Adapters
Adapters - -> RegressionModels




@enduml

PlantUML version 1.2021.4(Sun Apr 04 09:49:39 BST 2021)
(GPL source distribution)
Java Runtime: OpenJDK Runtime Environment
JVM: OpenJDK 64-Bit Server VM
Default Encoding: Cp1252
Language: pt
Country: PT
--></g></svg>