<?xml version="1.0" encoding="UTF-8" standalone="no"?><svg xmlns="http://www.w3.org/2000/svg" xmlns:xlink="http://www.w3.org/1999/xlink" contentScriptType="application/ecmascript" contentStyleType="text/css" height="2581.25px" preserveAspectRatio="none" style="width:1490px;height:2581px;background:#FFFFFF;" version="1.1" viewBox="0 0 1490 2581" width="1490px" zoomAndPan="magnify"><defs><filter height="300%" id="fq9v6cpfa7rhp" width="300%" x="-1" y="-1"><feGaussianBlur result="blurOut" stdDeviation="2.5"/><feColorMatrix in="blurOut" result="blurOut2" type="matrix" values="0 0 0 0 0 0 0 0 0 0 0 0 0 0 0 0 0 0 .4 0"/><feOffset dx="5.0" dy="5.0" in="blurOut2" result="blurOut3"/><feBlend in="SourceGraphic" in2="blurOut3" mode="normal"/></filter></defs><g><!--MD5=[99b31deea5d7419a569cd5090bf83263]
cluster System--><rect fill="#FFFFFF" filter="url(#fq9v6cpfa7rhp)" height="2557.5" style="stroke:#000000;stroke-width:1.875;" width="1162.5" x="312.5" y="8.75"/><text fill="#000000" font-family="sans-serif" font-size="17.5" font-weight="bold" lengthAdjust="spacing" textLength="62.5" x="862.5" y="29.4165">System</text><ellipse cx="687.3344" cy="96.3419" fill="#FEFECE" filter="url(#fq9v6cpfa7rhp)" rx="197.9594" ry="42.5919" style="stroke:#A80036;stroke-width:1.875;"/><text fill="#000000" font-family="sans-serif" font-size="17.5" lengthAdjust="spacing" textLength="357.5" x="508.5844" y="101.0025">UC 1 - View the results of the performed tests</text><ellipse cx="687.641" cy="212.6532" fill="#FEFECE" filter="url(#fq9v6cpfa7rhp)" rx="135.766" ry="30.1532" style="stroke:#A80036;stroke-width:1.875;"/><text fill="#000000" font-family="sans-serif" font-size="17.5" lengthAdjust="spacing" textLength="225" x="575.141" y="217.3138">UC 2 - Update personal data</text><ellipse cx="687.4268" cy="323.4854" fill="#FEFECE" filter="url(#fq9v6cpfa7rhp)" rx="171.1768" ry="37.2354" style="stroke:#A80036;stroke-width:1.875;"/><text fill="#000000" font-family="sans-serif" font-size="17.5" lengthAdjust="spacing" textLength="301.25" x="536.8018" y="328.146">UC 4 - Register a test to be performed</text><ellipse cx="1321.682" cy="323.9614" fill="#FEFECE" filter="url(#fq9v6cpfa7rhp)" rx="132.932" ry="29.5864" style="stroke:#A80036;stroke-width:1.875;"/><text fill="#000000" font-family="sans-serif" font-size="17.5" lengthAdjust="spacing" textLength="218.75" x="1212.307" y="328.622">UC 3 - Register a new client</text><ellipse cx="687.6347" cy="462.5269" fill="#FEFECE" filter="url(#fq9v6cpfa7rhp)" rx="269.5097" ry="56.9019" style="stroke:#A80036;stroke-width:1.875;"/><text fill="#000000" font-family="sans-serif" font-size="17.5" lengthAdjust="spacing" textLength="505" x="435.1347" y="467.1876">UC 5 - Record the samples collected in the scope of a given test</text><ellipse cx="687.4976" cy="612.2495" fill="#FEFECE" filter="url(#fq9v6cpfa7rhp)" rx="227.4976" ry="48.4995" style="stroke:#A80036;stroke-width:1.875;"/><text fill="#000000" font-family="sans-serif" font-size="17.5" lengthAdjust="spacing" textLength="418.75" x="478.1226" y="616.9102">UC 6 - Specify a new test parameter and categorize it</text><ellipse cx="687.7063" cy="737.7913" fill="#FEFECE" filter="url(#fq9v6cpfa7rhp)" rx="148.9563" ry="32.7913" style="stroke:#A80036;stroke-width:1.875;"/><text fill="#000000" font-family="sans-serif" font-size="17.5" lengthAdjust="spacing" textLength="253.75" x="560.8313" y="742.4519">UC 7 - Register a new employee</text><ellipse cx="687.4629" cy="887.7426" fill="#FEFECE" filter="url(#fq9v6cpfa7rhp)" rx="354.9629" ry="73.9926" style="stroke:#A80036;stroke-width:1.875;"/><text fill="#000000" font-family="sans-serif" font-size="17.5" lengthAdjust="spacing" textLength="678.75" x="348.0879" y="892.4032">UC 8 - Register a new clinical analysis laboratory stating which kind of tests it operates</text><ellipse cx="687.478" cy="1058.6206" fill="#FEFECE" filter="url(#fq9v6cpfa7rhp)" rx="249.978" ry="52.9956" style="stroke:#A80036;stroke-width:1.875;"/><text fill="#000000" font-family="sans-serif" font-size="17.5" lengthAdjust="spacing" textLength="465" x="454.978" y="1063.2812">UC 9 - Specify a new type of test and its collecting methods</text><ellipse cx="687.2574" cy="1202.4515" fill="#FEFECE" filter="url(#fq9v6cpfa7rhp)" rx="216.0074" ry="46.2015" style="stroke:#A80036;stroke-width:1.875;"/><text fill="#000000" font-family="sans-serif" font-size="17.5" lengthAdjust="spacing" textLength="395" x="489.7574" y="1207.1121">UC 10 - Specify a new parameter and categorize it</text><ellipse cx="687.227" cy="1333.4454" fill="#FEFECE" filter="url(#fq9v6cpfa7rhp)" rx="186.602" ry="40.3204" style="stroke:#A80036;stroke-width:1.875;"/><text fill="#000000" font-family="sans-serif" font-size="17.5" lengthAdjust="spacing" textLength="333.75" x="520.352" y="1338.1061">UC 11 - Specify a new parameter category</text><ellipse cx="687.4044" cy="1605.2309" fill="#FEFECE" filter="url(#fq9v6cpfa7rhp)" rx="183.0294" ry="39.6059" style="stroke:#A80036;stroke-width:1.875;"/><text fill="#000000" font-family="sans-serif" font-size="17.5" lengthAdjust="spacing" textLength="326.25" x="524.2794" y="1609.8915">UC 12 - Record the results of a given test</text><ellipse cx="687.7587" cy="1739.0517" fill="#FEFECE" filter="url(#fq9v6cpfa7rhp)" rx="239.6337" ry="50.9267" style="stroke:#A80036;stroke-width:1.875;"/><text fill="#000000" font-family="sans-serif" font-size="17.5" lengthAdjust="spacing" textLength="443.75" x="465.8837" y="1743.7124">UC 13 - Consult the historical tests performed by a client</text><ellipse cx="687.4309" cy="1886.4862" fill="#FEFECE" filter="url(#fq9v6cpfa7rhp)" rx="251.8059" ry="53.3612" style="stroke:#A80036;stroke-width:1.875;"/><text fill="#000000" font-family="sans-serif" font-size="17.5" lengthAdjust="spacing" textLength="468.75" x="453.0559" y="1891.1468">UC 14 - Make a diagnosis and write a report for a given test</text><ellipse cx="687.3147" cy="2043.7129" fill="#FEFECE" filter="url(#fq9v6cpfa7rhp)" rx="284.8147" ry="59.9629" style="stroke:#A80036;stroke-width:1.875;"/><text fill="#000000" font-family="sans-serif" font-size="17.5" lengthAdjust="spacing" textLength="536.25" x="419.1897" y="2048.3736">UC 15 - Validate the work done by the clinical chemistry technologist</text><ellipse cx="687.7773" cy="2217.4305" fill="#FEFECE" filter="url(#fq9v6cpfa7rhp)" rx="331.5273" ry="69.3055" style="stroke:#A80036;stroke-width:1.875;"/><text fill="#000000" font-family="sans-serif" font-size="17.5" lengthAdjust="spacing" textLength="631.25" x="372.1523" y="2222.0911">UC 16 - Have an overview of all the tests and analyse the company performance</text><ellipse cx="687.7945" cy="2371.1839" fill="#FEFECE" filter="url(#fq9v6cpfa7rhp)" rx="187.7945" ry="40.5589" style="stroke:#A80036;stroke-width:1.875;"/><text fill="#000000" font-family="sans-serif" font-size="17.5" lengthAdjust="spacing" textLength="336.25" x="519.6695" y="2375.8445">UC 17 - Import clinical tests from a CSV file</text><ellipse cx="687.7415" cy="1469.7983" fill="#FEFECE" filter="url(#fq9v6cpfa7rhp)" rx="240.2415" ry="51.0483" style="stroke:#A80036;stroke-width:1.875;"/><text fill="#000000" font-family="sans-serif" font-size="17.5" lengthAdjust="spacing" textLength="445" x="465.2415" y="1474.4589">UC 18 - Send the Covid-19 report to the NHS at any time</text><ellipse cx="687.4549" cy="2501.366" fill="#FEFECE" filter="url(#fq9v6cpfa7rhp)" rx="210.5799" ry="45.116" style="stroke:#A80036;stroke-width:1.875;"/><text fill="#000000" font-family="sans-serif" font-size="17.5" lengthAdjust="spacing" textLength="383.75" x="495.5799" y="2506.0266">UC 19 - Send daily Covid-19 data reports to NHS</text><!--MD5=[ff2d61647fb09ddd586bbb3af474de91]
entity CL--><ellipse cx="130.625" cy="96.25" fill="#FEFECE" filter="url(#fq9v6cpfa7rhp)" rx="10" ry="10" style="stroke:#A80036;stroke-width:1.875;"/><path d="M130.625,106.25 L130.625,140 M114.375,116.25 L146.875,116.25 M130.625,140 L114.375,158.75 M130.625,140 L146.875,158.75 " fill="none" filter="url(#fq9v6cpfa7rhp)" style="stroke:#A80036;stroke-width:1.875;"/><text fill="#000000" font-family="sans-serif" font-size="17.5" lengthAdjust="spacing" textLength="45" x="108.125" y="183.7915">Client</text><!--MD5=[bb60de543e8411a6dabc021fa3075c76]
entity REC--><ellipse cx="130.625" cy="280" fill="#FEFECE" filter="url(#fq9v6cpfa7rhp)" rx="10" ry="10" style="stroke:#A80036;stroke-width:1.875;"/><path d="M130.625,290 L130.625,323.75 M114.375,300 L146.875,300 M130.625,323.75 L114.375,342.5 M130.625,323.75 L146.875,342.5 " fill="none" filter="url(#fq9v6cpfa7rhp)" style="stroke:#A80036;stroke-width:1.875;"/><text fill="#000000" font-family="sans-serif" font-size="17.5" lengthAdjust="spacing" textLength="97.5" x="81.875" y="367.5415">Receptionist</text><!--MD5=[e7d38603a700bedb049d1f5e1789c8aa]
entity MLT--><ellipse cx="130.625" cy="427.5" fill="#FEFECE" filter="url(#fq9v6cpfa7rhp)" rx="10" ry="10" style="stroke:#A80036;stroke-width:1.875;"/><path d="M130.625,437.5 L130.625,471.25 M114.375,447.5 L146.875,447.5 M130.625,471.25 L114.375,490 M130.625,471.25 L146.875,490 " fill="none" filter="url(#fq9v6cpfa7rhp)" style="stroke:#A80036;stroke-width:1.875;"/><text fill="#000000" font-family="sans-serif" font-size="17.5" lengthAdjust="spacing" textLength="186.25" x="37.5" y="515.0415">Medical Lab Technician</text><!--MD5=[62529e7d5259bf274c3bf3e446350d88]
entity Administrator--><ellipse cx="130.625" cy="1018.75" fill="#FEFECE" filter="url(#fq9v6cpfa7rhp)" rx="10" ry="10" style="stroke:#A80036;stroke-width:1.875;"/><path d="M130.625,1028.75 L130.625,1062.5 M114.375,1038.75 L146.875,1038.75 M130.625,1062.5 L114.375,1081.25 M130.625,1062.5 L146.875,1081.25 " fill="none" filter="url(#fq9v6cpfa7rhp)" style="stroke:#A80036;stroke-width:1.875;"/><text fill="#000000" font-family="sans-serif" font-size="17.5" lengthAdjust="spacing" textLength="103.75" x="78.75" y="1106.2915">Administrator</text><!--MD5=[234b11d210a3d78b3bcac40f493e1b07]
entity CCT--><ellipse cx="130.625" cy="1652.5" fill="#FEFECE" filter="url(#fq9v6cpfa7rhp)" rx="10" ry="10" style="stroke:#A80036;stroke-width:1.875;"/><path d="M130.625,1662.5 L130.625,1696.25 M114.375,1672.5 L146.875,1672.5 M130.625,1696.25 L114.375,1715 M130.625,1696.25 L146.875,1715 " fill="none" filter="url(#fq9v6cpfa7rhp)" style="stroke:#A80036;stroke-width:1.875;"/><text fill="#000000" font-family="sans-serif" font-size="17.5" lengthAdjust="spacing" textLength="246.25" x="7.5" y="1740.0415">Clinical Chemistry Technologist</text><!--MD5=[f0e91d5aa74c2411969e7ef072c6f268]
entity SD--><ellipse cx="130.625" cy="1846.25" fill="#FEFECE" filter="url(#fq9v6cpfa7rhp)" rx="10" ry="10" style="stroke:#A80036;stroke-width:1.875;"/><path d="M130.625,1856.25 L130.625,1890 M114.375,1866.25 L146.875,1866.25 M130.625,1890 L114.375,1908.75 M130.625,1890 L146.875,1908.75 " fill="none" filter="url(#fq9v6cpfa7rhp)" style="stroke:#A80036;stroke-width:1.875;"/><text fill="#000000" font-family="sans-serif" font-size="17.5" lengthAdjust="spacing" textLength="132.5" x="64.375" y="1933.7915">Specialist Doctor</text><!--MD5=[b0100dfa164aec77c855c16afe11d7ec]
entity LC--><ellipse cx="130.625" cy="2177.5" fill="#FEFECE" filter="url(#fq9v6cpfa7rhp)" rx="10" ry="10" style="stroke:#A80036;stroke-width:1.875;"/><path d="M130.625,2187.5 L130.625,2221.25 M114.375,2197.5 L146.875,2197.5 M130.625,2221.25 L114.375,2240 M130.625,2221.25 L146.875,2240 " fill="none" filter="url(#fq9v6cpfa7rhp)" style="stroke:#A80036;stroke-width:1.875;"/><text fill="#000000" font-family="sans-serif" font-size="17.5" lengthAdjust="spacing" textLength="185" x="38.125" y="2265.0415">Laboratory Coordinator</text><!--MD5=[27a305f6159a620967c6a9ff626f0c49]
entity ML--><ellipse cx="130.625" cy="2461.25" fill="#FEFECE" filter="url(#fq9v6cpfa7rhp)" rx="10" ry="10" style="stroke:#A80036;stroke-width:1.875;"/><path d="M130.625,2471.25 L130.625,2505 M114.375,2481.25 L146.875,2481.25 M130.625,2505 L114.375,2523.75 M130.625,2505 L146.875,2523.75 " fill="none" filter="url(#fq9v6cpfa7rhp)" style="stroke:#A80036;stroke-width:1.875;"/><text fill="#000000" font-family="sans-serif" font-size="17.5" lengthAdjust="spacing" textLength="86.25" x="87.5" y="2548.7915">Many Labs</text><!--MD5=[181a381945f852c6ea46fc5bb40b7c15]
link CL to UC 1 - View the results of the performed tests--><path d="M153.2625,134.7125 C209.1875,130.675 364.275,119.4875 492.825,110.2 " fill="none" id="CL-to-UC 1 - View the results of the performed tests" style="stroke:#A80036;stroke-width:1.25;"/><polygon fill="#A80036" points="499.3125,109.7375,487.7349,105.5517,493.0784,110.1828,488.4473,115.5263,499.3125,109.7375" style="stroke:#A80036;stroke-width:1.25;"/><!--MD5=[004abe82bcdc0ccee503dcca83c8715e]
link CL to UC 2 - Update personal data--><path d="M153.425,139.2625 C185.7875,143.7875 248.875,152.6 302.5,160 C390.45,172.1375 489.7625,185.725 565.325,196.025 " fill="none" id="CL-to-UC 2 - Update personal data" style="stroke:#A80036;stroke-width:1.25;"/><polygon fill="#A80036" points="571.6375,196.8875,561.1604,190.4228,565.4441,196.0486,559.8182,200.3323,571.6375,196.8875" style="stroke:#A80036;stroke-width:1.25;"/><!--MD5=[2a242fea01654a7c5e2ab8aec924c5ca]
link REC to UC 4 - Register a test to be performed--><path d="M179.625,320.325 C252.3125,320.8125 394.45,321.775 509.725,322.55 " fill="none" id="REC-to-UC 4 - Register a test to be performed" style="stroke:#A80036;stroke-width:1.25;"/><polygon fill="#A80036" points="516.2375,322.6,505.0308,317.5038,509.9877,322.5464,504.9451,327.5034,516.2375,322.6" style="stroke:#A80036;stroke-width:1.25;"/><!--MD5=[fcba85563d9a62687e7fcd5c705ef594]
link UC 4 - Register a test to be performed to UC 3 - Register a new client--><path d="M858.9125,323.75 C960.1125,323.75 1086.8625,323.75 1181.95,323.75 " fill="none" id="UC 4 - Register a test to be performed-to-UC 3 - Register a new client" style="stroke:#A52A2A;stroke-width:1.25;stroke-dasharray:7.0,7.0;"/><polygon fill="#A52A2A" points="1188.75,323.75,1177.5,318.75,1182.5,323.75,1177.5,328.75,1188.75,323.75" style="stroke:#A52A2A;stroke-width:1.25;"/><text fill="#000000" font-family="sans-serif" font-size="16.25" lengthAdjust="spacing" textLength="68.75" x="1081.25" y="319.3689">«Include»</text><!--MD5=[4fc97292cbc4092ad15c300162480e29]
link MLT to UC 5 - Record the samples collected in the scope of a given test--><path d="M224.0375,466.6625 C275.9375,466.2 343.7625,465.5875 411.4,464.975 " fill="none" id="MLT-to-UC 5 - Record the samples collected in the scope of a given test" style="stroke:#A80036;stroke-width:1.25;"/><polygon fill="#A80036" points="417.95,464.925,406.6576,460.0216,411.7002,464.9786,406.7433,470.0212,417.95,464.925" style="stroke:#A80036;stroke-width:1.25;"/><!--MD5=[84f5d9d1f7adcc838d9e47ebab96d045]
link Administrator to UC 6 - Specify a new test parameter and categorize it--><path d="M139.825,1006.825 C155.375,924.275 197.9,764.1375 302.5,682.5 C345.9375,648.6 400.525,629.175 454.8,618.45 " fill="none" id="Administrator-to-UC 6 - Specify a new test parameter and categorize it" style="stroke:#A80036;stroke-width:1.25;"/><polygon fill="#A80036" points="461.0625,617.25,449.0719,614.4593,454.9245,618.4276,450.9561,624.2802,461.0625,617.25" style="stroke:#A80036;stroke-width:1.25;"/><!--MD5=[c7ce2a8cbce7932ff7c97d8930b32304]
link Administrator to UC 7 - Register a new employee--><path d="M149.6,1006.7 C173.75,944.4125 223.25,842.1625 302.5,791.25 C371.175,747.125 460.9625,732.75 536.4125,729.85 " fill="none" id="Administrator-to-UC 7 - Register a new employee" style="stroke:#A80036;stroke-width:1.25;"/><polygon fill="#A80036" points="542.75,729.625,531.3353,725.0134,536.5037,729.8392,531.6779,735.0076,542.75,729.625" style="stroke:#A80036;stroke-width:1.25;"/><!--MD5=[16f4822291b3efc5d776c8838d4e3d6d]
link Administrator to UC 8 - Register a new clinical analysis laboratory stating which kind of tests it operates--><path d="M182.875,1033.6375 C216.3125,1017.8375 261.325,997.85 302.5,983.75 C346.0375,968.8375 393.0625,955.15 438.775,943.05 " fill="none" id="Administrator-to-UC 8 - Register a new clinical analysis laboratory stating which kind of tests it operates" style="stroke:#A80036;stroke-width:1.25;"/><polygon fill="#A80036" points="444.925,941.425,432.7741,939.4456,438.8799,943.0121,435.3134,949.1178,444.925,941.425" style="stroke:#A80036;stroke-width:1.25;"/><!--MD5=[e034d5b0bbbe67e46b91392b92cd616a]
link Administrator to UC 9 - Specify a new type of test and its collecting methods--><path d="M182.5375,1058.75 C239.6375,1058.75 336.775,1058.75 430.6125,1058.75 " fill="none" id="Administrator-to-UC 9 - Specify a new type of test and its collecting methods" style="stroke:#A80036;stroke-width:1.25;"/><polygon fill="#A80036" points="437.3625,1058.75,426.1125,1053.75,431.1125,1058.75,426.1125,1063.75,437.3625,1058.75" style="stroke:#A80036;stroke-width:1.25;"/><!--MD5=[4d0c405ca54d8e294a012a5e383e5fa3]
link Administrator to UC 10 - Specify a new parameter and categorize it--><path d="M182.5625,1084.825 C215.8875,1101.0125 260.8625,1121.0625 302.5,1133.75 C364.3125,1152.575 433.4,1166.925 495.725,1177.5125 " fill="none" id="Administrator-to-UC 10 - Specify a new parameter and categorize it" style="stroke:#A80036;stroke-width:1.25;"/><polygon fill="#A80036" points="502.125,1178.6,491.8596,1171.8041,495.9615,1177.5638,490.2017,1181.6657,502.125,1178.6" style="stroke:#A80036;stroke-width:1.25;"/><!--MD5=[874cb873d8c5b00c495ca5c066d0f4ee]
link Administrator to UC 11 - Specify a new parameter category--><path d="M159.1875,1110.95 C187.925,1160.35 237.95,1232.35 302.5,1270 C360.15,1303.625 430.4625,1320.7875 495.0875,1329.1875 " fill="none" id="Administrator-to-UC 11 - Specify a new parameter category" style="stroke:#A80036;stroke-width:1.25;"/><polygon fill="#A80036" points="501.3125,1329.975,490.7628,1323.6294,495.1099,1329.2064,489.533,1333.5535,501.3125,1329.975" style="stroke:#A80036;stroke-width:1.25;"/><!--MD5=[69ca063c9fd29452d66d19132c7c33ee]
link CCT to UC 12 - Record the results of a given test--><path d="M253.875,1673.2375 C336.0625,1660.275 445.1125,1643.0625 533.1375,1629.1625 " fill="none" id="CCT-to-UC 12 - Record the results of a given test" style="stroke:#A80036;stroke-width:1.25;"/><polygon fill="#A80036" points="539.4375,1628.175,527.5421,1625.0031,533.265,1629.1562,529.1119,1634.8791,539.4375,1628.175" style="stroke:#A80036;stroke-width:1.25;"/><!--MD5=[8be4b53c98c59efc3795c8ea328fd5c1]
link CCT to UC 13 - Consult the historical tests performed by a client--><path d="M253.875,1702.675 C313.9125,1707.6875 388.275,1713.8875 458.3125,1719.7375 " fill="none" id="CCT-to-UC 13 - Consult the historical tests performed by a client" style="stroke:#A80036;stroke-width:1.25;"/><polygon fill="#A80036" points="464.6375,1720.2625,453.8402,1714.3481,458.409,1719.7449,453.0121,1724.3137,464.6375,1720.2625" style="stroke:#A80036;stroke-width:1.25;"/><!--MD5=[b8b4ddc3f9818ba5533ecd3b8f3ff9f3]
link SD to UC 14 - Make a diagnosis and write a report for a given test--><path d="M197.1,1886.25 C254.8375,1886.25 343.025,1886.25 428.7,1886.25 " fill="none" id="SD-to-UC 14 - Make a diagnosis and write a report for a given test" style="stroke:#A80036;stroke-width:1.25;"/><polygon fill="#A80036" points="435.3875,1886.25,424.1375,1881.25,429.1375,1886.25,424.1375,1891.25,435.3875,1886.25" style="stroke:#A80036;stroke-width:1.25;"/><!--MD5=[3f843081037ac5bda090c11800bac3e7]
link LC to UC 15 - Validate the work done by the clinical chemistry technologist--><path d="M217.8125,2165.525 C244.275,2151.1875 273.9625,2136.7125 302.5,2126.25 C351.225,2108.3875 404.9125,2093.85 456.3125,2082.2375 " fill="none" id="LC-to-UC 15 - Validate the work done by the clinical chemistry technologist" style="stroke:#A80036;stroke-width:1.25;"/><polygon fill="#A80036" points="462.575,2080.8375,450.5,2078.4382,456.4785,2082.2141,452.7026,2088.1926,462.575,2080.8375" style="stroke:#A80036;stroke-width:1.25;"/><!--MD5=[42a6419145b8e6b82d662302ba72cf1b]
link LC to UC 16 - Have an overview of all the tests and analyse the company performance--><path d="M223.425,2217.5 C259.625,2217.5 303.6375,2217.5 349.975,2217.5 " fill="none" id="LC-to-UC 16 - Have an overview of all the tests and analyse the company performance" style="stroke:#A80036;stroke-width:1.25;"/><polygon fill="#A80036" points="356.225,2217.5,344.975,2212.5,349.975,2217.5,344.975,2222.5,356.225,2217.5" style="stroke:#A80036;stroke-width:1.25;"/><!--MD5=[0ba20e84d18be4d3927b2b9168e6ff2b]
link LC to UC 17 - Import clinical tests from a CSV file--><path d="M215.75,2269.4375 C242.625,2284.1125 273.0625,2298.7875 302.5,2308.75 C367.85,2330.8625 442.1875,2345.275 507.9125,2354.625 " fill="none" id="LC-to-UC 17 - Import clinical tests from a CSV file" style="stroke:#A80036;stroke-width:1.25;"/><polygon fill="#A80036" points="514.25,2355.5125,503.8096,2348.9886,508.0614,2354.6386,502.4114,2358.8904,514.25,2355.5125" style="stroke:#A80036;stroke-width:1.25;"/><!--MD5=[4239b5374ff587615c501a26ec53b000]
link Administrator to UC 18 - Send the Covid-19 report to the NHS at any time--><path d="M142.9625,1110.875 C161.875,1186.375 207.8875,1324.875 302.5,1396.25 C344,1427.5625 395.05,1446.7375 446.2,1458.2375 " fill="none" id="Administrator-to-UC 18 - Send the Covid-19 report to the NHS at any time" style="stroke:#A80036;stroke-width:1.25;"/><polygon fill="#A80036" points="452.4375,1459.6,442.4994,1452.3339,446.3289,1458.2782,440.3845,1462.1078,452.4375,1459.6" style="stroke:#A80036;stroke-width:1.25;"/><!--MD5=[b38f95f388ddfb52e83889dc88d75552]
link ML to UC 19 - Send daily Covid-19 data reports to NHS--><path d="M174,2501.25 C237.05,2501.25 360.3125,2501.25 470.125,2501.25 " fill="none" id="ML-to-UC 19 - Send daily Covid-19 data reports to NHS" style="stroke:#A80036;stroke-width:1.25;"/><polygon fill="#A80036" points="476.675,2501.25,465.425,2496.25,470.425,2501.25,465.425,2506.25,476.675,2501.25" style="stroke:#A80036;stroke-width:1.25;"/><!--MD5=[f41f3b82d038440322b686c2c1425851]
@startuml

left to right direction
skinparam packageStyle rectangle
actor "Client" as CL
actor "Receptionist" as REC
actor "Medical Lab Technician" as MLT
actor Administrator
actor "Clinical Chemistry Technologist" as CCT
actor "Specialist Doctor" as SD
actor "Laboratory Coordinator" as LC
actor "Many Labs" as ML

rectangle System {
CL - -> (UC 1 - View the results of the performed tests)
CL - -> (UC 2 - Update personal data)
REC - -> (UC 4 - Register a test to be performed)
(UC 4 - Register a test to be performed) - -> (UC 3 - Register a new client) #brown;line.dashed;text:black : <<Include>>
MLT - -> (UC 5 - Record the samples collected in the scope of a given test)
Administrator - -> (UC 6 - Specify a new test parameter and categorize it)
Administrator - -> (UC 7 - Register a new employee)
Administrator - -> (UC 8 - Register a new clinical analysis laboratory stating which kind of tests it operates)
Administrator - -> (UC 9 - Specify a new type of test and its collecting methods)
Administrator - -> (UC 10 - Specify a new parameter and categorize it)
Administrator - -> (UC 11 - Specify a new parameter category)
CCT - -> (UC 12 - Record the results of a given test)
CCT - -> (UC 13 - Consult the historical tests performed by a client)
SD - -> (UC 14 - Make a diagnosis and write a report for a given test)
LC - -> (UC 15 - Validate the work done by the clinical chemistry technologist)
LC - -> (UC 16 - Have an overview of all the tests and analyse the company performance)
LC - -> (UC 17 - Import clinical tests from a CSV file)
Administrator - -> (UC 18 - Send the Covid-19 report to the NHS at any time)
ML - -> (UC 19 - Send daily Covid-19 data reports to NHS)
}


@enduml

PlantUML version 1.2021.7(Sun May 23 13:40:07 BST 2021)
(GPL source distribution)
Java Runtime: OpenJDK Runtime Environment
JVM: Dynamic Code Evolution 64-Bit Server VM
Default Encoding: Cp1252
Language: pt
Country: PT
--></g></svg>